<?xml version='1.0' encoding='utf-8'?>
<svg xmlns="http://www.w3.org/2000/svg" xmlns:dc="http://purl.org/dc/elements/1.1/" xmlns:ns1="http://www.inkscape.org/namespaces/inkscape" xmlns:ns2="http://sodipodi.sourceforge.net/DTD/sodipodi-0.dtd" xmlns:ns4="http://creativecommons.org/ns#" xmlns:rdf="http://www.w3.org/1999/02/22-rdf-syntax-ns#" width="335.75833" stroke-miterlimit="10" font-weight="normal" height="423.19785" font-style="normal" font-size="12px" id="svg2" version="1.1" ns1:version="0.91 r13725" ns2:docname="(1S,2S)-Tramadol.svg" style="font-style:normal;font-weight:normal;font-size:12px;font-family:Dialog;color-interpolation:auto;fill:#f0abfc;fill-opacity:1;stroke:none;stroke:none;stroke:none;stroke:none;stroke:none;stroke:none;stroke:none;stroke:none;color-rendering:auto;image-rendering:auto;shape-rendering:auto;text-rendering:auto">
  <metadata id="metadata152">
    <rdf:RDF>
      <ns4:Work rdf:about="">
        <dc:format>image/svg+xml</dc:format>
        <dc:type rdf:resource="http://purl.org/dc/dcmitype/StillImage" />
        <dc:title />
      </ns4:Work>
    </rdf:RDF>
  </metadata>
  <ns2:namedview pagecolor="#eef2ff" bordercolor="#666666" borderopacity="1" objecttolerance="10" gridtolerance="10" guidetolerance="10" ns1:pageopacity="0" ns1:pageshadow="2" ns1:window-width="1060" ns1:window-height="480" id="namedview150" showgrid="false" fit-margin-top="10" fit-margin-left="10" fit-margin-right="10" fit-margin-bottom="10" ns1:zoom="0.36375" ns1:cx="332.2671" ns1:cy="139.1371" ns1:window-x="0" ns1:window-y="0" ns1:window-maximized="0" ns1:current-layer="svg2" />
  
  <defs id="genericDefs" />
  <g id="g5" transform="translate(-67.7329,-15.939258)" style="fill:#f0abfc;stroke:none">
    <defs id="1828692820967-defs1">
      <clipPath clipPathUnits="userSpaceOnUse" id="182869282010-clipPath1">
        <path d="M 0,0 800,0 800,600 0,600 0,0 Z" id="path9" ns1:connector-curvature="0" style="stroke:none" />
      </clipPath>
      <clipPath clipPathUnits="userSpaceOnUse" id="1828692820372-clipPath1">
        <path d="m 150.3157,144.5174 c -14.1152,0 -25.5578,11.4426 -25.5578,25.5578 0,14.1152 11.4426,25.5578 25.5578,25.5578 14.1152,0 25.5578,-11.4426 25.5578,-25.5578 0,-14.1152 -11.4426,-25.5578 -25.5578,-25.5578 z" id="path12" ns1:connector-curvature="0" style="stroke:none" />
      </clipPath>
      <clipPath clipPathUnits="userSpaceOnUse" id="1828692820504-clipPath1">
        <path d="m 185.9697,328.6565 c -14.7217,0 -26.6561,11.9343 -26.6561,26.6561 0,14.7217 11.9344,26.656 26.6561,26.656 14.7218,0 26.6561,-11.9343 26.6561,-26.656 0,-14.7218 -11.9343,-26.6561 -26.6561,-26.6561 z" id="path15" ns1:connector-curvature="0" style="stroke:none" />
      </clipPath>
      <clipPath clipPathUnits="userSpaceOnUse" id="1828692820103-clipPath1">
        <path d="m 135.6924,391.8055 c -13.9444,0 -25.2487,11.3043 -25.2487,25.2488 0,13.9444 11.3043,25.2487 25.2487,25.2487 13.9445,0 25.2488,-11.3043 25.2488,-25.2487 0,-13.9445 -11.3043,-25.2488 -25.2488,-25.2488 z" id="path18" ns1:connector-curvature="0" style="stroke:none" />
      </clipPath>
      <clipPath clipPathUnits="userSpaceOnUse" id="1828692820804-clipPath1">
        <path d="m 273.8047,141.9346 c -15.5485,0 -28.1531,12.6045 -28.1531,28.153 0,15.5485 12.6046,28.1531 28.1531,28.1531 15.5485,0 28.153,-12.6046 28.153,-28.1531 0,-15.5485 -12.6045,-28.153 -28.153,-28.153 z" id="path21" ns1:connector-curvature="0" style="stroke:none" />
      </clipPath>
      <clipPath clipPathUnits="userSpaceOnUse" id="1828692820132-clipPath1">
        <path d="m 335.5522,93.1507 c -13.1613,0 -23.8307,10.6694 -23.8307,23.8308 0,13.1614 10.6694,23.8308 23.8307,23.8308 13.1615,0 23.8309,-10.6694 23.8309,-23.8308 0,-13.1614 -10.6694,-23.8308 -23.8309,-23.8308 z" id="path24" ns1:connector-curvature="0" style="stroke:none" />
      </clipPath>
      <clipPath clipPathUnits="userSpaceOnUse" id="1828692820726-clipPath1">
        <path d="m 348.5328,116.8728 c -13.8438,0 -25.0665,11.2226 -25.0665,25.0665 0,13.8439 11.2227,25.0665 25.0665,25.0665 13.8438,0 25.0665,-11.2226 25.0665,-25.0665 0,-13.8439 -11.2227,-25.0665 -25.0665,-25.0665 z" id="path27" ns1:connector-curvature="0" style="stroke:none" />
      </clipPath>
      <clipPath clipPathUnits="userSpaceOnUse" id="1828692820864-clipPath1">
        <path d="m -76.2329,-205.4923 800,0 0,600 -800,0 0,-600 z" id="path30" ns1:connector-curvature="0" style="stroke:none" />
      </clipPath>
      <clipPath clipPathUnits="userSpaceOnUse" id="1828692820549-clipPath1">
        <path d="m -140.8653,-402.055 800,0 0,600 -800,0 0,-600 z" id="path33" ns1:connector-curvature="0" style="stroke:none" />
      </clipPath>
      <clipPath clipPathUnits="userSpaceOnUse" id="1828692820765-clipPath1">
        <path d="m -326.6449,-119.4433 800,0 0,600 -800,0 0,-600 z" id="path36" ns1:connector-curvature="0" style="stroke:none" />
      </clipPath>
    </defs>
    <g id="g38" style="text-rendering:geometricPrecision;fill:#f0abfc;stroke:none">
      <path d="M 149.5442,26.1463 87.7973,61.7944 c -0.7382,0.4262 -0.9911,1.3698 -0.5649,2.1081 0.4263,0.7382 1.3698,0.9911 2.1081,0.5649 l 61.7468,-35.6481 c 0.7382,-0.4263 0.9911,-1.3698 0.5649,-2.1081 -0.4262,-0.7382 -1.3698,-0.9911 -2.108,-0.5649 z" clip-path="url(#182869282010-clipPath1)" id="path40" ns1:connector-curvature="0" style="stroke:none" />
    </g>
    <g id="g42" style="text-rendering:geometricPrecision;fill:#f0abfc;stroke:none">
      <path d="m 149.5442,28.8193 61.7468,35.6481 c 0.7382,0.4262 1.6818,0.1733 2.108,-0.5649 0.4262,-0.7383 0.1734,-1.6819 -0.5649,-2.1081 L 151.0873,26.1463 c -0.7383,-0.4262 -1.6818,-0.1733 -2.108,0.5649 -0.4262,0.7383 -0.1734,1.6818 0.5649,2.1081 z" clip-path="url(#182869282010-clipPath1)" id="path44" ns1:connector-curvature="0" style="stroke:none" />
    </g>
    <g id="g46" style="text-rendering:geometricPrecision;fill:#f0abfc;stroke:none">
      <path d="m 87.0257,63.1309 0,71.3048 c 0,0.8525 0.6907,1.5432 1.5432,1.5432 0.8524,0 1.5432,-0.6907 1.5432,-1.5432 l 0,-71.3048 c 0,-0.8525 -0.6908,-1.5432 -1.5432,-1.5432 -0.8525,0 -1.5432,0.6907 -1.5432,1.5432 z" clip-path="url(#182869282010-clipPath1)" id="path48" ns1:connector-curvature="0" style="stroke:none" />
    </g>
    <g id="g50" style="text-rendering:geometricPrecision;fill:#f0abfc;stroke:none">
      <path d="m 87.7975,135.7723 61.7468,35.6394 c 0.7383,0.4262 1.6818,0.1732 2.108,-0.5651 0.4261,-0.7383 0.1732,-1.6818 -0.5651,-2.108 L 89.3403,133.0992 c -0.7383,-0.4261 -1.6818,-0.1732 -2.1079,0.5651 -0.4262,0.7383 -0.1732,1.6818 0.5651,2.108 z" clip-path="url(#182869282010-clipPath1)" id="path52" ns1:connector-curvature="0" style="stroke:none" />
    </g>
    <g id="g54" style="text-rendering:geometricPrecision;fill:#f0abfc;stroke:none">
      <path d="m 151.0872,171.4117 61.7468,-35.6394 c 0.7383,-0.4262 0.9912,-1.3697 0.5651,-2.108 -0.4261,-0.7383 -1.3697,-0.9912 -2.108,-0.5651 l -61.7468,35.6394 c -0.7383,0.4262 -0.9912,1.3697 -0.5651,2.108 0.4261,0.7383 1.3697,0.9913 2.108,0.5651 z" clip-path="url(#182869282010-clipPath1)" id="path56" ns1:connector-curvature="0" style="stroke:none" />
    </g>
    <g id="g58" style="text-rendering:geometricPrecision;fill:#f0abfc;stroke:none">
      <path d="m 213.6057,134.4357 0,-71.3048 c 0,-0.8525 -0.6907,-1.5432 -1.5432,-1.5432 -0.8524,0 -1.5431,0.6907 -1.5431,1.5432 l 0,71.3048 c 0,0.8525 0.6907,1.5432 1.5431,1.5432 0.8525,0 1.5432,-0.6907 1.5432,-1.5432 z" clip-path="url(#182869282010-clipPath1)" id="path60" ns1:connector-curvature="0" style="stroke:none" />
    </g>
    <g id="g62" style="text-rendering:geometricPrecision;fill:#f0abfc;stroke:none">
      <path d="m 193.9535,246.7877 c 0.4262,-0.7383 0.1734,-1.6818 -0.5649,-2.108 -0.7382,-0.4263 -1.6818,-0.1734 -2.108,0.5648 l -26.677,46.2073 c -0.4262,0.7382 -0.1734,1.6818 0.5649,2.108 0.7382,0.4262 1.6818,0.1734 2.108,-0.5649 z m -6.6532,-14.1966 c 0.4262,-0.7383 0.1733,-1.6818 -0.5649,-2.1081 -0.7383,-0.4262 -1.6818,-0.1733 -2.108,0.5649 l -35.6447,61.7402 c -0.4262,0.7382 -0.1734,1.6818 0.5649,2.108 0.7382,0.4263 1.6818,0.1734 2.108,-0.5648 z" clip-path="url(#182869282010-clipPath1)" id="path64" ns1:connector-curvature="0" style="stroke:none" />
    </g>
    <g id="g66" style="text-rendering:geometricPrecision;fill:#f0abfc;stroke:none">
      <path d="m 148.9827,294.3312 35.6505,61.7529 c 0.4262,0.7383 1.3698,0.9911 2.1081,0.5649 0.7382,-0.4262 0.9911,-1.3697 0.5649,-2.108 l -35.6506,-61.7529 c -0.4262,-0.7382 -1.3697,-0.9911 -2.108,-0.5649 -0.7382,0.4262 -0.9911,1.3698 -0.5649,2.108 z" clip-path="url(#182869282010-clipPath1)" id="path68" ns1:connector-curvature="0" style="stroke:none" />
    </g>
    <g id="g70" style="text-rendering:geometricPrecision;fill:#f0abfc;stroke:none">
      <path d="m 194.9383,340.91 c -0.8524,-1e-4 -1.5432,0.6906 -1.5433,1.5431 0,0.8524 0.6907,1.5432 1.5431,1.5433 l 53.3552,0.004 c 0.8524,0 1.5432,-0.6907 1.5433,-1.5431 0,-0.8525 -0.6907,-1.5433 -1.5431,-1.5433 z m -8.9685,12.8594 c -0.8524,-1e-4 -1.5432,0.6906 -1.5433,1.543 0,0.8525 0.6906,1.5433 1.5431,1.5433 l 71.2909,0.005 c 0.8524,10e-5 1.5432,-0.6907 1.5433,-1.5431 10e-5,-0.8524 -0.6906,-1.5432 -1.5431,-1.5433 z" clip-path="url(#182869282010-clipPath1)" id="path72" ns1:connector-curvature="0" style="stroke:none" />
    </g>
    <g id="g74" style="text-rendering:geometricPrecision;fill:#f0abfc;stroke:none">
      <path d="m 258.597,356.0894 35.6521,-61.7445 c 0.4263,-0.7382 0.1735,-1.6818 -0.5647,-2.108 -0.7382,-0.4263 -1.6818,-0.1735 -2.1081,0.5647 l -35.6521,61.7445 c -0.4263,0.7383 -0.1735,1.6818 0.5647,2.1081 0.7383,0.4262 1.6818,0.1735 2.1081,-0.5648 z" clip-path="url(#182869282010-clipPath1)" id="path76" ns1:connector-curvature="0" style="stroke:none" />
    </g>
    <g id="g78" style="text-rendering:geometricPrecision;fill:#f0abfc;stroke:none">
      <path d="m 275.9551,293.0078 c 0.4262,0.7383 1.3698,0.9911 2.1081,0.5649 0.7382,-0.4262 0.9911,-1.3698 0.5649,-2.108 l -26.683,-46.2194 c -0.4262,-0.7383 -1.3697,-0.9911 -2.108,-0.5649 -0.7382,0.4262 -0.9911,1.3697 -0.5649,2.108 z m 15.6212,1.337 c 0.4262,0.7383 1.3697,0.9912 2.108,0.565 0.7382,-0.4262 0.9911,-1.3698 0.5649,-2.1081 l -35.6505,-61.7528 c -0.4262,-0.7383 -1.3698,-0.9912 -2.1081,-0.565 -0.7382,0.4263 -0.9911,1.3698 -0.5649,2.1081 z" clip-path="url(#182869282010-clipPath1)" id="path80" ns1:connector-curvature="0" style="stroke:none" />
    </g>
    <g id="g82" style="text-rendering:geometricPrecision;fill:#f0abfc;stroke:none">
      <path d="m 257.2622,230.2772 -71.2984,-9e-4 c -0.8524,0 -1.5432,0.6907 -1.5432,1.5432 0,0.8524 0.6908,1.5432 1.5432,1.5432 l 71.2984,9e-4 c 0.8524,0 1.5432,-0.6907 1.5432,-1.5432 0,-0.8524 -0.6907,-1.5432 -1.5432,-1.5432 z" clip-path="url(#182869282010-clipPath1)" id="path84" ns1:connector-curvature="0" style="stroke:none" />
    </g>
    <g id="g86" style="text-rendering:geometricPrecision;fill:#f0abfc;stroke:none">
      <path d="m 152.2888,170.1837 -0.6366,-0.8801 -1.3365,0.7716 -1.3364,0.7716 0.4438,0.9914 0,0 2.8657,-1.6545 z m 5.9103,8.1702 -1.8185,-2.5139 0,0 -4.1048,2.3699 0,0 1.2678,2.8318 0,0 4.6555,-2.6878 z m 5.9103,8.1703 -1.8186,-2.5139 0,0 -5.8945,3.4032 1.2679,2.8319 0,0 6.4452,-3.7212 z m 5.9103,8.1703 -1.8185,-2.5139 0,0 -7.6844,4.4365 1.2679,2.8319 8.235,-4.7545 z m 5.9103,8.1703 -1.8185,-2.514 0,0 -9.4742,5.4699 1.2679,2.8319 0,0 10.0248,-5.7878 z m 5.9103,8.1702 -1.8185,-2.5139 -11.2639,6.5032 1.2678,2.8319 11.8146,-6.8212 z m 5.9103,8.1703 -1.8185,-2.5139 0,0 -13.0537,7.5366 0,0 1.2678,2.8318 0,0 13.6044,-7.8545 z m 10.2414,14.1576 -6.1496,-8.5012 0,0 -14.8435,8.5698 0,0 4.2874,9.5764 0,0 5.5685,-9.6452 11.1372,2e-4 z" clip-path="url(#182869282010-clipPath1)" id="path88" ns1:connector-curvature="0" style="stroke:none" />
    </g>
    <g id="g90" style="fill:#fda4af;stroke:none;text-rendering:geometricPrecision">
      <path d="m 150.3157,170.0752 -1.0912,-1.0911 -41.8712,30.4178 6.8205,6.8197 6.8205,6.8196 30.4127,-41.8749 z" clip-path="url(#182869282010-clipPath1)" id="path92" ns1:connector-curvature="0" style="stroke:none" />
      <path d="m 150.3157,170.0752 -1.0912,-1.0911 -41.8712,30.4178 6.8205,6.8197 6.8205,6.8196 30.4127,-41.8749 z" clip-path="url(#1828692820372-clipPath1)" id="path94" ns1:connector-curvature="0" style="fill:#f0abfc;stroke:none" />
    </g>
    <g id="g96" style="fill:#fda4af;stroke:none;text-rendering:geometricPrecision">
      <path d="m 184.6333,354.5409 -26.6585,46.1683 c -0.4262,0.7382 -0.1735,1.6818 0.5648,2.1081 0.7382,0.4262 1.6818,0.1735 2.108,-0.5648 l 26.6585,-46.1683 c 0.4263,-0.7382 0.1735,-1.6818 -0.5647,-2.108 -0.7382,-0.4263 -1.6818,-0.1735 -2.1081,0.5647 z" clip-path="url(#182869282010-clipPath1)" id="path98" ns1:connector-curvature="0" style="stroke:none" />
      <path d="m 184.6333,354.5409 -26.6585,46.1683 c -0.4262,0.7382 -0.1735,1.6818 0.5648,2.1081 0.7382,0.4262 1.6818,0.1735 2.108,-0.5648 l 26.6585,-46.1683 c 0.4263,-0.7382 0.1735,-1.6818 -0.5647,-2.108 -0.7382,-0.4263 -1.6818,-0.1735 -2.1081,0.5647 z" clip-path="url(#1828692820504-clipPath1)" id="path100" ns1:connector-curvature="0" style="fill:#f0abfc;stroke:none" />
    </g>
    <g id="g102" style="text-rendering:geometricPrecision;fill:#f0abfc;stroke:none">
      <path d="m 135.6925,415.5111 -50.4974,-0.003 c -0.8525,-1e-4 -1.5433,0.6906 -1.5433,1.5431 -10e-5,0.8524 0.6907,1.5432 1.5431,1.5432 l 50.4975,0.003 c 0.8524,0 1.5432,-0.6907 1.5432,-1.5431 1e-4,-0.8525 -0.6906,-1.5433 -1.5431,-1.5433 z" clip-path="url(#182869282010-clipPath1)" id="path104" ns1:connector-curvature="0" style="stroke:none" />
      <path d="m 135.6925,415.5111 -50.4974,-0.003 c -0.8525,-1e-4 -1.5433,0.6906 -1.5433,1.5431 -10e-5,0.8524 0.6907,1.5432 1.5431,1.5432 l 50.4975,0.003 c 0.8524,0 1.5432,-0.6907 1.5432,-1.5431 1e-4,-0.8525 -0.6906,-1.5433 -1.5431,-1.5433 z" clip-path="url(#1828692820103-clipPath1)" id="path106" ns1:connector-curvature="0" style="fill:#fda4af;stroke:none" />
    </g>
    <g id="g108" style="text-rendering:geometricPrecision;fill:#f0abfc;stroke:none">
      <path d="m 212.0625,134.4357 -0.7716,1.3364 54.4115,40.7745 9.6454,-5.5679 9.6454,-5.568 -72.159,-32.3114 z" clip-path="url(#182869282010-clipPath1)" id="path110" ns1:connector-curvature="0" style="stroke:none" />
    </g>
    <g id="g112" style="fill:#c4b5fd;stroke:none;text-rendering:geometricPrecision">
      <path d="m 274.5762,171.4241 48.7643,-28.1501 c 0.7382,-0.4261 0.9911,-1.3697 0.5649,-2.108 -0.4262,-0.7382 -1.3697,-0.9911 -2.108,-0.5649 l -48.7642,28.15 c -0.7383,0.4262 -0.9912,1.3698 -0.565,2.108 0.4262,0.7383 1.3697,0.9912 2.108,0.565 z" clip-path="url(#182869282010-clipPath1)" id="path114" ns1:connector-curvature="0" style="stroke:none" />
      <path d="m 274.5762,171.4241 48.7643,-28.1501 c 0.7382,-0.4261 0.9911,-1.3697 0.5649,-2.108 -0.4262,-0.7382 -1.3697,-0.9911 -2.108,-0.5649 l -48.7642,28.15 c -0.7383,0.4262 -0.9912,1.3698 -0.565,2.108 0.4262,0.7383 1.3697,0.9912 2.108,0.565 z" clip-path="url(#1828692820804-clipPath1)" id="path116" ns1:connector-curvature="0" style="fill:#f0abfc;stroke:none" />
    </g>
    <g id="g118" style="text-rendering:geometricPrecision;fill:#f0abfc;stroke:none">
      <path d="m 337.0955,116.9816 0.003,-47.6616 c 0,-0.8525 -0.6907,-1.5433 -1.5431,-1.5433 -0.8525,-1e-4 -1.5433,0.6906 -1.5433,1.5431 l -0.003,47.6616 c -10e-5,0.8524 0.6906,1.5432 1.5431,1.5433 0.8524,0 1.5432,-0.6907 1.5433,-1.5431 z" clip-path="url(#182869282010-clipPath1)" id="path120" ns1:connector-curvature="0" style="stroke:none" />
      <path d="m 337.0955,116.9816 0.003,-47.6616 c 0,-0.8525 -0.6907,-1.5433 -1.5431,-1.5433 -0.8525,-1e-4 -1.5433,0.6906 -1.5433,1.5431 l -0.003,47.6616 c -10e-5,0.8524 0.6906,1.5432 1.5431,1.5433 0.8524,0 1.5432,-0.6907 1.5433,-1.5431 z" clip-path="url(#1828692820132-clipPath1)" id="path122" ns1:connector-curvature="0" style="fill:#c4b5fd;stroke:none" />
    </g>
    <g id="g124" style="text-rendering:geometricPrecision;fill:#f0abfc;stroke:none">
      <path d="m 347.7611,143.2757 43.415,25.0692 c 0.7382,0.4262 1.6817,0.1735 2.108,-0.5647 0.4263,-0.7383 0.1735,-1.6819 -0.5647,-2.1081 l -43.4149,-25.0692 c -0.7382,-0.4263 -1.6818,-0.1735 -2.1081,0.5647 -0.4263,0.7382 -0.1735,1.6818 0.5647,2.1081 z" clip-path="url(#182869282010-clipPath1)" id="path126" ns1:connector-curvature="0" style="stroke:none" />
      <path d="m 347.7611,143.2757 43.415,25.0692 c 0.7382,0.4262 1.6817,0.1735 2.108,-0.5647 0.4263,-0.7383 0.1735,-1.6819 -0.5647,-2.1081 l -43.4149,-25.0692 c -0.7382,-0.4263 -1.6818,-0.1735 -2.1081,0.5647 -0.4263,0.7382 -0.1735,1.6818 0.5647,2.1081 z" clip-path="url(#1828692820726-clipPath1)" id="path128" ns1:connector-curvature="0" style="fill:#c4b5fd;stroke:none" />
    </g>
    <g id="g130" style="fill:#eef2ff;stroke:none;text-rendering:geometricPrecision">
      </g>
    <g font-size="25px" transform="translate(76.2329,205.4923)" id="g134" style="font-size:25px;font-family:sans-serif;fill:#fda4af;stroke:none;text-rendering:geometricPrecision">
      <text x="0" xml:space="preserve" y="24" clip-path="url(#1828692820864-clipPath1)" id="text136" style="stroke:none">HO</text>
    </g>
    <g font-size="25px" id="g138" style="font-size:25px;font-family:sans-serif;fill:#eef2ff;stroke:none;text-rendering:geometricPrecision">
      <text x="0" y="24" transform="translate(140.8653,402.055)" clip-path="url(#1828692820549-clipPath1)" xml:space="preserve" id="text142" style="fill:#fda4af;stroke:none">O</text>
    </g>
    <g font-size="25px" id="g144" style="font-size:25px;font-family:sans-serif;fill:#eef2ff;stroke:none;text-rendering:geometricPrecision">
      <text x="0" y="24" transform="translate(326.6449,119.4433)" clip-path="url(#1828692820765-clipPath1)" xml:space="preserve" id="text148" style="fill:#c4b5fd;stroke:none">N</text>
    </g>
  </g>
</svg>