<?xml version='1.0' encoding='utf-8'?>
<svg xmlns="http://www.w3.org/2000/svg" xmlns:dc="http://purl.org/dc/elements/1.1/" xmlns:ns1="http://www.inkscape.org/namespaces/inkscape" xmlns:ns2="http://sodipodi.sourceforge.net/DTD/sodipodi-0.dtd" xmlns:ns4="http://creativecommons.org/ns#" xmlns:rdf="http://www.w3.org/1999/02/22-rdf-syntax-ns#" width="335.08136" stroke-miterlimit="10" font-weight="normal" height="422.29642" font-style="normal" font-size="12px" id="svg2" version="1.1" ns1:version="0.91 r13725" ns2:docname="(1S,2S)-O-Desmethyltramadol.svg" style="font-style:normal;font-weight:normal;font-size:12px;font-family:Dialog;color-interpolation:auto;fill:#000000;fill-opacity:1;stroke:none;stroke:none;stroke:none;stroke:none;stroke:none;stroke:none;stroke:none;stroke:none;color-rendering:auto;image-rendering:auto;shape-rendering:auto;text-rendering:auto">
  <metadata id="metadata143">
    <rdf:RDF>
      <ns4:Work rdf:about="">
        <dc:format>image/svg+xml</dc:format>
        <dc:type rdf:resource="http://purl.org/dc/dcmitype/StillImage" />
        <dc:title />
      </ns4:Work>
    </rdf:RDF>
  </metadata>
  <ns2:namedview pagecolor="#ffffff" bordercolor="#666666" borderopacity="1" objecttolerance="10" gridtolerance="10" guidetolerance="10" ns1:pageopacity="0" ns1:pageshadow="2" ns1:window-width="1060" ns1:window-height="480" id="namedview141" showgrid="false" fit-margin-top="10" fit-margin-left="10" fit-margin-right="10" fit-margin-bottom="10" ns1:zoom="0.36375" ns1:cx="167.65" ns1:cy="138.176" ns1:window-x="0" ns1:window-y="0" ns1:window-maximized="0" ns1:current-layer="svg2" />
  
  <defs id="genericDefs" />
  <g id="g5" transform="translate(-232.35,-15.879574)" style="fill:#000000;stroke:none">
    <defs id="1896503439700-defs1">
      <clipPath clipPathUnits="userSpaceOnUse" id="1896503439269-clipPath1">
        <path d="M 0,0 800,0 800,600 0,600 0,0 Z" id="path9" ns1:connector-curvature="0" style="stroke:none" />
      </clipPath>
      <clipPath clipPathUnits="userSpaceOnUse" id="1896503439140-clipPath1">
        <path d="m 499.6286,92.9244 c -13.1239,0 -23.763,10.639 -23.763,23.7629 0,13.1239 10.6391,23.763 23.763,23.763 13.1239,0 23.7629,-10.6391 23.7629,-23.763 0,-13.1239 -10.639,-23.7629 -23.7629,-23.7629 z" id="path12" ns1:connector-curvature="0" style="stroke:none" />
      </clipPath>
      <clipPath clipPathUnits="userSpaceOnUse" id="1896503439673-clipPath1">
        <path d="m 512.5976,116.6271 c -13.8051,0 -24.9963,11.1912 -24.9963,24.9962 0,13.8051 11.1912,24.9963 24.9963,24.9963 13.805,0 24.9963,-11.1912 24.9963,-24.9963 0,-13.805 -11.1913,-24.9962 -24.9963,-24.9962 z" id="path15" ns1:connector-curvature="0" style="stroke:none" />
      </clipPath>
      <clipPath clipPathUnits="userSpaceOnUse" id="1896503439401-clipPath1">
        <path d="m 438.0239,141.6216 c -15.5078,0 -28.0794,12.5716 -28.0794,28.0794 0,15.5078 12.5716,28.0794 28.0794,28.0794 15.5078,0 28.0794,-12.5716 28.0794,-28.0794 0,-15.5078 -12.5716,-28.0794 -28.0794,-28.0794 z" id="path18" ns1:connector-curvature="0" style="stroke:none" />
      </clipPath>
      <clipPath clipPathUnits="userSpaceOnUse" id="1896503439607-clipPath1">
        <path d="m 350.3891,328.642 c -14.2798,0 -25.8559,11.576 -25.8559,25.8559 0,14.2798 11.5761,25.8559 25.8559,25.8559 14.2799,0 25.856,-11.5761 25.856,-25.8559 0,-14.2799 -11.5761,-25.8559 -25.856,-25.8559 z" id="path21" ns1:connector-curvature="0" style="stroke:none" />
      </clipPath>
      <clipPath clipPathUnits="userSpaceOnUse" id="1896503439288-clipPath1">
        <path d="m 314.8145,144.2016 c -14.0734,0 -25.4821,11.4088 -25.4821,25.4821 0,14.0734 11.4087,25.4822 25.4821,25.4822 14.0733,0 25.4821,-11.4088 25.4821,-25.4822 0,-14.0733 -11.4088,-25.4821 -25.4821,-25.4821 z" id="path24" ns1:connector-curvature="0" style="stroke:none" />
      </clipPath>
      <clipPath clipPathUnits="userSpaceOnUse" id="1896503439835-clipPath1">
        <path d="m -490.7224,-119.1349 800,0 0,600 -800,0 0,-600 z" id="path27" ns1:connector-curvature="0" style="stroke:none" />
      </clipPath>
      <clipPath clipPathUnits="userSpaceOnUse" id="1896503439460-clipPath1">
        <path d="m -291.1512,-401.094 800,0 0,600 -800,0 0,-600 z" id="path30" ns1:connector-curvature="0" style="stroke:none" />
      </clipPath>
      <clipPath clipPathUnits="userSpaceOnUse" id="1896503439506-clipPath1">
        <path d="m -240.85,-204.9849 800,0 0,600 -800,0 0,-600 z" id="path33" ns1:connector-curvature="0" style="stroke:none" />
      </clipPath>
    </defs>
    <g id="g35" style="text-rendering:geometricPrecision;fill:#000000;stroke:none">
      <path d="m 501.1682,116.6873 0,-47.5259 c 0,-0.8505 -0.6891,-1.5396 -1.5396,-1.5396 -0.8505,0 -1.5396,0.6891 -1.5396,1.5396 l 0,47.5259 c 0,0.8505 0.6891,1.5397 1.5396,1.5397 0.8505,0 1.5396,-0.6892 1.5396,-1.5397 z" clip-path="url(#1896503439269-clipPath1)" id="path37" ns1:connector-curvature="0" style="stroke:none" />
      <path d="m 501.1682,116.6873 0,-47.5259 c 0,-0.8505 -0.6891,-1.5396 -1.5396,-1.5396 -0.8505,0 -1.5396,0.6891 -1.5396,1.5396 l 0,47.5259 c 0,0.8505 0.6891,1.5397 1.5396,1.5397 0.8505,0 1.5396,-0.6892 1.5396,-1.5397 z" clip-path="url(#1896503439140-clipPath1)" id="path39" ns1:connector-curvature="0" style="fill:#333399;stroke:none" />
    </g>
    <g id="g41" style="text-rendering:geometricPrecision;fill:#000000;stroke:none">
      <path d="m 511.8277,142.9567 43.2938,24.9981 c 0.7365,0.4253 1.6779,0.1731 2.1032,-0.5634 0.4253,-0.7366 0.1731,-1.678 -0.5634,-2.1033 L 513.3675,140.29 c -0.7366,-0.4253 -1.678,-0.1731 -2.1032,0.5635 -0.4253,0.7365 -0.1731,1.6779 0.5634,2.1032 z" clip-path="url(#1896503439269-clipPath1)" id="path43" ns1:connector-curvature="0" style="stroke:none" />
      <path d="m 511.8277,142.9567 43.2938,24.9981 c 0.7365,0.4253 1.6779,0.1731 2.1032,-0.5634 0.4253,-0.7366 0.1731,-1.678 -0.5634,-2.1033 L 513.3675,140.29 c -0.7366,-0.4253 -1.678,-0.1731 -2.1032,0.5635 -0.4253,0.7365 -0.1731,1.6779 0.5634,2.1032 z" clip-path="url(#1896503439673-clipPath1)" id="path45" ns1:connector-curvature="0" style="fill:#333399;stroke:none" />
    </g>
    <g id="g47" style="fill:#333399;stroke:none;text-rendering:geometricPrecision">
      <path d="m 438.7937,171.0344 48.6354,-28.0785 c 0.7365,-0.4253 0.9888,-1.3667 0.5636,-2.1032 -0.4253,-0.7366 -1.3667,-0.9888 -2.1032,-0.5636 l -48.6354,28.0785 c -0.7366,0.4252 -0.9888,1.3666 -0.5636,2.1032 0.4252,0.7365 1.3666,0.9888 2.1032,0.5636 z" clip-path="url(#1896503439269-clipPath1)" id="path49" ns1:connector-curvature="0" style="stroke:none" />
      <path d="m 438.7937,171.0344 48.6354,-28.0785 c 0.7365,-0.4253 0.9888,-1.3667 0.5636,-2.1032 -0.4253,-0.7366 -1.3667,-0.9888 -2.1032,-0.5636 l -48.6354,28.0785 c -0.7366,0.4252 -0.9888,1.3666 -0.5636,2.1032 0.4252,0.7365 1.3666,0.9888 2.1032,0.5636 z" clip-path="url(#1896503439401-clipPath1)" id="path51" ns1:connector-curvature="0" style="fill:#000000;stroke:none" />
    </g>
    <g id="g53" style="text-rendering:geometricPrecision;fill:#000000;stroke:none">
      <path d="m 376.4192,134.1263 -0.77,1.3333 54.2916,40.6858 9.6226,-5.5554 9.6225,-5.5554 -71.9968,-32.2416 z" clip-path="url(#1896503439269-clipPath1)" id="path55" ns1:connector-curvature="0" style="stroke:none" />
    </g>
    <g id="g57" style="fill:#ff0000;stroke:none;text-rendering:geometricPrecision">
      <path d="m 349.0558,353.728 -25.8578,44.7827 c -0.4253,0.7365 -0.1731,1.6779 0.5634,2.1032 0.7366,0.4252 1.678,0.173 2.1032,-0.5635 l 25.8579,-44.7826 c 0.4253,-0.7366 0.173,-1.678 -0.5635,-2.1032 -0.7365,-0.4253 -1.6779,-0.1731 -2.1032,0.5634 z" clip-path="url(#1896503439269-clipPath1)" id="path59" ns1:connector-curvature="0" style="stroke:none" />
      <path d="m 349.0558,353.728 -25.8578,44.7827 c -0.4253,0.7365 -0.1731,1.6779 0.5634,2.1032 0.7366,0.4252 1.678,0.173 2.1032,-0.5635 l 25.8579,-44.7826 c 0.4253,-0.7366 0.173,-1.678 -0.5635,-2.1032 -0.7365,-0.4253 -1.6779,-0.1731 -2.1032,0.5634 z" clip-path="url(#1896503439607-clipPath1)" id="path61" ns1:connector-curvature="0" style="fill:#000000;stroke:none" />
    </g>
    <g id="g63" style="fill:#ff0000;stroke:none;text-rendering:geometricPrecision">
      <path d="m 314.8145,169.6837 -1.0888,-1.0886 -41.7503,30.3251 6.805,6.8038 6.805,6.8038 30.3179,-41.7555 z" clip-path="url(#1896503439269-clipPath1)" id="path65" ns1:connector-curvature="0" style="stroke:none" />
      <path d="m 314.8145,169.6837 -1.0888,-1.0886 -41.7503,30.3251 6.805,6.8038 6.805,6.8038 30.3179,-41.7555 z" clip-path="url(#1896503439288-clipPath1)" id="path67" ns1:connector-curvature="0" style="fill:#000000;stroke:none" />
    </g>
    <g id="g69" style="text-rendering:geometricPrecision;fill:#000000;stroke:none">
      <path d="m 316.7843,169.7937 -0.6364,-0.8798 -1.3334,0.7698 -1.3334,0.7698 0.4437,0.9911 0,0 2.8595,-1.6509 z m 5.8965,8.1516 -1.8143,-2.5081 -4.0957,2.3645 1.2649,2.8254 4.6451,-2.6818 z m 5.8965,8.1516 -1.8143,-2.5081 0,0 -5.8813,3.3954 0,0 1.2649,2.8254 6.4307,-3.7127 z m 5.8966,8.1516 -1.8143,-2.5081 -7.667,4.4263 0,0 1.2649,2.8254 8.2164,-4.7436 z m 5.8965,8.1516 -1.8143,-2.5081 -9.4526,5.4572 1.2649,2.8253 10.002,-5.7744 z m 5.8965,8.1516 -1.8143,-2.5082 0,0 -11.2382,6.4881 1.2649,2.8254 11.7876,-6.8053 z m 5.8966,8.1516 -1.8143,-2.5082 0,0 -13.0239,7.519 1.2649,2.8254 0,0 13.5733,-7.8362 z m 10.2173,14.1248 -6.1351,-8.4814 -14.8095,8.5499 4.2778,9.5552 5.5555,-9.6237 11.1113,0 z" clip-path="url(#1896503439269-clipPath1)" id="path71" ns1:connector-curvature="0" style="stroke:none" />
    </g>
    <g id="g73" style="text-rendering:geometricPrecision;fill:#000000;stroke:none">
      <path d="m 421.5212,229.7488 -71.1407,0 c -0.8505,0 -1.5396,0.6892 -1.5396,1.5397 0,0.8504 0.6891,1.5396 1.5396,1.5396 l 71.1407,0 c 0.8505,0 1.5397,-0.6892 1.5397,-1.5396 0,-0.8505 -0.6892,-1.5397 -1.5397,-1.5397 z" clip-path="url(#1896503439269-clipPath1)" id="path75" ns1:connector-curvature="0" style="stroke:none" />
    </g>
    <g id="g77" style="text-rendering:geometricPrecision;fill:#000000;stroke:none">
      <path d="m 440.169,292.3372 c 0.4251,0.7366 1.3665,0.9889 2.1031,0.5637 0.7366,-0.4252 0.9889,-1.3666 0.5637,-2.1032 l -26.6197,-46.1151 c -0.4252,-0.7366 -1.3666,-0.9889 -2.1032,-0.5637 -0.7366,0.4252 -0.9889,1.3666 -0.5637,2.1031 z m 15.5849,1.3343 c 0.4251,0.7366 1.3665,0.9889 2.1031,0.5637 0.7366,-0.4252 0.9889,-1.3665 0.5637,-2.1031 l -35.566,-61.6134 c -0.4252,-0.7365 -1.3666,-0.9889 -2.1032,-0.5637 -0.7365,0.4252 -0.9889,1.3666 -0.5637,2.1032 z" clip-path="url(#1896503439269-clipPath1)" id="path79" ns1:connector-curvature="0" style="stroke:none" />
    </g>
    <g id="g81" style="text-rendering:geometricPrecision;fill:#000000;stroke:none">
      <path d="m 422.8546,355.2678 35.566,-61.5961 c 0.4253,-0.7365 0.1731,-1.678 -0.5634,-2.1032 -0.7366,-0.4253 -1.678,-0.1731 -2.1032,0.5634 l -35.5661,61.5961 c -0.4253,0.7365 -0.1731,1.6779 0.5635,2.1032 0.7365,0.4253 1.6779,0.1731 2.1032,-0.5634 z" clip-path="url(#1896503439269-clipPath1)" id="path83" ns1:connector-curvature="0" style="stroke:none" />
    </g>
    <g id="g85" style="text-rendering:geometricPrecision;fill:#000000;stroke:none">
      <path d="m 359.3371,340.1278 c -0.8505,0 -1.5396,0.6891 -1.5396,1.5396 0,0.8505 0.6891,1.5397 1.5396,1.5397 l 53.2372,0 c 0.8505,0 1.5397,-0.6892 1.5397,-1.5397 0,-0.8505 -0.6892,-1.5396 -1.5397,-1.5396 z m -8.948,12.8304 c -0.8504,0 -1.5396,0.6892 -1.5396,1.5397 0,0.8505 0.6892,1.5396 1.5396,1.5396 l 71.1321,0 c 0.8505,0 1.5397,-0.6891 1.5397,-1.5396 0,-0.8505 -0.6892,-1.5397 -1.5397,-1.5397 z" clip-path="url(#1896503439269-clipPath1)" id="path87" ns1:connector-curvature="0" style="stroke:none" />
    </g>
    <g id="g89" style="text-rendering:geometricPrecision;fill:#000000;stroke:none">
      <path d="m 313.4897,293.6543 35.566,61.6133 c 0.4252,0.7366 1.3666,0.9889 2.1032,0.5637 0.7365,-0.4252 0.9889,-1.3666 0.5637,-2.1032 l -35.5661,-61.6133 c -0.4252,-0.7366 -1.3666,-0.9889 -2.1031,-0.5637 -0.7366,0.4252 -0.9889,1.3666 -0.5637,2.1032 z" clip-path="url(#1896503439269-clipPath1)" id="path91" ns1:connector-curvature="0" style="stroke:none" />
    </g>
    <g id="g93" style="text-rendering:geometricPrecision;fill:#000000;stroke:none">
      <path d="m 358.3524,246.2221 c 0.4252,-0.7366 0.1729,-1.678 -0.5637,-2.1032 -0.7365,-0.4252 -1.678,-0.1729 -2.1032,0.5637 l -26.6113,46.0989 c -0.4252,0.7366 -0.173,1.678 0.5636,2.1032 0.7366,0.4251 1.678,0.1729 2.1032,-0.5637 z m -6.6385,-14.1639 c 0.4252,-0.7366 0.1729,-1.678 -0.5636,-2.1032 -0.7366,-0.4252 -1.678,-0.1728 -2.1032,0.5637 l -35.5574,61.5961 c -0.4252,0.7366 -0.1729,1.678 0.5636,2.1032 0.7366,0.4252 1.678,0.1728 2.1032,-0.5637 z" clip-path="url(#1896503439269-clipPath1)" id="path95" ns1:connector-curvature="0" style="stroke:none" />
    </g>
    <g id="g97" style="text-rendering:geometricPrecision;fill:#000000;stroke:none">
      <path d="m 377.9588,134.1263 0,-71.1407 c 0,-0.8505 -0.6891,-1.5397 -1.5396,-1.5397 -0.8505,0 -1.5397,0.6892 -1.5397,1.5397 l 0,71.1407 c 0,0.8505 0.6892,1.5397 1.5397,1.5397 0.8505,0 1.5396,-0.6892 1.5396,-1.5397 z" clip-path="url(#1896503439269-clipPath1)" id="path99" ns1:connector-curvature="0" style="stroke:none" />
    </g>
    <g id="g101" style="text-rendering:geometricPrecision;fill:#000000;stroke:none">
      <path d="m 315.5841,171.0172 61.6047,-35.5574 c 0.7366,-0.4252 0.989,-1.3666 0.5639,-2.1031 -0.4252,-0.7366 -1.3666,-0.989 -2.1032,-0.5639 l -61.6047,35.5575 c -0.7366,0.4251 -0.989,1.3665 -0.5638,2.1031 0.4252,0.7366 1.3665,0.989 2.1031,0.5638 z" clip-path="url(#1896503439269-clipPath1)" id="path103" ns1:connector-curvature="0" style="stroke:none" />
    </g>
    <g id="g105" style="text-rendering:geometricPrecision;fill:#000000;stroke:none">
      <path d="m 252.4401,135.4598 61.6047,35.5574 c 0.7366,0.4252 1.678,0.1728 2.1031,-0.5638 0.4252,-0.7366 0.1728,-1.678 -0.5638,-2.1031 l -61.6047,-35.5575 c -0.7366,-0.4251 -1.6779,-0.1727 -2.1031,0.5639 -0.4252,0.7366 -0.1728,1.6779 0.5638,2.1031 z" clip-path="url(#1896503439269-clipPath1)" id="path107" ns1:connector-curvature="0" style="stroke:none" />
    </g>
    <g id="g109" style="text-rendering:geometricPrecision;fill:#000000;stroke:none">
      <path d="m 251.6701,62.9856 0,71.1407 c 0,0.8505 0.6892,1.5397 1.5397,1.5397 0.8504,0 1.5396,-0.6892 1.5396,-1.5397 l 0,-71.1407 c 0,-0.8505 -0.6892,-1.5396 -1.5396,-1.5396 -0.8505,0 -1.5397,0.6891 -1.5397,1.5396 z" clip-path="url(#1896503439269-clipPath1)" id="path111" ns1:connector-curvature="0" style="stroke:none" />
    </g>
    <g id="g113" style="text-rendering:geometricPrecision;fill:#000000;stroke:none">
      <path d="m 314.0447,28.7529 61.6047,35.5661 c 0.7365,0.4252 1.6779,0.1729 2.1032,-0.5636 0.4252,-0.7366 0.1729,-1.678 -0.5636,-2.1032 l -61.6047,-35.566 c -0.7366,-0.4253 -1.678,-0.173 -2.1032,0.5635 -0.4253,0.7366 -0.173,1.678 0.5636,2.1032 z" clip-path="url(#1896503439269-clipPath1)" id="path115" ns1:connector-curvature="0" style="stroke:none" />
    </g>
    <g id="g117" style="text-rendering:geometricPrecision;fill:#000000;stroke:none">
      <path d="M 314.0447,26.0862 252.44,61.6522 c -0.7366,0.4252 -0.9889,1.3666 -0.5636,2.1032 0.4252,0.7365 1.3666,0.9888 2.1032,0.5636 l 61.6047,-35.5661 c 0.7365,-0.4252 0.9888,-1.3666 0.5636,-2.1032 -0.4253,-0.7365 -1.3667,-0.9888 -2.1032,-0.5635 z" clip-path="url(#1896503439269-clipPath1)" id="path119" ns1:connector-curvature="0" style="stroke:none" />
    </g>
    <g id="g121" style="fill:#ffffff;stroke:none;text-rendering:geometricPrecision">
      </g>
    <g font-size="25px" transform="translate(490.7223,119.1349)" id="g125" style="font-size:25px;font-family:sans-serif;fill:#333399;stroke:none;text-rendering:geometricPrecision">
      <text x="0" xml:space="preserve" y="24" clip-path="url(#1896503439835-clipPath1)" id="text127" style="stroke:none">N</text>
    </g>
    <g font-size="25px" id="g129" style="font-size:25px;font-family:sans-serif;fill:#ffffff;stroke:none;text-rendering:geometricPrecision">
      <text x="0" y="24" transform="translate(291.1512,401.094)" clip-path="url(#1896503439460-clipPath1)" xml:space="preserve" id="text133" style="fill:#ff0000;stroke:none">HO</text>
    </g>
    <g font-size="25px" id="g135" style="font-size:25px;font-family:sans-serif;fill:#ffffff;stroke:none;text-rendering:geometricPrecision">
      <text x="0" y="24" transform="translate(240.85,204.9849)" clip-path="url(#1896503439506-clipPath1)" xml:space="preserve" id="text139" style="fill:#ff0000;stroke:none">HO</text>
    </g>
  </g>
</svg>