<?xml version='1.0' encoding='utf-8'?>
<svg xmlns="http://www.w3.org/2000/svg" xmlns:dc="http://purl.org/dc/elements/1.1/" xmlns:ns1="http://sodipodi.sourceforge.net/DTD/sodipodi-0.dtd" xmlns:ns2="http://www.inkscape.org/namespaces/inkscape" xmlns:ns4="http://creativecommons.org/ns#" xmlns:rdf="http://www.w3.org/1999/02/22-rdf-syntax-ns#" width="442.18015" stroke-miterlimit="10" font-weight="normal" height="574.45593" font-style="normal" font-size="12px" version="1.1" id="svg259" ns1:docname="1B-LSD.svg" style="font-style:normal;font-weight:normal;font-size:12px;font-family:Dialog;color-interpolation:auto;fill:#f0abfc;fill-opacity:1;stroke:none;stroke:none;stroke:none;stroke:none;stroke:none;stroke:none;stroke:none;stroke:none;color-rendering:auto;image-rendering:auto;shape-rendering:auto;text-rendering:auto" ns2:version="0.92.2 (5c3e80d, 2017-08-06)">
  <metadata id="metadata263">
    <rdf:RDF>
      <ns4:Work rdf:about="">
        <dc:format>image/svg+xml</dc:format>
        <dc:type rdf:resource="http://purl.org/dc/dcmitype/StillImage" />
        <dc:title />
      </ns4:Work>
    </rdf:RDF>
  </metadata>
  <ns1:namedview pagecolor="#eef2ff" bordercolor="#666666" borderopacity="1" objecttolerance="10" gridtolerance="10" guidetolerance="10" ns2:pageopacity="0" ns2:pageshadow="2" ns2:window-width="1366" ns2:window-height="745" id="namedview261" showgrid="false" fit-margin-top="10" fit-margin-left="10" fit-margin-right="10" fit-margin-bottom="10" ns2:zoom="0.375" ns2:cx="221.14812" ns2:cy="286.18867" ns2:window-x="-8" ns2:window-y="-8" ns2:window-maximized="1" ns2:current-layer="svg259" />
  
  <defs id="genericDefs" />
  <g id="g257" transform="translate(-178.85188,-11.732742)" style="fill:#f0abfc;stroke:none">
    <defs id="1106172339460-defs1">
      <clipPath clipPathUnits="userSpaceOnUse" id="1106172339200-clipPath1">
        <path d="M 0,0 H 800 V 600 H 0 Z" id="path3" ns2:connector-curvature="0" style="stroke:none" />
      </clipPath>
      <clipPath clipPathUnits="userSpaceOnUse" id="1106172339676-clipPath1">
        <path d="m 355.5701,386.0804 c -12.4819,0 -22.6005,10.1185 -22.6005,22.6004 0,12.4819 10.1186,22.6004 22.6005,22.6004 12.4818,0 22.6004,-10.1185 22.6004,-22.6004 0,-12.4819 -10.1186,-22.6004 -22.6004,-22.6004 z" id="path6" ns2:connector-curvature="0" style="stroke:none" />
      </clipPath>
      <clipPath clipPathUnits="userSpaceOnUse" id="1106172339286-clipPath1">
        <path d="m 384.9877,437.6971 c -15.3484,0 -27.7908,12.4424 -27.7908,27.7908 0,15.3485 12.4424,27.7908 27.7908,27.7908 15.3485,0 27.7908,-12.4423 27.7908,-27.7908 0,-15.3484 -12.4423,-27.7908 -27.7908,-27.7908 z" id="path9" ns2:connector-curvature="0" style="stroke:none" />
      </clipPath>
      <clipPath clipPathUnits="userSpaceOnUse" id="1106172339983-clipPath1">
        <path d="m 562.4882,251.9974 c -12.4223,0 -22.4925,10.0702 -22.4925,22.4925 0,12.4223 10.0702,22.4925 22.4925,22.4925 12.4223,0 22.4925,-10.0702 22.4925,-22.4925 0,-12.4223 -10.0702,-22.4925 -22.4925,-22.4925 z" id="path12" ns2:connector-curvature="0" style="stroke:none" />
      </clipPath>
      <clipPath clipPathUnits="userSpaceOnUse" id="1106172339534-clipPath1">
        <path d="m 510.7587,295.5237 c -13.0205,0 -23.5757,10.5552 -23.5757,23.5756 0,13.0205 10.5552,23.5757 23.5757,23.5757 13.0204,0 23.5756,-10.5552 23.5756,-23.5757 0,-13.0204 -10.5552,-23.5756 -23.5756,-23.5756 z" id="path15" ns2:connector-curvature="0" style="stroke:none" />
      </clipPath>
      <clipPath clipPathUnits="userSpaceOnUse" id="1106172339301-clipPath1">
        <path d="m 510.7587,296.6059 c -12.4228,0 -22.4935,10.0706 -22.4935,22.4934 0,12.4228 10.0707,22.4934 22.4935,22.4934 12.4228,0 22.4934,-10.0706 22.4934,-22.4934 0,-12.4228 -10.0706,-22.4934 -22.4934,-22.4934 z" id="path18" ns2:connector-curvature="0" style="stroke:none" />
      </clipPath>
      <clipPath clipPathUnits="userSpaceOnUse" id="1106172339332-clipPath1">
        <path d="m 510.7687,117.1847 c -12.5484,0 -22.7208,10.1725 -22.7208,22.7208 0,12.5484 10.1724,22.7208 22.7208,22.7208 12.5483,0 22.7207,-10.1724 22.7207,-22.7208 0,-12.5483 -10.1724,-22.7208 -22.7207,-22.7208 z" id="path21" ns2:connector-curvature="0" style="stroke:none" />
      </clipPath>
      <clipPath clipPathUnits="userSpaceOnUse" id="1106172339684-clipPath1">
        <path d="m 510.7687,116.3329 c -13.0188,0 -23.5726,10.5538 -23.5726,23.5726 0,13.0188 10.5538,23.5726 23.5726,23.5726 13.0188,0 23.5726,-10.5538 23.5726,-23.5726 0,-13.0188 -10.5538,-23.5726 -23.5726,-23.5726 z" id="path24" ns2:connector-curvature="0" style="stroke:none" />
      </clipPath>
      <clipPath clipPathUnits="userSpaceOnUse" id="1106172339332-clipPath2">
        <path d="m 573.3871,274.5351 c -11.5909,0 -20.9872,9.3963 -20.9872,20.9872 0,11.5909 9.3963,20.9871 20.9872,20.9871 11.5909,0 20.9871,-9.3962 20.9871,-20.9871 0,-11.5909 -9.3962,-20.9872 -20.9871,-20.9872 z" id="path27" ns2:connector-curvature="0" style="stroke:none" />
      </clipPath>
      <clipPath clipPathUnits="userSpaceOnUse" id="1106172339338-clipPath1">
        <path d="m 448.1474,92.7545 c -13.0189,0 -23.5728,10.5539 -23.5728,23.5728 0,13.0189 10.5539,23.5728 23.5728,23.5728 13.0189,0 23.5728,-10.5539 23.5728,-23.5728 0,-13.0189 -10.5539,-23.5728 -23.5728,-23.5728 z" id="path30" ns2:connector-curvature="0" style="stroke:none" />
      </clipPath>
      <clipPath clipPathUnits="userSpaceOnUse" id="1106172339406-clipPath1">
        <path d="m 459.0462,72.8019 c -12.4227,0 -22.4934,10.0706 -22.4934,22.4934 0,12.4228 10.0707,22.4934 22.4934,22.4934 12.4228,0 22.4935,-10.0706 22.4935,-22.4934 0,-12.4228 -10.0707,-22.4934 -22.4935,-22.4934 z" id="path33" ns2:connector-curvature="0" style="stroke:none" />
      </clipPath>
      <clipPath clipPathUnits="userSpaceOnUse" id="1106172339908-clipPath1">
        <path d="m 510.7635,176.2639 c -12.9069,0 -23.37,10.4631 -23.37,23.37 0,12.9069 10.4631,23.37 23.37,23.37 12.9069,0 23.37,-10.4631 23.37,-23.37 0,-12.9069 -10.4631,-23.37 -23.37,-23.37 z" id="path36" ns2:connector-curvature="0" style="stroke:none" />
      </clipPath>
      <clipPath clipPathUnits="userSpaceOnUse" id="1106172339444-clipPath1">
        <path d="m 365.5919,454.4041 c -12.5312,0 -22.6897,10.1585 -22.6897,22.6897 0,12.5311 10.1585,22.6896 22.6897,22.6896 12.5311,0 22.6896,-10.1585 22.6896,-22.6896 0,-12.5312 -10.1585,-22.6897 -22.6896,-22.6897 z" id="path39" ns2:connector-curvature="0" style="stroke:none" />
      </clipPath>
      <clipPath clipPathUnits="userSpaceOnUse" id="1106172339399-clipPath1">
        <path d="m 338.9151,491.4519 c -12.3446,0 -22.3519,10.0073 -22.3519,22.352 0,12.3447 10.0073,22.352 22.3519,22.352 12.3447,0 22.352,-10.0073 22.352,-22.352 0,-12.3447 -10.0073,-22.352 -22.352,-22.352 z" id="path42" ns2:connector-curvature="0" style="stroke:none" />
      </clipPath>
      <clipPath clipPathUnits="userSpaceOnUse" id="1106172339808-clipPath1">
        <path d="m -554.7006,-276.7314 h 800 v 600 h -800 z" id="path45" ns2:connector-curvature="0" style="stroke:none" />
      </clipPath>
      <clipPath clipPathUnits="userSpaceOnUse" id="1106172339703-clipPath1">
        <path d="m -366.2381,-452.9859 h 800 v 600 h -800 z" id="path48" ns2:connector-curvature="0" style="stroke:none" />
      </clipPath>
      <clipPath clipPathUnits="userSpaceOnUse" id="1106172339329-clipPath1">
        <path d="m -502.9227,-246.8709 h 800 v 600 h -800 z" id="path51" ns2:connector-curvature="0" style="stroke:none" />
      </clipPath>
      <clipPath clipPathUnits="userSpaceOnUse" id="1106172339115-clipPath1">
        <path d="m -451.2559,-97.5368 h 800 v 600 h -800 z" id="path54" ns2:connector-curvature="0" style="stroke:none" />
      </clipPath>
      <clipPath clipPathUnits="userSpaceOnUse" id="1106172339965-clipPath1">
        <path d="m -553.9116,-97.5458 h 799.9999 v 600 h -799.9999 z" id="path57" ns2:connector-curvature="0" style="stroke:none" />
      </clipPath>
      <clipPath clipPathUnits="userSpaceOnUse" id="1106172339552-clipPath1">
        <path d="m -451.2013,-157.2697 h 800 v 600 h -800 z" id="path60" ns2:connector-curvature="0" style="stroke:none" />
      </clipPath>
      <clipPath clipPathUnits="userSpaceOnUse" id="1106172339991-clipPath1">
        <path d="m -354.6178,-555.8708 h 800 v 600 h -800 z" id="path63" ns2:connector-curvature="0" style="stroke:none" />
      </clipPath>
    </defs>
    <g id="g69" style="text-rendering:geometricPrecision;fill:#f0abfc;stroke:none">
      <path d="m 302.546,378.8166 c 0,0.714 0.5788,1.2928 1.2928,1.2928 0.714,0 1.2928,-0.5788 1.2928,-1.2928 V 319.081 c 0,-0.714 -0.5788,-1.2928 -1.2928,-1.2928 -0.714,0 -1.2928,0.5788 -1.2928,1.2928 z m 10.7735,-7.5132 c 0,0.714 0.5788,1.2928 1.2928,1.2928 0.714,0 1.2928,-0.5788 1.2928,-1.2928 v -44.7087 c 0,-0.714 -0.5788,-1.2929 -1.2928,-1.2929 -0.714,0 -1.2928,0.5789 -1.2928,1.2929 z" clip-path="url(#1106172339200-clipPath1)" id="path67" ns2:connector-curvature="0" style="stroke:none" />
    </g>
    <g id="g73" style="text-rendering:geometricPrecision;fill:#f0abfc;stroke:none">
      <path d="m 356.0437,394.4751 c -0.6184,0.357 -0.8303,1.1476 -0.4734,1.766 0.357,0.6184 1.1477,0.8303 1.766,0.4733 l 38.7123,-22.3461 c 0.6184,-0.3569 0.8303,-1.1476 0.4734,-1.7659 -0.357,-0.6184 -1.1476,-0.8303 -1.766,-0.4734 z m -1.1199,13.0861 c -0.6184,0.3569 -0.8303,1.1475 -0.4734,1.7659 0.3569,0.6184 1.1476,0.8303 1.766,0.4734 l 51.725,-29.8575 c 0.6184,-0.357 0.8303,-1.1477 0.4734,-1.766 -0.357,-0.6184 -1.1476,-0.8303 -1.766,-0.4734 z" clip-path="url(#1106172339200-clipPath1)" id="path71" ns2:connector-curvature="0" style="stroke:none" />
    </g>
    <g id="g77" style="text-rendering:geometricPrecision;fill:#f0abfc;stroke:none">
      <path d="m 394.7588,325.7858 c 0.6183,0.357 1.409,0.1452 1.766,-0.4732 0.3571,-0.6183 0.1452,-1.409 -0.4731,-1.766 l -38.7192,-22.3568 c -0.6183,-0.357 -1.409,-0.1452 -1.766,0.4732 -0.3571,0.6183 -0.1452,1.409 0.4731,1.766 z m 11.8935,-5.5732 c 0.6183,0.3571 1.409,0.1452 1.766,-0.4731 0.357,-0.6183 0.1452,-1.409 -0.4731,-1.766 l -51.7313,-29.87 c -0.6183,-0.3571 -1.409,-0.1452 -1.7661,0.4731 -0.357,0.6183 -0.1452,1.409 0.4732,1.766 z" clip-path="url(#1106172339200-clipPath1)" id="path75" ns2:connector-curvature="0" style="stroke:none" />
    </g>
    <g id="g81" style="text-rendering:geometricPrecision;fill:#f0abfc;stroke:none">
      <path d="m 304.4851,377.697 v 0 l 51.7313,29.8642 c 0.6184,0.357 0.8303,1.1476 0.4733,1.766 -0.357,0.6183 -1.1476,0.8302 -1.766,0.4732 v 0 l -51.7313,-29.8642 c -0.6183,-0.3569 -0.8302,-1.1476 -0.4733,-1.7659 0.357,-0.6184 1.1477,-0.8303 1.766,-0.4733 z" clip-path="url(#1106172339200-clipPath1)" id="path79" ns2:connector-curvature="0" style="stroke:none" />
    </g>
    <g id="g85" style="text-rendering:geometricPrecision;fill:#f0abfc;stroke:none">
      <path d="m 356.2137,290.3427 v 0 l -51.7287,29.858 c -0.6183,0.3569 -1.409,0.1449 -1.7659,-0.4734 -0.3569,-0.6184 -0.145,-1.4091 0.4734,-1.766 v 0 l 51.7286,-29.8579 c 0.6184,-0.357 1.4091,-0.145 1.766,0.4734 0.3569,0.6183 0.145,1.409 -0.4734,1.7659 z" clip-path="url(#1106172339200-clipPath1)" id="path83" ns2:connector-curvature="0" style="stroke:none" />
    </g>
    <g id="g89" style="text-rendering:geometricPrecision;fill:#f0abfc;stroke:none">
      <path d="m 406.0023,378.8232 v 0 l 0.004,-59.7302 c 10e-5,-0.714 0.5789,-1.2928 1.2929,-1.2927 0.714,0 1.2928,0.5789 1.2927,1.2928 v 0 l -0.004,59.7303 c 0,0.714 -0.5789,1.2927 -1.2929,1.2927 -0.714,0 -1.2928,-0.5789 -1.2927,-1.2929 z" clip-path="url(#1106172339200-clipPath1)" id="path87" ns2:connector-curvature="0" style="stroke:none" />
    </g>
    <g id="g93" style="text-rendering:geometricPrecision;fill:#f0abfc;stroke:none">
      <path d="m 458.3799,407.5738 v 0 l 51.7224,-29.8674 c 0.6183,-0.3571 1.409,-0.1453 1.766,0.473 0.357,0.6183 0.1452,1.409 -0.473,1.7661 v 0 l -51.7224,29.8674 c -0.6183,0.357 -1.409,0.1452 -1.7661,-0.4731 -0.357,-0.6183 -0.1452,-1.409 0.4731,-1.766 z" clip-path="url(#1106172339200-clipPath1)" id="path91" ns2:connector-curvature="0" style="stroke:none" />
    </g>
    <g id="g97" style="text-rendering:geometricPrecision;fill:#f0abfc;stroke:none">
      <path d="m 509.456,378.8257 v 0 l 0.01,-59.7266 c 10e-5,-0.714 0.579,-1.2927 1.293,-1.2926 0.714,10e-5 1.2927,0.579 1.2926,1.293 v 0 l -0.01,59.7266 c -2e-4,0.714 -0.579,1.2927 -1.2931,1.2926 -0.714,-10e-5 -1.2927,-0.579 -1.2925,-1.293 z" clip-path="url(#1106172339200-clipPath1)" id="path95" ns2:connector-curvature="0" style="stroke:none" />
    </g>
    <g id="g101" style="text-rendering:geometricPrecision;fill:#f0abfc;stroke:none">
      <path d="m 510.1122,320.2189 v 0 l -51.7313,-29.8701 c -0.6183,-0.357 -0.8301,-1.1477 -0.4731,-1.766 0.357,-0.6183 1.1477,-0.8301 1.766,-0.4731 v 0 l 51.7313,29.87 c 0.6183,0.3571 0.8301,1.1477 0.4731,1.7661 -0.357,0.6183 -1.1477,0.8301 -1.766,0.4731 z" clip-path="url(#1106172339200-clipPath1)" id="path99" ns2:connector-curvature="0" style="stroke:none" />
    </g>
    <g id="g105" style="text-rendering:geometricPrecision;fill:#f0abfc;stroke:none">
      <path d="m 407.9416,377.7037 v 0 l 51.7313,29.8701 c 0.6183,0.357 0.8301,1.1477 0.4731,1.766 -0.3571,0.6183 -1.1477,0.8301 -1.7661,0.4731 v 0 l -51.7312,-29.87 c -0.6184,-0.3571 -0.8302,-1.1477 -0.4732,-1.7661 0.357,-0.6183 1.1477,-0.8301 1.7661,-0.4731 z" clip-path="url(#1106172339200-clipPath1)" id="path103" ns2:connector-curvature="0" style="stroke:none" />
    </g>
    <g id="g109" style="text-rendering:geometricPrecision;fill:#f0abfc;stroke:none">
      <path d="m 406.6523,317.9734 v 0 l 51.7287,-29.8638 c 0.6183,-0.3569 1.409,-0.1451 1.766,0.4733 0.357,0.6184 0.1451,1.409 -0.4733,1.766 v 0 l -51.7286,29.8638 c -0.6183,0.357 -1.409,0.1451 -1.766,-0.4733 -0.357,-0.6183 -0.1451,-1.409 0.4732,-1.766 z" clip-path="url(#1106172339200-clipPath1)" id="path107" ns2:connector-curvature="0" style="stroke:none" />
    </g>
    <g id="g113" style="text-rendering:geometricPrecision;fill:#f0abfc;stroke:none">
      <path d="m 457.7346,289.2292 c -10e-5,0.714 0.5787,1.2929 1.2927,1.2929 0.714,0 1.2928,-0.5788 1.2929,-1.2928 l 0.003,-59.7288 c 0,-0.714 -0.5788,-1.2929 -1.2928,-1.2929 -0.714,0 -1.2928,0.5787 -1.2928,1.2928 z m 10.7738,-7.5124 c 0,0.714 0.5788,1.2928 1.2927,1.2929 0.7141,0 1.2929,-0.5788 1.2929,-1.2928 l 0.002,-44.7032 c 10e-5,-0.714 -0.5787,-1.2928 -1.2927,-1.2928 -0.714,-1e-4 -1.2928,0.5787 -1.2929,1.2927 z" clip-path="url(#1106172339200-clipPath1)" id="path111" ns2:connector-curvature="0" style="stroke:none" />
    </g>
    <g id="g117" style="text-rendering:geometricPrecision;fill:#f0abfc;stroke:none">
      <path d="m 460.2559,409.0928 c 0.2207,-0.679 -0.151,-1.4084 -0.83,-1.629 -0.6791,-0.2206 -1.4084,0.151 -1.6291,0.83 l -18.457,56.8051 c -0.2207,0.6791 0.151,1.4084 0.83,1.629 0.679,0.2207 1.4084,-0.1509 1.629,-0.83 z m -13.3415,6.1972 c 0.2206,-0.679 -0.151,-1.4084 -0.83,-1.629 -0.6791,-0.2207 -1.4084,0.151 -1.6291,0.83 l -12.543,38.6034 c -0.2206,0.679 0.151,1.4084 0.8301,1.629 0.679,0.2207 1.4084,-0.151 1.629,-0.83 z" clip-path="url(#1106172339200-clipPath1)" id="path115" ns2:connector-curvature="0" style="stroke:none" />
    </g>
    <g id="g123" style="fill:#c4b5fd;stroke:none;text-rendering:geometricPrecision">
      <path d="m 356.7996,408.2813 v 0 l 13.9679,42.9886 c 0.2206,0.6791 -0.151,1.4084 -0.8301,1.6291 -0.679,0.2206 -1.4084,-0.151 -1.629,-0.8301 v 0 l -13.9679,-42.9886 c -0.2206,-0.6791 0.151,-1.4084 0.8301,-1.629 0.679,-0.2206 1.4084,0.151 1.629,0.83 z" clip-path="url(#1106172339200-clipPath1)" id="path119" ns2:connector-curvature="0" style="stroke:none" />
      <path d="m 356.7996,408.2813 v 0 l 13.9679,42.9886 c 0.2206,0.6791 -0.151,1.4084 -0.8301,1.6291 -0.679,0.2206 -1.4084,-0.151 -1.629,-0.8301 v 0 l -13.9679,-42.9886 c -0.2206,-0.6791 0.151,-1.4084 0.8301,-1.629 0.679,-0.2206 1.4084,0.151 1.629,0.83 z" clip-path="url(#1106172339676-clipPath1)" id="path121" ns2:connector-curvature="0" style="fill:#f0abfc;stroke:none" />
    </g>
    <g id="g129" style="text-rendering:geometricPrecision;fill:#f0abfc;stroke:none">
      <path d="m 384.9879,464.1951 v 0 l 55.5816,0.0105 c 0.714,10e-5 1.2927,0.5791 1.2926,1.2931 -10e-5,0.7139 -0.579,1.2927 -1.293,1.2925 v 0 l -55.5816,-0.0104 c -0.714,-2e-4 -1.2927,-0.5791 -1.2926,-1.2931 10e-5,-0.714 0.5791,-1.2927 1.293,-1.2926 z" clip-path="url(#1106172339200-clipPath1)" id="path125" ns2:connector-curvature="0" style="stroke:none" />
      <path d="m 384.9879,464.1951 v 0 l 55.5816,0.0105 c 0.714,10e-5 1.2927,0.5791 1.2926,1.2931 -10e-5,0.7139 -0.579,1.2927 -1.293,1.2925 v 0 l -55.5816,-0.0104 c -0.714,-2e-4 -1.2927,-0.5791 -1.2926,-1.2931 10e-5,-0.714 0.5791,-1.2927 1.293,-1.2926 z" clip-path="url(#1106172339286-clipPath1)" id="path127" ns2:connector-curvature="0" style="fill:#c4b5fd;stroke:none" />
    </g>
    <g id="g135" style="text-rendering:geometricPrecision;fill:#f0abfc;stroke:none">
      <path d="m 561.1954,274.49 v 0 l -0.004,-44.985 c 0,-0.714 0.5787,-1.2929 1.2927,-1.2929 0.714,-1e-4 1.2929,0.5786 1.293,1.2926 v 0 l 0.004,44.9851 c 10e-5,0.714 -0.5787,1.2929 -1.2927,1.2929 -0.7139,1e-4 -1.2928,-0.5787 -1.2929,-1.2927 z" clip-path="url(#1106172339200-clipPath1)" id="path131" ns2:connector-curvature="0" style="stroke:none" />
      <path d="m 561.1954,274.49 v 0 l -0.004,-44.985 c 0,-0.714 0.5787,-1.2929 1.2927,-1.2929 0.714,-1e-4 1.2929,0.5786 1.293,1.2926 v 0 l 0.004,44.9851 c 10e-5,0.714 -0.5787,1.2929 -1.2927,1.2929 -0.7139,1e-4 -1.2928,-0.5787 -1.2929,-1.2927 z" clip-path="url(#1106172339983-clipPath1)" id="path133" ns2:connector-curvature="0" style="fill:#c4b5fd;stroke:none" />
    </g>
    <g id="g141" style="fill:#c4b5fd;stroke:none;text-rendering:geometricPrecision">
      <path d="m 510.1122,317.9797 v 0 l 40.8339,-23.5762 c 0.6184,-0.357 1.409,-0.1451 1.766,0.4732 0.357,0.6183 0.1452,1.409 -0.4731,1.766 v 0 l -40.8339,23.5762 c -0.6184,0.357 -1.409,0.1452 -1.766,-0.4732 -0.3571,-0.6183 -0.1452,-1.409 0.4731,-1.766 z" clip-path="url(#1106172339200-clipPath1)" id="path137" ns2:connector-curvature="0" style="stroke:none" />
      <path d="m 510.1122,317.9797 v 0 l 40.8339,-23.5762 c 0.6184,-0.357 1.409,-0.1451 1.766,0.4732 0.357,0.6183 0.1452,1.409 -0.4731,1.766 v 0 l -40.8339,23.5762 c -0.6184,0.357 -1.409,0.1452 -1.766,-0.4732 -0.3571,-0.6183 -0.1452,-1.409 0.4731,-1.766 z" clip-path="url(#1106172339534-clipPath1)" id="path139" ns2:connector-curvature="0" style="fill:#f0abfc;stroke:none" />
    </g>
    <g id="g147" style="fill:#ffffff99;stroke:none;text-rendering:geometricPrecision">
      <path d="m 510.7587,319.0993 h 1.2928 l 6.7873,-44.9868 h -8.0801 -8.0802 l 6.7874,44.9868 z" clip-path="url(#1106172339200-clipPath1)" id="path143" ns2:connector-curvature="0" style="stroke:none" />
      <path d="m 510.7587,319.0993 h 1.2928 l 6.7873,-44.9868 h -8.0801 -8.0802 l 6.7874,44.9868 z" clip-path="url(#1106172339301-clipPath1)" id="path145" ns2:connector-curvature="0" style="fill:#f0abfc;stroke:none" />
    </g>
    <g id="g153" style="fill:#fda4af;stroke:none;text-rendering:geometricPrecision">
      <path d="m 504.7359,135.6753 c -0.6184,0.357 -0.8303,1.1476 -0.4734,1.766 0.357,0.6184 1.1476,0.8303 1.766,0.4734 l 42.049,-24.2722 c 0.6184,-0.3569 0.8303,-1.1476 0.4734,-1.766 -0.3569,-0.6183 -1.1476,-0.8303 -1.766,-0.4733 z m 5.3859,9.3306 c -0.6183,0.357 -0.8303,1.1476 -0.4733,1.766 0.3569,0.6184 1.1476,0.8303 1.766,0.4734 l 42.049,-24.2722 c 0.6183,-0.3569 0.8303,-1.1476 0.4733,-1.766 -0.3569,-0.6183 -1.1476,-0.8303 -1.7659,-0.4733 z" clip-path="url(#1106172339200-clipPath1)" id="path149" ns2:connector-curvature="0" style="stroke:none" />
      <path d="m 504.7359,135.6753 c -0.6184,0.357 -0.8303,1.1476 -0.4734,1.766 0.357,0.6184 1.1476,0.8303 1.766,0.4734 l 42.049,-24.2722 c 0.6184,-0.3569 0.8303,-1.1476 0.4734,-1.766 -0.3569,-0.6183 -1.1476,-0.8303 -1.766,-0.4733 z m 5.3859,9.3306 c -0.6183,0.357 -0.8303,1.1476 -0.4733,1.766 0.3569,0.6184 1.1476,0.8303 1.766,0.4734 l 42.049,-24.2722 c 0.6183,-0.3569 0.8303,-1.1476 0.4733,-1.766 -0.3569,-0.6183 -1.1476,-0.8303 -1.7659,-0.4733 z" clip-path="url(#1106172339332-clipPath1)" id="path151" ns2:connector-curvature="0" style="fill:#f0abfc;stroke:none" />
    </g>
    <g id="g159" style="fill:#c4b5fd;stroke:none;text-rendering:geometricPrecision">
      <path d="m 510.1222,141.0251 v 0 l -40.8269,-23.5762 c -0.6183,-0.357 -0.8301,-1.1477 -0.4731,-1.766 0.3571,-0.6183 1.1478,-0.8301 1.7661,-0.4731 v 0 l 40.8269,23.5762 c 0.6183,0.357 0.8301,1.1477 0.473,1.766 -0.357,0.6183 -1.1477,0.8301 -1.766,0.4731 z" clip-path="url(#1106172339200-clipPath1)" id="path155" ns2:connector-curvature="0" style="stroke:none" />
      <path d="m 510.1222,141.0251 v 0 l -40.8269,-23.5762 c -0.6183,-0.357 -0.8301,-1.1477 -0.4731,-1.766 0.3571,-0.6183 1.1478,-0.8301 1.7661,-0.4731 v 0 l 40.8269,23.5762 c 0.6183,0.357 0.8301,1.1477 0.473,1.766 -0.357,0.6183 -1.1477,0.8301 -1.766,0.4731 z" clip-path="url(#1106172339684-clipPath1)" id="path157" ns2:connector-curvature="0" style="fill:#f0abfc;stroke:none" />
    </g>
    <g id="g165" style="text-rendering:geometricPrecision;fill:#f0abfc;stroke:none">
      <path d="m 574.0334,294.4026 v 0 l 36.352,20.9852 c 0.6183,0.357 0.8302,1.1476 0.4733,1.7659 -0.357,0.6184 -1.1476,0.8303 -1.766,0.4733 v 0 l -36.352,-20.9851 c -0.6183,-0.3569 -0.8302,-1.1476 -0.4732,-1.766 0.3569,-0.6183 1.1475,-0.8302 1.7659,-0.4733 z" clip-path="url(#1106172339200-clipPath1)" id="path161" ns2:connector-curvature="0" style="stroke:none" />
      <path d="m 574.0334,294.4026 v 0 l 36.352,20.9852 c 0.6183,0.357 0.8302,1.1476 0.4733,1.7659 -0.357,0.6184 -1.1476,0.8303 -1.766,0.4733 v 0 l -36.352,-20.9851 c -0.6183,-0.3569 -0.8302,-1.1476 -0.4732,-1.766 0.3569,-0.6183 1.1475,-0.8302 1.7659,-0.4733 z" clip-path="url(#1106172339332-clipPath2)" id="path163" ns2:connector-curvature="0" style="fill:#c4b5fd;stroke:none" />
    </g>
    <g id="g169" style="text-rendering:geometricPrecision;fill:#f0abfc;stroke:none">
      <path d="m 561.8373,230.6244 v 0 l -51.7204,-29.871 c -0.6182,-0.3571 -0.83,-1.1478 -0.4729,-1.7661 0.3571,-0.6183 1.1478,-0.83 1.7661,-0.4729 v 0 l 51.7203,29.8709 c 0.6183,0.3571 0.83,1.1478 0.4729,1.7661 -0.357,0.6183 -1.1477,0.8301 -1.766,0.473 z" clip-path="url(#1106172339200-clipPath1)" id="path167" ns2:connector-curvature="0" style="stroke:none" />
    </g>
    <g id="g173" style="text-rendering:geometricPrecision;fill:#f0abfc;stroke:none">
      <path d="m 511.4099,200.7535 v 0 L 459.6765,230.62 c -0.6183,0.357 -1.409,0.1451 -1.7659,-0.4732 -0.357,-0.6184 -0.1452,-1.409 0.4732,-1.766 v 0 l 51.7333,-29.8665 c 0.6184,-0.357 1.4091,-0.1451 1.766,0.4732 0.357,0.6184 0.1452,1.409 -0.4732,1.766 z" clip-path="url(#1106172339200-clipPath1)" id="path171" ns2:connector-curvature="0" style="stroke:none" />
    </g>
    <g id="g177" style="text-rendering:geometricPrecision;fill:#f0abfc;stroke:none">
      <path d="m 510.7635,199.6339 1.2928,10e-5 6.7923,-56.5555 -8.0798,-4.6658 -8.0797,-4.6658 6.7816,65.8869 z" clip-path="url(#1106172339200-clipPath1)" id="path175" ns2:connector-curvature="0" style="stroke:none" />
    </g>
    <g id="g183" style="text-rendering:geometricPrecision;fill:#f0abfc;stroke:none">
      <path d="m 448.7937,117.4469 v 0 l -40.8313,23.5693 c -0.6184,0.357 -1.4091,0.145 -1.766,-0.4734 -0.357,-0.6183 -0.145,-1.409 0.4734,-1.7659 v 0 l 40.8313,-23.5693 c 0.6184,-0.3569 1.409,-0.145 1.766,0.4734 0.3569,0.6183 0.145,1.409 -0.4734,1.7659 z" clip-path="url(#1106172339200-clipPath1)" id="path179" ns2:connector-curvature="0" style="stroke:none" />
      <path d="m 448.7937,117.4469 v 0 l -40.8313,23.5693 c -0.6184,0.357 -1.4091,0.145 -1.766,-0.4734 -0.357,-0.6183 -0.145,-1.409 0.4734,-1.7659 v 0 l 40.8313,-23.5693 c 0.6184,-0.3569 1.409,-0.145 1.766,0.4734 0.3569,0.6183 0.145,1.409 -0.4734,1.7659 z" clip-path="url(#1106172339338-clipPath1)" id="path181" ns2:connector-curvature="0" style="fill:#c4b5fd;stroke:none" />
    </g>
    <g id="g189" style="text-rendering:geometricPrecision;fill:#f0abfc;stroke:none">
      <path d="m 457.7534,95.2952 v 0 l 0.004,-44.9869 c 10e-5,-0.714 0.579,-1.2927 1.293,-1.2927 0.714,1e-4 1.2927,0.5789 1.2927,1.2929 v 0 l -0.004,44.9869 c -10e-5,0.714 -0.579,1.2928 -1.293,1.2927 -0.714,-1e-4 -1.2927,-0.5789 -1.2927,-1.2929 z" clip-path="url(#1106172339200-clipPath1)" id="path185" ns2:connector-curvature="0" style="stroke:none" />
      <path d="m 457.7534,95.2952 v 0 l 0.004,-44.9869 c 10e-5,-0.714 0.579,-1.2927 1.293,-1.2927 0.714,1e-4 1.2927,0.5789 1.2927,1.2929 v 0 l -0.004,44.9869 c -10e-5,0.714 -0.579,1.2928 -1.293,1.2927 -0.714,-1e-4 -1.2927,-0.5789 -1.2927,-1.2929 z" clip-path="url(#1106172339406-clipPath1)" id="path187" ns2:connector-curvature="0" style="fill:#c4b5fd;stroke:none" />
    </g>
    <g id="g193" style="text-rendering:geometricPrecision;fill:#f0abfc;stroke:none">
      <path d="m 406.6696,141.0161 v 0 L 359.424,113.7334 c -0.6183,-0.357 -0.8301,-1.1477 -0.473,-1.766 0.357,-0.6183 1.1478,-0.8301 1.766,-0.4731 v 0 l 47.2456,27.2827 c 0.6183,0.357 0.8301,1.1477 0.473,1.766 -0.357,0.6184 -1.1477,0.8301 -1.766,0.4731 z" clip-path="url(#1106172339200-clipPath1)" id="path191" ns2:connector-curvature="0" style="stroke:none" />
    </g>
    <g id="g197" style="text-rendering:geometricPrecision;fill:#f0abfc;stroke:none">
      <path d="m 458.4037,51.428 v 0 L 411.1581,24.1453 c -0.6183,-0.357 -0.8301,-1.1477 -0.473,-1.766 0.357,-0.6184 1.1477,-0.8301 1.766,-0.4731 v 0 l 47.2456,27.2827 c 0.6183,0.357 0.83,1.1477 0.473,1.766 -0.357,0.6183 -1.1478,0.8301 -1.766,0.4731 z" clip-path="url(#1106172339200-clipPath1)" id="path195" ns2:connector-curvature="0" style="stroke:none" />
    </g>
    <g id="g203" style="fill:#ffffff99;stroke:none;text-rendering:geometricPrecision">
      <path d="m 505.6835,198.9858 2.427,0.9677 1.6032,-2.777 v 0 l -2.0514,-1.6179 v 0 z m -7.8876,-3.1449 2.4269,0.9677 2.8236,-4.8905 v 0 l -2.0515,-1.618 v 0 z m -7.8876,-3.1448 2.4269,0.9676 v 0 l 4.0438,-7.0041 v 0 l -2.0515,-1.6179 v 0 z m -7.8877,-3.1449 2.427,0.9677 v 0 l 5.2641,-9.1177 -2.0515,-1.618 z m -7.8876,-3.1448 2.4269,0.9676 6.4844,-11.2313 -2.0514,-1.618 z m -7.8876,-3.1449 2.4269,0.9676 v 0 l 7.7047,-13.3448 v 0 l -2.0515,-1.618 -4.0401,6.9976 z" clip-path="url(#1106172339200-clipPath1)" id="path199" ns2:connector-curvature="0" style="stroke:none" />
      <path d="m 505.6835,198.9858 2.427,0.9677 1.6032,-2.777 v 0 l -2.0514,-1.6179 v 0 z m -7.8876,-3.1449 2.4269,0.9677 2.8236,-4.8905 v 0 l -2.0515,-1.618 v 0 z m -7.8876,-3.1448 2.4269,0.9676 v 0 l 4.0438,-7.0041 v 0 l -2.0515,-1.6179 v 0 z m -7.8877,-3.1449 2.427,0.9677 v 0 l 5.2641,-9.1177 -2.0515,-1.618 z m -7.8876,-3.1448 2.4269,0.9676 6.4844,-11.2313 -2.0514,-1.618 z m -7.8876,-3.1449 2.4269,0.9676 v 0 l 7.7047,-13.3448 v 0 l -2.0515,-1.618 -4.0401,6.9976 z" clip-path="url(#1106172339908-clipPath1)" id="path201" ns2:connector-curvature="0" style="fill:#f0abfc;stroke:none" />
    </g>
    <g id="g209" style="text-rendering:geometricPrecision;fill:#f0abfc;stroke:none">
      <path d="m 366.6377,477.8538 v 0 l -26.6767,36.71 c -0.4197,0.5777 -1.2282,0.7057 -1.8058,0.2859 -0.5777,-0.4197 -0.7056,-1.2282 -0.2859,-1.8058 v 0 l 26.6768,-36.7101 c 0.4197,-0.5776 1.2282,-0.7056 1.8058,-0.2859 0.5776,0.4198 0.7055,1.2283 0.2858,1.8059 z" clip-path="url(#1106172339200-clipPath1)" id="path205" ns2:connector-curvature="0" style="stroke:none" />
      <path d="m 366.6377,477.8538 v 0 l -26.6767,36.71 c -0.4197,0.5777 -1.2282,0.7057 -1.8058,0.2859 -0.5777,-0.4197 -0.7056,-1.2282 -0.2859,-1.8058 v 0 l 26.6768,-36.7101 c 0.4197,-0.5776 1.2282,-0.7056 1.8058,-0.2859 0.5776,0.4198 0.7055,1.2283 0.2858,1.8059 z" clip-path="url(#1106172339444-clipPath1)" id="path207" ns2:connector-curvature="0" style="fill:#c4b5fd;stroke:none" />
    </g>
    <g id="g213" style="text-rendering:geometricPrecision;fill:#f0abfc;stroke:none">
      <path d="m 338.7799,515.0896 v 0 l -59.4006,-6.2489 c -0.7101,-0.0747 -1.2252,-0.7109 -1.1505,-1.421 0.0747,-0.7101 0.7109,-1.2252 1.421,-1.1504 v 0 l 59.4006,6.2489 c 0.7101,0.0746 1.2251,0.7109 1.1505,1.4209 -0.0747,0.7101 -0.7109,1.2252 -1.421,1.1505 z" clip-path="url(#1106172339200-clipPath1)" id="path211" ns2:connector-curvature="0" style="stroke:none" />
    </g>
    <g id="g217" style="text-rendering:geometricPrecision;fill:#f0abfc;stroke:none">
      <path d="m 280.5604,508.315 v 0 l -35.1121,48.3179 c -0.4197,0.5777 -1.2282,0.7056 -1.8058,0.2859 -0.5776,-0.4197 -0.7055,-1.2282 -0.2858,-1.8058 v 0 l 35.112,-48.318 c 0.4197,-0.5776 1.2282,-0.7056 1.8058,-0.2859 0.5776,0.4198 0.7056,1.2283 0.2859,1.8059 z" clip-path="url(#1106172339200-clipPath1)" id="path215" ns2:connector-curvature="0" style="stroke:none" />
    </g>
    <g id="g221" style="text-rendering:geometricPrecision;fill:#f0abfc;stroke:none">
      <path d="m 244.2673,557.1587 v 0 l -54.2578,-5.7079 c -0.7101,-0.0747 -1.2252,-0.7109 -1.1504,-1.421 0.0746,-0.71 0.7108,-1.2251 1.4209,-1.1505 v 0 l 54.2578,5.7079 c 0.71,0.0747 1.2251,0.711 1.1504,1.421 -0.0747,0.7101 -0.7109,1.2252 -1.4209,1.1505 z" clip-path="url(#1106172339200-clipPath1)" id="path219" ns2:connector-curvature="0" style="stroke:none" />
    </g>
    <g id="g227" style="fill:#fda4af;stroke:none;text-rendering:geometricPrecision">
      <path d="m 343.7528,508.2463 c -0.2904,-0.6522 -1.0545,-0.9457 -1.7068,-0.6553 -0.6523,0.2903 -0.9457,1.0545 -0.6554,1.7068 l 19.4436,43.6821 c 0.2903,0.6523 1.0545,0.9457 1.7068,0.6554 0.6523,-0.2904 0.9457,-1.0546 0.6554,-1.7068 z m -9.8425,4.3811 c -0.2904,-0.6523 -1.0545,-0.9457 -1.7068,-0.6554 -0.6523,0.2904 -0.9457,1.0546 -0.6554,1.7068 l 19.4436,43.6822 c 0.2903,0.6522 1.0545,0.9456 1.7068,0.6553 0.6523,-0.2903 0.9457,-1.0545 0.6554,-1.7068 z" clip-path="url(#1106172339200-clipPath1)" id="path223" ns2:connector-curvature="0" style="stroke:none" />
      <path d="m 343.7528,508.2463 c -0.2904,-0.6522 -1.0545,-0.9457 -1.7068,-0.6553 -0.6523,0.2903 -0.9457,1.0545 -0.6554,1.7068 l 19.4436,43.6821 c 0.2903,0.6523 1.0545,0.9457 1.7068,0.6554 0.6523,-0.2904 0.9457,-1.0546 0.6554,-1.7068 z m -9.8425,4.3811 c -0.2904,-0.6523 -1.0545,-0.9457 -1.7068,-0.6554 -0.6523,0.2904 -0.9457,1.0546 -0.6554,1.7068 l 19.4436,43.6822 c 0.2903,0.6522 1.0545,0.9456 1.7068,0.6553 0.6523,-0.2903 0.9457,-1.0545 0.6554,-1.7068 z" clip-path="url(#1106172339399-clipPath1)" id="path225" ns2:connector-curvature="0" style="fill:#f0abfc;stroke:none" />
    </g>
    <g font-size="21px" transform="translate(554.7006,276.7315)" id="g231" style="font-size:21px;font-family:sans-serif;fill:#c4b5fd;stroke:none;text-rendering:geometricPrecision">
      <text x="0" xml:space="preserve" y="20" clip-path="url(#1106172339808-clipPath1)" id="text229" style="stroke:none">N</text>
    </g>
    <g font-size="21px" transform="translate(366.2381,452.9859)" id="g235" style="font-size:21px;font-family:sans-serif;fill:#c4b5fd;stroke:none;text-rendering:geometricPrecision">
      <text x="0" xml:space="preserve" y="20" clip-path="url(#1106172339703-clipPath1)" id="text233" style="stroke:none">N</text>
    </g>
    <g font-size="21px" transform="translate(502.9227,246.8709)" id="g239" style="font-size:21px;font-family:sans-serif;fill:#ffffff99;stroke:none;text-rendering:geometricPrecision">
      <text x="0" xml:space="preserve" y="20" clip-path="url(#1106172339329-clipPath1)" id="text237" style="stroke:none">H</text>
    </g>
    <g font-size="21px" transform="translate(451.2559,97.5368)" id="g243" style="font-size:21px;font-family:sans-serif;fill:#c4b5fd;stroke:none;text-rendering:geometricPrecision">
      <text x="0" xml:space="preserve" y="20" clip-path="url(#1106172339115-clipPath1)" id="text241" style="stroke:none">N</text>
    </g>
    <g font-size="21px" transform="translate(553.9116,97.5458)" id="g247" style="font-size:21px;font-family:sans-serif;fill:#fda4af;stroke:none;text-rendering:geometricPrecision">
      <text x="0" xml:space="preserve" y="20" clip-path="url(#1106172339965-clipPath1)" id="text245" style="stroke:none">O</text>
    </g>
    <g font-size="21px" transform="translate(451.2013,157.2697)" id="g251" style="font-size:21px;font-family:sans-serif;fill:#ffffff99;stroke:none;text-rendering:geometricPrecision">
      <text x="0" xml:space="preserve" y="20" clip-path="url(#1106172339552-clipPath1)" id="text249" style="stroke:none">H</text>
    </g>
    <g font-size="21px" transform="translate(354.6178,555.8708)" id="g255" style="font-size:21px;font-family:sans-serif;fill:#fda4af;stroke:none;text-rendering:geometricPrecision">
      <text x="0" xml:space="preserve" y="20" clip-path="url(#1106172339991-clipPath1)" id="text253" style="stroke:none">O</text>
    </g>
  </g>
</svg>