<?xml version='1.0' encoding='utf-8'?>
<svg xmlns="http://www.w3.org/2000/svg" xmlns:dc="http://purl.org/dc/elements/1.1/" xmlns:ns1="http://www.inkscape.org/namespaces/inkscape" xmlns:ns2="http://sodipodi.sourceforge.net/DTD/sodipodi-0.dtd" xmlns:ns4="http://creativecommons.org/ns#" xmlns:rdf="http://www.w3.org/1999/02/22-rdf-syntax-ns#" width="720.26428" stroke-miterlimit="10" font-weight="normal" height="516.66931" font-style="normal" font-size="12px" id="svg2" version="1.1" ns1:version="0.91 r13725" ns2:docname="2-chlorobenzalmalononitrile.svg" style="font-style:normal;font-weight:normal;font-size:12px;font-family:Dialog;color-interpolation:auto;fill:#f0abfc;fill-opacity:1;stroke:none;stroke:none;stroke:none;stroke:none;stroke:none;stroke:none;stroke:none;stroke:none;color-rendering:auto;image-rendering:auto;shape-rendering:auto;text-rendering:auto">
  <metadata id="metadata101">
    <rdf:RDF>
      <ns4:Work rdf:about="">
        <dc:format>image/svg+xml</dc:format>
        <dc:type rdf:resource="http://purl.org/dc/dcmitype/StillImage" />
        <dc:title />
      </ns4:Work>
    </rdf:RDF>
  </metadata>
  <ns2:namedview pagecolor="#eef2ff" bordercolor="#666666" borderopacity="1" objecttolerance="10" gridtolerance="10" guidetolerance="10" ns1:pageopacity="0" ns1:pageshadow="2" ns1:window-width="1920" ns1:window-height="1058" id="namedview99" showgrid="false" showborder="true" fit-margin-top="10" fit-margin-left="10" fit-margin-right="10" fit-margin-bottom="10" ns1:zoom="0.36375" ns1:cx="479.47122" ns1:cy="258.7409" ns1:window-x="-8" ns1:window-y="-8" ns1:window-maximized="1" ns1:current-layer="svg2" />
  
  <defs id="genericDefs" />
  <g id="g5" transform="translate(-40.116405,-42.071616)" style="fill:#f0abfc;stroke:none">
    <defs id="1734780477596-defs1">
      <clipPath clipPathUnits="userSpaceOnUse" id="173478047795-clipPath1">
        <path d="M 0,0 800,0 800,600 0,600 0,0 Z" id="path9" ns1:connector-curvature="0" style="stroke:none" />
      </clipPath>
      <clipPath clipPathUnits="userSpaceOnUse" id="173478047755-clipPath1">
        <path d="m 509.1965,349.9009 c -27.4135,0 -49.6365,22.223 -49.6365,49.6365 0,27.4134 22.223,49.6364 49.6365,49.6364 27.4134,0 49.6364,-22.223 49.6364,-49.6364 0,-27.4135 -22.223,-49.6365 -49.6364,-49.6365 z" id="path12" ns1:connector-curvature="0" style="stroke:none" />
      </clipPath>
      <clipPath clipPathUnits="userSpaceOnUse" id="1734780477211-clipPath1">
        <path d="m 623.2533,150.1132 c -28.6459,0 -51.8679,23.2221 -51.8679,51.8679 0,28.6459 23.222,51.8679 51.8679,51.8679 28.6459,0 51.8679,-23.222 51.8679,-51.8679 0,-28.6458 -23.222,-51.8679 -51.8679,-51.8679 z" id="path15" ns1:connector-curvature="0" style="stroke:none" />
      </clipPath>
      <clipPath clipPathUnits="userSpaceOnUse" id="1734780477593-clipPath1">
        <path d="m 167.0149,153.6317 c -26.7043,0 -48.3524,21.6481 -48.3524,48.3524 0,26.7043 21.6481,48.3525 48.3524,48.3525 26.7044,0 48.3525,-21.6482 48.3525,-48.3525 0,-26.7043 -21.6481,-48.3524 -48.3525,-48.3524 z" id="path18" ns1:connector-curvature="0" style="stroke:none" />
      </clipPath>
      <clipPath clipPathUnits="userSpaceOnUse" id="1734780477312-clipPath1">
        <path d="m -491.7199,-503.7408 800,0 0,599.9999 -800,0 0,-599.9999 z" id="path21" ns1:connector-curvature="0" style="stroke:none" />
      </clipPath>
      <clipPath clipPathUnits="userSpaceOnUse" id="1734780477943-clipPath1">
        <path d="m -719.8353,-108.6294 800,0 0,600 -800,0 0,-600 z" id="path24" ns1:connector-curvature="0" style="stroke:none" />
      </clipPath>
      <clipPath clipPathUnits="userSpaceOnUse" id="1734780477459-clipPath1">
        <path d="m -143.6828,-42.7806 800,0 0,600 -800,0 0,-600 z" id="path27" ns1:connector-curvature="0" style="stroke:none" />
      </clipPath>
    </defs>
    <g id="g29" style="text-rendering:geometricPrecision;fill:#f0abfc;stroke:none">
      <path d="m 165.9725,233.3096 c 1.3637,-0.7874 1.8307,-2.5305 1.0433,-3.8942 -0.7874,-1.3637 -2.5305,-1.8307 -3.8942,-1.0433 L 77.767,277.6566 c -1.3637,0.7874 -1.8307,2.5304 -1.0433,3.8941 0.7874,1.3637 2.5305,1.8307 3.8942,1.0433 z m 2.4679,-28.8568 c 1.3637,-0.7874 1.8307,-2.5304 1.0433,-3.8941 -0.7875,-1.3637 -2.5305,-1.8307 -3.8942,-1.0433 L 51.5423,265.3672 c -1.3638,0.7874 -1.8307,2.5304 -1.0433,3.8941 0.7874,1.3637 2.5305,1.8307 3.8942,1.0433 z" clip-path="url(#173478047795-clipPath1)" id="path31" ns1:connector-curvature="0" style="stroke:none" />
    </g>
    <g id="g33" style="text-rendering:geometricPrecision;fill:#f0abfc;stroke:none">
      <path d="m 50.117,267.8359 0,131.7194 c 0,1.5747 1.276,2.8507 2.8507,2.8507 1.5747,0 2.8507,-1.276 2.8507,-2.8507 l 0,-131.7194 c 0,-1.5747 -1.276,-2.8507 -2.8507,-2.8507 -1.5747,0 -2.8507,1.276 -2.8507,2.8507 z" clip-path="url(#173478047795-clipPath1)" id="path35" ns1:connector-curvature="0" style="stroke:none" />
    </g>
    <g id="g37" style="text-rendering:geometricPrecision;fill:#f0abfc;stroke:none">
      <path d="m 80.6179,384.7972 c -1.3637,-0.7874 -3.1068,-0.3204 -3.8942,1.0433 -0.7874,1.3637 -0.3204,3.1067 1.0433,3.8941 l 85.3546,49.2844 c 1.3637,0.7875 3.1068,0.3205 3.8942,-1.0432 0.7874,-1.3637 0.3204,-3.1068 -1.0433,-3.8942 z m -26.2247,12.2894 c -1.3637,-0.7874 -3.1068,-0.3204 -3.8942,1.0433 -0.7874,1.3637 -0.3205,3.1067 1.0432,3.8941 l 114.0473,65.8518 c 1.3637,0.7874 3.1067,0.3204 3.8942,-1.0433 0.7874,-1.3637 0.3204,-3.1067 -1.0433,-3.8941 z" clip-path="url(#173478047795-clipPath1)" id="path39" ns1:connector-curvature="0" style="stroke:none" />
    </g>
    <g id="g41" style="text-rendering:geometricPrecision;fill:#f0abfc;stroke:none">
      <path d="m 168.4402,467.8759 114.0632,-65.8518 c 1.3638,-0.7873 1.8309,-2.5303 1.0435,-3.8941 -0.7873,-1.3637 -2.5303,-1.8308 -3.8941,-1.0435 l -114.0632,65.8518 c -1.3637,0.7873 -1.8308,2.5303 -1.0435,3.8941 0.7874,1.3637 2.5304,1.8308 3.8941,1.0435 z" clip-path="url(#173478047795-clipPath1)" id="path43" ns1:connector-curvature="0" style="stroke:none" />
    </g>
    <g id="g45" style="text-rendering:geometricPrecision;fill:#f0abfc;stroke:none">
      <path d="m 254.4714,382.9888 c 0,1.5747 1.276,2.8507 2.8507,2.8507 1.5748,0 2.8507,-1.276 2.8507,-2.8507 l 0,-98.5864 c 0,-1.5747 -1.2759,-2.8507 -2.8507,-2.8507 -1.5747,0 -2.8507,1.276 -2.8507,2.8507 z m 23.756,16.5665 c 0,1.5747 1.276,2.8507 2.8508,2.8507 1.5747,0 2.8507,-1.276 2.8507,-2.8507 l 0,-131.7194 c 0,-1.5747 -1.276,-2.8507 -2.8507,-2.8507 -1.5748,0 -2.8508,1.276 -2.8508,2.8507 z" clip-path="url(#173478047795-clipPath1)" id="path47" ns1:connector-curvature="0" style="stroke:none" />
    </g>
    <g id="g49" style="text-rendering:geometricPrecision;fill:#f0abfc;stroke:none">
      <path d="M 282.5034,265.3671 168.4403,199.5153 c -1.3638,-0.7873 -3.1068,-0.3202 -3.8941,1.0435 -0.7874,1.3638 -0.3203,3.1068 1.0434,3.8941 l 114.0633,65.8518 c 1.3637,0.7873 3.1067,0.3202 3.8941,-1.0435 0.7873,-1.3638 0.3202,-3.1068 -1.0436,-3.8941 z" clip-path="url(#173478047795-clipPath1)" id="path51" ns1:connector-curvature="0" style="stroke:none" />
    </g>
    <g id="g53" style="text-rendering:geometricPrecision;fill:#f0abfc;stroke:none">
      <path d="m 282.5035,270.3046 114.058,-65.8527 c 1.3637,-0.7874 1.8308,-2.5304 1.0434,-3.8941 -0.7874,-1.3638 -2.5304,-1.8308 -3.8941,-1.0434 l -114.058,65.8527 c -1.3637,0.7874 -1.8308,2.5304 -1.0434,3.8941 0.7874,1.3638 2.5304,1.8308 3.8941,1.0434 z" clip-path="url(#173478047795-clipPath1)" id="path55" ns1:connector-curvature="0" style="stroke:none" />
    </g>
    <g id="g57" style="text-rendering:geometricPrecision;fill:#f0abfc;stroke:none">
      <path d="m 396.5615,199.5143 c -1.3638,-0.7873 -3.1068,-0.3203 -3.8941,1.0435 -0.7874,1.3637 -0.3203,3.1068 1.0434,3.8941 L 507.77,270.3026 c 1.3637,0.7874 3.1067,0.3203 3.8941,-1.0434 0.7873,-1.3638 0.3203,-3.1068 -1.0435,-3.8941 z m 2.469,28.8564 c -1.3638,-0.7873 -3.1068,-0.3202 -3.8941,1.0435 -0.7873,1.3638 -0.3203,3.1068 1.0434,3.8941 l 85.3655,49.2848 c 1.3637,0.7873 3.1067,0.3203 3.8941,-1.0435 0.7873,-1.3637 0.3203,-3.1068 -1.0435,-3.8941 z" clip-path="url(#173478047795-clipPath1)" id="path59" ns1:connector-curvature="0" style="stroke:none" />
    </g>
    <g id="g61" style="text-rendering:geometricPrecision;fill:#f0abfc;stroke:none">
      <path d="m 506.3446,267.8339 10e-4,131.7035 c 0,1.5747 1.276,2.8507 2.8507,2.8507 1.5747,-1e-4 2.8507,-1.2761 2.8507,-2.8508 l -10e-4,-131.7035 c 0,-1.5747 -1.276,-2.8506 -2.8507,-2.8506 -1.5747,0 -2.8507,1.276 -2.8507,2.8507 z" clip-path="url(#173478047795-clipPath1)" id="path63" ns1:connector-curvature="0" style="stroke:none" />
    </g>
    <g id="g65" style="text-rendering:geometricPrecision;fill:#f0abfc;stroke:none">
      <path d="m 510.6207,270.3026 114.0579,-65.8527 c 1.3638,-0.7874 1.8308,-2.5304 1.0434,-3.8942 -0.7873,-1.3637 -2.5303,-1.8307 -3.8941,-1.0434 l -114.058,65.8528 c -1.3637,0.7874 -1.8307,2.5304 -1.0434,3.8941 0.7874,1.3638 2.5304,1.8308 3.8942,1.0434 z" clip-path="url(#173478047795-clipPath1)" id="path67" ns1:connector-curvature="0" style="stroke:none" />
    </g>
    <g id="g69" style="fill:#c4b5fd;stroke:none;text-rendering:geometricPrecision">
      <path d="m 535.8032,399.5374 c 0,-1.5748 -1.276,-2.8507 -2.8507,-2.8507 -1.5748,0 -2.8507,1.2759 -2.8507,2.8507 l 0,99.2729 c 0,1.5747 1.2759,2.8507 2.8507,2.8507 1.5747,0 2.8507,-1.276 2.8507,-2.8507 z m -23.756,0 c 0,-1.5748 -1.276,-2.8507 -2.8507,-2.8507 -1.5748,0 -2.8507,1.2759 -2.8507,2.8507 l 0,99.2729 c 0,1.5747 1.2759,2.8507 2.8507,2.8507 1.5747,0 2.8507,-1.276 2.8507,-2.8507 z m -23.7561,0 c 0,-1.5748 -1.276,-2.8507 -2.8507,-2.8507 -1.5747,0 -2.8506,1.2759 -2.8506,2.8507 l 0,99.2729 c 0,1.5747 1.2759,2.8507 2.8506,2.8507 1.5747,0 2.8507,-1.276 2.8507,-2.8507 z" clip-path="url(#173478047795-clipPath1)" id="path71" ns1:connector-curvature="0" style="stroke:none" />
      <path d="m 535.8032,399.5374 c 0,-1.5748 -1.276,-2.8507 -2.8507,-2.8507 -1.5748,0 -2.8507,1.2759 -2.8507,2.8507 l 0,99.2729 c 0,1.5747 1.2759,2.8507 2.8507,2.8507 1.5747,0 2.8507,-1.276 2.8507,-2.8507 z m -23.756,0 c 0,-1.5748 -1.276,-2.8507 -2.8507,-2.8507 -1.5748,0 -2.8507,1.2759 -2.8507,2.8507 l 0,99.2729 c 0,1.5747 1.2759,2.8507 2.8507,2.8507 1.5747,0 2.8507,-1.276 2.8507,-2.8507 z m -23.7561,0 c 0,-1.5748 -1.276,-2.8507 -2.8507,-2.8507 -1.5747,0 -2.8506,1.2759 -2.8506,2.8507 l 0,99.2729 c 0,1.5747 1.2759,2.8507 2.8506,2.8507 1.5747,0 2.8507,-1.276 2.8507,-2.8507 z" clip-path="url(#173478047755-clipPath1)" id="path73" ns1:connector-curvature="0" style="fill:#f0abfc;stroke:none" />
    </g>
    <g id="g75" style="fill:#c4b5fd;stroke:none;text-rendering:geometricPrecision">
      <path d="m 609.95,178.939 c -1.3638,0.7874 -1.8309,2.5304 -1.0435,3.8941 0.7873,1.3638 2.5304,1.8308 3.8942,1.0435 l 89.8378,-51.8679 c 1.3638,-0.7874 1.8308,-2.5304 1.0434,-3.8942 -0.7873,-1.3637 -2.5303,-1.8308 -3.8941,-1.0434 z m 11.8779,20.5733 c -1.3637,0.7874 -1.8308,2.5304 -1.0434,3.8942 0.7874,1.3637 2.5304,1.8307 3.8941,1.0434 l 89.8379,-51.8679 c 1.3637,-0.7874 1.8308,-2.5304 1.0434,-3.8942 -0.7873,-1.3637 -2.5304,-1.8307 -3.8941,-1.0434 z m 11.878,20.5733 c -1.3637,0.7874 -1.8307,2.5304 -1.0434,3.8942 0.7874,1.3637 2.5304,1.8308 3.8941,1.0434 l 89.8379,-51.8679 c 1.3637,-0.7874 1.8308,-2.5304 1.0435,-3.8941 -0.7874,-1.3638 -2.5304,-1.8308 -3.8942,-1.0435 z" clip-path="url(#173478047795-clipPath1)" id="path77" ns1:connector-curvature="0" style="stroke:none" />
      <path d="m 609.95,178.939 c -1.3638,0.7874 -1.8309,2.5304 -1.0435,3.8941 0.7873,1.3638 2.5304,1.8308 3.8942,1.0435 l 89.8378,-51.8679 c 1.3638,-0.7874 1.8308,-2.5304 1.0434,-3.8942 -0.7873,-1.3637 -2.5303,-1.8308 -3.8941,-1.0434 z m 11.8779,20.5733 c -1.3637,0.7874 -1.8308,2.5304 -1.0434,3.8942 0.7874,1.3637 2.5304,1.8307 3.8941,1.0434 l 89.8379,-51.8679 c 1.3637,-0.7874 1.8308,-2.5304 1.0434,-3.8942 -0.7873,-1.3637 -2.5304,-1.8307 -3.8941,-1.0434 z m 11.878,20.5733 c -1.3637,0.7874 -1.8307,2.5304 -1.0434,3.8942 0.7874,1.3637 2.5304,1.8308 3.8941,1.0434 l 89.8379,-51.8679 c 1.3637,-0.7874 1.8308,-2.5304 1.0435,-3.8941 -0.7874,-1.3638 -2.5304,-1.8308 -3.8942,-1.0435 z" clip-path="url(#1734780477211-clipPath1)" id="path79" ns1:connector-curvature="0" style="fill:#f0abfc;stroke:none" />
    </g>
    <g id="g81" style="fill:#6ee7b7;stroke:none;text-rendering:geometricPrecision">
      <path d="m 169.8656,201.984 -0.003,-96.7049 c 0,-1.5747 -1.2761,-2.8506 -2.8508,-2.8506 -1.5747,1e-4 -2.8506,1.2761 -2.8506,2.8508 l 0.003,96.7049 c 1e-4,1.5747 1.2761,2.8507 2.8508,2.8506 1.5747,0 2.8507,-1.2761 2.8506,-2.8508 z" clip-path="url(#173478047795-clipPath1)" id="path83" ns1:connector-curvature="0" style="stroke:none" />
      <path d="m 169.8656,201.984 -0.003,-96.7049 c 0,-1.5747 -1.2761,-2.8506 -2.8508,-2.8506 -1.5747,1e-4 -2.8506,1.2761 -2.8506,2.8508 l 0.003,96.7049 c 1e-4,1.5747 1.2761,2.8507 2.8508,2.8506 1.5747,0 2.8507,-1.2761 2.8506,-2.8508 z" clip-path="url(#1734780477593-clipPath1)" id="path85" ns1:connector-curvature="0" style="fill:#f0abfc;stroke:none" />
    </g>
    <g font-size="47px" transform="translate(491.7199,503.7409)" id="g87" style="font-size:47px;font-family:sans-serif;fill:#c4b5fd;stroke:none;text-rendering:geometricPrecision">
      <text x="0" xml:space="preserve" y="45" clip-path="url(#1734780477312-clipPath1)" id="text89" style="stroke:none">N</text>
    </g>
    <g font-size="47px" transform="translate(719.8353,108.6294)" id="g91" style="font-size:47px;font-family:sans-serif;fill:#c4b5fd;stroke:none;text-rendering:geometricPrecision">
      <text x="0" xml:space="preserve" y="45" clip-path="url(#1734780477943-clipPath1)" id="text93" style="stroke:none">N</text>
    </g>
    <g font-size="47px" transform="translate(143.6828,42.7806)" id="g95" style="font-size:47px;font-family:sans-serif;fill:#6ee7b7;stroke:none;text-rendering:geometricPrecision">
      <text x="0" xml:space="preserve" y="45" clip-path="url(#1734780477459-clipPath1)" id="text97" style="stroke:none">Cl</text>
    </g>
  </g>
</svg>