<?xml version='1.0' encoding='utf-8'?>
<svg xmlns="http://www.w3.org/2000/svg" xmlns:dc="http://purl.org/dc/elements/1.1/" xmlns:ns1="http://sodipodi.sourceforge.net/DTD/sodipodi-0.dtd" xmlns:ns2="http://www.inkscape.org/namespaces/inkscape" xmlns:ns4="http://creativecommons.org/ns#" xmlns:rdf="http://www.w3.org/1999/02/22-rdf-syntax-ns#" width="748.021" stroke-miterlimit="10" font-weight="normal" height="499.9364" font-style="normal" font-size="12px" version="1.1" id="svg184" ns1:docname="2C-T-36.svg" style="font-style:normal;font-weight:normal;font-size:12px;font-family:Dialog;color-interpolation:auto;fill:#000000;fill-opacity:1;stroke:none;stroke:none;stroke:none;stroke:none;stroke:none;stroke:none;stroke:none;stroke:none;color-rendering:auto;image-rendering:auto;shape-rendering:auto;text-rendering:auto" ns2:version="0.92.2 (5c3e80d, 2017-08-06)">
  <metadata id="metadata188">
    <rdf:RDF>
      <ns4:Work rdf:about="">
        <dc:format>image/svg+xml</dc:format>
        <dc:type rdf:resource="http://purl.org/dc/dcmitype/StillImage" />
        <dc:title />
      </ns4:Work>
    </rdf:RDF>
  </metadata>
  <ns1:namedview pagecolor="#ffffff" bordercolor="#666666" borderopacity="1" objecttolerance="10" gridtolerance="10" guidetolerance="10" ns2:pageopacity="0" ns2:pageshadow="2" ns2:window-width="1366" ns2:window-height="745" id="namedview186" showgrid="false" fit-margin-top="10" fit-margin-left="10" fit-margin-right="10" fit-margin-bottom="10" ns2:zoom="0.375" ns2:cx="374.24609" ns2:cy="249.96822" ns2:window-x="-8" ns2:window-y="-8" ns2:window-maximized="1" ns2:current-layer="svg184" />
  
  <defs id="genericDefs" />
  <g id="g182" transform="translate(-25.753912,-50.031806)" style="fill:#000000;stroke:none">
    <defs id="160225276920-defs1">
      <clipPath clipPathUnits="userSpaceOnUse" id="1602252769989-clipPath1">
        <path d="M 0,0 H 800 V 600 H 0 Z" id="path3" ns2:connector-curvature="0" style="stroke:none" />
      </clipPath>
      <clipPath clipPathUnits="userSpaceOnUse" id="1602252769422-clipPath1">
        <path d="m 377.6584,167.35 c -19.7821,0 -35.8187,16.0366 -35.8187,35.8187 0,19.7822 16.0366,35.8187 35.8187,35.8187 19.7821,0 35.8187,-16.0365 35.8187,-35.8187 0,-19.7821 -16.0366,-35.8187 -35.8187,-35.8187 z" id="path6" ns2:connector-curvature="0" style="stroke:none" />
      </clipPath>
      <clipPath clipPathUnits="userSpaceOnUse" id="1602252769766-clipPath1">
        <path d="m 377.6584,360.7579 c -19.9202,0 -36.0687,16.1485 -36.0687,36.0687 0,19.9202 16.1485,36.0688 36.0687,36.0688 19.9202,0 36.0687,-16.1486 36.0687,-36.0688 0,-19.9202 -16.1485,-36.0687 -36.0687,-36.0687 z" id="path9" ns2:connector-curvature="0" style="stroke:none" />
      </clipPath>
      <clipPath clipPathUnits="userSpaceOnUse" id="1602252769920-clipPath1">
        <path d="m 357.9471,62.1261 c -18.138,0 -32.8417,14.7037 -32.8417,32.8417 0,18.1379 14.7037,32.8416 32.8417,32.8416 18.1379,0 32.8416,-14.7037 32.8416,-32.8416 0,-18.138 -14.7037,-32.8417 -32.8416,-32.8417 z" id="path12" ns2:connector-curvature="0" style="stroke:none" />
      </clipPath>
      <clipPath clipPathUnits="userSpaceOnUse" id="1602252769916-clipPath1">
        <path d="m 397.5305,472.3804 c -18.0845,0 -32.745,14.6604 -32.745,32.745 0,18.0846 14.6605,32.745 32.745,32.745 18.0846,0 32.7451,-14.6604 32.7451,-32.745 0,-18.0846 -14.6605,-32.745 -32.7451,-32.745 z" id="path15" ns2:connector-curvature="0" style="stroke:none" />
      </clipPath>
      <clipPath clipPathUnits="userSpaceOnUse" id="1602252769797-clipPath1">
        <path d="m 629.2156,213.5346 c -21.0113,0 -38.0442,17.033 -38.0442,38.0442 0,21.0112 17.0329,38.0442 38.0442,38.0442 21.0112,0 38.0442,-17.033 38.0442,-38.0442 0,-21.0112 -17.033,-38.0442 -38.0442,-38.0442 z" id="path18" ns2:connector-curvature="0" style="stroke:none" />
      </clipPath>
      <clipPath clipPathUnits="userSpaceOnUse" id="1602252769377-clipPath1">
        <path d="m 293.8155,309.9825 c -21.2257,0 -38.4326,17.2069 -38.4326,38.4326 0,21.2257 17.2069,38.4326 38.4326,38.4326 21.2257,0 38.4326,-17.2069 38.4326,-38.4326 0,-21.2257 -17.2069,-38.4326 -38.4326,-38.4326 z" id="path21" ns2:connector-curvature="0" style="stroke:none" />
      </clipPath>
      <clipPath clipPathUnits="userSpaceOnUse" id="1602252769993-clipPath1">
        <path d="m 192.679,348.4129 c -21.2256,0 -38.4324,17.2068 -38.4324,38.4324 0,21.2257 17.2068,38.4324 38.4324,38.4324 21.2257,0 38.4325,-17.2067 38.4325,-38.4324 0,-21.2256 -17.2068,-38.4324 -38.4325,-38.4324 z" id="path24" ns2:connector-curvature="0" style="stroke:none" />
      </clipPath>
      <clipPath clipPathUnits="userSpaceOnUse" id="1602252769139-clipPath1">
        <path d="m 126.113,309.0273 c -21.7513,0 -39.3842,17.6329 -39.3842,39.3842 0,21.7513 17.6329,39.3842 39.3842,39.3842 21.7513,0 39.3842,-17.6329 39.3842,-39.3842 0,-21.7513 -17.6329,-39.3842 -39.3842,-39.3842 z" id="path27" ns2:connector-curvature="0" style="stroke:none" />
      </clipPath>
      <clipPath clipPathUnits="userSpaceOnUse" id="1602252769681-clipPath1">
        <path d="m 126.113,311.2902 c -20.5015,0 -37.1213,16.6197 -37.1213,37.1213 0,20.5015 16.6198,37.1213 37.1213,37.1213 20.5015,0 37.1213,-16.6198 37.1213,-37.1213 0,-20.5016 -16.6198,-37.1213 -37.1213,-37.1213 z" id="path30" ns2:connector-curvature="0" style="stroke:none" />
      </clipPath>
      <clipPath clipPathUnits="userSpaceOnUse" id="1602252769604-clipPath1">
        <path d="M -700.4102,-183.1665 H 99.5899 v 600 h -800.0001 z" id="path33" ns2:connector-curvature="0" style="stroke:none" />
      </clipPath>
      <clipPath clipPathUnits="userSpaceOnUse" id="1602252769344-clipPath1">
        <path d="m -748.3633,-200.2657 h 800 v 600 h -800 z" id="path36" ns2:connector-curvature="0" style="stroke:none" />
      </clipPath>
      <clipPath clipPathUnits="userSpaceOnUse" id="1602252769932-clipPath1">
        <path d="m -364.3508,-86.3456 h 800 v 600 h -800 z" id="path39" ns2:connector-curvature="0" style="stroke:none" />
      </clipPath>
      <clipPath clipPathUnits="userSpaceOnUse" id="1602252769748-clipPath1">
        <path d="m -364.3508,-473.6497 h 800 v 600 h -800 z" id="path42" ns2:connector-curvature="0" style="stroke:none" />
      </clipPath>
      <clipPath clipPathUnits="userSpaceOnUse" id="1602252769372-clipPath1">
        <path d="m -198.9866,-376.8248 h 800 v 600 h -800 z" id="path45" ns2:connector-curvature="0" style="stroke:none" />
      </clipPath>
      <clipPath clipPathUnits="userSpaceOnUse" id="1602252769739-clipPath1">
        <path d="m -32.4336,-279.9999 h 800 v 600 h -800 z" id="path48" ns2:connector-curvature="0" style="stroke:none" />
      </clipPath>
      <clipPath clipPathUnits="userSpaceOnUse" id="160225276933-clipPath1">
        <path d="m -164.6973,-244.5608 h 800 v 600 h -800 z" id="path51" ns2:connector-curvature="0" style="stroke:none" />
      </clipPath>
      <clipPath clipPathUnits="userSpaceOnUse" id="160225276933-clipPath2">
        <path d="m -67.8724,-412.2622 h 800 v 600 h -800 z" id="path54" ns2:connector-curvature="0" style="stroke:none" />
      </clipPath>
    </defs>
    <g id="g60" style="text-rendering:geometricPrecision;fill:#000000;stroke:none">
      <path d="m 376.8921,226.1979 c 1.0023,-0.5787 1.3457,-1.8605 0.7669,-2.8628 -0.5787,-1.0023 -1.8605,-1.3457 -2.8628,-0.767 L 312.0469,258.8 c -1.0023,0.5788 -1.3457,1.8606 -0.767,2.8629 0.5788,1.0023 1.8605,1.3457 2.8629,0.7669 z m 1.8142,-21.2143 c 1.0024,-0.5787 1.3458,-1.8605 0.767,-2.8628 -0.5787,-1.0023 -1.8605,-1.3457 -2.8628,-0.767 l -83.843,48.4116 c -1.0023,0.5787 -1.3457,1.8605 -0.7669,2.8628 0.5787,1.0024 1.8605,1.3457 2.8628,0.767 z" clip-path="url(#1602252769989-clipPath1)" id="path58" ns2:connector-curvature="0" style="stroke:none" />
    </g>
    <g id="g64" style="text-rendering:geometricPrecision;fill:#000000;stroke:none">
      <path d="m 295.9112,251.5803 v 0 96.8348 c 0,1.1574 -0.9383,2.0957 -2.0957,2.0957 -1.1574,0 -2.0957,-0.9383 -2.0957,-2.0957 v 0 -96.8348 c 0,-1.1575 0.9383,-2.0957 2.0957,-2.0957 1.1574,0 2.0957,0.9382 2.0957,2.0957 z" clip-path="url(#1602252769989-clipPath1)" id="path62" ns2:connector-curvature="0" style="stroke:none" />
    </g>
    <g id="g68" style="text-rendering:geometricPrecision;fill:#000000;stroke:none">
      <path d="m 314.1428,337.5655 c -1.0024,-0.5787 -2.2841,-0.2354 -2.8629,0.767 -0.5787,1.0023 -0.2353,2.284 0.767,2.8628 l 62.7493,36.2319 c 1.0023,0.5788 2.2841,0.2354 2.8628,-0.767 0.5788,-1.0023 0.2354,-2.284 -0.7669,-2.8628 z m -19.2794,9.0347 c -1.0023,-0.5788 -2.2841,-0.2354 -2.8628,0.767 -0.5788,1.0023 -0.2354,2.284 0.7669,2.8628 l 83.843,48.4115 c 1.0023,0.5788 2.2841,0.2354 2.8628,-0.7669 0.5788,-1.0024 0.2354,-2.2841 -0.767,-2.8629 z" clip-path="url(#1602252769989-clipPath1)" id="path66" ns2:connector-curvature="0" style="stroke:none" />
    </g>
    <g id="g72" style="text-rendering:geometricPrecision;fill:#000000;stroke:none">
      <path d="m 376.6106,395.0117 v 0 l 83.8546,-48.4116 c 1.0024,-0.5787 2.2841,-0.2352 2.8628,0.7671 0.5787,1.0024 0.2353,2.2842 -0.7671,2.8628 v 0 l -83.8547,48.4116 c -1.0023,0.5787 -2.2841,0.2352 -2.8628,-0.7671 -0.5787,-1.0024 -0.2352,-2.2841 0.7672,-2.8628 z" clip-path="url(#1602252769989-clipPath1)" id="path70" ns2:connector-curvature="0" style="stroke:none" />
    </g>
    <g id="g76" style="text-rendering:geometricPrecision;fill:#000000;stroke:none">
      <path d="m 441.9529,336.2361 c 0,1.1574 0.9383,2.0957 2.0957,2.0957 1.1574,0 2.0957,-0.9383 2.0957,-2.0957 v -72.4768 c 0,-1.1574 -0.9383,-2.0957 -2.0957,-2.0957 -1.1574,0 -2.0957,0.9383 -2.0957,2.0957 z m 17.4645,12.179 c 0,1.1574 0.9382,2.0957 2.0957,2.0957 1.1574,0 2.0957,-0.9383 2.0957,-2.0957 v -96.8348 c 0,-1.1575 -0.9383,-2.0957 -2.0957,-2.0957 -1.1575,0 -2.0957,0.9382 -2.0957,2.0957 z" clip-path="url(#1602252769989-clipPath1)" id="path74" ns2:connector-curvature="0" style="stroke:none" />
    </g>
    <g id="g80" style="text-rendering:geometricPrecision;fill:#000000;stroke:none">
      <path d="m 460.4652,253.3952 v 0 l -83.8546,-48.4115 c -1.0024,-0.5787 -1.3459,-1.8604 -0.7672,-2.8628 0.5787,-1.0024 1.8605,-1.3458 2.8628,-0.7671 v 0 l 83.8547,48.4115 c 1.0024,0.5787 1.3458,1.8604 0.7671,2.8628 -0.5787,1.0024 -1.8604,1.3458 -2.8628,0.7671 z" clip-path="url(#1602252769989-clipPath1)" id="path78" ns2:connector-curvature="0" style="stroke:none" />
    </g>
    <g id="g84" style="text-rendering:geometricPrecision;fill:#000000;stroke:none">
      <path d="m 460.4652,249.7653 v 0 l 83.8508,-48.4122 c 1.0024,-0.5788 2.2841,-0.2353 2.8628,0.767 0.5788,1.0024 0.2353,2.2841 -0.7671,2.8628 v 0 l -83.8508,48.4123 c -1.0023,0.5787 -2.284,0.2353 -2.8628,-0.7671 -0.5787,-1.0023 -0.2353,-2.284 0.7671,-2.8628 z" clip-path="url(#1602252769989-clipPath1)" id="path82" ns2:connector-curvature="0" style="stroke:none" />
    </g>
    <g id="g90" style="fill:#ff0000;stroke:none;text-rendering:geometricPrecision">
      <path d="m 375.5627,203.1688 v 0 l -0.002,-71.6374 c 0,-1.1575 0.9382,-2.0958 2.0957,-2.0958 1.1574,0 2.0957,0.9382 2.0958,2.0956 v 0 l 0.002,71.6375 c 10e-5,1.1574 -0.9382,2.0957 -2.0956,2.0958 -1.1575,0 -2.0958,-0.9383 -2.0958,-2.0957 z" clip-path="url(#1602252769989-clipPath1)" id="path86" ns2:connector-curvature="0" style="stroke:none" />
      <path d="m 375.5627,203.1688 v 0 l -0.002,-71.6374 c 0,-1.1575 0.9382,-2.0958 2.0957,-2.0958 1.1574,0 2.0957,0.9382 2.0958,2.0956 v 0 l 0.002,71.6375 c 10e-5,1.1574 -0.9382,2.0957 -2.0956,2.0958 -1.1575,0 -2.0958,-0.9383 -2.0958,-2.0957 z" clip-path="url(#1602252769422-clipPath1)" id="path88" ns2:connector-curvature="0" style="fill:#000000;stroke:none" />
    </g>
    <g id="g96" style="fill:#ff0000;stroke:none;text-rendering:geometricPrecision">
      <path d="m 379.7541,396.8267 v 0 l -0.002,72.1374 c -10e-5,1.1575 -0.9384,2.0957 -2.0958,2.0957 -1.1575,-10e-5 -2.0957,-0.9384 -2.0957,-2.0958 v 0 l 0.002,-72.1374 c 0,-1.1575 0.9383,-2.0957 2.0958,-2.0957 1.1574,10e-5 2.0957,0.9384 2.0956,2.0958 z" clip-path="url(#1602252769989-clipPath1)" id="path92" ns2:connector-curvature="0" style="stroke:none" />
      <path d="m 379.7541,396.8267 v 0 l -0.002,72.1374 c -10e-5,1.1575 -0.9384,2.0957 -2.0958,2.0957 -1.1575,-10e-5 -2.0957,-0.9384 -2.0957,-2.0958 v 0 l 0.002,-72.1374 c 0,-1.1575 0.9383,-2.0957 2.0958,-2.0957 1.1574,10e-5 2.0957,0.9384 2.0956,2.0958 z" clip-path="url(#1602252769766-clipPath1)" id="path94" ns2:connector-curvature="0" style="fill:#000000;stroke:none" />
    </g>
    <g id="g102" style="text-rendering:geometricPrecision;fill:#000000;stroke:none">
      <path d="m 356.8992,96.7828 v 0 l -56.8843,-32.84 c -1.0024,-0.5787 -1.3459,-1.8604 -0.7672,-2.8627 0.5787,-1.0024 1.8604,-1.3459 2.8628,-0.7672 v 0 l 56.8843,32.8399 c 1.0024,0.5787 1.3459,1.8604 0.7672,2.8628 -0.5787,1.0024 -1.8604,1.3458 -2.8628,0.7672 z" clip-path="url(#1602252769989-clipPath1)" id="path98" ns2:connector-curvature="0" style="stroke:none" />
      <path d="m 356.8992,96.7828 v 0 l -56.8843,-32.84 c -1.0024,-0.5787 -1.3459,-1.8604 -0.7672,-2.8627 0.5787,-1.0024 1.8604,-1.3459 2.8628,-0.7672 v 0 l 56.8843,32.8399 c 1.0024,0.5787 1.3459,1.8604 0.7672,2.8628 -0.5787,1.0024 -1.8604,1.3458 -2.8628,0.7672 z" clip-path="url(#1602252769920-clipPath1)" id="path100" ns2:connector-curvature="0" style="fill:#ff0000;stroke:none" />
    </g>
    <g id="g108" style="text-rendering:geometricPrecision;fill:#000000;stroke:none">
      <path d="m 398.5785,503.3105 v 0 l 56.715,32.7468 c 1.0024,0.5787 1.3458,1.8604 0.767,2.8627 -0.5787,1.0024 -1.8605,1.3458 -2.8628,0.7671 v 0 l -56.7151,-32.7468 c -1.0023,-0.5787 -1.3457,-1.8605 -0.767,-2.8628 0.5788,-1.0024 1.8605,-1.3457 2.8629,-0.767 z" clip-path="url(#1602252769989-clipPath1)" id="path104" ns2:connector-curvature="0" style="stroke:none" />
      <path d="m 398.5785,503.3105 v 0 l 56.715,32.7468 c 1.0024,0.5787 1.3458,1.8604 0.767,2.8627 -0.5787,1.0024 -1.8605,1.3458 -2.8628,0.7671 v 0 l -56.7151,-32.7468 c -1.0023,-0.5787 -1.3457,-1.8605 -0.767,-2.8628 0.5788,-1.0024 1.8605,-1.3457 2.8629,-0.767 z" clip-path="url(#1602252769916-clipPath1)" id="path106" ns2:connector-curvature="0" style="fill:#ff0000;stroke:none" />
    </g>
    <g id="g112" style="text-rendering:geometricPrecision;fill:#000000;stroke:none">
      <path d="m 546.4117,201.353 v 0 l 83.8517,48.4108 c 1.0024,0.5787 1.3459,1.8605 0.7671,2.8628 -0.5787,1.0024 -1.8604,1.3459 -2.8628,0.7672 v 0 L 544.316,204.9829 c -1.0023,-0.5787 -1.3458,-1.8604 -0.767,-2.8628 0.5786,-1.0023 1.8604,-1.3458 2.8627,-0.7671 z" clip-path="url(#1602252769989-clipPath1)" id="path110" ns2:connector-curvature="0" style="stroke:none" />
    </g>
    <g id="g118" style="fill:#333399;stroke:none;text-rendering:geometricPrecision">
      <path d="m 628.1677,249.7639 v 0 l 65.8941,-38.0448 c 1.0024,-0.5787 2.2841,-0.2353 2.8628,0.767 0.5788,1.0024 0.2353,2.2841 -0.767,2.8629 v 0 l -65.8942,38.0447 c -1.0023,0.5788 -2.284,0.2353 -2.8628,-0.767 -0.5787,-1.0024 -0.2353,-2.2841 0.7671,-2.8628 z" clip-path="url(#1602252769989-clipPath1)" id="path114" ns2:connector-curvature="0" style="stroke:none" />
      <path d="m 628.1677,249.7639 v 0 l 65.8941,-38.0448 c 1.0024,-0.5787 2.2841,-0.2353 2.8628,0.767 0.5788,1.0024 0.2353,2.2841 -0.767,2.8629 v 0 l -65.8942,38.0447 c -1.0023,0.5788 -2.284,0.2353 -2.8628,-0.767 -0.5787,-1.0024 -0.2353,-2.2841 0.7671,-2.8628 z" clip-path="url(#1602252769797-clipPath1)" id="path116" ns2:connector-curvature="0" style="fill:#000000;stroke:none" />
    </g>
    <g id="g124" style="fill:#666600;stroke:none;text-rendering:geometricPrecision">
      <path d="m 294.8633,350.23 v 0 l -66.568,38.4312 c -1.0024,0.5787 -2.2841,0.2353 -2.8628,-0.7671 -0.5787,-1.0024 -0.2352,-2.2841 0.7671,-2.8628 v 0 l 66.5681,-38.4312 c 1.0024,-0.5787 2.2841,-0.2352 2.8628,0.7672 0.5786,1.0024 0.2352,2.2841 -0.7672,2.8627 z" clip-path="url(#1602252769989-clipPath1)" id="path120" ns2:connector-curvature="0" style="stroke:none" />
      <path d="m 294.8633,350.23 v 0 l -66.568,38.4312 c -1.0024,0.5787 -2.2841,0.2353 -2.8628,-0.7671 -0.5787,-1.0024 -0.2352,-2.2841 0.7671,-2.8628 v 0 l 66.5681,-38.4312 c 1.0024,-0.5787 2.2841,-0.2352 2.8628,0.7672 0.5786,1.0024 0.2352,2.2841 -0.7672,2.8627 z" clip-path="url(#1602252769377-clipPath1)" id="path122" ns2:connector-curvature="0" style="fill:#000000;stroke:none" />
    </g>
    <g id="g130" style="text-rendering:geometricPrecision;fill:#000000;stroke:none">
      <path d="m 191.6311,388.6602 v 0 l -66.566,-38.4338 c -1.0024,-0.5787 -1.3458,-1.8605 -0.767,-2.8628 0.5787,-1.0024 1.8604,-1.3458 2.8628,-0.767 v 0 l 66.566,38.4338 c 1.0024,0.5787 1.3458,1.8605 0.7671,2.8628 -0.5788,1.0024 -1.8605,1.3458 -2.8629,0.767 z" clip-path="url(#1602252769989-clipPath1)" id="path126" ns2:connector-curvature="0" style="stroke:none" />
      <path d="m 191.6311,388.6602 v 0 l -66.566,-38.4338 c -1.0024,-0.5787 -1.3458,-1.8605 -0.767,-2.8628 0.5787,-1.0024 1.8604,-1.3458 2.8628,-0.767 v 0 l 66.566,38.4338 c 1.0024,0.5787 1.3458,1.8605 0.7671,2.8628 -0.5788,1.0024 -1.8605,1.3458 -2.8629,0.767 z" clip-path="url(#1602252769993-clipPath1)" id="path128" ns2:connector-curvature="0" style="fill:#666600;stroke:none" />
    </g>
    <g id="g136" style="fill:#996600;stroke:none;text-rendering:geometricPrecision">
      <path d="m 125.0651,350.2264 v 0 L 56.8496,310.8422 c -1.0023,-0.5787 -1.3458,-1.8604 -0.767,-2.8628 0.5787,-1.0024 1.8604,-1.3458 2.8628,-0.7671 v 0 l 68.2154,39.3842 c 1.0024,0.5788 1.3459,1.8605 0.7671,2.8629 -0.5787,1.0023 -1.8604,1.3457 -2.8628,0.767 z" clip-path="url(#1602252769989-clipPath1)" id="path132" ns2:connector-curvature="0" style="stroke:none" />
      <path d="m 125.0651,350.2264 v 0 L 56.8496,310.8422 c -1.0023,-0.5787 -1.3458,-1.8604 -0.767,-2.8628 0.5787,-1.0024 1.8604,-1.3458 2.8628,-0.7671 v 0 l 68.2154,39.3842 c 1.0024,0.5788 1.3459,1.8605 0.7671,2.8629 -0.5787,1.0023 -1.8604,1.3457 -2.8628,0.767 z" clip-path="url(#1602252769139-clipPath1)" id="path134" ns2:connector-curvature="0" style="fill:#000000;stroke:none" />
    </g>
    <g id="g142" style="fill:#996600;stroke:none;text-rendering:geometricPrecision">
      <path d="m 124.298,347.3636 v 0 L 161.42,283.068 c 0.5788,-1.0024 1.8605,-1.3458 2.8629,-0.767 1.0023,0.5787 1.3457,1.8604 0.767,2.8628 v 0 l -37.122,64.2956 c -0.5787,1.0023 -1.8604,1.3457 -2.8628,0.767 -1.0024,-0.5787 -1.3458,-1.8604 -0.7671,-2.8628 z" clip-path="url(#1602252769989-clipPath1)" id="path138" ns2:connector-curvature="0" style="stroke:none" />
      <path d="m 124.298,347.3636 v 0 L 161.42,283.068 c 0.5788,-1.0024 1.8605,-1.3458 2.8629,-0.767 1.0023,0.5787 1.3457,1.8604 0.767,2.8628 v 0 l -37.122,64.2956 c -0.5787,1.0023 -1.8604,1.3457 -2.8628,0.767 -1.0024,-0.5787 -1.3458,-1.8604 -0.7671,-2.8628 z" clip-path="url(#1602252769681-clipPath1)" id="path140" ns2:connector-curvature="0" style="fill:#000000;stroke:none" />
    </g>
    <g id="g148" style="fill:#996600;stroke:none;text-rendering:geometricPrecision">
      <path d="m 127.9279,349.4594 v 0 l -37.122,64.2955 c -0.5787,1.0024 -1.8604,1.3458 -2.8628,0.7671 -1.0023,-0.5787 -1.3458,-1.8604 -0.767,-2.8628 v 0 l 37.1219,-64.2956 c 0.5788,-1.0024 1.8605,-1.3458 2.8629,-0.767 1.0023,0.5787 1.3457,1.8604 0.767,2.8628 z" clip-path="url(#1602252769989-clipPath1)" id="path144" ns2:connector-curvature="0" style="stroke:none" />
      <path d="m 127.9279,349.4594 v 0 l -37.122,64.2955 c -0.5787,1.0024 -1.8604,1.3458 -2.8628,0.7671 -1.0023,-0.5787 -1.3458,-1.8604 -0.767,-2.8628 v 0 l 37.1219,-64.2956 c 0.5788,-1.0024 1.8605,-1.3458 2.8629,-0.767 1.0023,0.5787 1.3457,1.8604 0.767,2.8628 z" clip-path="url(#1602252769681-clipPath1)" id="path146" ns2:connector-curvature="0" style="fill:#000000;stroke:none" />
    </g>
    <g font-size="34px" transform="translate(700.4101,183.1665)" id="g152" style="font-size:34px;font-family:sans-serif;fill:#333399;stroke:none;text-rendering:geometricPrecision">
      <text x="0" xml:space="preserve" y="32" clip-path="url(#1602252769604-clipPath1)" id="text150" style="stroke:none">NH</text>
    </g>
    <g font-size="27px" transform="translate(748.3633,200.2657)" id="g156" style="font-size:27px;font-family:sans-serif;fill:#333399;stroke:none;text-rendering:geometricPrecision">
      <text x="0" xml:space="preserve" y="26" clip-path="url(#1602252769344-clipPath1)" id="text154" style="stroke:none">2</text>
    </g>
    <g font-size="34px" transform="translate(364.3508,86.3456)" id="g160" style="font-size:34px;font-family:sans-serif;fill:#ff0000;stroke:none;text-rendering:geometricPrecision">
      <text x="0" xml:space="preserve" y="32" clip-path="url(#1602252769932-clipPath1)" id="text158" style="stroke:none">O</text>
    </g>
    <g font-size="34px" transform="translate(364.3508,473.6497)" id="g164" style="font-size:34px;font-family:sans-serif;fill:#ff0000;stroke:none;text-rendering:geometricPrecision">
      <text x="0" xml:space="preserve" y="32" clip-path="url(#1602252769748-clipPath1)" id="text162" style="stroke:none">O</text>
    </g>
    <g font-size="34px" transform="translate(198.9866,376.8248)" id="g168" style="font-size:34px;font-family:sans-serif;fill:#666600;stroke:none;text-rendering:geometricPrecision">
      <text x="0" xml:space="preserve" y="32" clip-path="url(#1602252769372-clipPath1)" id="text166" style="stroke:none">S</text>
    </g>
    <g font-size="34px" transform="translate(32.4336,279.9999)" id="g172" style="font-size:34px;font-family:sans-serif;fill:#996600;stroke:none;text-rendering:geometricPrecision">
      <text x="0" xml:space="preserve" y="32" clip-path="url(#1602252769739-clipPath1)" id="text170" style="stroke:none">F</text>
    </g>
    <g font-size="34px" transform="translate(164.6973,244.5608)" id="g176" style="font-size:34px;font-family:sans-serif;fill:#996600;stroke:none;text-rendering:geometricPrecision">
      <text x="0" xml:space="preserve" y="32" clip-path="url(#160225276933-clipPath1)" id="text174" style="stroke:none">F</text>
    </g>
    <g font-size="34px" transform="translate(67.8724,412.2622)" id="g180" style="font-size:34px;font-family:sans-serif;fill:#996600;stroke:none;text-rendering:geometricPrecision">
      <text x="0" xml:space="preserve" y="32" clip-path="url(#160225276933-clipPath2)" id="text178" style="stroke:none">F</text>
    </g>
  </g>
</svg>