<?xml version='1.0' encoding='utf-8'?>
<svg xmlns="http://www.w3.org/2000/svg" xmlns:dc="http://purl.org/dc/elements/1.1/" xmlns:ns1="http://sodipodi.sourceforge.net/DTD/sodipodi-0.dtd" xmlns:ns2="http://www.inkscape.org/namespaces/inkscape" xmlns:ns4="http://creativecommons.org/ns#" xmlns:rdf="http://www.w3.org/1999/02/22-rdf-syntax-ns#" width="755.59369" stroke-miterlimit="10" font-weight="normal" height="452.7731" font-style="normal" font-size="12px" version="1.1" id="svg197" ns1:docname="2C-T-12.svg" style="font-style:normal;font-weight:normal;font-size:12px;font-family:Dialog;color-interpolation:auto;fill:#f0abfc;fill-opacity:1;stroke:none;stroke:none;stroke:none;stroke:none;stroke:none;stroke:none;stroke:none;stroke:none;color-rendering:auto;image-rendering:auto;shape-rendering:auto;text-rendering:auto" ns2:version="0.92.2 (5c3e80d, 2017-08-06)">
  <metadata id="metadata201">
    <rdf:RDF>
      <ns4:Work rdf:about="">
        <dc:format>image/svg+xml</dc:format>
        <dc:type rdf:resource="http://purl.org/dc/dcmitype/StillImage" />
        <dc:title />
      </ns4:Work>
    </rdf:RDF>
  </metadata>
  <ns1:namedview pagecolor="#eef2ff" bordercolor="#666666" borderopacity="1" objecttolerance="10" gridtolerance="10" guidetolerance="10" ns2:pageopacity="0" ns2:pageshadow="2" ns2:window-width="1366" ns2:window-height="745" id="namedview199" showgrid="false" fit-margin-top="10" fit-margin-left="10" fit-margin-right="10" fit-margin-bottom="10" ns2:zoom="0.375" ns2:cx="378.25658" ns2:cy="226.38653" ns2:window-x="-8" ns2:window-y="-8" ns2:window-maximized="1" ns2:current-layer="svg197" />
  
  <defs id="genericDefs" />
  <g id="g195" transform="translate(-21.743423,-73.61344)" style="fill:#f0abfc;stroke:none">
    <defs id="1681977881284-defs1">
      <clipPath clipPathUnits="userSpaceOnUse" id="16819778818-clipPath1">
        <path d="M 0,0 H 800 V 600 H 0 Z" id="path3" ns2:connector-curvature="0" style="stroke:none" />
      </clipPath>
      <clipPath clipPathUnits="userSpaceOnUse" id="168197788139-clipPath1">
        <path d="m 420.0186,180.2482 c -17.914,0 -32.4361,14.5222 -32.4361,32.4361 0,17.914 14.5221,32.4361 32.4361,32.4361 17.914,0 32.4361,-14.5221 32.4361,-32.4361 0,-17.9139 -14.5221,-32.4361 -32.4361,-32.4361 z" id="path6" ns2:connector-curvature="0" style="stroke:none" />
      </clipPath>
      <clipPath clipPathUnits="userSpaceOnUse" id="1681977881873-clipPath1">
        <path d="m 420.0186,354.6566 c -18.0348,0 -32.6549,14.6201 -32.6549,32.6549 0,18.0348 14.6201,32.6548 32.6549,32.6548 18.0348,0 32.6548,-14.62 32.6548,-32.6548 0,-18.0348 -14.62,-32.6549 -32.6548,-32.6549 z" id="path9" ns2:connector-curvature="0" style="stroke:none" />
      </clipPath>
      <clipPath clipPathUnits="userSpaceOnUse" id="1681977881883-clipPath1">
        <path d="m 402.4351,85.502 c -16.4164,0 -29.7245,13.3081 -29.7245,29.7244 0,16.4164 13.3081,29.7245 29.7245,29.7245 16.4163,0 29.7244,-13.3081 29.7244,-29.7245 0,-16.4163 -13.3081,-29.7244 -29.7244,-29.7244 z" id="path12" ns2:connector-curvature="0" style="stroke:none" />
      </clipPath>
      <clipPath clipPathUnits="userSpaceOnUse" id="1681977881775-clipPath1">
        <path d="m 437.7426,455.2151 c -16.3696,0 -29.6398,13.2702 -29.6398,29.6399 0,16.3696 13.2702,29.6399 29.6398,29.6399 16.3697,0 29.64,-13.2703 29.64,-29.6399 0,-16.3697 -13.2703,-29.6399 -29.64,-29.6399 z" id="path15" ns2:connector-curvature="0" style="stroke:none" />
      </clipPath>
      <clipPath clipPathUnits="userSpaceOnUse" id="1681977881351-clipPath1">
        <path d="m 646.8552,221.9318 c -19.0015,0 -34.4053,15.4038 -34.4053,34.4054 0,19.0015 15.4038,34.4053 34.4053,34.4053 19.0016,0 34.4054,-15.4038 34.4054,-34.4053 0,-19.0016 -15.4038,-34.4054 -34.4054,-34.4054 z" id="path18" ns2:connector-curvature="0" style="stroke:none" />
      </clipPath>
      <clipPath clipPathUnits="userSpaceOnUse" id="168197788154-clipPath1">
        <path d="m 344.4149,308.9199 c -19.1849,0 -34.7374,15.5525 -34.7374,34.7374 0,19.185 15.5525,34.7374 34.7374,34.7374 19.185,0 34.7374,-15.5524 34.7374,-34.7374 0,-19.1849 -15.5524,-34.7374 -34.7374,-34.7374 z" id="path21" ns2:connector-curvature="0" style="stroke:none" />
      </clipPath>
      <clipPath clipPathUnits="userSpaceOnUse" id="1681977881749-clipPath1">
        <path d="m 253.3585,352.9042 c -14.0769,0 -25.4885,11.4116 -25.4885,25.4884 0,14.0769 11.4116,25.4884 25.4885,25.4884 14.0768,0 25.4884,-11.4115 25.4884,-25.4884 0,-14.0768 -11.4116,-25.4884 -25.4884,-25.4884 z" id="path24" ns2:connector-curvature="0" style="stroke:none" />
      </clipPath>
      <clipPath clipPathUnits="userSpaceOnUse" id="1681977881237-clipPath1">
        <path d="m 117.5785,352.9019 c -19.0023,0 -34.4067,15.4044 -34.4067,34.4067 0,19.0023 15.4044,34.4067 34.4067,34.4067 19.0023,0 34.4067,-15.4044 34.4067,-34.4067 0,-19.0023 -15.4044,-34.4067 -34.4067,-34.4067 z" id="path27" ns2:connector-curvature="0" style="stroke:none" />
      </clipPath>
      <clipPath clipPathUnits="userSpaceOnUse" id="1681977881605-clipPath1">
        <path d="m 193.1923,289.1631 c -18.1209,0 -32.8108,14.6899 -32.8108,32.8108 0,18.1209 14.6899,32.8108 32.8108,32.8108 18.1209,0 32.8108,-14.6899 32.8108,-32.8108 0,-18.1209 -14.6899,-32.8108 -32.8108,-32.8108 z" id="path30" ns2:connector-curvature="0" style="stroke:none" />
      </clipPath>
      <clipPath clipPathUnits="userSpaceOnUse" id="1681977881325-clipPath1">
        <path d="m 117.5724,179.1898 c -18.502,0 -33.5008,14.9988 -33.5008,33.5008 0,18.502 14.9988,33.5008 33.5008,33.5008 18.502,0 33.5008,-14.9988 33.5008,-33.5008 0,-18.502 -14.9988,-33.5008 -33.5008,-33.5008 z" id="path33" ns2:connector-curvature="0" style="stroke:none" />
      </clipPath>
      <clipPath clipPathUnits="userSpaceOnUse" id="1681977881961-clipPath1">
        <path d="m 41.9626,246.3347 c -17.9147,0 -32.4374,14.5227 -32.4374,32.4374 0,17.9146 14.5227,32.4374 32.4374,32.4374 17.9147,0 32.4374,-14.5228 32.4374,-32.4374 0,-17.9147 -14.5227,-32.4374 -32.4374,-32.4374 z" id="path36" ns2:connector-curvature="0" style="stroke:none" />
      </clipPath>
      <clipPath clipPathUnits="userSpaceOnUse" id="1681977881987-clipPath1">
        <path d="M -710.9191,-194.1823 H 89.0808 v 600 h -799.9999 z" id="path39" ns2:connector-curvature="0" style="stroke:none" />
      </clipPath>
      <clipPath clipPathUnits="userSpaceOnUse" id="1681977881917-clipPath1">
        <path d="m -753.6379,-209.7005 h 800 v 600 h -800 z" id="path42" ns2:connector-curvature="0" style="stroke:none" />
      </clipPath>
      <clipPath clipPathUnits="userSpaceOnUse" id="1681977881422-clipPath1">
        <path d="m -408.055,-106.8761 h 800 v 600 h -800 z" id="path45" ns2:connector-curvature="0" style="stroke:none" />
      </clipPath>
      <clipPath clipPathUnits="userSpaceOnUse" id="168197788145-clipPath1">
        <path d="m -408.055,-456.1198 h 800 v 600 h -800 z" id="path48" ns2:connector-curvature="0" style="stroke:none" />
      </clipPath>
      <clipPath clipPathUnits="userSpaceOnUse" id="1681977881204-clipPath1">
        <path d="m -258.8497,-368.8098 h 800 v 600 h -800 z" id="path51" ns2:connector-curvature="0" style="stroke:none" />
      </clipPath>
      <clipPath clipPathUnits="userSpaceOnUse" id="1681977881597-clipPath1">
        <path d="m -181.6457,-325.1541 h 800 v 600 h -800 z" id="path54" ns2:connector-curvature="0" style="stroke:none" />
      </clipPath>
      <clipPath clipPathUnits="userSpaceOnUse" id="168197788186-clipPath1">
        <path d="m -30.0027,-237.8359 h 800 v 600 h -800 z" id="path57" ns2:connector-curvature="0" style="stroke:none" />
      </clipPath>
    </defs>
    <g id="g63" style="text-rendering:geometricPrecision;fill:#f0abfc;stroke:none">
      <path d="m 419.3275,233.4505 c 0.9039,-0.5219 1.2135,-1.6777 0.6916,-2.5815 -0.5218,-0.9039 -1.6776,-1.2135 -2.5814,-0.6916 l -56.583,32.6714 c -0.9038,0.5219 -1.2134,1.6776 -0.6916,2.5815 0.5219,0.9038 1.6777,1.2134 2.5816,0.6916 z m 1.6361,-19.1296 c 0.9038,-0.5219 1.2134,-1.6777 0.6916,-2.5815 -0.5219,-0.9039 -1.6777,-1.2135 -2.5816,-0.6916 L 343.47,254.7019 c -0.9039,0.5219 -1.2135,1.6777 -0.6916,2.5815 0.5219,0.9039 1.6776,1.2135 2.5815,0.6916 z" clip-path="url(#16819778818-clipPath1)" id="path61" ns2:connector-curvature="0" style="stroke:none" />
    </g>
    <g id="g67" style="text-rendering:geometricPrecision;fill:#f0abfc;stroke:none">
      <path d="m 346.3047,256.3385 v 0 87.3188 c 0,1.0437 -0.8461,1.8898 -1.8898,1.8898 -1.0437,0 -1.8898,-0.8461 -1.8898,-1.8898 v 0 -87.3188 c 0,-1.0437 0.8461,-1.8898 1.8898,-1.8898 1.0437,0 1.8898,0.8461 1.8898,1.8898 z" clip-path="url(#16819778818-clipPath1)" id="path65" ns2:connector-curvature="0" style="stroke:none" />
    </g>
    <g id="g71" style="text-rendering:geometricPrecision;fill:#f0abfc;stroke:none">
      <path d="m 362.7447,333.874 c -0.9039,-0.5219 -2.0597,-0.2123 -2.5816,0.6916 -0.5218,0.9038 -0.2122,2.0596 0.6916,2.5814 l 56.583,32.6715 c 0.9038,0.5218 2.0596,0.2122 2.5814,-0.6916 0.5219,-0.9039 0.2123,-2.0597 -0.6916,-2.5816 z m -17.3848,8.1468 c -0.9039,-0.5219 -2.0596,-0.2123 -2.5815,0.6916 -0.5219,0.9038 -0.2123,2.0596 0.6916,2.5815 l 75.6036,43.6541 c 0.9039,0.5219 2.0597,0.2123 2.5816,-0.6916 0.5218,-0.9038 0.2122,-2.0596 -0.6916,-2.5815 z" clip-path="url(#16819778818-clipPath1)" id="path69" ns2:connector-curvature="0" style="stroke:none" />
    </g>
    <g id="g75" style="text-rendering:geometricPrecision;fill:#f0abfc;stroke:none">
      <path d="m 419.0737,385.6749 v 0 l 75.6143,-43.6542 c 0.9039,-0.5218 2.0596,-0.2121 2.5815,0.6918 0.5218,0.9039 0.2121,2.0596 -0.6918,2.5814 v 0 l -75.6143,43.6542 c -0.9038,0.5218 -2.0596,0.2121 -2.5814,-0.6918 -0.5218,-0.9039 -0.2121,-2.0596 0.6917,-2.5814 z" clip-path="url(#16819778818-clipPath1)" id="path73" ns2:connector-curvature="0" style="stroke:none" />
    </g>
    <g id="g79" style="text-rendering:geometricPrecision;fill:#f0abfc;stroke:none">
      <path d="m 477.9948,332.6751 c 0,1.0437 0.8461,1.8898 1.8898,1.8898 1.0437,0 1.8898,-0.8461 1.8898,-1.8898 v -65.3544 c 0,-1.0437 -0.8461,-1.8898 -1.8898,-1.8898 -1.0437,0 -1.8898,0.8461 -1.8898,1.8898 z m 15.7483,10.9822 c 0,1.0437 0.8461,1.8898 1.8897,1.8898 1.0437,0 1.8898,-0.8461 1.8898,-1.8898 v -87.3188 c 0,-1.0437 -0.8461,-1.8898 -1.8898,-1.8898 -1.0436,0 -1.8897,0.8461 -1.8897,1.8898 z" clip-path="url(#16819778818-clipPath1)" id="path77" ns2:connector-curvature="0" style="stroke:none" />
    </g>
    <g id="g83" style="text-rendering:geometricPrecision;fill:#f0abfc;stroke:none">
      <path d="m 494.688,257.9751 v 0 L 419.0737,214.321 c -0.9038,-0.5219 -1.2135,-1.6776 -0.6917,-2.5815 0.5218,-0.9039 1.6776,-1.2136 2.5814,-0.6918 v 0 l 75.6143,43.6542 c 0.9039,0.5218 1.2136,1.6776 0.6918,2.5814 -0.5219,0.9039 -1.6776,1.2136 -2.5815,0.6918 z" clip-path="url(#16819778818-clipPath1)" id="path81" ns2:connector-curvature="0" style="stroke:none" />
    </g>
    <g id="g87" style="text-rendering:geometricPrecision;fill:#f0abfc;stroke:none">
      <path d="m 494.688,254.7019 v 0 l 75.6108,-43.6548 c 0.9038,-0.5219 2.0596,-0.2122 2.5814,0.6917 0.5219,0.9038 0.2122,2.0596 -0.6917,2.5815 v 0 l -75.6107,43.6548 c -0.9039,0.5218 -2.0597,0.2121 -2.5815,-0.6917 -0.5219,-0.9039 -0.2122,-2.0596 0.6917,-2.5815 z" clip-path="url(#16819778818-clipPath1)" id="path85" ns2:connector-curvature="0" style="stroke:none" />
    </g>
    <g id="g93" style="fill:#fda4af;stroke:none;text-rendering:geometricPrecision">
      <path d="m 418.1288,212.6844 v 0 l -0.002,-64.8722 c -10e-5,-1.0437 0.846,-1.8898 1.8897,-1.8898 1.0437,-1e-4 1.8898,0.846 1.8898,1.8897 v 0 l 0.002,64.8722 c 0,1.0437 -0.8461,1.8898 -1.8898,1.8898 -1.0436,0 -1.8898,-0.846 -1.8898,-1.8897 z" clip-path="url(#16819778818-clipPath1)" id="path89" ns2:connector-curvature="0" style="stroke:none" />
      <path d="m 418.1288,212.6844 v 0 l -0.002,-64.8722 c -10e-5,-1.0437 0.846,-1.8898 1.8897,-1.8898 1.0437,-1e-4 1.8898,0.846 1.8898,1.8897 v 0 l 0.002,64.8722 c 0,1.0437 -0.8461,1.8898 -1.8898,1.8898 -1.0436,0 -1.8898,-0.846 -1.8898,-1.8897 z" clip-path="url(#168197788139-clipPath1)" id="path91" ns2:connector-curvature="0" style="fill:#f0abfc;stroke:none" />
    </g>
    <g id="g99" style="fill:#fda4af;stroke:none;text-rendering:geometricPrecision">
      <path d="m 421.9084,387.3115 v 0 l -0.002,65.3097 c -1e-4,1.0437 -0.8462,1.8898 -1.8898,1.8897 -1.0437,0 -1.8898,-0.8461 -1.8897,-1.8898 v 0 l 0.002,-65.3097 c 0,-1.0437 0.8462,-1.8897 1.8898,-1.8897 1.0437,0 1.8898,0.8462 1.8898,1.8898 z" clip-path="url(#16819778818-clipPath1)" id="path95" ns2:connector-curvature="0" style="stroke:none" />
      <path d="m 421.9084,387.3115 v 0 l -0.002,65.3097 c -1e-4,1.0437 -0.8462,1.8898 -1.8898,1.8897 -1.0437,0 -1.8898,-0.8461 -1.8897,-1.8898 v 0 l 0.002,-65.3097 c 0,-1.0437 0.8462,-1.8897 1.8898,-1.8897 1.0437,0 1.8898,0.8462 1.8898,1.8898 z" clip-path="url(#1681977881873-clipPath1)" id="path97" ns2:connector-curvature="0" style="fill:#f0abfc;stroke:none" />
    </g>
    <g id="g105" style="text-rendering:geometricPrecision;fill:#f0abfc;stroke:none">
      <path d="m 401.4902,116.8631 v 0 L 350.0051,87.1402 c -0.9039,-0.5218 -1.2136,-1.6776 -0.6918,-2.5815 0.5218,-0.9039 1.6776,-1.2136 2.5814,-0.6918 v 0 l 51.4852,29.7229 c 0.9039,0.5218 1.2136,1.6776 0.6918,2.5815 -0.5218,0.9039 -1.6776,1.2136 -2.5815,0.6918 z" clip-path="url(#16819778818-clipPath1)" id="path101" ns2:connector-curvature="0" style="stroke:none" />
      <path d="m 401.4902,116.8631 v 0 L 350.0051,87.1402 c -0.9039,-0.5218 -1.2136,-1.6776 -0.6918,-2.5815 0.5218,-0.9039 1.6776,-1.2136 2.5814,-0.6918 v 0 l 51.4852,29.7229 c 0.9039,0.5218 1.2136,1.6776 0.6918,2.5815 -0.5218,0.9039 -1.6776,1.2136 -2.5815,0.6918 z" clip-path="url(#1681977881883-clipPath1)" id="path103" ns2:connector-curvature="0" style="fill:#fda4af;stroke:none" />
    </g>
    <g id="g111" style="text-rendering:geometricPrecision;fill:#f0abfc;stroke:none">
      <path d="m 438.6876,483.2184 v 0 l 51.3369,29.6415 c 0.9038,0.5219 1.2135,1.6776 0.6916,2.5815 -0.5219,0.9038 -1.6776,1.2135 -2.5815,0.6916 v 0 l -51.3369,-29.6415 c -0.9038,-0.5218 -1.2135,-1.6776 -0.6916,-2.5814 0.5219,-0.9039 1.6777,-1.2135 2.5815,-0.6917 z" clip-path="url(#16819778818-clipPath1)" id="path107" ns2:connector-curvature="0" style="stroke:none" />
      <path d="m 438.6876,483.2184 v 0 l 51.3369,29.6415 c 0.9038,0.5219 1.2135,1.6776 0.6916,2.5815 -0.5219,0.9038 -1.6776,1.2135 -2.5815,0.6916 v 0 l -51.3369,-29.6415 c -0.9038,-0.5218 -1.2135,-1.6776 -0.6916,-2.5814 0.5219,-0.9039 1.6777,-1.2135 2.5815,-0.6917 z" clip-path="url(#1681977881775-clipPath1)" id="path109" ns2:connector-curvature="0" style="fill:#fda4af;stroke:none" />
    </g>
    <g id="g115" style="text-rendering:geometricPrecision;fill:#f0abfc;stroke:none">
      <path d="m 572.1885,211.0471 v 0 l 75.6116,43.6534 c 0.9039,0.5219 1.2136,1.6776 0.6917,2.5815 -0.5218,0.9039 -1.6776,1.2136 -2.5815,0.6918 v 0 l -75.6115,-43.6535 c -0.9039,-0.5219 -1.2136,-1.6776 -0.6917,-2.5815 0.5218,-0.9039 1.6776,-1.2136 2.5814,-0.6917 z" clip-path="url(#16819778818-clipPath1)" id="path113" ns2:connector-curvature="0" style="stroke:none" />
    </g>
    <g id="g121" style="fill:#c4b5fd;stroke:none;text-rendering:geometricPrecision">
      <path d="m 645.9103,254.7006 v 0 l 59.5915,-34.4059 c 0.9039,-0.5219 2.0597,-0.2122 2.5815,0.6917 0.5219,0.9038 0.2122,2.0596 -0.6917,2.5815 v 0 l -59.5915,34.4058 c -0.9039,0.5219 -2.0596,0.2122 -2.5815,-0.6917 -0.5218,-0.9038 -0.2121,-2.0596 0.6917,-2.5814 z" clip-path="url(#16819778818-clipPath1)" id="path117" ns2:connector-curvature="0" style="stroke:none" />
      <path d="m 645.9103,254.7006 v 0 l 59.5915,-34.4059 c 0.9039,-0.5219 2.0597,-0.2122 2.5815,0.6917 0.5219,0.9038 0.2122,2.0596 -0.6917,2.5815 v 0 l -59.5915,34.4058 c -0.9039,0.5219 -2.0596,0.2122 -2.5815,-0.6917 -0.5218,-0.9038 -0.2121,-2.0596 0.6917,-2.5814 z" clip-path="url(#1681977881351-clipPath1)" id="path119" ns2:connector-curvature="0" style="fill:#f0abfc;stroke:none" />
    </g>
    <g id="g127" style="fill:#bef264;stroke:none;text-rendering:geometricPrecision">
      <path d="m 345.3598,345.2939 v 0 l -60.1678,34.7362 c -0.9038,0.5218 -2.0596,0.2121 -2.5814,-0.6918 -0.5218,-0.9039 -0.2121,-2.0596 0.6918,-2.5815 v 0 l 60.1677,-34.7361 c 0.9038,-0.5218 2.0596,-0.2121 2.5814,0.6918 0.5219,0.9039 0.2121,2.0596 -0.6917,2.5814 z" clip-path="url(#16819778818-clipPath1)" id="path123" ns2:connector-curvature="0" style="stroke:none" />
      <path d="m 345.3598,345.2939 v 0 l -60.1678,34.7362 c -0.9038,0.5218 -2.0596,0.2121 -2.5814,-0.6918 -0.5218,-0.9039 -0.2121,-2.0596 0.6918,-2.5815 v 0 l 60.1677,-34.7361 c 0.9038,-0.5218 2.0596,-0.2121 2.5814,0.6918 0.5219,0.9039 0.2121,2.0596 -0.6917,2.5814 z" clip-path="url(#168197788154-clipPath1)" id="path125" ns2:connector-curvature="0" style="fill:#f0abfc;stroke:none" />
    </g>
    <g id="g131" style="text-rendering:geometricPrecision;fill:#f0abfc;stroke:none">
      <path d="m 42.9044,342.0103 v 0 l 75.619,43.6617 c 0.9039,0.5219 1.2135,1.6777 0.6917,2.5815 -0.5219,0.9039 -1.6777,1.2135 -2.5815,0.6917 v 0 L 41.0145,345.2834 c -0.9038,-0.5218 -1.2135,-1.6776 -0.6916,-2.5815 0.5219,-0.9038 1.6777,-1.2135 2.5815,-0.6916 z" clip-path="url(#16819778818-clipPath1)" id="path129" ns2:connector-curvature="0" style="stroke:none" />
    </g>
    <g id="g135" style="text-rendering:geometricPrecision;fill:#f0abfc;stroke:none">
      <path d="m 192.2465,257.9889 v 0 l -75.619,-43.6618 c -0.9039,-0.5218 -1.2135,-1.6776 -0.6916,-2.5814 0.5218,-0.9039 1.6776,-1.2135 2.5814,-0.6917 v 0 l 75.6191,43.6618 c 0.9038,0.5218 1.2135,1.6776 0.6916,2.5814 -0.5219,0.9039 -1.6777,1.2135 -2.5815,0.6917 z" clip-path="url(#16819778818-clipPath1)" id="path133" ns2:connector-curvature="0" style="stroke:none" />
    </g>
    <g id="g141" style="fill:#c4b5fd;stroke:none;text-rendering:geometricPrecision">
      <path d="m 252.4136,380.0292 v 0 l -44.1468,-25.4894 c -0.9038,-0.5219 -1.2135,-1.6776 -0.6916,-2.5815 0.5219,-0.9038 1.6776,-1.2135 2.5815,-0.6916 v 0 l 44.1467,25.4893 c 0.9038,0.5219 1.2135,1.6777 0.6916,2.5816 -0.5218,0.9038 -1.6776,1.2135 -2.5814,0.6916 z" clip-path="url(#16819778818-clipPath1)" id="path137" ns2:connector-curvature="0" style="stroke:none" />
      <path d="m 252.4136,380.0292 v 0 l -44.1468,-25.4894 c -0.9038,-0.5219 -1.2135,-1.6776 -0.6916,-2.5815 0.5219,-0.9038 1.6776,-1.2135 2.5815,-0.6916 v 0 l 44.1467,25.4893 c 0.9038,0.5219 1.2135,1.6777 0.6916,2.5816 -0.5218,0.9038 -1.6776,1.2135 -2.5814,0.6916 z" clip-path="url(#1681977881749-clipPath1)" id="path139" ns2:connector-curvature="0" style="fill:#bef264;stroke:none" />
    </g>
    <g id="g147" style="fill:#c4b5fd;stroke:none;text-rendering:geometricPrecision">
      <path d="m 116.6336,385.672 v 0 l 59.5946,-34.4059 c 0.9039,-0.5219 2.0597,-0.2122 2.5815,0.6917 0.5218,0.9039 0.2121,2.0596 -0.6917,2.5814 v 0 l -59.5946,34.406 c -0.9039,0.5218 -2.0597,0.2121 -2.5815,-0.6918 -0.5218,-0.9038 -0.2121,-2.0596 0.6917,-2.5814 z" clip-path="url(#16819778818-clipPath1)" id="path143" ns2:connector-curvature="0" style="stroke:none" />
      <path d="m 116.6336,385.672 v 0 l 59.5946,-34.4059 c 0.9039,-0.5219 2.0597,-0.2122 2.5815,0.6917 0.5218,0.9039 0.2121,2.0596 -0.6917,2.5814 v 0 l -59.5946,34.406 c -0.9039,0.5218 -2.0597,0.2121 -2.5815,-0.6918 -0.5218,-0.9038 -0.2121,-2.0596 0.6917,-2.5814 z" clip-path="url(#1681977881237-clipPath1)" id="path145" ns2:connector-curvature="0" style="fill:#f0abfc;stroke:none" />
    </g>
    <g id="g153" style="text-rendering:geometricPrecision;fill:#f0abfc;stroke:none">
      <path d="m 191.3025,321.9739 v 0 l -8e-4,-65.6216 c 0,-1.0437 0.846,-1.8897 1.8897,-1.8898 1.0437,0 1.8898,0.8461 1.8898,1.8898 v 0 l 8e-4,65.6216 c 1e-4,1.0437 -0.846,1.8898 -1.8897,1.8898 -1.0437,0 -1.8898,-0.8461 -1.8898,-1.8898 z" clip-path="url(#16819778818-clipPath1)" id="path149" ns2:connector-curvature="0" style="stroke:none" />
      <path d="m 191.3025,321.9739 v 0 l -8e-4,-65.6216 c 0,-1.0437 0.846,-1.8897 1.8897,-1.8898 1.0437,0 1.8898,0.8461 1.8898,1.8898 v 0 l 8e-4,65.6216 c 1e-4,1.0437 -0.846,1.8898 -1.8897,1.8898 -1.0437,0 -1.8898,-0.8461 -1.8898,-1.8898 z" clip-path="url(#1681977881605-clipPath1)" id="path151" ns2:connector-curvature="0" style="fill:#c4b5fd;stroke:none" />
    </g>
    <g id="g159" style="fill:#fda4af;stroke:none;text-rendering:geometricPrecision">
      <path d="m 118.5172,214.3273 v 0 l -58.0276,33.4965 c -0.9039,0.5218 -2.0596,0.212 -2.5814,-0.6919 -0.5218,-0.9039 -0.212,-2.0596 0.6919,-2.5814 v 0 l 58.0275,-33.4966 c 0.9039,-0.5217 2.0597,-0.212 2.5815,0.6919 0.5218,0.9039 0.212,2.0597 -0.6919,2.5815 z" clip-path="url(#16819778818-clipPath1)" id="path155" ns2:connector-curvature="0" style="stroke:none" />
      <path d="m 118.5172,214.3273 v 0 l -58.0276,33.4965 c -0.9039,0.5218 -2.0596,0.212 -2.5814,-0.6919 -0.5218,-0.9039 -0.212,-2.0596 0.6919,-2.5814 v 0 l 58.0275,-33.4966 c 0.9039,-0.5217 2.0597,-0.212 2.5815,0.6919 0.5218,0.9039 0.212,2.0597 -0.6919,2.5815 z" clip-path="url(#1681977881325-clipPath1)" id="path157" ns2:connector-curvature="0" style="fill:#f0abfc;stroke:none" />
    </g>
    <g id="g165" style="text-rendering:geometricPrecision;fill:#f0abfc;stroke:none">
      <path d="m 43.8524,278.7722 v 0 l -0.0032,64.8748 c 0,1.0436 -0.8461,1.8897 -1.8898,1.8897 -1.0437,-10e-5 -1.8897,-0.8462 -1.8897,-1.8899 v 0 l 0.0031,-64.8748 c 10e-5,-1.0437 0.8462,-1.8898 1.8899,-1.8897 1.0437,1e-4 1.8897,0.8462 1.8897,1.8899 z" clip-path="url(#16819778818-clipPath1)" id="path161" ns2:connector-curvature="0" style="stroke:none" />
      <path d="m 43.8524,278.7722 v 0 l -0.0032,64.8748 c 0,1.0436 -0.8461,1.8897 -1.8898,1.8897 -1.0437,-10e-5 -1.8897,-0.8462 -1.8897,-1.8899 v 0 l 0.0031,-64.8748 c 10e-5,-1.0437 0.8462,-1.8898 1.8899,-1.8897 1.0437,1e-4 1.8897,0.8462 1.8897,1.8899 z" clip-path="url(#1681977881961-clipPath1)" id="path163" ns2:connector-curvature="0" style="fill:#fda4af;stroke:none" />
    </g>
    <g font-size="31px" transform="translate(710.9192,194.1823)" id="g169" style="font-size:31px;font-family:sans-serif;fill:#c4b5fd;stroke:none;text-rendering:geometricPrecision">
      <text x="0" xml:space="preserve" y="29" clip-path="url(#1681977881987-clipPath1)" id="text167" style="stroke:none">NH</text>
    </g>
    <g font-size="24px" transform="translate(753.6379,209.7005)" id="g173" style="font-size:24px;font-family:sans-serif;fill:#c4b5fd;stroke:none;text-rendering:geometricPrecision">
      <text x="0" xml:space="preserve" y="23" clip-path="url(#1681977881917-clipPath1)" id="text171" style="stroke:none">2</text>
    </g>
    <g font-size="31px" transform="translate(408.055,106.8761)" id="g177" style="font-size:31px;font-family:sans-serif;fill:#fda4af;stroke:none;text-rendering:geometricPrecision">
      <text x="0" xml:space="preserve" y="29" clip-path="url(#1681977881422-clipPath1)" id="text175" style="stroke:none">O</text>
    </g>
    <g font-size="31px" transform="translate(408.055,456.1198)" id="g181" style="font-size:31px;font-family:sans-serif;fill:#fda4af;stroke:none;text-rendering:geometricPrecision">
      <text x="0" xml:space="preserve" y="29" clip-path="url(#168197788145-clipPath1)" id="text179" style="stroke:none">O</text>
    </g>
    <g font-size="31px" transform="translate(258.8497,368.8099)" id="g185" style="font-size:31px;font-family:sans-serif;fill:#bef264;stroke:none;text-rendering:geometricPrecision">
      <text x="0" xml:space="preserve" y="29" clip-path="url(#1681977881204-clipPath1)" id="text183" style="stroke:none">S</text>
    </g>
    <g font-size="31px" transform="translate(181.6457,325.1541)" id="g189" style="font-size:31px;font-family:sans-serif;fill:#c4b5fd;stroke:none;text-rendering:geometricPrecision">
      <text x="0" xml:space="preserve" y="29" clip-path="url(#1681977881597-clipPath1)" id="text187" style="stroke:none">N</text>
    </g>
    <g font-size="31px" transform="translate(30.0027,237.8359)" id="g193" style="font-size:31px;font-family:sans-serif;fill:#fda4af;stroke:none;text-rendering:geometricPrecision">
      <text x="0" xml:space="preserve" y="29" clip-path="url(#168197788186-clipPath1)" id="text191" style="stroke:none">O</text>
    </g>
  </g>
</svg>