<?xml version='1.0' encoding='utf-8'?>
<svg xmlns="http://www.w3.org/2000/svg" xmlns:dc="http://purl.org/dc/elements/1.1/" xmlns:ns1="http://www.inkscape.org/namespaces/inkscape" xmlns:ns2="http://sodipodi.sourceforge.net/DTD/sodipodi-0.dtd" xmlns:ns4="http://creativecommons.org/ns#" xmlns:rdf="http://www.w3.org/1999/02/22-rdf-syntax-ns#" width="722.39172" stroke-miterlimit="10" font-weight="normal" height="543.19611" font-style="normal" font-size="12px" id="svg2" version="1.1" ns1:version="0.91 r13725" ns2:docname="2C-TFM.svg" style="font-style:normal;font-weight:normal;font-size:12px;font-family:Dialog;color-interpolation:auto;fill:#f5d0fe;fill-opacity:1;stroke:none;stroke:none;stroke:none;stroke:none;stroke:none;stroke:none;stroke:none;stroke:none;color-rendering:auto;image-rendering:auto;shape-rendering:auto;text-rendering:auto">
  <metadata id="metadata184">
    <rdf:RDF>
      <ns4:Work rdf:about="">
        <dc:format>image/svg+xml</dc:format>
        <dc:type rdf:resource="http://purl.org/dc/dcmitype/StillImage" />
        <dc:title />
      </ns4:Work>
    </rdf:RDF>
  </metadata>
  <ns2:namedview pagecolor="#eef2ff" bordercolor="#666666" borderopacity="1" objecttolerance="10" gridtolerance="10" guidetolerance="10" ns1:pageopacity="0" ns1:pageshadow="2" ns1:window-width="1060" ns1:window-height="480" id="namedview182" showgrid="false" fit-margin-top="10" fit-margin-left="10" fit-margin-right="10" fit-margin-bottom="10" ns1:zoom="0.36375" ns1:cx="361.1958" ns1:cy="271.59803" ns1:window-x="0" ns1:window-y="0" ns1:window-maximized="0" ns1:current-layer="svg2" />
  
  <defs id="genericDefs" />
  <g id="g5" transform="translate(-38.8042,-28.401942)" style="fill:#f5d0fe;stroke:none">
    <defs id="1510602990986-defs1">
      <clipPath clipPathUnits="userSpaceOnUse" id="1510602990403-clipPath1">
        <path d="M 0,0 800,0 800,600 0,600 0,0 Z" id="path9" ns1:connector-curvature="0" style="stroke:none" />
      </clipPath>
      <clipPath clipPathUnits="userSpaceOnUse" id="1510602990838-clipPath1">
        <path d="m 604.9474,205.7351 c -22.9257,0 -41.5106,18.585 -41.5106,41.5107 0,22.9257 18.5849,41.5106 41.5106,41.5106 22.9257,0 41.5107,-18.5849 41.5107,-41.5106 0,-22.9257 -18.585,-41.5107 -41.5107,-41.5107 z" id="path12" ns1:connector-curvature="0" style="stroke:none" />
      </clipPath>
      <clipPath clipPathUnits="userSpaceOnUse" id="1510602990191-clipPath1">
        <path d="m 330.7094,155.4251 c -21.5532,0 -39.0254,17.4723 -39.0254,39.0254 0,21.5532 17.4722,39.0255 39.0254,39.0255 21.5531,0 39.0254,-17.4723 39.0254,-39.0255 0,-21.5531 -17.4723,-39.0254 -39.0254,-39.0254 z" id="path15" ns1:connector-curvature="0" style="stroke:none" />
      </clipPath>
      <clipPath clipPathUnits="userSpaceOnUse" id="1510602990923-clipPath1">
        <path d="m 330.7141,366.1848 c -21.7431,0 -39.3693,17.6262 -39.3693,39.3692 0,21.7431 17.6262,39.3693 39.3693,39.3693 21.743,0 39.3692,-17.6262 39.3692,-39.3693 0,-21.743 -17.6262,-39.3692 -39.3692,-39.3692 z" id="path18" ns1:connector-curvature="0" style="stroke:none" />
      </clipPath>
      <clipPath clipPathUnits="userSpaceOnUse" id="1510602990880-clipPath1">
        <path d="m 309.2883,40.6918 c -19.7903,0 -35.8335,16.0432 -35.8335,35.8335 0,19.7903 16.0432,35.8335 35.8335,35.8335 19.7903,0 35.8335,-16.0432 35.8335,-35.8335 0,-19.7903 -16.0432,-35.8335 -35.8335,-35.8335 z" id="path21" ns1:connector-curvature="0" style="stroke:none" />
      </clipPath>
      <clipPath clipPathUnits="userSpaceOnUse" id="1510602990287-clipPath1">
        <path d="m 352.3712,487.9097 c -19.7171,0 -35.7009,15.9839 -35.7009,35.701 0,19.717 15.9838,35.7009 35.7009,35.7009 19.7171,0 35.7009,-15.9839 35.7009,-35.7009 0,-19.7171 -15.9838,-35.701 -35.7009,-35.701 z" id="path24" ns1:connector-curvature="0" style="stroke:none" />
      </clipPath>
      <clipPath clipPathUnits="userSpaceOnUse" id="1510602990326-clipPath1">
        <path d="m 147.8869,362.4385 c -23.8131,0 -43.1174,19.3044 -43.1174,43.1174 0,23.8131 19.3043,43.1174 43.1174,43.1174 23.8131,0 43.1174,-19.3043 43.1174,-43.1174 0,-23.813 -19.3043,-43.1174 -43.1174,-43.1174 z" id="path27" ns1:connector-curvature="0" style="stroke:none" />
      </clipPath>
      <clipPath clipPathUnits="userSpaceOnUse" id="1510602990115-clipPath1">
        <path d="m 147.8869,362.4386 c -23.813,0 -43.1173,19.3043 -43.1173,43.1173 0,23.8131 19.3043,43.1173 43.1173,43.1173 23.813,0 43.1173,-19.3042 43.1173,-43.1173 0,-23.813 -19.3043,-43.1173 -43.1173,-43.1173 z" id="path30" ns1:connector-curvature="0" style="stroke:none" />
      </clipPath>
      <clipPath clipPathUnits="userSpaceOnUse" id="1510602990698-clipPath1">
        <path d="m 147.8869,365.9337 c -21.8828,0 -39.6223,17.7395 -39.6223,39.6222 0,21.8828 17.7395,39.6223 39.6223,39.6223 21.8828,0 39.6223,-17.7395 39.6223,-39.6223 0,-21.8827 -17.7395,-39.6222 -39.6223,-39.6222 z" id="path33" ns1:connector-curvature="0" style="stroke:none" />
      </clipPath>
      <clipPath clipPathUnits="userSpaceOnUse" id="1510602990672-clipPath1">
        <path d="m -316.3758,-489.1049 800,0 0,600 -800,0 0,-600 z" id="path36" ns1:connector-curvature="0" style="stroke:none" />
      </clipPath>
      <clipPath clipPathUnits="userSpaceOnUse" id="1510602990541-clipPath1">
        <path d="m -316.3815,-66.8996 800,0 0,599.9999 -800,0 0,-599.9999 z" id="path39" ns1:connector-curvature="0" style="stroke:none" />
      </clipPath>
      <clipPath clipPathUnits="userSpaceOnUse" id="1510602990775-clipPath1">
        <path d="m -683.3677,-172.4751 800,0 0,600 -800,0 0,-600 z" id="path42" ns1:connector-curvature="0" style="stroke:none" />
      </clipPath>
      <clipPath clipPathUnits="userSpaceOnUse" id="1510602990631-clipPath1">
        <path d="m -733.2271,-191.6598 800,0 0,599.9999 -800,0 0,-599.9999 z" id="path45" ns1:connector-curvature="0" style="stroke:none" />
      </clipPath>
      <clipPath clipPathUnits="userSpaceOnUse" id="1510602990982-clipPath1">
        <path d="m -137.7172,-489.1068 800,0 0,600 -800,0 0,-600 z" id="path48" ns1:connector-curvature="0" style="stroke:none" />
      </clipPath>
      <clipPath clipPathUnits="userSpaceOnUse" id="1510602990209-clipPath1">
        <path d="m -46.3042,-330.7824 800.0001,0 0,600 -800.0001,0 0,-600 z" id="path51" ns1:connector-curvature="0" style="stroke:none" />
      </clipPath>
      <clipPath clipPathUnits="userSpaceOnUse" id="1510602990717-clipPath1">
        <path d="m -46.3053,-436.3314 800,0 0,600 -800,0 0,-600 z" id="path54" ns1:connector-curvature="0" style="stroke:none" />
      </clipPath>
    </defs>
    <g id="g56" style="text-rendering:geometricPrecision;fill:#f5d0fe;stroke:none">
      <path d="m 237.0109,352.7786 c 0,1.262 1.0226,2.2846 2.2846,2.2846 1.262,0 2.2847,-1.0226 2.2847,-2.2846 l 0,-105.5637 c 0,-1.262 -1.0227,-2.2846 -2.2847,-2.2846 -1.262,0 -2.2846,1.0226 -2.2846,2.2846 z m 19.0387,-13.2772 c 0,1.262 1.0226,2.2846 2.2847,2.2846 1.262,0 2.2846,-1.0226 2.2846,-2.2846 l 0,-79.0084 c 0,-1.262 -1.0226,-2.2847 -2.2846,-2.2847 -1.2621,0 -2.2847,1.0227 -2.2847,2.2847 z" clip-path="url(#1510602990403-clipPath1)" id="path58" ns1:connector-curvature="0" style="stroke:none" />
    </g>
    <g id="g60" style="text-rendering:geometricPrecision;fill:#f5d0fe;stroke:none">
      <path d="m 331.5511,380.45 c -1.093,0.6309 -1.4675,2.0278 -0.8365,3.1208 0.6309,1.093 2.0277,1.4674 3.1208,0.8365 l 68.4116,-39.4896 c 1.093,-0.631 1.4674,-2.0278 0.8365,-3.1208 -0.631,-1.093 -2.0278,-1.4674 -3.1208,-0.8365 z m -1.9792,23.1254 c -1.093,0.6309 -1.4674,2.0278 -0.8365,3.1208 0.6309,1.093 2.0278,1.4674 3.1208,0.8365 l 91.4075,-52.7637 c 1.093,-0.6309 1.4674,-2.0278 0.8365,-3.1208 -0.6309,-1.093 -2.0278,-1.4674 -3.1208,-0.8365 z" clip-path="url(#1510602990403-clipPath1)" id="path62" ns1:connector-curvature="0" style="stroke:none" />
    </g>
    <g id="g64" style="text-rendering:geometricPrecision;fill:#f5d0fe;stroke:none">
      <path d="m 424.4062,352.7905 0.006,-105.5541 c 1e-4,-1.262 -1.0225,-2.2847 -2.2845,-2.2847 -1.262,-10e-5 -2.2847,1.0224 -2.2848,2.2844 l -0.006,105.5542 c 0,1.2619 1.0225,2.2846 2.2845,2.2847 1.262,1e-4 2.2847,-1.0225 2.2848,-2.2845 z" clip-path="url(#1510602990403-clipPath1)" id="path66" ns1:connector-curvature="0" style="stroke:none" />
    </g>
    <g id="g68" style="text-rendering:geometricPrecision;fill:#f5d0fe;stroke:none">
      <path d="m 399.9677,259.0635 c 1.0928,0.631 2.4898,0.2568 3.1208,-0.8361 0.6311,-1.0929 0.2568,-2.4899 -0.8361,-3.1209 L 333.8286,215.598 c -1.0929,-0.631 -2.4898,-0.2568 -3.1209,0.8361 -0.631,1.0929 -0.2568,2.4899 0.8361,3.1209 z m 21.0178,-9.8487 c 1.093,0.631 2.4899,0.2568 3.1209,-0.8361 0.6311,-1.0929 0.2569,-2.4899 -0.8361,-3.1209 L 331.8518,192.472 c -1.0929,-0.631 -2.4899,-0.2568 -3.1209,0.8361 -0.631,1.0929 -0.2568,2.4899 0.8361,3.1209 z" clip-path="url(#1510602990403-clipPath1)" id="path70" ns1:connector-curvature="0" style="stroke:none" />
    </g>
    <g id="g72" style="text-rendering:geometricPrecision;fill:#f5d0fe;stroke:none">
      <path d="m 238.1533,354.7572 91.4185,52.7754 c 1.093,0.631 2.4899,0.2566 3.1209,-0.8363 0.6309,-1.093 0.2566,-2.4899 -0.8364,-3.1209 L 240.4378,350.8 c -1.093,-0.631 -2.4899,-0.2566 -3.1209,0.8364 -0.6309,1.0929 -0.2566,2.4898 0.8364,3.1208 z" clip-path="url(#1510602990403-clipPath1)" id="path74" ns1:connector-curvature="0" style="stroke:none" />
    </g>
    <g id="g76" style="text-rendering:geometricPrecision;fill:#f5d0fe;stroke:none">
      <path d="m 329.5673,192.4718 -91.4139,52.7644 c -1.093,0.6309 -1.4674,2.0278 -0.8366,3.1208 0.6309,1.093 2.0278,1.4675 3.1208,0.8366 l 91.4139,-52.7644 c 1.093,-0.6309 1.4674,-2.0278 0.8365,-3.1208 -0.6308,-1.093 -2.0277,-1.4674 -3.1207,-0.8366 z" clip-path="url(#1510602990403-clipPath1)" id="path78" ns1:connector-curvature="0" style="stroke:none" />
    </g>
    <g id="g80" style="text-rendering:geometricPrecision;fill:#f5d0fe;stroke:none">
      <path d="m 423.2701,249.2149 91.4125,-52.7707 c 1.093,-0.631 1.4674,-2.0279 0.8364,-3.1208 -0.6309,-1.093 -2.0279,-1.4674 -3.1208,-0.8364 l -91.4125,52.7707 c -1.0929,0.6309 -1.4673,2.0278 -0.8364,3.1208 0.631,1.093 2.0279,1.4673 3.1208,0.8364 z" clip-path="url(#1510602990403-clipPath1)" id="path82" ns1:connector-curvature="0" style="stroke:none" />
    </g>
    <g id="g84" style="text-rendering:geometricPrecision;fill:#f5d0fe;stroke:none">
      <path d="m 512.398,196.4441 91.407,52.7801 c 1.0929,0.6311 2.4899,0.2569 3.1209,-0.836 0.6311,-1.0929 0.2568,-2.4899 -0.8361,-3.1209 l -91.4069,-52.7802 c -1.093,-0.6311 -2.4899,-0.2568 -3.121,0.8361 -0.631,1.0929 -0.2568,2.4898 0.8361,3.1209 z" clip-path="url(#1510602990403-clipPath1)" id="path86" ns1:connector-curvature="0" style="stroke:none" />
    </g>
    <g id="g88" style="fill:#c4b5fd;stroke:none;text-rendering:geometricPrecision">
      <path d="m 606.0897,249.2244 71.9007,-41.507 c 1.0929,-0.6309 1.4673,-2.0278 0.8364,-3.1208 -0.631,-1.093 -2.0278,-1.4673 -3.1209,-0.8364 l -71.9007,41.507 c -1.093,0.6309 -1.4673,2.0278 -0.8364,3.1208 0.631,1.0929 2.0278,1.4673 3.1209,0.8364 z" clip-path="url(#1510602990403-clipPath1)" id="path90" ns1:connector-curvature="0" style="stroke:none" />
      <path d="m 606.0897,249.2244 71.9007,-41.507 c 1.0929,-0.6309 1.4673,-2.0278 0.8364,-3.1208 -0.631,-1.093 -2.0278,-1.4673 -3.1209,-0.8364 l -71.9007,41.507 c -1.093,0.6309 -1.4673,2.0278 -0.8364,3.1208 0.631,1.0929 2.0278,1.4673 3.1209,0.8364 z" clip-path="url(#1510602990838-clipPath1)" id="path92" ns1:connector-curvature="0" style="fill:#f5d0fe;stroke:none" />
    </g>
    <g id="g94" style="fill:#fda4af;stroke:none;text-rendering:geometricPrecision">
      <path d="M 332.994,194.4507 333,116.3998 c 10e-5,-1.262 -1.0224,-2.2847 -2.2845,-2.2848 -1.262,-10e-5 -2.2847,1.0225 -2.2848,2.2845 l -0.006,78.0508 c -10e-5,1.2621 1.0224,2.2847 2.2844,2.2849 1.262,0 2.2847,-1.0225 2.2848,-2.2845 z" clip-path="url(#1510602990403-clipPath1)" id="path96" ns1:connector-curvature="0" style="stroke:none" />
      <path d="M 332.994,194.4507 333,116.3998 c 10e-5,-1.262 -1.0224,-2.2847 -2.2845,-2.2848 -1.262,-10e-5 -2.2847,1.0225 -2.2848,2.2845 l -0.006,78.0508 c -10e-5,1.2621 1.0224,2.2847 2.2844,2.2849 1.262,0 2.2847,-1.0225 2.2848,-2.2845 z" clip-path="url(#1510602990191-clipPath1)" id="path98" ns1:connector-curvature="0" style="fill:#f5d0fe;stroke:none" />
    </g>
    <g id="g100" style="fill:#fda4af;stroke:none;text-rendering:geometricPrecision">
      <path d="m 328.4294,405.554 -0.002,78.7384 c 0,1.2621 1.0226,2.2847 2.2846,2.2847 1.262,1e-4 2.2846,-1.0225 2.2846,-2.2845 l 0.002,-78.7385 c 0,-1.262 -1.0226,-2.2847 -2.2846,-2.2847 -1.262,0 -2.2846,1.0226 -2.2847,2.2846 z" clip-path="url(#1510602990403-clipPath1)" id="path102" ns1:connector-curvature="0" style="stroke:none" />
      <path d="m 328.4294,405.554 -0.002,78.7384 c 0,1.2621 1.0226,2.2847 2.2846,2.2847 1.262,1e-4 2.2846,-1.0225 2.2846,-2.2845 l 0.002,-78.7385 c 0,-1.262 -1.0226,-2.2847 -2.2846,-2.2847 -1.262,0 -2.2846,1.0226 -2.2847,2.2846 z" clip-path="url(#1510602990923-clipPath1)" id="path104" ns1:connector-curvature="0" style="fill:#f5d0fe;stroke:none" />
    </g>
    <g id="g106" style="text-rendering:geometricPrecision;fill:#f5d0fe;stroke:none">
      <path d="M 310.4308,74.5468 248.3681,38.7086 c -1.0929,-0.6311 -2.4898,-0.2569 -3.121,0.836 -0.631,1.0929 -0.2569,2.4898 0.836,3.1209 l 62.0627,35.8383 c 1.0929,0.6311 2.4899,0.2569 3.121,-0.836 0.631,-1.0929 0.2569,-2.4899 -0.836,-3.121 z" clip-path="url(#1510602990403-clipPath1)" id="path108" ns1:connector-curvature="0" style="stroke:none" />
      <path d="M 310.4308,74.5468 248.3681,38.7086 c -1.0929,-0.6311 -2.4898,-0.2569 -3.121,0.836 -0.631,1.0929 -0.2569,2.4898 0.836,3.1209 l 62.0627,35.8383 c 1.0929,0.6311 2.4899,0.2569 3.121,-0.836 0.631,-1.0929 0.2569,-2.4899 -0.836,-3.121 z" clip-path="url(#1510602990880-clipPath1)" id="path110" ns1:connector-curvature="0" style="fill:#fda4af;stroke:none" />
    </g>
    <g id="g112" style="text-rendering:geometricPrecision;fill:#f5d0fe;stroke:none">
      <path d="m 351.2289,525.5892 61.835,35.7022 c 1.0929,0.6311 2.4898,0.2568 3.1209,-0.8361 0.631,-1.0929 0.2567,-2.4898 -0.8362,-3.1209 l -61.8351,-35.7023 c -1.0928,-0.631 -2.4898,-0.2567 -3.1208,0.8362 -0.631,1.0929 -0.2568,2.4898 0.8362,3.1209 z" clip-path="url(#1510602990403-clipPath1)" id="path114" ns1:connector-curvature="0" style="stroke:none" />
      <path d="m 351.2289,525.5892 61.835,35.7022 c 1.0929,0.6311 2.4898,0.2568 3.1209,-0.8361 0.631,-1.0929 0.2567,-2.4898 -0.8362,-3.1209 l -61.8351,-35.7023 c -1.0928,-0.631 -2.4898,-0.2567 -3.1208,0.8362 -0.631,1.0929 -0.2568,2.4898 0.8362,3.1209 z" clip-path="url(#1510602990287-clipPath1)" id="path116" ns1:connector-curvature="0" style="fill:#fda4af;stroke:none" />
    </g>
    <g id="g118" style="text-rendering:geometricPrecision;fill:#f5d0fe;stroke:none">
      <path d="m 238.1532,350.8 -91.4087,52.7774 c -1.0929,0.631 -1.4672,2.028 -0.8361,3.1209 0.631,1.0929 2.0279,1.4672 3.1208,0.8362 l 91.4087,-52.7774 c 1.0929,-0.631 1.4672,-2.0279 0.8361,-3.1209 -0.631,-1.0929 -2.0279,-1.4672 -3.1208,-0.8362 z" clip-path="url(#1510602990403-clipPath1)" id="path120" ns1:connector-curvature="0" style="stroke:none" />
    </g>
    <g id="g122" style="fill:#fbbf24;stroke:none;text-rendering:geometricPrecision">
      <path d="M 149.0292,403.5774 74.3467,360.4615 c -1.0929,-0.631 -2.4898,-0.2566 -3.1208,0.8363 -0.631,1.093 -0.2567,2.4899 0.8363,3.1209 l 74.6824,43.1158 c 1.093,0.631 2.4899,0.2567 3.1208,-0.8363 0.631,-1.0929 0.2567,-2.4899 -0.8362,-3.1208 z" clip-path="url(#1510602990403-clipPath1)" id="path124" ns1:connector-curvature="0" style="stroke:none" />
      <path d="M 149.0292,403.5774 74.3467,360.4615 c -1.0929,-0.631 -2.4898,-0.2566 -3.1208,0.8363 -0.631,1.093 -0.2567,2.4899 0.8363,3.1209 l 74.6824,43.1158 c 1.093,0.631 2.4899,0.2567 3.1208,-0.8363 0.631,-1.0929 0.2567,-2.4899 -0.8362,-3.1208 z" clip-path="url(#1510602990326-clipPath1)" id="path126" ns1:connector-curvature="0" style="fill:#f5d0fe;stroke:none" />
    </g>
    <g id="g128" style="fill:#fbbf24;stroke:none;text-rendering:geometricPrecision">
      <path d="m 146.7446,403.5774 -74.6814,43.1173 c -1.0929,0.631 -1.4672,2.0279 -0.8362,3.1209 0.631,1.0929 2.0279,1.4672 3.1208,0.8362 l 74.6814,-43.1173 c 1.0929,-0.631 1.4672,-2.0279 0.8362,-3.1209 -0.631,-1.0929 -2.0279,-1.4672 -3.1208,-0.8362 z" clip-path="url(#1510602990403-clipPath1)" id="path130" ns1:connector-curvature="0" style="stroke:none" />
      <path d="m 146.7446,403.5774 -74.6814,43.1173 c -1.0929,0.631 -1.4672,2.0279 -0.8362,3.1209 0.631,1.0929 2.0279,1.4672 3.1208,0.8362 l 74.6814,-43.1173 c 1.0929,-0.631 1.4672,-2.0279 0.8362,-3.1209 -0.631,-1.0929 -2.0279,-1.4672 -3.1208,-0.8362 z" clip-path="url(#1510602990115-clipPath1)" id="path132" ns1:connector-curvature="0" style="fill:#f5d0fe;stroke:none" />
    </g>
    <g id="g134" style="fill:#fbbf24;stroke:none;text-rendering:geometricPrecision">
      <path d="m 145.6022,405.556 0.002,79.2445 c 0,1.2621 1.0227,2.2846 2.2847,2.2846 1.262,0 2.2846,-1.0226 2.2846,-2.2847 l -0.002,-79.2445 c 0,-1.262 -1.0227,-2.2846 -2.2847,-2.2846 -1.262,0 -2.2846,1.0227 -2.2846,2.2847 z" clip-path="url(#1510602990403-clipPath1)" id="path136" ns1:connector-curvature="0" style="stroke:none" />
      <path d="m 145.6022,405.556 0.002,79.2445 c 0,1.2621 1.0227,2.2846 2.2847,2.2846 1.262,0 2.2846,-1.0226 2.2846,-2.2847 l -0.002,-79.2445 c 0,-1.262 -1.0227,-2.2846 -2.2847,-2.2846 -1.262,0 -2.2846,1.0227 -2.2846,2.2847 z" clip-path="url(#1510602990698-clipPath1)" id="path138" ns1:connector-curvature="0" style="fill:#f5d0fe;stroke:none" />
    </g>
    <g id="g140" style="fill:#eef2ff;stroke:none;text-rendering:geometricPrecision">
      </g>
    <g font-size="37px" transform="translate(316.3758,489.1049)" id="g144" style="font-size:37px;font-family:sans-serif;fill:#fda4af;stroke:none;text-rendering:geometricPrecision">
      <text x="0" xml:space="preserve" y="36" clip-path="url(#1510602990672-clipPath1)" id="text146" style="stroke:none">O</text>
    </g>
    <g font-size="37px" id="g148" style="font-size:37px;font-family:sans-serif;fill:#eef2ff;stroke:none;text-rendering:geometricPrecision">
      <text x="0" y="36" transform="translate(316.3815,66.8996)" clip-path="url(#1510602990541-clipPath1)" xml:space="preserve" id="text152" style="fill:#fda4af;stroke:none">O</text>
    </g>
    <g font-size="37px" id="g154" style="font-size:37px;font-family:sans-serif;fill:#eef2ff;stroke:none;text-rendering:geometricPrecision">
      <text x="0" y="36" transform="translate(683.3677,172.4751)" clip-path="url(#1510602990775-clipPath1)" xml:space="preserve" id="text158" style="fill:#c4b5fd;stroke:none">NH</text>
    </g>
    <g font-size="30px" transform="translate(733.2271,191.6598)" id="g160" style="font-size:30px;font-family:sans-serif;fill:#c4b5fd;stroke:none;text-rendering:geometricPrecision">
      <text x="0" xml:space="preserve" y="29" clip-path="url(#1510602990631-clipPath1)" id="text162" style="stroke:none">2</text>
    </g>
    <g font-size="30px" id="g164" style="font-size:30px;font-family:sans-serif;fill:#eef2ff;stroke:none;text-rendering:geometricPrecision">
      <text x="0" font-size="37px" y="36" transform="translate(137.7172,489.1068)" clip-path="url(#1510602990982-clipPath1)" xml:space="preserve" id="text168" style="font-size:37px;fill:#fbbf24;stroke:none">F</text>
    </g>
    <g font-size="37px" id="g170" style="font-size:37px;font-family:sans-serif;fill:#eef2ff;stroke:none;text-rendering:geometricPrecision">
      <text x="0" y="36" transform="translate(46.3042,330.7824)" clip-path="url(#1510602990209-clipPath1)" xml:space="preserve" id="text174" style="fill:#fbbf24;stroke:none">F</text>
    </g>
    <g font-size="37px" id="g176" style="font-size:37px;font-family:sans-serif;fill:#eef2ff;stroke:none;text-rendering:geometricPrecision">
      <text x="0" y="36" transform="translate(46.3053,436.3314)" clip-path="url(#1510602990717-clipPath1)" xml:space="preserve" id="text180" style="fill:#fbbf24;stroke:none">F</text>
    </g>
  </g>
</svg>