<?xml version='1.0' encoding='utf-8'?>
<svg xmlns="http://www.w3.org/2000/svg" xmlns:dc="http://purl.org/dc/elements/1.1/" xmlns:ns1="http://www.inkscape.org/namespaces/inkscape" xmlns:ns2="http://sodipodi.sourceforge.net/DTD/sodipodi-0.dtd" xmlns:ns4="http://creativecommons.org/ns#" xmlns:rdf="http://www.w3.org/1999/02/22-rdf-syntax-ns#" width="744.43585" stroke-miterlimit="10" font-weight="normal" height="284.76184" font-style="normal" font-size="12px" id="svg2" version="1.1" ns1:version="0.91 r13725" ns2:docname="3-FEA.svg" style="font-style:normal;font-weight:normal;font-size:12px;font-family:Dialog;color-interpolation:auto;fill:#f0abfc;fill-opacity:1;stroke:none;stroke:none;stroke:none;stroke:none;stroke:none;stroke:none;stroke:none;stroke:none;color-rendering:auto;image-rendering:auto;shape-rendering:auto;text-rendering:auto">
  <metadata id="metadata107">
    <rdf:RDF>
      <ns4:Work rdf:about="">
        <dc:format>image/svg+xml</dc:format>
        <dc:type rdf:resource="http://purl.org/dc/dcmitype/StillImage" />
        <dc:title />
      </ns4:Work>
    </rdf:RDF>
  </metadata>
  <ns2:namedview pagecolor="#eef2ff" bordercolor="#666666" borderopacity="1" objecttolerance="10" gridtolerance="10" guidetolerance="10" ns1:pageopacity="0" ns1:pageshadow="2" ns1:window-width="1060" ns1:window-height="480" id="namedview105" showgrid="false" fit-margin-top="10" fit-margin-left="10" fit-margin-right="10" fit-margin-bottom="10" ns1:zoom="0.36375" ns1:cx="372.3782" ns1:cy="142.22064" ns1:window-x="0" ns1:window-y="0" ns1:window-maximized="0" ns1:current-layer="svg2" />
  
  <defs id="genericDefs" />
  <g id="g5" transform="translate(-27.6218,-157.4588)" style="fill:#f0abfc;stroke:none">
    <defs id="1252817295812-defs1">
      <clipPath clipPathUnits="userSpaceOnUse" id="1252817295397-clipPath1">
        <path d="M 0,0 800,0 800,600 0,600 0,0 Z" id="path9" ns1:connector-curvature="0" style="stroke:none" />
      </clipPath>
      <clipPath clipPathUnits="userSpaceOnUse" id="1252817295329-clipPath1">
        <path d="m 496.6732,232.4447 c -22.7026,0 -41.1066,18.4041 -41.1066,41.1066 0,22.7026 18.404,41.1066 41.1066,41.1066 22.7025,0 41.1066,-18.404 41.1066,-41.1066 0,-22.7025 -18.4041,-41.1066 -41.1066,-41.1066 z" id="path12" ns1:connector-curvature="0" style="stroke:none" />
      </clipPath>
      <clipPath clipPathUnits="userSpaceOnUse" id="1252817295363-clipPath1">
        <path d="m 135.4022,230.8562 c -23.563,0 -42.6647,19.1016 -42.6647,42.6647 0,23.563 19.1017,42.6647 42.6647,42.6647 23.5631,0 42.6647,-19.1017 42.6647,-42.6647 0,-23.5631 -19.1016,-42.6647 -42.6647,-42.6647 z" id="path15" ns1:connector-curvature="0" style="stroke:none" />
      </clipPath>
      <clipPath clipPathUnits="userSpaceOnUse" id="1252817295765-clipPath1">
        <path d="m 606.106,191.3442 c -22.7024,0 -41.1064,18.404 -41.1064,41.1064 0,22.7025 18.404,41.1064 41.1064,41.1064 22.7025,0 41.1064,-18.4039 41.1064,-41.1064 0,-22.7024 -18.4039,-41.1064 -41.1064,-41.1064 z" id="path18" ns1:connector-curvature="0" style="stroke:none" />
      </clipPath>
      <clipPath clipPathUnits="userSpaceOnUse" id="1252817295985-clipPath1">
        <path d="m -573.2726,-162.1678 799.9999,0 0,600 -799.9999,0 0,-600 z" id="path21" ns1:connector-curvature="0" style="stroke:none" />
      </clipPath>
      <clipPath clipPathUnits="userSpaceOnUse" id="1252817295982-clipPath1">
        <path d="m -573.2717,-199.4129 800,0 0,600 -800,0 0,-600 z" id="path24" ns1:connector-curvature="0" style="stroke:none" />
      </clipPath>
      <clipPath clipPathUnits="userSpaceOnUse" id="1252817295453-clipPath1">
        <path d="m -35.1218,-199.3728 800,0 0,600 -800,0 0,-600 z" id="path27" ns1:connector-curvature="0" style="stroke:none" />
      </clipPath>
    </defs>
    <g id="g29" style="text-rendering:geometricPrecision;fill:#f0abfc;stroke:none">
      <path d="m 133.145,377.8198 c 0,1.2469 1.0103,2.2572 2.2572,2.2572 1.2469,0 2.2573,-1.0103 2.2573,-2.2572 l 0,-104.2989 c 0,-1.2469 -1.0104,-2.2573 -2.2573,-2.2573 -1.2469,0 -2.2572,1.0104 -2.2572,2.2573 z m 18.8106,-13.1181 c 0,1.2468 1.0104,2.2572 2.2573,2.2572 1.2469,0 2.2572,-1.0104 2.2572,-2.2572 l 0,-78.0619 c 0,-1.2469 -1.0103,-2.2572 -2.2572,-2.2572 -1.2469,0 -2.2573,1.0103 -2.2573,2.2572 z" clip-path="url(#1252817295397-clipPath1)" id="path31" ns1:connector-curvature="0" style="stroke:none" />
    </g>
    <g id="g33" style="text-rendering:geometricPrecision;fill:#f0abfc;stroke:none">
      <path d="m 226.5524,405.1596 c -1.0799,0.6234 -1.4498,2.0035 -0.8264,3.0834 0.6233,1.0799 2.0035,1.4499 3.0834,0.8265 l 67.5919,-39.0165 c 1.0799,-0.6233 1.4499,-2.0035 0.8265,-3.0834 -0.6234,-1.0799 -2.0035,-1.4498 -3.0834,-0.8264 z m -1.9554,22.8483 c -1.0799,0.6234 -1.4498,2.0035 -0.8265,3.0834 0.6234,1.0799 2.0035,1.4499 3.0834,0.8265 l 90.3123,-52.1315 c 1.0799,-0.6233 1.4499,-2.0035 0.8265,-3.0834 -0.6233,-1.0799 -2.0035,-1.4498 -3.0834,-0.8264 z" clip-path="url(#1252817295397-clipPath1)" id="path35" ns1:connector-curvature="0" style="stroke:none" />
    </g>
    <g id="g37" style="text-rendering:geometricPrecision;fill:#f0abfc;stroke:none">
      <path d="m 318.295,377.8315 0.006,-104.2894 c 0,-1.2469 -1.0103,-2.2573 -2.2572,-2.2574 -1.2469,0 -2.2573,1.0103 -2.2574,2.2571 l -0.006,104.2895 c 0,1.2469 1.0102,2.2573 2.2571,2.2574 1.2469,0 2.2574,-1.0103 2.2574,-2.2572 z" clip-path="url(#1252817295397-clipPath1)" id="path39" ns1:connector-curvature="0" style="stroke:none" />
    </g>
    <g id="g41" style="text-rendering:geometricPrecision;fill:#f0abfc;stroke:none">
      <path d="m 294.1493,285.2275 c 1.0798,0.6235 2.46,0.2537 3.0835,-0.8261 0.6235,-1.0798 0.2537,-2.46 -0.8261,-3.0835 l -67.604,-39.0351 c -1.0798,-0.6235 -2.46,-0.2537 -3.0835,0.8261 -0.6235,1.0798 -0.2537,2.46 0.8261,3.0835 z m 20.7661,-9.7307 c 1.0798,0.6235 2.46,0.2537 3.0835,-0.8261 0.6235,-1.0798 0.2537,-2.46 -0.8261,-3.0835 l -90.3232,-52.1533 c -1.0799,-0.6235 -2.46,-0.2538 -3.0835,0.826 -0.6235,1.0799 -0.2538,2.4601 0.826,3.0836 z" clip-path="url(#1252817295397-clipPath1)" id="path43" ns1:connector-curvature="0" style="stroke:none" />
    </g>
    <g id="g45" style="text-rendering:geometricPrecision;fill:#f0abfc;stroke:none">
      <path d="m 134.2737,379.7746 90.3232,52.1432 c 1.0799,0.6234 2.4601,0.2535 3.0835,-0.8264 0.6234,-1.0798 0.2535,-2.46 -0.8264,-3.0834 l -90.3232,-52.1431 c -1.0799,-0.6234 -2.46,-0.2536 -3.0834,0.8263 -0.6234,1.0799 -0.2536,2.46 0.8263,3.0834 z" clip-path="url(#1252817295397-clipPath1)" id="path47" ns1:connector-curvature="0" style="stroke:none" />
    </g>
    <g id="g49" style="text-rendering:geometricPrecision;fill:#f0abfc;stroke:none">
      <path d="m 224.5924,219.4337 -90.3186,52.1322 c -1.0799,0.6233 -1.4499,2.0035 -0.8265,3.0834 0.6233,1.0799 2.0034,1.4499 3.0834,0.8265 l 90.3186,-52.1322 c 1.0799,-0.6233 1.4498,-2.0034 0.8265,-3.0833 -0.6233,-1.08 -2.0035,-1.4499 -3.0834,-0.8266 z" clip-path="url(#1252817295397-clipPath1)" id="path51" ns1:connector-curvature="0" style="stroke:none" />
    </g>
    <g id="g53" style="text-rendering:geometricPrecision;fill:#f0abfc;stroke:none">
      <path d="m 317.1726,275.4969 90.3173,-52.1385 c 1.0798,-0.6234 1.4497,-2.0035 0.8263,-3.0834 -0.6234,-1.0799 -2.0035,-1.4497 -3.0834,-0.8263 l -90.3172,52.1384 c -1.0799,0.6234 -1.4498,2.0035 -0.8264,3.0834 0.6234,1.0799 2.0035,1.4498 3.0834,0.8264 z" clip-path="url(#1252817295397-clipPath1)" id="path55" ns1:connector-curvature="0" style="stroke:none" />
    </g>
    <g id="g57" style="text-rendering:geometricPrecision;fill:#f0abfc;stroke:none">
      <path d="m 405.2326,223.3583 90.3118,52.1478 c 1.0798,0.6235 2.4601,0.2538 3.0835,-0.826 0.6235,-1.0798 0.2538,-2.46 -0.826,-3.0835 l -90.3118,-52.1478 c -1.0799,-0.6235 -2.46,-0.2538 -3.0835,0.826 -0.6235,1.0798 -0.2538,2.46 0.826,3.0835 z" clip-path="url(#1252817295397-clipPath1)" id="path59" ns1:connector-curvature="0" style="stroke:none" />
    </g>
    <g id="g61" style="fill:#c4b5fd;stroke:none;text-rendering:geometricPrecision">
      <path d="m 497.8017,275.5063 71.2008,-41.103 c 1.0799,-0.6233 1.4498,-2.0035 0.8264,-3.0834 -0.6234,-1.0799 -2.0036,-1.4498 -3.0834,-0.8264 l -71.2009,41.1029 c -1.0798,0.6234 -1.4497,2.0036 -0.8263,3.0835 0.6233,1.0798 2.0035,1.4497 3.0834,0.8264 z" clip-path="url(#1252817295397-clipPath1)" id="path63" ns1:connector-curvature="0" style="stroke:none" />
      <path d="m 497.8017,275.5063 71.2008,-41.103 c 1.0799,-0.6233 1.4498,-2.0035 0.8264,-3.0834 -0.6234,-1.0799 -2.0036,-1.4498 -3.0834,-0.8264 l -71.2009,41.1029 c -1.0798,0.6234 -1.4497,2.0036 -0.8263,3.0835 0.6233,1.0798 2.0035,1.4497 3.0834,0.8264 z" clip-path="url(#1252817295329-clipPath1)" id="path65" ns1:connector-curvature="0" style="fill:#f0abfc;stroke:none" />
    </g>
    <g id="g67" style="text-rendering:geometricPrecision;fill:#f0abfc;stroke:none">
      <path d="m 494.4159,273.5512 -0.005,95.2572 c -1e-4,1.247 1.0102,2.2574 2.2571,2.2574 1.2469,10e-5 2.2573,-1.0102 2.2574,-2.2571 l 0.005,-95.2572 c 10e-5,-1.2469 -1.0102,-2.2573 -2.2571,-2.2574 -1.2469,-1e-4 -2.2573,1.0102 -2.2574,2.2571 z" clip-path="url(#1252817295397-clipPath1)" id="path69" ns1:connector-curvature="0" style="stroke:none" />
    </g>
    <g id="g71" style="fill:#fbbf24;stroke:none;text-rendering:geometricPrecision">
      <path d="M 136.531,271.5661 62.6359,228.8973 c -1.0798,-0.6235 -2.46,-0.2537 -3.0835,0.8261 -0.6235,1.0798 -0.2538,2.46 0.826,3.0835 l 73.8951,42.6687 c 1.0798,0.6236 2.46,0.2538 3.0835,-0.826 0.6235,-1.0798 0.2538,-2.46 -0.826,-3.0835 z" clip-path="url(#1252817295397-clipPath1)" id="path73" ns1:connector-curvature="0" style="stroke:none" />
      <path d="M 136.531,271.5661 62.6359,228.8973 c -1.0798,-0.6235 -2.46,-0.2537 -3.0835,0.8261 -0.6235,1.0798 -0.2538,2.46 0.826,3.0835 l 73.8951,42.6687 c 1.0798,0.6236 2.46,0.2538 3.0835,-0.826 0.6235,-1.0798 0.2538,-2.46 -0.826,-3.0835 z" clip-path="url(#1252817295363-clipPath1)" id="path75" ns1:connector-curvature="0" style="fill:#f0abfc;stroke:none" />
    </g>
    <g id="g77" style="text-rendering:geometricPrecision;fill:#f0abfc;stroke:none">
      <path d="m 604.9773,234.4054 71.1962,41.1101 c 1.0798,0.6235 2.46,0.2538 3.0835,-0.8261 0.6235,-1.0798 0.2538,-2.46 -0.826,-3.0835 l -71.1963,-41.1101 c -1.0797,-0.6235 -2.46,-0.2537 -3.0835,0.8261 -0.6235,1.0798 -0.2537,2.46 0.8261,3.0835 z" clip-path="url(#1252817295397-clipPath1)" id="path79" ns1:connector-curvature="0" style="stroke:none" />
      <path d="m 604.9773,234.4054 71.1962,41.1101 c 1.0798,0.6235 2.46,0.2538 3.0835,-0.8261 0.6235,-1.0798 0.2538,-2.46 -0.826,-3.0835 l -71.1963,-41.1101 c -1.0797,-0.6235 -2.46,-0.2537 -3.0835,0.8261 -0.6235,1.0798 -0.2537,2.46 0.8261,3.0835 z" clip-path="url(#1252817295765-clipPath1)" id="path81" ns1:connector-curvature="0" style="fill:#c4b5fd;stroke:none" />
    </g>
    <g id="g83" style="text-rendering:geometricPrecision;fill:#f0abfc;stroke:none">
      <path d="m 678.4308,275.5156 82.4976,-47.6243 c 1.0799,-0.6234 1.4498,-2.0036 0.8264,-3.0835 -0.6234,-1.0798 -2.0036,-1.4497 -3.0835,-0.8263 l -82.4976,47.6243 c -1.0799,0.6234 -1.4498,2.0035 -0.8263,3.0834 0.6233,1.0799 2.0035,1.4498 3.0834,0.8264 z" clip-path="url(#1252817295397-clipPath1)" id="path85" ns1:connector-curvature="0" style="stroke:none" />
    </g>
    <g id="g87" style="fill:#eef2ff;stroke:none;text-rendering:geometricPrecision">
      </g>
    <g font-size="37px" transform="translate(573.2727,162.1678)" id="g91" style="font-size:37px;font-family:sans-serif;fill:#c4b5fd;stroke:none;text-rendering:geometricPrecision">
      <text x="0" xml:space="preserve" y="36" clip-path="url(#1252817295985-clipPath1)" id="text93" style="stroke:none">H</text>
    </g>
    <g font-size="37px" transform="translate(573.2717,199.4129)" id="g95" style="font-size:37px;font-family:sans-serif;fill:#c4b5fd;stroke:none;text-rendering:geometricPrecision">
      <text x="0" xml:space="preserve" y="36" clip-path="url(#1252817295982-clipPath1)" id="text97" style="stroke:none">N</text>
    </g>
    <g font-size="37px" id="g99" style="font-size:37px;font-family:sans-serif;fill:#eef2ff;stroke:none;text-rendering:geometricPrecision">
      <text x="0" y="36" transform="translate(35.1218,199.3728)" clip-path="url(#1252817295453-clipPath1)" xml:space="preserve" id="text103" style="fill:#fbbf24;stroke:none">F</text>
    </g>
  </g>
</svg>