<?xml version='1.0' encoding='utf-8'?>
<svg xmlns="http://www.w3.org/2000/svg" xmlns:dc="http://purl.org/dc/elements/1.1/" xmlns:ns1="http://www.inkscape.org/namespaces/inkscape" xmlns:ns2="http://sodipodi.sourceforge.net/DTD/sodipodi-0.dtd" xmlns:ns4="http://creativecommons.org/ns#" xmlns:rdf="http://www.w3.org/1999/02/22-rdf-syntax-ns#" width="748.59552" stroke-miterlimit="10" font-weight="normal" height="249.8978" font-style="normal" font-size="12px" id="svg2" version="1.1" ns1:version="0.91 r13725" ns2:docname="4-ETA.svg" style="font-style:normal;font-weight:normal;font-size:12px;font-family:Dialog;color-interpolation:auto;fill:#f5d0fe;fill-opacity:1;stroke:none;stroke:none;stroke:none;stroke:none;stroke:none;stroke:none;stroke:none;stroke:none;color-rendering:auto;image-rendering:auto;shape-rendering:auto;text-rendering:auto">
  <metadata id="metadata107">
    <rdf:RDF>
      <ns4:Work rdf:about="">
        <dc:format>image/svg+xml</dc:format>
        <dc:type rdf:resource="http://purl.org/dc/dcmitype/StillImage" />
        <dc:title />
      </ns4:Work>
    </rdf:RDF>
  </metadata>
  <ns2:namedview pagecolor="#eef2ff" bordercolor="#666666" borderopacity="1" objecttolerance="10" gridtolerance="10" guidetolerance="10" ns1:pageopacity="0" ns1:pageshadow="2" ns1:window-width="1060" ns1:window-height="480" id="namedview105" showgrid="false" fit-margin-top="10" fit-margin-left="10" fit-margin-right="10" fit-margin-bottom="10" ns1:zoom="0.36375" ns1:cx="374.14622" ns1:cy="124.9489" ns1:window-x="0" ns1:window-y="0" ns1:window-maximized="0" ns1:current-layer="svg2" />
  
  <defs id="genericDefs" />
  <g id="g5" transform="translate(-25.853777,-175.0511)" style="fill:#f5d0fe;stroke:none">
    <defs id="617061573637-defs1">
      <clipPath clipPathUnits="userSpaceOnUse" id="617061573867-clipPath1">
        <path d="M 0,0 800,0 800,600 0,600 0,0 Z" id="path9" ns1:connector-curvature="0" style="stroke:none" />
      </clipPath>
      <clipPath clipPathUnits="userSpaceOnUse" id="617061573142-clipPath1">
        <path d="m 628.3447,211.2944 c -21.4637,0 -38.8635,17.3998 -38.8635,38.8634 0,21.4637 17.3998,38.8635 38.8635,38.8635 21.4636,0 38.8634,-17.3998 38.8634,-38.8635 0,-21.4636 -17.3998,-38.8634 -38.8634,-38.8634 z" id="path12" ns1:connector-curvature="0" style="stroke:none" />
      </clipPath>
      <clipPath clipPathUnits="userSpaceOnUse" id="61706157340-clipPath1">
        <path d="m 286.7679,310.9023 c -20.8984,0 -37.8399,16.9415 -37.8399,37.8399 0,20.8984 16.9415,37.8399 37.8399,37.8399 20.8984,0 37.8399,-16.9415 37.8399,-37.8399 0,-20.8984 -16.9415,-37.8399 -37.8399,-37.8399 z" id="path15" ns1:connector-curvature="0" style="stroke:none" />
      </clipPath>
      <clipPath clipPathUnits="userSpaceOnUse" id="617061573796-clipPath1">
        <path d="m 181.5271,348.7444 c -20.8984,0 -37.84,16.9415 -37.84,37.84 0,20.8984 16.9416,37.84 37.84,37.84 20.8985,0 37.84,-16.9416 37.84,-37.84 0,-20.8985 -16.9415,-37.84 -37.84,-37.84 z" id="path18" ns1:connector-curvature="0" style="stroke:none" />
      </clipPath>
      <clipPath clipPathUnits="userSpaceOnUse" id="617061573607-clipPath1">
        <path d="m -700.5743,-179.8616 800,0 0,600 -800,0 0,-600 z" id="path21" ns1:connector-curvature="0" style="stroke:none" />
      </clipPath>
      <clipPath clipPathUnits="userSpaceOnUse" id="617061573829-clipPath1">
        <path d="m -748.2774,-198.4681 800,0 0,600 -800,0 0,-600 z" id="path24" ns1:connector-curvature="0" style="stroke:none" />
      </clipPath>
      <clipPath clipPathUnits="userSpaceOnUse" id="617061573872-clipPath1">
        <path d="m -188.0496,-377.0446 800,0 0,600 -800,0 0,-600 z" id="path27" ns1:connector-curvature="0" style="stroke:none" />
      </clipPath>
    </defs>
    <g id="g29" style="text-rendering:geometricPrecision;fill:#f5d0fe;stroke:none">
      <path d="m 284.6337,348.7422 c 0,1.1789 0.9553,2.1342 2.1342,2.1342 1.1789,0 2.1342,-0.9553 2.1342,-2.1342 l 0,-98.6132 c 0,-1.1789 -0.9553,-2.1342 -2.1342,-2.1342 -1.1789,0 -2.1342,0.9553 -2.1342,2.1342 z m 17.7852,-12.403 c 0,1.1789 0.9553,2.1342 2.1342,2.1342 1.1789,0 2.1342,-0.9553 2.1342,-2.1342 l 0,-73.8064 c 0,-1.1789 -0.9553,-2.1342 -2.1342,-2.1342 -1.1789,0 -2.1342,0.9553 -2.1342,2.1342 z" clip-path="url(#617061573867-clipPath1)" id="path31" ns1:connector-curvature="0" style="stroke:none" />
    </g>
    <g id="g33" style="text-rendering:geometricPrecision;fill:#f5d0fe;stroke:none">
      <path d="m 372.9492,374.5917 c -1.0211,0.5894 -1.3708,1.8943 -0.7814,2.9153 0.5893,1.021 1.8942,1.3708 2.9152,0.7814 l 63.9073,-36.8895 c 1.0211,-0.5894 1.3708,-1.8943 0.7815,-2.9153 -0.5894,-1.0211 -1.8943,-1.3708 -2.9154,-0.7815 z m -1.8489,21.6028 c -1.021,0.5893 -1.3707,1.8942 -0.7814,2.9153 0.5894,1.021 1.8943,1.3708 2.9153,0.7814 l 85.3891,-49.2896 c 1.021,-0.5894 1.3708,-1.8943 0.7814,-2.9153 -0.5894,-1.021 -1.8943,-1.3708 -2.9153,-0.7815 z" clip-path="url(#617061573867-clipPath1)" id="path35" ns1:connector-curvature="0" style="stroke:none" />
    </g>
    <g id="g37" style="text-rendering:geometricPrecision;fill:#f5d0fe;stroke:none">
      <path d="m 459.6906,348.7534 0.006,-98.6043 c 1e-4,-1.1789 -0.9551,-2.1342 -2.1341,-2.1343 -1.1789,-1e-4 -2.1342,0.9551 -2.1343,2.1341 l -0.006,98.6042 c 0,1.1789 0.9552,2.1343 2.1341,2.1343 1.1789,10e-5 2.1343,-0.9551 2.1344,-2.134 z" clip-path="url(#617061573867-clipPath1)" id="path39" ns1:connector-curvature="0" style="stroke:none" />
    </g>
    <g id="g41" style="text-rendering:geometricPrecision;fill:#f5d0fe;stroke:none">
      <path d="m 436.8611,261.1974 c 1.0209,0.5896 2.3259,0.2399 2.9154,-0.781 0.5895,-1.021 0.2399,-2.3259 -0.781,-2.9154 l -63.9187,-36.9071 c -1.021,-0.5896 -2.3259,-0.2399 -2.9155,0.781 -0.5895,1.021 -0.2399,2.3259 0.7811,2.9154 z m 19.634,-9.2002 c 1.021,0.5895 2.3259,0.2399 2.9155,-0.781 0.5894,-1.021 0.2399,-2.3259 -0.7811,-2.9154 l -85.3994,-49.3103 c -1.021,-0.5895 -2.3259,-0.2399 -2.9154,0.781 -0.5895,1.021 -0.2399,2.3259 0.781,2.9155 z" clip-path="url(#617061573867-clipPath1)" id="path43" ns1:connector-curvature="0" style="stroke:none" />
    </g>
    <g id="g45" style="text-rendering:geometricPrecision;fill:#f5d0fe;stroke:none">
      <path d="m 285.7009,350.5905 85.3994,49.3006 c 1.021,0.5895 2.3259,0.2398 2.9153,-0.7813 0.5894,-1.021 0.2397,-2.3259 -0.7813,-2.9153 l -85.3994,-49.3006 c -1.021,-0.5894 -2.3259,-0.2397 -2.9153,0.7813 -0.5895,1.021 -0.2397,2.3259 0.7813,2.9153 z" clip-path="url(#617061573867-clipPath1)" id="path47" ns1:connector-curvature="0" style="stroke:none" />
    </g>
    <g id="g49" style="text-rendering:geometricPrecision;fill:#f5d0fe;stroke:none">
      <path d="m 371.096,198.9903 -85.395,49.2903 c -1.0211,0.5894 -1.3709,1.8943 -0.7815,2.9153 0.5894,1.0211 1.8943,1.3709 2.9153,0.7815 l 85.395,-49.2903 c 1.0211,-0.5893 1.3708,-1.8942 0.7815,-2.9153 -0.5893,-1.021 -1.8942,-1.3708 -2.9153,-0.7815 z" clip-path="url(#617061573867-clipPath1)" id="path51" ns1:connector-curvature="0" style="stroke:none" />
    </g>
    <g id="g53" style="text-rendering:geometricPrecision;fill:#f5d0fe;stroke:none">
      <path d="m 458.6293,251.9973 85.3937,-49.2962 c 1.0211,-0.5894 1.3707,-1.8943 0.7814,-2.9153 -0.5894,-1.021 -1.8944,-1.3707 -2.9154,-0.7813 l -85.3937,49.2962 c -1.021,0.5894 -1.3707,1.8943 -0.7813,2.9153 0.5894,1.021 1.8943,1.3707 2.9153,0.7813 z" clip-path="url(#617061573867-clipPath1)" id="path55" ns1:connector-curvature="0" style="stroke:none" />
    </g>
    <g id="g57" style="text-rendering:geometricPrecision;fill:#f5d0fe;stroke:none">
      <path d="m 541.8889,202.701 85.3886,49.3051 c 1.0209,0.5895 2.3258,0.2399 2.9154,-0.7811 0.5894,-1.0209 0.2399,-2.3259 -0.781,-2.9154 l -85.3886,-49.305 c -1.021,-0.5895 -2.326,-0.24 -2.9155,0.781 -0.5895,1.0209 -0.2399,2.3259 0.7811,2.9154 z" clip-path="url(#617061573867-clipPath1)" id="path59" ns1:connector-curvature="0" style="stroke:none" />
    </g>
    <g id="g61" style="fill:#c4b5fd;stroke:none;text-rendering:geometricPrecision">
      <path d="m 629.4117,252.0062 67.3154,-38.86 c 1.021,-0.5894 1.3707,-1.8943 0.7813,-2.9153 -0.5894,-1.021 -1.8943,-1.3707 -2.9153,-0.7813 l -67.3155,38.8599 c -1.0209,0.5894 -1.3707,1.8943 -0.7813,2.9153 0.5895,1.021 1.8943,1.3708 2.9154,0.7814 z" clip-path="url(#617061573867-clipPath1)" id="path63" ns1:connector-curvature="0" style="stroke:none" />
      <path d="m 629.4117,252.0062 67.3154,-38.86 c 1.021,-0.5894 1.3707,-1.8943 0.7813,-2.9153 -0.5894,-1.021 -1.8943,-1.3707 -2.9153,-0.7813 l -67.3155,38.8599 c -1.0209,0.5894 -1.3707,1.8943 -0.7813,2.9153 0.5895,1.021 1.8943,1.3708 2.9154,0.7814 z" clip-path="url(#617061573142-clipPath1)" id="path65" ns1:connector-curvature="0" style="fill:#f5d0fe;stroke:none" />
    </g>
    <g id="g67" style="text-rendering:geometricPrecision;fill:#f5d0fe;stroke:none">
      <path d="m 626.2104,250.1577 -0.005,90.0644 c 0,1.179 0.9552,2.1343 2.1341,2.1343 1.179,10e-5 2.1343,-0.9551 2.1344,-2.134 l 0.005,-90.0645 c 0,-1.1789 -0.9552,-2.1342 -2.1341,-2.1343 -1.179,0 -2.1343,0.9552 -2.1344,2.1341 z" clip-path="url(#617061573867-clipPath1)" id="path69" ns1:connector-curvature="0" style="stroke:none" />
    </g>
    <g id="g71" style="fill:#fda4af;stroke:none;text-rendering:geometricPrecision">
      <path d="m 285.7007,346.894 -65.5398,37.8412 c -1.021,0.5895 -1.3706,1.8945 -0.7811,2.9154 0.5895,1.021 1.8944,1.3706 2.9154,0.7811 l 65.5398,-37.8412 c 1.021,-0.5895 1.3706,-1.8945 0.7811,-2.9154 -0.5894,-1.021 -1.8944,-1.3706 -2.9154,-0.7811 z" clip-path="url(#617061573867-clipPath1)" id="path73" ns1:connector-curvature="0" style="stroke:none" />
      <path d="m 285.7007,346.894 -65.5398,37.8412 c -1.021,0.5895 -1.3706,1.8945 -0.7811,2.9154 0.5895,1.021 1.8944,1.3706 2.9154,0.7811 l 65.5398,-37.8412 c 1.021,-0.5895 1.3706,-1.8945 0.7811,-2.9154 -0.5894,-1.021 -1.8944,-1.3706 -2.9154,-0.7811 z" clip-path="url(#61706157340-clipPath1)" id="path75" ns1:connector-curvature="0" style="fill:#f5d0fe;stroke:none" />
    </g>
    <g id="g77" style="text-rendering:geometricPrecision;fill:#f5d0fe;stroke:none">
      <path d="m 182.5942,384.7361 -65.5416,-37.8386 c -1.021,-0.5895 -2.3259,-0.2398 -2.9153,0.7812 -0.5895,1.021 -0.2398,2.3259 0.7812,2.9154 l 65.5416,37.8386 c 1.021,0.5894 2.3259,0.2398 2.9153,-0.7812 0.5895,-1.021 0.2398,-2.326 -0.7812,-2.9154 z" clip-path="url(#617061573867-clipPath1)" id="path79" ns1:connector-curvature="0" style="stroke:none" />
      <path d="m 182.5942,384.7361 -65.5416,-37.8386 c -1.021,-0.5895 -2.3259,-0.2398 -2.9153,0.7812 -0.5895,1.021 -0.2398,2.3259 0.7812,2.9154 l 65.5416,37.8386 c 1.021,0.5894 2.3259,0.2398 2.9153,-0.7812 0.5895,-1.021 0.2398,-2.326 -0.7812,-2.9154 z" clip-path="url(#617061573796-clipPath1)" id="path81" ns1:connector-curvature="0" style="fill:#fda4af;stroke:none" />
    </g>
    <g id="g83" style="text-rendering:geometricPrecision;fill:#f5d0fe;stroke:none">
      <path d="m 114.9184,346.8975 -77.9971,45.0338 c -1.021,0.5895 -1.3706,1.8945 -0.7811,2.9154 0.5895,1.021 1.8944,1.3706 2.9154,0.7811 l 77.9971,-45.0338 c 1.021,-0.5895 1.3706,-1.8944 0.7811,-2.9154 -0.5895,-1.0209 -1.8944,-1.3706 -2.9154,-0.7811 z" clip-path="url(#617061573867-clipPath1)" id="path85" ns1:connector-curvature="0" style="stroke:none" />
    </g>
    <g id="g87" style="fill:#eef2ff;stroke:none;text-rendering:geometricPrecision">
      </g>
    <g font-size="35px" transform="translate(700.5743,179.8616)" id="g91" style="font-size:35px;font-family:sans-serif;fill:#c4b5fd;stroke:none;text-rendering:geometricPrecision">
      <text x="0" xml:space="preserve" y="34" clip-path="url(#617061573607-clipPath1)" id="text93" style="stroke:none">NH</text>
    </g>
    <g font-size="27px" transform="translate(748.2774,198.4681)" id="g95" style="font-size:27px;font-family:sans-serif;fill:#c4b5fd;stroke:none;text-rendering:geometricPrecision">
      <text x="0" xml:space="preserve" y="26" clip-path="url(#617061573829-clipPath1)" id="text97" style="stroke:none">2</text>
    </g>
    <g font-size="27px" id="g99" style="font-size:27px;font-family:sans-serif;fill:#eef2ff;stroke:none;text-rendering:geometricPrecision">
      <text x="0" font-size="35px" y="34" transform="translate(188.0496,377.0446)" clip-path="url(#617061573872-clipPath1)" xml:space="preserve" id="text103" style="font-size:35px;fill:#fda4af;stroke:none">O</text>
    </g>
  </g>
</svg>