<?xml version='1.0' encoding='utf-8'?>
<svg xmlns="http://www.w3.org/2000/svg" xmlns:dc="http://purl.org/dc/elements/1.1/" xmlns:ns1="http://www.inkscape.org/namespaces/inkscape" xmlns:ns2="http://sodipodi.sourceforge.net/DTD/sodipodi-0.dtd" xmlns:ns4="http://creativecommons.org/ns#" xmlns:rdf="http://www.w3.org/1999/02/22-rdf-syntax-ns#" width="581.78888" stroke-miterlimit="10" font-weight="normal" height="320.59979" font-style="normal" font-size="12px" id="svg2" version="1.1" ns1:version="0.91 r13725" ns2:docname="4-HO-DPT.svg" style="font-style:normal;font-weight:normal;font-size:12px;font-family:Dialog;color-interpolation:auto;fill:#f0abfc;fill-opacity:1;stroke:none;stroke:none;stroke:none;stroke:none;stroke:none;stroke:none;stroke:none;stroke:none;color-rendering:auto;image-rendering:auto;shape-rendering:auto;text-rendering:auto">
  <metadata id="metadata152">
    <rdf:RDF>
      <ns4:Work rdf:about="">
        <dc:format>image/svg+xml</dc:format>
        <dc:type rdf:resource="http://purl.org/dc/dcmitype/StillImage" />
        <dc:title />
      </ns4:Work>
    </rdf:RDF>
  </metadata>
  <ns2:namedview pagecolor="#eef2ff" bordercolor="#666666" borderopacity="1" objecttolerance="10" gridtolerance="10" guidetolerance="10" ns1:pageopacity="0" ns1:pageshadow="2" ns1:window-width="1060" ns1:window-height="480" id="namedview150" showgrid="false" fit-margin-top="10" fit-margin-left="10" fit-margin-right="10" fit-margin-bottom="10" ns1:zoom="0.36375" ns1:cx="290.90999" ns1:cy="35.8247" ns1:window-x="0" ns1:window-y="0" ns1:window-maximized="0" ns1:current-layer="svg2" />
  
  <defs id="genericDefs" />
  <g id="g5" transform="translate(-109.09001,-15.2249)" style="fill:#f0abfc;stroke:none">
    <defs id="1929324173752-defs1">
      <clipPath clipPathUnits="userSpaceOnUse" id="1929324173407-clipPath1">
        <path d="M 0,0 800,0 800,600 0,600 0,0 Z" id="path9" ns1:connector-curvature="0" style="stroke:none" />
      </clipPath>
      <clipPath clipPathUnits="userSpaceOnUse" id="1929324173623-clipPath1">
        <path d="m 442.3859,202.9269 c -15.2033,0 -27.528,12.3247 -27.528,27.528 0,15.2033 12.3247,27.528 27.528,27.528 15.2033,0 27.528,-12.3247 27.528,-27.528 0,-15.2033 -12.3247,-27.528 -27.528,-27.528 z" id="path12" ns1:connector-curvature="0" style="stroke:none" />
      </clipPath>
      <clipPath clipPathUnits="userSpaceOnUse" id="1929324173885-clipPath1">
        <path d="m 210.6046,229 c -13.7961,0 -24.9801,11.184 -24.9801,24.9801 0,13.7961 11.184,24.9801 24.9801,24.9801 13.7961,0 24.9801,-11.184 24.9801,-24.9801 C 235.5847,240.184 224.4007,229 210.6046,229 Z" id="path15" ns1:connector-curvature="0" style="stroke:none" />
      </clipPath>
      <clipPath clipPathUnits="userSpaceOnUse" id="1929324173997-clipPath1">
        <path d="m 262.9901,284.7776 c -14.3891,0 -26.0537,11.6647 -26.0537,26.0538 0,14.3891 11.6646,26.0538 26.0537,26.0538 14.3891,0 26.0538,-11.6647 26.0538,-26.0538 0,-14.3891 -11.6647,-26.0538 -26.0538,-26.0538 z" id="path18" ns1:connector-curvature="0" style="stroke:none" />
      </clipPath>
      <clipPath clipPathUnits="userSpaceOnUse" id="1929324173923-clipPath1">
        <path d="m 235.7869,109.5673 c -14.328,0 -25.9432,11.6152 -25.9432,25.9433 0,14.328 11.6152,25.9432 25.9432,25.9432 14.3281,0 25.9433,-11.6152 25.9433,-25.9432 0,-14.3281 -11.6152,-25.9433 -25.9433,-25.9433 z" id="path21" ns1:connector-curvature="0" style="stroke:none" />
      </clipPath>
      <clipPath clipPathUnits="userSpaceOnUse" id="1929324173480-clipPath1">
        <path d="m 502.9414,151.86 c -14.5197,0 -26.2902,11.7705 -26.2902,26.2902 0,14.5197 11.7705,26.2902 26.2902,26.2902 14.5197,0 26.2903,-11.7705 26.2903,-26.2902 0,-14.5197 -11.7706,-26.2902 -26.2903,-26.2902 z" id="path24" ns1:connector-curvature="0" style="stroke:none" />
      </clipPath>
      <clipPath clipPathUnits="userSpaceOnUse" id="1929324173150-clipPath1">
        <path d="m 515.817,175.3989 c -15.2033,0 -27.528,12.3247 -27.528,27.528 0,15.2033 12.3247,27.528 27.528,27.528 15.2033,0 27.528,-12.3247 27.528,-27.528 0,-15.2033 -12.3247,-27.528 -27.528,-27.528 z" id="path27" ns1:connector-curvature="0" style="stroke:none" />
      </clipPath>
      <clipPath clipPathUnits="userSpaceOnUse" id="1929324173907-clipPath1">
        <path d="m -494.0352,-180.9932 800,0 0,600 -800,0 0,-600 z" id="path30" ns1:connector-curvature="0" style="stroke:none" />
      </clipPath>
      <clipPath clipPathUnits="userSpaceOnUse" id="1929324173700-clipPath1">
        <path d="m -222.9413,-300.0356 800,0 0,600 -800,0 0,-600 z" id="path33" ns1:connector-curvature="0" style="stroke:none" />
      </clipPath>
      <clipPath clipPathUnits="userSpaceOnUse" id="1929324173511-clipPath1">
        <path d="m -272.6266,-69.0517 800,0 0,600 -800,0 0,-600 z" id="path36" ns1:connector-curvature="0" style="stroke:none" />
      </clipPath>
    </defs>
    <g id="g38" style="text-rendering:geometricPrecision;fill:#f0abfc;stroke:none">
      <path d="m 322.0316,231.7656 60.5555,-34.9617 c 0.7241,-0.418 0.972,-1.3434 0.554,-2.0675 -0.418,-0.724 -1.3434,-0.9719 -2.0674,-0.5539 l -60.5555,34.9617 c -0.7241,0.418 -0.9721,1.3434 -0.554,2.0675 0.418,0.724 1.3434,0.972 2.0674,0.5539 z" clip-path="url(#1929324173407-clipPath1)" id="path40" ns1:connector-curvature="0" style="stroke:none" />
    </g>
    <g id="g42" style="text-rendering:geometricPrecision;fill:#f0abfc;stroke:none">
      <path d="m 381.0737,196.8039 60.5555,34.9617 c 0.724,0.4181 1.6494,0.1701 2.0674,-0.5539 0.418,-0.7241 0.1701,-1.6495 -0.554,-2.0675 l -60.5555,-34.9617 c -0.724,-0.418 -1.6494,-0.1701 -2.0674,0.5539 -0.418,0.7241 -0.1701,1.6495 0.554,2.0675 z" clip-path="url(#1929324173407-clipPath1)" id="path44" ns1:connector-curvature="0" style="stroke:none" />
    </g>
    <g id="g46" style="fill:#c4b5fd;stroke:none;text-rendering:geometricPrecision">
      <path d="m 443.1426,231.7656 47.6799,-27.528 c 0.7241,-0.418 0.972,-1.3434 0.554,-2.0674 -0.418,-0.724 -1.3434,-0.972 -2.0674,-0.554 l -47.6799,27.528 c -0.7241,0.418 -0.972,1.3434 -0.554,2.0675 0.418,0.724 1.3434,0.972 2.0674,0.5539 z" clip-path="url(#1929324173407-clipPath1)" id="path48" ns1:connector-curvature="0" style="stroke:none" />
      <path d="m 443.1426,231.7656 47.6799,-27.528 c 0.7241,-0.418 0.972,-1.3434 0.554,-2.0674 -0.418,-0.724 -1.3434,-0.972 -2.0674,-0.554 l -47.6799,27.528 c -0.7241,0.418 -0.972,1.3434 -0.554,2.0675 0.418,0.724 1.3434,0.972 2.0674,0.5539 z" clip-path="url(#1929324173623-clipPath1)" id="path50" ns1:connector-curvature="0" style="fill:#f0abfc;stroke:none" />
    </g>
    <g id="g52" style="text-rendering:geometricPrecision;fill:#f0abfc;stroke:none">
      <path d="m 258.5173,203.0334 c 0.5595,-0.6213 0.5093,-1.578 -0.1119,-2.1375 -0.6213,-0.5594 -1.5781,-0.5093 -2.1375,0.112 l -46.788,51.9594 c -0.5594,0.6213 -0.5093,1.5781 0.1119,2.1375 0.6213,0.5594 1.578,0.5093 2.1375,-0.1119 z m -15.2578,-1.904 c 0.5594,-0.6213 0.5093,-1.578 -0.112,-2.1374 -0.6213,-0.5595 -1.578,-0.5094 -2.1374,0.1119 l -35.0171,38.8875 c -0.5595,0.6213 -0.5093,1.578 0.1119,2.1375 0.6213,0.5594 1.5781,0.5093 2.1375,-0.112 z" clip-path="url(#1929324173407-clipPath1)" id="path54" ns1:connector-curvature="0" style="stroke:none" />
    </g>
    <g id="g56" style="text-rendering:geometricPrecision;fill:#f0abfc;stroke:none">
      <path d="m 321.8903,229.0722 -63.8822,-28.4343 c -0.7638,-0.34 -1.6582,0.004 -1.9982,0.7673 -0.34,0.7638 0.003,1.6581 0.7673,1.9981 l 63.8823,28.4343 c 0.7637,0.34 1.6581,-0.003 1.9981,-0.7672 0.34,-0.7638 -0.003,-1.6582 -0.7673,-1.9982 z" clip-path="url(#1929324173407-clipPath1)" id="path58" ns1:connector-curvature="0" style="stroke:none" />
    </g>
    <g id="g60" style="text-rendering:geometricPrecision;fill:#f0abfc;stroke:none">
      <path d="m 322.7801,230.6133 c 0.0874,-0.8315 -0.5154,-1.5761 -1.3468,-1.6635 -0.8315,-0.0875 -1.5761,0.5153 -1.6636,1.3468 l -7.3163,69.5408 c -0.0875,0.8315 0.5154,1.5761 1.3468,1.6635 0.8315,0.0875 1.5761,-0.5153 1.6635,-1.3468 z m -13.6606,9.3007 c 0.0875,-0.8315 -0.5154,-1.5761 -1.3468,-1.6636 -0.8315,-0.0875 -1.5761,0.5154 -1.6636,1.3468 l -5.0819,48.3035 c -0.0875,0.8315 0.5153,1.5761 1.3468,1.6636 0.8314,0.0874 1.576,-0.5154 1.6635,-1.3469 z" clip-path="url(#1929324173407-clipPath1)" id="path62" ns1:connector-curvature="0" style="stroke:none" />
    </g>
    <g id="g64" style="text-rendering:geometricPrecision;fill:#f0abfc;stroke:none">
      <path d="m 224.2459,147.4978 c 0.8178,0.174 1.6213,-0.3477 1.7952,-1.1655 0.174,-0.8177 -0.3477,-1.6213 -1.1655,-1.7952 l -51.1831,-10.8859 c -0.8178,-0.1739 -1.6213,0.3478 -1.7953,1.1655 -0.1739,0.8178 0.3478,1.6213 1.1656,1.7953 z m 11.2262,-10.5069 c 0.8177,0.1739 1.6213,-0.3477 1.7952,-1.1655 0.1739,-0.8177 -0.3478,-1.6213 -1.1655,-1.7952 L 167.7132,119.485 c -0.8178,-0.174 -1.6213,0.3477 -1.7952,1.1655 -0.174,0.8177 0.3477,1.6213 1.1655,1.7952 z" clip-path="url(#1929324173407-clipPath1)" id="path66" ns1:connector-curvature="0" style="stroke:none" />
    </g>
    <g id="g68" style="text-rendering:geometricPrecision;fill:#f0abfc;stroke:none">
      <path d="m 166.2737,119.9525 -46.7944,51.9603 c -0.5595,0.6212 -0.5095,1.578 0.1118,2.1375 0.6212,0.5594 1.578,0.5094 2.1374,-0.1119 l 46.7945,-51.9603 c 0.5594,-0.6212 0.5094,-1.5779 -0.1118,-2.1374 -0.6213,-0.5595 -1.578,-0.5094 -2.1375,0.1118 z" clip-path="url(#1929324173407-clipPath1)" id="path70" ns1:connector-curvature="0" style="stroke:none" />
    </g>
    <g id="g72" style="text-rendering:geometricPrecision;fill:#f0abfc;stroke:none">
      <path d="m 136.7561,176.9267 c -0.2583,-0.7951 -1.1119,-1.2302 -1.907,-0.9719 -0.7952,0.2583 -1.2302,1.1119 -0.9719,1.9071 l 16.1703,49.7807 c 0.2583,0.7951 1.1119,1.2302 1.9071,0.9719 0.7951,-0.2583 1.2301,-1.1119 0.9718,-1.907 z m -14.7128,-4.4687 c -0.2582,-0.7951 -1.1118,-1.2301 -1.907,-0.9718 -0.7951,0.2583 -1.2301,1.1119 -0.9718,1.907 l 21.6048,66.511 c 0.2583,0.7951 1.1119,1.2301 1.907,0.9718 0.7952,-0.2583 1.2302,-1.1119 0.9719,-1.907 z" clip-path="url(#1929324173407-clipPath1)" id="path74" ns1:connector-curvature="0" style="stroke:none" />
    </g>
    <g id="g76" style="text-rendering:geometricPrecision;fill:#f0abfc;stroke:none">
      <path d="m 258.832,201.553 -21.6056,-66.51 c -0.2583,-0.7952 -1.1119,-1.2302 -1.9071,-0.9719 -0.7951,0.2583 -1.2301,1.1119 -0.9718,1.907 l 21.6057,66.5101 c 0.2583,0.7951 1.1119,1.2302 1.907,0.9719 0.7951,-0.2583 1.2301,-1.112 0.9718,-1.9071 z" clip-path="url(#1929324173407-clipPath1)" id="path78" ns1:connector-curvature="0" style="stroke:none" />
    </g>
    <g id="g80" style="text-rendering:geometricPrecision;fill:#f0abfc;stroke:none">
      <path d="m 141.894,240.917 68.3958,14.5435 c 0.8178,0.1739 1.6213,-0.3479 1.7952,-1.1656 0.1739,-0.8178 -0.3479,-1.6213 -1.1656,-1.7952 l -68.3959,-14.5435 c -0.8177,-0.1739 -1.6212,0.3478 -1.7951,1.1656 -0.1739,0.8178 0.3478,1.6213 1.1656,1.7952 z" clip-path="url(#1929324173407-clipPath1)" id="path82" ns1:connector-curvature="0" style="stroke:none" />
    </g>
    <g id="g84" style="fill:#c4b5fd;stroke:none;text-rendering:geometricPrecision">
      <path d="m 209.2939,254.7368 24.9801,43.2669 c 0.418,0.724 1.3434,0.972 2.0675,0.554 0.724,-0.4181 0.972,-1.3435 0.5539,-2.0675 l -24.9801,-43.2668 c -0.418,-0.7241 -1.3434,-0.972 -2.0674,-0.554 -0.7241,0.418 -0.972,1.3434 -0.554,2.0674 z" clip-path="url(#1929324173407-clipPath1)" id="path86" ns1:connector-curvature="0" style="stroke:none" />
      <path d="m 209.2939,254.7368 24.9801,43.2669 c 0.418,0.724 1.3434,0.972 2.0675,0.554 0.724,-0.4181 0.972,-1.3435 0.5539,-2.0675 l -24.9801,-43.2668 c -0.418,-0.7241 -1.3434,-0.972 -2.0674,-0.554 -0.7241,0.418 -0.972,1.3434 -0.554,2.0674 z" clip-path="url(#1929324173885-clipPath1)" id="path88" ns1:connector-curvature="0" style="fill:#f0abfc;stroke:none" />
    </g>
    <g id="g90" style="text-rendering:geometricPrecision;fill:#f0abfc;stroke:none">
      <path d="m 263.3049,312.3118 50.9684,-10.8357 c 0.8178,-0.1738 1.3395,-0.9773 1.1657,-1.7951 -0.1739,-0.8177 -0.9774,-1.3395 -1.7951,-1.1656 l -50.9685,10.8356 c -0.8177,0.1738 -1.3395,0.9774 -1.1657,1.7951 0.1739,0.8178 0.9774,1.3396 1.7952,1.1657 z" clip-path="url(#1929324173407-clipPath1)" id="path92" ns1:connector-curvature="0" style="stroke:none" />
      <path d="m 263.3049,312.3118 50.9684,-10.8357 c 0.8178,-0.1738 1.3395,-0.9773 1.1657,-1.7951 -0.1739,-0.8177 -0.9774,-1.3395 -1.7951,-1.1656 l -50.9685,10.8356 c -0.8177,0.1738 -1.3395,0.9774 -1.1657,1.7951 0.1739,0.8178 0.9774,1.3396 1.7952,1.1657 z" clip-path="url(#1929324173997-clipPath1)" id="path94" ns1:connector-curvature="0" style="fill:#c4b5fd;stroke:none" />
    </g>
    <g id="g96" style="fill:#fda4af;stroke:none;text-rendering:geometricPrecision">
      <path d="M 236.9116,136.5234 271.634,97.9675 c 0.5595,-0.6213 0.5094,-1.578 -0.1118,-2.1375 -0.6213,-0.5595 -1.578,-0.5094 -2.1375,0.1118 l -34.7224,38.5559 c -0.5595,0.6213 -0.5094,1.578 0.1118,2.1375 0.6213,0.5595 1.578,0.5094 2.1375,-0.1118 z" clip-path="url(#1929324173407-clipPath1)" id="path98" ns1:connector-curvature="0" style="stroke:none" />
      <path d="M 236.9116,136.5234 271.634,97.9675 c 0.5595,-0.6213 0.5094,-1.578 -0.1118,-2.1375 -0.6213,-0.5595 -1.578,-0.5094 -2.1375,0.1118 l -34.7224,38.5559 c -0.5595,0.6213 -0.5094,1.578 0.1118,2.1375 0.6213,0.5595 1.578,0.5094 2.1375,-0.1118 z" clip-path="url(#1929324173923-clipPath1)" id="path100" ns1:connector-curvature="0" style="fill:#f0abfc;stroke:none" />
    </g>
    <g id="g102" style="text-rendering:geometricPrecision;fill:#f0abfc;stroke:none">
      <path d="m 504.4549,178.1502 0,-52.5805 c 0,-0.836 -0.6774,-1.5135 -1.5135,-1.5135 -0.836,0 -1.5135,0.6775 -1.5135,1.5135 l 0,52.5805 c 0,0.836 0.6775,1.5135 1.5135,1.5135 0.8361,0 1.5135,-0.6775 1.5135,-1.5135 z" clip-path="url(#1929324173407-clipPath1)" id="path104" ns1:connector-curvature="0" style="stroke:none" />
      <path d="m 504.4549,178.1502 0,-52.5805 c 0,-0.836 -0.6774,-1.5135 -1.5135,-1.5135 -0.836,0 -1.5135,0.6775 -1.5135,1.5135 l 0,52.5805 c 0,0.836 0.6775,1.5135 1.5135,1.5135 0.8361,0 1.5135,-0.6775 1.5135,-1.5135 z" clip-path="url(#1929324173480-clipPath1)" id="path106" ns1:connector-curvature="0" style="fill:#c4b5fd;stroke:none" />
    </g>
    <g id="g108" style="text-rendering:geometricPrecision;fill:#f0abfc;stroke:none">
      <path d="m 515.0603,204.2376 47.6799,27.528 c 0.724,0.4181 1.6494,0.1701 2.0674,-0.5539 0.418,-0.7241 0.1701,-1.6495 -0.5539,-2.0675 l -47.6799,-27.528 c -0.7241,-0.418 -1.6495,-0.17 -2.0675,0.554 -0.418,0.724 -0.1701,1.6494 0.554,2.0674 z" clip-path="url(#1929324173407-clipPath1)" id="path110" ns1:connector-curvature="0" style="stroke:none" />
      <path d="m 515.0603,204.2376 47.6799,27.528 c 0.724,0.4181 1.6494,0.1701 2.0674,-0.5539 0.418,-0.7241 0.1701,-1.6495 -0.5539,-2.0675 l -47.6799,-27.528 c -0.7241,-0.418 -1.6495,-0.17 -2.0675,0.554 -0.418,0.724 -0.1701,1.6494 0.554,2.0674 z" clip-path="url(#1929324173150-clipPath1)" id="path112" ns1:connector-curvature="0" style="fill:#c4b5fd;stroke:none" />
    </g>
    <g id="g114" style="text-rendering:geometricPrecision;fill:#f0abfc;stroke:none">
      <path d="m 503.6982,126.8804 60.5555,-34.9617 c 0.724,-0.418 0.9719,-1.3435 0.5539,-2.0675 -0.418,-0.724 -1.3434,-0.972 -2.0674,-0.554 l -60.5555,34.9618 c -0.7241,0.418 -0.972,1.3434 -0.554,2.0674 0.418,0.7241 1.3434,0.972 2.0675,0.554 z" clip-path="url(#1929324173407-clipPath1)" id="path116" ns1:connector-curvature="0" style="stroke:none" />
    </g>
    <g id="g118" style="text-rendering:geometricPrecision;fill:#f0abfc;stroke:none">
      <path d="m 564.2537,231.7656 60.5554,-34.9617 c 0.7241,-0.418 0.9721,-1.3434 0.5541,-2.0675 -0.4181,-0.724 -1.3435,-0.9719 -2.0675,-0.5539 l -60.5555,34.9617 c -0.724,0.418 -0.972,1.3434 -0.554,2.0675 0.418,0.724 1.3435,0.972 2.0675,0.5539 z" clip-path="url(#1929324173407-clipPath1)" id="path120" ns1:connector-curvature="0" style="stroke:none" />
    </g>
    <g id="g122" style="text-rendering:geometricPrecision;fill:#f0abfc;stroke:none">
      <path d="m 623.2957,196.8039 55.3126,31.9348 c 0.7241,0.418 1.6495,0.17 2.0675,-0.554 0.418,-0.724 0.1701,-1.6494 -0.554,-2.0675 l -55.3127,-31.9347 c -0.724,-0.418 -1.6494,-0.1701 -2.0674,0.5539 -0.418,0.7241 -0.17,1.6495 0.554,2.0675 z" clip-path="url(#1929324173407-clipPath1)" id="path124" ns1:connector-curvature="0" style="stroke:none" />
    </g>
    <g id="g126" style="text-rendering:geometricPrecision;fill:#f0abfc;stroke:none">
      <path d="m 565.0104,90.608 0,-63.8696 c 0,-0.836 -0.6775,-1.5135 -1.5135,-1.5135 -0.836,0 -1.5134,0.6775 -1.5134,1.5135 l 0,63.8696 c 0,0.836 0.6774,1.5134 1.5134,1.5134 0.836,0 1.5135,-0.6774 1.5135,-1.5134 z" clip-path="url(#1929324173407-clipPath1)" id="path128" ns1:connector-curvature="0" style="stroke:none" />
    </g>
    <g id="g130" style="fill:#eef2ff;stroke:none;text-rendering:geometricPrecision">
      </g>
    <g font-size="24px" transform="translate(494.0352,180.9932)" id="g134" style="font-size:24px;font-family:sans-serif;fill:#c4b5fd;stroke:none;text-rendering:geometricPrecision">
      <text x="0" xml:space="preserve" y="23" clip-path="url(#1929324173907-clipPath1)" id="text136" style="stroke:none">N</text>
    </g>
    <g font-size="24px" id="g138" style="font-size:24px;font-family:sans-serif;fill:#eef2ff;stroke:none;text-rendering:geometricPrecision">
      <text x="0" y="23" transform="translate(222.9413,300.0356)" clip-path="url(#1929324173700-clipPath1)" xml:space="preserve" id="text142" style="fill:#c4b5fd;stroke:none">HN</text>
    </g>
    <g font-size="24px" id="g144" style="font-size:24px;font-family:sans-serif;fill:#eef2ff;stroke:none;text-rendering:geometricPrecision">
      <text x="0" y="23" transform="translate(272.6266,69.0517)" clip-path="url(#1929324173511-clipPath1)" xml:space="preserve" id="text148" style="fill:#fda4af;stroke:none">OH</text>
    </g>
  </g>
</svg>