<?xml version='1.0' encoding='utf-8'?>
<svg xmlns="http://www.w3.org/2000/svg" xmlns:dc="http://purl.org/dc/elements/1.1/" xmlns:ns1="http://www.inkscape.org/namespaces/inkscape" xmlns:ns2="http://sodipodi.sourceforge.net/DTD/sodipodi-0.dtd" xmlns:ns4="http://creativecommons.org/ns#" xmlns:rdf="http://www.w3.org/1999/02/22-rdf-syntax-ns#" width="730.47858" stroke-miterlimit="10" font-weight="normal" height="307.64859" font-style="normal" font-size="12px" id="svg2" version="1.1" ns1:version="0.91 r13725" ns2:docname="4-IA.svg" style="font-style:normal;font-weight:normal;font-size:12px;font-family:Dialog;color-interpolation:auto;fill:#000000;fill-opacity:1;stroke:none;stroke:none;stroke:none;stroke:none;stroke:none;stroke:none;stroke:none;stroke:none;color-rendering:auto;image-rendering:auto;shape-rendering:auto;text-rendering:auto">
  <metadata id="metadata94">
    <rdf:RDF>
      <ns4:Work rdf:about="">
        <dc:format>image/svg+xml</dc:format>
        <dc:type rdf:resource="http://purl.org/dc/dcmitype/StillImage" />
        <dc:title />
      </ns4:Work>
    </rdf:RDF>
  </metadata>
  <ns2:namedview pagecolor="#ffffff" bordercolor="#666666" borderopacity="1" objecttolerance="10" gridtolerance="10" guidetolerance="10" ns1:pageopacity="0" ns1:pageshadow="2" ns1:window-width="1060" ns1:window-height="480" id="namedview92" showgrid="false" fit-margin-top="10" fit-margin-left="10" fit-margin-right="10" fit-margin-bottom="10" ns1:zoom="0.36375" ns1:cx="365.2393" ns1:cy="153.8243" ns1:window-x="0" ns1:window-y="0" ns1:window-maximized="0" ns1:current-layer="svg2" />
  
  <defs id="genericDefs" />
  <g id="g5" transform="translate(-34.7607,-146.1757)" style="fill:#000000;stroke:none">
    <defs id="513113675643-defs1">
      <clipPath clipPathUnits="userSpaceOnUse" id="513113675106-clipPath1">
        <path d="M 0,0 800,0 800,600 0,600 0,0 Z" id="path9" ns1:connector-curvature="0" style="stroke:none" />
      </clipPath>
      <clipPath clipPathUnits="userSpaceOnUse" id="513113675807-clipPath1">
        <path d="m 583.8102,189.164 c -26.9852,0 -48.861,21.8758 -48.861,48.8609 0,26.9852 21.8758,48.861 48.861,48.861 26.9852,0 48.861,-21.8758 48.861,-48.861 0,-26.9851 -21.8758,-48.8609 -48.861,-48.8609 z" id="path12" ns1:connector-curvature="0" style="stroke:none" />
      </clipPath>
      <clipPath clipPathUnits="userSpaceOnUse" id="513113675697-clipPath1">
        <path d="m 154.3728,307.43 c -30.1201,0 -54.5373,24.4172 -54.5373,54.5373 0,30.1201 24.4172,54.5372 54.5373,54.5372 30.1201,0 54.5372,-24.4171 54.5372,-54.5372 0,-30.1201 -24.4171,-54.5373 -54.5372,-54.5373 z" id="path15" ns1:connector-curvature="0" style="stroke:none" />
      </clipPath>
      <clipPath clipPathUnits="userSpaceOnUse" id="513113675808-clipPath1">
        <path d="m -675.0206,-150.0487 800,0 0,600 -800,0 0,-600 z" id="path18" ns1:connector-curvature="0" style="stroke:none" />
      </clipPath>
      <clipPath clipPathUnits="userSpaceOnUse" id="513113675934-clipPath1">
        <path d="m -734.6612,-172.1546 800,0 0,600 -800,0 0,-600 z" id="path21" ns1:connector-curvature="0" style="stroke:none" />
      </clipPath>
      <clipPath clipPathUnits="userSpaceOnUse" id="513113675352-clipPath1">
        <path d="m -40.7607,-397.9513 800,0 0,600 -800,0 0,-600 z" id="path24" ns1:connector-curvature="0" style="stroke:none" />
      </clipPath>
    </defs>
    <g id="g26" style="text-rendering:geometricPrecision;fill:#000000;stroke:none">
      <path d="m 151.6896,361.9673 c 0,1.4821 1.201,2.6831 2.6832,2.6831 1.4821,0 2.6831,-1.201 2.6831,-2.6831 l 0,-123.9786 c 0,-1.4821 -1.201,-2.6831 -2.6831,-2.6831 -1.4822,0 -2.6832,1.201 -2.6832,2.6831 z m 22.3599,-15.5933 c 0,1.4821 1.201,2.6831 2.6832,2.6831 1.4822,0 2.6832,-1.201 2.6832,-2.6831 l 0,-92.791 c 0,-1.4821 -1.201,-2.6831 -2.6832,-2.6831 -1.4822,0 -2.6832,1.201 -2.6832,2.6831 z" clip-path="url(#513113675106-clipPath1)" id="path28" ns1:connector-curvature="0" style="stroke:none" />
    </g>
    <g id="g30" style="text-rendering:geometricPrecision;fill:#000000;stroke:none">
      <path d="m 262.7217,394.4658 c -1.2837,0.741 -1.7234,2.3815 -0.9824,3.6652 0.7409,1.2836 2.3815,1.7234 3.6651,0.9824 L 345.75,352.7351 c 1.2837,-0.741 1.7234,-2.3816 0.9825,-3.6652 -0.741,-1.2837 -2.3816,-1.7234 -3.6652,-0.9824 z m -2.3244,27.1594 c -1.2837,0.741 -1.7234,2.3815 -0.9824,3.6652 0.741,1.2837 2.3815,1.7234 3.6652,0.9824 L 370.433,364.3049 c 1.2836,-0.741 1.7234,-2.3815 0.9824,-3.6652 -0.741,-1.2836 -2.3816,-1.7233 -3.6652,-0.9824 z" clip-path="url(#513113675106-clipPath1)" id="path32" ns1:connector-curvature="0" style="stroke:none" />
    </g>
    <g id="g34" style="text-rendering:geometricPrecision;fill:#000000;stroke:none">
      <path d="m 371.7747,361.9813 0.008,-123.9673 c 0,-1.4822 -1.2009,-2.6833 -2.6831,-2.6834 -1.4821,0 -2.6832,1.2009 -2.6833,2.6831 l -0.008,123.9673 c -10e-5,1.4821 1.2009,2.6832 2.683,2.6833 1.4822,10e-5 2.6833,-1.2009 2.6833,-2.683 z" clip-path="url(#513113675106-clipPath1)" id="path36" ns1:connector-curvature="0" style="stroke:none" />
    </g>
    <g id="g38" style="text-rendering:geometricPrecision;fill:#000000;stroke:none">
      <path d="m 343.0731,251.9042 c 1.2835,0.7411 2.9242,0.3016 3.6653,-0.982 0.7411,-1.2835 0.3016,-2.9242 -0.982,-3.6653 l -80.3599,-46.4004 c -1.2835,-0.7412 -2.9241,-0.3016 -3.6653,0.9819 -0.7411,1.2836 -0.3016,2.9242 0.982,3.6654 z m 24.6843,-11.5668 c 1.2836,0.7412 2.9242,0.3017 3.6653,-0.9819 0.7412,-1.2836 0.3016,-2.9242 -0.9819,-3.6653 L 263.0749,173.6963 c -1.2836,-0.7411 -2.9242,-0.3016 -3.6654,0.9819 -0.7411,1.2836 -0.3016,2.9242 0.982,3.6654 z" clip-path="url(#513113675106-clipPath1)" id="path40" ns1:connector-curvature="0" style="stroke:none" />
    </g>
    <g id="g42" style="text-rendering:geometricPrecision;fill:#000000;stroke:none">
      <path d="m 153.0313,364.291 107.3659,61.9818 c 1.2836,0.741 2.9242,0.3013 3.6652,-0.9823 0.7411,-1.2836 0.3014,-2.9242 -0.9822,-3.6652 L 155.7143,359.6435 c -1.2837,-0.741 -2.9242,-0.3013 -3.6653,0.9823 -0.741,1.2836 -0.3013,2.9242 0.9823,3.6652 z" clip-path="url(#513113675106-clipPath1)" id="path44" ns1:connector-curvature="0" style="stroke:none" />
    </g>
    <g id="g46" style="text-rendering:geometricPrecision;fill:#000000;stroke:none">
      <path d="m 260.3918,173.6961 -107.3604,61.9688 c -1.2836,0.7409 -1.7234,2.3815 -0.9824,3.6651 0.7409,1.2837 2.3814,1.7235 3.6651,0.9825 l 107.3604,-61.9687 c 1.2837,-0.741 1.7235,-2.3815 0.9825,-3.6652 -0.7409,-1.2837 -2.3815,-1.7235 -3.6652,-0.9825 z" clip-path="url(#513113675106-clipPath1)" id="path48" ns1:connector-curvature="0" style="stroke:none" />
    </g>
    <g id="g50" style="text-rendering:geometricPrecision;fill:#000000;stroke:none">
      <path d="m 370.4406,240.3376 107.3587,-61.9762 c 1.2836,-0.741 1.7233,-2.3816 0.9823,-3.6652 -0.741,-1.2837 -2.3816,-1.7234 -3.6652,-0.9823 L 367.7576,235.69 c -1.2836,0.7411 -1.7233,2.3816 -0.9823,3.6653 0.7411,1.2836 2.3816,1.7233 3.6653,0.9823 z" clip-path="url(#513113675106-clipPath1)" id="path52" ns1:connector-curvature="0" style="stroke:none" />
    </g>
    <g id="g54" style="text-rendering:geometricPrecision;fill:#000000;stroke:none">
      <path d="m 475.1161,178.3612 107.3524,61.9874 c 1.2836,0.7411 2.9242,0.3016 3.6654,-0.982 0.7411,-1.2835 0.3016,-2.9241 -0.982,-3.6653 L 477.7996,173.714 c -1.2836,-0.7412 -2.9242,-0.3016 -3.6654,0.9819 -0.7411,1.2836 -0.3016,2.9242 0.9819,3.6653 z" clip-path="url(#513113675106-clipPath1)" id="path56" ns1:connector-curvature="0" style="stroke:none" />
    </g>
    <g id="g58" style="fill:#333399;stroke:none;text-rendering:geometricPrecision">
      <path d="m 585.1517,240.3487 84.6322,-48.8566 c 1.2837,-0.741 1.7233,-2.3816 0.9823,-3.6652 -0.741,-1.2837 -2.3816,-1.7233 -3.6652,-0.9823 l -84.6322,48.8566 c -1.2837,0.741 -1.7234,2.3816 -0.9823,3.6652 0.741,1.2836 2.3815,1.7233 3.6652,0.9823 z" clip-path="url(#513113675106-clipPath1)" id="path60" ns1:connector-curvature="0" style="stroke:none" />
      <path d="m 585.1517,240.3487 84.6322,-48.8566 c 1.2837,-0.741 1.7233,-2.3816 0.9823,-3.6652 -0.741,-1.2837 -2.3816,-1.7233 -3.6652,-0.9823 l -84.6322,48.8566 c -1.2837,0.741 -1.7234,2.3816 -0.9823,3.6652 0.741,1.2836 2.3815,1.7233 3.6652,0.9823 z" clip-path="url(#513113675807-clipPath1)" id="path62" ns1:connector-curvature="0" style="fill:#000000;stroke:none" />
    </g>
    <g id="g64" style="text-rendering:geometricPrecision;fill:#000000;stroke:none">
      <path d="m 581.1271,238.0248 -0.006,113.2308 c -10e-5,1.4822 1.2008,2.6833 2.683,2.6834 1.4822,0 2.6832,-1.2009 2.6833,-2.6831 l 0.006,-113.2308 c 1e-4,-1.4822 -1.2009,-2.6833 -2.683,-2.6833 -1.4822,-1e-4 -2.6833,1.2008 -2.6833,2.683 z" clip-path="url(#513113675106-clipPath1)" id="path66" ns1:connector-curvature="0" style="stroke:none" />
    </g>
    <g id="g68" style="fill:#660099;stroke:none;text-rendering:geometricPrecision">
      <path d="M 153.0311,359.6436 58.571,414.1828 c -1.2836,0.7412 -1.7232,2.3817 -0.9821,3.6653 0.7412,1.2836 2.3818,1.7232 3.6653,0.9821 l 94.4602,-54.5393 c 1.2836,-0.7411 1.7231,-2.3817 0.982,-3.6653 -0.7411,-1.2836 -2.3817,-1.7231 -3.6653,-0.982 z" clip-path="url(#513113675106-clipPath1)" id="path70" ns1:connector-curvature="0" style="stroke:none" />
      <path d="M 153.0311,359.6436 58.571,414.1828 c -1.2836,0.7412 -1.7232,2.3817 -0.9821,3.6653 0.7412,1.2836 2.3818,1.7232 3.6653,0.9821 l 94.4602,-54.5393 c 1.2836,-0.7411 1.7231,-2.3817 0.982,-3.6653 -0.7411,-1.2836 -2.3817,-1.7231 -3.6653,-0.982 z" clip-path="url(#513113675697-clipPath1)" id="path72" ns1:connector-curvature="0" style="fill:#000000;stroke:none" />
    </g>
    <g id="g74" style="fill:#ffffff;stroke:none;text-rendering:geometricPrecision">
      </g>
    <g font-size="44px" transform="translate(675.0206,150.0487)" id="g78" style="font-size:44px;font-family:sans-serif;fill:#333399;stroke:none;text-rendering:geometricPrecision">
      <text x="0" xml:space="preserve" y="42" clip-path="url(#513113675808-clipPath1)" id="text80" style="stroke:none">NH</text>
    </g>
    <g font-size="35px" transform="translate(734.6612,172.1546)" id="g82" style="font-size:35px;font-family:sans-serif;fill:#333399;stroke:none;text-rendering:geometricPrecision">
      <text x="0" xml:space="preserve" y="34" clip-path="url(#513113675934-clipPath1)" id="text84" style="stroke:none">2</text>
    </g>
    <g font-size="35px" id="g86" style="font-size:35px;font-family:sans-serif;fill:#ffffff;stroke:none;text-rendering:geometricPrecision">
      <text x="0" font-size="44px" y="42" transform="translate(40.7607,397.9513)" clip-path="url(#513113675352-clipPath1)" xml:space="preserve" id="text90" style="font-size:44px;fill:#660099;stroke:none">I</text>
    </g>
  </g>
</svg>