<?xml version='1.0' encoding='utf-8'?>
<svg xmlns="http://www.w3.org/2000/svg" xmlns:dc="http://purl.org/dc/elements/1.1/" xmlns:ns1="http://www.inkscape.org/namespaces/inkscape" xmlns:ns2="http://sodipodi.sourceforge.net/DTD/sodipodi-0.dtd" xmlns:ns4="http://creativecommons.org/ns#" xmlns:rdf="http://www.w3.org/1999/02/22-rdf-syntax-ns#" width="548.24707" stroke-miterlimit="10" font-weight="normal" height="337.74619" font-style="normal" font-size="12px" id="svg2" version="1.1" ns1:version="0.91 r13725" ns2:docname="4-methyl-NEP.svg" style="font-style:normal;font-weight:normal;font-size:12px;font-family:Dialog;color-interpolation:auto;fill:#f0abfc;fill-opacity:1;stroke:none;stroke:none;stroke:none;stroke:none;stroke:none;stroke:none;stroke:none;stroke:none;color-rendering:auto;image-rendering:auto;shape-rendering:auto;text-rendering:auto">
  <metadata id="metadata119">
    <rdf:RDF>
      <ns4:Work rdf:about="">
        <dc:format>image/svg+xml</dc:format>
        <dc:type rdf:resource="http://purl.org/dc/dcmitype/StillImage" />
        <dc:title />
      </ns4:Work>
    </rdf:RDF>
  </metadata>
  <ns2:namedview pagecolor="#eef2ff" bordercolor="#666666" borderopacity="1" objecttolerance="10" gridtolerance="10" guidetolerance="10" ns1:pageopacity="0" ns1:pageshadow="2" ns1:window-width="1060" ns1:window-height="480" id="namedview117" showgrid="false" fit-margin-top="10" fit-margin-left="10" fit-margin-right="10" fit-margin-bottom="10" ns1:zoom="0.36375" ns1:cx="501.41361" ns1:cy="168.8731" ns1:window-x="0" ns1:window-y="0" ns1:window-maximized="0" ns1:current-layer="svg2" />
  
  <defs id="genericDefs" />
  <g id="g5" transform="translate(-18.174015,-131.1269)" style="fill:#f0abfc;stroke:none">
    <defs id="1393218239156-defs1">
      <clipPath clipPathUnits="userSpaceOnUse" id="1393218239780-clipPath1">
        <path d="M 0,0 800,0 800,600 0,600 0,0 Z" id="path9" ns1:connector-curvature="0" style="stroke:none" />
      </clipPath>
      <clipPath clipPathUnits="userSpaceOnUse" id="1393218239583-clipPath1">
        <path d="m 359.3599,239.873 c -16.8075,0 -30.4327,13.6252 -30.4327,30.4327 0,16.8075 13.6252,30.4326 30.4327,30.4326 16.8075,0 30.4326,-13.6251 30.4326,-30.4326 0,-16.8075 -13.6251,-30.4327 -30.4326,-30.4327 z" id="path12" ns1:connector-curvature="0" style="stroke:none" />
      </clipPath>
      <clipPath clipPathUnits="userSpaceOnUse" id="1393218239115-clipPath1">
        <path d="m 292.2958,202.9807 c -15.7988,0 -28.6063,12.8075 -28.6063,28.6063 0,15.7988 12.8075,28.6062 28.6063,28.6062 15.7988,0 28.6062,-12.8074 28.6062,-28.6062 0,-15.7988 -12.8074,-28.6063 -28.6062,-28.6063 z" id="path15" ns1:connector-curvature="0" style="stroke:none" />
      </clipPath>
      <clipPath clipPathUnits="userSpaceOnUse" id="1393218239343-clipPath1">
        <path d="m 440.7762,209.4396 c -16.8075,0 -30.4327,13.6251 -30.4327,30.4327 0,16.8075 13.6252,30.4327 30.4327,30.4327 16.8075,0 30.4327,-13.6252 30.4327,-30.4327 0,-16.8076 -13.6252,-30.4327 -30.4327,-30.4327 z" id="path18" ns1:connector-curvature="0" style="stroke:none" />
      </clipPath>
      <clipPath clipPathUnits="userSpaceOnUse" id="1393218239872-clipPath1">
        <path d="m -281.8341,-138.1484 799.9999,0 0,600 -799.9999,0 0,-600 z" id="path21" ns1:connector-curvature="0" style="stroke:none" />
      </clipPath>
      <clipPath clipPathUnits="userSpaceOnUse" id="1393218239280-clipPath1">
        <path d="m -416.1899,-187.9292 800,0 0,600 -800,0 0,-600 z" id="path24" ns1:connector-curvature="0" style="stroke:none" />
      </clipPath>
      <clipPath clipPathUnits="userSpaceOnUse" id="1393218239117-clipPath1">
        <path d="m -416.1889,-215.5858 800,0 0,600 -800,0 0,-600 z" id="path27" ns1:connector-curvature="0" style="stroke:none" />
      </clipPath>
    </defs>
    <g id="g29" style="text-rendering:geometricPrecision;fill:#f0abfc;stroke:none">
      <path d="m 157.5529,250.0062 c 0.8018,-0.463 1.0764,-1.4879 0.6134,-2.2897 -0.463,-0.8018 -1.4878,-1.0764 -2.2897,-0.6134 l -50.1865,28.9781 c -0.8018,0.463 -1.0764,1.4878 -0.6134,2.2897 0.463,0.8018 1.4879,1.0764 2.2897,0.6134 z m 1.4511,-16.9671 c 0.8018,-0.463 1.0764,-1.4878 0.6134,-2.2897 -0.463,-0.8018 -1.4879,-1.0764 -2.2897,-0.6134 l -67.0571,38.7193 c -0.8018,0.463 -1.0764,1.4878 -0.6134,2.2897 0.463,0.8018 1.4878,1.0764 2.2897,0.6134 z" clip-path="url(#1393218239780-clipPath1)" id="path31" ns1:connector-curvature="0" style="stroke:none" />
    </g>
    <g id="g33" style="text-rendering:geometricPrecision;fill:#f0abfc;stroke:none">
      <path d="m 89.4326,270.3069 0,77.4479 c 0,0.9259 0.7502,1.6761 1.6761,1.6761 0.9259,0 1.6762,-0.7502 1.6762,-1.6761 l 0,-77.4479 c 0,-0.9259 -0.7503,-1.6762 -1.6762,-1.6762 -0.9259,0 -1.6761,0.7503 -1.6761,1.6762 z" clip-path="url(#1393218239780-clipPath1)" id="path35" ns1:connector-curvature="0" style="stroke:none" />
    </g>
    <g id="g37" style="text-rendering:geometricPrecision;fill:#f0abfc;stroke:none">
      <path d="m 107.3664,339.0774 c -0.8018,-0.463 -1.8267,-0.1884 -2.2897,0.6134 -0.463,0.8018 -0.1884,1.8267 0.6134,2.2897 l 50.1865,28.9781 c 0.8019,0.4629 1.8267,0.1884 2.2897,-0.6134 0.463,-0.8019 0.1884,-1.8268 -0.6134,-2.2897 z m -15.4195,7.2259 c -0.8019,-0.463 -1.8267,-0.1885 -2.2897,0.6134 -0.463,0.8018 -0.1884,1.8267 0.6134,2.2897 l 67.0571,38.7193 c 0.8018,0.4629 1.8267,0.1883 2.2897,-0.6135 0.463,-0.8018 0.1884,-1.8267 -0.6134,-2.2896 z" clip-path="url(#1393218239780-clipPath1)" id="path39" ns1:connector-curvature="0" style="stroke:none" />
    </g>
    <g id="g41" style="text-rendering:geometricPrecision;fill:#f0abfc;stroke:none">
      <path d="m 159.0039,387.9257 67.0665,-38.7193 c 0.8018,-0.4629 1.0765,-1.4878 0.6135,-2.2896 -0.4629,-0.8019 -1.4877,-1.0765 -2.2896,-0.6136 l -67.0665,38.7193 c -0.8019,0.4629 -1.0765,1.4878 -0.6136,2.2896 0.463,0.8019 1.4878,1.0765 2.2897,0.6136 z" clip-path="url(#1393218239780-clipPath1)" id="path43" ns1:connector-curvature="0" style="stroke:none" />
    </g>
    <g id="g45" style="text-rendering:geometricPrecision;fill:#f0abfc;stroke:none">
      <path d="m 209.5882,338.0141 c 0,0.9259 0.7503,1.6761 1.6762,1.6761 0.9258,0 1.6761,-0.7502 1.6761,-1.6761 l 0,-57.9665 c 0,-0.9259 -0.7503,-1.6762 -1.6761,-1.6762 -0.9259,0 -1.6762,0.7503 -1.6762,1.6762 z m 13.968,9.7407 c 0,0.9259 0.7502,1.6761 1.6761,1.6761 0.9259,0 1.6762,-0.7502 1.6762,-1.6761 l 0,-77.4479 c 0,-0.9259 -0.7503,-1.6762 -1.6762,-1.6762 -0.9259,0 -1.6761,0.7503 -1.6761,1.6762 z" clip-path="url(#1393218239780-clipPath1)" id="path47" ns1:connector-curvature="0" style="stroke:none" />
    </g>
    <g id="g49" style="text-rendering:geometricPrecision;fill:#f0abfc;stroke:none">
      <path d="M 226.0704,268.8553 159.0039,230.136 c -0.8019,-0.463 -1.8267,-0.1883 -2.2897,0.6135 -0.4629,0.8019 -0.1883,1.8267 0.6136,2.2897 l 67.0665,38.7193 c 0.8019,0.4629 1.8267,0.1882 2.2896,-0.6136 0.463,-0.8019 0.1883,-1.8267 -0.6135,-2.2896 z" clip-path="url(#1393218239780-clipPath1)" id="path51" ns1:connector-curvature="0" style="stroke:none" />
    </g>
    <g id="g53" style="text-rendering:geometricPrecision;fill:#f0abfc;stroke:none">
      <path d="m 226.0704,271.7584 67.0635,-38.7199 c 0.8018,-0.4629 1.0764,-1.4878 0.6134,-2.2896 -0.4629,-0.8018 -1.4878,-1.0765 -2.2896,-0.6135 l -67.0634,38.7199 c -0.8019,0.4629 -1.0765,1.4878 -0.6135,2.2896 0.4629,0.8019 1.4878,1.0765 2.2896,0.6135 z" clip-path="url(#1393218239780-clipPath1)" id="path55" ns1:connector-curvature="0" style="stroke:none" />
    </g>
    <g id="g57" style="text-rendering:geometricPrecision;fill:#f0abfc;stroke:none">
      <path d="m 291.4577,233.0386 67.0641,38.7187 c 0.8019,0.4629 1.8267,0.1883 2.2897,-0.6136 0.4629,-0.8018 0.1883,-1.8267 -0.6136,-2.2896 l -67.0641,-38.7187 c -0.8018,-0.463 -1.8267,-0.1883 -2.2896,0.6135 -0.4629,0.8019 -0.1883,1.8267 0.6135,2.2897 z" clip-path="url(#1393218239780-clipPath1)" id="path59" ns1:connector-curvature="0" style="stroke:none" />
    </g>
    <g id="g61" style="text-rendering:geometricPrecision;fill:#f0abfc;stroke:none">
      <path d="m 357.6837,270.3057 7e-4,77.4386 c 0,0.9259 0.7503,1.6761 1.6762,1.6761 0.9259,0 1.6761,-0.7503 1.6761,-1.6762 l -7e-4,-77.4385 c 0,-0.9259 -0.7502,-1.6762 -1.6761,-1.6762 -0.9259,0 -1.6762,0.7503 -1.6762,1.6762 z" clip-path="url(#1393218239780-clipPath1)" id="path63" ns1:connector-curvature="0" style="stroke:none" />
    </g>
    <g id="g65" style="fill:#c4b5fd;stroke:none;text-rendering:geometricPrecision">
      <path d="m 360.198,271.7572 52.7106,-30.4331 c 0.8019,-0.4629 1.0765,-1.4878 0.6135,-2.2896 -0.4629,-0.8019 -1.4878,-1.0765 -2.2896,-0.6135 l -52.7107,30.4331 c -0.8018,0.4629 -1.0765,1.4878 -0.6135,2.2896 0.463,0.8019 1.4878,1.0765 2.2897,0.6135 z" clip-path="url(#1393218239780-clipPath1)" id="path67" ns1:connector-curvature="0" style="stroke:none" />
      <path d="m 360.198,271.7572 52.7106,-30.4331 c 0.8019,-0.4629 1.0765,-1.4878 0.6135,-2.2896 -0.4629,-0.8019 -1.4878,-1.0765 -2.2896,-0.6135 l -52.7107,30.4331 c -0.8018,0.4629 -1.0765,1.4878 -0.6135,2.2896 0.463,0.8019 1.4878,1.0765 2.2897,0.6135 z" clip-path="url(#1393218239583-clipPath1)" id="path69" ns1:connector-curvature="0" style="fill:#f0abfc;stroke:none" />
    </g>
    <g id="g71" style="fill:#fda4af;stroke:none;text-rendering:geometricPrecision">
      <path d="m 283.6357,235.6193 c 0,0.9259 0.7502,1.6761 1.6761,1.6761 0.9259,0 1.6762,-0.7503 1.6761,-1.6762 l -5e-4,-61.2447 c 0,-0.9259 -0.7502,-1.6761 -1.6762,-1.6761 -0.9258,0 -1.6761,0.7502 -1.6761,1.6761 z m 13.968,-2e-4 c 0,0.9259 0.7502,1.6762 1.6761,1.6762 0.9259,0 1.6762,-0.7503 1.6761,-1.6762 l -5e-4,-61.2447 c 0,-0.9259 -0.7503,-1.6762 -1.6762,-1.6762 -0.9258,10e-5 -1.6761,0.7503 -1.6761,1.6762 z" clip-path="url(#1393218239780-clipPath1)" id="path73" ns1:connector-curvature="0" style="stroke:none" />
      <path d="m 283.6357,235.6193 c 0,0.9259 0.7502,1.6761 1.6761,1.6761 0.9259,0 1.6762,-0.7503 1.6761,-1.6762 l -5e-4,-61.2447 c 0,-0.9259 -0.7502,-1.6761 -1.6762,-1.6761 -0.9258,0 -1.6761,0.7502 -1.6761,1.6761 z m 13.968,-2e-4 c 0,0.9259 0.7502,1.6762 1.6761,1.6762 0.9259,0 1.6762,-0.7503 1.6761,-1.6762 l -5e-4,-61.2447 c 0,-0.9259 -0.7503,-1.6762 -1.6762,-1.6762 -0.9258,10e-5 -1.6761,0.7503 -1.6761,1.6762 z" clip-path="url(#1393218239115-clipPath1)" id="path75" ns1:connector-curvature="0" style="fill:#f0abfc;stroke:none" />
    </g>
    <g id="g77" style="text-rendering:geometricPrecision;fill:#f0abfc;stroke:none">
      <path d="m 358.5225,349.1958 67.0641,38.7187 c 0.8019,0.463 1.8267,0.1883 2.2897,-0.6135 0.4629,-0.8019 0.1883,-1.8267 -0.6136,-2.2896 l -67.0641,-38.7187 c -0.8018,-0.463 -1.8267,-0.1884 -2.2896,0.6135 -0.463,0.8018 -0.1883,1.8267 0.6135,2.2896 z" clip-path="url(#1393218239780-clipPath1)" id="path79" ns1:connector-curvature="0" style="stroke:none" />
    </g>
    <g id="g81" style="text-rendering:geometricPrecision;fill:#f0abfc;stroke:none">
      <path d="m 439.9381,241.3239 52.7113,30.4322 c 0.8018,0.4629 1.8267,0.1883 2.2896,-0.6136 0.4629,-0.8018 0.1883,-1.8267 -0.6135,-2.2896 l -52.7112,-30.4322 c -0.8019,-0.463 -1.8268,-0.1884 -2.2897,0.6135 -0.4629,0.8018 -0.1883,1.8267 0.6135,2.2897 z" clip-path="url(#1393218239780-clipPath1)" id="path83" ns1:connector-curvature="0" style="stroke:none" />
      <path d="m 439.9381,241.3239 52.7113,30.4322 c 0.8018,0.4629 1.8267,0.1883 2.2896,-0.6136 0.4629,-0.8018 0.1883,-1.8267 -0.6135,-2.2896 l -52.7112,-30.4322 c -0.8019,-0.463 -1.8268,-0.1884 -2.2897,0.6135 -0.4629,0.8018 -0.1883,1.8267 0.6135,2.2897 z" clip-path="url(#1393218239343-clipPath1)" id="path85" ns1:connector-curvature="0" style="fill:#c4b5fd;stroke:none" />
    </g>
    <g id="g87" style="text-rendering:geometricPrecision;fill:#f0abfc;stroke:none">
      <path d="m 494.3255,271.7561 61.2571,-35.3676 c 0.8019,-0.4629 1.0765,-1.4878 0.6136,-2.2896 -0.463,-0.8019 -1.4879,-1.0765 -2.2897,-0.6135 l -61.2571,35.3675 c -0.8019,0.463 -1.0765,1.4878 -0.6135,2.2897 0.4629,0.8018 1.4878,1.0764 2.2896,0.6135 z" clip-path="url(#1393218239780-clipPath1)" id="path89" ns1:connector-curvature="0" style="stroke:none" />
    </g>
    <g id="g91" style="text-rendering:geometricPrecision;fill:#f0abfc;stroke:none">
      <path d="m 424.7485,386.463 7e-4,70.734 c 0,0.9259 0.7502,1.6761 1.6761,1.6761 0.9259,0 1.6761,-0.7503 1.6761,-1.6762 l -6e-4,-70.734 c 0,-0.9259 -0.7502,-1.6761 -1.6761,-1.6761 -0.9259,0 -1.6762,0.7503 -1.6762,1.6762 z" clip-path="url(#1393218239780-clipPath1)" id="path93" ns1:connector-curvature="0" style="stroke:none" />
    </g>
    <g id="g95" style="text-rendering:geometricPrecision;fill:#f0abfc;stroke:none">
      <path d="m 90.2707,346.3032 -61.2582,35.3657 c -0.8019,0.4629 -1.0765,1.4878 -0.6136,2.2896 0.463,0.8019 1.4878,1.0765 2.2897,0.6136 l 61.2582,-35.3657 c 0.8018,-0.4629 1.0765,-1.4878 0.6135,-2.2896 -0.4629,-0.8019 -1.4878,-1.0765 -2.2896,-0.6136 z" clip-path="url(#1393218239780-clipPath1)" id="path97" ns1:connector-curvature="0" style="stroke:none" />
    </g>
    <g id="g99" style="fill:#eef2ff;stroke:none;text-rendering:geometricPrecision">
      </g>
    <g font-size="27px" transform="translate(281.8342,138.1484)" id="g103" style="font-size:27px;font-family:sans-serif;fill:#fda4af;stroke:none;text-rendering:geometricPrecision">
      <text x="0" xml:space="preserve" y="26" clip-path="url(#1393218239872-clipPath1)" id="text105" style="stroke:none">O</text>
    </g>
    <g font-size="27px" id="g107" style="font-size:27px;font-family:sans-serif;fill:#eef2ff;stroke:none;text-rendering:geometricPrecision">
      <text x="0" y="26" transform="translate(416.1899,187.9292)" clip-path="url(#1393218239280-clipPath1)" xml:space="preserve" id="text111" style="fill:#c4b5fd;stroke:none">H</text>
    </g>
    <g font-size="27px" transform="translate(416.1889,215.5858)" id="g113" style="font-size:27px;font-family:sans-serif;fill:#c4b5fd;stroke:none;text-rendering:geometricPrecision">
      <text x="0" xml:space="preserve" y="26" clip-path="url(#1393218239117-clipPath1)" id="text115" style="stroke:none">N</text>
    </g>
  </g>
</svg>