<?xml version='1.0' encoding='utf-8'?>
<svg xmlns="http://www.w3.org/2000/svg" xmlns:dc="http://purl.org/dc/elements/1.1/" xmlns:ns1="http://www.inkscape.org/namespaces/inkscape" xmlns:ns2="http://sodipodi.sourceforge.net/DTD/sodipodi-0.dtd" xmlns:ns4="http://creativecommons.org/ns#" xmlns:rdf="http://www.w3.org/1999/02/22-rdf-syntax-ns#" width="731.45087" stroke-miterlimit="10" font-weight="normal" height="538.2641" font-style="normal" font-size="12px" id="svg2" version="1.1" ns1:version="0.91 r13725" ns2:docname="5-MeO-BFE.svg" style="font-style:normal;font-weight:normal;font-size:12px;font-family:Dialog;color-interpolation:auto;fill:#f0abfc;fill-opacity:1;stroke:none;stroke:none;stroke:none;stroke:none;stroke:none;stroke:none;stroke:none;stroke:none;color-rendering:auto;image-rendering:auto;shape-rendering:auto;text-rendering:auto">
  <metadata id="metadata149">
    <rdf:RDF>
      <ns4:Work rdf:about="">
        <dc:format>image/svg+xml</dc:format>
        <dc:type rdf:resource="http://purl.org/dc/dcmitype/StillImage" />
        <dc:title />
      </ns4:Work>
    </rdf:RDF>
  </metadata>
  <ns2:namedview pagecolor="#eef2ff" bordercolor="#666666" borderopacity="1" objecttolerance="10" gridtolerance="10" guidetolerance="10" ns1:pageopacity="0" ns1:pageshadow="2" ns1:window-width="1060" ns1:window-height="480" id="namedview147" showgrid="false" fit-margin-top="10" fit-margin-left="10" fit-margin-right="10" fit-margin-bottom="10" ns1:zoom="0.36375" ns1:cx="365.75055" ns1:cy="269.2697" ns1:window-x="0" ns1:window-y="0" ns1:window-maximized="0" ns1:current-layer="svg2" />
  
  <defs id="genericDefs" />
  <g id="g5" transform="translate(-34.24945,-31.005622)" style="fill:#f0abfc;stroke:none">
    <defs id="20469878692-defs1">
      <clipPath clipPathUnits="userSpaceOnUse" id="2046987869761-clipPath1">
        <path d="M 0,0 800,0 800,600 0,600 0,0 Z" id="path9" ns1:connector-curvature="0" style="stroke:none" />
      </clipPath>
      <clipPath clipPathUnits="userSpaceOnUse" id="204698786933-clipPath1">
        <path d="m 566.1934,359.696 c -24.5799,0 -44.5058,19.9259 -44.5058,44.5057 0,24.5799 19.9259,44.5058 44.5058,44.5058 24.5799,0 44.5058,-19.9259 44.5058,-44.5058 0,-24.5798 -19.9259,-44.5057 -44.5058,-44.5057 z" id="path12" ns1:connector-curvature="0" style="stroke:none" />
      </clipPath>
      <clipPath clipPathUnits="userSpaceOnUse" id="2046987869603-clipPath1">
        <path d="m 191.9949,400.072 c -23.2566,0 -42.1098,18.8532 -42.1098,42.1099 0,23.2566 18.8532,42.1098 42.1098,42.1098 23.2566,0 42.1099,-18.8532 42.1099,-42.1098 0,-23.2567 -18.8533,-42.1099 -42.1099,-42.1099 z" id="path15" ns1:connector-curvature="0" style="stroke:none" />
      </clipPath>
      <clipPath clipPathUnits="userSpaceOnUse" id="2046987869899-clipPath1">
        <path d="m 272.0226,490.5455 c -24.5138,0 -44.3862,19.8724 -44.3862,44.3862 0,24.5138 19.8724,44.3862 44.3862,44.3862 24.5138,0 44.3862,-19.8724 44.3862,-44.3862 0,-24.5138 -19.8724,-44.3862 -44.3862,-44.3862 z" id="path18" ns1:connector-curvature="0" style="stroke:none" />
      </clipPath>
      <clipPath clipPathUnits="userSpaceOnUse" id="2046987869876-clipPath1">
        <path d="m 122.2407,185.6418 c -23.0826,0 -41.7948,18.7122 -41.7948,41.7948 0,23.0827 18.7122,41.7949 41.7948,41.7949 23.0827,0 41.7948,-18.7122 41.7948,-41.7949 0,-23.0826 -18.7121,-41.7948 -41.7948,-41.7948 z" id="path21" ns1:connector-curvature="0" style="stroke:none" />
      </clipPath>
      <clipPath clipPathUnits="userSpaceOnUse" id="2046987869655-clipPath1">
        <path d="m 106.5349,61.5516 c -20.5653,0 -37.2368,16.6714 -37.2368,37.2367 0,20.5653 16.6715,37.2368 37.2368,37.2368 20.5653,0 37.2367,-16.6715 37.2367,-37.2368 0,-20.5653 -16.6714,-37.2367 -37.2367,-37.2367 z" id="path24" ns1:connector-curvature="0" style="stroke:none" />
      </clipPath>
      <clipPath clipPathUnits="userSpaceOnUse" id="204698786998-clipPath1">
        <path d="m 663.957,282.2808 c -20.7863,0 -37.6369,16.8506 -37.6369,37.6369 0,20.7863 16.8506,37.637 37.6369,37.637 20.7863,0 37.6369,-16.8507 37.6369,-37.637 0,-20.7863 -16.8506,-37.6369 -37.6369,-37.6369 z" id="path27" ns1:connector-curvature="0" style="stroke:none" />
      </clipPath>
      <clipPath clipPathUnits="userSpaceOnUse" id="2046987869277-clipPath1">
        <path d="m 684.6343,320.077 c -21.8809,0 -39.6189,17.738 -39.6189,39.619 0,21.8809 17.738,39.6188 39.6189,39.6188 21.881,0 39.619,-17.7379 39.619,-39.6188 0,-21.881 -17.738,-39.619 -39.619,-39.619 z" id="path30" ns1:connector-curvature="0" style="stroke:none" />
      </clipPath>
      <clipPath clipPathUnits="userSpaceOnUse" id="2046987869446-clipPath1">
        <path d="m -648.9102,-324.2579 800.0001,0 0,600 -800.0001,0 0,-600 z" id="path33" ns1:connector-curvature="0" style="stroke:none" />
      </clipPath>
      <clipPath clipPathUnits="userSpaceOnUse" id="2046987869503-clipPath1">
        <path d="m -232.9231,-516.4455 799.9999,0 0,600 -799.9999,0 0,-600 z" id="path36" ns1:connector-curvature="0" style="stroke:none" />
      </clipPath>
      <clipPath clipPathUnits="userSpaceOnUse" id="2046987869626-clipPath1">
        <path d="m -71.8527,-96.5702 800,0 0,600 -800,0 0,-600 z" id="path39" ns1:connector-curvature="0" style="stroke:none" />
      </clipPath>
    </defs>
    <g id="g41" style="text-rendering:geometricPrecision;fill:#f0abfc;stroke:none">
      <path d="m 371.8879,406.3178 97.7636,-56.4439 c 1.1689,-0.6748 1.5692,-2.1689 0.8943,-3.3377 -0.6748,-1.169 -2.1688,-1.5693 -3.3377,-0.8944 l -97.7637,56.4438 c -1.1689,0.6749 -1.5692,2.1689 -0.8943,3.3378 0.6748,1.1689 2.1689,1.5693 3.3378,0.8944 z" clip-path="url(#2046987869761-clipPath1)" id="path43" ns1:connector-curvature="0" style="stroke:none" />
    </g>
    <g id="g45" style="text-rendering:geometricPrecision;fill:#f0abfc;stroke:none">
      <path d="m 467.2081,349.8739 97.7636,56.4439 c 1.1689,0.6749 2.6629,0.2745 3.3377,-0.8944 0.6749,-1.1689 0.2746,-2.6629 -0.8943,-3.3378 l -97.7636,-56.4438 c -1.1689,-0.6749 -2.6629,-0.2746 -3.3378,0.8944 -0.6749,1.1688 -0.2745,2.6629 0.8944,3.3377 z" clip-path="url(#2046987869761-clipPath1)" id="path47" ns1:connector-curvature="0" style="stroke:none" />
    </g>
    <g id="g49" style="text-rendering:geometricPrecision;fill:#f0abfc;stroke:none">
      <path d="m 563.7499,404.2017 0,103.114 c 0,1.3497 1.0937,2.4434 2.4435,2.4434 1.3498,0 2.4434,-1.0937 2.4434,-2.4434 l 0,-103.114 c 0,-1.3497 -1.0936,-2.4434 -2.4434,-2.4434 -1.3498,0 -2.4435,1.0937 -2.4435,2.4434 z" clip-path="url(#2046987869761-clipPath1)" id="path51" ns1:connector-curvature="0" style="stroke:none" />
    </g>
    <g id="g53" style="fill:#c4b5fd;stroke:none;text-rendering:geometricPrecision">
      <path d="m 567.4151,406.3178 77.0863,-44.5058 c 1.1689,-0.6749 1.5692,-2.1689 0.8944,-3.3378 -0.6749,-1.1689 -2.1689,-1.5692 -3.3379,-0.8943 l -77.0862,44.5057 c -1.1689,0.6749 -1.5692,2.1689 -0.8944,3.3378 0.6749,1.1689 2.1689,1.5693 3.3378,0.8944 z" clip-path="url(#2046987869761-clipPath1)" id="path55" ns1:connector-curvature="0" style="stroke:none" />
      <path d="m 567.4151,406.3178 77.0863,-44.5058 c 1.1689,-0.6749 1.5692,-2.1689 0.8944,-3.3378 -0.6749,-1.1689 -2.1689,-1.5692 -3.3379,-0.8943 l -77.0862,44.5057 c -1.1689,0.6749 -1.5692,2.1689 -0.8944,3.3378 0.6749,1.1689 2.1689,1.5693 3.3378,0.8944 z" clip-path="url(#204698786933-clipPath1)" id="path57" ns1:connector-curvature="0" style="fill:#f0abfc;stroke:none" />
    </g>
    <g id="g59" style="text-rendering:geometricPrecision;fill:#f0abfc;stroke:none">
      <path d="m 269.3474,359.9311 c 0.9032,-1.003 0.8223,-2.5476 -0.1807,-3.4508 -1.003,-0.9032 -2.5477,-0.8223 -3.4508,0.1807 l -75.5368,83.8858 c -0.9031,1.003 -0.8223,2.5477 0.1808,3.4508 1.003,0.9032 2.5476,0.8223 3.4508,-0.1807 z m -24.633,-3.0738 c 0.9032,-1.003 0.8223,-2.5476 -0.1807,-3.4508 -1.003,-0.9032 -2.5476,-0.8223 -3.4508,0.1807 l -56.5332,62.7818 c -0.9032,1.003 -0.8223,2.5476 0.1807,3.4508 1.0031,0.9032 2.5477,0.8223 3.4508,-0.1807 z" clip-path="url(#2046987869761-clipPath1)" id="path61" ns1:connector-curvature="0" style="stroke:none" />
    </g>
    <g id="g63" style="text-rendering:geometricPrecision;fill:#f0abfc;stroke:none">
      <path d="M 371.6598,401.9694 268.5252,356.0638 c -1.2331,-0.5489 -2.677,0.006 -3.2259,1.2387 -0.5488,1.2331 0.006,2.677 1.2387,3.2259 l 103.1345,45.9056 c 1.2331,0.5489 2.6771,-0.006 3.2259,-1.2387 0.5489,-1.2331 -0.005,-2.677 -1.2386,-3.2259 z" clip-path="url(#2046987869761-clipPath1)" id="path65" ns1:connector-curvature="0" style="stroke:none" />
    </g>
    <g id="g67" style="text-rendering:geometricPrecision;fill:#f0abfc;stroke:none">
      <path d="m 373.0962,404.4574 c 0.1412,-1.3423 -0.8321,-2.5445 -2.1744,-2.6857 -1.3423,-0.1412 -2.5445,0.832 -2.6857,2.1744 L 356.4243,516.216 c -0.1412,1.3423 0.8321,2.5444 2.1744,2.6857 1.3423,0.1412 2.5445,-0.8321 2.6857,-2.1744 z m -22.0543,15.0154 c 0.1412,-1.3423 -0.832,-2.5444 -2.1743,-2.6857 -1.3424,-0.1412 -2.5445,0.8321 -2.6857,2.1744 l -8.2046,77.9834 c -0.1412,1.3423 0.8321,2.5444 2.1744,2.6857 1.3423,0.1412 2.5444,-0.832 2.6857,-2.1744 z" clip-path="url(#2046987869761-clipPath1)" id="path69" ns1:connector-curvature="0" style="stroke:none" />
    </g>
    <g id="g71" style="fill:#fda4af;stroke:none;text-rendering:geometricPrecision">
      <path d="m 189.8788,443.4036 42.1099,72.9364 c 0.6748,1.1689 2.1689,1.5692 3.3378,0.8943 1.1689,-0.6749 1.5692,-2.1689 0.8943,-3.3378 L 194.111,440.9601 c -0.6749,-1.1689 -2.1689,-1.5692 -3.3378,-0.8943 -1.1689,0.6749 -1.5692,2.1689 -0.8944,3.3378 z" clip-path="url(#2046987869761-clipPath1)" id="path73" ns1:connector-curvature="0" style="stroke:none" />
      <path d="m 189.8788,443.4036 42.1099,72.9364 c 0.6748,1.1689 2.1689,1.5692 3.3378,0.8943 1.1689,-0.6749 1.5692,-2.1689 0.8943,-3.3378 L 194.111,440.9601 c -0.6749,-1.1689 -2.1689,-1.5692 -3.3378,-0.8943 -1.1689,0.6749 -1.5692,2.1689 -0.8944,3.3378 z" clip-path="url(#2046987869603-clipPath1)" id="path75" ns1:connector-curvature="0" style="fill:#f0abfc;stroke:none" />
    </g>
    <g id="g77" style="text-rendering:geometricPrecision;fill:#f0abfc;stroke:none">
      <path d="m 272.5307,537.3217 86.8318,-18.46 c 1.3202,-0.2807 2.1626,-1.5779 1.8819,-2.8981 -0.2807,-1.3203 -1.5779,-2.1626 -2.8981,-1.8819 l -86.8318,18.46 c -1.3203,0.2806 -2.1626,1.5779 -1.882,2.8981 0.2807,1.3202 1.5779,2.1626 2.8982,1.8819 z" clip-path="url(#2046987869761-clipPath1)" id="path79" ns1:connector-curvature="0" style="stroke:none" />
      <path d="m 272.5307,537.3217 86.8318,-18.46 c 1.3202,-0.2807 2.1626,-1.5779 1.8819,-2.8981 -0.2807,-1.3203 -1.5779,-2.1626 -2.8981,-1.8819 l -86.8318,18.46 c -1.3203,0.2806 -2.1626,1.5779 -1.882,2.8981 0.2807,1.3202 1.5779,2.1626 2.8982,1.8819 z" clip-path="url(#2046987869899-clipPath1)" id="path81" ns1:connector-curvature="0" style="fill:#fda4af;stroke:none" />
    </g>
    <g id="g83" style="text-rendering:geometricPrecision;fill:#f0abfc;stroke:none">
      <path d="m 214.0181,270.272 c 1.3202,0.2808 2.6175,-0.5615 2.8983,-1.8817 0.2808,-1.3202 -0.5615,-2.6175 -1.8817,-2.8983 l -82.6325,-17.5747 c -1.3202,-0.2808 -2.6175,0.5615 -2.8982,1.8817 -0.2808,1.3202 0.5614,2.6175 1.8816,2.8983 z m 18.124,-16.9629 c 1.3202,0.2808 2.6175,-0.5614 2.8983,-1.8817 0.2808,-1.3202 -0.5614,-2.6174 -1.8816,-2.8982 L 122.749,225.0467 c -1.3202,-0.2808 -2.6175,0.5614 -2.8983,1.8816 -0.2808,1.3202 0.5615,2.6175 1.8817,2.8983 z" clip-path="url(#2046987869761-clipPath1)" id="path85" ns1:connector-curvature="0" style="stroke:none" />
    </g>
    <g id="g87" style="text-rendering:geometricPrecision;fill:#f0abfc;stroke:none">
      <path d="m 120.425,225.8015 -75.547,83.8871 c -0.9033,1.003 -0.8225,2.5476 0.1805,3.4508 1.0029,0.9033 2.5475,0.8225 3.4508,-0.1805 l 75.5471,-83.8871 c 0.9032,-1.003 0.8224,-2.5476 -0.1805,-3.4508 -1.003,-0.9033 -2.5476,-0.8225 -3.4509,0.1805 z" clip-path="url(#2046987869761-clipPath1)" id="path89" ns1:connector-curvature="0" style="stroke:none" />
    </g>
    <g id="g91" style="text-rendering:geometricPrecision;fill:#f0abfc;stroke:none">
      <path d="m 72.7704,317.7833 c -0.417,-1.2837 -1.795,-1.986 -3.0787,-1.569 -1.2838,0.417 -1.9861,1.795 -1.5691,3.0787 l 26.1062,80.3684 c 0.417,1.2837 1.7951,1.986 3.0788,1.569 1.2837,-0.417 1.986,-1.795 1.569,-3.0788 z m -23.7529,-7.2144 c -0.417,-1.2837 -1.795,-1.986 -3.0788,-1.5691 -1.2837,0.417 -1.986,1.7951 -1.569,3.0788 L 79.2496,419.457 c 0.417,1.2837 1.7951,1.986 3.0788,1.569 1.2837,-0.417 1.986,-1.795 1.569,-3.0787 z" clip-path="url(#2046987869761-clipPath1)" id="path93" ns1:connector-curvature="0" style="stroke:none" />
    </g>
    <g id="g95" style="text-rendering:geometricPrecision;fill:#f0abfc;stroke:none">
      <path d="M 269.8555,357.5411 234.9743,250.1642 c -0.417,-1.2837 -1.7951,-1.986 -3.0788,-1.569 -1.2837,0.4171 -1.986,1.7952 -1.5689,3.0789 l 34.8811,107.3769 c 0.4171,1.2837 1.7951,1.986 3.0788,1.569 1.2838,-0.4171 1.986,-1.7951 1.569,-3.0789 z" clip-path="url(#2046987869761-clipPath1)" id="path97" ns1:connector-curvature="0" style="stroke:none" />
    </g>
    <g id="g99" style="text-rendering:geometricPrecision;fill:#f0abfc;stroke:none">
      <path d="m 81.0653,421.0921 110.4214,23.4798 c 1.3202,0.2807 2.6175,-0.5616 2.8982,-1.8818 0.2807,-1.3203 -0.5616,-2.6175 -1.8818,-2.8982 L 82.0817,416.3121 c -1.3202,-0.2807 -2.6175,0.5616 -2.8982,1.8818 -0.2807,1.3203 0.5616,2.6175 1.8818,2.8982 z" clip-path="url(#2046987869761-clipPath1)" id="path101" ns1:connector-curvature="0" style="stroke:none" />
    </g>
    <g id="g103" style="fill:#fda4af;stroke:none;text-rendering:geometricPrecision">
      <path d="M 124.5646,226.6818 98.7428,147.1805 c -0.417,-1.2837 -1.795,-1.9861 -3.0787,-1.5691 -1.2838,0.417 -1.9861,1.795 -1.5692,3.0787 l 25.8219,79.5014 c 0.4169,1.2837 1.795,1.986 3.0787,1.5691 1.2837,-0.417 1.9861,-1.795 1.5691,-3.0788 z" clip-path="url(#2046987869761-clipPath1)" id="path105" ns1:connector-curvature="0" style="stroke:none" />
      <path d="M 124.5646,226.6818 98.7428,147.1805 c -0.417,-1.2837 -1.795,-1.9861 -3.0787,-1.5691 -1.2838,0.417 -1.9861,1.795 -1.5692,3.0787 l 25.8219,79.5014 c 0.4169,1.2837 1.795,1.986 3.0787,1.5691 1.2837,-0.417 1.9861,-1.795 1.5691,-3.0788 z" clip-path="url(#2046987869876-clipPath1)" id="path107" ns1:connector-curvature="0" style="fill:#f0abfc;stroke:none" />
    </g>
    <g id="g109" style="text-rendering:geometricPrecision;fill:#f0abfc;stroke:none">
      <path d="m 108.3505,100.4235 49.8386,-55.3391 c 0.9033,-1.003 0.8225,-2.5476 -0.1804,-3.4508 -1.003,-0.9033 -2.5476,-0.8225 -3.4509,0.1804 l -49.8386,55.3391 c -0.9032,1.003 -0.8224,2.5476 0.1805,3.4509 1.003,0.9032 2.5476,0.8224 3.4508,-0.1805 z" clip-path="url(#2046987869761-clipPath1)" id="path111" ns1:connector-curvature="0" style="stroke:none" />
      <path d="m 108.3505,100.4235 49.8386,-55.3391 c 0.9033,-1.003 0.8225,-2.5476 -0.1804,-3.4508 -1.003,-0.9033 -2.5476,-0.8225 -3.4509,0.1804 l -49.8386,55.3391 c -0.9032,1.003 -0.8224,2.5476 0.1805,3.4509 1.003,0.9032 2.5476,0.8224 3.4508,-0.1805 z" clip-path="url(#2046987869655-clipPath1)" id="path113" ns1:connector-curvature="0" style="fill:#fda4af;stroke:none" />
    </g>
    <g id="g115" style="text-rendering:geometricPrecision;fill:#f0abfc;stroke:none">
      <path d="m 666.4005,319.9177 0,-75.2738 c 0,-1.3497 -1.0937,-2.4434 -2.4435,-2.4434 -1.3497,0 -2.4435,1.0937 -2.4435,2.4434 l 0,75.2738 c 0,1.3498 1.0938,2.4435 2.4435,2.4435 1.3498,0 2.4435,-1.0937 2.4435,-2.4435 z" clip-path="url(#2046987869761-clipPath1)" id="path117" ns1:connector-curvature="0" style="stroke:none" />
      <path d="m 666.4005,319.9177 0,-75.2738 c 0,-1.3497 -1.0937,-2.4434 -2.4435,-2.4434 -1.3497,0 -2.4435,1.0937 -2.4435,2.4434 l 0,75.2738 c 0,1.3498 1.0938,2.4435 2.4435,2.4435 1.3498,0 2.4435,-1.0937 2.4435,-2.4435 z" clip-path="url(#204698786998-clipPath1)" id="path119" ns1:connector-curvature="0" style="fill:#c4b5fd;stroke:none" />
    </g>
    <g id="g121" style="text-rendering:geometricPrecision;fill:#f0abfc;stroke:none">
      <path d="m 683.4127,361.812 68.6219,39.6189 c 1.1689,0.6749 2.6629,0.2746 3.3378,-0.8943 0.6749,-1.1689 0.2746,-2.6629 -0.8944,-3.3378 l -68.6219,-39.6189 c -1.1689,-0.6749 -2.6629,-0.2746 -3.3378,0.8943 -0.6749,1.1689 -0.2746,2.6629 0.8944,3.3378 z" clip-path="url(#2046987869761-clipPath1)" id="path123" ns1:connector-curvature="0" style="stroke:none" />
      <path d="m 683.4127,361.812 68.6219,39.6189 c 1.1689,0.6749 2.6629,0.2746 3.3378,-0.8943 0.6749,-1.1689 0.2746,-2.6629 -0.8944,-3.3378 l -68.6219,-39.6189 c -1.1689,-0.6749 -2.6629,-0.2746 -3.3378,0.8943 -0.6749,1.1689 -0.2746,2.6629 0.8944,3.3378 z" clip-path="url(#2046987869277-clipPath1)" id="path125" ns1:connector-curvature="0" style="fill:#c4b5fd;stroke:none" />
    </g>
    <g id="g127" style="fill:#eef2ff;stroke:none;text-rendering:geometricPrecision">
      </g>
    <g font-size="40px" transform="translate(648.9101,324.2579)" id="g131" style="font-size:40px;font-family:sans-serif;fill:#c4b5fd;stroke:none;text-rendering:geometricPrecision">
      <text x="0" xml:space="preserve" y="38" clip-path="url(#2046987869446-clipPath1)" id="text133" style="stroke:none">N</text>
    </g>
    <g font-size="40px" id="g135" style="font-size:40px;font-family:sans-serif;fill:#eef2ff;stroke:none;text-rendering:geometricPrecision">
      <text x="0" y="38" transform="translate(232.9231,516.4455)" clip-path="url(#2046987869503-clipPath1)" xml:space="preserve" id="text139" style="fill:#fda4af;stroke:none">O</text>
    </g>
    <g font-size="40px" id="g141" style="font-size:40px;font-family:sans-serif;fill:#eef2ff;stroke:none;text-rendering:geometricPrecision">
      <text x="0" y="38" transform="translate(71.8527,96.5702)" clip-path="url(#2046987869626-clipPath1)" xml:space="preserve" id="text145" style="fill:#fda4af;stroke:none">O</text>
    </g>
  </g>
</svg>