<?xml version='1.0' encoding='utf-8'?>
<svg xmlns="http://www.w3.org/2000/svg" xmlns:dc="http://purl.org/dc/elements/1.1/" xmlns:ns1="http://www.inkscape.org/namespaces/inkscape" xmlns:ns2="http://sodipodi.sourceforge.net/DTD/sodipodi-0.dtd" xmlns:ns4="http://creativecommons.org/ns#" xmlns:rdf="http://www.w3.org/1999/02/22-rdf-syntax-ns#" width="741.68182" stroke-miterlimit="10" font-weight="normal" height="293.27307" font-style="normal" font-size="12px" id="svg2" version="1.1" ns1:version="0.91 r13725" ns2:docname="6-MAPB.svg" style="font-style:normal;font-weight:normal;font-size:12px;font-family:Dialog;color-interpolation:auto;fill:#f0abfc;fill-opacity:1;stroke:none;stroke:none;stroke:none;stroke:none;stroke:none;stroke:none;stroke:none;stroke:none;color-rendering:auto;image-rendering:auto;shape-rendering:auto;text-rendering:auto">
  <metadata id="metadata120">
    <rdf:RDF>
      <ns4:Work rdf:about="">
        <dc:format>image/svg+xml</dc:format>
        <dc:type rdf:resource="http://purl.org/dc/dcmitype/StillImage" />
        <dc:title />
      </ns4:Work>
    </rdf:RDF>
  </metadata>
  <ns2:namedview pagecolor="#eef2ff" bordercolor="#666666" borderopacity="1" objecttolerance="10" gridtolerance="10" guidetolerance="10" ns1:pageopacity="0" ns1:pageshadow="2" ns1:window-width="1060" ns1:window-height="480" id="namedview118" showgrid="false" fit-margin-top="10" fit-margin-left="10" fit-margin-right="10" fit-margin-bottom="10" ns1:zoom="0.36375" ns1:cx="370.85071" ns1:cy="127.32808" ns1:window-x="0" ns1:window-y="0" ns1:window-maximized="0" ns1:current-layer="svg2" />
  
  <defs id="genericDefs" />
  <g id="g5" transform="translate(-29.149293,-134.055)" style="fill:#f0abfc;stroke:none">
    <defs id="47296504539-defs1">
      <clipPath clipPathUnits="userSpaceOnUse" id="47296504528-clipPath1">
        <path d="M 0,0 800,0 800,600 0,600 0,0 Z" id="path9" ns1:connector-curvature="0" style="stroke:none" />
      </clipPath>
      <clipPath clipPathUnits="userSpaceOnUse" id="47296504849-clipPath1">
        <path d="m 580.102,211.0317 c -23.4558,0 -42.4703,19.0146 -42.4703,42.4703 0,23.4557 19.0145,42.4703 42.4703,42.4703 23.4557,0 42.4703,-19.0146 42.4703,-42.4703 0,-23.4557 -19.0146,-42.4703 -42.4703,-42.4703 z" id="path12" ns1:connector-curvature="0" style="stroke:none" />
      </clipPath>
      <clipPath clipPathUnits="userSpaceOnUse" id="47296504851-clipPath1">
        <path d="m 88.4818,202.6626 c -22.0762,0 -39.9725,17.8963 -39.9725,39.9725 0,22.0762 17.8963,39.9725 39.9725,39.9725 22.0762,0 39.9725,-17.8963 39.9725,-39.9725 0,-22.0762 -17.8963,-39.9725 -39.9725,-39.9725 z" id="path15" ns1:connector-curvature="0" style="stroke:none" />
      </clipPath>
      <clipPath clipPathUnits="userSpaceOnUse" id="47296504886-clipPath1">
        <path d="m 207.154,211.4711 c -23.2179,0 -42.0398,18.8219 -42.0398,42.0398 0,23.218 18.8219,42.0399 42.0398,42.0399 23.218,0 42.0399,-18.8219 42.0399,-42.0399 0,-23.2179 -18.8219,-42.0398 -42.0399,-42.0398 z" id="path18" ns1:connector-curvature="0" style="stroke:none" />
      </clipPath>
      <clipPath clipPathUnits="userSpaceOnUse" id="47296504348-clipPath1">
        <path d="m 693.0119,173.2219 c -20.8818,0 -37.8098,16.928 -37.8098,37.8098 0,20.8818 16.928,37.8098 37.8098,37.8098 20.8818,0 37.8098,-16.928 37.8098,-37.8098 0,-20.8818 -16.928,-37.8098 -37.8098,-37.8098 z" id="path21" ns1:connector-curvature="0" style="stroke:none" />
      </clipPath>
      <clipPath clipPathUnits="userSpaceOnUse" id="47296504396-clipPath1">
        <path d="m -659.3461,-138.223 800,0 0,600 -800,0 0,-600 z" id="path24" ns1:connector-curvature="0" style="stroke:none" />
      </clipPath>
      <clipPath clipPathUnits="userSpaceOnUse" id="47296504458-clipPath1">
        <path d="m -659.3451,-176.6726 800,0 0,600 -800,0 0,-600 z" id="path27" ns1:connector-curvature="0" style="stroke:none" />
      </clipPath>
      <clipPath clipPathUnits="userSpaceOnUse" id="47296504593-clipPath1">
        <path d="m -89.9396,-197.217 800,0 0,600 -800,0 0,-600 z" id="path30" ns1:connector-curvature="0" style="stroke:none" />
      </clipPath>
    </defs>
    <g id="g32" style="text-rendering:geometricPrecision;fill:#f0abfc;stroke:none">
      <path d="m 581.2671,251.484 -93.2353,-53.8295 c -1.1148,-0.6436 -2.5396,-0.2618 -3.1832,0.853 -0.6436,1.1147 -0.2618,2.5395 0.8529,3.1832 l 93.2353,53.8294 c 1.1148,0.6436 2.5396,0.2618 3.1833,-0.8529 0.6435,-1.1148 0.2617,-2.5396 -0.853,-3.1832 z" clip-path="url(#47296504528-clipPath1)" id="path34" ns1:connector-curvature="0" style="stroke:none" />
    </g>
    <g id="g36" style="text-rendering:geometricPrecision;fill:#f0abfc;stroke:none">
      <path d="m 485.7015,197.6545 -93.2353,53.8295 c -1.1148,0.6436 -1.4965,2.0684 -0.8529,3.1832 0.6436,1.1147 2.0684,1.4965 3.1832,0.8529 l 93.2353,-53.8294 c 1.1147,-0.6437 1.4965,-2.0685 0.8529,-3.1832 -0.6436,-1.1148 -2.0684,-1.4966 -3.1832,-0.853 z" clip-path="url(#47296504528-clipPath1)" id="path38" ns1:connector-curvature="0" style="stroke:none" />
    </g>
    <g id="g40" style="fill:#c4b5fd;stroke:none;text-rendering:geometricPrecision">
      <path d="m 581.2671,255.5201 73.5607,-42.4703 c 1.1148,-0.6436 1.4965,-2.0684 0.8529,-3.1832 -0.6435,-1.1148 -2.0684,-1.4965 -3.1831,-0.8529 l -73.5608,42.4703 c -1.1147,0.6436 -1.4965,2.0684 -0.8529,3.1832 0.6436,1.1147 2.0684,1.4965 3.1832,0.8529 z" clip-path="url(#47296504528-clipPath1)" id="path42" ns1:connector-curvature="0" style="stroke:none" />
      <path d="m 581.2671,255.5201 73.5607,-42.4703 c 1.1148,-0.6436 1.4965,-2.0684 0.8529,-3.1832 -0.6435,-1.1148 -2.0684,-1.4965 -3.1831,-0.8529 l -73.5608,42.4703 c -1.1147,0.6436 -1.4965,2.0684 -0.8529,3.1832 0.6436,1.1147 2.0684,1.4965 3.1832,0.8529 z" clip-path="url(#47296504849-clipPath1)" id="path44" ns1:connector-curvature="0" style="fill:#f0abfc;stroke:none" />
    </g>
    <g id="g46" style="text-rendering:geometricPrecision;fill:#f0abfc;stroke:none">
      <path d="m 299.2372,197.6597 -93.2482,53.8331 c -1.1148,0.6436 -1.4966,2.0684 -0.853,3.1832 0.6435,1.1148 2.0683,1.4966 3.1831,0.853 l 93.2483,-53.8331 c 1.1147,-0.6436 1.4966,-2.0684 0.853,-3.1832 -0.6436,-1.1148 -2.0684,-1.4966 -3.1832,-0.853 z" clip-path="url(#47296504528-clipPath1)" id="path48" ns1:connector-curvature="0" style="stroke:none" />
    </g>
    <g id="g50" style="text-rendering:geometricPrecision;fill:#f0abfc;stroke:none">
      <path d="m 228.9023,267.0538 c 1e-4,-1.2873 -1.0429,-2.3304 -2.3301,-2.3305 -1.2872,-10e-5 -2.3303,1.0429 -2.3304,2.3301 l -0.006,80.5675 c -1e-4,1.2872 1.0428,2.3303 2.33,2.3304 1.2873,10e-5 2.3304,-1.0429 2.3305,-2.3301 z m -19.418,-13.5427 c 1e-4,-1.2872 -1.0429,-2.3303 -2.3301,-2.3304 -1.2872,-1e-4 -2.3303,1.0428 -2.3304,2.33 l -0.008,107.6509 c -1e-4,1.2872 1.0429,2.3303 2.3301,2.3304 1.2872,10e-5 2.3303,-1.0428 2.3304,-2.3301 z" clip-path="url(#47296504528-clipPath1)" id="path52" ns1:connector-curvature="0" style="stroke:none" />
    </g>
    <g id="g54" style="text-rendering:geometricPrecision;fill:#f0abfc;stroke:none">
      <path d="m 205.9809,363.1798 93.2356,53.8355 c 1.1147,0.6437 2.5396,0.262 3.1832,-0.8528 0.6437,-1.1147 0.262,-2.5395 -0.8527,-3.1832 l -93.2356,-53.8355 c -1.1148,-0.6437 -2.5396,-0.262 -3.1833,0.8528 -0.6436,1.1147 -0.2619,2.5395 0.8528,3.1832 z" clip-path="url(#47296504528-clipPath1)" id="path56" ns1:connector-curvature="0" style="stroke:none" />
    </g>
    <g id="g58" style="text-rendering:geometricPrecision;fill:#f0abfc;stroke:none">
      <path d="m 301.2356,389.3909 c -1.1148,0.6436 -1.4966,2.0684 -0.853,3.1832 0.6436,1.1148 2.0684,1.4966 3.1832,0.853 l 69.7923,-40.2918 c 1.1148,-0.6436 1.4966,-2.0683 0.8531,-3.1832 -0.6436,-1.1147 -2.0684,-1.4965 -3.1832,-0.853 z m -2.0189,23.5883 c -1.1148,0.6436 -1.4966,2.0684 -0.8531,3.1832 0.6436,1.1148 2.0684,1.4966 3.1832,0.853 l 93.2482,-53.8331 c 1.1148,-0.6436 1.4967,-2.0684 0.8531,-3.1832 -0.6436,-1.1148 -2.0684,-1.4966 -3.1832,-0.853 z" clip-path="url(#47296504528-clipPath1)" id="path60" ns1:connector-curvature="0" style="stroke:none" />
    </g>
    <g id="g62" style="text-rendering:geometricPrecision;fill:#f0abfc;stroke:none">
      <path d="m 371.0291,265.5666 c 1.1147,0.6436 2.5395,0.2618 3.1831,-0.8529 0.6436,-1.1148 0.2618,-2.5396 -0.8529,-3.1832 l -69.774,-40.2829 c -1.1148,-0.6436 -2.5396,-0.2618 -3.1832,0.853 -0.6436,1.1148 -0.2618,2.5396 0.853,3.1832 z m 21.4371,-10.0465 c 1.1148,0.6436 2.5396,0.2618 3.1832,-0.853 0.6436,-1.1147 0.2618,-2.5396 -0.853,-3.1832 l -93.229,-53.8242 c -1.1148,-0.6436 -2.5396,-0.2618 -3.1832,0.853 -0.6436,1.1148 -0.2618,2.5396 0.853,3.1832 z" clip-path="url(#47296504528-clipPath1)" id="path64" ns1:connector-curvature="0" style="stroke:none" />
    </g>
    <g id="g66" style="text-rendering:geometricPrecision;fill:#f0abfc;stroke:none">
      <path d="m 395.9602,361.1642 0.001,-107.6621 c 0,-1.2873 -1.043,-2.3303 -2.3302,-2.3303 -1.2873,0 -2.3303,1.043 -2.3303,2.3302 l -0.001,107.6622 c 0,1.2872 1.043,2.3302 2.3302,2.3302 1.2873,0 2.3303,-1.043 2.3303,-2.3302 z" clip-path="url(#47296504528-clipPath1)" id="path68" ns1:connector-curvature="0" style="stroke:none" />
    </g>
    <g id="g70" style="text-rendering:geometricPrecision;fill:#f0abfc;stroke:none">
      <path d="m 577.7717,253.502 0,98.3379 c 0,1.2872 1.0431,2.3302 2.3303,2.3302 1.2872,0 2.3303,-1.043 2.3303,-2.3302 l 0,-98.3379 c 0,-1.2872 -1.0431,-2.3302 -2.3303,-2.3302 -1.2872,0 -2.3303,1.043 -2.3303,2.3302 z" clip-path="url(#47296504528-clipPath1)" id="path72" ns1:connector-curvature="0" style="stroke:none" />
    </g>
    <g id="g74" style="text-rendering:geometricPrecision;fill:#f0abfc;stroke:none">
      <path d="m 68.7382,307.8235 c -0.7565,-1.0415 -2.2134,-1.2725 -3.2549,-0.516 -1.0415,0.7565 -1.2724,2.2133 -0.5159,3.2548 l 43.9446,60.5025 c 0.7565,1.0415 2.2134,1.2724 3.2549,0.516 1.0415,-0.7565 1.2724,-2.2134 0.516,-3.2548 z m -25.3729,-1.8892 c -0.7565,-1.0415 -2.2134,-1.2725 -3.2549,-0.516 -1.0415,0.7564 -1.2724,2.2133 -0.516,3.2548 l 63.2656,87.1033 c 0.7565,1.0415 2.2134,1.2724 3.2549,0.516 1.0415,-0.7565 1.2724,-2.2134 0.516,-3.2549 z" clip-path="url(#47296504528-clipPath1)" id="path76" ns1:connector-curvature="0" style="stroke:none" />
    </g>
    <g id="g78" style="text-rendering:geometricPrecision;fill:#f0abfc;stroke:none">
      <path d="m 206.4266,358.9454 -102.4007,33.2452 c -1.2243,0.3975 -1.8943,1.7116 -1.4968,2.9359 0.3975,1.2243 1.7116,1.8943 2.9359,1.4968 l 102.4007,-33.2452 c 1.2243,-0.3974 1.8943,-1.7116 1.4968,-2.9359 -0.3975,-1.2243 -1.7116,-1.8943 -2.9359,-1.4968 z" clip-path="url(#47296504528-clipPath1)" id="path80" ns1:connector-curvature="0" style="stroke:none" />
    </g>
    <g id="g82" style="text-rendering:geometricPrecision;fill:#f0abfc;stroke:none">
      <path d="m 86.5968,241.2651 -47.0019,64.6686 c -0.7568,1.0412 -0.5263,2.4982 0.5149,3.255 1.0413,0.7568 2.4982,0.5263 3.255,-0.515 l 47.002,-64.6686 c 0.7568,-1.0412 0.5263,-2.4982 -0.515,-3.255 -1.0412,-0.7568 -2.4982,-0.5263 -3.255,0.515 z" clip-path="url(#47296504528-clipPath1)" id="path84" ns1:connector-curvature="0" style="stroke:none" />
      <path d="m 86.5968,241.2651 -47.0019,64.6686 c -0.7568,1.0412 -0.5263,2.4982 0.5149,3.255 1.0413,0.7568 2.4982,0.5263 3.255,-0.515 l 47.002,-64.6686 c 0.7568,-1.0412 0.5263,-2.4982 -0.515,-3.255 -1.0412,-0.7568 -2.4982,-0.5263 -3.255,0.515 z" clip-path="url(#47296504851-clipPath1)" id="path86" ns1:connector-curvature="0" style="fill:#fda4af;stroke:none" />
    </g>
    <g id="g88" style="fill:#fda4af;stroke:none;text-rendering:geometricPrecision">
      <path d="m 207.8747,251.2949 -79.9578,-26.0026 c -1.2241,-0.3981 -2.5386,0.2713 -2.9367,1.4954 -0.3981,1.2241 0.2712,2.5385 1.4954,2.9366 l 79.9578,26.0026 c 1.2241,0.3981 2.5386,-0.2712 2.9367,-1.4953 0.3981,-1.2241 -0.2713,-2.5386 -1.4954,-2.9367 z" clip-path="url(#47296504528-clipPath1)" id="path90" ns1:connector-curvature="0" style="stroke:none" />
      <path d="m 207.8747,251.2949 -79.9578,-26.0026 c -1.2241,-0.3981 -2.5386,0.2713 -2.9367,1.4954 -0.3981,1.2241 0.2712,2.5385 1.4954,2.9366 l 79.9578,26.0026 c 1.2241,0.3981 2.5386,-0.2712 2.9367,-1.4953 0.3981,-1.2241 -0.2713,-2.5386 -1.4954,-2.9367 z" clip-path="url(#47296504886-clipPath1)" id="path92" ns1:connector-curvature="0" style="fill:#f0abfc;stroke:none" />
    </g>
    <g id="g94" style="text-rendering:geometricPrecision;fill:#f0abfc;stroke:none">
      <path d="m 691.8467,213.0498 65.4885,37.8098 c 1.1148,0.6436 2.5396,0.2618 3.1832,-0.853 0.6436,-1.1147 0.2619,-2.5395 -0.8529,-3.1831 L 694.177,209.0137 c -1.1147,-0.6436 -2.5395,-0.2619 -3.1832,0.8529 -0.6436,1.1148 -0.2618,2.5396 0.8529,3.1832 z" clip-path="url(#47296504528-clipPath1)" id="path96" ns1:connector-curvature="0" style="stroke:none" />
      <path d="m 691.8467,213.0498 65.4885,37.8098 c 1.1148,0.6436 2.5396,0.2618 3.1832,-0.853 0.6436,-1.1147 0.2619,-2.5395 -0.8529,-3.1831 L 694.177,209.0137 c -1.1147,-0.6436 -2.5395,-0.2619 -3.1832,0.8529 -0.6436,1.1148 -0.2618,2.5396 0.8529,3.1832 z" clip-path="url(#47296504348-clipPath1)" id="path98" ns1:connector-curvature="0" style="fill:#c4b5fd;stroke:none" />
    </g>
    <g id="g100" style="fill:#eef2ff;stroke:none;text-rendering:geometricPrecision">
      </g>
    <g font-size="38px" transform="translate(659.3461,138.223)" id="g104" style="font-size:38px;font-family:sans-serif;fill:#c4b5fd;stroke:none;text-rendering:geometricPrecision">
      <text x="0" xml:space="preserve" y="37" clip-path="url(#47296504396-clipPath1)" id="text106" style="stroke:none">H</text>
    </g>
    <g font-size="38px" transform="translate(659.3451,176.6726)" id="g108" style="font-size:38px;font-family:sans-serif;fill:#c4b5fd;stroke:none;text-rendering:geometricPrecision">
      <text x="0" xml:space="preserve" y="37" clip-path="url(#47296504458-clipPath1)" id="text110" style="stroke:none">N</text>
    </g>
    <g font-size="38px" id="g112" style="font-size:38px;font-family:sans-serif;fill:#eef2ff;stroke:none;text-rendering:geometricPrecision">
      <text x="0" y="37" transform="translate(89.9396,197.217)" clip-path="url(#47296504593-clipPath1)" xml:space="preserve" id="text116" style="fill:#fda4af;stroke:none">O</text>
    </g>
  </g>
</svg>