<?xml version='1.0' encoding='utf-8'?>
<svg xmlns="http://www.w3.org/2000/svg" xmlns:dc="http://purl.org/dc/elements/1.1/" xmlns:ns1="http://www.inkscape.org/namespaces/inkscape" xmlns:ns2="http://sodipodi.sourceforge.net/DTD/sodipodi-0.dtd" xmlns:ns4="http://creativecommons.org/ns#" xmlns:rdf="http://www.w3.org/1999/02/22-rdf-syntax-ns#" width="738.77997" stroke-miterlimit="10" font-weight="normal" height="367.18271" font-style="normal" font-size="12px" id="svg2" version="1.1" ns1:version="0.91 r13725" ns2:docname="6-MeO-5-APDB.svg" style="font-style:normal;font-weight:normal;font-size:12px;font-family:Dialog;color-interpolation:auto;fill:#f5d0fe;fill-opacity:1;stroke:none;stroke:none;stroke:none;stroke:none;stroke:none;stroke:none;stroke:none;stroke:none;color-rendering:auto;image-rendering:auto;shape-rendering:auto;text-rendering:auto">
  <metadata id="metadata138">
    <rdf:RDF>
      <ns4:Work rdf:about="">
        <dc:format>image/svg+xml</dc:format>
        <dc:type rdf:resource="http://purl.org/dc/dcmitype/StillImage" />
        <dc:title />
      </ns4:Work>
    </rdf:RDF>
  </metadata>
  <ns2:namedview pagecolor="#eef2ff" bordercolor="#666666" borderopacity="1" objecttolerance="10" gridtolerance="10" guidetolerance="10" ns1:pageopacity="0" ns1:pageshadow="2" ns1:window-width="1060" ns1:window-height="480" id="namedview136" showgrid="false" fit-margin-top="10" fit-margin-left="10" fit-margin-right="10" fit-margin-bottom="10" ns1:zoom="0.36375" ns1:cx="369.22785" ns1:cy="183.5913" ns1:window-x="0" ns1:window-y="0" ns1:window-maximized="0" ns1:current-layer="svg2" />
  
  <defs id="genericDefs" />
  <g id="g5" transform="translate(-30.772147,-116.4086)" style="fill:#f5d0fe;stroke:none">
    <defs id="476882520477-defs1">
      <clipPath clipPathUnits="userSpaceOnUse" id="476882520340-clipPath1">
        <path d="M 0,0 800,0 800,600 0,600 0,0 Z" id="path9" ns1:connector-curvature="0" style="stroke:none" />
      </clipPath>
      <clipPath clipPathUnits="userSpaceOnUse" id="476882520162-clipPath1">
        <path d="m 604.1941,156.3793 c -24.3895,0 -44.1611,19.7716 -44.1611,44.1611 0,24.3895 19.7716,44.1611 44.1611,44.1611 24.3895,0 44.1611,-19.7716 44.1611,-44.1611 0,-24.3895 -19.7716,-44.1611 -44.1611,-44.1611 z" id="path12" ns1:connector-curvature="0" style="stroke:none" />
      </clipPath>
      <clipPath clipPathUnits="userSpaceOnUse" id="476882520457-clipPath1">
        <path d="m 43.1995,214.7383 c -23.1067,0 -41.8385,18.7317 -41.8385,41.8385 0,23.1067 18.7318,41.8384 41.8385,41.8384 23.1067,0 41.8385,-18.7317 41.8385,-41.8384 0,-23.1068 -18.7318,-41.8385 -41.8385,-41.8385 z" id="path15" ns1:connector-curvature="0" style="stroke:none" />
      </clipPath>
      <clipPath clipPathUnits="userSpaceOnUse" id="476882520173-clipPath1">
        <path d="m 215.747,268.958 c -24.1425,0 -43.7139,19.5714 -43.7139,43.7139 0,24.1426 19.5714,43.714 43.7139,43.714 24.1425,0 43.7139,-19.5714 43.7139,-43.714 0,-24.1425 -19.5714,-43.7139 -43.7139,-43.7139 z" id="path18" ns1:connector-curvature="0" style="stroke:none" />
      </clipPath>
      <clipPath clipPathUnits="userSpaceOnUse" id="476882520938-clipPath1">
        <path d="m 409.9767,269.681 c -23.7446,0 -42.9934,19.2488 -42.9934,42.9934 0,23.7446 19.2488,42.9935 42.9934,42.9935 23.7446,0 42.9935,-19.2489 42.9935,-42.9935 0,-23.7446 -19.2489,-42.9934 -42.9935,-42.9934 z" id="path21" ns1:connector-curvature="0" style="stroke:none" />
      </clipPath>
      <clipPath clipPathUnits="userSpaceOnUse" id="476882520342-clipPath1">
        <path d="m 507.0829,361.0793 c -20.2661,0 -36.695,16.4289 -36.695,36.695 0,20.2661 16.4289,36.695 36.695,36.695 20.2661,0 36.695,-16.4289 36.695,-36.695 0,-20.2661 -16.4289,-36.695 -36.695,-36.695 z" id="path24" ns1:connector-curvature="0" style="stroke:none" />
      </clipPath>
      <clipPath clipPathUnits="userSpaceOnUse" id="476882520326-clipPath1">
        <path d="m -686.7552,-120.975 800,0 0,600 -800,0 0,-600 z" id="path27" ns1:connector-curvature="0" style="stroke:none" />
      </clipPath>
      <clipPath clipPathUnits="userSpaceOnUse" id="476882520237-clipPath1">
        <path d="m -740.7084,-140.9316 800,0 0,600 -800,0 0,-600 z" id="path30" ns1:connector-curvature="0" style="stroke:none" />
      </clipPath>
      <clipPath clipPathUnits="userSpaceOnUse" id="476882520994-clipPath1">
        <path d="m -93.5773,-323.798 800,0 0,600 -800,0 0,-600 z" id="path33" ns1:connector-curvature="0" style="stroke:none" />
      </clipPath>
      <clipPath clipPathUnits="userSpaceOnUse" id="476882520873-clipPath1">
        <path d="m -491.5679,-345.2418 800,0 0,600 -800,0 0,-600 z" id="path36" ns1:connector-curvature="0" style="stroke:none" />
      </clipPath>
    </defs>
    <g id="g38" style="text-rendering:geometricPrecision;fill:#f5d0fe;stroke:none">
      <path d="m 605.4077,198.4385 -97.108,-56.0653 c -1.1611,-0.6704 -2.6451,-0.2728 -3.3154,0.8883 -0.6704,1.1611 -0.2728,2.6451 0.8883,3.3154 l 97.108,56.0653 c 1.1611,0.6704 2.6451,0.2727 3.3154,-0.8883 0.6704,-1.1611 0.2727,-2.6451 -0.8883,-3.3154 z" clip-path="url(#476882520340-clipPath1)" id="path40" ns1:connector-curvature="0" style="stroke:none" />
    </g>
    <g id="g42" style="text-rendering:geometricPrecision;fill:#f5d0fe;stroke:none">
      <path d="m 505.8726,142.3732 -97.108,56.0653 c -1.1611,0.6703 -1.5587,2.1543 -0.8883,3.3154 0.6703,1.161 2.1543,1.5587 3.3154,0.8883 l 97.108,-56.0653 c 1.161,-0.6703 1.5587,-2.1543 0.8883,-3.3154 -0.6703,-1.1611 -2.1543,-1.5587 -3.3154,-0.8883 z" clip-path="url(#476882520340-clipPath1)" id="path44" ns1:connector-curvature="0" style="stroke:none" />
    </g>
    <g id="g46" style="fill:#c4b5fd;stroke:none;text-rendering:geometricPrecision">
      <path d="m 605.4077,202.6422 76.4892,-44.1611 c 1.1611,-0.6703 1.5587,-2.1543 0.8884,-3.3154 -0.6704,-1.161 -2.1544,-1.5587 -3.3155,-0.8883 l -76.4892,44.1611 c -1.1611,0.6703 -1.5587,2.1543 -0.8884,3.3154 0.6704,1.161 2.1544,1.5587 3.3155,0.8883 z" clip-path="url(#476882520340-clipPath1)" id="path48" ns1:connector-curvature="0" style="stroke:none" />
      <path d="m 605.4077,202.6422 76.4892,-44.1611 c 1.1611,-0.6703 1.5587,-2.1543 0.8884,-3.3154 -0.6704,-1.161 -2.1544,-1.5587 -3.3155,-0.8883 l -76.4892,44.1611 c -1.1611,0.6703 -1.5587,2.1543 -0.8884,3.3154 0.6704,1.161 2.1544,1.5587 3.3155,0.8883 z" clip-path="url(#476882520162-clipPath1)" id="path50" ns1:connector-curvature="0" style="fill:#f5d0fe;stroke:none" />
    </g>
    <g id="g52" style="text-rendering:geometricPrecision;fill:#f5d0fe;stroke:none">
      <path d="m 311.6632,142.3785 -97.1214,56.0692 c -1.1611,0.6703 -1.5588,2.1543 -0.8885,3.3154 0.6703,1.1611 2.1543,1.5588 3.3154,0.8884 l 97.1214,-56.0691 c 1.1611,-0.6703 1.5588,-2.1543 0.8885,-3.3154 -0.6703,-1.1611 -2.1543,-1.5588 -3.3154,-0.8885 z" clip-path="url(#476882520340-clipPath1)" id="path54" ns1:connector-curvature="0" style="stroke:none" />
    </g>
    <g id="g56" style="text-rendering:geometricPrecision;fill:#f5d0fe;stroke:none">
      <path d="m 238.4068,214.655 c 1e-4,-1.3407 -1.0862,-2.4271 -2.4269,-2.4272 -1.3406,-1e-4 -2.4271,1.0861 -2.4272,2.4268 l -0.006,83.914 c -10e-5,1.3407 1.0861,2.4271 2.4268,2.4272 1.3407,1e-4 2.4272,-1.0862 2.4273,-2.4269 z m -20.2245,-14.1052 c 1e-4,-1.3407 -1.0862,-2.4271 -2.4269,-2.4272 -1.3407,-1e-4 -2.4271,1.0862 -2.4272,2.4268 l -0.008,112.1223 c -1e-4,1.3407 1.0861,2.4271 2.4268,2.4273 1.3407,1e-4 2.4272,-1.0862 2.4273,-2.4269 z" clip-path="url(#476882520340-clipPath1)" id="path58" ns1:connector-curvature="0" style="stroke:none" />
    </g>
    <g id="g60" style="text-rendering:geometricPrecision;fill:#f5d0fe;stroke:none">
      <path d="m 214.5334,314.7737 97.1082,56.0717 c 1.1611,0.6704 2.6451,0.2729 3.3155,-0.8882 0.6704,-1.161 0.2728,-2.645 -0.8882,-3.3154 l -97.1083,-56.0717 c -1.161,-0.6704 -2.645,-0.2729 -3.3154,0.8882 -0.6704,1.161 -0.2729,2.645 0.8882,3.3154 z" clip-path="url(#476882520340-clipPath1)" id="path62" ns1:connector-curvature="0" style="stroke:none" />
    </g>
    <g id="g64" style="text-rendering:geometricPrecision;fill:#f5d0fe;stroke:none">
      <path d="m 313.7446,342.0736 c -1.161,0.6703 -1.5587,2.1543 -0.8884,3.3154 0.6703,1.1611 2.1543,1.5588 3.3154,0.8885 l 72.6913,-41.9654 c 1.161,-0.6703 1.5587,-2.1543 0.8884,-3.3154 -0.6703,-1.1611 -2.1543,-1.5588 -3.3154,-0.8885 z m -2.1028,24.5681 c -1.1611,0.6703 -1.5588,2.1543 -0.8884,3.3154 0.6702,1.161 2.1542,1.5587 3.3153,0.8884 l 97.1215,-56.0692 c 1.1611,-0.6703 1.5588,-2.1543 0.8884,-3.3153 -0.6703,-1.1611 -2.1543,-1.5588 -3.3153,-0.8885 z" clip-path="url(#476882520340-clipPath1)" id="path66" ns1:connector-curvature="0" style="stroke:none" />
    </g>
    <g id="g68" style="text-rendering:geometricPrecision;fill:#f5d0fe;stroke:none">
      <path d="m 386.437,213.1061 c 1.1611,0.6703 2.6451,0.2727 3.3154,-0.8884 0.6704,-1.1611 0.2727,-2.6451 -0.8884,-3.3154 l -72.6721,-41.9561 c -1.1611,-0.6703 -2.6451,-0.2726 -3.3154,0.8884 -0.6704,1.1611 -0.2727,2.6451 0.8884,3.3154 z m 22.3276,-10.4638 c 1.1611,0.6703 2.6451,0.2726 3.3154,-0.8884 0.6704,-1.1611 0.2727,-2.6451 -0.8883,-3.3154 l -97.1015,-56.06 c -1.1611,-0.6703 -2.6451,-0.2726 -3.3154,0.8885 -0.6703,1.161 -0.2727,2.645 0.8884,3.3154 z" clip-path="url(#476882520340-clipPath1)" id="path70" ns1:connector-curvature="0" style="stroke:none" />
    </g>
    <g id="g72" style="text-rendering:geometricPrecision;fill:#f5d0fe;stroke:none">
      <path d="m 412.4038,312.6744 0.001,-112.134 c 0,-1.3407 -1.0863,-2.4271 -2.427,-2.4271 -1.3407,0 -2.4271,1.0863 -2.4271,2.427 l -0.001,112.1341 c 0,1.3407 1.0863,2.427 2.427,2.4271 1.3407,0 2.427,-1.0864 2.4271,-2.4271 z" clip-path="url(#476882520340-clipPath1)" id="path74" ns1:connector-curvature="0" style="stroke:none" />
    </g>
    <g id="g76" style="text-rendering:geometricPrecision;fill:#f5d0fe;stroke:none">
      <path d="m 107.161,164.4459 -65.9248,90.7039 c -0.7882,1.0845 -0.5481,2.602 0.5364,3.3902 1.0845,0.7882 2.6019,0.5482 3.3902,-0.5363 l 65.9247,-90.704 c 0.7883,-1.0844 0.5482,-2.6019 -0.5363,-3.3902 -1.0845,-0.7882 -2.602,-0.5481 -3.3902,0.5364 z" clip-path="url(#476882520340-clipPath1)" id="path78" ns1:connector-curvature="0" style="stroke:none" />
    </g>
    <g id="g80" style="text-rendering:geometricPrecision;fill:#f5d0fe;stroke:none">
      <path d="M 216.5058,198.2416 109.8749,163.5648 c -1.275,-0.4147 -2.6441,0.2825 -3.0587,1.5574 -0.4146,1.275 0.2825,2.6441 1.5575,3.0587 l 106.6309,34.6768 c 1.275,0.4146 2.6441,-0.2825 3.0587,-1.5575 0.4146,-1.2749 -0.2825,-2.644 -1.5575,-3.0586 z" clip-path="url(#476882520340-clipPath1)" id="path82" ns1:connector-curvature="0" style="stroke:none" />
    </g>
    <g id="g84" style="fill:#fda4af;stroke:none;text-rendering:geometricPrecision">
      <path d="m 41.2358,258.0031 49.1746,67.7029 c 0.7878,1.0847 2.3052,1.3253 3.39,0.5374 1.0847,-0.7879 1.3253,-2.3053 0.5374,-3.39 L 45.1632,255.1505 c -0.7879,-1.0848 -2.3053,-1.3254 -3.39,-0.5375 -1.0848,0.7879 -1.3253,2.3053 -0.5374,3.3901 z" clip-path="url(#476882520340-clipPath1)" id="path86" ns1:connector-curvature="0" style="stroke:none" />
      <path d="m 41.2358,258.0031 49.1746,67.7029 c 0.7878,1.0847 2.3052,1.3253 3.39,0.5374 1.0847,-0.7879 1.3253,-2.3053 0.5374,-3.39 L 45.1632,255.1505 c -0.7879,-1.0848 -2.3053,-1.3254 -3.39,-0.5375 -1.0848,0.7879 -1.3253,2.3053 -0.5374,3.3901 z" clip-path="url(#476882520457-clipPath1)" id="path88" ns1:connector-curvature="0" style="fill:#f5d0fe;stroke:none" />
    </g>
    <g id="g90" style="fill:#fda4af;stroke:none;text-rendering:geometricPrecision">
      <path d="m 214.9976,310.3635 -83.1553,26.997 c -1.2752,0.414 -1.973,1.7827 -1.559,3.0579 0.414,1.2751 1.7827,1.973 3.0579,1.559 l 83.1553,-26.9971 c 1.2751,-0.414 1.9729,-1.7827 1.5589,-3.0578 -0.414,-1.2752 -1.7827,-1.973 -3.0578,-1.559 z" clip-path="url(#476882520340-clipPath1)" id="path92" ns1:connector-curvature="0" style="stroke:none" />
      <path d="m 214.9976,310.3635 -83.1553,26.997 c -1.2752,0.414 -1.973,1.7827 -1.559,3.0579 0.414,1.2751 1.7827,1.973 3.0579,1.559 l 83.1553,-26.9971 c 1.2751,-0.414 1.9729,-1.7827 1.5589,-3.0578 -0.414,-1.2752 -1.7827,-1.973 -3.0578,-1.559 z" clip-path="url(#476882520173-clipPath1)" id="path94" ns1:connector-curvature="0" style="fill:#f5d0fe;stroke:none" />
    </g>
    <g id="g96" style="fill:#fda4af;stroke:none;text-rendering:geometricPrecision">
      <path d="m 408.7632,314.7763 74.4659,42.995 c 1.161,0.6704 2.645,0.2728 3.3154,-0.8882 0.6704,-1.1611 0.2728,-2.6451 -0.8883,-3.3155 l -74.4659,-42.995 c -1.1611,-0.6704 -2.6451,-0.2728 -3.3154,0.8882 -0.6704,1.1611 -0.2728,2.6451 0.8883,3.3155 z" clip-path="url(#476882520340-clipPath1)" id="path98" ns1:connector-curvature="0" style="stroke:none" />
      <path d="m 408.7632,314.7763 74.4659,42.995 c 1.161,0.6704 2.645,0.2728 3.3154,-0.8882 0.6704,-1.1611 0.2728,-2.6451 -0.8883,-3.3155 l -74.4659,-42.995 c -1.1611,-0.6704 -2.6451,-0.2728 -3.3154,0.8882 -0.6704,1.1611 -0.2728,2.6451 0.8883,3.3155 z" clip-path="url(#476882520938-clipPath1)" id="path100" ns1:connector-curvature="0" style="fill:#f5d0fe;stroke:none" />
    </g>
    <g id="g102" style="text-rendering:geometricPrecision;fill:#f5d0fe;stroke:none">
      <path d="m 504.6558,397.7742 -0.002,73.39 c -10e-5,1.3407 1.0863,2.4271 2.4269,2.4271 1.3407,1e-4 2.4271,-1.0863 2.4272,-2.427 l 0.002,-73.3899 c 0,-1.3407 -1.0863,-2.4271 -2.427,-2.4272 -1.3407,0 -2.427,1.0863 -2.4271,2.427 z" clip-path="url(#476882520340-clipPath1)" id="path104" ns1:connector-curvature="0" style="stroke:none" />
      <path d="m 504.6558,397.7742 -0.002,73.39 c -10e-5,1.3407 1.0863,2.4271 2.4269,2.4271 1.3407,1e-4 2.4271,-1.0863 2.4272,-2.427 l 0.002,-73.3899 c 0,-1.3407 -1.0863,-2.4271 -2.427,-2.4272 -1.3407,0 -2.427,1.0863 -2.4271,2.427 z" clip-path="url(#476882520342-clipPath1)" id="path106" ns1:connector-curvature="0" style="fill:#fda4af;stroke:none" />
    </g>
    <g id="g108" style="text-rendering:geometricPrecision;fill:#f5d0fe;stroke:none">
      <path d="m 601.7671,200.5404 0,102.4224 c 0,1.3407 1.0864,2.4271 2.427,2.4271 1.3407,0 2.4271,-1.0864 2.4271,-2.4271 l 0,-102.4224 c 0,-1.3407 -1.0864,-2.4271 -2.4271,-2.4271 -1.3406,0 -2.427,1.0864 -2.427,2.4271 z" clip-path="url(#476882520340-clipPath1)" id="path110" ns1:connector-curvature="0" style="stroke:none" />
    </g>
    <g id="g112" style="fill:#eef2ff;stroke:none;text-rendering:geometricPrecision">
      </g>
    <g font-size="40px" transform="translate(686.7552,120.975)" id="g116" style="font-size:40px;font-family:sans-serif;fill:#c4b5fd;stroke:none;text-rendering:geometricPrecision">
      <text x="0" xml:space="preserve" y="38" clip-path="url(#476882520326-clipPath1)" id="text118" style="stroke:none">NH</text>
    </g>
    <g font-size="32px" transform="translate(740.7084,140.9316)" id="g120" style="font-size:32px;font-family:sans-serif;fill:#c4b5fd;stroke:none;text-rendering:geometricPrecision">
      <text x="0" xml:space="preserve" y="31" clip-path="url(#476882520237-clipPath1)" id="text122" style="stroke:none">2</text>
    </g>
    <g font-size="32px" id="g124" style="font-size:32px;font-family:sans-serif;fill:#eef2ff;stroke:none;text-rendering:geometricPrecision">
      <text x="0" font-size="40px" y="38" transform="translate(93.5773,323.798)" clip-path="url(#476882520994-clipPath1)" xml:space="preserve" id="text128" style="font-size:40px;fill:#fda4af;stroke:none">O</text>
    </g>
    <g font-size="40px" id="g130" style="font-size:40px;font-family:sans-serif;fill:#eef2ff;stroke:none;text-rendering:geometricPrecision">
      <text x="0" y="38" transform="translate(491.5679,345.2418)" clip-path="url(#476882520873-clipPath1)" xml:space="preserve" id="text134" style="fill:#fda4af;stroke:none">O</text>
    </g>
  </g>
</svg>