<?xml version='1.0' encoding='utf-8'?>
<svg xmlns="http://www.w3.org/2000/svg" xmlns:dc="http://purl.org/dc/elements/1.1/" xmlns:ns1="http://www.inkscape.org/namespaces/inkscape" xmlns:ns2="http://sodipodi.sourceforge.net/DTD/sodipodi-0.dtd" xmlns:ns4="http://creativecommons.org/ns#" xmlns:rdf="http://www.w3.org/1999/02/22-rdf-syntax-ns#" width="620.57001" stroke-miterlimit="10" font-weight="normal" height="475.40979" font-style="normal" font-size="12px" id="svg2" version="1.1" ns1:version="0.91 r13725" ns2:docname="8-Chlorotheophylline.svg" style="font-style:normal;font-weight:normal;font-size:12px;font-family:Dialog;color-interpolation:auto;fill:#f0abfc;fill-opacity:1;stroke:none;stroke:none;stroke:none;stroke:none;stroke:none;stroke:none;stroke:none;stroke:none;color-rendering:auto;image-rendering:auto;shape-rendering:auto;text-rendering:auto">
  <metadata id="metadata203">
    <rdf:RDF>
      <ns4:Work rdf:about="">
        <dc:format>image/svg+xml</dc:format>
        <dc:type rdf:resource="http://purl.org/dc/dcmitype/StillImage" />
        <dc:title />
      </ns4:Work>
    </rdf:RDF>
  </metadata>
  <ns2:namedview pagecolor="#eef2ff" bordercolor="#666666" borderopacity="1" objecttolerance="10" gridtolerance="10" guidetolerance="10" ns1:pageopacity="0" ns1:pageshadow="2" ns1:window-width="1060" ns1:window-height="480" id="namedview201" showgrid="false" fit-margin-top="10" fit-margin-left="10" fit-margin-right="10" fit-margin-bottom="10" ns1:zoom="0.36375" ns1:cx="310.285" ns1:cy="205.4492" ns1:window-x="0" ns1:window-y="0" ns1:window-maximized="0" ns1:current-layer="svg2" />
  
  <defs id="genericDefs" />
  <g id="g5" transform="translate(-89.715,-30.0394)" style="fill:#f0abfc;stroke:none">
    <defs id="1714325888504-defs1">
      <clipPath clipPathUnits="userSpaceOnUse" id="1714325888421-clipPath1">
        <path d="M 0,0 800,0 800,600 0,600 0,0 Z" id="path9" ns1:connector-curvature="0" style="stroke:none" />
      </clipPath>
      <clipPath clipPathUnits="userSpaceOnUse" id="1714325888122-clipPath1">
        <path d="m 305.4941,128.6138 c -22.6625,0 -41.0341,18.3716 -41.0341,41.0341 0,22.6625 18.3716,41.0342 41.0341,41.0342 22.6625,0 41.0342,-18.3717 41.0342,-41.0342 0,-22.6625 -18.3717,-41.0341 -41.0342,-41.0341 z" id="path12" ns1:connector-curvature="0" style="stroke:none" />
      </clipPath>
      <clipPath clipPathUnits="userSpaceOnUse" id="1714325888117-clipPath1">
        <path d="m 209.3587,294.0288 c -23.2717,0 -42.1371,18.8655 -42.1371,42.1372 0,23.2717 18.8654,42.1371 42.1371,42.1371 23.2717,0 42.1372,-18.8654 42.1372,-42.1371 0,-23.2717 -18.8655,-42.1372 -42.1372,-42.1372 z" id="path15" ns1:connector-curvature="0" style="stroke:none" />
      </clipPath>
      <clipPath clipPathUnits="userSpaceOnUse" id="1714325888637-clipPath1">
        <path d="m 572.446,242.0226 c -21.3493,0 -38.6563,17.307 -38.6563,38.6562 0,21.3493 17.307,38.6563 38.6563,38.6563 21.3492,0 38.6562,-17.307 38.6562,-38.6563 0,-21.3492 -17.307,-38.6562 -38.6562,-38.6562 z" id="path18" ns1:connector-curvature="0" style="stroke:none" />
      </clipPath>
      <clipPath clipPathUnits="userSpaceOnUse" id="1714325888763-clipPath1">
        <path d="m 401.6295,180.6503 c -24.5762,0 -44.4991,19.923 -44.4991,44.4991 0,24.5762 19.9229,44.4991 44.4991,44.4991 24.5762,0 44.4991,-19.9229 44.4991,-44.4991 0,-24.5761 -19.9229,-44.4991 -44.4991,-44.4991 z" id="path21" ns1:connector-curvature="0" style="stroke:none" />
      </clipPath>
      <clipPath clipPathUnits="userSpaceOnUse" id="1714325888535-clipPath1">
        <path d="m 523.0584,306.6346 c -23.1991,0 -42.0056,18.8066 -42.0056,42.0056 0,23.1991 18.8065,42.0056 42.0056,42.0056 23.199,0 42.0056,-18.8065 42.0056,-42.0056 0,-23.199 -18.8066,-42.0056 -42.0056,-42.0056 z" id="path24" ns1:connector-curvature="0" style="stroke:none" />
      </clipPath>
      <clipPath clipPathUnits="userSpaceOnUse" id="1714325888542-clipPath1">
        <path d="m 401.6295,291.6711 c -24.5738,0 -44.4949,19.921 -44.4949,44.4949 0,24.5738 19.9211,44.4948 44.4949,44.4948 24.5738,0 44.4949,-19.921 44.4949,-44.4948 0,-24.5739 -19.9211,-44.4949 -44.4949,-44.4949 z" id="path27" ns1:connector-curvature="0" style="stroke:none" />
      </clipPath>
      <clipPath clipPathUnits="userSpaceOnUse" id="1714325888267-clipPath1">
        <path d="m 209.3587,292.5196 c -24.1052,0 -43.6463,19.5412 -43.6463,43.6464 0,24.1051 19.5411,43.6463 43.6463,43.6463 24.1052,0 43.6464,-19.5412 43.6464,-43.6463 0,-24.1052 -19.5412,-43.6464 -43.6464,-43.6464 z" id="path30" ns1:connector-curvature="0" style="stroke:none" />
      </clipPath>
      <clipPath clipPathUnits="userSpaceOnUse" id="1714325888440-clipPath1">
        <path d="m 326.0265,336.1567 c -24.1052,0 -43.6463,19.5411 -43.6463,43.6463 0,24.1052 19.5411,43.6463 43.6463,43.6463 24.1052,0 43.6463,-19.5411 43.6463,-43.6463 0,-24.1052 -19.5411,-43.6463 -43.6463,-43.6463 z" id="path33" ns1:connector-curvature="0" style="stroke:none" />
      </clipPath>
      <clipPath clipPathUnits="userSpaceOnUse" id="1714325888880-clipPath1">
        <path d="m 305.4941,125.9984 c -24.1069,0 -43.6494,19.5426 -43.6494,43.6495 0,24.1069 19.5425,43.6495 43.6494,43.6495 24.1069,0 43.6495,-19.5426 43.6495,-43.6495 0,-24.1069 -19.5426,-43.6495 -43.6495,-43.6495 z" id="path36" ns1:connector-curvature="0" style="stroke:none" />
      </clipPath>
      <clipPath clipPathUnits="userSpaceOnUse" id="1714325888732-clipPath1">
        <path d="m 209.3587,211.1566 c -23.0135,0 -41.6697,18.6562 -41.6697,41.6698 0,23.0136 18.6562,41.6698 41.6697,41.6698 23.0136,0 41.6698,-18.6562 41.6698,-41.6698 0,-23.0136 -18.6562,-41.6698 -41.6698,-41.6698 z" id="path39" ns1:connector-curvature="0" style="stroke:none" />
      </clipPath>
      <clipPath clipPathUnits="userSpaceOnUse" id="1714325888206-clipPath1">
        <path d="m 572.446,238.4007 c -23.3496,0 -42.2782,18.9286 -42.2782,42.2781 0,23.3496 18.9286,42.2782 42.2782,42.2782 23.3495,0 42.2781,-18.9286 42.2781,-42.2782 0,-23.3495 -18.9286,-42.2781 -42.2781,-42.2781 z" id="path42" ns1:connector-curvature="0" style="stroke:none" />
      </clipPath>
      <clipPath clipPathUnits="userSpaceOnUse" id="1714325888674-clipPath1">
        <path d="m 188.8274,174.453 c -21.4521,0 -38.8424,17.3904 -38.8424,38.8424 0,21.4521 17.3903,38.8425 38.8424,38.8425 21.4521,0 38.8424,-17.3904 38.8424,-38.8425 0,-21.452 -17.3903,-38.8424 -38.8424,-38.8424 z" id="path45" ns1:connector-curvature="0" style="stroke:none" />
      </clipPath>
      <clipPath clipPathUnits="userSpaceOnUse" id="1714325888705-clipPath1">
        <path d="m 305.4941,382.4732 c -20.356,0 -36.8577,16.5018 -36.8577,36.8578 0,20.356 16.5017,36.8578 36.8577,36.8578 20.356,0 36.8578,-16.5018 36.8578,-36.8578 0,-20.356 -16.5018,-36.8578 -36.8578,-36.8578 z" id="path48" ns1:connector-curvature="0" style="stroke:none" />
      </clipPath>
      <clipPath clipPathUnits="userSpaceOnUse" id="1714325888910-clipPath1">
        <path d="m -194.8119,-201.6494 800,0 0,600 -800,0 0,-600 z" id="path51" ns1:connector-curvature="0" style="stroke:none" />
      </clipPath>
      <clipPath clipPathUnits="userSpaceOnUse" id="1714325888954-clipPath1">
        <path d="m -290.9472,-368.154 800,0 0,600 -800,0 0,-600 z" id="path54" ns1:connector-curvature="0" style="stroke:none" />
      </clipPath>
      <clipPath clipPathUnits="userSpaceOnUse" id="17143258886-clipPath1">
        <path d="m -492.6438,-346.9755 800,0 0,600.0001 -800,0 0,-600.0001 z" id="path57" ns1:connector-curvature="0" style="stroke:none" />
      </clipPath>
      <clipPath clipPathUnits="userSpaceOnUse" id="1714325888978-clipPath1">
        <path d="m -493.1617,-167.3747 800,0 0,600 -800,0 0,-600 z" id="path60" ns1:connector-curvature="0" style="stroke:none" />
      </clipPath>
      <clipPath clipPathUnits="userSpaceOnUse" id="1714325888180-clipPath1">
        <path d="m -98.215,-368.1734 800,0 0,600 -800,0 0,-600 z" id="path63" ns1:connector-curvature="0" style="stroke:none" />
      </clipPath>
      <clipPath clipPathUnits="userSpaceOnUse" id="1714325888424-clipPath1">
        <path d="m -290.4785,-35.1448 800,0 0,600 -800,0 0,-600 z" id="path66" ns1:connector-curvature="0" style="stroke:none" />
      </clipPath>
      <clipPath clipPathUnits="userSpaceOnUse" id="1714325888785-clipPath1">
        <path d="m -664.6131,-257.1883 800,0 0,600 -800,0 0,-600 z" id="path69" ns1:connector-curvature="0" style="stroke:none" />
      </clipPath>
    </defs>
    <g id="g71" style="text-rendering:geometricPrecision;fill:#f0abfc;stroke:none">
      <path d="m 304.2928,171.7287 96.1354,55.5015 c 1.1494,0.6636 2.6185,0.2699 3.2821,-0.8795 0.6636,-1.1494 0.2699,-2.6184 -0.8795,-3.282 l -96.1354,-55.5016 c -1.1494,-0.6636 -2.6185,-0.2699 -3.282,0.8795 -0.6636,1.1494 -0.27,2.6185 0.8794,3.2821 z" clip-path="url(#1714325888421-clipPath1)" id="path73" ns1:connector-curvature="0" style="stroke:none" />
    </g>
    <g id="g75" style="text-rendering:geometricPrecision;fill:#f0abfc;stroke:none">
      <path d="m 379.2047,322.2019 c 0,1.3272 1.0754,2.4026 2.4026,2.4026 1.3272,0 2.4026,-1.0754 2.4026,-2.4026 l 0,-83.0898 c 0,-1.3272 -1.0754,-2.4026 -2.4026,-2.4026 -1.3272,0 -2.4026,1.0754 -2.4026,2.4026 z m 20.0222,13.9641 c 0,1.3272 1.0754,2.4026 2.4026,2.4026 1.3272,0 2.4026,-1.0754 2.4026,-2.4026 l 0,-111.0166 c 0,-1.3272 -1.0754,-2.4026 -2.4026,-2.4026 -1.3272,0 -2.4026,1.0754 -2.4026,2.4026 z" clip-path="url(#1714325888421-clipPath1)" id="path77" ns1:connector-curvature="0" style="stroke:none" />
    </g>
    <g id="g79" style="fill:#fda4af;stroke:none;text-rendering:geometricPrecision">
      <path d="m 293.0804,175.4276 c 0,1.3272 1.0754,2.4026 2.4026,2.4026 1.3272,0 2.4027,-1.0754 2.4027,-2.4026 l 0,-87.848 c 0,-1.3272 -1.0755,-2.4026 -2.4027,-2.4026 -1.3272,0 -2.4026,1.0754 -2.4026,2.4026 z m 20.0222,0 c 0,1.3272 1.0754,2.4026 2.4026,2.4026 1.3272,0 2.4026,-1.0754 2.4026,-2.4026 l 0,-87.848 c 0,-1.3272 -1.0754,-2.4026 -2.4026,-2.4026 -1.3272,0 -2.4026,1.0754 -2.4026,2.4026 z" clip-path="url(#1714325888421-clipPath1)" id="path81" ns1:connector-curvature="0" style="stroke:none" />
      <path d="m 293.0804,175.4276 c 0,1.3272 1.0754,2.4026 2.4026,2.4026 1.3272,0 2.4027,-1.0754 2.4027,-2.4026 l 0,-87.848 c 0,-1.3272 -1.0755,-2.4026 -2.4027,-2.4026 -1.3272,0 -2.4026,1.0754 -2.4026,2.4026 z m 20.0222,0 c 0,1.3272 1.0754,2.4026 2.4026,2.4026 1.3272,0 2.4026,-1.0754 2.4026,-2.4026 l 0,-87.848 c 0,-1.3272 -1.0754,-2.4026 -2.4026,-2.4026 -1.3272,0 -2.4026,1.0754 -2.4026,2.4026 z" clip-path="url(#1714325888122-clipPath1)" id="path83" ns1:connector-curvature="0" style="fill:#f0abfc;stroke:none" />
    </g>
    <g id="g85" style="fill:#fda4af;stroke:none;text-rendering:geometricPrecision">
      <path d="m 220.5723,344.0255 c 1.1494,-0.6637 1.5429,-2.1328 0.8793,-3.2821 -0.6637,-1.1494 -2.1328,-1.5429 -3.2822,-0.8792 l -77.9871,45.0323 c -1.1494,0.6636 -1.5429,2.1327 -0.8793,3.2821 0.6637,1.1493 2.1328,1.5429 3.2821,0.8792 z m -10.0121,-17.3391 c 1.1493,-0.6637 1.5429,-2.1328 0.8792,-3.2821 -0.6637,-1.1494 -2.1328,-1.5429 -3.2821,-0.8792 l -77.9872,45.0323 c -1.1493,0.6636 -1.5429,2.1327 -0.8792,3.2821 0.6636,1.1493 2.1327,1.5429 3.2821,0.8792 z" clip-path="url(#1714325888421-clipPath1)" id="path87" ns1:connector-curvature="0" style="stroke:none" />
      <path d="m 220.5723,344.0255 c 1.1494,-0.6637 1.5429,-2.1328 0.8793,-3.2821 -0.6637,-1.1494 -2.1328,-1.5429 -3.2822,-0.8792 l -77.9871,45.0323 c -1.1494,0.6636 -1.5429,2.1327 -0.8793,3.2821 0.6637,1.1493 2.1328,1.5429 3.2821,0.8792 z m -10.0121,-17.3391 c 1.1493,-0.6637 1.5429,-2.1328 0.8792,-3.2821 -0.6637,-1.1494 -2.1328,-1.5429 -3.2821,-0.8792 l -77.9872,45.0323 c -1.1493,0.6636 -1.5429,2.1327 -0.8792,3.2821 0.6636,1.1493 2.1327,1.5429 3.2821,0.8792 z" clip-path="url(#1714325888117-clipPath1)" id="path89" ns1:connector-curvature="0" style="fill:#f0abfc;stroke:none" />
    </g>
    <g id="g91" style="fill:#c4b5fd;stroke:none;text-rendering:geometricPrecision">
      <path d="m 574.3898,279.2667 -45.4389,-62.5501 c -0.7801,-1.0738 -2.2823,-1.3118 -3.3561,-0.5318 -1.0737,0.78 -1.3117,2.2822 -0.5317,3.356 l 45.439,62.5501 c 0.78,1.0738 2.2822,1.3118 3.356,0.5318 1.0737,-0.78 1.3118,-2.2822 0.5317,-3.356 z" clip-path="url(#1714325888421-clipPath1)" id="path93" ns1:connector-curvature="0" style="stroke:none" />
      <path d="m 574.3898,279.2667 -45.4389,-62.5501 c -0.7801,-1.0738 -2.2823,-1.3118 -3.3561,-0.5318 -1.0737,0.78 -1.3117,2.2822 -0.5317,3.356 l 45.439,62.5501 c 0.78,1.0738 2.2822,1.3118 3.356,0.5318 1.0737,-0.78 1.3118,-2.2822 0.5317,-3.356 z" clip-path="url(#1714325888637-clipPath1)" id="path95" ns1:connector-curvature="0" style="fill:#f0abfc;stroke:none" />
    </g>
    <g id="g97" style="fill:#c4b5fd;stroke:none;text-rendering:geometricPrecision">
      <path d="m 402.3714,227.4347 84.6493,-27.4803 c 1.2624,-0.4098 1.9532,-1.7647 1.5434,-3.0271 -0.4098,-1.2623 -1.7648,-1.9531 -3.0271,-1.5433 l -84.6494,27.4802 c -1.2623,0.4098 -1.9532,1.7648 -1.5433,3.0271 0.4098,1.2624 1.7647,1.9532 3.0271,1.5434 z" clip-path="url(#1714325888421-clipPath1)" id="path99" ns1:connector-curvature="0" style="stroke:none" />
      <path d="m 402.3714,227.4347 84.6493,-27.4803 c 1.2624,-0.4098 1.9532,-1.7647 1.5434,-3.0271 -0.4098,-1.2623 -1.7648,-1.9531 -3.0271,-1.5433 l -84.6494,27.4802 c -1.2623,0.4098 -1.9532,1.7648 -1.5433,3.0271 0.4098,1.2624 1.7647,1.9532 3.0271,1.5434 z" clip-path="url(#1714325888763-clipPath1)" id="path101" ns1:connector-curvature="0" style="fill:#f0abfc;stroke:none" />
    </g>
    <g id="g103" style="text-rendering:geometricPrecision;fill:#f0abfc;stroke:none">
      <path d="m 504.9177,335.4573 c -0.7802,1.0737 -0.5425,2.5759 0.5312,3.3561 1.0737,0.7802 2.5758,0.5425 3.3561,-0.5312 l 39.423,-54.2494 c 0.7802,-1.0737 0.5425,-2.5759 -0.5312,-3.3561 -1.0736,-0.7802 -2.5758,-0.5424 -3.356,0.5312 z m 16.197,11.7705 c -0.7802,1.0736 -0.5424,2.5758 0.5312,3.356 1.0737,0.7802 2.5759,0.5425 3.3561,-0.5312 l 49.3876,-67.9613 c 0.7802,-1.0737 0.5425,-2.5759 -0.5312,-3.3561 -1.0737,-0.7802 -2.5759,-0.5425 -3.3561,0.5312 z" clip-path="url(#1714325888421-clipPath1)" id="path105" ns1:connector-curvature="0" style="stroke:none" />
      <path d="m 504.9177,335.4573 c -0.7802,1.0737 -0.5425,2.5759 0.5312,3.3561 1.0737,0.7802 2.5758,0.5425 3.3561,-0.5312 l 39.423,-54.2494 c 0.7802,-1.0737 0.5425,-2.5759 -0.5312,-3.3561 -1.0736,-0.7802 -2.5758,-0.5424 -3.356,0.5312 z m 16.197,11.7705 c -0.7802,1.0736 -0.5424,2.5758 0.5312,3.356 1.0737,0.7802 2.5759,0.5425 3.3561,-0.5312 l 49.3876,-67.9613 c 0.7802,-1.0737 0.5425,-2.5759 -0.5312,-3.3561 -1.0737,-0.7802 -2.5759,-0.5425 -3.3561,0.5312 z" clip-path="url(#1714325888535-clipPath1)" id="path107" ns1:connector-curvature="0" style="fill:#c4b5fd;stroke:none" />
    </g>
    <g id="g109" style="fill:#c4b5fd;stroke:none;text-rendering:geometricPrecision">
      <path d="m 400.8868,338.4509 84.6318,27.507 c 1.2622,0.4103 2.6174,-0.2801 3.0276,-1.5423 0.4103,-1.2622 -0.2801,-2.6174 -1.5423,-3.0276 l -84.6317,-27.507 c -1.2622,-0.4103 -2.6174,0.2801 -3.0277,1.5423 -0.4102,1.2622 0.2801,2.6174 1.5423,3.0276 z" clip-path="url(#1714325888421-clipPath1)" id="path111" ns1:connector-curvature="0" style="stroke:none" />
      <path d="m 400.8868,338.4509 84.6318,27.507 c 1.2622,0.4103 2.6174,-0.2801 3.0276,-1.5423 0.4103,-1.2622 -0.2801,-2.6174 -1.5423,-3.0276 l -84.6317,-27.507 c -1.2622,-0.4103 -2.6174,0.2801 -3.0277,1.5423 -0.4102,1.2622 0.2801,2.6174 1.5423,3.0276 z" clip-path="url(#1714325888542-clipPath1)" id="path113" ns1:connector-curvature="0" style="fill:#f0abfc;stroke:none" />
    </g>
    <g id="g115" style="fill:#c4b5fd;stroke:none;text-rendering:geometricPrecision">
      <path d="m 208.1577,338.2469 75.603,43.637 c 1.1494,0.6635 2.6185,0.2697 3.2819,-0.8798 0.6635,-1.1495 0.2697,-2.6185 -0.8798,-3.282 l -75.603,-43.637 c -1.1495,-0.6635 -2.6185,-0.2697 -3.282,0.8798 -0.6634,1.1495 -0.2696,2.6185 0.8799,3.282 z" clip-path="url(#1714325888421-clipPath1)" id="path117" ns1:connector-curvature="0" style="stroke:none" />
      <path d="m 208.1577,338.2469 75.603,43.637 c 1.1494,0.6635 2.6185,0.2697 3.2819,-0.8798 0.6635,-1.1495 0.2697,-2.6185 -0.8798,-3.282 l -75.603,-43.637 c -1.1495,-0.6635 -2.6185,-0.2697 -3.282,0.8798 -0.6634,1.1495 -0.2696,2.6185 0.8799,3.282 z" clip-path="url(#1714325888267-clipPath1)" id="path119" ns1:connector-curvature="0" style="fill:#f0abfc;stroke:none" />
    </g>
    <g id="g121" style="text-rendering:geometricPrecision;fill:#f0abfc;stroke:none">
      <path d="m 327.2276,381.8839 75.603,-43.637 c 1.1494,-0.6635 1.5433,-2.1326 0.8798,-3.282 -0.6635,-1.1495 -2.1325,-1.5433 -3.282,-0.8798 l -75.603,43.637 c -1.1494,0.6635 -1.5432,2.1325 -0.8798,3.282 0.6635,1.1494 2.1325,1.5433 3.282,0.8798 z" clip-path="url(#1714325888421-clipPath1)" id="path123" ns1:connector-curvature="0" style="stroke:none" />
      <path d="m 327.2276,381.8839 75.603,-43.637 c 1.1494,-0.6635 1.5433,-2.1326 0.8798,-3.282 -0.6635,-1.1495 -2.1325,-1.5433 -3.282,-0.8798 l -75.603,43.637 c -1.1494,0.6635 -1.5432,2.1325 -0.8798,3.282 0.6635,1.1494 2.1325,1.5433 3.282,0.8798 z" clip-path="url(#1714325888440-clipPath1)" id="path125" ns1:connector-curvature="0" style="fill:#c4b5fd;stroke:none" />
    </g>
    <g id="g127" style="fill:#c4b5fd;stroke:none;text-rendering:geometricPrecision">
      <path d="m 304.2928,167.5671 -75.6038,43.6482 c -1.1494,0.6635 -1.5431,2.1326 -0.8795,3.282 0.6636,1.1494 2.1327,1.5431 3.2821,0.8795 l 75.6038,-43.6481 c 1.1494,-0.6636 1.5431,-2.1327 0.8795,-3.2821 -0.6636,-1.1494 -2.1327,-1.5431 -3.2821,-0.8795 z" clip-path="url(#1714325888421-clipPath1)" id="path129" ns1:connector-curvature="0" style="stroke:none" />
      <path d="m 304.2928,167.5671 -75.6038,43.6482 c -1.1494,0.6635 -1.5431,2.1326 -0.8795,3.282 0.6636,1.1494 2.1327,1.5431 3.2821,0.8795 l 75.6038,-43.6481 c 1.1494,-0.6636 1.5431,-2.1327 0.8795,-3.2821 -0.6636,-1.1494 -2.1327,-1.5431 -3.2821,-0.8795 z" clip-path="url(#1714325888880-clipPath1)" id="path131" ns1:connector-curvature="0" style="fill:#f0abfc;stroke:none" />
    </g>
    <g id="g133" style="text-rendering:geometricPrecision;fill:#f0abfc;stroke:none">
      <path d="m 206.9561,252.8264 0,83.3396 c 0,1.3272 1.0754,2.4026 2.4026,2.4026 1.3272,0 2.4027,-1.0754 2.4027,-2.4026 l 0,-83.3396 c 0,-1.3272 -1.0755,-2.4026 -2.4027,-2.4026 -1.3272,0 -2.4026,1.0754 -2.4026,2.4026 z" clip-path="url(#1714325888421-clipPath1)" id="path135" ns1:connector-curvature="0" style="stroke:none" />
      <path d="m 206.9561,252.8264 0,83.3396 c 0,1.3272 1.0754,2.4026 2.4026,2.4026 1.3272,0 2.4027,-1.0754 2.4027,-2.4026 l 0,-83.3396 c 0,-1.3272 -1.0755,-2.4026 -2.4027,-2.4026 -1.3272,0 -2.4026,1.0754 -2.4026,2.4026 z" clip-path="url(#1714325888732-clipPath1)" id="path137" ns1:connector-curvature="0" style="fill:#c4b5fd;stroke:none" />
    </g>
    <g id="g139" style="fill:#6ee7b7;stroke:none;text-rendering:geometricPrecision">
      <path d="m 572.4457,283.0815 84.5564,0.007 c 1.3272,10e-5 2.4027,-1.0753 2.4029,-2.4025 10e-5,-1.3272 -1.0753,-2.4027 -2.4025,-2.4028 l -84.5563,-0.007 c -1.3272,-1e-4 -2.4027,1.0752 -2.4029,2.4024 -1e-4,1.3272 1.0752,2.4028 2.4024,2.4029 z" clip-path="url(#1714325888421-clipPath1)" id="path141" ns1:connector-curvature="0" style="stroke:none" />
      <path d="m 572.4457,283.0815 84.5564,0.007 c 1.3272,10e-5 2.4027,-1.0753 2.4029,-2.4025 10e-5,-1.3272 -1.0753,-2.4027 -2.4025,-2.4028 l -84.5563,-0.007 c -1.3272,-1e-4 -2.4027,1.0752 -2.4029,2.4024 -1e-4,1.3272 1.0752,2.4028 2.4024,2.4029 z" clip-path="url(#1714325888206-clipPath1)" id="path143" ns1:connector-curvature="0" style="fill:#f0abfc;stroke:none" />
    </g>
    <g id="g145" style="text-rendering:geometricPrecision;fill:#f0abfc;stroke:none">
      <path d="m 190.0287,211.2147 -67.2767,-38.843 c -1.1493,-0.6636 -2.6184,-0.27 -3.282,0.8794 -0.6637,1.1494 -0.27,2.6184 0.8794,3.282 l 67.2767,38.8431 c 1.1494,0.6636 2.6184,0.27 3.2821,-0.8794 0.6636,-1.1494 0.2699,-2.6185 -0.8795,-3.2821 z" clip-path="url(#1714325888421-clipPath1)" id="path147" ns1:connector-curvature="0" style="stroke:none" />
      <path d="m 190.0287,211.2147 -67.2767,-38.843 c -1.1493,-0.6636 -2.6184,-0.27 -3.282,0.8794 -0.6637,1.1494 -0.27,2.6184 0.8794,3.282 l 67.2767,38.8431 c 1.1494,0.6636 2.6184,0.27 3.2821,-0.8794 0.6636,-1.1494 0.2699,-2.6185 -0.8795,-3.2821 z" clip-path="url(#1714325888674-clipPath1)" id="path149" ns1:connector-curvature="0" style="fill:#c4b5fd;stroke:none" />
    </g>
    <g id="g151" style="text-rendering:geometricPrecision;fill:#f0abfc;stroke:none">
      <path d="m 303.0915,419.331 0,73.7155 c 0,1.3272 1.0754,2.4027 2.4026,2.4027 1.3272,0 2.4027,-1.0755 2.4027,-2.4027 l 0,-73.7155 c 0,-1.3272 -1.0755,-2.4026 -2.4027,-2.4026 -1.3272,0 -2.4026,1.0754 -2.4026,2.4026 z" clip-path="url(#1714325888421-clipPath1)" id="path153" ns1:connector-curvature="0" style="stroke:none" />
      <path d="m 303.0915,419.331 0,73.7155 c 0,1.3272 1.0754,2.4027 2.4026,2.4027 1.3272,0 2.4027,-1.0755 2.4027,-2.4027 l 0,-73.7155 c 0,-1.3272 -1.0755,-2.4026 -2.4027,-2.4026 -1.3272,0 -2.4026,1.0754 -2.4026,2.4026 z" clip-path="url(#1714325888705-clipPath1)" id="path155" ns1:connector-curvature="0" style="fill:#c4b5fd;stroke:none" />
    </g>
    <g id="g157" style="fill:#eef2ff;stroke:none;text-rendering:geometricPrecision">
      </g>
    <g font-size="39px" transform="translate(194.8119,201.6494)" id="g161" style="font-size:39px;font-family:sans-serif;fill:#c4b5fd;stroke:none;text-rendering:geometricPrecision">
      <text x="0" xml:space="preserve" y="38" clip-path="url(#1714325888910-clipPath1)" id="text163" style="stroke:none">N</text>
    </g>
    <g font-size="39px" id="g165" style="font-size:39px;font-family:sans-serif;fill:#eef2ff;stroke:none;text-rendering:geometricPrecision">
      <text x="0" y="38" transform="translate(290.9472,368.154)" clip-path="url(#1714325888954-clipPath1)" xml:space="preserve" id="text169" style="fill:#c4b5fd;stroke:none">N</text>
    </g>
    <g font-size="39px" id="g171" style="font-size:39px;font-family:sans-serif;fill:#eef2ff;stroke:none;text-rendering:geometricPrecision">
      <text x="0" y="38" transform="translate(492.6438,346.9755)" clip-path="url(#17143258886-clipPath1)" xml:space="preserve" id="text175" style="fill:#c4b5fd;stroke:none">N</text>
    </g>
    <g font-size="39px" id="g177" style="font-size:39px;font-family:sans-serif;fill:#eef2ff;stroke:none;text-rendering:geometricPrecision">
      <text x="0" y="38" transform="translate(493.1617,167.3747)" clip-path="url(#1714325888978-clipPath1)" xml:space="preserve" id="text181" style="fill:#c4b5fd;stroke:none">NH</text>
    </g>
    <g font-size="39px" id="g183" style="font-size:39px;font-family:sans-serif;fill:#eef2ff;stroke:none;text-rendering:geometricPrecision">
      <text x="0" y="38" transform="translate(98.215,368.1734)" clip-path="url(#1714325888180-clipPath1)" xml:space="preserve" id="text187" style="fill:#fda4af;stroke:none">O</text>
    </g>
    <g font-size="39px" id="g189" style="font-size:39px;font-family:sans-serif;fill:#eef2ff;stroke:none;text-rendering:geometricPrecision">
      <text x="0" y="38" transform="translate(290.4785,35.1448)" clip-path="url(#1714325888424-clipPath1)" xml:space="preserve" id="text193" style="fill:#fda4af;stroke:none">O</text>
    </g>
    <g font-size="39px" id="g195" style="font-size:39px;font-family:sans-serif;fill:#eef2ff;stroke:none;text-rendering:geometricPrecision">
      <text x="0" y="38" transform="translate(664.6131,257.1883)" clip-path="url(#1714325888785-clipPath1)" xml:space="preserve" id="text199" style="fill:#6ee7b7;stroke:none">Cl</text>
    </g>
  </g>
</svg>