<?xml version='1.0' encoding='utf-8'?>
<svg xmlns="http://www.w3.org/2000/svg" xmlns:dc="http://purl.org/dc/elements/1.1/" xmlns:ns1="http://www.inkscape.org/namespaces/inkscape" xmlns:ns2="http://sodipodi.sourceforge.net/DTD/sodipodi-0.dtd" xmlns:ns4="http://creativecommons.org/ns#" xmlns:rdf="http://www.w3.org/1999/02/22-rdf-syntax-ns#" width="680.39691" stroke-miterlimit="10" font-weight="normal" height="475.22961" font-style="normal" font-size="12px" id="svg2" version="1.1" ns1:version="0.91 r13725" ns2:docname="Adrafinil.svg" style="font-style:normal;font-weight:normal;font-size:12px;font-family:Dialog;color-interpolation:auto;fill:#000000;fill-opacity:1;stroke:none;stroke:none;stroke:none;stroke:none;stroke:none;stroke:none;stroke:none;stroke:none;color-rendering:auto;image-rendering:auto;shape-rendering:auto;text-rendering:auto">
  <metadata id="metadata181">
    <rdf:RDF>
      <ns4:Work rdf:about="">
        <dc:format>image/svg+xml</dc:format>
        <dc:type rdf:resource="http://purl.org/dc/dcmitype/StillImage" />
        <dc:title />
      </ns4:Work>
    </rdf:RDF>
  </metadata>
  <ns2:namedview pagecolor="#ffffff" bordercolor="#666666" borderopacity="1" objecttolerance="10" gridtolerance="10" guidetolerance="10" ns1:pageopacity="0" ns1:pageshadow="2" ns1:window-width="1060" ns1:window-height="480" id="namedview179" showgrid="false" fit-margin-top="10" fit-margin-left="10" fit-margin-right="10" fit-margin-bottom="10" ns1:zoom="0.36375" ns1:cx="377.16133" ns1:cy="223.28066" ns1:window-x="0" ns1:window-y="0" ns1:window-maximized="0" ns1:current-layer="svg2" />
  
  <defs id="genericDefs" />
  <g id="g5" transform="translate(-22.838674,-48.051047)" style="fill:#000000;stroke:none">
    <defs id="569582979415-defs1">
      <clipPath clipPathUnits="userSpaceOnUse" id="569582979250-clipPath1">
        <path d="M 0,0 800,0 800,600 0,600 0,0 Z" id="path9" ns1:connector-curvature="0" style="stroke:none" />
      </clipPath>
      <clipPath clipPathUnits="userSpaceOnUse" id="569582979907-clipPath1">
        <path d="m 269.2896,203.9417 c -20.2107,0 -36.5947,16.384 -36.5947,36.5946 0,20.2107 16.384,36.5947 36.5947,36.5947 20.2106,0 36.5946,-16.384 36.5946,-36.5947 0,-20.2106 -16.384,-36.5946 -36.5946,-36.5946 z" id="path12" ns1:connector-curvature="0" style="stroke:none" />
      </clipPath>
      <clipPath clipPathUnits="userSpaceOnUse" id="569582979793-clipPath1">
        <path d="m 362.2407,167.348 c -20.2106,0 -36.5946,16.3839 -36.5946,36.5946 0,20.2106 16.384,36.5945 36.5946,36.5945 20.2107,0 36.5946,-16.3839 36.5946,-36.5945 0,-20.2107 -16.3839,-36.5946 -36.5946,-36.5946 z" id="path15" ns1:connector-curvature="0" style="stroke:none" />
      </clipPath>
      <clipPath clipPathUnits="userSpaceOnUse" id="56958297919-clipPath1">
        <path d="m 503.7917,159.8261 c -19.6516,0 -35.5824,15.9308 -35.5824,35.5824 0,19.6516 15.9308,35.5824 35.5824,35.5824 19.6516,0 35.5824,-15.9308 35.5824,-35.5824 0,-19.6516 -15.9308,-35.5824 -35.5824,-35.5824 z" id="path18" ns1:connector-curvature="0" style="stroke:none" />
      </clipPath>
      <clipPath clipPathUnits="userSpaceOnUse" id="569582979886-clipPath1">
        <path d="m 347.4574,150.5663 c -12.2273,0 -22.1395,9.9122 -22.1395,22.1395 0,12.2274 9.9122,22.1395 22.1395,22.1395 12.2273,0 22.1395,-9.9121 22.1395,-22.1395 0,-12.2273 -9.9122,-22.1395 -22.1395,-22.1395 z" id="path21" ns1:connector-curvature="0" style="stroke:none" />
      </clipPath>
      <clipPath clipPathUnits="userSpaceOnUse" id="569582979409-clipPath1">
        <path d="m 503.7917,161.9183 c -18.4961,0 -33.4902,14.9941 -33.4902,33.4902 0,18.4961 14.9941,33.4901 33.4902,33.4901 18.4961,0 33.4902,-14.994 33.4902,-33.4901 0,-18.4961 -14.9941,-33.4902 -33.4902,-33.4902 z" id="path24" ns1:connector-curvature="0" style="stroke:none" />
      </clipPath>
      <clipPath clipPathUnits="userSpaceOnUse" id="569582979622-clipPath1">
        <path d="m 598.4954,206.0032 c -13.8008,0 -24.9886,11.1878 -24.9886,24.9885 0,13.8008 11.1878,24.9886 24.9886,24.9886 13.8007,0 24.9884,-11.1878 24.9884,-24.9886 0,-13.8007 -11.1877,-24.9885 -24.9884,-24.9885 z" id="path27" ns1:connector-curvature="0" style="stroke:none" />
      </clipPath>
      <clipPath clipPathUnits="userSpaceOnUse" id="569582979616-clipPath1">
        <path d="m -338.9181,-176.4071 800,0 0,600 -800,0 0,-600 z" id="path30" ns1:connector-curvature="0" style="stroke:none" />
      </clipPath>
      <clipPath clipPathUnits="userSpaceOnUse" id="569582979159-clipPath1">
        <path d="m -335.1455,-86.1473 800,0 0,600 -800,0 0,-600 z" id="path33" ns1:connector-curvature="0" style="stroke:none" />
      </clipPath>
      <clipPath clipPathUnits="userSpaceOnUse" id="569582979199-clipPath1">
        <path d="m -491.48,-86.1487 800,0 0,600 -800,0 0,-600 z" id="path36" ns1:connector-curvature="0" style="stroke:none" />
      </clipPath>
      <clipPath clipPathUnits="userSpaceOnUse" id="569582979911-clipPath1">
        <path d="m -570.1226,-221.5391 800,0 0,600 -800,0 0,-600 z" id="path39" ns1:connector-curvature="0" style="stroke:none" />
      </clipPath>
      <clipPath clipPathUnits="userSpaceOnUse" id="569582979682-clipPath1">
        <path d="m -570.1236,-253.7747 800,0 0,600 -800,0 0,-600 z" id="path42" ns1:connector-curvature="0" style="stroke:none" />
      </clipPath>
      <clipPath clipPathUnits="userSpaceOnUse" id="569582979877-clipPath1">
        <path d="m -646.8137,-176.4099 800,0 0,600 -800,0 0,-600 z" id="path45" ns1:connector-curvature="0" style="stroke:none" />
      </clipPath>
    </defs>
    <g id="g47" style="text-rendering:geometricPrecision;fill:#000000;stroke:none">
      <path d="m 112.2378,81.4733 c 0.9346,-0.5397 1.2546,-1.7342 0.715,-2.6688 -0.5396,-0.9346 -1.7342,-1.2546 -2.6688,-0.715 l -58.4957,33.7759 c -0.9345,0.5396 -1.2546,1.7342 -0.7149,2.6688 0.5396,0.9345 1.7342,1.2546 2.6687,0.7149 z m 1.6913,-19.7763 c 0.9346,-0.5396 1.2547,-1.7342 0.715,-2.6688 -0.5396,-0.9345 -1.7342,-1.2546 -2.6688,-0.7149 l -78.1595,45.1299 c -0.9345,0.5396 -1.2546,1.7341 -0.7149,2.6687 0.5396,0.9346 1.7342,1.2546 2.6687,0.715 z" clip-path="url(#569582979250-clipPath1)" id="path49" ns1:connector-curvature="0" style="stroke:none" />
    </g>
    <g id="g51" style="text-rendering:geometricPrecision;fill:#000000;stroke:none">
      <path d="m 32.8391,105.135 0,90.2707 c 0,1.0792 0.8745,1.9537 1.9537,1.9537 1.0791,0 1.9536,-0.8745 1.9536,-1.9537 l 0,-90.2707 c 0,-1.0792 -0.8745,-1.9536 -1.9536,-1.9536 -1.0792,0 -1.9537,0.8744 -1.9537,1.9536 z" clip-path="url(#569582979250-clipPath1)" id="path53" ns1:connector-curvature="0" style="stroke:none" />
    </g>
    <g id="g55" style="text-rendering:geometricPrecision;fill:#000000;stroke:none">
      <path d="m 53.7421,185.2916 c -0.9345,-0.5396 -2.1291,-0.2196 -2.6687,0.715 -0.5397,0.9346 -0.2196,2.1291 0.7149,2.6688 l 58.4957,33.7758 c 0.9346,0.5397 2.1292,0.2196 2.6688,-0.7149 0.5396,-0.9346 0.2196,-2.1292 -0.715,-2.6688 z m -17.9724,8.4223 c -0.9346,-0.5397 -2.1292,-0.2197 -2.6688,0.7149 -0.5397,0.9346 -0.2196,2.1292 0.715,2.6688 l 78.1594,45.1299 c 0.9346,0.5396 2.1292,0.2196 2.6688,-0.715 0.5397,-0.9346 0.2196,-2.1291 -0.715,-2.6687 z" clip-path="url(#569582979250-clipPath1)" id="path57" ns1:connector-curvature="0" style="stroke:none" />
    </g>
    <g id="g59" style="text-rendering:geometricPrecision;fill:#000000;stroke:none">
      <path d="m 113.929,242.2276 78.1705,-45.1299 c 0.9346,-0.5396 1.2547,-1.7341 0.7151,-2.6688 -0.5396,-0.9346 -1.7341,-1.2547 -2.6687,-0.7151 l -78.1705,45.1299 c -0.9346,0.5396 -1.2547,1.7341 -0.7151,2.6687 0.5396,0.9346 1.7341,1.2547 2.6687,0.7152 z" clip-path="url(#569582979250-clipPath1)" id="path61" ns1:connector-curvature="0" style="stroke:none" />
    </g>
    <g id="g63" style="text-rendering:geometricPrecision;fill:#000000;stroke:none">
      <path d="m 172.8884,184.0523 c 0,1.0792 0.8745,1.9536 1.9537,1.9536 1.0792,0 1.9536,-0.8744 1.9536,-1.9536 l 0,-67.5638 c 0,-1.0792 -0.8744,-1.9537 -1.9536,-1.9537 -1.0792,0 -1.9537,0.8745 -1.9537,1.9537 z m 16.2806,11.3534 c 0,1.0792 0.8745,1.9537 1.9537,1.9537 1.0792,0 1.9536,-0.8745 1.9536,-1.9537 l 0,-90.2707 c 0,-1.0792 -0.8744,-1.9536 -1.9536,-1.9536 -1.0792,0 -1.9537,0.8744 -1.9537,1.9536 z" clip-path="url(#569582979250-clipPath1)" id="path65" ns1:connector-curvature="0" style="stroke:none" />
    </g>
    <g id="g67" style="text-rendering:geometricPrecision;fill:#000000;stroke:none">
      <path d="M 192.0995,103.4431 113.929,58.3132 c -0.9346,-0.5396 -2.1291,-0.2195 -2.6687,0.7151 -0.5396,0.9347 -0.2195,2.1292 0.7151,2.6688 l 78.1705,45.1299 c 0.9346,0.5395 2.1291,0.2194 2.6687,-0.7152 0.5396,-0.9346 0.2195,-2.1291 -0.7151,-2.6687 z" clip-path="url(#569582979250-clipPath1)" id="path69" ns1:connector-curvature="0" style="stroke:none" />
    </g>
    <g id="g71" style="text-rendering:geometricPrecision;fill:#000000;stroke:none">
      <path d="m 190.1458,197.0976 78.1669,45.1306 c 0.9346,0.5396 2.1291,0.2196 2.6687,-0.715 0.5397,-0.9346 0.2196,-2.1292 -0.715,-2.6688 l -78.1669,-45.1306 c -0.9346,-0.5396 -2.1291,-0.2195 -2.6687,0.7151 -0.5396,0.9346 -0.2196,2.1291 0.715,2.6687 z" clip-path="url(#569582979250-clipPath1)" id="path73" ns1:connector-curvature="0" style="stroke:none" />
    </g>
    <g id="g75" style="text-rendering:geometricPrecision;fill:#000000;stroke:none">
      <path d="m 267.3359,240.5363 -8e-4,90.2598 c 0,1.0791 0.8744,1.9536 1.9536,1.9536 1.0792,10e-5 1.9537,-0.8744 1.9537,-1.9536 l 8e-4,-90.2598 c 0,-1.0792 -0.8745,-1.9536 -1.9536,-1.9536 -1.0792,-10e-5 -1.9537,0.8744 -1.9537,1.9536 z" clip-path="url(#569582979250-clipPath1)" id="path77" ns1:connector-curvature="0" style="stroke:none" />
    </g>
    <g id="g79" style="text-rendering:geometricPrecision;fill:#000000;stroke:none">
      <path d="m 189.1742,375.9236 -0.003,90.2706 c 0,1.0792 0.8744,1.9537 1.9536,1.9538 1.0792,0 1.9537,-0.8744 1.9537,-1.9536 l 0.003,-90.2708 c 1e-4,-1.0791 -0.8744,-1.9536 -1.9536,-1.9537 -1.0791,0 -1.9536,0.8745 -1.9537,1.9537 z" clip-path="url(#569582979250-clipPath1)" id="path81" ns1:connector-curvature="0" style="stroke:none" />
    </g>
    <g id="g83" style="text-rendering:geometricPrecision;fill:#000000;stroke:none">
      <path d="m 210.0748,456.0808 c -0.9345,-0.5397 -2.1291,-0.2197 -2.6688,0.7149 -0.5396,0.9345 -0.2196,2.1291 0.7149,2.6687 l 58.4947,33.7777 c 0.9346,0.5397 2.1292,0.2197 2.6688,-0.7149 0.5397,-0.9345 0.2197,-2.1291 -0.7149,-2.6688 z m -17.9727,8.4217 c -0.9346,-0.5397 -2.1291,-0.2197 -2.6688,0.7149 -0.5397,0.9345 -0.2197,2.1291 0.7149,2.6688 l 78.1581,45.1322 c 0.9346,0.5396 2.1292,0.2197 2.6688,-0.7149 0.5397,-0.9345 0.2197,-2.1291 -0.7149,-2.6688 z" clip-path="url(#569582979250-clipPath1)" id="path85" ns1:connector-curvature="0" style="stroke:none" />
    </g>
    <g id="g87" style="text-rendering:geometricPrecision;fill:#000000;stroke:none">
      <path d="m 270.26,513.0186 78.1718,-45.1276 c 0.9347,-0.5395 1.2548,-1.7341 0.7152,-2.6687 -0.5395,-0.9346 -1.734,-1.2548 -2.6687,-0.7152 l -78.1718,45.1275 c -0.9346,0.5396 -1.2547,1.7341 -0.7152,2.6687 0.5396,0.9346 1.7341,1.2548 2.6687,0.7153 z" clip-path="url(#569582979250-clipPath1)" id="path89" ns1:connector-curvature="0" style="stroke:none" />
    </g>
    <g id="g91" style="text-rendering:geometricPrecision;fill:#000000;stroke:none">
      <path d="m 329.2212,454.845 c -1e-4,1.0792 0.8744,1.9537 1.9535,1.9538 1.0792,0 1.9537,-0.8745 1.9538,-1.9536 l 0.002,-67.5638 c 1e-4,-1.0792 -0.8744,-1.9537 -1.9536,-1.9538 -1.0792,0 -1.9537,0.8745 -1.9537,1.9536 z m 16.2802,11.354 c 0,1.0792 0.8744,1.9537 1.9536,1.9537 1.0792,0 1.9537,-0.8744 1.9537,-1.9536 l 0.003,-90.2707 c 0,-1.0792 -0.8745,-1.9537 -1.9536,-1.9537 -1.0792,-10e-5 -1.9537,0.8744 -1.9537,1.9536 z" clip-path="url(#569582979250-clipPath1)" id="path93" ns1:connector-curvature="0" style="stroke:none" />
    </g>
    <g id="g95" style="text-rendering:geometricPrecision;fill:#000000;stroke:none">
      <path d="m 268.5737,352.2642 c 0.9346,-0.5396 1.2546,-1.7342 0.7151,-2.6687 -0.5397,-0.9346 -1.7342,-1.2547 -2.6688,-0.7151 l -58.4967,33.7741 c -0.9346,0.5396 -1.2547,1.7341 -0.7151,2.6687 0.5396,0.9346 1.7342,1.2547 2.6688,0.7151 z m 1.6919,-19.7762 c 0.9346,-0.5396 1.2547,-1.7342 0.7151,-2.6688 -0.5397,-0.9346 -1.7342,-1.2546 -2.6688,-0.715 l -78.1609,45.1275 c -0.9346,0.5396 -1.2546,1.7342 -0.715,2.6688 0.5396,0.9346 1.7341,1.2546 2.6687,0.715 z" clip-path="url(#569582979250-clipPath1)" id="path97" ns1:connector-curvature="0" style="stroke:none" />
    </g>
    <g id="g99" style="text-rendering:geometricPrecision;fill:#000000;stroke:none">
      <path d="m 348.4347,374.2365 -78.1691,-45.1323 c -0.9346,-0.5396 -2.1292,-0.2196 -2.6688,0.715 -0.5396,0.9346 -0.2195,2.1292 0.7151,2.6688 l 78.1691,45.1322 c 0.9346,0.5397 2.1291,0.2196 2.6687,-0.715 0.5396,-0.9346 0.2196,-2.1292 -0.715,-2.6687 z" clip-path="url(#569582979250-clipPath1)" id="path101" ns1:connector-curvature="0" style="stroke:none" />
    </g>
    <g id="g103" style="text-rendering:geometricPrecision;fill:#000000;stroke:none">
      <path d="m 426.6009,242.2296 78.1676,-45.1292 c 0.9346,-0.5396 1.2547,-1.7341 0.7151,-2.6687 -0.5396,-0.9346 -1.7341,-1.2547 -2.6687,-0.7151 l -78.1677,45.1292 c -0.9346,0.5395 -1.2547,1.7341 -0.7151,2.6687 0.5396,0.9346 1.7342,1.2547 2.6688,0.7151 z" clip-path="url(#569582979250-clipPath1)" id="path105" ns1:connector-curvature="0" style="stroke:none" />
    </g>
    <g id="g107" style="fill:#666600;stroke:none;text-rendering:geometricPrecision">
      <path d="m 270.2664,242.2282 63.384,-36.594 c 0.9347,-0.5396 1.2547,-1.7342 0.7151,-2.6688 -0.5395,-0.9346 -1.7341,-1.2547 -2.6687,-0.7151 l -63.3841,36.5941 c -0.9346,0.5396 -1.2547,1.7341 -0.7151,2.6687 0.5396,0.9346 1.7342,1.2547 2.6688,0.7151 z" clip-path="url(#569582979250-clipPath1)" id="path109" ns1:connector-curvature="0" style="stroke:none" />
      <path d="m 270.2664,242.2282 63.384,-36.594 c 0.9347,-0.5396 1.2547,-1.7342 0.7151,-2.6688 -0.5395,-0.9346 -1.7341,-1.2547 -2.6687,-0.7151 l -63.3841,36.5941 c -0.9346,0.5396 -1.2547,1.7341 -0.7151,2.6687 0.5396,0.9346 1.7342,1.2547 2.6688,0.7151 z" clip-path="url(#569582979907-clipPath1)" id="path111" ns1:connector-curvature="0" style="fill:#000000;stroke:none" />
    </g>
    <g id="g113" style="text-rendering:geometricPrecision;fill:#000000;stroke:none">
      <path d="m 361.2639,205.6345 63.3833,36.5951 c 0.9346,0.5396 2.1291,0.2195 2.6687,-0.7151 0.5397,-0.9346 0.2196,-2.1291 -0.715,-2.6687 l -63.3833,-36.5951 c -0.9346,-0.5397 -2.1292,-0.2196 -2.6688,0.715 -0.5396,0.9346 -0.2195,2.1292 0.7151,2.6688 z" clip-path="url(#569582979250-clipPath1)" id="path115" ns1:connector-curvature="0" style="stroke:none" />
      <path d="m 361.2639,205.6345 63.3833,36.5951 c 0.9346,0.5396 2.1291,0.2195 2.6687,-0.7151 0.5397,-0.9346 0.2196,-2.1291 -0.715,-2.6687 l -63.3833,-36.5951 c -0.9346,-0.5397 -2.1292,-0.2196 -2.6688,0.715 -0.5396,0.9346 -0.2195,2.1292 0.7151,2.6688 z" clip-path="url(#569582979793-clipPath1)" id="path117" ns1:connector-curvature="0" style="fill:#666600;stroke:none" />
    </g>
    <g id="g119" style="fill:#333399;stroke:none;text-rendering:geometricPrecision">
      <path d="m 502.8148,197.1004 61.6303,35.5829 c 0.9345,0.5396 2.1291,0.2196 2.6687,-0.715 0.5396,-0.9346 0.2196,-2.1292 -0.7151,-2.6688 l -61.6301,-35.5829 c -0.9346,-0.5396 -2.1292,-0.2196 -2.6688,0.715 -0.5396,0.9346 -0.2196,2.1292 0.715,2.6688 z" clip-path="url(#569582979250-clipPath1)" id="path121" ns1:connector-curvature="0" style="stroke:none" />
      <path d="m 502.8148,197.1004 61.6303,35.5829 c 0.9345,0.5396 2.1291,0.2196 2.6687,-0.715 0.5396,-0.9346 0.2196,-2.1292 -0.7151,-2.6688 l -61.6301,-35.5829 c -0.9346,-0.5396 -2.1292,-0.2196 -2.6688,0.715 -0.5396,0.9346 -0.2196,2.1292 0.715,2.6688 z" clip-path="url(#56958297919-clipPath1)" id="path123" ns1:connector-curvature="0" style="fill:#000000;stroke:none" />
    </g>
    <g id="g125" style="fill:#ff0000;stroke:none;text-rendering:geometricPrecision">
      <path d="m 337.3634,172.7057 c 0,1.0792 0.8745,1.9537 1.9537,1.9537 1.0792,0 1.9536,-0.8744 1.9537,-1.9536 l 3e-4,-44.2791 c 0,-1.0791 -0.8744,-1.9536 -1.9536,-1.9536 -1.0792,0 -1.9537,0.8744 -1.9537,1.9536 z m 16.2806,2e-4 c 0,1.0792 0.8745,1.9536 1.9537,1.9537 1.0792,0 1.9536,-0.8745 1.9537,-1.9537 l 3e-4,-44.279 c 1e-4,-1.0792 -0.8744,-1.9537 -1.9536,-1.9537 -1.0792,0 -1.9537,0.8745 -1.9537,1.9537 z" clip-path="url(#569582979250-clipPath1)" id="path127" ns1:connector-curvature="0" style="stroke:none" />
      <path d="m 337.3634,172.7057 c 0,1.0792 0.8745,1.9537 1.9537,1.9537 1.0792,0 1.9536,-0.8744 1.9537,-1.9536 l 3e-4,-44.2791 c 0,-1.0791 -0.8744,-1.9536 -1.9536,-1.9536 -1.0792,0 -1.9537,0.8744 -1.9537,1.9536 z m 16.2806,2e-4 c 0,1.0792 0.8745,1.9536 1.9537,1.9537 1.0792,0 1.9536,-0.8745 1.9537,-1.9537 l 3e-4,-44.279 c 1e-4,-1.0792 -0.8744,-1.9537 -1.9536,-1.9537 -1.0792,0 -1.9537,0.8745 -1.9537,1.9537 z" clip-path="url(#569582979886-clipPath1)" id="path129" ns1:connector-curvature="0" style="fill:#666600;stroke:none" />
    </g>
    <g id="g131" style="fill:#ff0000;stroke:none;text-rendering:geometricPrecision">
      <path d="m 493.6977,200.1082 c 0,1.0792 0.8744,1.9537 1.9536,1.9537 1.0792,0 1.9537,-0.8745 1.9537,-1.9537 l 7e-4,-71.6801 c 0,-1.0792 -0.8745,-1.9536 -1.9537,-1.9536 -1.0792,-1e-4 -1.9537,0.8744 -1.9537,1.9536 z m 16.2806,2e-4 c 0,1.0791 0.8745,1.9536 1.9536,1.9536 1.0792,0 1.9537,-0.8744 1.9537,-1.9536 l 6e-4,-71.6801 c 10e-5,-1.0792 -0.8744,-1.9537 -1.9536,-1.9537 -1.0792,0 -1.9537,0.8744 -1.9537,1.9536 z" clip-path="url(#569582979250-clipPath1)" id="path133" ns1:connector-curvature="0" style="stroke:none" />
      <path d="m 493.6977,200.1082 c 0,1.0792 0.8744,1.9537 1.9536,1.9537 1.0792,0 1.9537,-0.8745 1.9537,-1.9537 l 7e-4,-71.6801 c 0,-1.0792 -0.8745,-1.9536 -1.9537,-1.9536 -1.0792,-1e-4 -1.9537,0.8744 -1.9537,1.9536 z m 16.2806,2e-4 c 0,1.0791 0.8745,1.9536 1.9536,1.9536 1.0792,0 1.9537,-0.8744 1.9537,-1.9536 l 6e-4,-71.6801 c 10e-5,-1.0792 -0.8744,-1.9537 -1.9536,-1.9537 -1.0792,0 -1.9537,0.8744 -1.9537,1.9536 z" clip-path="url(#569582979409-clipPath1)" id="path135" ns1:connector-curvature="0" style="fill:#000000;stroke:none" />
    </g>
    <g id="g137" style="fill:#ff0000;stroke:none;text-rendering:geometricPrecision">
      <path d="m 599.4722,232.6837 43.2815,-24.9882 c 0.9347,-0.5396 1.2547,-1.7341 0.7152,-2.6687 -0.5396,-0.9346 -1.7342,-1.2547 -2.6688,-0.7151 l -43.2815,24.9881 c -0.9347,0.5396 -1.2547,1.7342 -0.7152,2.6688 0.5396,0.9346 1.7341,1.2547 2.6688,0.7151 z" clip-path="url(#569582979250-clipPath1)" id="path139" ns1:connector-curvature="0" style="stroke:none" />
      <path d="m 599.4722,232.6837 43.2815,-24.9882 c 0.9347,-0.5396 1.2547,-1.7341 0.7152,-2.6687 -0.5396,-0.9346 -1.7342,-1.2547 -2.6688,-0.7151 l -43.2815,24.9881 c -0.9347,0.5396 -1.2547,1.7342 -0.7152,2.6688 0.5396,0.9346 1.7341,1.2547 2.6688,0.7151 z" clip-path="url(#569582979622-clipPath1)" id="path141" ns1:connector-curvature="0" style="fill:#333399;stroke:none" />
    </g>
    <g id="g143" style="fill:#ffffff;stroke:none;text-rendering:geometricPrecision">
      </g>
    <g font-size="32px" transform="translate(338.9181,176.4071)" id="g147" style="font-size:32px;font-family:sans-serif;fill:#666600;stroke:none;text-rendering:geometricPrecision">
      <text x="0" xml:space="preserve" y="31" clip-path="url(#569582979616-clipPath1)" id="text149" style="stroke:none">S</text>
    </g>
    <g font-size="32px" id="g151" style="font-size:32px;font-family:sans-serif;fill:#ffffff;stroke:none;text-rendering:geometricPrecision">
      <text x="0" y="31" transform="translate(335.1455,86.1473)" clip-path="url(#569582979159-clipPath1)" xml:space="preserve" id="text155" style="fill:#ff0000;stroke:none">O</text>
    </g>
    <g font-size="32px" id="g157" style="font-size:32px;font-family:sans-serif;fill:#ffffff;stroke:none;text-rendering:geometricPrecision">
      <text x="0" y="31" transform="translate(491.48,86.1487)" clip-path="url(#569582979199-clipPath1)" xml:space="preserve" id="text161" style="fill:#ff0000;stroke:none">O</text>
    </g>
    <g font-size="32px" id="g163" style="font-size:32px;font-family:sans-serif;fill:#ffffff;stroke:none;text-rendering:geometricPrecision">
      <text x="0" y="31" transform="translate(570.1226,221.5391)" clip-path="url(#569582979911-clipPath1)" xml:space="preserve" id="text167" style="fill:#333399;stroke:none">N</text>
    </g>
    <g font-size="32px" transform="translate(570.1236,253.7747)" id="g169" style="font-size:32px;font-family:sans-serif;fill:#333399;stroke:none;text-rendering:geometricPrecision">
      <text x="0" xml:space="preserve" y="31" clip-path="url(#569582979682-clipPath1)" id="text171" style="stroke:none">H</text>
    </g>
    <g font-size="32px" id="g173" style="font-size:32px;font-family:sans-serif;fill:#ffffff;stroke:none;text-rendering:geometricPrecision">
      <text x="0" y="31" transform="translate(646.8137,176.4099)" clip-path="url(#569582979877-clipPath1)" xml:space="preserve" id="text177" style="fill:#ff0000;stroke:none">OH</text>
    </g>
  </g>
</svg>