<?xml version='1.0' encoding='utf-8'?>
<svg xmlns="http://www.w3.org/2000/svg" xmlns:dc="http://purl.org/dc/elements/1.1/" xmlns:ns1="http://www.inkscape.org/namespaces/inkscape" xmlns:ns2="http://sodipodi.sourceforge.net/DTD/sodipodi-0.dtd" xmlns:ns4="http://creativecommons.org/ns#" xmlns:rdf="http://www.w3.org/1999/02/22-rdf-syntax-ns#" width="611.35583" stroke-miterlimit="10" font-weight="normal" height="396.2677" font-style="normal" font-size="12px" id="svg2" version="1.1" ns1:version="0.91 r13725" ns2:docname="Alazocine.svg" style="font-style:normal;font-weight:normal;font-size:12px;font-family:Dialog;color-interpolation:auto;fill:#f0abfc;fill-opacity:1;stroke:none;stroke:none;stroke:none;stroke:none;stroke:none;stroke:none;stroke:none;stroke:none;color-rendering:auto;image-rendering:auto;shape-rendering:auto;text-rendering:auto">
  <metadata id="metadata140">
    <rdf:RDF>
      <ns4:Work rdf:about="">
        <dc:format>image/svg+xml</dc:format>
        <dc:type rdf:resource="http://purl.org/dc/dcmitype/StillImage" />
        <dc:title />
      </ns4:Work>
    </rdf:RDF>
  </metadata>
  <ns2:namedview pagecolor="#eef2ff" bordercolor="#666666" borderopacity="1" objecttolerance="10" gridtolerance="10" guidetolerance="10" ns1:pageopacity="0" ns1:pageshadow="2" ns1:window-width="1060" ns1:window-height="480" id="namedview138" showgrid="false" fit-margin-top="10" fit-margin-left="10" fit-margin-right="10" fit-margin-bottom="10" ns1:zoom="0.36375" ns1:cx="425.37343" ns1:cy="115.778" ns1:window-x="0" ns1:window-y="0" ns1:window-maximized="0" ns1:current-layer="svg2" />
  
  <defs id="genericDefs" />
  <g id="g5" transform="translate(-94.2142,-19.5103)" style="fill:#f0abfc;stroke:none">
    <defs id="128426255156-defs1">
      <clipPath clipPathUnits="userSpaceOnUse" id="1284262551138-clipPath1">
        <path d="M 0,0 800,0 800,600 0,600 0,0 Z" id="path9" ns1:connector-curvature="0" style="stroke:none" />
      </clipPath>
      <clipPath clipPathUnits="userSpaceOnUse" id="1284262551329-clipPath1">
        <path d="m 424,241 q 7,6 0,13 l -82,0 q -6,-7 0,-13 z M 0,0 0,600 800,600 800,0 Z" id="path12" ns1:connector-curvature="0" style="stroke:none" />
      </clipPath>
      <clipPath clipPathUnits="userSpaceOnUse" id="1284262551208-clipPath1">
        <path d="m 413.3078,256.1534 c -17.8094,0 -32.2468,14.4374 -32.2468,32.2468 0,17.8094 14.4374,32.2468 32.2468,32.2468 17.8094,0 32.2468,-14.4374 32.2468,-32.2468 0,-17.8094 -14.4374,-32.2468 -32.2468,-32.2468 z" id="path15" ns1:connector-curvature="0" style="stroke:none" />
      </clipPath>
      <clipPath clipPathUnits="userSpaceOnUse" id="1284262551534-clipPath1">
        <path d="m 472.5211,272.5708 c -22.5622,0 -40.8525,18.2903 -40.8525,40.8525 0,22.5623 18.2903,40.8526 40.8525,40.8526 22.5623,0 40.8526,-18.2903 40.8526,-40.8526 0,-22.5622 -18.2903,-40.8525 -40.8526,-40.8525 z" id="path18" ns1:connector-curvature="0" style="stroke:none" />
      </clipPath>
      <clipPath clipPathUnits="userSpaceOnUse" id="1284262551937-clipPath1">
        <path d="m 499.4352,291.447 c -18.146,0 -32.8563,14.7103 -32.8563,32.8563 0,18.146 14.7103,32.8562 32.8563,32.8562 18.146,0 32.8562,-14.7102 32.8562,-32.8562 0,-18.146 -14.7102,-32.8563 -32.8562,-32.8563 z" id="path21" ns1:connector-curvature="0" style="stroke:none" />
      </clipPath>
      <clipPath clipPathUnits="userSpaceOnUse" id="1284262551448-clipPath1">
        <path d="m 200.7796,54.4011 c -16.2943,0 -29.5034,13.2091 -29.5034,29.5033 0,16.2943 13.2091,29.5034 29.5034,29.5034 16.2942,0 29.5033,-13.2091 29.5033,-29.5034 0,-16.2942 -13.2091,-29.5033 -29.5033,-29.5033 z" id="path24" ns1:connector-curvature="0" style="stroke:none" />
      </clipPath>
      <clipPath clipPathUnits="userSpaceOnUse" id="1284262551398-clipPath1">
        <path d="m -473.638,-311.8018 800,0 0,600 -800,0 0,-600 z" id="path27" ns1:connector-curvature="0" style="stroke:none" />
      </clipPath>
      <clipPath clipPathUnits="userSpaceOnUse" id="1284262551533-clipPath1">
        <path d="m -101.7142,-25.5044 800,0 0,600 -800,0 0,-600 z" id="path30" ns1:connector-curvature="0" style="stroke:none" />
      </clipPath>
    </defs>
    <g id="g32" style="text-rendering:geometricPrecision;fill:#f0abfc;stroke:none">
      <path d="m 325.2907,93.0594 c 0.8471,0.489 1.9296,0.1988 2.4186,-0.6482 0.4889,-0.847 0.1988,-1.9295 -0.6482,-2.4185 L 274.0462,59.3882 c -0.847,-0.489 -1.9295,-0.1988 -2.4185,0.6482 -0.489,0.847 -0.1988,1.9295 0.6482,2.4185 z m 16.2875,-7.6339 c 0.847,0.489 1.9296,0.1988 2.4185,-0.6482 0.489,-0.847 0.1989,-1.9295 -0.6481,-2.4185 L 272.5124,41.4664 c -0.8471,-0.489 -1.9296,-0.1989 -2.4186,0.6482 -0.4889,0.847 -0.1988,1.9295 0.6482,2.4185 z" clip-path="url(#1284262551138-clipPath1)" id="path34" ns1:connector-curvature="0" style="stroke:none" />
    </g>
    <g id="g36" style="text-rendering:geometricPrecision;fill:#f0abfc;stroke:none">
      <path d="m 270.7419,41.4664 -70.8476,40.9047 c -0.847,0.4891 -1.137,1.5716 -0.648,2.4186 0.489,0.847 1.5716,1.1371 2.4186,0.648 L 272.5125,44.533 c 0.8469,-0.489 1.137,-1.5716 0.648,-2.4185 -0.4891,-0.847 -1.5716,-1.1371 -2.4186,-0.6481 z" clip-path="url(#1284262551138-clipPath1)" id="path38" ns1:connector-curvature="0" style="stroke:none" />
    </g>
    <g id="g40" style="text-rendering:geometricPrecision;fill:#f0abfc;stroke:none">
      <path d="m 217.3041,94.1935 c 0,-0.978 -0.7924,-1.7705 -1.7704,-1.7705 -0.9781,-1e-4 -1.7706,0.7924 -1.7706,1.7704 l -0.002,61.2145 c 0,0.978 0.7924,1.7705 1.7704,1.7705 0.9781,1e-4 1.7706,-0.7924 1.7706,-1.7704 z m -14.754,-10.289 c 0,-0.978 -0.7924,-1.7705 -1.7705,-1.7706 -0.978,0 -1.7705,0.7925 -1.7705,1.7705 l -0.003,81.7921 c -1e-4,0.9781 0.7924,1.7706 1.7704,1.7706 0.978,0 1.7706,-0.7924 1.7706,-1.7704 z" clip-path="url(#1284262551138-clipPath1)" id="path42" ns1:connector-curvature="0" style="stroke:none" />
    </g>
    <g id="g44" style="text-rendering:geometricPrecision;fill:#f0abfc;stroke:none">
      <path d="m 199.8915,167.2299 70.8412,40.901 c 0.847,0.489 1.9295,0.1989 2.4185,-0.648 0.4891,-0.847 0.199,-1.9296 -0.648,-2.4186 l -70.8412,-40.901 c -0.8469,-0.489 -1.9295,-0.1989 -2.4185,0.648 -0.489,0.847 -0.199,1.9296 0.648,2.4186 z" clip-path="url(#1284262551138-clipPath1)" id="path46" ns1:connector-curvature="0" style="stroke:none" />
    </g>
    <g id="g48" style="text-rendering:geometricPrecision;fill:#f0abfc;stroke:none">
      <path d="m 272.266,187.1421 c -0.847,0.489 -1.1371,1.5716 -0.648,2.4186 0.489,0.8469 1.5715,1.137 2.4185,0.648 l 53.0264,-30.6155 c 0.847,-0.489 1.1371,-1.5715 0.6481,-2.4185 -0.489,-0.847 -1.5716,-1.1371 -2.4186,-0.6481 z m -1.5333,17.9222 c -0.847,0.489 -1.1371,1.5716 -0.648,2.4186 0.489,0.8469 1.5715,1.137 2.4185,0.648 l 70.8476,-40.9047 c 0.847,-0.489 1.1371,-1.5716 0.648,-2.4186 -0.489,-0.847 -1.5715,-1.137 -2.4185,-0.648 z" clip-path="url(#1284262551138-clipPath1)" id="path50" ns1:connector-curvature="0" style="stroke:none" />
    </g>
    <g id="g52" style="text-rendering:geometricPrecision;fill:#f0abfc;stroke:none">
      <path d="m 344.2361,165.6928 -0.002,-81.8007 c 0,-0.978 -0.7925,-1.7705 -1.7706,-1.7705 -0.978,1e-4 -1.7704,0.7926 -1.7704,1.7706 l 0.002,81.8007 c 10e-5,0.9781 0.7926,1.7705 1.7706,1.7705 0.978,0 1.7705,-0.7925 1.7705,-1.7706 z" clip-path="url(#1284262551138-clipPath1)" id="path54" ns1:connector-curvature="0" style="stroke:none" />
    </g>
    <g id="g56" style="text-rendering:geometricPrecision;fill:#f0abfc;stroke:none">
      <path d="m 270.7383,289.9373 70.8433,40.8874 c 0.8471,0.4889 1.9296,0.1986 2.4185,-0.6484 0.4889,-0.8471 0.1987,-1.9296 -0.6484,-2.4185 l -70.8433,-40.8873 c -0.8471,-0.4889 -1.9296,-0.1987 -2.4185,0.6484 -0.4889,0.8471 -0.1987,1.9296 0.6484,2.4184 z" clip-path="url(#1284262551138-clipPath1)" id="path58" ns1:connector-curvature="0" style="stroke:none" />
    </g>
    <g id="g60" style="text-rendering:geometricPrecision;fill:#f0abfc;stroke:none">
      <path d="m 343.3518,330.8246 70.8411,-40.891 c 0.8471,-0.489 1.1372,-1.5715 0.6483,-2.4185 -0.4889,-0.8471 -1.5714,-1.1372 -2.4185,-0.6483 l -70.8412,40.8911 c -0.847,0.4889 -1.1372,1.5714 -0.6482,2.4185 0.4889,0.847 1.5714,1.1372 2.4185,0.6482 z" clip-path="url(#1284262551138-clipPath1)" id="path62" ns1:connector-curvature="0" style="stroke:none" />
    </g>
    <g id="g64" style="text-rendering:geometricPrecision;fill:#f0abfc;stroke:none">
      <path d="m 415.0783,288.4001 -0.002,-81.8081 c -1e-4,-0.9781 -0.7926,-1.7705 -1.7706,-1.7705 -0.978,0 -1.7705,0.7925 -1.7704,1.7706 l 0.002,81.8081 c 10e-5,0.978 0.7926,1.7705 1.7706,1.7705 0.978,0 1.7705,-0.7926 1.7704,-1.7706 z" clip-path="url(#1284262551329-clipPath1)" id="path66" ns1:connector-curvature="0" style="stroke:none" />
    </g>
    <g id="g68" style="text-rendering:geometricPrecision;fill:#f0abfc;stroke:none">
      <path d="m 269.8474,206.5977 0.005,81.8064 c 1e-4,0.9779 0.7926,1.7704 1.7706,1.7703 0.9781,0 1.7705,-0.7926 1.7704,-1.7706 l -0.005,-81.8063 c -10e-5,-0.978 -0.7926,-1.7705 -1.7707,-1.7704 -0.978,1e-4 -1.7704,0.7926 -1.7704,1.7706 z" clip-path="url(#1284262551138-clipPath1)" id="path70" ns1:connector-curvature="0" style="stroke:none" />
    </g>
    <g id="g72" style="text-rendering:geometricPrecision;fill:#f0abfc;stroke:none">
      <path d="m 341.5803,167.2262 70.8401,40.8991 c 0.847,0.489 1.9296,0.1989 2.4186,-0.6481 0.489,-0.8469 0.1989,-1.9295 -0.6481,-2.4185 l -70.8401,-40.8991 c -0.847,-0.489 -1.9295,-0.1989 -2.4185,0.648 -0.4891,0.847 -0.199,1.9296 0.648,2.4186 z" clip-path="url(#1284262551138-clipPath1)" id="path74" ns1:connector-curvature="0" style="stroke:none" />
    </g>
    <g id="g76" style="text-rendering:geometricPrecision;fill:#f0abfc;stroke:none">
      <path d="m 271.6233,288.4039 0.8855,1.5332 95.1428,-44.2104 -22.1274,0 -22.1275,0 -52.6588,41.144 z" clip-path="url(#1284262551138-clipPath1)" id="path78" ns1:connector-curvature="0" style="stroke:none" />
    </g>
    <g id="g80" style="text-rendering:geometricPrecision;fill:#f0abfc;stroke:none">
      <path d="m 342.4583,249.2677 81.7983,0 c 0.978,0 1.7705,-0.7925 1.7705,-1.7705 0,-0.978 -0.7925,-1.7705 -1.7705,-1.7705 l -81.7983,0 c -0.978,0 -1.7705,0.7925 -1.7705,1.7705 0,0.978 0.7925,1.7705 1.7705,1.7705 z" clip-path="url(#1284262551138-clipPath1)" id="path82" ns1:connector-curvature="0" style="stroke:none" />
    </g>
    <g id="g84" style="fill:#c4b5fd;stroke:none;text-rendering:geometricPrecision">
      <path d="m 412.4225,289.9334 55.8519,32.2488 c 0.847,0.489 1.9296,0.199 2.4187,-0.648 0.489,-0.8469 0.199,-1.9295 -0.648,-2.4186 l -55.852,-32.2487 c -0.8469,-0.489 -1.9295,-0.199 -2.4185,0.648 -0.4891,0.8469 -0.199,1.9295 0.6479,2.4185 z" clip-path="url(#1284262551138-clipPath1)" id="path86" ns1:connector-curvature="0" style="stroke:none" />
      <path d="m 412.4225,289.9334 55.8519,32.2488 c 0.847,0.489 1.9296,0.199 2.4187,-0.648 0.489,-0.8469 0.199,-1.9295 -0.648,-2.4186 l -55.852,-32.2487 c -0.8469,-0.489 -1.9295,-0.199 -2.4185,0.648 -0.4891,0.8469 -0.199,1.9295 0.6479,2.4185 z" clip-path="url(#1284262551208-clipPath1)" id="path88" ns1:connector-curvature="0" style="fill:#f0abfc;stroke:none" />
    </g>
    <g id="g90" style="text-rendering:geometricPrecision;fill:#f0abfc;stroke:none">
      <path d="m 472.5211,313.4233 1.4286,-1.0458 -37.275,-66.6508 -13.7143,0 -13.7143,0 61.8465,68.7425 z" clip-path="url(#1284262551138-clipPath1)" id="path92" ns1:connector-curvature="0" style="stroke:none" />
      <path d="m 472.5211,313.4233 1.4286,-1.0458 -37.275,-66.6508 -13.7143,0 -13.7143,0 61.8465,68.7425 z" clip-path="url(#1284262551534-clipPath1)" id="path94" ns1:connector-curvature="0" style="fill:#c4b5fd;stroke:none" />
    </g>
    <g id="g96" style="text-rendering:geometricPrecision;fill:#f0abfc;stroke:none">
      <path d="m 499.9854,325.9861 62.4593,-20.4196 c 0.9296,-0.3039 1.4366,-1.3034 1.1327,-2.233 -0.3039,-0.9296 -1.3034,-1.4366 -2.233,-1.1327 l -62.4594,20.4196 c -0.9296,0.3039 -1.4366,1.3034 -1.1327,2.233 0.3039,0.9297 1.3035,1.4366 2.2331,1.1327 z" clip-path="url(#1284262551138-clipPath1)" id="path98" ns1:connector-curvature="0" style="stroke:none" />
      <path d="m 499.9854,325.9861 62.4593,-20.4196 c 0.9296,-0.3039 1.4366,-1.3034 1.1327,-2.233 -0.3039,-0.9296 -1.3034,-1.4366 -2.233,-1.1327 l -62.4594,20.4196 c -0.9296,0.3039 -1.4366,1.3034 -1.1327,2.233 0.3039,0.9297 1.3035,1.4366 2.2331,1.1327 z" clip-path="url(#1284262551937-clipPath1)" id="path100" ns1:connector-curvature="0" style="fill:#c4b5fd;stroke:none" />
    </g>
    <g id="g102" style="text-rendering:geometricPrecision;fill:#f0abfc;stroke:none">
      <path d="m 560.7122,305.2015 60.8872,54.6234 c 0.728,0.6531 1.8471,0.5924 2.5002,-0.1356 0.6531,-0.728 0.5924,-1.8471 -0.1356,-2.5002 l -60.8872,-54.6233 c -0.7279,-0.6531 -1.847,-0.5925 -2.5001,0.1355 -0.6531,0.728 -0.5924,1.8471 0.1355,2.5002 z" clip-path="url(#1284262551138-clipPath1)" id="path104" ns1:connector-curvature="0" style="stroke:none" />
    </g>
    <g id="g106" style="text-rendering:geometricPrecision;fill:#f0abfc;stroke:none">
      <path d="m 270.7379,286.8707 -64.7021,37.3651 c -0.847,0.4891 -1.1369,1.5717 -0.6478,2.4186 0.4891,0.8469 1.5717,1.1369 2.4186,0.6478 l 64.7022,-37.3651 c 0.8469,-0.4891 1.1368,-1.5717 0.6477,-2.4186 -0.4891,-0.8469 -1.5717,-1.1369 -2.4186,-0.6478 z" clip-path="url(#1284262551138-clipPath1)" id="path108" ns1:connector-curvature="0" style="stroke:none" />
    </g>
    <g id="g110" style="text-rendering:geometricPrecision;fill:#f0abfc;stroke:none">
      <path d="m 340.6961,329.2913 0.002,74.7162 c 10e-5,0.9781 0.7926,1.7705 1.7706,1.7705 0.978,0 1.7705,-0.7925 1.7704,-1.7706 l -0.002,-74.7162 c 0,-0.978 -0.7926,-1.7705 -1.7706,-1.7704 -0.978,0 -1.7705,0.7925 -1.7705,1.7705 z" clip-path="url(#1284262551138-clipPath1)" id="path112" ns1:connector-curvature="0" style="stroke:none" />
    </g>
    <g id="g114" style="text-rendering:geometricPrecision;fill:#f0abfc;stroke:none">
      <path d="m 627.4263,339.603 c -0.9296,0.3039 -1.4366,1.3034 -1.1327,2.233 0.3039,0.9296 1.3034,1.4366 2.2331,1.1327 l 61.2377,-20.0202 c 0.9296,-0.304 1.4366,-1.3035 1.1327,-2.2331 -0.3039,-0.9296 -1.3034,-1.4366 -2.233,-1.1327 z m -5.1948,17.2211 c -0.9296,0.304 -1.4366,1.3035 -1.1326,2.2331 0.3039,0.9296 1.3034,1.4366 2.2329,1.1326 l 71.0174,-23.2174 c 0.9296,-0.3039 1.4366,-1.3034 1.1327,-2.2331 -0.3039,-0.9295 -1.3034,-1.4365 -2.233,-1.1326 z" clip-path="url(#1284262551138-clipPath1)" id="path116" ns1:connector-curvature="0" style="stroke:none" />
    </g>
    <g id="g118" style="fill:#fda4af;stroke:none;text-rendering:geometricPrecision">
      <path d="m 201.6649,82.3711 -51.101,-29.504 c -0.847,-0.489 -1.9295,-0.1989 -2.4185,0.6481 -0.4891,0.8469 -0.199,1.9295 0.648,2.4185 l 51.1009,29.504 c 0.847,0.4891 1.9296,0.199 2.4186,-0.648 0.489,-0.847 0.1989,-1.9295 -0.648,-2.4186 z" clip-path="url(#1284262551138-clipPath1)" id="path120" ns1:connector-curvature="0" style="stroke:none" />
      <path d="m 201.6649,82.3711 -51.101,-29.504 c -0.847,-0.489 -1.9295,-0.1989 -2.4185,0.6481 -0.4891,0.8469 -0.199,1.9295 0.648,2.4185 l 51.1009,29.504 c 0.847,0.4891 1.9296,0.199 2.4186,-0.648 0.489,-0.847 0.1989,-1.9295 -0.648,-2.4186 z" clip-path="url(#1284262551448-clipPath1)" id="path122" ns1:connector-curvature="0" style="fill:#f0abfc;stroke:none" />
    </g>
    <g id="g124" style="fill:#eef2ff;stroke:none;text-rendering:geometricPrecision">
      </g>
    <g font-size="29px" transform="translate(473.638,311.8018)" id="g128" style="font-size:29px;font-family:sans-serif;fill:#c4b5fd;stroke:none;text-rendering:geometricPrecision">
      <text x="0" xml:space="preserve" y="28" clip-path="url(#1284262551398-clipPath1)" id="text130" style="stroke:none">N</text>
    </g>
    <g font-size="29px" id="g132" style="font-size:29px;font-family:sans-serif;fill:#eef2ff;stroke:none;text-rendering:geometricPrecision">
      <text x="0" y="28" transform="translate(101.7142,25.5044)" clip-path="url(#1284262551533-clipPath1)" xml:space="preserve" id="text136" style="fill:#fda4af;stroke:none">HO</text>
    </g>
  </g>
</svg>