<?xml version='1.0' encoding='utf-8'?>
<svg xmlns="http://www.w3.org/2000/svg" xmlns:dc="http://purl.org/dc/elements/1.1/" xmlns:ns1="http://www.inkscape.org/namespaces/inkscape" xmlns:ns2="http://sodipodi.sourceforge.net/DTD/sodipodi-0.dtd" xmlns:ns4="http://creativecommons.org/ns#" xmlns:rdf="http://www.w3.org/1999/02/22-rdf-syntax-ns#" width="757.97937" stroke-miterlimit="10" font-weight="normal" height="328.18286" font-style="normal" font-size="12px" id="svg2" version="1.1" ns1:version="0.91 r13725" ns2:docname="Alpha-GPC.svg" style="font-style:normal;font-weight:normal;font-size:12px;font-family:Dialog;color-interpolation:auto;fill:#f0abfc;fill-opacity:1;stroke:none;stroke:none;stroke:none;stroke:none;stroke:none;stroke:none;stroke:none;stroke:none;color-rendering:auto;image-rendering:auto;shape-rendering:auto;text-rendering:auto">
  <metadata id="metadata213">
    <rdf:RDF>
      <ns4:Work rdf:about="">
        <dc:format>image/svg+xml</dc:format>
        <dc:type rdf:resource="http://purl.org/dc/dcmitype/StillImage" />
        <dc:title />
      </ns4:Work>
    </rdf:RDF>
  </metadata>
  <ns2:namedview pagecolor="#eef2ff" bordercolor="#666666" borderopacity="1" objecttolerance="10" gridtolerance="10" guidetolerance="10" ns1:pageopacity="0" ns1:pageshadow="2" ns1:window-width="1060" ns1:window-height="480" id="namedview211" showgrid="false" fit-margin-top="10" fit-margin-left="10" fit-margin-right="10" fit-margin-bottom="10" ns1:zoom="0.36375" ns1:cx="378.9897" ns1:cy="75.7883" ns1:window-x="0" ns1:window-y="0" ns1:window-maximized="0" ns1:current-layer="svg2" />
  
  <defs id="genericDefs" />
  <g id="g5" transform="translate(-21.0103,-47.605445)" style="fill:#f0abfc;stroke:none">
    <defs id="487566621551-defs1">
      <clipPath clipPathUnits="userSpaceOnUse" id="487566621319-clipPath1">
        <path d="M 0,0 800,0 800,600 0,600 0,0 Z" id="path9" ns1:connector-curvature="0" style="stroke:none" />
      </clipPath>
      <clipPath clipPathUnits="userSpaceOnUse" id="487566621414-clipPath1">
        <path d="m 132.9472,245.7498 c -16.9029,0 -30.6055,13.7026 -30.6055,30.6055 0,16.9029 13.7026,30.6055 30.6055,30.6055 16.9029,0 30.6055,-13.7026 30.6055,-30.6055 0,-16.9029 -13.7026,-30.6055 -30.6055,-30.6055 z" id="path12" ns1:connector-curvature="0" style="stroke:none" />
      </clipPath>
      <clipPath clipPathUnits="userSpaceOnUse" id="487566621669-clipPath1">
        <path d="m 207.3919,202.6093 c -16.9912,0 -30.7652,13.7741 -30.7652,30.7653 0,16.9912 13.774,30.7653 30.7652,30.7653 16.9912,0 30.7653,-13.7741 30.7653,-30.7653 0,-16.9912 -13.7741,-30.7653 -30.7653,-30.7653 z" id="path15" ns1:connector-curvature="0" style="stroke:none" />
      </clipPath>
      <clipPath clipPathUnits="userSpaceOnUse" id="487566621797-clipPath1">
        <path d="m 281.8366,243.5731 c -18.1051,0 -32.7822,14.6771 -32.7822,32.7822 0,18.1051 14.6771,32.7822 32.7822,32.7822 18.1052,0 32.7823,-14.6771 32.7823,-32.7822 0,-18.1051 -14.6771,-32.7822 -32.7823,-32.7822 z" id="path18" ns1:connector-curvature="0" style="stroke:none" />
      </clipPath>
      <clipPath clipPathUnits="userSpaceOnUse" id="487566621502-clipPath1">
        <path d="m 373.9456,219.005 c -13.5686,0 -24.5681,10.9995 -24.5681,24.5681 0,13.5686 10.9995,24.5681 24.5681,24.5681 13.5686,0 24.5682,-10.9995 24.5682,-24.5681 0,-13.5686 -10.9996,-24.5681 -24.5682,-24.5681 z" id="path21" ns1:connector-curvature="0" style="stroke:none" />
      </clipPath>
      <clipPath clipPathUnits="userSpaceOnUse" id="487566621445-clipPath1">
        <path d="m 440.8294,237.2858 c -11.9127,0 -21.5699,9.6573 -21.5699,21.57 0,11.9128 9.6572,21.57 21.5699,21.57 11.9128,0 21.57,-9.6572 21.57,-21.57 0,-11.9127 -9.6572,-21.57 -21.57,-21.57 z" id="path24" ns1:connector-curvature="0" style="stroke:none" />
      </clipPath>
      <clipPath clipPathUnits="userSpaceOnUse" id="487566621198-clipPath1">
        <path d="m 420.8723,271.341 c -12.1953,0 -22.0816,9.8863 -22.0816,22.0816 0,12.1953 9.8863,22.0816 22.0816,22.0816 12.1953,0 22.0816,-9.8863 22.0816,-22.0816 0,-12.1953 -9.8863,-22.0816 -22.0816,-22.0816 z" id="path27" ns1:connector-curvature="0" style="stroke:none" />
      </clipPath>
      <clipPath clipPathUnits="userSpaceOnUse" id="487566621551-clipPath1">
        <path d="m 444.9533,259.8927 c -13.6285,0 -24.6766,11.0481 -24.6766,24.6767 0,13.6285 11.0481,24.6767 24.6766,24.6767 13.6286,0 24.6767,-11.0482 24.6767,-24.6767 0,-13.6286 -11.0481,-24.6767 -24.6767,-24.6767 z" id="path30" ns1:connector-curvature="0" style="stroke:none" />
      </clipPath>
      <clipPath clipPathUnits="userSpaceOnUse" id="487566621768-clipPath1">
        <path d="m 491.6258,167.8894 c -18.7893,0 -34.0212,15.2318 -34.0212,34.0212 0,18.7893 15.2319,34.0211 34.0212,34.0211 18.7894,0 34.0212,-15.2318 34.0212,-34.0211 0,-18.7894 -15.2318,-34.0212 -34.0212,-34.0212 z" id="path33" ns1:connector-curvature="0" style="stroke:none" />
      </clipPath>
      <clipPath clipPathUnits="userSpaceOnUse" id="487566621375-clipPath1">
        <path d="m 602.6489,92.4876 c -19.318,0 -34.9782,15.6603 -34.9782,34.9782 0,19.318 15.6602,34.9782 34.9782,34.9782 19.3178,0 34.9781,-15.6602 34.9781,-34.9782 0,-19.3179 -15.6603,-34.9782 -34.9781,-34.9782 z" id="path36" ns1:connector-curvature="0" style="stroke:none" />
      </clipPath>
      <clipPath clipPathUnits="userSpaceOnUse" id="487566621810-clipPath1">
        <path d="m 699.0349,116.6872 c -15.925,0 -28.8347,12.9098 -28.8347,28.8348 0,15.9249 12.9097,28.8347 28.8347,28.8347 15.925,0 28.8347,-12.9098 28.8347,-28.8347 0,-15.925 -12.9097,-28.8348 -28.8347,-28.8348 z" id="path39" ns1:connector-curvature="0" style="stroke:none" />
      </clipPath>
      <clipPath clipPathUnits="userSpaceOnUse" id="487566621162-clipPath1">
        <path d="m 699.0349,80.575 c -15.925,0 -28.8347,12.9097 -28.8347,28.8347 0,15.925 12.9097,28.8347 28.8347,28.8347 15.925,0 28.8347,-12.9097 28.8347,-28.8347 0,-15.925 -12.9097,-28.8347 -28.8347,-28.8347 z" id="path42" ns1:connector-curvature="0" style="stroke:none" />
      </clipPath>
      <clipPath clipPathUnits="userSpaceOnUse" id="48756662170-clipPath1">
        <path d="m 704.6152,96.2089 c -17.2628,0 -31.257,13.9942 -31.257,31.2569 0,17.2628 13.9942,31.257 31.257,31.257 17.2627,0 31.2569,-13.9942 31.2569,-31.257 0,-17.2627 -13.9942,-31.2569 -31.2569,-31.2569 z" id="path45" ns1:connector-curvature="0" style="stroke:none" />
      </clipPath>
      <clipPath clipPathUnits="userSpaceOnUse" id="48756662114-clipPath1">
        <path d="m -30.0103,-215.3746 800,0 0,600 -800,0 0,-600 z" id="path48" ns1:connector-curvature="0" style="stroke:none" />
      </clipPath>
      <clipPath clipPathUnits="userSpaceOnUse" id="487566621145-clipPath1">
        <path d="m -344.8048,-215.3746 800,0 0,600 -800,0 0,-600 z" id="path51" ns1:connector-curvature="0" style="stroke:none" />
      </clipPath>
      <clipPath clipPathUnits="userSpaceOnUse" id="487566621203-clipPath1">
        <path d="m -143.9361,-136.845 800,0 0,600 -800,0 0,-600 z" id="path54" ns1:connector-curvature="0" style="stroke:none" />
      </clipPath>
      <clipPath clipPathUnits="userSpaceOnUse" id="487566621311-clipPath1">
        <path d="m -422.3745,-258.3553 800,0 0,600 -800,0 0,-600 z" id="path57" ns1:connector-curvature="0" style="stroke:none" />
      </clipPath>
      <clipPath clipPathUnits="userSpaceOnUse" id="487566621331-clipPath1">
        <path d="m -493.6943,-301.336 800,0 0,600 -800,0 0,-600 z" id="path60" ns1:connector-curvature="0" style="stroke:none" />
      </clipPath>
      <clipPath clipPathUnits="userSpaceOnUse" id="487566621807-clipPath1">
        <path d="m -462.2302,-183.9106 800,0 0,600 -800,0 0,-600 z" id="path63" ns1:connector-curvature="0" style="stroke:none" />
      </clipPath>
      <clipPath clipPathUnits="userSpaceOnUse" id="48756662120-clipPath1">
        <path d="m -376.2689,-332.8 800,0 0,600 -800,0 0,-600 z" id="path66" ns1:connector-curvature="0" style="stroke:none" />
      </clipPath>
      <clipPath clipPathUnits="userSpaceOnUse" id="487566621629-clipPath1">
        <path d="m -677.5477,-109.4658 800,0 0,600 -800,0 0,-600 z" id="path69" ns1:connector-curvature="0" style="stroke:none" />
      </clipPath>
    </defs>
    <g id="g71" style="text-rendering:geometricPrecision;fill:#f0abfc;stroke:none">
      <path d="m 133.8775,277.9666 74.4447,-42.9807 c 0.8901,-0.5139 1.195,-1.6515 0.6811,-2.5416 -0.5139,-0.8901 -1.6516,-1.1949 -2.5417,-0.681 l -74.4447,42.9807 c -0.8901,0.5138 -1.1949,1.6515 -0.6811,2.5416 0.5139,0.8901 1.6516,1.1949 2.5417,0.681 z" clip-path="url(#487566621319-clipPath1)" id="path73" ns1:connector-curvature="0" style="stroke:none" />
    </g>
    <g id="g75" style="text-rendering:geometricPrecision;fill:#f0abfc;stroke:none">
      <path d="m 206.4616,234.9859 74.4447,42.9807 c 0.8901,0.5139 2.0278,0.2091 2.5417,-0.681 0.5139,-0.8901 0.209,-2.0278 -0.681,-2.5416 l -74.4448,-42.9807 c -0.8901,-0.5139 -2.0277,-0.2091 -2.5416,0.681 -0.5139,0.8901 -0.2091,2.0277 0.681,2.5416 z" clip-path="url(#487566621319-clipPath1)" id="path77" ns1:connector-curvature="0" style="stroke:none" />
    </g>
    <g id="g79" style="fill:#fda4af;stroke:none;text-rendering:geometricPrecision">
      <path d="M 133.8775,274.744 80.8673,244.1385 c -0.8901,-0.5139 -2.0278,-0.2091 -2.5417,0.681 -0.5139,0.8901 -0.209,2.0278 0.6811,2.5417 l 53.0102,30.6054 c 0.8901,0.5139 2.0277,0.2091 2.5416,-0.681 0.5139,-0.8901 0.2091,-2.0278 -0.681,-2.5416 z" clip-path="url(#487566621319-clipPath1)" id="path81" ns1:connector-curvature="0" style="stroke:none" />
      <path d="M 133.8775,274.744 80.8673,244.1385 c -0.8901,-0.5139 -2.0278,-0.2091 -2.5417,0.681 -0.5139,0.8901 -0.209,2.0278 0.6811,2.5417 l 53.0102,30.6054 c 0.8901,0.5139 2.0277,0.2091 2.5416,-0.681 0.5139,-0.8901 0.2091,-2.0278 -0.681,-2.5416 z" clip-path="url(#487566621414-clipPath1)" id="path83" ns1:connector-curvature="0" style="fill:#f0abfc;stroke:none" />
    </g>
    <g id="g85" style="fill:#fda4af;stroke:none;text-rendering:geometricPrecision">
      <path d="m 207.3919,233.3746 1.6998,-0.7568 -16.1029,-60.1841 -10.6236,4.73 -10.6236,4.7299 33.9506,52.2378 z" clip-path="url(#487566621319-clipPath1)" id="path87" ns1:connector-curvature="0" style="stroke:none" />
      <path d="m 207.3919,233.3746 1.6998,-0.7568 -16.1029,-60.1841 -10.6236,4.73 -10.6236,4.7299 33.9506,52.2378 z" clip-path="url(#487566621669-clipPath1)" id="path89" ns1:connector-curvature="0" style="fill:#f0abfc;stroke:none" />
    </g>
    <g id="g91" style="fill:#fda4af;stroke:none;text-rendering:geometricPrecision">
      <path d="m 282.767,277.9666 56.7804,-32.7822 c 0.8901,-0.5139 1.1949,-1.6515 0.6811,-2.5416 -0.5139,-0.8901 -1.6516,-1.195 -2.5417,-0.6811 l -56.7805,32.7823 c -0.8901,0.5138 -1.1949,1.6515 -0.681,2.5416 0.5139,0.8901 1.6516,1.1949 2.5417,0.681 z" clip-path="url(#487566621319-clipPath1)" id="path93" ns1:connector-curvature="0" style="stroke:none" />
      <path d="m 282.767,277.9666 56.7804,-32.7822 c 0.8901,-0.5139 1.1949,-1.6515 0.6811,-2.5416 -0.5139,-0.8901 -1.6516,-1.195 -2.5417,-0.6811 l -56.7805,32.7823 c -0.8901,0.5138 -1.1949,1.6515 -0.681,2.5416 0.5139,0.8901 1.6516,1.1949 2.5417,0.681 z" clip-path="url(#487566621797-clipPath1)" id="path95" ns1:connector-curvature="0" style="fill:#f0abfc;stroke:none" />
    </g>
    <g id="g97" style="fill:#fbbf24;stroke:none;text-rendering:geometricPrecision">
      <path d="m 373.0153,245.1844 42.5533,24.5681 c 0.89,0.5139 2.0277,0.2091 2.5416,-0.681 0.5139,-0.8901 0.2091,-2.0278 -0.681,-2.5417 l -42.5533,-24.5681 c -0.8901,-0.5139 -2.0277,-0.209 -2.5416,0.6811 -0.5139,0.8901 -0.2091,2.0277 0.681,2.5416 z" clip-path="url(#487566621319-clipPath1)" id="path99" ns1:connector-curvature="0" style="stroke:none" />
      <path d="m 373.0153,245.1844 42.5533,24.5681 c 0.89,0.5139 2.0277,0.2091 2.5416,-0.681 0.5139,-0.8901 0.2091,-2.0278 -0.681,-2.5417 l -42.5533,-24.5681 c -0.8901,-0.5139 -2.0277,-0.209 -2.5416,0.6811 -0.5139,0.8901 -0.2091,2.0277 0.681,2.5416 z" clip-path="url(#487566621502-clipPath1)" id="path101" ns1:connector-curvature="0" style="fill:#fda4af;stroke:none" />
    </g>
    <g id="g103" style="fill:#fda4af;stroke:none;text-rendering:geometricPrecision">
      <path d="m 442.4408,259.7861 21.5699,-37.3603 c 0.5139,-0.89 0.2091,-2.0277 -0.681,-2.5416 -0.8901,-0.5139 -2.0278,-0.2091 -2.5416,0.681 l -21.57,37.3603 c -0.5139,0.8901 -0.2091,2.0277 0.681,2.5417 0.8901,0.5138 2.0278,0.209 2.5417,-0.6811 z" clip-path="url(#487566621319-clipPath1)" id="path105" ns1:connector-curvature="0" style="stroke:none" />
      <path d="m 442.4408,259.7861 21.5699,-37.3603 c 0.5139,-0.89 0.2091,-2.0277 -0.681,-2.5416 -0.8901,-0.5139 -2.0278,-0.2091 -2.5416,0.681 l -21.57,37.3603 c -0.5139,0.8901 -0.2091,2.0277 0.681,2.5417 0.8901,0.5138 2.0278,0.209 2.5417,-0.6811 z" clip-path="url(#487566621445-clipPath1)" id="path107" ns1:connector-curvature="0" style="fill:#fbbf24;stroke:none" />
    </g>
    <g id="g109" style="fill:#fda4af;stroke:none;text-rendering:geometricPrecision">
      <path d="m 429.1976,298.2292 c 0.5139,-0.8901 0.2091,-2.0278 -0.681,-2.5416 -0.8901,-0.514 -2.0278,-0.2091 -2.5417,0.681 l -22.0815,38.2464 c -0.5139,0.8901 -0.2091,2.0278 0.681,2.5416 0.8901,0.514 2.0277,0.2091 2.5417,-0.681 0,0 0,0 0,0 l 22.0815,-38.2464 c 0,0 0,0 0,0 z m -13.4279,-7.7526 c 0.5139,-0.8901 0.209,-2.0278 -0.6811,-2.5417 -0.8901,-0.5139 -2.0277,-0.209 -2.5416,0.681 0,0 0,0 0,0 l -22.0816,38.2465 c 0,0 0,0 0,0 -0.5139,0.8901 -0.2091,2.0277 0.681,2.5416 0.8901,0.5139 2.0278,0.2091 2.5417,-0.681 z" clip-path="url(#487566621319-clipPath1)" id="path111" ns1:connector-curvature="0" style="stroke:none" />
      <path d="m 429.1976,298.2292 c 0.5139,-0.8901 0.2091,-2.0278 -0.681,-2.5416 -0.8901,-0.514 -2.0278,-0.2091 -2.5417,0.681 l -22.0815,38.2464 c -0.5139,0.8901 -0.2091,2.0278 0.681,2.5416 0.8901,0.514 2.0277,0.2091 2.5417,-0.681 0,0 0,0 0,0 l 22.0815,-38.2464 c 0,0 0,0 0,0 z m -13.4279,-7.7526 c 0.5139,-0.8901 0.209,-2.0278 -0.6811,-2.5417 -0.8901,-0.5139 -2.0277,-0.209 -2.5416,0.681 0,0 0,0 0,0 l -22.0816,38.2465 c 0,0 0,0 0,0 -0.5139,0.8901 -0.2091,2.0277 0.681,2.5416 0.8901,0.5139 2.0278,0.2091 2.5417,-0.681 z" clip-path="url(#487566621198-clipPath1)" id="path113" ns1:connector-curvature="0" style="fill:#fbbf24;stroke:none" />
    </g>
    <g id="g115" style="fill:#fda4af;stroke:none;text-rendering:geometricPrecision">
      <path d="m 444.023,286.1807 42.7413,24.6767 c 0.8901,0.5139 2.0278,0.2091 2.5416,-0.681 0.5139,-0.8901 0.2091,-2.0278 -0.681,-2.5417 L 445.8836,282.958 c -0.89,-0.5138 -2.0277,-0.209 -2.5416,0.6811 -0.5139,0.8901 -0.2091,2.0277 0.681,2.5416 z" clip-path="url(#487566621319-clipPath1)" id="path117" ns1:connector-curvature="0" style="stroke:none" />
      <path d="m 444.023,286.1807 42.7413,24.6767 c 0.8901,0.5139 2.0278,0.2091 2.5416,-0.681 0.5139,-0.8901 0.2091,-2.0278 -0.681,-2.5417 L 445.8836,282.958 c -0.89,-0.5138 -2.0277,-0.209 -2.5416,0.6811 -0.5139,0.8901 -0.2091,2.0277 0.681,2.5416 z" clip-path="url(#487566621551-clipPath1)" id="path119" ns1:connector-curvature="0" style="fill:#fbbf24;stroke:none" />
    </g>
    <g id="g121" style="text-rendering:geometricPrecision;fill:#f0abfc;stroke:none">
      <path d="m 491.6258,203.7712 68.0424,0 c 1.0277,0 1.8605,-0.8328 1.8605,-1.8606 0,-1.0278 -0.8328,-1.8607 -1.8605,-1.8607 l -68.0424,0 c -1.0278,0 -1.8606,0.8329 -1.8606,1.8607 0,1.0278 0.8328,1.8606 1.8606,1.8606 z" clip-path="url(#487566621319-clipPath1)" id="path123" ns1:connector-curvature="0" style="stroke:none" />
      <path d="m 491.6258,203.7712 68.0424,0 c 1.0277,0 1.8605,-0.8328 1.8605,-1.8606 0,-1.0278 -0.8328,-1.8607 -1.8605,-1.8607 l -68.0424,0 c -1.0278,0 -1.8606,0.8329 -1.8606,1.8607 0,1.0278 0.8328,1.8606 1.8606,1.8606 z" clip-path="url(#487566621768-clipPath1)" id="path125" ns1:connector-curvature="0" style="fill:#fda4af;stroke:none" />
    </g>
    <g id="g127" style="text-rendering:geometricPrecision;fill:#f0abfc;stroke:none">
      <path d="m 561.2795,202.8409 42.9807,-74.4448 c 0.5138,-0.89 0.209,-2.0277 -0.681,-2.5416 -0.8902,-0.5139 -2.0278,-0.2091 -2.5417,0.681 l -42.9807,74.4448 c -0.5139,0.89 -0.2091,2.0277 0.6811,2.5416 0.89,0.5139 2.0277,0.2091 2.5416,-0.681 z" clip-path="url(#487566621319-clipPath1)" id="path129" ns1:connector-curvature="0" style="stroke:none" />
    </g>
    <g id="g131" style="fill:#c4b5fd;stroke:none;text-rendering:geometricPrecision">
      <path d="m 602.6489,129.3264 69.9563,0 c 1.0279,0 1.8607,-0.8328 1.8607,-1.8606 0,-1.0278 -0.8328,-1.8606 -1.8607,-1.8606 l -69.9563,0 c -1.0279,0 -1.8607,0.8328 -1.8607,1.8606 0,1.0278 0.8328,1.8606 1.8607,1.8606 z" clip-path="url(#487566621319-clipPath1)" id="path133" ns1:connector-curvature="0" style="stroke:none" />
      <path d="m 602.6489,129.3264 69.9563,0 c 1.0279,0 1.8607,-0.8328 1.8607,-1.8606 0,-1.0278 -0.8328,-1.8606 -1.8607,-1.8606 l -69.9563,0 c -1.0279,0 -1.8607,0.8328 -1.8607,1.8606 0,1.0278 0.8328,1.8606 1.8607,1.8606 z" clip-path="url(#487566621375-clipPath1)" id="path135" ns1:connector-curvature="0" style="fill:#f0abfc;stroke:none" />
    </g>
    <g id="g137" style="text-rendering:geometricPrecision;fill:#f0abfc;stroke:none">
      <path d="m 697.4236,146.4523 28.8347,49.9432 c 0.5139,0.8901 1.6516,1.1949 2.5417,0.681 0.8901,-0.5139 1.1949,-1.6515 0.681,-2.5416 l -28.8348,-49.9432 c -0.5138,-0.8901 -1.6515,-1.195 -2.5416,-0.6811 -0.8901,0.5139 -1.1949,1.6516 -0.681,2.5417 z" clip-path="url(#487566621319-clipPath1)" id="path139" ns1:connector-curvature="0" style="stroke:none" />
      <path d="m 697.4236,146.4523 28.8347,49.9432 c 0.5139,0.8901 1.6516,1.1949 2.5417,0.681 0.8901,-0.5139 1.1949,-1.6515 0.681,-2.5416 l -28.8348,-49.9432 c -0.5138,-0.8901 -1.6515,-1.195 -2.5416,-0.6811 -0.8901,0.5139 -1.1949,1.6516 -0.681,2.5417 z" clip-path="url(#487566621810-clipPath1)" id="path141" ns1:connector-curvature="0" style="fill:#c4b5fd;stroke:none" />
    </g>
    <g id="g143" style="text-rendering:geometricPrecision;fill:#f0abfc;stroke:none">
      <path d="M 700.6462,110.34 729.481,60.3968 c 0.5139,-0.8901 0.2091,-2.0278 -0.681,-2.5417 -0.8901,-0.5139 -2.0278,-0.209 -2.5417,0.6811 l -28.8347,49.9432 c -0.5139,0.8901 -0.2091,2.0277 0.681,2.5416 0.8901,0.5139 2.0278,0.2091 2.5416,-0.681 z" clip-path="url(#487566621319-clipPath1)" id="path145" ns1:connector-curvature="0" style="stroke:none" />
      <path d="M 700.6462,110.34 729.481,60.3968 c 0.5139,-0.8901 0.2091,-2.0278 -0.681,-2.5417 -0.8901,-0.5139 -2.0278,-0.209 -2.5417,0.6811 l -28.8347,49.9432 c -0.5139,0.8901 -0.2091,2.0277 0.681,2.5416 0.8901,0.5139 2.0278,0.2091 2.5416,-0.681 z" clip-path="url(#487566621162-clipPath1)" id="path147" ns1:connector-curvature="0" style="fill:#c4b5fd;stroke:none" />
    </g>
    <g id="g149" style="text-rendering:geometricPrecision;fill:#f0abfc;stroke:none">
      <path d="m 704.6152,129.3264 62.5139,0 c 1.0278,0 1.8606,-0.8328 1.8606,-1.8606 0,-1.0278 -0.8328,-1.8606 -1.8606,-1.8606 l -62.5139,0 c -1.0278,0 -1.8606,0.8328 -1.8606,1.8606 0,1.0278 0.8328,1.8606 1.8606,1.8606 z" clip-path="url(#487566621319-clipPath1)" id="path151" ns1:connector-curvature="0" style="stroke:none" />
      <path d="m 704.6152,129.3264 62.5139,0 c 1.0278,0 1.8606,-0.8328 1.8606,-1.8606 0,-1.0278 -0.8328,-1.8606 -1.8606,-1.8606 l -62.5139,0 c -1.0278,0 -1.8606,0.8328 -1.8606,1.8606 0,1.0278 0.8328,1.8606 1.8606,1.8606 z" clip-path="url(#48756662170-clipPath1)" id="path153" ns1:connector-curvature="0" style="fill:#c4b5fd;stroke:none" />
    </g>
    <g id="g155" style="fill:#eef2ff;stroke:none;text-rendering:geometricPrecision">
      </g>
    <g font-size="30px" transform="translate(30.0103,215.3746)" id="g159" style="font-size:30px;font-family:sans-serif;fill:#fda4af;stroke:none;text-rendering:geometricPrecision">
      <text x="0" xml:space="preserve" y="29" clip-path="url(#48756662114-clipPath1)" id="text161" style="stroke:none">HO</text>
    </g>
    <g font-size="30px" id="g163" style="font-size:30px;font-family:sans-serif;fill:#eef2ff;stroke:none;text-rendering:geometricPrecision">
      <text x="0" y="29" transform="translate(344.8048,215.3746)" clip-path="url(#487566621145-clipPath1)" xml:space="preserve" id="text167" style="fill:#fda4af;stroke:none">O</text>
    </g>
    <g font-size="30px" id="g169" style="font-size:30px;font-family:sans-serif;fill:#eef2ff;stroke:none;text-rendering:geometricPrecision">
      <text x="0" y="29" transform="translate(143.9361,136.845)" clip-path="url(#487566621203-clipPath1)" xml:space="preserve" id="text173" style="fill:#fda4af;stroke:none">HO</text>
    </g>
    <g font-size="30px" id="g175" style="font-size:30px;font-family:sans-serif;fill:#eef2ff;stroke:none;text-rendering:geometricPrecision">
      <text x="0" y="29" transform="translate(422.3745,258.3553)" clip-path="url(#487566621311-clipPath1)" xml:space="preserve" id="text179" style="fill:#fbbf24;stroke:none">P</text>
    </g>
    <g font-size="30px" id="g181" style="font-size:30px;font-family:sans-serif;fill:#eef2ff;stroke:none;text-rendering:geometricPrecision">
      <text x="0" y="29" transform="translate(493.6943,301.336)" clip-path="url(#487566621331-clipPath1)" xml:space="preserve" id="text185" style="fill:#fda4af;stroke:none">O</text>
    </g>
    <g font-size="30px" id="g187" style="font-size:30px;font-family:sans-serif;fill:#fda4af;stroke:none;text-rendering:geometricPrecision">
      <path d="m 516.7108,308.99 0,1.5728 11.0097,0 0,-1.5728 z m 14.1553,-7.8641 0,17.3009 -17.3009,0 0,-17.3009 z m -17.3009,0 0,0 0,17.3009 0,0 17.3009,0 0,0 0,-17.3009 0,0 z" clip-path="url(#487566621319-clipPath1)" id="path189" ns1:connector-curvature="0" style="stroke:none" />
      <path d="m 470.5837,187.4848 c -4.0612,0 -7.3535,3.2923 -7.3535,7.3535 l 0,14.707 c 0,4.0613 3.2923,7.3535 7.3535,7.3535 l 6.2461,0 c 4.0613,0 7.3535,-3.2922 7.3535,-7.3535 l 0,-14.707 c 0,-4.0612 -3.2922,-7.3535 -7.3535,-7.3535 z" clip-path="url(#487566621319-clipPath1)" id="path191" ns1:connector-curvature="0" style="fill:#eef2ff;stroke:none" />
      <text x="0" xml:space="preserve" y="29" clip-path="url(#487566621807-clipPath1)" transform="translate(462.2302,183.9106)" id="text193" style="stroke:none">O</text>
    </g>
    <g font-size="30px" id="g195" style="font-size:30px;font-family:sans-serif;fill:#eef2ff;stroke:none;text-rendering:geometricPrecision">
      <text x="0" y="29" transform="translate(376.2689,332.8)" clip-path="url(#48756662120-clipPath1)" xml:space="preserve" id="text199" style="fill:#fda4af;stroke:none">O</text>
    </g>
    <g font-size="30px" id="g201" style="font-size:30px;font-family:sans-serif;fill:#eef2ff;stroke:none;text-rendering:geometricPrecision">
      <text x="0" y="29" transform="translate(677.5477,109.4658)" clip-path="url(#487566621629-clipPath1)" xml:space="preserve" id="text205" style="fill:#c4b5fd;stroke:none">N</text>
    </g>
    <g font-size="30px" id="g207" style="font-size:30px;font-family:sans-serif;fill:#c4b5fd;stroke:none;text-rendering:geometricPrecision">
      <path d="m 703.1881,113.0904 0,4.7185 -4.7184,0 0,1.5728 4.7184,0 0,4.7184 1.5728,0 0,-4.7184 4.7184,0 0,-1.5728 -4.7184,0 0,-4.7185 z m 9.4368,-3.1456 0,17.3009 -17.3009,0 0,-17.3009 z m -17.3009,0 0,0 0,17.3009 0,0 17.3009,0 0,0 0,-17.3009 0,0 z" clip-path="url(#487566621319-clipPath1)" id="path209" ns1:connector-curvature="0" style="stroke:none" />
    </g>
  </g>
</svg>