<?xml version='1.0' encoding='utf-8'?>
<svg xmlns="http://www.w3.org/2000/svg" xmlns:dc="http://purl.org/dc/elements/1.1/" xmlns:ns1="http://www.inkscape.org/namespaces/inkscape" xmlns:ns2="http://sodipodi.sourceforge.net/DTD/sodipodi-0.dtd" xmlns:ns4="http://creativecommons.org/ns#" xmlns:rdf="http://www.w3.org/1999/02/22-rdf-syntax-ns#" width="385.31973" stroke-miterlimit="10" font-weight="normal" height="563.04559" font-style="normal" font-size="12px" id="svg2" version="1.1" ns1:version="0.91 r13725" ns2:docname="Alprazolam.svg" style="font-style:normal;font-weight:normal;font-size:12px;font-family:Dialog;color-interpolation:auto;fill:#000000;fill-opacity:1;stroke:none;stroke:none;stroke:none;stroke:none;stroke:none;stroke:none;stroke:none;stroke:none;color-rendering:auto;image-rendering:auto;shape-rendering:auto;text-rendering:auto">
  <metadata id="metadata200">
    <rdf:RDF>
      <ns4:Work rdf:about="">
        <dc:format>image/svg+xml</dc:format>
        <dc:type rdf:resource="http://purl.org/dc/dcmitype/StillImage" />
        <dc:title />
      </ns4:Work>
    </rdf:RDF>
  </metadata>
  <ns2:namedview pagecolor="#ffffff" bordercolor="#666666" borderopacity="1" objecttolerance="10" gridtolerance="10" guidetolerance="10" ns1:pageopacity="0" ns1:pageshadow="2" ns1:window-width="1060" ns1:window-height="480" id="namedview198" showgrid="false" fit-margin-top="10" fit-margin-left="10" fit-margin-right="10" fit-margin-bottom="10" ns1:zoom="0.36375" ns1:cx="343.48803" ns1:cy="281.40187" ns1:window-x="0" ns1:window-y="0" ns1:window-maximized="0" ns1:current-layer="svg2" />
  
  <defs id="genericDefs" />
  <g id="g5" transform="translate(-56.511966,-18.3563)" style="fill:#000000;stroke:none">
    <defs id="366664045775-defs1">
      <clipPath clipPathUnits="userSpaceOnUse" id="36666404526-clipPath1">
        <path d="M 0,0 800,0 800,600 0,600 0,0 Z" id="path9" ns1:connector-curvature="0" style="stroke:none" />
      </clipPath>
      <clipPath clipPathUnits="userSpaceOnUse" id="366664045580-clipPath1">
        <path d="m 340.2083,302.7783 c -17.2474,0 -31.2292,13.9818 -31.2292,31.2293 0,17.2474 13.9818,31.2292 31.2292,31.2292 17.2474,0 31.2292,-13.9818 31.2292,-31.2292 0,-17.2475 -13.9818,-31.2293 -31.2292,-31.2293 z" id="path12" ns1:connector-curvature="0" style="stroke:none" />
      </clipPath>
      <clipPath clipPathUnits="userSpaceOnUse" id="366664045127-clipPath1">
        <path d="m 430.1306,195.0617 c -16.3388,0 -29.5839,13.2452 -29.5839,29.5839 0,16.3388 13.2451,29.584 29.5839,29.584 16.3387,0 29.5839,-13.2452 29.5839,-29.584 0,-16.3387 -13.2452,-29.5839 -29.5839,-29.5839 z" id="path15" ns1:connector-curvature="0" style="stroke:none" />
      </clipPath>
      <clipPath clipPathUnits="userSpaceOnUse" id="366664045329-clipPath1">
        <path d="m 253.5979,191.9932 c -16.5748,0 -30.0113,13.4365 -30.0113,30.0113 0,16.5748 13.4365,30.0114 30.0113,30.0114 16.5748,0 30.0114,-13.4366 30.0114,-30.0114 0,-16.5748 -13.4366,-30.0113 -30.0114,-30.0113 z" id="path18" ns1:connector-curvature="0" style="stroke:none" />
      </clipPath>
      <clipPath clipPathUnits="userSpaceOnUse" id="366664045721-clipPath1">
        <path d="m 318.0629,129.5262 c -17.6758,0 -32.0049,14.3291 -32.0049,32.0049 0,17.6758 14.3291,32.0049 32.0049,32.0049 17.6757,0 32.0048,-14.3291 32.0048,-32.0049 0,-17.6758 -14.3291,-32.0049 -32.0048,-32.0049 z" id="path21" ns1:connector-curvature="0" style="stroke:none" />
      </clipPath>
      <clipPath clipPathUnits="userSpaceOnUse" id="366664045533-clipPath1">
        <path d="m 136.8154,298.5505 c -15.7984,0 -28.6055,12.8071 -28.6055,28.6055 0,15.7984 12.8071,28.6055 28.6055,28.6055 15.7983,0 28.6054,-12.8071 28.6054,-28.6055 0,-15.7984 -12.8071,-28.6055 -28.6054,-28.6055 z" id="path24" ns1:connector-curvature="0" style="stroke:none" />
      </clipPath>
      <clipPath clipPathUnits="userSpaceOnUse" id="366664045284-clipPath1">
        <path d="m 297.8336,113.2594 c -16.3847,0 -29.6671,13.2824 -29.6671,29.6671 0,16.3847 13.2824,29.6671 29.6671,29.6671 16.3847,0 29.6671,-13.2824 29.6671,-29.6671 0,-16.3847 -13.2824,-29.6671 -29.6671,-29.6671 z" id="path27" ns1:connector-curvature="0" style="stroke:none" />
      </clipPath>
      <clipPath clipPathUnits="userSpaceOnUse" id="366664045774-clipPath1">
        <path d="m 382.0654,132.783 c -16.4059,0 -29.7056,13.2997 -29.7056,29.7056 0,16.406 13.2997,29.7057 29.7056,29.7057 16.406,0 29.7056,-13.2997 29.7056,-29.7057 0,-16.4059 -13.2996,-29.7056 -29.7056,-29.7056 z" id="path30" ns1:connector-curvature="0" style="stroke:none" />
      </clipPath>
      <clipPath clipPathUnits="userSpaceOnUse" id="366664045977-clipPath1">
        <path d="m 330.7162,19.9884 c -17.0056,0 -30.7915,13.7859 -30.7915,30.7915 0,17.0057 13.7859,30.7915 30.7915,30.7915 17.0057,0 30.7915,-13.7858 30.7915,-30.7915 0,-17.0056 -13.7858,-30.7915 -30.7915,-30.7915 z" id="path33" ns1:connector-curvature="0" style="stroke:none" />
      </clipPath>
      <clipPath clipPathUnits="userSpaceOnUse" id="366664045760-clipPath1">
        <path d="m -400.768,-284.4787 800,0 0,600 -800,0 0,-600 z" id="path36" ns1:connector-curvature="0" style="stroke:none" />
      </clipPath>
      <clipPath clipPathUnits="userSpaceOnUse" id="366664045360-clipPath1">
        <path d="m -292.7666,-144.8132 800,0 0,600 -800,0 0,-600 z" id="path39" ns1:connector-curvature="0" style="stroke:none" />
      </clipPath>
      <clipPath clipPathUnits="userSpaceOnUse" id="366664045416-clipPath1">
        <path d="m -64.9397,-363.2318 800,0 0,600 -800,0 0,-600 z" id="path42" ns1:connector-curvature="0" style="stroke:none" />
      </clipPath>
      <clipPath clipPathUnits="userSpaceOnUse" id="366664045422-clipPath1">
        <path d="m -396.7374,-71.6392 800,0 0,600 -800,0 0,-600 z" id="path45" ns1:connector-curvature="0" style="stroke:none" />
      </clipPath>
      <clipPath clipPathUnits="userSpaceOnUse" id="36666404518-clipPath1">
        <path d="m -333.8732,-24.5028 800,0 0,600.0001 -800,0 0,-600.0001 z" id="path48" ns1:connector-curvature="0" style="stroke:none" />
      </clipPath>
    </defs>
    <g id="g50" style="text-rendering:geometricPrecision;fill:#000000;stroke:none">
      <path d="m 339.9052,411.112 c -0.8065,-0.4818 -1.8504,-0.2188 -2.3323,0.5877 -0.4818,0.8065 -0.2188,1.8504 0.5877,2.3323 l 67.4511,40.3001 c 0.8065,0.4818 1.8504,0.2188 2.3322,-0.5877 0.4819,-0.8065 0.2189,-1.8504 -0.5876,-2.3323 z m 1.2151,17.2356 c -0.8064,-0.4818 -1.8504,-0.2188 -2.3322,0.5877 -0.4819,0.8065 -0.2188,1.8504 0.5877,2.3322 l 50.4825,30.1619 c 0.8064,0.4819 1.8504,0.2189 2.3322,-0.5876 0.4819,-0.8065 0.2188,-1.8504 -0.5877,-2.3323 z" clip-path="url(#36666404526-clipPath1)" id="path52" ns1:connector-curvature="0" style="stroke:none" />
    </g>
    <g id="g54" style="text-rendering:geometricPrecision;fill:#000000;stroke:none">
      <path d="m 404.7835,452.8467 -1.1754,78.5644 c -0.0141,0.9394 0.7357,1.7119 1.675,1.7259 0.9394,0.0141 1.7119,-0.7357 1.726,-1.675 l 1.1754,-78.5644 c 0.014,-0.9394 -0.7357,-1.7119 -1.6751,-1.726 -0.9393,-0.014 -1.7119,0.7357 -1.7259,1.6751 z" clip-path="url(#36666404526-clipPath1)" id="path56" ns1:connector-curvature="0" style="stroke:none" />
    </g>
    <g id="g58" style="text-rendering:geometricPrecision;fill:#000000;stroke:none">
      <path d="m 406.1368,532.9219 c 0.8205,-0.4575 1.1147,-1.4931 0.6572,-2.3136 -0.4575,-0.8205 -1.4931,-1.1146 -2.3137,-0.6572 l -68.6264,38.2643 c -0.8206,0.4575 -1.1147,1.4931 -0.6572,2.3137 0.4575,0.8204 1.4931,1.1146 2.3136,0.6571 z m -15.5341,-7.5654 c 0.8206,-0.4575 1.1147,-1.4931 0.6572,-2.3137 -0.4575,-0.8204 -1.4931,-1.1146 -2.3136,-0.6571 l -51.3622,28.6382 c -0.8206,0.4575 -1.1147,1.4931 -0.6572,2.3136 0.4575,0.8205 1.4931,1.1147 2.3136,0.6572 z" clip-path="url(#36666404526-clipPath1)" id="path60" ns1:connector-curvature="0" style="stroke:none" />
    </g>
    <g id="g62" style="text-rendering:geometricPrecision;fill:#000000;stroke:none">
      <path d="m 337.5544,568.2408 -67.4511,-40.3001 c -0.8065,-0.4818 -1.8504,-0.2188 -2.3323,0.5877 -0.4818,0.8064 -0.2188,1.8504 0.5877,2.3323 l 67.4511,40.3001 c 0.8065,0.4818 1.8504,0.2188 2.3323,-0.5877 0.4818,-0.8065 0.2187,-1.8504 -0.5877,-2.3323 z" clip-path="url(#36666404526-clipPath1)" id="path64" ns1:connector-curvature="0" style="stroke:none" />
    </g>
    <g id="g66" style="text-rendering:geometricPrecision;fill:#000000;stroke:none">
      <path d="m 267.5305,529.3752 c -0.0141,0.9394 0.7357,1.712 1.6751,1.726 0.9393,0.014 1.7118,-0.7357 1.7259,-1.6751 l 1.1754,-78.5644 c 0.0141,-0.9394 -0.7357,-1.7119 -1.675,-1.726 -0.9394,-0.014 -1.712,0.7358 -1.726,1.6751 z m 14.3189,-9.6701 c -0.0141,0.9393 0.7357,1.7119 1.6751,1.7259 0.9393,0.0141 1.7119,-0.7357 1.7259,-1.675 l 0.8797,-58.8001 c 0.0141,-0.9394 -0.7357,-1.7119 -1.6751,-1.726 -0.9393,-0.014 -1.7118,0.7357 -1.7259,1.6751 z" clip-path="url(#36666404526-clipPath1)" id="path68" ns1:connector-curvature="0" style="stroke:none" />
    </g>
    <g id="g70" style="text-rendering:geometricPrecision;fill:#000000;stroke:none">
      <path d="m 271.2346,452.3217 68.6265,-38.2643 c 0.8205,-0.4575 1.1147,-1.4931 0.6572,-2.3137 -0.4575,-0.8205 -1.4931,-1.1146 -2.3136,-0.6571 l -68.6265,38.2642 c -0.8205,0.4575 -1.1147,1.4931 -0.6572,2.3137 0.4575,0.8205 1.4931,1.1147 2.3136,0.6572 z" clip-path="url(#36666404526-clipPath1)" id="path72" ns1:connector-curvature="0" style="stroke:none" />
    </g>
    <g id="g74" style="text-rendering:geometricPrecision;fill:#000000;stroke:none">
      <path d="m 340.7334,412.5974 1.1754,-78.5644 c 0.0141,-0.9394 -0.7357,-1.7119 -1.6751,-1.726 -0.9393,-0.014 -1.7118,0.7358 -1.7259,1.6751 l -1.1754,78.5644 c -0.0141,0.9394 0.7357,1.7119 1.675,1.726 0.9394,0.014 1.712,-0.7357 1.726,-1.6751 z" clip-path="url(#36666404526-clipPath1)" id="path76" ns1:connector-curvature="0" style="stroke:none" />
    </g>
    <g id="g78" style="text-rendering:geometricPrecision;fill:#000000;stroke:none">
      <path d="m 340.9691,332.4865 -70.2742,-35.1468 c -0.8402,-0.4203 -1.8615,-0.08 -2.2818,0.7603 -0.4202,0.8402 -0.0799,1.8615 0.7604,2.2818 l 70.2741,35.1468 c 0.8402,0.4203 1.8615,0.0799 2.2818,-0.7603 0.4202,-0.8402 0.0799,-1.8616 -0.7603,-2.2818 z" clip-path="url(#36666404526-clipPath1)" id="path80" ns1:connector-curvature="0" style="stroke:none" />
    </g>
    <g id="g82" style="fill:#333399;stroke:none;text-rendering:geometricPrecision">
      <path d="m 341.2719,316.0208 c -0.8525,0.3949 -1.2232,1.4057 -0.8283,2.2581 0.3949,0.8524 1.4056,1.2231 2.2581,0.8282 l 48.9361,-22.6709 c 0.8525,-0.3949 1.2232,-1.4057 0.8283,-2.2581 -0.3949,-0.8524 -1.4056,-1.2231 -2.258,-0.8282 z m -1.7785,16.4436 c -0.8524,0.3949 -1.2231,1.4056 -0.8282,2.258 0.3949,0.8525 1.4056,1.2232 2.258,0.8283 l 56.6722,-26.2549 c 0.8524,-0.3949 1.2232,-1.4056 0.8283,-2.258 -0.3949,-0.8524 -1.4056,-1.2232 -2.2581,-0.8283 z" clip-path="url(#36666404526-clipPath1)" id="path84" ns1:connector-curvature="0" style="stroke:none" />
      <path d="m 341.2719,316.0208 c -0.8525,0.3949 -1.2232,1.4057 -0.8283,2.2581 0.3949,0.8524 1.4056,1.2231 2.2581,0.8282 l 48.9361,-22.6709 c 0.8525,-0.3949 1.2232,-1.4057 0.8283,-2.2581 -0.3949,-0.8524 -1.4056,-1.2231 -2.258,-0.8282 z m -1.7785,16.4436 c -0.8524,0.3949 -1.2231,1.4056 -0.8282,2.258 0.3949,0.8525 1.4056,1.2232 2.258,0.8283 l 56.6722,-26.2549 c 0.8524,-0.3949 1.2232,-1.4056 0.8283,-2.258 -0.3949,-0.8524 -1.4056,-1.2232 -2.2581,-0.8283 z" clip-path="url(#366664045580-clipPath1)" id="path86" ns1:connector-curvature="0" style="fill:#000000;stroke:none" />
    </g>
    <g id="g88" style="text-rendering:geometricPrecision;fill:#000000;stroke:none">
      <path d="m 252.3529,292.4937 c 0.1953,0.9189 1.0982,1.5052 2.0171,1.3099 0.9189,-0.1953 1.5053,-1.0982 1.3099,-2.0171 l -12.2265,-57.5216 c -0.1954,-0.9189 -1.0983,-1.5053 -2.0172,-1.3099 -0.9189,0.1953 -1.5052,1.0981 -1.3099,2.0171 z m 15.9178,6.7206 c 0.1953,0.9189 1.0982,1.5053 2.0171,1.31 0.9189,-0.1954 1.5053,-1.0982 1.3099,-2.0172 l -16.3363,-76.8562 c -0.1953,-0.9189 -1.0982,-1.5052 -2.0171,-1.3099 -0.9189,0.1953 -1.5053,1.0982 -1.3099,2.0171 z" clip-path="url(#36666404526-clipPath1)" id="path90" ns1:connector-curvature="0" style="stroke:none" />
    </g>
    <g id="g92" style="text-rendering:geometricPrecision;fill:#000000;stroke:none">
      <path d="m 380.72,163.529 48.0652,62.157 c 0.5747,0.7432 1.6425,0.8797 2.3857,0.305 0.7432,-0.5747 0.8797,-1.6425 0.3051,-2.3857 l -48.0652,-62.157 c -0.5747,-0.7432 -1.6426,-0.8797 -2.3857,-0.305 -0.7432,0.5747 -0.8797,1.6425 -0.3051,2.3857 z" clip-path="url(#36666404526-clipPath1)" id="path94" ns1:connector-curvature="0" style="stroke:none" />
    </g>
    <g id="g96" style="fill:#333399;stroke:none;text-rendering:geometricPrecision">
      <path d="m 428.4783,224.2424 -14.0275,57.481 c -0.2227,0.9127 0.3363,1.8327 1.249,2.0554 0.9127,0.2227 1.8327,-0.3363 2.0554,-1.249 l 14.0276,-57.481 c 0.2227,-0.9126 -0.3364,-1.8326 -1.249,-2.0554 -0.9127,-0.2227 -1.8327,0.3364 -2.0555,1.249 z" clip-path="url(#36666404526-clipPath1)" id="path98" ns1:connector-curvature="0" style="stroke:none" />
      <path d="m 428.4783,224.2424 -14.0275,57.481 c -0.2227,0.9127 0.3363,1.8327 1.249,2.0554 0.9127,0.2227 1.8327,-0.3363 2.0554,-1.249 l 14.0276,-57.481 c 0.2227,-0.9126 -0.3364,-1.8326 -1.249,-2.0554 -0.9127,-0.2227 -1.8327,0.3364 -2.0555,1.249 z" clip-path="url(#366664045127-clipPath1)" id="path100" ns1:connector-curvature="0" style="fill:#000000;stroke:none" />
    </g>
    <g id="g102" style="fill:#333399;stroke:none;text-rendering:geometricPrecision">
      <path d="m 254.9116,223.0847 38.1213,-46.3626 c 0.5967,-0.7256 0.4922,-1.7971 -0.2335,-2.3938 -0.7256,-0.5966 -1.7971,-0.4921 -2.3938,0.2335 l -38.1213,46.3626 c -0.5967,0.7256 -0.4922,1.7971 0.2335,2.3938 0.7256,0.5966 1.7971,0.4921 2.3938,-0.2335 z" clip-path="url(#36666404526-clipPath1)" id="path104" ns1:connector-curvature="0" style="stroke:none" />
      <path d="m 254.9116,223.0847 38.1213,-46.3626 c 0.5967,-0.7256 0.4922,-1.7971 -0.2335,-2.3938 -0.7256,-0.5966 -1.7971,-0.4921 -2.3938,0.2335 l -38.1213,46.3626 c -0.5967,0.7256 -0.4922,1.7971 0.2335,2.3938 0.7256,0.5966 1.7971,0.4921 2.3938,-0.2335 z" clip-path="url(#366664045329-clipPath1)" id="path106" ns1:connector-curvature="0" style="fill:#000000;stroke:none" />
    </g>
    <g id="g108" style="text-rendering:geometricPrecision;fill:#000000;stroke:none">
      <path d="m 318.0374,163.2316 64.0026,0.9576 c 0.9393,0.014 1.7119,-0.7358 1.7259,-1.6751 0.0141,-0.9394 -0.7357,-1.7119 -1.675,-1.726 l -64.0026,-0.9575 c -0.9393,-0.0141 -1.7119,0.7357 -1.726,1.6751 -0.014,0.9393 0.7358,1.7119 1.6751,1.7259 z" clip-path="url(#36666404526-clipPath1)" id="path110" ns1:connector-curvature="0" style="stroke:none" />
      <path d="m 318.0374,163.2316 64.0026,0.9576 c 0.9393,0.014 1.7119,-0.7358 1.7259,-1.6751 0.0141,-0.9394 -0.7357,-1.7119 -1.675,-1.726 l -64.0026,-0.9575 c -0.9393,-0.0141 -1.7119,0.7357 -1.726,1.6751 -0.014,0.9393 0.7358,1.7119 1.6751,1.7259 z" clip-path="url(#366664045721-clipPath1)" id="path112" ns1:connector-curvature="0" style="fill:#333399;stroke:none" />
    </g>
    <g id="g114" style="text-rendering:geometricPrecision;fill:#000000;stroke:none">
      <path d="m 182.147,216.1335 c 0.6981,-0.6286 0.7545,-1.7037 0.1259,-2.4019 -0.6287,-0.6982 -1.7037,-0.7545 -2.4019,-0.1259 l -43.7019,39.3494 c -0.6981,0.6286 -0.7545,1.7037 -0.1258,2.4018 0.6286,0.6982 1.7037,0.7545 2.4018,0.1259 z m -2.1387,-17.1456 c 0.6982,-0.6286 0.7545,-1.7037 0.1259,-2.4018 -0.6286,-0.6982 -1.7037,-0.7545 -2.4019,-0.1259 l -58.3912,52.5757 c -0.6982,0.6287 -0.7545,1.7037 -0.1259,2.4019 0.6286,0.6982 1.7037,0.7545 2.4019,0.1259 z" clip-path="url(#36666404526-clipPath1)" id="path116" ns1:connector-curvature="0" style="stroke:none" />
    </g>
    <g id="g118" style="text-rendering:geometricPrecision;fill:#000000;stroke:none">
      <path d="m 118.8155,250.6534 16.3363,76.8562 c 0.1953,0.9189 1.0982,1.5053 2.0171,1.3099 0.919,-0.1953 1.5053,-1.0982 1.31,-2.0171 l -16.3363,-76.8562 c -0.1953,-0.9189 -1.0982,-1.5053 -2.0171,-1.3099 -0.919,0.1953 -1.5053,1.0982 -1.31,2.0171 z" clip-path="url(#36666404526-clipPath1)" id="path120" ns1:connector-curvature="0" style="stroke:none" />
    </g>
    <g id="g122" style="text-rendering:geometricPrecision;fill:#000000;stroke:none">
      <path d="m 151.1201,315.1136 c -0.8935,-0.2902 -1.8528,0.1985 -2.1431,1.092 -0.2903,0.8935 0.1985,1.8527 1.092,2.143 l 55.9284,18.1722 c 0.8935,0.2904 1.8527,-0.1984 2.143,-1.0919 0.2903,-0.8935 -0.1984,-1.8527 -1.0919,-2.143 z m -13.7792,10.4249 c -0.8935,-0.2903 -1.8527,0.1985 -2.143,1.092 -0.2903,0.8934 0.1984,1.8527 1.0919,2.143 l 74.7276,24.2804 c 0.8935,0.2903 1.8527,-0.1984 2.143,-1.0919 0.2903,-0.8935 -0.1985,-1.8527 -1.0919,-2.143 z" clip-path="url(#36666404526-clipPath1)" id="path124" ns1:connector-curvature="0" style="stroke:none" />
    </g>
    <g id="g126" style="text-rendering:geometricPrecision;fill:#000000;stroke:none">
      <path d="m 212.6809,352.7003 58.3913,-52.5757 c 0.6982,-0.6286 0.7545,-1.7037 0.1259,-2.4019 -0.6286,-0.6981 -1.7037,-0.7545 -2.4019,-0.1258 l -58.3913,52.5757 c -0.6981,0.6286 -0.7545,1.7037 -0.1258,2.4019 0.6286,0.6981 1.7037,0.7544 2.4018,0.1258 z" clip-path="url(#36666404526-clipPath1)" id="path128" ns1:connector-curvature="0" style="stroke:none" />
    </g>
    <g id="g130" style="text-rendering:geometricPrecision;fill:#000000;stroke:none">
      <path d="m 254.1235,220.3871 -74.7276,-24.2805 c -0.8935,-0.2903 -1.8527,0.1984 -2.143,1.0919 -0.2903,0.8935 0.1984,1.8527 1.0919,2.143 l 74.7276,24.2805 c 0.8934,0.2903 1.8527,-0.1984 2.143,-1.0919 0.2903,-0.8935 -0.1985,-1.8527 -1.0919,-2.143 z" clip-path="url(#36666404526-clipPath1)" id="path132" ns1:connector-curvature="0" style="stroke:none" />
    </g>
    <g id="g134" style="fill:#009900;stroke:none;text-rendering:geometricPrecision">
      <path d="m 135.6774,325.8922 -42.516,38.2815 c -0.6982,0.6286 -0.7545,1.7037 -0.1259,2.4019 0.6286,0.6981 1.7037,0.7545 2.4018,0.1258 l 42.5161,-38.2815 c 0.6981,-0.6286 0.7544,-1.7037 0.1258,-2.4019 -0.6286,-0.6981 -1.7037,-0.7545 -2.4018,-0.1258 z" clip-path="url(#36666404526-clipPath1)" id="path136" ns1:connector-curvature="0" style="stroke:none" />
      <path d="m 135.6774,325.8922 -42.516,38.2815 c -0.6982,0.6286 -0.7545,1.7037 -0.1259,2.4019 0.6286,0.6981 1.7037,0.7545 2.4018,0.1258 l 42.5161,-38.2815 c 0.6981,-0.6286 0.7544,-1.7037 0.1258,-2.4019 -0.6286,-0.6981 -1.7037,-0.7545 -2.4018,-0.1258 z" clip-path="url(#366664045533-clipPath1)" id="path138" ns1:connector-curvature="0" style="fill:#000000;stroke:none" />
    </g>
    <g id="g140" style="text-rendering:geometricPrecision;fill:#000000;stroke:none">
      <path d="M 299.4589,142.4256 281.9815,85.7238 c -0.2767,-0.8978 -1.2284,-1.401 -2.1262,-1.1243 -0.8977,0.2767 -1.401,1.2284 -1.1243,2.1262 l 17.4774,56.7018 c 0.2767,0.8977 1.2284,1.401 2.1262,1.1243 0.8977,-0.2768 1.401,-1.2285 1.1243,-2.1262 z" clip-path="url(#36666404526-clipPath1)" id="path142" ns1:connector-curvature="0" style="stroke:none" />
      <path d="M 299.4589,142.4256 281.9815,85.7238 c -0.2767,-0.8978 -1.2284,-1.401 -2.1262,-1.1243 -0.8977,0.2767 -1.401,1.2284 -1.1243,2.1262 l 17.4774,56.7018 c 0.2767,0.8977 1.2284,1.401 2.1262,1.1243 0.8977,-0.2768 1.401,-1.2285 1.1243,-2.1262 z" clip-path="url(#366664045284-clipPath1)" id="path144" ns1:connector-curvature="0" style="fill:#333399;stroke:none" />
    </g>
    <g id="g146" style="fill:#333399;stroke:none;text-rendering:geometricPrecision">
      <path d="m 370.9239,146.0043 c -0.3038,0.889 0.1704,1.8555 1.0593,2.1593 0.889,0.3038 1.8555,-0.1704 2.1593,-1.0594 l 15.3321,-44.8679 c 0.3038,-0.889 -0.1704,-1.8555 -1.0594,-2.1593 -0.889,-0.3038 -1.8555,0.1704 -2.1593,1.0594 z m 9.5322,15.9344 c -0.3038,0.889 0.1704,1.8555 1.0594,2.1593 0.889,0.3038 1.8555,-0.1704 2.1592,-1.0594 l 19.2111,-56.2195 c 0.3038,-0.889 -0.1704,-1.8555 -1.0594,-2.1592 -0.889,-0.3038 -1.8555,0.1704 -2.1593,1.0594 z" clip-path="url(#36666404526-clipPath1)" id="path148" ns1:connector-curvature="0" style="stroke:none" />
      <path d="m 370.9239,146.0043 c -0.3038,0.889 0.1704,1.8555 1.0593,2.1593 0.889,0.3038 1.8555,-0.1704 2.1593,-1.0594 l 15.3321,-44.8679 c 0.3038,-0.889 -0.1704,-1.8555 -1.0594,-2.1593 -0.889,-0.3038 -1.8555,0.1704 -2.1593,1.0594 z m 9.5322,15.9344 c -0.3038,0.889 0.1704,1.8555 1.0594,2.1593 0.889,0.3038 1.8555,-0.1704 2.1592,-1.0594 l 19.2111,-56.2195 c 0.3038,-0.889 -0.1704,-1.8555 -1.0594,-2.1592 -0.889,-0.3038 -1.8555,0.1704 -2.1593,1.0594 z" clip-path="url(#366664045774-clipPath1)" id="path150" ns1:connector-curvature="0" style="fill:#000000;stroke:none" />
    </g>
    <g id="g152" style="text-rendering:geometricPrecision;fill:#000000;stroke:none">
      <path d="m 339.8523,63.7605 c 0.7683,-0.5407 0.9526,-1.6014 0.4119,-2.3696 -0.5407,-0.7683 -1.6014,-0.9527 -2.3696,-0.4119 l -40.5499,28.5402 c -0.7683,0.5407 -0.9526,1.6014 -0.4119,2.3696 0.5407,0.7683 1.6013,0.9527 2.3696,0.412 z m -8.1572,-11.5898 c 0.7682,-0.5407 0.9526,-1.6014 0.4119,-2.3696 -0.5407,-0.7683 -1.6014,-0.9527 -2.3696,-0.4119 l -50.36,35.4448 c -0.7682,0.5407 -0.9526,1.6014 -0.4119,2.3696 0.5408,0.7683 1.6014,0.9526 2.3696,0.4119 z" clip-path="url(#36666404526-clipPath1)" id="path154" ns1:connector-curvature="0" style="stroke:none" />
      <path d="m 339.8523,63.7605 c 0.7683,-0.5407 0.9526,-1.6014 0.4119,-2.3696 -0.5407,-0.7683 -1.6014,-0.9527 -2.3696,-0.4119 l -40.5499,28.5402 c -0.7683,0.5407 -0.9526,1.6014 -0.4119,2.3696 0.5407,0.7683 1.6013,0.9527 2.3696,0.412 z m -8.1572,-11.5898 c 0.7682,-0.5407 0.9526,-1.6014 0.4119,-2.3696 -0.5407,-0.7683 -1.6014,-0.9527 -2.3696,-0.4119 l -50.36,35.4448 c -0.7682,0.5407 -0.9526,1.6014 -0.4119,2.3696 0.5408,0.7683 1.6014,0.9526 2.3696,0.4119 z" clip-path="url(#366664045977-clipPath1)" id="path156" ns1:connector-curvature="0" style="fill:#333399;stroke:none" />
    </g>
    <g id="g158" style="fill:#333399;stroke:none;text-rendering:geometricPrecision">
      <path d="M 394.8009,76.5127 359.319,49.9079 c -0.7516,-0.5636 -1.8174,-0.4112 -2.381,0.3404 -0.5635,0.7516 -0.4112,1.8173 0.3404,2.3809 l 35.482,26.6049 c 0.7517,0.5636 1.8174,0.4112 2.381,-0.3404 0.5635,-0.7517 0.4112,-1.8174 -0.3405,-2.381 z" clip-path="url(#36666404526-clipPath1)" id="path160" ns1:connector-curvature="0" style="stroke:none" />
    </g>
    <g id="g162" style="text-rendering:geometricPrecision;fill:#000000;stroke:none">
      <path d="M 280.9062,84.6154 212.9911,61.4092 c -0.889,-0.3037 -1.8555,0.1705 -2.1593,1.0595 -0.3038,0.889 0.1705,1.8555 1.0595,2.1592 l 67.9151,23.2062 c 0.889,0.3038 1.8555,-0.1704 2.1592,-1.0594 0.3038,-0.889 -0.1704,-1.8555 -1.0594,-2.1593 z" clip-path="url(#36666404526-clipPath1)" id="path164" ns1:connector-curvature="0" style="stroke:none" />
    </g>
    <g id="g166" style="fill:#ffffff;stroke:none;text-rendering:geometricPrecision">
      </g>
    <g font-size="28px" transform="translate(400.768,284.4787)" id="g170" style="font-size:28px;font-family:sans-serif;fill:#333399;stroke:none;text-rendering:geometricPrecision">
      <text x="0" xml:space="preserve" y="27" clip-path="url(#366664045760-clipPath1)" id="text172" style="stroke:none">N</text>
    </g>
    <g font-size="28px" id="g174" style="font-size:28px;font-family:sans-serif;fill:#ffffff;stroke:none;text-rendering:geometricPrecision">
      <text x="0" y="27" transform="translate(292.7666,144.8132)" clip-path="url(#366664045360-clipPath1)" xml:space="preserve" id="text178" style="fill:#333399;stroke:none">N</text>
    </g>
    <g font-size="28px" id="g180" style="font-size:28px;font-family:sans-serif;fill:#ffffff;stroke:none;text-rendering:geometricPrecision">
      <text x="0" y="27" transform="translate(64.9397,363.2317)" clip-path="url(#366664045416-clipPath1)" xml:space="preserve" id="text184" style="fill:#009900;stroke:none">Cl</text>
    </g>
    <g font-size="28px" id="g186" style="font-size:28px;font-family:sans-serif;fill:#ffffff;stroke:none;text-rendering:geometricPrecision">
      <text x="0" y="27" transform="translate(396.7374,71.6392)" clip-path="url(#366664045422-clipPath1)" xml:space="preserve" id="text190" style="fill:#333399;stroke:none">N</text>
    </g>
    <g font-size="28px" id="g192" style="font-size:28px;font-family:sans-serif;fill:#ffffff;stroke:none;text-rendering:geometricPrecision">
      <text x="0" y="27" transform="translate(333.8732,24.5028)" clip-path="url(#36666404518-clipPath1)" xml:space="preserve" id="text196" style="fill:#333399;stroke:none">N</text>
    </g>
  </g>
</svg>