<?xml version='1.0' encoding='utf-8'?>
<svg xmlns="http://www.w3.org/2000/svg" xmlns:dc="http://purl.org/dc/elements/1.1/" xmlns:ns1="http://www.inkscape.org/namespaces/inkscape" xmlns:ns2="http://sodipodi.sourceforge.net/DTD/sodipodi-0.dtd" xmlns:ns4="http://creativecommons.org/ns#" xmlns:rdf="http://www.w3.org/1999/02/22-rdf-syntax-ns#" width="771.87848" stroke-miterlimit="10" font-weight="normal" height="293.93356" font-style="normal" font-size="12px" id="svg2" version="1.1" ns1:version="0.91 r13725" ns2:docname="Anileridine.svg" style="font-style:normal;font-weight:normal;font-size:12px;font-family:Dialog;color-interpolation:auto;fill:#f5d0fe;fill-opacity:1;stroke:none;stroke:none;stroke:none;stroke:none;stroke:none;stroke:none;stroke:none;stroke:none;color-rendering:auto;image-rendering:auto;shape-rendering:auto;text-rendering:auto">
  <metadata id="metadata212">
    <rdf:RDF>
      <ns4:Work rdf:about="">
        <dc:format>image/svg+xml</dc:format>
        <dc:type rdf:resource="http://purl.org/dc/dcmitype/StillImage" />
        <dc:title />
      </ns4:Work>
    </rdf:RDF>
  </metadata>
  <ns2:namedview pagecolor="#eef2ff" bordercolor="#666666" borderopacity="1" objecttolerance="10" gridtolerance="10" guidetolerance="10" ns1:pageopacity="0" ns1:pageshadow="2" ns1:window-width="1060" ns1:window-height="480" id="namedview210" showgrid="false" fit-margin-top="10" fit-margin-left="10" fit-margin-right="10" fit-margin-bottom="10" ns1:zoom="0.36375" ns1:cx="505.62123" ns1:cy="112.41436" ns1:window-x="0" ns1:window-y="0" ns1:window-maximized="0" ns1:current-layer="svg2" />
  
  <defs id="genericDefs" />
  <g id="g5" transform="translate(-13.9664,-118.4808)" style="fill:#f5d0fe;stroke:none">
    <defs id="57721630156-defs1">
      <clipPath clipPathUnits="userSpaceOnUse" id="57721630781-clipPath1">
        <path d="M 0,0 800,0 800,600 0,600 0,0 Z" id="path9" ns1:connector-curvature="0" style="stroke:none" />
      </clipPath>
      <clipPath clipPathUnits="userSpaceOnUse" id="57721630774-clipPath1">
        <path d="m 427.6543,235.8982 c -13.8908,0 -25.1516,11.2607 -25.1516,25.1515 0,13.8909 11.2608,25.1516 25.1516,25.1516 13.8908,0 25.1516,-11.2607 25.1516,-25.1516 0,-13.8908 -11.2608,-25.1515 -25.1516,-25.1515 z" id="path12" ns1:connector-curvature="0" style="stroke:none" />
      </clipPath>
      <clipPath clipPathUnits="userSpaceOnUse" id="57721630940-clipPath1">
        <path d="m 452.8005,164.3878 c -13.8908,0 -25.1515,11.2607 -25.1515,25.1515 0,13.8909 11.2607,25.1516 25.1515,25.1516 13.8908,0 25.1516,-11.2607 25.1516,-25.1516 0,-13.8908 -11.2608,-25.1515 -25.1516,-25.1515 z" id="path15" ns1:connector-curvature="0" style="stroke:none" />
      </clipPath>
      <clipPath clipPathUnits="userSpaceOnUse" id="57721630724-clipPath1">
        <path d="m 407.2051,220.0518 c -14.9261,0 -27.0262,12.1 -27.0262,27.0262 0,14.9261 12.1001,27.0261 27.0262,27.0261 14.9261,0 27.0261,-12.1 27.0261,-27.0261 0,-14.9262 -12.1,-27.0262 -27.0261,-27.0262 z" id="path18" ns1:connector-curvature="0" style="stroke:none" />
      </clipPath>
      <clipPath clipPathUnits="userSpaceOnUse" id="5772163062-clipPath1">
        <path d="m 604.0961,179.5448 c -14.2066,0 -25.7234,11.5167 -25.7234,25.7233 0,14.2067 11.5168,25.7234 25.7234,25.7234 14.2067,0 25.7234,-11.5167 25.7234,-25.7234 0,-14.2066 -11.5167,-25.7233 -25.7234,-25.7233 z" id="path21" ns1:connector-curvature="0" style="stroke:none" />
      </clipPath>
      <clipPath clipPathUnits="userSpaceOnUse" id="5772163078-clipPath1">
        <path d="m 678.6923,193.7672 c -13.879,0 -25.1302,11.2511 -25.1302,25.1301 0,13.879 11.2512,25.1302 25.1302,25.1302 13.879,0 25.1301,-11.2512 25.1301,-25.1302 0,-13.879 -11.2511,-25.1301 -25.1301,-25.1301 z" id="path24" ns1:connector-curvature="0" style="stroke:none" />
      </clipPath>
      <clipPath clipPathUnits="userSpaceOnUse" id="57721630950-clipPath1">
        <path d="m 604.0961,180.8006 c -13.513,0 -24.4674,10.9545 -24.4674,24.4675 0,13.5131 10.9544,24.4675 24.4674,24.4675 13.5131,0 24.4676,-10.9544 24.4676,-24.4675 0,-13.513 -10.9545,-24.4675 -24.4676,-24.4675 z" id="path27" ns1:connector-curvature="0" style="stroke:none" />
      </clipPath>
      <clipPath clipPathUnits="userSpaceOnUse" id="57721630478-clipPath1">
        <path d="m 120.6145,162.5115 c -14.9261,0 -27.0261,12.1 -27.0261,27.0261 0,14.9261 12.1,27.0262 27.0261,27.0262 14.9261,0 27.0262,-12.1001 27.0262,-27.0262 0,-14.9261 -12.1001,-27.0261 -27.0262,-27.0261 z" id="path30" ns1:connector-curvature="0" style="stroke:none" />
      </clipPath>
      <clipPath clipPathUnits="userSpaceOnUse" id="57721630641-clipPath1">
        <path d="m -410.9572,-233.578 800,0 0,600 -800,0 0,-600 z" id="path33" ns1:connector-curvature="0" style="stroke:none" />
      </clipPath>
      <clipPath clipPathUnits="userSpaceOnUse" id="57721630838-clipPath1">
        <path d="m -584.5943,-126.1488 800,0 0,600 -800,0 0,-600 z" id="path36" ns1:connector-curvature="0" style="stroke:none" />
      </clipPath>
      <clipPath clipPathUnits="userSpaceOnUse" id="57721630918-clipPath1">
        <path d="m -657.011,-215.5777 800,0 0,600.0001 -800,0 0,-600.0001 z" id="path39" ns1:connector-curvature="0" style="stroke:none" />
      </clipPath>
      <clipPath clipPathUnits="userSpaceOnUse" id="57721630623-clipPath1">
        <path d="m -21.9664,-176.0336 800,0 0,600 -800,0 0,-600 z" id="path42" ns1:connector-curvature="0" style="stroke:none" />
      </clipPath>
      <clipPath clipPathUnits="userSpaceOnUse" id="57721630142-clipPath1">
        <path d="m -36.6383,-187.9262 800,0 0,600 -800,0 0,-600 z" id="path45" ns1:connector-curvature="0" style="stroke:none" />
      </clipPath>
      <clipPath clipPathUnits="userSpaceOnUse" id="57721630428-clipPath1">
        <path d="m -45.5445,-176.0336 799.9999,0 0,600 -799.9999,0 0,-600 z" id="path48" ns1:connector-curvature="0" style="stroke:none" />
      </clipPath>
    </defs>
    <g id="g50" style="text-rendering:geometricPrecision;fill:#f5d0fe;stroke:none">
      <path d="m 553.7098,246.359 -33.2187,-57.5387 c -0.3971,-0.6879 -1.2764,-0.9235 -1.9643,-0.5263 -0.6879,0.3971 -0.9236,1.2764 -0.5264,1.9643 l 33.2186,57.5387 c 0.3971,0.6879 1.2764,0.9235 1.9643,0.5263 0.688,-0.3971 0.9236,-1.2764 0.5265,-1.9643 z" clip-path="url(#57721630781-clipPath1)" id="path52" ns1:connector-curvature="0" style="stroke:none" />
    </g>
    <g id="g54" style="text-rendering:geometricPrecision;fill:#f5d0fe;stroke:none">
      <path d="m 551.219,246.359 -33.2186,57.5386 c -0.3972,0.688 -0.1615,1.5672 0.5264,1.9644 0.6879,0.3972 1.5672,0.1615 1.9643,-0.5264 l 33.2187,-57.5386 c 0.3971,-0.688 0.1615,-1.5672 -0.5265,-1.9644 -0.6879,-0.3972 -1.5672,-0.1616 -1.9643,0.5264 z" clip-path="url(#57721630781-clipPath1)" id="path56" ns1:connector-curvature="0" style="stroke:none" />
    </g>
    <g id="g58" style="text-rendering:geometricPrecision;fill:#f5d0fe;stroke:none">
      <path d="m 452.8005,306.0546 66.4453,0 c 0.7944,0 1.438,-0.6437 1.438,-1.438 0,-0.7943 -0.6436,-1.438 -1.438,-1.438 l -66.4453,0 c -0.7943,0 -1.438,0.6437 -1.438,1.438 0,0.7943 0.6437,1.438 1.438,1.438 z" clip-path="url(#57721630781-clipPath1)" id="path60" ns1:connector-curvature="0" style="stroke:none" />
    </g>
    <g id="g62" style="text-rendering:geometricPrecision;fill:#f5d0fe;stroke:none">
      <path d="m 551.5021,248.1466 49.3725,44.4552 c 0.5903,0.5315 1.4994,0.4839 2.0309,-0.1064 0.5315,-0.5904 0.4839,-1.4994 -0.1064,-2.0309 l -49.3725,-44.4552 c -0.5903,-0.5315 -1.4994,-0.4839 -2.0309,0.1064 -0.5315,0.5904 -0.4839,1.4994 0.1064,2.0309 z" clip-path="url(#57721630781-clipPath1)" id="path64" ns1:connector-curvature="0" style="stroke:none" />
    </g>
    <g id="g66" style="text-rendering:geometricPrecision;fill:#f5d0fe;stroke:none">
      <path d="m 587.0634,357.5825 49.3771,44.462 c 0.5903,0.5316 1.4993,0.4839 2.0308,-0.1064 0.5316,-0.5903 0.484,-1.4993 -0.1063,-2.0308 l -49.3771,-44.4621 c -0.5903,-0.5315 -1.4994,-0.4839 -2.0309,0.1064 -0.5315,0.5903 -0.4839,1.4993 0.1064,2.0309 z" clip-path="url(#57721630781-clipPath1)" id="path68" ns1:connector-curvature="0" style="stroke:none" />
    </g>
    <g id="g70" style="text-rendering:geometricPrecision;fill:#f5d0fe;stroke:none">
      <path d="m 641.2037,385.6292 c -0.7555,0.2454 -1.1688,1.0564 -0.9234,1.8119 0.2455,0.7555 1.0565,1.1688 1.812,0.9234 l 47.2866,-15.3605 c 0.7555,-0.2454 1.1688,-1.0564 0.9233,-1.8119 -0.2453,-0.7555 -1.0564,-1.1688 -1.8118,-0.9234 z m -4.2453,13.979 c -0.7555,0.2454 -1.1688,1.0565 -0.9234,1.812 0.2455,0.7555 1.0565,1.1688 1.812,0.9234 l 63.1823,-20.5241 c 0.7555,-0.2454 1.1688,-1.0564 0.9234,-1.8119 -0.2454,-0.7555 -1.0565,-1.1689 -1.812,-0.9234 z" clip-path="url(#57721630781-clipPath1)" id="path72" ns1:connector-curvature="0" style="stroke:none" />
    </g>
    <g id="g74" style="text-rendering:geometricPrecision;fill:#f5d0fe;stroke:none">
      <path d="m 701.9916,380.7509 13.8166,-64.9867 c 0.1652,-0.777 -0.3305,-1.5404 -1.1075,-1.7056 -0.777,-0.1653 -1.5404,0.3305 -1.7056,1.1075 l -13.8166,64.9867 c -0.1653,0.777 0.3305,1.5404 1.1075,1.7056 0.777,0.1652 1.5404,-0.3305 1.7056,-1.1075 z" clip-path="url(#57721630781-clipPath1)" id="path76" ns1:connector-curvature="0" style="stroke:none" />
    </g>
    <g id="g78" style="text-rendering:geometricPrecision;fill:#f5d0fe;stroke:none">
      <path d="m 699.2103,319.847 c 0.5903,0.5316 1.4994,0.484 2.0309,-0.1063 0.5315,-0.5903 0.4839,-1.4994 -0.1064,-2.0309 l -36.9566,-33.278 c -0.5904,-0.5315 -1.4994,-0.4839 -2.0309,0.1064 -0.5316,0.5903 -0.484,1.4993 0.1064,2.0309 z m 14.2291,-3.3132 c 0.5903,0.5315 1.4993,0.4839 2.0309,-0.1064 0.5315,-0.5903 0.4839,-1.4994 -0.1064,-2.0309 l -49.3771,-44.4621 c -0.5903,-0.5315 -1.4993,-0.4839 -2.0309,0.1064 -0.5315,0.5903 -0.4839,1.4994 0.1064,2.0309 z" clip-path="url(#57721630781-clipPath1)" id="path80" ns1:connector-curvature="0" style="stroke:none" />
    </g>
    <g id="g82" style="text-rendering:geometricPrecision;fill:#f5d0fe;stroke:none">
      <path d="m 613.2278,302.4978 c 0.1651,-0.7769 -0.3306,-1.5404 -1.1076,-1.7055 -0.7771,-0.1652 -1.5404,0.3306 -1.7056,1.1076 l -10.3365,48.6325 c -0.1651,0.777 0.3306,1.5404 1.1076,1.7056 0.777,0.1651 1.5404,-0.3306 1.7056,-1.1076 z m -9.9844,-10.6657 c 0.1652,-0.777 -0.3306,-1.5404 -1.1076,-1.7056 -0.777,-0.1651 -1.5404,0.3307 -1.7056,1.1077 l -13.8112,64.9807 c -0.1651,0.777 0.3306,1.5404 1.1077,1.7055 0.777,0.1652 1.5404,-0.3306 1.7055,-1.1076 z" clip-path="url(#57721630781-clipPath1)" id="path84" ns1:connector-curvature="0" style="stroke:none" />
    </g>
    <g id="g86" style="text-rendering:geometricPrecision;fill:#f5d0fe;stroke:none">
      <path d="m 664.5802,269.6354 -63.1877,20.5301 c -0.7555,0.2454 -1.1687,1.0565 -0.9233,1.812 0.2455,0.7555 1.0565,1.1687 1.812,0.9233 l 63.1877,-20.5301 c 0.7555,-0.2454 1.1687,-1.0565 0.9233,-1.812 -0.2455,-0.7554 -1.0565,-1.1687 -1.812,-0.9233 z" clip-path="url(#57721630781-clipPath1)" id="path88" ns1:connector-curvature="0" style="stroke:none" />
    </g>
    <g id="g90" style="text-rendering:geometricPrecision;fill:#f5d0fe;stroke:none">
      <path d="m 426.4088,261.7686 25.1463,43.5669 c 0.3971,0.6879 1.2763,0.9237 1.9643,0.5266 0.688,-0.3971 0.9237,-1.2764 0.5266,-1.9643 l -25.1463,-43.5669 c -0.397,-0.688 -1.2763,-0.9237 -1.9643,-0.5266 -0.6879,0.3971 -0.9237,1.2763 -0.5266,1.9643 z" clip-path="url(#57721630781-clipPath1)" id="path92" ns1:connector-curvature="0" style="stroke:none" />
      <path d="m 426.4088,261.7686 25.1463,43.5669 c 0.3971,0.6879 1.2763,0.9237 1.9643,0.5266 0.688,-0.3971 0.9237,-1.2764 0.5266,-1.9643 l -25.1463,-43.5669 c -0.397,-0.688 -1.2763,-0.9237 -1.9643,-0.5266 -0.6879,0.3971 -0.9237,1.2763 -0.5266,1.9643 z" clip-path="url(#57721630774-clipPath1)" id="path94" ns1:connector-curvature="0" style="fill:#c4b5fd;stroke:none" />
    </g>
    <g id="g96" style="text-rendering:geometricPrecision;fill:#f5d0fe;stroke:none">
      <path d="m 519.2458,188.1013 -66.4453,0 c -0.7943,0 -1.438,0.6437 -1.438,1.438 0,0.7944 0.6437,1.4381 1.438,1.4381 l 66.4453,0 c 0.7944,0 1.438,-0.6437 1.438,-1.4381 0,-0.7943 -0.6436,-1.438 -1.438,-1.438 z" clip-path="url(#57721630781-clipPath1)" id="path98" ns1:connector-curvature="0" style="stroke:none" />
    </g>
    <g id="g100" style="fill:#c4b5fd;stroke:none;text-rendering:geometricPrecision">
      <path d="m 451.5551,188.8205 -25.1463,43.5669 c -0.3971,0.6879 -0.1613,1.5672 0.5266,1.9643 0.688,0.397 1.5673,0.1613 1.9643,-0.5266 l 25.1463,-43.5669 c 0.3971,-0.688 0.1614,-1.5672 -0.5266,-1.9643 -0.688,-0.3971 -1.5672,-0.1614 -1.9643,0.5266 z" clip-path="url(#57721630781-clipPath1)" id="path102" ns1:connector-curvature="0" style="stroke:none" />
      <path d="m 451.5551,188.8205 -25.1463,43.5669 c -0.3971,0.6879 -0.1613,1.5672 0.5266,1.9643 0.688,0.397 1.5673,0.1613 1.9643,-0.5266 l 25.1463,-43.5669 c 0.3971,-0.688 0.1614,-1.5672 -0.5266,-1.9643 -0.688,-0.3971 -1.5672,-0.1614 -1.9643,0.5266 z" clip-path="url(#57721630940-clipPath1)" id="path104" ns1:connector-curvature="0" style="fill:#f5d0fe;stroke:none" />
    </g>
    <g id="g106" style="text-rendering:geometricPrecision;fill:#f5d0fe;stroke:none">
      <path d="m 407.2051,245.64 -54.0523,0 c -0.7944,0 -1.438,0.6436 -1.438,1.438 0,0.7943 0.6436,1.438 1.438,1.438 l 54.0523,0 c 0.7944,0 1.438,-0.6437 1.438,-1.438 0,-0.7944 -0.6436,-1.438 -1.438,-1.438 z" clip-path="url(#57721630781-clipPath1)" id="path108" ns1:connector-curvature="0" style="stroke:none" />
      <path d="m 407.2051,245.64 -54.0523,0 c -0.7944,0 -1.438,0.6436 -1.438,1.438 0,0.7943 0.6436,1.438 1.438,1.438 l 54.0523,0 c 0.7944,0 1.438,-0.6437 1.438,-1.438 0,-0.7944 -0.6436,-1.438 -1.438,-1.438 z" clip-path="url(#57721630724-clipPath1)" id="path110" ns1:connector-curvature="0" style="fill:#c4b5fd;stroke:none" />
    </g>
    <g id="g112" style="text-rendering:geometricPrecision;fill:#f5d0fe;stroke:none">
      <path d="m 354.3981,246.359 -33.2186,-57.5363 c -0.3971,-0.688 -1.2764,-0.9236 -1.9643,-0.5264 -0.6879,0.3972 -0.9235,1.2765 -0.5264,1.9644 l 33.2186,57.5363 c 0.3972,0.6879 1.2765,0.9235 1.9644,0.5263 0.6879,-0.3972 0.9235,-1.2764 0.5263,-1.9643 z" clip-path="url(#57721630781-clipPath1)" id="path114" ns1:connector-curvature="0" style="stroke:none" />
    </g>
    <g id="g116" style="text-rendering:geometricPrecision;fill:#f5d0fe;stroke:none">
      <path d="m 319.9342,188.1037 -66.4372,0 c -0.7944,0 -1.438,0.6436 -1.438,1.438 0,0.7943 0.6436,1.438 1.438,1.438 l 66.4372,0 c 0.7943,0 1.438,-0.6437 1.438,-1.438 0,-0.7944 -0.6437,-1.438 -1.438,-1.438 z" clip-path="url(#57721630781-clipPath1)" id="path118" ns1:connector-curvature="0" style="stroke:none" />
    </g>
    <g id="g120" style="text-rendering:geometricPrecision;fill:#f5d0fe;stroke:none">
      <path d="m 220.2802,130.5721 -66.4453,-0.002 c -0.7943,0 -1.438,0.6437 -1.438,1.438 -10e-5,0.7944 0.6436,1.4381 1.4379,1.4381 l 66.4453,0.002 c 0.7943,0 1.438,-0.6436 1.4381,-1.438 0,-0.7943 -0.6437,-1.438 -1.438,-1.438 z" clip-path="url(#57721630781-clipPath1)" id="path122" ns1:connector-curvature="0" style="stroke:none" />
    </g>
    <g id="g124" style="text-rendering:geometricPrecision;fill:#f5d0fe;stroke:none">
      <path d="m 161.2791,145.9563 c 0.3972,-0.6879 0.1617,-1.5672 -0.5262,-1.9644 -0.6879,-0.3972 -1.5672,-0.1617 -1.9644,0.5262 l -24.8626,43.056 c -0.3972,0.6879 -0.1617,1.5672 0.5262,1.9644 0.6879,0.3972 1.5672,0.1617 1.9644,-0.5262 z m -6.1989,-13.2291 c 0.3972,-0.6879 0.1617,-1.5672 -0.5262,-1.9644 -0.6879,-0.3973 -1.5672,-0.1617 -1.9644,0.5262 l -33.2204,57.5295 c -0.3972,0.688 -0.1617,1.5672 0.5262,1.9645 0.6879,0.3972 1.5672,0.1617 1.9644,-0.5263 z" clip-path="url(#57721630781-clipPath1)" id="path126" ns1:connector-curvature="0" style="stroke:none" />
    </g>
    <g id="g128" style="text-rendering:geometricPrecision;fill:#f5d0fe;stroke:none">
      <path d="m 119.3691,190.2566 33.2169,57.5396 c 0.3972,0.688 1.2764,0.9236 1.9644,0.5265 0.6879,-0.3972 0.9235,-1.2764 0.5264,-1.9644 l -33.2169,-57.5396 c -0.3971,-0.688 -1.2764,-0.9236 -1.9643,-0.5264 -0.688,0.3971 -0.9236,1.2763 -0.5265,1.9643 z" clip-path="url(#57721630781-clipPath1)" id="path130" ns1:connector-curvature="0" style="stroke:none" />
    </g>
    <g id="g132" style="text-rendering:geometricPrecision;fill:#f5d0fe;stroke:none">
      <path d="m 162.1887,233.6559 c -0.7944,0 -1.438,0.6436 -1.4381,1.438 0,0.7943 0.6437,1.438 1.438,1.4381 l 49.7315,10e-4 c 0.7943,0 1.438,-0.6437 1.438,-1.438 1e-4,-0.7944 -0.6436,-1.4381 -1.4379,-1.4381 z m -8.3573,11.9834 c -0.7943,-1e-4 -1.438,0.6436 -1.438,1.4379 0,0.7944 0.6436,1.4381 1.438,1.4381 l 66.4452,0.002 c 0.7944,0 1.438,-0.6436 1.4381,-1.438 0,-0.7943 -0.6437,-1.438 -1.438,-1.438 z" clip-path="url(#57721630781-clipPath1)" id="path134" ns1:connector-curvature="0" style="stroke:none" />
    </g>
    <g id="g136" style="text-rendering:geometricPrecision;fill:#f5d0fe;stroke:none">
      <path d="m 237.695,189.0153 c 0.3972,0.688 1.2765,0.9236 1.9644,0.5264 0.6879,-0.3972 0.9235,-1.2765 0.5263,-1.9644 l -24.8599,-43.0575 c -0.3972,-0.6879 -1.2765,-0.9235 -1.9644,-0.5263 -0.688,0.3972 -0.9235,1.2764 -0.5263,1.9644 z m 14.5566,1.2454 c 0.3972,0.6879 1.2765,0.9235 1.9644,0.5263 0.6879,-0.3972 0.9235,-1.2764 0.5263,-1.9644 L 221.5255,131.291 c -0.3972,-0.6879 -1.2765,-0.9235 -1.9644,-0.5263 -0.6879,0.3972 -0.9235,1.2765 -0.5263,1.9644 z" clip-path="url(#57721630781-clipPath1)" id="path138" ns1:connector-curvature="0" style="stroke:none" />
    </g>
    <g id="g140" style="text-rendering:geometricPrecision;fill:#f5d0fe;stroke:none">
      <path d="m 221.522,247.7983 33.2203,-57.5376 c 0.3972,-0.6879 0.1616,-1.5672 -0.5263,-1.9644 -0.6879,-0.3972 -1.5672,-0.1616 -1.9644,0.5263 l -33.2203,57.5377 c -0.3972,0.6879 -0.1616,1.5672 0.5263,1.9643 0.6879,0.3972 1.5672,0.1617 1.9644,-0.5263 z" clip-path="url(#57721630781-clipPath1)" id="path142" ns1:connector-curvature="0" style="stroke:none" />
    </g>
    <g id="g144" style="text-rendering:geometricPrecision;fill:#f5d0fe;stroke:none">
      <path d="m 553.3693,248.1955 51.6318,-41.8098 c 0.6174,-0.4999 0.7125,-1.4052 0.2126,-2.0225 -0.4999,-0.6174 -1.4052,-0.7125 -2.0225,-0.2126 l -51.6318,41.8098 c -0.6173,0.4999 -0.7125,1.4052 -0.2126,2.0225 0.4999,0.6174 1.4052,0.7125 2.0225,0.2126 z" clip-path="url(#57721630781-clipPath1)" id="path146" ns1:connector-curvature="0" style="stroke:none" />
    </g>
    <g id="g148" style="fill:#fda4af;stroke:none;text-rendering:geometricPrecision">
      <path d="m 603.5808,206.6106 48.0295,18.4373 c 0.7416,0.2847 1.5732,-0.0855 1.8578,-0.8271 0.2848,-0.7416 -0.0855,-1.5732 -0.8271,-1.8579 l -48.0295,-18.4373 c -0.7416,-0.2846 -1.5732,0.0856 -1.8578,0.8272 -0.2848,0.7416 0.0855,1.5732 0.8271,1.8578 z" clip-path="url(#57721630781-clipPath1)" id="path150" ns1:connector-curvature="0" style="stroke:none" />
      <path d="m 603.5808,206.6106 48.0295,18.4373 c 0.7416,0.2847 1.5732,-0.0855 1.8578,-0.8271 0.2848,-0.7416 -0.0855,-1.5732 -0.8271,-1.8579 l -48.0295,-18.4373 c -0.7416,-0.2846 -1.5732,0.0856 -1.8578,0.8272 -0.2848,0.7416 0.0855,1.5732 0.8271,1.8578 z" clip-path="url(#5772163062-clipPath1)" id="path152" ns1:connector-curvature="0" style="fill:#f5d0fe;stroke:none" />
    </g>
    <g id="g154" style="text-rendering:geometricPrecision;fill:#f5d0fe;stroke:none">
      <path d="m 679.5972,220.0149 39.0599,-31.6295 c 0.6174,-0.4999 0.7125,-1.4052 0.2127,-2.0225 -0.5,-0.6174 -1.4053,-0.7125 -2.0226,-0.2126 l -39.0598,31.6295 c -0.6174,0.4998 -0.7126,1.4052 -0.2127,2.0225 0.4999,0.6173 1.4052,0.7125 2.0225,0.2126 z" clip-path="url(#57721630781-clipPath1)" id="path156" ns1:connector-curvature="0" style="stroke:none" />
      <path d="m 679.5972,220.0149 39.0599,-31.6295 c 0.6174,-0.4999 0.7125,-1.4052 0.2127,-2.0225 -0.5,-0.6174 -1.4053,-0.7125 -2.0226,-0.2126 l -39.0598,31.6295 c -0.6174,0.4998 -0.7126,1.4052 -0.2127,2.0225 0.4999,0.6173 1.4052,0.7125 2.0225,0.2126 z" clip-path="url(#5772163078-clipPath1)" id="path158" ns1:connector-curvature="0" style="fill:#fda4af;stroke:none" />
    </g>
    <g id="g160" style="fill:#fda4af;stroke:none;text-rendering:geometricPrecision">
      <path d="m 597.2989,209.8471 c 0.1243,0.7846 0.8607,1.3197 1.6453,1.1954 0.7846,-0.1242 1.3196,-0.8607 1.1953,-1.6453 l -8.1958,-51.7493 c -0.1242,-0.7846 -0.8607,-1.3197 -1.6452,-1.1954 -0.7846,0.1243 -1.3197,0.8607 -1.1954,1.6453 z m 11.8361,-1.8745 c 0.1243,0.7846 0.8607,1.3196 1.6453,1.1954 0.7845,-0.1243 1.3196,-0.8607 1.1953,-1.6453 l -8.1958,-51.7494 c -0.1242,-0.7845 -0.8607,-1.3196 -1.6453,-1.1953 -0.7845,0.1242 -1.3196,0.8606 -1.1954,1.6452 z" clip-path="url(#57721630781-clipPath1)" id="path162" ns1:connector-curvature="0" style="stroke:none" />
      <path d="m 597.2989,209.8471 c 0.1243,0.7846 0.8607,1.3197 1.6453,1.1954 0.7846,-0.1242 1.3196,-0.8607 1.1953,-1.6453 l -8.1958,-51.7493 c -0.1242,-0.7846 -0.8607,-1.3197 -1.6452,-1.1954 -0.7846,0.1243 -1.3197,0.8607 -1.1954,1.6453 z m 11.8361,-1.8745 c 0.1243,0.7846 0.8607,1.3196 1.6453,1.1954 0.7845,-0.1243 1.3196,-0.8607 1.1953,-1.6453 l -8.1958,-51.7494 c -0.1242,-0.7845 -0.8607,-1.3196 -1.6453,-1.1953 -0.7845,0.1242 -1.3196,0.8606 -1.1954,1.6452 z" clip-path="url(#57721630950-clipPath1)" id="path164" ns1:connector-curvature="0" style="fill:#f5d0fe;stroke:none" />
    </g>
    <g id="g166" style="text-rendering:geometricPrecision;fill:#f5d0fe;stroke:none">
      <path d="m 717.2368,188.6103 56.6543,21.7481 c 0.7415,0.2847 1.5731,-0.0855 1.8578,-0.8271 0.2847,-0.7416 -0.0856,-1.5732 -0.8271,-1.8579 l -56.6543,-21.7481 c -0.7416,-0.2847 -1.5732,0.0856 -1.8578,0.8272 -0.2847,0.7416 0.0855,1.5731 0.8271,1.8578 z" clip-path="url(#57721630781-clipPath1)" id="path168" ns1:connector-curvature="0" style="stroke:none" />
    </g>
    <g id="g170" style="fill:#c4b5fd;stroke:none;text-rendering:geometricPrecision">
      <path d="m 120.6146,188.0996 -54.0522,-0.003 c -0.7943,0 -1.438,0.6436 -1.4381,1.438 0,0.7943 0.6436,1.438 1.4379,1.4381 l 54.0523,0.003 c 0.7943,0 1.438,-0.6436 1.4381,-1.438 0,-0.7943 -0.6436,-1.438 -1.438,-1.4381 z" clip-path="url(#57721630781-clipPath1)" id="path172" ns1:connector-curvature="0" style="stroke:none" />
      <path d="m 120.6146,188.0996 -54.0522,-0.003 c -0.7943,0 -1.438,0.6436 -1.4381,1.438 0,0.7943 0.6436,1.438 1.4379,1.4381 l 54.0523,0.003 c 0.7943,0 1.438,-0.6436 1.4381,-1.438 0,-0.7943 -0.6436,-1.438 -1.438,-1.4381 z" clip-path="url(#57721630478-clipPath1)" id="path174" ns1:connector-curvature="0" style="fill:#f5d0fe;stroke:none" />
    </g>
    <g id="g176" style="fill:#eef2ff;stroke:none;text-rendering:geometricPrecision">
      </g>
    <g font-size="23px" transform="translate(410.9572,233.578)" id="g180" style="font-size:23px;font-family:sans-serif;fill:#c4b5fd;stroke:none;text-rendering:geometricPrecision">
      <text x="0" xml:space="preserve" y="22" clip-path="url(#57721630641-clipPath1)" id="text182" style="stroke:none">N</text>
    </g>
    <g font-size="23px" id="g184" style="font-size:23px;font-family:sans-serif;fill:#eef2ff;stroke:none;text-rendering:geometricPrecision">
      <text x="0" y="22" transform="translate(584.5943,126.1488)" clip-path="url(#57721630838-clipPath1)" xml:space="preserve" id="text188" style="fill:#fda4af;stroke:none">O</text>
    </g>
    <g font-size="23px" id="g190" style="font-size:23px;font-family:sans-serif;fill:#eef2ff;stroke:none;text-rendering:geometricPrecision">
      <text x="0" y="22" transform="translate(657.011,215.5776)" clip-path="url(#57721630918-clipPath1)" xml:space="preserve" id="text194" style="fill:#fda4af;stroke:none">O</text>
    </g>
    <g font-size="23px" id="g196" style="font-size:23px;font-family:sans-serif;fill:#eef2ff;stroke:none;text-rendering:geometricPrecision">
      <text x="0" y="22" transform="translate(21.9664,176.0336)" clip-path="url(#57721630623-clipPath1)" xml:space="preserve" id="text200" style="fill:#c4b5fd;stroke:none">H</text>
    </g>
    <g font-size="18px" transform="translate(36.6383,187.9262)" id="g202" style="font-size:18px;font-family:sans-serif;fill:#c4b5fd;stroke:none;text-rendering:geometricPrecision">
      <text x="0" xml:space="preserve" y="18" clip-path="url(#57721630142-clipPath1)" id="text204" style="stroke:none">2</text>
    </g>
    <g font-size="23px" transform="translate(45.5445,176.0336)" id="g206" style="font-size:23px;font-family:sans-serif;fill:#c4b5fd;stroke:none;text-rendering:geometricPrecision">
      <text x="0" xml:space="preserve" y="22" clip-path="url(#57721630428-clipPath1)" id="text208" style="stroke:none">N</text>
    </g>
  </g>
</svg>