<?xml version='1.0' encoding='utf-8'?>
<svg xmlns="http://www.w3.org/2000/svg" xmlns:dc="http://purl.org/dc/elements/1.1/" xmlns:ns1="http://www.inkscape.org/namespaces/inkscape" xmlns:ns2="http://sodipodi.sourceforge.net/DTD/sodipodi-0.dtd" xmlns:ns4="http://creativecommons.org/ns#" xmlns:rdf="http://www.w3.org/1999/02/22-rdf-syntax-ns#" width="544.64172" stroke-miterlimit="10" font-weight="normal" height="521.39252" font-style="normal" font-size="12px" id="svg2" version="1.1" ns1:version="0.91 r13725" ns2:docname="Benzomorphan.svg" style="font-style:normal;font-weight:normal;font-size:12px;font-family:Dialog;color-interpolation:auto;fill:#f0abfc;fill-opacity:1;stroke:none;stroke:none;stroke:none;stroke:none;stroke:none;stroke:none;stroke:none;stroke:none;color-rendering:auto;image-rendering:auto;shape-rendering:auto;text-rendering:auto">
  <metadata id="metadata97">
    <rdf:RDF>
      <ns4:Work rdf:about="">
        <dc:format>image/svg+xml</dc:format>
        <dc:type rdf:resource="http://purl.org/dc/dcmitype/StillImage" />
        <dc:title />
      </ns4:Work>
    </rdf:RDF>
  </metadata>
  <ns2:namedview pagecolor="#eef2ff" bordercolor="#666666" borderopacity="1" objecttolerance="10" gridtolerance="10" guidetolerance="10" ns1:pageopacity="0" ns1:pageshadow="2" ns1:window-width="1060" ns1:window-height="480" id="namedview95" showgrid="false" fit-margin-top="10" fit-margin-left="10" fit-margin-right="10" fit-margin-bottom="10" ns1:zoom="0.36375" ns1:cx="391.25791" ns1:cy="260.9054" ns1:window-x="0" ns1:window-y="0" ns1:window-maximized="0" ns1:current-layer="svg2" />
  
  <defs id="genericDefs" />
  <g id="g5" transform="translate(-128.32972,-39.512912)" style="fill:#f0abfc;stroke:none">
    <defs id="1575642271198-defs1">
      <clipPath clipPathUnits="userSpaceOnUse" id="1575642271289-clipPath1">
        <path d="M 0,0 800,0 800,600 0,600 0,0 Z" id="path9" ns1:connector-curvature="0" style="stroke:none" />
      </clipPath>
      <clipPath clipPathUnits="userSpaceOnUse" id="1575642271575-clipPath1">
        <path d="m 513,382 q 11,11 0,22 l -136,0 q -11,-11 0,-22 z M 0,0 0,600 800,600 800,0 Z" id="path12" ns1:connector-curvature="0" style="stroke:none" />
      </clipPath>
      <clipPath clipPathUnits="userSpaceOnUse" id="15756422710-clipPath1">
        <path d="m 494.8613,407.2106 c -29.5573,0 -53.5183,23.961 -53.5183,53.5184 0,29.5573 23.961,53.5183 53.5183,53.5183 29.5574,0 53.5184,-23.961 53.5184,-53.5183 0,-29.5574 -23.961,-53.5184 -53.5184,-53.5184 z" id="path15" ns1:connector-curvature="0" style="stroke:none" />
      </clipPath>
      <clipPath clipPathUnits="userSpaceOnUse" id="1575642271171-clipPath1">
        <path d="m 593.1731,434.2895 c -37.4427,0 -67.796,30.3533 -67.796,67.796 0,37.4427 30.3533,67.796 67.796,67.796 37.4427,0 67.796,-30.3533 67.796,-67.796 0,-37.4427 -30.3533,-67.796 -67.796,-67.796 z" id="path18" ns1:connector-curvature="0" style="stroke:none" />
      </clipPath>
      <clipPath clipPathUnits="userSpaceOnUse" id="1575642271738-clipPath1">
        <path d="m -595.6824,-500.2765 800,0 0,600 -800,0 0,-600 z" id="path21" ns1:connector-curvature="0" style="stroke:none" />
      </clipPath>
    </defs>
    <g id="g23" style="text-rendering:geometricPrecision;fill:#f0abfc;stroke:none">
      <path d="m 348.4283,135.7428 c 1.4092,0.8135 3.2102,0.3308 4.0237,-1.0784 0.8135,-1.4092 0.3308,-3.2102 -1.0784,-4.0237 L 263.1734,79.7244 c -1.4091,-0.8135 -3.2102,-0.3308 -4.0237,1.0784 -0.8135,1.4091 -0.3308,3.2102 1.0784,4.0236 z m 27.0973,-12.7005 c 1.4092,0.8135 3.2102,0.3308 4.0237,-1.0783 0.8135,-1.4092 0.3308,-3.2102 -1.0784,-4.0237 L 260.6216,49.9081 c -1.4092,-0.8135 -3.2103,-0.3308 -4.0237,1.0783 -0.8135,1.4092 -0.3308,3.2102 1.0783,4.0237 z" clip-path="url(#1575642271289-clipPath1)" id="path25" ns1:connector-curvature="0" style="stroke:none" />
    </g>
    <g id="g27" style="text-rendering:geometricPrecision;fill:#f0abfc;stroke:none">
      <path d="m 257.6761,49.9082 -117.8684,68.0527 c -1.4091,0.8135 -1.8917,2.6146 -1.0781,4.0237 0.8136,1.4091 2.6146,1.8917 4.0238,1.0781 L 260.6217,55.01 c 1.4091,-0.8136 1.8917,-2.6146 1.0781,-4.0237 -0.8136,-1.4091 -2.6146,-1.8917 -4.0237,-1.0781 z" clip-path="url(#1575642271289-clipPath1)" id="path29" ns1:connector-curvature="0" style="stroke:none" />
    </g>
    <g id="g31" style="text-rendering:geometricPrecision;fill:#f0abfc;stroke:none">
      <path d="m 168.7722,137.6296 c 0,-1.6271 -1.3184,-2.9456 -2.9455,-2.9457 -1.6271,0 -2.9456,1.3184 -2.9456,2.9455 l -0.004,101.8418 c -1e-4,1.6271 1.3183,2.9456 2.9454,2.9457 1.6272,0 2.9457,-1.3184 2.9457,-2.9455 z m -24.5461,-17.1177 c 1e-4,-1.6271 -1.3183,-2.9456 -2.9454,-2.9457 -1.6272,0 -2.9457,1.3184 -2.9457,2.9455 l -0.005,136.0766 c 0,1.6272 1.3184,2.9457 2.9455,2.9457 1.6271,1e-4 2.9456,-1.3183 2.9457,-2.9454 z" clip-path="url(#1575642271289-clipPath1)" id="path33" ns1:connector-curvature="0" style="stroke:none" />
    </g>
    <g id="g35" style="text-rendering:geometricPrecision;fill:#f0abfc;stroke:none">
      <path d="m 139.8031,259.1394 117.8576,68.0465 c 1.4092,0.8136 3.2102,0.331 4.0238,-1.0781 0.8135,-1.4091 0.331,-3.2102 -1.0781,-4.0238 L 142.7487,254.0375 c -1.4091,-0.8135 -3.2102,-0.331 -4.0237,1.0782 -0.8136,1.4091 -0.331,3.2101 1.0781,4.0237 z" clip-path="url(#1575642271289-clipPath1)" id="path37" ns1:connector-curvature="0" style="stroke:none" />
    </g>
    <g id="g39" style="text-rendering:geometricPrecision;fill:#f0abfc;stroke:none">
      <path d="m 260.2116,292.2671 c -1.4091,0.8135 -1.8916,2.6146 -1.0781,4.0237 0.8136,1.4091 2.6146,1.8917 4.0238,1.0781 l 88.2194,-50.9345 c 1.4091,-0.8136 1.8917,-2.6147 1.0781,-4.0238 -0.8135,-1.4091 -2.6146,-1.8917 -4.0237,-1.0781 z m -2.5509,29.8169 c -1.4091,0.8136 -1.8917,2.6147 -1.0781,4.0238 0.8136,1.4091 2.6146,1.8917 4.0238,1.0781 l 117.8683,-68.0527 c 1.4091,-0.8136 1.8917,-2.6146 1.0781,-4.0237 -0.8136,-1.4091 -2.6146,-1.8917 -4.0237,-1.0781 z" clip-path="url(#1575642271289-clipPath1)" id="path41" ns1:connector-curvature="0" style="stroke:none" />
    </g>
    <g id="g43" style="text-rendering:geometricPrecision;fill:#f0abfc;stroke:none">
      <path d="m 379.9474,256.5822 -0.004,-136.091 c 0,-1.6271 -1.3185,-2.9455 -2.9456,-2.9455 -1.6271,1e-4 -2.9456,1.3186 -2.9455,2.9457 l 0.004,136.091 c 0,1.6271 1.3185,2.9455 2.9456,2.9455 1.6272,-10e-5 2.9456,-1.3186 2.9455,-2.9457 z" clip-path="url(#1575642271289-clipPath1)" id="path45" ns1:connector-curvature="0" style="stroke:none" />
    </g>
    <g id="g47" style="text-rendering:geometricPrecision;fill:#f0abfc;stroke:none">
      <path d="m 257.6701,463.2864 117.8612,68.0238 c 1.4093,0.8133 3.2102,0.3305 4.0236,-1.0788 0.8133,-1.4093 0.3304,-3.2102 -1.0788,-4.0236 L 260.6149,458.1841 c -1.4093,-0.8134 -3.2102,-0.3306 -4.0236,1.0787 -0.8133,1.4093 -0.3305,3.2102 1.0788,4.0236 z" clip-path="url(#1575642271289-clipPath1)" id="path49" ns1:connector-curvature="0" style="stroke:none" />
    </g>
    <g id="g51" style="text-rendering:geometricPrecision;fill:#f0abfc;stroke:none">
      <path d="m 378.4762,531.3101 117.8577,-68.03 c 1.4092,-0.8135 1.8919,-2.6145 1.0785,-4.0237 -0.8134,-1.4092 -2.6144,-1.8919 -4.0236,-1.0785 l -117.8576,68.03 c -1.4093,0.8135 -1.892,2.6144 -1.0786,4.0237 0.8135,1.4091 2.6144,1.8919 4.0236,1.0785 z" clip-path="url(#1575642271289-clipPath1)" id="path53" ns1:connector-curvature="0" style="stroke:none" />
    </g>
    <g id="g55" style="text-rendering:geometricPrecision;fill:#f0abfc;stroke:none">
      <path d="m 497.8069,460.7289 -0.004,-136.1033 c 0,-1.6271 -1.3185,-2.9455 -2.9456,-2.9455 -1.6272,0 -2.9456,1.3185 -2.9455,2.9456 l 0.004,136.1034 c 0,1.6271 1.3185,2.9455 2.9456,2.9455 1.6271,-10e-5 2.9455,-1.3186 2.9455,-2.9457 z" clip-path="url(#1575642271575-clipPath1)" id="path57" ns1:connector-curvature="0" style="stroke:none" />
    </g>
    <g id="g59" style="text-rendering:geometricPrecision;fill:#f0abfc;stroke:none">
      <path d="m 256.188,324.6352 0.009,136.1002 c 10e-5,1.6271 1.3186,2.9455 2.9458,2.9454 1.6271,-10e-5 2.9455,-1.3187 2.9453,-2.9458 l -0.009,-136.1002 c -10e-5,-1.6271 -1.3186,-2.9455 -2.9458,-2.9454 -1.6271,1e-4 -2.9454,1.3187 -2.9453,2.9458 z" clip-path="url(#1575642271289-clipPath1)" id="path61" ns1:connector-curvature="0" style="stroke:none" />
    </g>
    <g id="g63" style="text-rendering:geometricPrecision;fill:#f0abfc;stroke:none">
      <path d="m 375.5291,259.1332 117.8558,68.0434 c 1.4092,0.8136 3.2102,0.331 4.0238,-1.0782 0.8135,-1.4091 0.331,-3.2101 -1.0782,-4.0237 L 378.4746,254.0313 c -1.4091,-0.8135 -3.2101,-0.3309 -4.0237,1.0782 -0.8135,1.4091 -0.3309,3.2102 1.0782,4.0237 z" clip-path="url(#1575642271289-clipPath1)" id="path65" ns1:connector-curvature="0" style="stroke:none" />
    </g>
    <g id="g67" style="text-rendering:geometricPrecision;fill:#f0abfc;stroke:none">
      <path d="m 259.1425,460.7352 1.473,2.5508 158.2881,-73.5524 -36.8132,0 -36.8131,0 -87.6079,68.4508 z" clip-path="url(#1575642271289-clipPath1)" id="path69" ns1:connector-curvature="0" style="stroke:none" />
    </g>
    <g id="g71" style="text-rendering:geometricPrecision;fill:#f0abfc;stroke:none">
      <path d="m 376.9898,395.6247 136.0869,0 c 1.627,0 2.9455,-1.3184 2.9455,-2.9456 0,-1.6271 -1.3185,-2.9455 -2.9455,-2.9455 l -136.0869,0 c -1.6271,0 -2.9455,1.3184 -2.9455,2.9455 0,1.6272 1.3184,2.9456 2.9455,2.9456 z" clip-path="url(#1575642271289-clipPath1)" id="path73" ns1:connector-curvature="0" style="stroke:none" />
    </g>
    <g id="g75" style="fill:#c4b5fd;stroke:none;text-rendering:geometricPrecision">
      <path d="m 493.3885,463.2799 92.6946,53.5216 c 1.4091,0.8136 3.2102,0.3311 4.0238,-1.0781 0.8136,-1.4091 0.331,-3.2101 -1.078,-4.0237 l -92.6947,-53.5216 c -1.4091,-0.8136 -3.2101,-0.3311 -4.0237,1.078 -0.8137,1.4091 -0.3311,3.2102 1.078,4.0238 z" clip-path="url(#1575642271289-clipPath1)" id="path77" ns1:connector-curvature="0" style="stroke:none" />
      <path d="m 493.3885,463.2799 92.6946,53.5216 c 1.4091,0.8136 3.2102,0.3311 4.0238,-1.0781 0.8136,-1.4091 0.331,-3.2101 -1.078,-4.0237 l -92.6947,-53.5216 c -1.4091,-0.8136 -3.2101,-0.3311 -4.0237,1.078 -0.8137,1.4091 -0.3311,3.2102 1.078,4.0238 z" clip-path="url(#15756422710-clipPath1)" id="path79" ns1:connector-curvature="0" style="fill:#f0abfc;stroke:none" />
    </g>
    <g id="g81" style="text-rendering:geometricPrecision;fill:#f0abfc;stroke:none">
      <path d="m 593.1731,502.0855 2.3767,-1.74 -61.8133,-110.6119 -22.8163,0 -22.8163,0 102.6925,114.0919 z" clip-path="url(#1575642271289-clipPath1)" id="path83" ns1:connector-curvature="0" style="stroke:none" />
      <path d="m 593.1731,502.0855 2.3767,-1.74 -61.8133,-110.6119 -22.8163,0 -22.8163,0 102.6925,114.0919 z" clip-path="url(#1575642271171-clipPath1)" id="path85" ns1:connector-curvature="0" style="fill:#c4b5fd;stroke:none" />
    </g>
    <g id="g87" style="fill:#eef2ff;stroke:none;text-rendering:geometricPrecision">
      </g>
    <g font-size="48px" transform="translate(595.6824,500.2765)" id="g91" style="font-size:48px;font-family:sans-serif;fill:#c4b5fd;stroke:none;text-rendering:geometricPrecision">
      <text x="0" xml:space="preserve" y="46" clip-path="url(#1575642271738-clipPath1)" id="text93" style="stroke:none">NH</text>
    </g>
  </g>
</svg>