<?xml version='1.0' encoding='utf-8'?>
<svg xmlns="http://www.w3.org/2000/svg" xmlns:dc="http://purl.org/dc/elements/1.1/" xmlns:ns1="http://www.inkscape.org/namespaces/inkscape" xmlns:ns2="http://sodipodi.sourceforge.net/DTD/sodipodi-0.dtd" xmlns:ns4="http://creativecommons.org/ns#" xmlns:rdf="http://www.w3.org/1999/02/22-rdf-syntax-ns#" width="693.70569" stroke-miterlimit="10" font-weight="normal" height="379.61917" font-style="normal" font-size="12px" id="svg2" version="1.1" ns1:version="0.91 r13725" ns2:docname="Butinazocine.svg" style="font-style:normal;font-weight:normal;font-size:12px;font-family:Dialog;color-interpolation:auto;fill:#000000;fill-opacity:1;stroke:none;stroke:none;stroke:none;stroke:none;stroke:none;stroke:none;stroke:none;stroke:none;color-rendering:auto;image-rendering:auto;shape-rendering:auto;text-rendering:auto">
  <metadata id="metadata162">
    <rdf:RDF>
      <ns4:Work rdf:about="">
        <dc:format>image/svg+xml</dc:format>
        <dc:type rdf:resource="http://purl.org/dc/dcmitype/StillImage" />
        <dc:title />
      </ns4:Work>
    </rdf:RDF>
  </metadata>
  <ns2:namedview pagecolor="#ffffff" bordercolor="#666666" borderopacity="1" objecttolerance="10" gridtolerance="10" guidetolerance="10" ns1:pageopacity="0" ns1:pageshadow="2" ns1:window-width="1060" ns1:window-height="480" id="namedview160" showgrid="false" fit-margin-top="10" fit-margin-left="10" fit-margin-right="10" fit-margin-bottom="10" ns1:zoom="0.36375" ns1:cx="466.54803" ns1:cy="99.129568" ns1:window-x="0" ns1:window-y="0" ns1:window-maximized="0" ns1:current-layer="svg2" />
  
  <defs id="genericDefs" />
  <g id="g5" transform="translate(-53.0396,-19.5104)" style="fill:#000000;stroke:none">
    <defs id="1031569911101-defs1">
      <clipPath clipPathUnits="userSpaceOnUse" id="1031569911879-clipPath1">
        <path d="M 0,0 800,0 800,600 0,600 0,0 Z" id="path9" ns1:connector-curvature="0" style="stroke:none" />
      </clipPath>
      <clipPath clipPathUnits="userSpaceOnUse" id="1031569911505-clipPath1">
        <path d="m 383,241 q 7,6 0,13 l -82,0 q -6,-7 0,-13 z M 0,0 0,600 800,600 800,0 Z" id="path12" ns1:connector-curvature="0" style="stroke:none" />
      </clipPath>
      <clipPath clipPathUnits="userSpaceOnUse" id="1031569911943-clipPath1">
        <path d="m 372.1331,256.1534 c -17.8094,0 -32.2467,14.4374 -32.2467,32.2468 0,17.8094 14.4373,32.2467 32.2467,32.2467 17.8094,0 32.2468,-14.4373 32.2468,-32.2467 0,-17.8094 -14.4374,-32.2468 -32.2468,-32.2468 z" id="path15" ns1:connector-curvature="0" style="stroke:none" />
      </clipPath>
      <clipPath clipPathUnits="userSpaceOnUse" id="1031569911295-clipPath1">
        <path d="m 431.3464,272.5708 c -22.5622,0 -40.8525,18.2903 -40.8525,40.8525 0,22.5623 18.2903,40.8526 40.8525,40.8526 22.5623,0 40.8526,-18.2903 40.8526,-40.8526 0,-22.5622 -18.2903,-40.8525 -40.8526,-40.8525 z" id="path18" ns1:connector-curvature="0" style="stroke:none" />
      </clipPath>
      <clipPath clipPathUnits="userSpaceOnUse" id="1031569911546-clipPath1">
        <path d="m 458.2604,291.447 c -18.146,0 -32.8562,14.7103 -32.8562,32.8563 0,18.1459 14.7102,32.8562 32.8562,32.8562 18.146,0 32.8563,-14.7103 32.8563,-32.8562 0,-18.146 -14.7103,-32.8563 -32.8563,-32.8563 z" id="path21" ns1:connector-curvature="0" style="stroke:none" />
      </clipPath>
      <clipPath clipPathUnits="userSpaceOnUse" id="1031569911998-clipPath1">
        <path d="m 159.605,54.4012 c -16.2942,0 -29.5033,13.2091 -29.5033,29.5034 0,16.2942 13.2091,29.5033 29.5033,29.5033 16.2942,0 29.5033,-13.2091 29.5033,-29.5033 0,-16.2943 -13.2091,-29.5034 -29.5033,-29.5034 z" id="path24" ns1:connector-curvature="0" style="stroke:none" />
      </clipPath>
      <clipPath clipPathUnits="userSpaceOnUse" id="1031569911456-clipPath1">
        <path d="m 230.4487,258.7982 c -16.3508,0 -29.6057,13.255 -29.6057,29.6057 0,16.3508 13.2549,29.6057 29.6057,29.6057 16.3508,0 29.6057,-13.2549 29.6057,-29.6057 0,-16.3507 -13.2549,-29.6057 -29.6057,-29.6057 z" id="path27" ns1:connector-curvature="0" style="stroke:none" />
      </clipPath>
      <clipPath clipPathUnits="userSpaceOnUse" id="1031569911747-clipPath1">
        <path d="m -432.4632,-311.8018 800,0 0,600 -800,0 0,-600 z" id="path30" ns1:connector-curvature="0" style="stroke:none" />
      </clipPath>
      <clipPath clipPathUnits="userSpaceOnUse" id="1031569911734-clipPath1">
        <path d="m -60.5396,-25.5046 800,0 0,600 -800,0 0,-600 z" id="path33" ns1:connector-curvature="0" style="stroke:none" />
      </clipPath>
      <clipPath clipPathUnits="userSpaceOnUse" id="1031569911313-clipPath1">
        <path d="m -131.3872,-311.8106 800,0 0,600 -800,0 0,-600 z" id="path36" ns1:connector-curvature="0" style="stroke:none" />
      </clipPath>
    </defs>
    <g id="g38" style="text-rendering:geometricPrecision;fill:#000000;stroke:none">
      <path d="m 284.1161,93.0595 c 0.847,0.489 1.9296,0.1988 2.4185,-0.6482 0.489,-0.847 0.1989,-1.9295 -0.6482,-2.4185 0,0 0,0 0,0 L 232.8716,59.3883 c 0,0 0,0 0,0 -0.847,-0.4889 -1.9296,-0.1988 -2.4185,0.6482 -0.489,0.847 -0.1989,1.9296 0.6482,2.4185 z m 16.2875,-7.6339 c 0.847,0.489 1.9295,0.1989 2.4185,-0.6482 0.4889,-0.847 0.1988,-1.9295 -0.6482,-2.4185 0,0 0,0 0,0 L 231.3377,41.4665 c 0,0 0,0 0,0 -0.847,-0.4889 -1.9295,-0.1988 -2.4185,0.6482 -0.4889,0.847 -0.1988,1.9296 0.6482,2.4185 0,0 0,0 0,0 l 70.8362,40.8924 c 0,0 0,0 0,0 z" clip-path="url(#1031569911879-clipPath1)" id="path40" ns1:connector-curvature="0" style="stroke:none" />
    </g>
    <g id="g42" style="text-rendering:geometricPrecision;fill:#000000;stroke:none">
      <path d="m 229.5673,41.4666 -70.8476,40.9047 c -0.8469,0.489 -1.137,1.5715 -0.648,2.4185 0.489,0.847 1.5716,1.1371 2.4186,0.6481 l 70.8475,-40.9047 c 0.847,-0.489 1.1371,-1.5716 0.6481,-2.4186 -0.4891,-0.847 -1.5716,-1.137 -2.4186,-0.648 z" clip-path="url(#1031569911879-clipPath1)" id="path44" ns1:connector-curvature="0" style="stroke:none" />
    </g>
    <g id="g46" style="text-rendering:geometricPrecision;fill:#000000;stroke:none">
      <path d="m 176.1295,94.1936 c 0,-0.978 -0.7924,-1.7705 -1.7704,-1.7705 -0.9781,-1e-4 -1.7706,0.7924 -1.7706,1.7704 0,0 0,0 0,0 l -0.002,61.2144 c 0,0 0,0 0,0 0,0.9781 0.7924,1.7706 1.7704,1.7706 0.9781,0 1.7706,-0.7924 1.7706,-1.7704 z m -14.754,-10.289 c 0,-0.978 -0.7924,-1.7705 -1.7704,-1.7705 -0.9781,-1e-4 -1.7706,0.7924 -1.7706,1.7704 0,0 0,0 0,0 l -0.003,81.7921 c 0,0 0,0 0,0 0,0.978 0.7924,1.7706 1.7704,1.7706 0.9781,0 1.7706,-0.7924 1.7706,-1.7705 0,0 0,0 0,0 l 0.003,-81.7921 c 0,0 0,0 0,0 z" clip-path="url(#1031569911879-clipPath1)" id="path48" ns1:connector-curvature="0" style="stroke:none" />
    </g>
    <g id="g50" style="text-rendering:geometricPrecision;fill:#000000;stroke:none">
      <path d="m 158.7169,167.23 70.8412,40.901 c 0.8469,0.489 1.9295,0.1989 2.4185,-0.6481 0.4891,-0.847 0.199,-1.9295 -0.648,-2.4185 l -70.8411,-40.901 c -0.847,-0.489 -1.9296,-0.199 -2.4186,0.648 -0.489,0.847 -0.199,1.9296 0.648,2.4186 z" clip-path="url(#1031569911879-clipPath1)" id="path52" ns1:connector-curvature="0" style="stroke:none" />
    </g>
    <g id="g54" style="text-rendering:geometricPrecision;fill:#000000;stroke:none">
      <path d="m 231.0914,187.1422 c -0.847,0.489 -1.1371,1.5715 -0.6481,2.4185 0.4891,0.847 1.5716,1.1371 2.4186,0.648 0,0 0,0 0,0 l 53.0264,-30.6154 c 0,0 0,0 0,0 0.847,-0.489 1.137,-1.5716 0.648,-2.4185 -0.489,-0.847 -1.5715,-1.1371 -2.4185,-0.6481 z m -1.5333,17.9222 c -0.847,0.489 -1.1371,1.5715 -0.6481,2.4185 0.4891,0.847 1.5716,1.1371 2.4186,0.6481 0,0 0,0 0,0 l 70.8475,-40.9047 c 0,0 0,0 0,0 0.847,-0.4891 1.1371,-1.5716 0.6481,-2.4186 -0.489,-0.847 -1.5716,-1.137 -2.4186,-0.648 0,0 0,0 0,0 l -70.8475,40.9047 c 0,0 0,0 0,0 z" clip-path="url(#1031569911879-clipPath1)" id="path56" ns1:connector-curvature="0" style="stroke:none" />
    </g>
    <g id="g58" style="text-rendering:geometricPrecision;fill:#000000;stroke:none">
      <path d="m 303.0614,165.6929 -0.002,-81.8007 c 0,-0.978 -0.7925,-1.7705 -1.7705,-1.7704 -0.978,0 -1.7705,0.7925 -1.7705,1.7705 l 0.002,81.8007 c 0,0.978 0.7925,1.7705 1.7706,1.7705 0.978,0 1.7704,-0.7926 1.7704,-1.7706 z" clip-path="url(#1031569911879-clipPath1)" id="path60" ns1:connector-curvature="0" style="stroke:none" />
    </g>
    <g id="g62" style="text-rendering:geometricPrecision;fill:#000000;stroke:none">
      <path d="m 229.5637,289.9374 70.8433,40.8873 c 0.847,0.4889 1.9295,0.1986 2.4184,-0.6484 0.4889,-0.8471 0.1987,-1.9296 -0.6484,-2.4185 l -70.8433,-40.8873 c -0.847,-0.4889 -1.9295,-0.1987 -2.4184,0.6484 -0.4889,0.8471 -0.1987,1.9296 0.6484,2.4185 z" clip-path="url(#1031569911879-clipPath1)" id="path64" ns1:connector-curvature="0" style="stroke:none" />
    </g>
    <g id="g66" style="text-rendering:geometricPrecision;fill:#000000;stroke:none">
      <path d="m 302.1771,330.8246 70.8411,-40.891 c 0.8471,-0.489 1.1373,-1.5715 0.6483,-2.4185 -0.4889,-0.847 -1.5714,-1.1372 -2.4185,-0.6483 l -70.8411,40.8911 c -0.8471,0.4889 -1.1372,1.5714 -0.6483,2.4185 0.4889,0.847 1.5715,1.1372 2.4185,0.6482 z" clip-path="url(#1031569911879-clipPath1)" id="path68" ns1:connector-curvature="0" style="stroke:none" />
    </g>
    <g id="g70" style="text-rendering:geometricPrecision;fill:#000000;stroke:none">
      <path d="m 373.9036,288.4001 -0.002,-81.8081 c 0,-0.978 -0.7926,-1.7705 -1.7706,-1.7705 -0.978,1e-4 -1.7705,0.7926 -1.7704,1.7706 l 0.002,81.8081 c 0,0.9781 0.7926,1.7705 1.7706,1.7705 0.978,0 1.7705,-0.7925 1.7704,-1.7706 z" clip-path="url(#1031569911505-clipPath1)" id="path72" ns1:connector-curvature="0" style="stroke:none" />
    </g>
    <g id="g74" style="text-rendering:geometricPrecision;fill:#000000;stroke:none">
      <path d="m 228.6728,206.5978 0.005,81.8063 c 1e-4,0.978 0.7926,1.7704 1.7706,1.7703 0.978,0 1.7705,-0.7926 1.7704,-1.7706 l -0.005,-81.8063 c 0,-0.978 -0.7926,-1.7704 -1.7706,-1.7704 -0.978,1e-4 -1.7704,0.7927 -1.7704,1.7707 z" clip-path="url(#1031569911879-clipPath1)" id="path76" ns1:connector-curvature="0" style="stroke:none" />
    </g>
    <g id="g78" style="text-rendering:geometricPrecision;fill:#000000;stroke:none">
      <path d="m 300.4056,167.2263 70.8401,40.8991 c 0.847,0.489 1.9296,0.1989 2.4186,-0.6481 0.489,-0.847 0.1989,-1.9295 -0.6481,-2.4185 l -70.8401,-40.8991 c -0.8469,-0.489 -1.9295,-0.199 -2.4185,0.648 -0.489,0.847 -0.1989,1.9296 0.648,2.4186 z" clip-path="url(#1031569911879-clipPath1)" id="path80" ns1:connector-curvature="0" style="stroke:none" />
    </g>
    <g id="g82" style="text-rendering:geometricPrecision;fill:#000000;stroke:none">
      <path d="m 230.4487,288.4039 0.8854,1.5332 95.1428,-44.2104 -22.1274,0 -22.1275,0 -52.6587,41.144 z" clip-path="url(#1031569911879-clipPath1)" id="path84" ns1:connector-curvature="0" style="stroke:none" />
    </g>
    <g id="g86" style="text-rendering:geometricPrecision;fill:#000000;stroke:none">
      <path d="m 301.2837,249.2677 81.7982,0 c 0.978,0 1.7705,-0.7925 1.7705,-1.7705 0,-0.978 -0.7925,-1.7705 -1.7705,-1.7705 l -81.7982,0 c -0.9781,0 -1.7705,0.7925 -1.7705,1.7705 0,0.978 0.7924,1.7705 1.7705,1.7705 z" clip-path="url(#1031569911879-clipPath1)" id="path88" ns1:connector-curvature="0" style="stroke:none" />
    </g>
    <g id="g90" style="fill:#333399;stroke:none;text-rendering:geometricPrecision">
      <path d="m 371.2478,289.9335 55.8519,32.2487 c 0.847,0.489 1.9296,0.199 2.4186,-0.648 0.4891,-0.847 0.199,-1.9295 -0.648,-2.4186 l -55.8519,-32.2487 c -0.8469,-0.489 -1.9295,-0.199 -2.4185,0.648 -0.4891,0.8469 -0.1991,1.9295 0.6479,2.4186 z" clip-path="url(#1031569911879-clipPath1)" id="path92" ns1:connector-curvature="0" style="stroke:none" />
      <path d="m 371.2478,289.9335 55.8519,32.2487 c 0.847,0.489 1.9296,0.199 2.4186,-0.648 0.4891,-0.847 0.199,-1.9295 -0.648,-2.4186 l -55.8519,-32.2487 c -0.8469,-0.489 -1.9295,-0.199 -2.4185,0.648 -0.4891,0.8469 -0.1991,1.9295 0.6479,2.4186 z" clip-path="url(#1031569911943-clipPath1)" id="path94" ns1:connector-curvature="0" style="fill:#000000;stroke:none" />
    </g>
    <g id="g96" style="text-rendering:geometricPrecision;fill:#000000;stroke:none">
      <path d="m 431.3464,313.4233 1.4286,-1.0458 -37.275,-66.6508 -13.7143,0 -13.7143,0 61.8464,68.7425 z" clip-path="url(#1031569911879-clipPath1)" id="path98" ns1:connector-curvature="0" style="stroke:none" />
      <path d="m 431.3464,313.4233 1.4286,-1.0458 -37.275,-66.6508 -13.7143,0 -13.7143,0 61.8464,68.7425 z" clip-path="url(#1031569911295-clipPath1)" id="path100" ns1:connector-curvature="0" style="fill:#333399;stroke:none" />
    </g>
    <g id="g102" style="text-rendering:geometricPrecision;fill:#000000;stroke:none">
      <path d="M 458.8106,325.9861 521.27,305.5665 c 0.9295,-0.3039 1.4365,-1.3034 1.1326,-2.233 -0.3039,-0.9296 -1.3034,-1.4366 -2.233,-1.1327 l -62.4593,20.4196 c -0.9296,0.3039 -1.4366,1.3034 -1.1327,2.233 0.3039,0.9296 1.3034,1.4366 2.233,1.1327 z" clip-path="url(#1031569911879-clipPath1)" id="path104" ns1:connector-curvature="0" style="stroke:none" />
      <path d="M 458.8106,325.9861 521.27,305.5665 c 0.9295,-0.3039 1.4365,-1.3034 1.1326,-2.233 -0.3039,-0.9296 -1.3034,-1.4366 -2.233,-1.1327 l -62.4593,20.4196 c -0.9296,0.3039 -1.4366,1.3034 -1.1327,2.233 0.3039,0.9296 1.3034,1.4366 2.233,1.1327 z" clip-path="url(#1031569911546-clipPath1)" id="path106" ns1:connector-curvature="0" style="fill:#333399;stroke:none" />
    </g>
    <g id="g108" style="fill:#ff0000;stroke:none;text-rendering:geometricPrecision">
      <path d="m 160.4903,82.3713 -51.1009,-29.504 c -0.847,-0.489 -1.9296,-0.199 -2.4186,0.648 -0.489,0.847 -0.1989,1.9295 0.648,2.4186 l 51.1009,29.504 c 0.847,0.489 1.9296,0.1989 2.4186,-0.6481 0.489,-0.847 0.1989,-1.9295 -0.648,-2.4185 z" clip-path="url(#1031569911879-clipPath1)" id="path110" ns1:connector-curvature="0" style="stroke:none" />
      <path d="m 160.4903,82.3713 -51.1009,-29.504 c -0.847,-0.489 -1.9296,-0.199 -2.4186,0.648 -0.489,0.847 -0.1989,1.9295 0.648,2.4186 l 51.1009,29.504 c 0.847,0.489 1.9296,0.1989 2.4186,-0.6481 0.489,-0.847 0.1989,-1.9295 -0.648,-2.4185 z" clip-path="url(#1031569911998-clipPath1)" id="path112" ns1:connector-curvature="0" style="fill:#000000;stroke:none" />
    </g>
    <g id="g114" style="fill:#ff0000;stroke:none;text-rendering:geometricPrecision">
      <path d="m 229.5633,286.8707 -51.2754,29.6112 c -0.8469,0.4891 -1.1369,1.5717 -0.6478,2.4186 0.4891,0.847 1.5717,1.1369 2.4187,0.6478 l 51.2753,-29.6112 c 0.847,-0.4891 1.1369,-1.5717 0.6478,-2.4186 -0.4891,-0.8469 -1.5717,-1.1369 -2.4186,-0.6478 z" clip-path="url(#1031569911879-clipPath1)" id="path116" ns1:connector-curvature="0" style="stroke:none" />
      <path d="m 229.5633,286.8707 -51.2754,29.6112 c -0.8469,0.4891 -1.1369,1.5717 -0.6478,2.4186 0.4891,0.847 1.5717,1.1369 2.4187,0.6478 l 51.2753,-29.6112 c 0.847,-0.4891 1.1369,-1.5717 0.6478,-2.4186 -0.4891,-0.8469 -1.5717,-1.1369 -2.4186,-0.6478 z" clip-path="url(#1031569911456-clipPath1)" id="path118" ns1:connector-curvature="0" style="fill:#000000;stroke:none" />
    </g>
    <g id="g120" style="text-rendering:geometricPrecision;fill:#000000;stroke:none">
      <path d="m 299.9763,328.1066 -49.9949,55.5249 c -0.6544,0.7268 -0.5958,1.846 0.131,2.5005 0.7268,0.6544 1.846,0.5957 2.5005,-0.1311 l 49.9948,-55.5249 c 0.6545,-0.7269 0.5958,-1.8461 -0.131,-2.5005 -0.7268,-0.6544 -1.846,-0.5957 -2.5004,0.1311 z" clip-path="url(#1031569911879-clipPath1)" id="path122" ns1:connector-curvature="0" style="stroke:none" />
    </g>
    <g id="g124" style="text-rendering:geometricPrecision;fill:#000000;stroke:none">
      <path d="m 299.916,330.4054 47.0176,58.0677 c 0.6155,0.7601 1.7301,0.8772 2.4902,0.2618 0.7601,-0.6155 0.8773,-1.73 0.2618,-2.4901 L 302.668,328.1771 c -0.6154,-0.7601 -1.7301,-0.8773 -2.4901,-0.2618 -0.7601,0.6154 -0.8773,1.73 -0.2619,2.4901 z" clip-path="url(#1031569911879-clipPath1)" id="path126" ns1:connector-curvature="0" style="stroke:none" />
    </g>
    <g id="g128" style="text-rendering:geometricPrecision;fill:#000000;stroke:none">
      <path d="m 519.5375,305.2015 60.8871,54.6234 c 0.728,0.6531 1.8471,0.5924 2.5002,-0.1356 0.6531,-0.728 0.5924,-1.8471 -0.1356,-2.5002 l -60.8871,-54.6233 c -0.728,-0.6531 -1.8471,-0.5925 -2.5002,0.1355 -0.6531,0.728 -0.5925,1.8471 0.1356,2.5002 z" clip-path="url(#1031569911879-clipPath1)" id="path130" ns1:connector-curvature="0" style="stroke:none" />
    </g>
    <g id="g132" style="text-rendering:geometricPrecision;fill:#000000;stroke:none">
      <path d="m 582.157,360.1898 77.7488,-25.4181 c 0.9296,-0.3039 1.4366,-1.3034 1.1327,-2.233 -0.3039,-0.9296 -1.3035,-1.4366 -2.233,-1.1327 l -77.7488,25.4181 c -0.9296,0.3039 -1.4366,1.3034 -1.1327,2.233 0.304,0.9296 1.3035,1.4366 2.233,1.1327 z" clip-path="url(#1031569911879-clipPath1)" id="path134" ns1:connector-curvature="0" style="stroke:none" />
    </g>
    <g id="g136" style="text-rendering:geometricPrecision;fill:#000000;stroke:none">
      <path d="m 654.2491,317.3728 c -0.9301,0.3022 -1.4389,1.3008 -1.1367,2.2309 0.3023,0.9302 1.3009,1.439 2.231,1.1368 0,0 0,0 0,0 l 71.0593,-23.0886 c 0,0 0,0 0,0 0.9302,-0.3022 1.439,-1.3008 1.1367,-2.231 -0.3022,-0.9301 -1.3008,-1.4389 -2.2309,-1.1367 z m 4.5594,14.0322 c -0.9301,0.3022 -1.4389,1.3008 -1.1367,2.231 0.3022,0.9301 1.3008,1.4389 2.231,1.1367 0,0 0,0 0,0 l 71.0592,-23.0886 c 0,0 0,0 0,0 0.9302,-0.3022 1.439,-1.3008 1.1368,-2.2309 -0.3022,-0.9302 -1.3008,-1.439 -2.2309,-1.1368 0,0 0,0 0,0 l -71.0594,23.0886 c 0,0 0,0 0,0 z m 4.5594,14.0322 c -0.9302,0.3022 -1.439,1.3008 -1.1368,2.231 0.3022,0.9301 1.3008,1.4389 2.231,1.1367 l 71.0593,-23.0886 c 0.9301,-0.3022 1.439,-1.3008 1.1367,-2.2309 -0.3022,-0.9302 -1.3007,-1.439 -2.2309,-1.1368 0,0 0,0 0,0 l -71.0593,23.0886 c 0,0 0,0 0,0 z" clip-path="url(#1031569911879-clipPath1)" id="path138" ns1:connector-curvature="0" style="stroke:none" />
    </g>
    <g id="g140" style="fill:#ffffff;stroke:none;text-rendering:geometricPrecision">
      </g>
    <g font-size="29px" transform="translate(432.4632,311.8018)" id="g144" style="font-size:29px;font-family:sans-serif;fill:#333399;stroke:none;text-rendering:geometricPrecision">
      <text x="0" xml:space="preserve" y="28" clip-path="url(#1031569911747-clipPath1)" id="text146" style="stroke:none">N</text>
    </g>
    <g font-size="29px" id="g148" style="font-size:29px;font-family:sans-serif;fill:#ffffff;stroke:none;text-rendering:geometricPrecision">
      <text x="0" y="28" transform="translate(60.5396,25.5046)" clip-path="url(#1031569911734-clipPath1)" xml:space="preserve" id="text152" style="fill:#ff0000;stroke:none">HO</text>
    </g>
    <g font-size="29px" id="g154" style="font-size:29px;font-family:sans-serif;fill:#ffffff;stroke:none;text-rendering:geometricPrecision">
      <text x="0" y="28" transform="translate(131.3872,311.8106)" clip-path="url(#1031569911313-clipPath1)" xml:space="preserve" id="text158" style="fill:#ff0000;stroke:none">HO</text>
    </g>
  </g>
</svg>