<?xml version='1.0' encoding='utf-8'?>
<svg xmlns="http://www.w3.org/2000/svg" xmlns:dc="http://purl.org/dc/elements/1.1/" xmlns:ns1="http://www.inkscape.org/namespaces/inkscape" xmlns:ns2="http://sodipodi.sourceforge.net/DTD/sodipodi-0.dtd" xmlns:ns4="http://creativecommons.org/ns#" xmlns:rdf="http://www.w3.org/1999/02/22-rdf-syntax-ns#" width="391.44345" stroke-miterlimit="10" font-weight="normal" height="574.90369" font-style="normal" font-size="12px" id="svg2" version="1.1" ns1:version="0.91 r13725" ns2:docname="Cinolazepam.svg" style="font-style:normal;font-weight:normal;font-size:12px;font-family:Dialog;color-interpolation:auto;fill:#f5d0fe;fill-opacity:1;stroke:none;stroke:none;stroke:none;stroke:none;stroke:none;stroke:none;stroke:none;stroke:none;color-rendering:auto;image-rendering:auto;shape-rendering:auto;text-rendering:auto">
  <metadata id="metadata236">
    <rdf:RDF>
      <ns4:Work rdf:about="">
        <dc:format>image/svg+xml</dc:format>
        <dc:type rdf:resource="http://purl.org/dc/dcmitype/StillImage" />
        <dc:title />
      </ns4:Work>
    </rdf:RDF>
  </metadata>
  <ns2:namedview pagecolor="#eef2ff" bordercolor="#666666" borderopacity="1" objecttolerance="10" gridtolerance="10" guidetolerance="10" ns1:pageopacity="0" ns1:pageshadow="2" ns1:window-width="1060" ns1:window-height="480" id="namedview234" showgrid="false" fit-margin-top="10" fit-margin-left="10" fit-margin-right="10" fit-margin-bottom="10" ns1:zoom="0.36375" ns1:cx="195.75395" ns1:cy="287.35606" ns1:window-x="0" ns1:window-y="0" ns1:window-maximized="0" ns1:current-layer="svg2" />
  
  <defs id="genericDefs" />
  <g id="g5" transform="translate(-204.24605,-12.4524)" style="fill:#f5d0fe;stroke:none">
    <defs id="1231156949736-defs1">
      <clipPath clipPathUnits="userSpaceOnUse" id="1231156949921-clipPath1">
        <path d="M 0,0 800,0 800,600 0,600 0,0 Z" id="path9" ns1:connector-curvature="0" style="stroke:none" />
      </clipPath>
      <clipPath clipPathUnits="userSpaceOnUse" id="1231156949958-clipPath1">
        <path d="m 430.8569,364.6234 c -13.6713,0 -24.7541,11.0828 -24.7541,24.7541 0,13.6713 11.0828,24.7541 24.7541,24.7541 13.6713,0 24.7541,-11.0828 24.7541,-24.7541 0,-13.6713 -11.0828,-24.7541 -24.7541,-24.7541 z" id="path12" ns1:connector-curvature="0" style="stroke:none" />
      </clipPath>
      <clipPath clipPathUnits="userSpaceOnUse" id="123115694974-clipPath1">
        <path d="m 502.0611,279.3171 c -12.9584,0 -23.4632,10.5048 -23.4632,23.4631 0,12.9584 10.5048,23.4631 23.4632,23.4631 12.9583,0 23.4631,-10.5047 23.4631,-23.4631 0,-12.9583 -10.5048,-23.4631 -23.4631,-23.4631 z" id="path15" ns1:connector-curvature="0" style="stroke:none" />
      </clipPath>
      <clipPath clipPathUnits="userSpaceOnUse" id="1231156949442-clipPath1">
        <path d="m 362.2753,276.8926 c -13.1424,0 -23.7964,10.6539 -23.7964,23.7963 0,13.1423 10.654,23.7963 23.7964,23.7963 13.1423,0 23.7963,-10.654 23.7963,-23.7963 0,-13.1424 -10.654,-23.7963 -23.7963,-23.7963 z" id="path18" ns1:connector-curvature="0" style="stroke:none" />
      </clipPath>
      <clipPath clipPathUnits="userSpaceOnUse" id="1231156949228-clipPath1">
        <path d="m 413.275,227.437 c -14.0092,0 -25.3659,11.3567 -25.3659,25.3659 0,14.0092 11.3567,25.3659 25.3659,25.3659 14.0092,0 25.3659,-11.3567 25.3659,-25.3659 0,-14.0092 -11.3567,-25.3659 -25.3659,-25.3659 z" id="path21" ns1:connector-curvature="0" style="stroke:none" />
      </clipPath>
      <clipPath clipPathUnits="userSpaceOnUse" id="123115694939-clipPath1">
        <path d="m 483.3367,458.0042 c -14.0806,0 -25.4951,11.4146 -25.4951,25.4951 0,14.0806 11.4145,25.4952 25.4951,25.4952 14.0806,0 25.4951,-11.4146 25.4951,-25.4952 0,-14.0805 -11.4145,-25.4951 -25.4951,-25.4951 z" id="path24" ns1:connector-curvature="0" style="stroke:none" />
      </clipPath>
      <clipPath clipPathUnits="userSpaceOnUse" id="1231156949337-clipPath1">
        <path d="m 269.802,361.274 c -12.5248,0 -22.6782,10.1533 -22.6782,22.6781 0,12.5249 10.1534,22.6782 22.6782,22.6782 12.5248,0 22.6782,-10.1533 22.6782,-22.6782 0,-12.5248 -10.1534,-22.6781 -22.6782,-22.6781 z" id="path27" ns1:connector-curvature="0" style="stroke:none" />
      </clipPath>
      <clipPath clipPathUnits="userSpaceOnUse" id="1231156949919-clipPath1">
        <path d="m 464.0011,230.4918 c -12.7412,0 -23.07,10.3288 -23.07,23.07 0,12.7412 10.3288,23.07 23.07,23.07 12.7412,0 23.07,-10.3288 23.07,-23.07 0,-12.7412 -10.3288,-23.07 -23.07,-23.07 z" id="path30" ns1:connector-curvature="0" style="stroke:none" />
      </clipPath>
      <clipPath clipPathUnits="userSpaceOnUse" id="1231156949168-clipPath1">
        <path d="m 502.0611,278.3058 c -13.5169,0 -24.4745,10.9576 -24.4745,24.4744 0,13.5169 10.9576,24.4745 24.4745,24.4745 13.5168,0 24.4744,-10.9576 24.4744,-24.4745 0,-13.5168 -10.9576,-24.4744 -24.4744,-24.4744 z" id="path33" ns1:connector-curvature="0" style="stroke:none" />
      </clipPath>
      <clipPath clipPathUnits="userSpaceOnUse" id="1231156949105-clipPath1">
        <path d="m 395.4838,215.4106 c -13.0378,0 -23.6071,10.5692 -23.6071,23.607 0,13.0379 10.5693,23.6071 23.6071,23.6071 13.0378,0 23.6071,-10.5692 23.6071,-23.6071 0,-13.0378 -10.5693,-23.607 -23.6071,-23.607 z" id="path36" ns1:connector-curvature="0" style="stroke:none" />
      </clipPath>
      <clipPath clipPathUnits="userSpaceOnUse" id="1231156949448-clipPath1">
        <path d="m 385.2969,65.2126 c -13.0532,0 -23.6348,10.5817 -23.6348,23.6348 0,13.0532 10.5816,23.6348 23.6348,23.6348 13.0531,0 23.6348,-10.5816 23.6348,-23.6348 0,-13.0531 -10.5817,-23.6348 -23.6348,-23.6348 z" id="path39" ns1:connector-curvature="0" style="stroke:none" />
      </clipPath>
      <clipPath clipPathUnits="userSpaceOnUse" id="1231156949863-clipPath1">
        <path d="m -531.7327,-440.2001 800,0 0,600 -800,0 0,-600 z" id="path42" ns1:connector-curvature="0" style="stroke:none" />
      </clipPath>
      <clipPath clipPathUnits="userSpaceOnUse" id="1231156949766-clipPath1">
        <path d="m -479.2324,-350.2239 800,0 0,600 -800,0 0,-600 z" id="path45" ns1:connector-curvature="0" style="stroke:none" />
      </clipPath>
      <clipPath clipPathUnits="userSpaceOnUse" id="1231156949520-clipPath1">
        <path d="m -393.7124,-239.631 800,0 0,600 -800,0 0,-600 z" id="path48" ns1:connector-curvature="0" style="stroke:none" />
      </clipPath>
      <clipPath clipPathUnits="userSpaceOnUse" id="1231156949674-clipPath1">
        <path d="m -483.4021,-184.9159 800,0 0,600 -800,0 0,-600 z" id="path51" ns1:connector-curvature="0" style="stroke:none" />
      </clipPath>
      <clipPath clipPathUnits="userSpaceOnUse" id="1231156949722-clipPath1">
        <path d="m -553.9893,-276.8445 800,0 0,600 -800,0 0,-600 z" id="path54" ns1:connector-curvature="0" style="stroke:none" />
      </clipPath>
      <clipPath clipPathUnits="userSpaceOnUse" id="1231156949482-clipPath1">
        <path d="m -213.0107,-412.5838 800,0 0,600 -800,0 0,-600 z" id="path57" ns1:connector-curvature="0" style="stroke:none" />
      </clipPath>
      <clipPath clipPathUnits="userSpaceOnUse" id="1231156949286-clipPath1">
        <path d="m -351.0652,-19.3938 800,0 0,599.9999 -800,0 0,-599.9999 z" id="path60" ns1:connector-curvature="0" style="stroke:none" />
      </clipPath>
    </defs>
    <g id="g62" style="text-rendering:geometricPrecision;fill:#f5d0fe;stroke:none">
      <path d="m 373.3076,544.0776 c -0.0111,0.7439 0.5826,1.3556 1.3264,1.3667 0.7438,0.0111 1.3556,-0.5825 1.3667,-1.3264 l 0.9308,-62.2105 c 0.0111,-0.7438 -0.5826,-1.3556 -1.3264,-1.3667 -0.7439,-0.0111 -1.3556,0.5826 -1.3667,1.3264 z m 11.3383,-7.6572 c -0.0111,0.7438 0.5826,1.3555 1.3264,1.3667 0.7439,0.0111 1.3556,-0.5826 1.3667,-1.3264 l 0.6966,-46.5603 c 0.0111,-0.7438 -0.5826,-1.3556 -1.3264,-1.3667 -0.7438,-0.0111 -1.3555,0.5826 -1.3667,1.3264 z" clip-path="url(#1231156949921-clipPath1)" id="path64" ns1:connector-curvature="0" style="stroke:none" />
    </g>
    <g id="g66" style="text-rendering:geometricPrecision;fill:#f5d0fe;stroke:none">
      <path d="m 428.779,561.2199 c -0.6498,0.3623 -0.8827,1.1823 -0.5204,1.832 0.3622,0.6498 1.1823,0.8827 1.832,0.5204 l 40.6707,-22.6769 c 0.6497,-0.3623 0.8827,-1.1823 0.5204,-1.832 -0.3623,-0.6497 -1.1823,-0.8827 -1.8321,-0.5204 z m -1.3701,13.613 c -0.6497,0.3623 -0.8827,1.1823 -0.5204,1.832 0.3623,0.6497 1.1823,0.8826 1.832,0.5204 l 54.3413,-30.2992 c 0.6497,-0.3623 0.8827,-1.1823 0.5204,-1.832 -0.3623,-0.6498 -1.1823,-0.8827 -1.832,-0.5204 z" clip-path="url(#1231156949921-clipPath1)" id="path68" ns1:connector-curvature="0" style="stroke:none" />
    </g>
    <g id="g70" style="text-rendering:geometricPrecision;fill:#f5d0fe;stroke:none">
      <path d="m 483.7525,545.73 0.9308,-62.2105 c 0.0111,-0.7438 -0.5826,-1.3556 -1.3264,-1.3667 -0.7439,-0.0111 -1.3556,0.5826 -1.3667,1.3264 l -0.9308,62.2105 c -0.0111,0.7438 0.5826,1.3556 1.3264,1.3667 0.7439,0.0111 1.3556,-0.5826 1.3667,-1.3264 z" clip-path="url(#1231156949921-clipPath1)" id="path72" ns1:connector-curvature="0" style="stroke:none" />
    </g>
    <g id="g74" style="text-rendering:geometricPrecision;fill:#f5d0fe;stroke:none">
      <path d="m 470.1718,490.2754 c 0.6386,0.3815 1.4652,0.1732 1.8468,-0.4654 0.3815,-0.6386 0.1732,-1.4652 -0.4654,-1.8467 l -39.9741,-23.8835 c -0.6386,-0.3815 -1.4652,-0.1732 -1.8468,0.4654 -0.3815,0.6386 -0.1732,1.4652 0.4654,1.8468 z m 12.4742,-5.62 c 0.6386,0.3816 1.4652,0.1732 1.8468,-0.4653 0.3815,-0.6386 0.1732,-1.4653 -0.4654,-1.8468 L 430.6169,450.432 c -0.6386,-0.3816 -1.4652,-0.1733 -1.8468,0.4653 -0.3815,0.6386 -0.1732,1.4652 0.4654,1.8468 z" clip-path="url(#1231156949921-clipPath1)" id="path76" ns1:connector-curvature="0" style="stroke:none" />
    </g>
    <g id="g78" style="text-rendering:geometricPrecision;fill:#f5d0fe;stroke:none">
      <path d="m 373.9635,545.2538 53.4105,31.9114 c 0.6386,0.3815 1.4652,0.1732 1.8468,-0.4654 0.3815,-0.6386 0.1732,-1.4652 -0.4654,-1.8468 l -53.4105,-31.9113 c -0.6386,-0.3815 -1.4652,-0.1732 -1.8468,0.4653 -0.3815,0.6387 -0.1732,1.4653 0.4654,1.8468 z" clip-path="url(#1231156949921-clipPath1)" id="path80" ns1:connector-curvature="0" style="stroke:none" />
    </g>
    <g id="g82" style="text-rendering:geometricPrecision;fill:#f5d0fe;stroke:none">
      <path d="m 429.2704,450.4118 -54.3413,30.2993 c -0.6497,0.3622 -0.8827,1.1822 -0.5204,1.832 0.3623,0.6497 1.1823,0.8826 1.832,0.5203 l 54.3413,-30.2992 c 0.6498,-0.3623 0.8827,-1.1823 0.5204,-1.832 -0.3623,-0.6497 -1.1823,-0.8826 -1.832,-0.5204 z" clip-path="url(#1231156949921-clipPath1)" id="path84" ns1:connector-curvature="0" style="stroke:none" />
    </g>
    <g id="g86" style="text-rendering:geometricPrecision;fill:#f5d0fe;stroke:none">
      <path d="m 431.2727,451.6082 0.9308,-62.2106 c 0.0111,-0.7438 -0.5826,-1.3555 -1.3264,-1.3667 -0.7439,-0.0111 -1.3556,0.5826 -1.3667,1.3265 l -0.9307,62.2105 c -0.0112,0.7438 0.5825,1.3555 1.3263,1.3667 0.7439,0.0111 1.3556,-0.5826 1.3667,-1.3264 z" clip-path="url(#1231156949921-clipPath1)" id="path88" ns1:connector-curvature="0" style="stroke:none" />
    </g>
    <g id="g90" style="text-rendering:geometricPrecision;fill:#f5d0fe;stroke:none">
      <path d="m 431.4593,388.173 -55.6459,-27.8307 c -0.6653,-0.3327 -1.4741,-0.0632 -1.8068,0.6021 -0.3328,0.6653 -0.0633,1.4741 0.602,1.8068 l 55.6459,27.8307 c 0.6654,0.3328 1.4741,0.0633 1.8069,-0.602 0.3327,-0.6654 0.0632,-1.4741 -0.6021,-1.8069 z" clip-path="url(#1231156949921-clipPath1)" id="path92" ns1:connector-curvature="0" style="stroke:none" />
    </g>
    <g id="g94" style="text-rendering:geometricPrecision;fill:#f5d0fe;stroke:none">
      <path d="m 376.5283,361.2668 -12.9358,-60.8579 c -0.1547,-0.7276 -0.8696,-1.1919 -1.5972,-1.0373 -0.7277,0.1547 -1.192,0.8696 -1.0373,1.5973 l 12.9357,60.8579 c 0.1547,0.7276 0.8696,1.1919 1.5973,1.0372 0.7276,-0.1546 1.1919,-0.8696 1.0373,-1.5972 z" clip-path="url(#1231156949921-clipPath1)" id="path96" ns1:connector-curvature="0" style="stroke:none" />
    </g>
    <g id="g98" style="text-rendering:geometricPrecision;fill:#f5d0fe;stroke:none">
      <path d="m 462.9358,254.3856 38.0599,49.2184 c 0.4551,0.5885 1.3007,0.6966 1.8892,0.2416 0.5884,-0.4551 0.6966,-1.3007 0.2415,-1.8891 l -38.06,-49.2185 c -0.455,-0.5885 -1.3006,-0.6966 -1.8891,-0.2415 -0.5885,0.455 -0.6966,1.3006 -0.2415,1.8891 z" clip-path="url(#1231156949921-clipPath1)" id="path100" ns1:connector-curvature="0" style="stroke:none" />
    </g>
    <g id="g102" style="fill:#c4b5fd;stroke:none;text-rendering:geometricPrecision">
      <path d="m 431.6991,375.1349 c -0.675,0.3127 -0.9685,1.113 -0.6559,1.788 0.3128,0.675 1.1131,0.9685 1.7881,0.6558 l 38.7959,-17.9732 c 0.675,-0.3127 0.9686,-1.113 0.6559,-1.788 -0.3127,-0.675 -1.1131,-0.9686 -1.788,-0.6559 z m -1.4083,13.0207 c -0.675,0.3127 -0.9685,1.113 -0.6558,1.788 0.3127,0.675 1.113,0.9685 1.788,0.6558 l 44.9217,-20.8111 c 0.675,-0.3127 0.9685,-1.113 0.6558,-1.788 -0.3127,-0.675 -1.113,-0.9686 -1.788,-0.6558 z" clip-path="url(#1231156949921-clipPath1)" id="path104" ns1:connector-curvature="0" style="stroke:none" />
      <path d="m 431.6991,375.1349 c -0.675,0.3127 -0.9685,1.113 -0.6559,1.788 0.3128,0.675 1.1131,0.9685 1.7881,0.6558 l 38.7959,-17.9732 c 0.675,-0.3127 0.9686,-1.113 0.6559,-1.788 -0.3127,-0.675 -1.1131,-0.9686 -1.788,-0.6559 z m -1.4083,13.0207 c -0.675,0.3127 -0.9685,1.113 -0.6558,1.788 0.3127,0.675 1.113,0.9685 1.788,0.6558 l 44.9217,-20.8111 c 0.675,-0.3127 0.9685,-1.113 0.6558,-1.788 -0.3127,-0.675 -1.113,-0.9686 -1.788,-0.6558 z" clip-path="url(#1231156949958-clipPath1)" id="path106" ns1:connector-curvature="0" style="fill:#f5d0fe;stroke:none" />
    </g>
    <g id="g108" style="fill:#c4b5fd;stroke:none;text-rendering:geometricPrecision">
      <path d="m 500.7528,302.461 -11.1253,45.5883 c -0.1764,0.7227 0.2663,1.4512 0.989,1.6276 0.7227,0.1764 1.4512,-0.2663 1.6275,-0.989 l 11.1254,-45.5884 c 0.1763,-0.7227 -0.2664,-1.4512 -0.9891,-1.6275 -0.7227,-0.1764 -1.4512,0.2663 -1.6275,0.989 z" clip-path="url(#1231156949921-clipPath1)" id="path110" ns1:connector-curvature="0" style="stroke:none" />
      <path d="m 500.7528,302.461 -11.1253,45.5883 c -0.1764,0.7227 0.2663,1.4512 0.989,1.6276 0.7227,0.1764 1.4512,-0.2663 1.6275,-0.989 l 11.1254,-45.5884 c 0.1763,-0.7227 -0.2664,-1.4512 -0.9891,-1.6275 -0.7227,-0.1764 -1.4512,0.2663 -1.6275,0.989 z" clip-path="url(#123115694974-clipPath1)" id="path112" ns1:connector-curvature="0" style="fill:#f5d0fe;stroke:none" />
    </g>
    <g id="g114" style="fill:#c4b5fd;stroke:none;text-rendering:geometricPrecision">
      <path d="m 363.3155,301.5442 30.2268,-36.7614 c 0.4724,-0.5745 0.3897,-1.423 -0.1849,-1.8955 -0.5746,-0.4724 -1.4231,-0.3896 -1.8955,0.1849 l -30.2269,36.7614 c -0.4724,0.5746 -0.3897,1.423 0.185,1.8955 0.5746,0.4725 1.423,0.3897 1.8955,-0.1849 z" clip-path="url(#1231156949921-clipPath1)" id="path116" ns1:connector-curvature="0" style="stroke:none" />
      <path d="m 363.3155,301.5442 30.2268,-36.7614 c 0.4724,-0.5745 0.3897,-1.423 -0.1849,-1.8955 -0.5746,-0.4724 -1.4231,-0.3896 -1.8955,0.1849 l -30.2269,36.7614 c -0.4724,0.5746 -0.3897,1.423 0.185,1.8955 0.5746,0.4725 1.423,0.3897 1.8955,-0.1849 z" clip-path="url(#1231156949442-clipPath1)" id="path118" ns1:connector-curvature="0" style="fill:#f5d0fe;stroke:none" />
    </g>
    <g id="g120" style="text-rendering:geometricPrecision;fill:#f5d0fe;stroke:none">
      <path d="m 413.2548,254.1494 50.7262,0.7589 c 0.7438,0.0111 1.3555,-0.5826 1.3666,-1.3264 0.0112,-0.7438 -0.5825,-1.3555 -1.3264,-1.3667 l -50.7261,-0.7589 c -0.7438,-0.0111 -1.3555,0.5826 -1.3667,1.3264 -0.0111,0.7438 0.5826,1.3556 1.3264,1.3667 z" clip-path="url(#1231156949921-clipPath1)" id="path122" ns1:connector-curvature="0" style="stroke:none" />
      <path d="m 413.2548,254.1494 50.7262,0.7589 c 0.7438,0.0111 1.3555,-0.5826 1.3666,-1.3264 0.0112,-0.7438 -0.5825,-1.3555 -1.3264,-1.3667 l -50.7261,-0.7589 c -0.7438,-0.0111 -1.3555,0.5826 -1.3667,1.3264 -0.0111,0.7438 0.5826,1.3556 1.3264,1.3667 z" clip-path="url(#1231156949228-clipPath1)" id="path124" ns1:connector-curvature="0" style="fill:#c4b5fd;stroke:none" />
    </g>
    <g id="g126" style="text-rendering:geometricPrecision;fill:#f5d0fe;stroke:none">
      <path d="m 302.2018,280.4619 -46.2366,41.6316 c -0.5528,0.4977 -0.5975,1.349 -0.0997,1.9019 0.4978,0.5528 1.3491,0.5974 1.9019,0.0996 l 46.2366,-41.6316 c 0.5528,-0.4978 0.5974,-1.3491 0.0997,-1.9019 -0.4978,-0.5528 -1.3491,-0.5974 -1.9019,-0.0996 z" clip-path="url(#1231156949921-clipPath1)" id="path128" ns1:connector-curvature="0" style="stroke:none" />
    </g>
    <g id="g130" style="text-rendering:geometricPrecision;fill:#f5d0fe;stroke:none">
      <path d="m 270.7879,328.136 c -0.1547,-0.7277 -0.8696,-1.192 -1.5973,-1.0373 -0.7276,0.1547 -1.1919,0.8696 -1.0372,1.5973 l 9.6815,45.5479 c 0.1547,0.7276 0.8696,1.1919 1.5973,1.0373 0.7276,-0.1547 1.1919,-0.8696 1.0372,-1.5973 z m -12.6044,-5.3217 c -0.1546,-0.7277 -0.8696,-1.192 -1.5972,-1.0373 -0.7276,0.1547 -1.1919,0.8696 -1.0373,1.5973 l 12.9358,60.8578 c 0.1546,0.7277 0.8696,1.192 1.5972,1.0373 0.7277,-0.1547 1.192,-0.8696 1.0373,-1.5973 z" clip-path="url(#1231156949921-clipPath1)" id="path132" ns1:connector-curvature="0" style="stroke:none" />
    </g>
    <g id="g134" style="text-rendering:geometricPrecision;fill:#f5d0fe;stroke:none">
      <path d="m 269.3859,385.2329 59.1723,19.2263 c 0.7075,0.2299 1.4671,-0.1571 1.697,-0.8646 0.2298,-0.7075 -0.1572,-1.4671 -0.8647,-1.697 l -59.1723,-19.2262 c -0.7075,-0.2299 -1.4671,0.1571 -1.6969,0.8646 -0.2299,0.7075 0.1571,1.4671 0.8646,1.6969 z" clip-path="url(#1231156949921-clipPath1)" id="path136" ns1:connector-curvature="0" style="stroke:none" />
    </g>
    <g id="g138" style="text-rendering:geometricPrecision;fill:#f5d0fe;stroke:none">
      <path d="m 326.3798,388.6011 c -0.5528,0.4978 -0.5974,1.3491 -0.0996,1.9019 0.4977,0.5528 1.349,0.5974 1.9018,0.0997 l 34.605,-31.1585 c 0.5528,-0.4977 0.5974,-1.349 0.0996,-1.9018 -0.4977,-0.5529 -1.349,-0.5975 -1.9019,-0.0997 z m 1.6935,13.5765 c -0.5529,0.4978 -0.5975,1.3491 -0.0997,1.9019 0.4978,0.5529 1.3491,0.5975 1.9019,0.0997 l 46.2366,-41.6316 c 0.5528,-0.4978 0.5975,-1.3491 0.0997,-1.9019 -0.4978,-0.5528 -1.3491,-0.5975 -1.9019,-0.0997 z" clip-path="url(#1231156949921-clipPath1)" id="path140" ns1:connector-curvature="0" style="stroke:none" />
    </g>
    <g id="g142" style="text-rendering:geometricPrecision;fill:#f5d0fe;stroke:none">
      <path d="m 350.9482,310.2245 c 0.7075,0.2299 1.4671,-0.1571 1.6969,-0.8646 0.2299,-0.7075 -0.1571,-1.467 -0.8646,-1.6969 l -44.2864,-14.3896 c -0.7075,-0.2299 -1.4671,0.1572 -1.697,0.8647 -0.2298,0.7075 0.1572,1.467 0.8647,1.6969 z m 10.9109,-8.2548 c 0.7075,0.2299 1.467,-0.1572 1.6969,-0.8647 0.2299,-0.7074 -0.1571,-1.467 -0.8646,-1.6969 L 303.519,280.1819 c -0.7074,-0.2299 -1.467,0.1571 -1.6969,0.8646 -0.2298,0.7075 0.1571,1.467 0.8646,1.6969 z" clip-path="url(#1231156949921-clipPath1)" id="path144" ns1:connector-curvature="0" style="stroke:none" />
    </g>
    <g id="g146" style="fill:#fbbf24;stroke:none;text-rendering:geometricPrecision">
      <path d="m 483.9926,484.6755 44.5352,-24.8317 c 0.6498,-0.3622 0.8827,-1.1822 0.5204,-1.832 -0.3622,-0.6497 -1.1822,-0.8826 -1.832,-0.5203 l -44.5353,24.8316 c -0.6497,0.3623 -0.8827,1.1823 -0.5204,1.8321 0.3623,0.6497 1.1823,0.8826 1.8321,0.5203 z" clip-path="url(#1231156949921-clipPath1)" id="path148" ns1:connector-curvature="0" style="stroke:none" />
      <path d="m 483.9926,484.6755 44.5352,-24.8317 c 0.6498,-0.3622 0.8827,-1.1822 0.5204,-1.832 -0.3622,-0.6497 -1.1822,-0.8826 -1.832,-0.5203 l -44.5353,24.8316 c -0.6497,0.3623 -0.8827,1.1823 -0.5204,1.8321 0.3623,0.6497 1.1823,0.8826 1.8321,0.5203 z" clip-path="url(#123115694939-clipPath1)" id="path150" ns1:connector-curvature="0" style="fill:#f5d0fe;stroke:none" />
    </g>
    <g id="g152" style="fill:#6ee7b7;stroke:none;text-rendering:geometricPrecision">
      <path d="m 268.9009,382.9514 -33.7063,30.3493 c -0.5529,0.4978 -0.5975,1.3491 -0.0997,1.9019 0.4978,0.5528 1.3491,0.5974 1.9019,0.0997 l 33.7064,-30.3494 c 0.5528,-0.4977 0.5974,-1.349 0.0996,-1.9018 -0.4977,-0.5529 -1.349,-0.5975 -1.9019,-0.0997 z" clip-path="url(#1231156949921-clipPath1)" id="path154" ns1:connector-curvature="0" style="stroke:none" />
      <path d="m 268.9009,382.9514 -33.7063,30.3493 c -0.5529,0.4978 -0.5975,1.3491 -0.0997,1.9019 0.4978,0.5528 1.3491,0.5974 1.9019,0.0997 l 33.7064,-30.3494 c 0.5528,-0.4977 0.5974,-1.349 0.0996,-1.9018 -0.4977,-0.5529 -1.349,-0.5975 -1.9019,-0.0997 z" clip-path="url(#1231156949337-clipPath1)" id="path156" ns1:connector-curvature="0" style="fill:#f5d0fe;stroke:none" />
    </g>
    <g id="g158" style="fill:#fda4af;stroke:none;text-rendering:geometricPrecision">
      <path d="m 456.5693,252.8662 c -0.3327,0.6654 -0.0632,1.4741 0.6021,1.8069 0.6653,0.3327 1.4741,0.0632 1.8068,-0.6021 l 21.8478,-43.6834 c 0.3328,-0.6653 0.0633,-1.474 -0.6021,-1.8068 -0.6653,-0.3328 -1.4741,-0.0633 -1.8068,0.6021 z m 10.0372,5.02 c -0.3328,0.6653 -0.0633,1.4741 0.602,1.8068 0.6654,0.3328 1.4741,0.0633 1.8069,-0.602 l 21.8477,-43.6834 c 0.3328,-0.6653 0.0633,-1.4741 -0.602,-1.8068 -0.6654,-0.3328 -1.4741,-0.0633 -1.8068,0.602 z" clip-path="url(#1231156949921-clipPath1)" id="path160" ns1:connector-curvature="0" style="stroke:none" />
      <path d="m 456.5693,252.8662 c -0.3327,0.6654 -0.0632,1.4741 0.6021,1.8069 0.6653,0.3327 1.4741,0.0632 1.8068,-0.6021 l 21.8478,-43.6834 c 0.3328,-0.6653 0.0633,-1.474 -0.6021,-1.8068 -0.6653,-0.3328 -1.4741,-0.0633 -1.8068,0.6021 z m 10.0372,5.02 c -0.3328,0.6653 -0.0633,1.4741 0.602,1.8068 0.6654,0.3328 1.4741,0.0633 1.8069,-0.602 l 21.8477,-43.6834 c 0.3328,-0.6653 0.0633,-1.4741 -0.602,-1.8068 -0.6654,-0.3328 -1.4741,-0.0633 -1.8068,0.602 z" clip-path="url(#1231156949919-clipPath1)" id="path162" ns1:connector-curvature="0" style="fill:#f5d0fe;stroke:none" />
    </g>
    <g id="g164" style="fill:#fda4af;stroke:none;text-rendering:geometricPrecision">
      <path d="m 502.341,304.0975 47.8792,-10.177 c 0.7277,-0.1547 1.192,-0.8696 1.0373,-1.5973 -0.1547,-0.7276 -0.8696,-1.1919 -1.5972,-1.0373 l -47.8792,10.1771 c -0.7277,0.1546 -1.192,0.8696 -1.0373,1.5972 0.1547,0.7277 0.8696,1.192 1.5972,1.0373 z" clip-path="url(#1231156949921-clipPath1)" id="path166" ns1:connector-curvature="0" style="stroke:none" />
      <path d="m 502.341,304.0975 47.8792,-10.177 c 0.7277,-0.1547 1.192,-0.8696 1.0373,-1.5973 -0.1547,-0.7276 -0.8696,-1.1919 -1.5972,-1.0373 l -47.8792,10.1771 c -0.7277,0.1546 -1.192,0.8696 -1.0373,1.5972 0.1547,0.7277 0.8696,1.192 1.5972,1.0373 z" clip-path="url(#1231156949168-clipPath1)" id="path168" ns1:connector-curvature="0" style="fill:#f5d0fe;stroke:none" />
    </g>
    <g id="g170" style="text-rendering:geometricPrecision;fill:#f5d0fe;stroke:none">
      <path d="m 396.7057,238.4516 -19.8468,-42.8402 c -0.3127,-0.675 -1.113,-0.9686 -1.788,-0.6559 -0.675,0.3127 -0.9685,1.1131 -0.6558,1.788 l 19.8468,42.8402 c 0.3127,0.675 1.113,0.9686 1.788,0.6559 0.675,-0.3127 0.9685,-1.1131 0.6558,-1.788 z" clip-path="url(#1231156949921-clipPath1)" id="path172" ns1:connector-curvature="0" style="stroke:none" />
      <path d="m 396.7057,238.4516 -19.8468,-42.8402 c -0.3127,-0.675 -1.113,-0.9686 -1.788,-0.6559 -0.675,0.3127 -0.9685,1.1131 -0.6558,1.788 l 19.8468,42.8402 c 0.3127,0.675 1.113,0.9686 1.788,0.6559 0.675,-0.3127 0.9685,-1.1131 0.6558,-1.788 z" clip-path="url(#1231156949105-clipPath1)" id="path174" ns1:connector-curvature="0" style="fill:#c4b5fd;stroke:none" />
    </g>
    <g id="g176" style="text-rendering:geometricPrecision;fill:#f5d0fe;stroke:none">
      <path d="m 376.7382,196.9526 35.8135,-50.8764 c 0.4282,-0.6083 0.2822,-1.4482 -0.3261,-1.8764 -0.6083,-0.4282 -1.4482,-0.2823 -1.8764,0.326 l -35.8134,50.8765 c -0.4282,0.6083 -0.2823,1.4482 0.326,1.8764 0.6083,0.4282 1.4482,0.2822 1.8764,-0.3261 z" clip-path="url(#1231156949921-clipPath1)" id="path178" ns1:connector-curvature="0" style="stroke:none" />
    </g>
    <g id="g180" style="text-rendering:geometricPrecision;fill:#f5d0fe;stroke:none">
      <path d="M 412.6724,144.7349 386.5188,88.2813 c -0.3127,-0.675 -1.113,-0.9685 -1.788,-0.6558 -0.675,0.3127 -0.9686,1.113 -0.6558,1.788 l 26.1535,56.4536 c 0.3127,0.675 1.1131,0.9685 1.788,0.6558 0.675,-0.3127 0.9686,-1.113 0.6559,-1.788 z" clip-path="url(#1231156949921-clipPath1)" id="path182" ns1:connector-curvature="0" style="stroke:none" />
    </g>
    <g id="g184" style="fill:#c4b5fd;stroke:none;text-rendering:geometricPrecision">
      <path d="m 373.8921,94.131 c 0.3127,0.6749 1.1131,0.9685 1.788,0.6558 0.675,-0.3127 0.9686,-1.113 0.6559,-1.788 L 356.4659,50.1083 c -0.3127,-0.675 -1.1131,-0.9685 -1.788,-0.6558 -0.675,0.3127 -0.9686,1.113 -0.6559,1.788 z m 10.1829,-4.7175 c 0.3126,0.675 1.113,0.9685 1.788,0.6558 0.6749,-0.3127 0.9685,-1.113 0.6558,-1.788 L 366.6487,45.3909 c -0.3127,-0.675 -1.1131,-0.9686 -1.788,-0.6559 -0.675,0.3127 -0.9686,1.113 -0.6559,1.788 z m 10.1828,-4.7174 c 0.3127,0.6749 1.113,0.9685 1.788,0.6558 0.675,-0.3127 0.9685,-1.113 0.6558,-1.788 L 376.8315,40.6734 c -0.3127,-0.675 -1.113,-0.9685 -1.788,-0.6558 -0.675,0.3127 -0.9685,1.113 -0.6559,1.788 z" clip-path="url(#1231156949921-clipPath1)" id="path186" ns1:connector-curvature="0" style="stroke:none" />
      <path d="m 373.8921,94.131 c 0.3127,0.6749 1.1131,0.9685 1.788,0.6558 0.675,-0.3127 0.9686,-1.113 0.6559,-1.788 L 356.4659,50.1083 c -0.3127,-0.675 -1.1131,-0.9685 -1.788,-0.6558 -0.675,0.3127 -0.9686,1.113 -0.6559,1.788 z m 10.1829,-4.7175 c 0.3126,0.675 1.113,0.9685 1.788,0.6558 0.6749,-0.3127 0.9685,-1.113 0.6558,-1.788 L 366.6487,45.3909 c -0.3127,-0.675 -1.1131,-0.9686 -1.788,-0.6559 -0.675,0.3127 -0.9686,1.113 -0.6559,1.788 z m 10.1828,-4.7174 c 0.3127,0.6749 1.113,0.9685 1.788,0.6558 0.675,-0.3127 0.9685,-1.113 0.6558,-1.788 L 376.8315,40.6734 c -0.3127,-0.675 -1.113,-0.9685 -1.788,-0.6558 -0.675,0.3127 -0.9685,1.113 -0.6559,1.788 z" clip-path="url(#1231156949448-clipPath1)" id="path188" ns1:connector-curvature="0" style="fill:#f5d0fe;stroke:none" />
    </g>
    <g id="g190" style="fill:#eef2ff;stroke:none;text-rendering:geometricPrecision">
      </g>
    <g font-size="22px" transform="translate(531.7327,440.2001)" id="g194" style="font-size:22px;font-family:sans-serif;fill:#fbbf24;stroke:none;text-rendering:geometricPrecision">
      <text x="0" xml:space="preserve" y="21" clip-path="url(#1231156949863-clipPath1)" id="text196" style="stroke:none">F</text>
    </g>
    <g font-size="22px" id="g198" style="font-size:22px;font-family:sans-serif;fill:#eef2ff;stroke:none;text-rendering:geometricPrecision">
      <text x="0" y="21" transform="translate(479.2324,350.2239)" clip-path="url(#1231156949766-clipPath1)" xml:space="preserve" id="text202" style="fill:#c4b5fd;stroke:none">N</text>
    </g>
    <g font-size="22px" id="g204" style="font-size:22px;font-family:sans-serif;fill:#eef2ff;stroke:none;text-rendering:geometricPrecision">
      <text x="0" y="21" transform="translate(393.7124,239.631)" clip-path="url(#1231156949520-clipPath1)" xml:space="preserve" id="text208" style="fill:#c4b5fd;stroke:none">N</text>
    </g>
    <g font-size="22px" id="g210" style="font-size:22px;font-family:sans-serif;fill:#eef2ff;stroke:none;text-rendering:geometricPrecision">
      <text x="0" y="21" transform="translate(483.4021,184.9159)" clip-path="url(#1231156949674-clipPath1)" xml:space="preserve" id="text214" style="fill:#fda4af;stroke:none">O</text>
    </g>
    <g font-size="22px" id="g216" style="font-size:22px;font-family:sans-serif;fill:#eef2ff;stroke:none;text-rendering:geometricPrecision">
      <text x="0" y="21" transform="translate(553.9893,276.8445)" clip-path="url(#1231156949722-clipPath1)" xml:space="preserve" id="text220" style="fill:#fda4af;stroke:none">OH</text>
    </g>
    <g font-size="22px" id="g222" style="font-size:22px;font-family:sans-serif;fill:#eef2ff;stroke:none;text-rendering:geometricPrecision">
      <text x="0" y="21" transform="translate(213.0107,412.5838)" clip-path="url(#1231156949482-clipPath1)" xml:space="preserve" id="text226" style="fill:#6ee7b7;stroke:none">Cl</text>
    </g>
    <g font-size="22px" id="g228" style="font-size:22px;font-family:sans-serif;fill:#eef2ff;stroke:none;text-rendering:geometricPrecision">
      <text x="0" y="21" transform="translate(351.0652,19.3938)" clip-path="url(#1231156949286-clipPath1)" xml:space="preserve" id="text232" style="fill:#c4b5fd;stroke:none">N</text>
    </g>
  </g>
</svg>