<?xml version='1.0' encoding='utf-8'?>
<svg xmlns="http://www.w3.org/2000/svg" xmlns:dc="http://purl.org/dc/elements/1.1/" xmlns:ns1="http://www.inkscape.org/namespaces/inkscape" xmlns:ns2="http://sodipodi.sourceforge.net/DTD/sodipodi-0.dtd" xmlns:ns4="http://creativecommons.org/ns#" xmlns:rdf="http://www.w3.org/1999/02/22-rdf-syntax-ns#" width="719.94061" stroke-miterlimit="10" font-weight="normal" height="480.8894" font-style="normal" font-size="12px" id="svg2" version="1.1" ns1:version="0.91 r13725" ns2:docname="Clonidine.svg" style="font-style:normal;font-weight:normal;font-size:12px;font-family:Dialog;color-interpolation:auto;fill:#000000;fill-opacity:1;stroke:none;stroke:none;stroke:none;stroke:none;stroke:none;stroke:none;stroke:none;stroke:none;color-rendering:auto;image-rendering:auto;shape-rendering:auto;text-rendering:auto">
  <metadata id="metadata167">
    <rdf:RDF>
      <ns4:Work rdf:about="">
        <dc:format>image/svg+xml</dc:format>
        <dc:type rdf:resource="http://purl.org/dc/dcmitype/StillImage" />
        <dc:title />
      </ns4:Work>
    </rdf:RDF>
  </metadata>
  <ns2:namedview pagecolor="#ffffff" bordercolor="#666666" borderopacity="1" objecttolerance="10" gridtolerance="10" guidetolerance="10" ns1:pageopacity="0" ns1:pageshadow="2" ns1:window-width="1060" ns1:window-height="480" id="namedview165" showgrid="false" fit-margin-top="10" fit-margin-left="10" fit-margin-right="10" fit-margin-bottom="10" ns1:zoom="0.36375" ns1:cx="359.97032" ns1:cy="240.4447" ns1:window-x="0" ns1:window-y="0" ns1:window-maximized="0" ns1:current-layer="svg2" />
  
  <defs id="genericDefs" />
  <g id="g5" transform="translate(-40.029676,-59.5553)" style="fill:#000000;stroke:none">
    <defs id="1423613758382-defs1">
      <clipPath clipPathUnits="userSpaceOnUse" id="1423613758960-clipPath1">
        <path d="M 0,0 800,0 800,600 0,600 0,0 Z" id="path9" ns1:connector-curvature="0" style="stroke:none" />
      </clipPath>
      <clipPath clipPathUnits="userSpaceOnUse" id="1423613758362-clipPath1">
        <path d="m 569.5342,386.2193 c -30.6886,0 -55.5667,24.878 -55.5667,55.5666 0,30.6886 24.8781,55.5665 55.5667,55.5665 30.6885,0 55.5666,-24.8779 55.5666,-55.5665 0,-30.6886 -24.8781,-55.5666 -55.5666,-55.5666 z" id="path12" ns1:connector-curvature="0" style="stroke:none" />
      </clipPath>
      <clipPath clipPathUnits="userSpaceOnUse" id="1423613758247-clipPath1">
        <path d="m 529.3505,247.709 c -28.6275,0 -51.8347,23.2072 -51.8347,51.8347 0,28.6276 23.2072,51.8348 51.8347,51.8348 28.6275,0 51.8347,-23.2072 51.8347,-51.8348 0,-28.6275 -23.2072,-51.8347 -51.8347,-51.8347 z" id="path15" ns1:connector-curvature="0" style="stroke:none" />
      </clipPath>
      <clipPath clipPathUnits="userSpaceOnUse" id="1423613758976-clipPath1">
        <path d="m 746.9933,299.2375 c -25.7202,0 -46.5706,20.8504 -46.5706,46.5706 0,25.7202 20.8504,46.5705 46.5706,46.5705 25.7202,0 46.5705,-20.8503 46.5705,-46.5705 0,-25.7202 -20.8503,-46.5706 -46.5705,-46.5706 z" id="path18" ns1:connector-curvature="0" style="stroke:none" />
      </clipPath>
      <clipPath clipPathUnits="userSpaceOnUse" id="1423613758882-clipPath1">
        <path d="m 529.3505,244.808 c -30.2297,0 -54.7357,24.506 -54.7357,54.7357 0,30.2297 24.506,54.7357 54.7357,54.7357 30.2297,0 54.7357,-24.506 54.7357,-54.7357 0,-30.2297 -24.506,-54.7357 -54.7357,-54.7357 z" id="path21" ns1:connector-curvature="0" style="stroke:none" />
      </clipPath>
      <clipPath clipPathUnits="userSpaceOnUse" id="142361375866-clipPath1">
        <path d="m 291.1751,386.2498 c -28.0689,0 -50.8233,22.7544 -50.8233,50.8233 0,28.069 22.7544,50.8233 50.8233,50.8233 28.0689,0 50.8233,-22.7543 50.8233,-50.8233 0,-28.0689 -22.7544,-50.8233 -50.8233,-50.8233 z" id="path24" ns1:connector-curvature="0" style="stroke:none" />
      </clipPath>
      <clipPath clipPathUnits="userSpaceOnUse" id="1423613758584-clipPath1">
        <path d="m 172.0826,180.2957 c -27.8876,0 -50.4949,22.6073 -50.4949,50.4948 0,27.8876 22.6073,50.4949 50.4949,50.4949 27.8875,0 50.4948,-22.6073 50.4948,-50.4949 0,-27.8875 -22.6073,-50.4948 -50.4948,-50.4948 z" id="path27" ns1:connector-curvature="0" style="stroke:none" />
      </clipPath>
      <clipPath clipPathUnits="userSpaceOnUse" id="1423613758192-clipPath1">
        <path d="m 291.1751,245.3792 c -29.9154,0 -54.1666,24.2512 -54.1666,54.1666 0,29.9154 24.2512,54.1667 54.1666,54.1667 29.9154,0 54.1667,-24.2513 54.1667,-54.1667 0,-29.9154 -24.2513,-54.1666 -54.1667,-54.1666 z" id="path30" ns1:connector-curvature="0" style="stroke:none" />
      </clipPath>
      <clipPath clipPathUnits="userSpaceOnUse" id="1423613758278-clipPath1">
        <path d="m 435.5305,191.2111 c -29.9154,0 -54.1667,24.2513 -54.1667,54.1668 0,29.9154 24.2513,54.1667 54.1667,54.1667 29.9155,0 54.1667,-24.2513 54.1667,-54.1667 0,-29.9155 -24.2512,-54.1668 -54.1667,-54.1668 z" id="path33" ns1:connector-curvature="0" style="stroke:none" />
      </clipPath>
      <clipPath clipPathUnits="userSpaceOnUse" id="1423613758272-clipPath1">
        <path d="m -148.1097,-64.2799 800,0 0,600 -800,0 0,-600 z" id="path36" ns1:connector-curvature="0" style="stroke:none" />
      </clipPath>
      <clipPath clipPathUnits="userSpaceOnUse" id="1423613758448-clipPath1">
        <path d="m -386.2935,-476.8295 800,0 0,600 -800,0 0,-600 z" id="path39" ns1:connector-curvature="0" style="stroke:none" />
      </clipPath>
      <clipPath clipPathUnits="userSpaceOnUse" id="1423613758241-clipPath1">
        <path d="m -392.232,-152.6785 800,0 0,600 -800,0 0,-600 z" id="path42" ns1:connector-curvature="0" style="stroke:none" />
      </clipPath>
      <clipPath clipPathUnits="userSpaceOnUse" id="1423613758269-clipPath1">
        <path d="m -392.231,-201.7895 800,0 0,600 -800,0 0,-600 z" id="path45" ns1:connector-curvature="0" style="stroke:none" />
      </clipPath>
      <clipPath clipPathUnits="userSpaceOnUse" id="14236137583-clipPath1">
        <path d="m -525.7074,-407.3018 800,0 0,599.9999 -800,0 0,-599.9999 z" id="path48" ns1:connector-curvature="0" style="stroke:none" />
      </clipPath>
      <clipPath clipPathUnits="userSpaceOnUse" id="1423613758276-clipPath1">
        <path d="m -636.9493,-214.6252 800,0 0,600 -800,0 0,-600 z" id="path51" ns1:connector-curvature="0" style="stroke:none" />
      </clipPath>
    </defs>
    <g id="g53" style="text-rendering:geometricPrecision;fill:#000000;stroke:none">
      <path d="m 170.9942,263.4972 c 1.4238,-0.8222 1.9114,-2.642 1.0893,-4.0659 -0.8222,-1.4238 -2.6421,-1.9114 -4.0659,-1.0892 l -89.1181,51.4574 c -1.4239,0.8222 -1.9114,2.6421 -1.0893,4.0659 0.8221,1.4238 2.642,1.9114 4.0659,1.0893 z m 2.5767,-30.1291 c 1.4238,-0.8222 1.9114,-2.6421 1.0892,-4.0659 -0.8221,-1.4238 -2.642,-1.9114 -4.0658,-1.0892 L 51.5184,296.9683 c -1.4238,0.8221 -1.9114,2.642 -1.0893,4.0658 0.8222,1.4239 2.6421,1.9114 4.0659,1.0893 z" clip-path="url(#1423613758960-clipPath1)" id="path55" ns1:connector-curvature="0" style="stroke:none" />
    </g>
    <g id="g57" style="text-rendering:geometricPrecision;fill:#000000;stroke:none">
      <path d="m 50.0303,299.5458 0,137.5273 c 0,1.6442 1.3323,2.9764 2.9764,2.9764 1.6442,0 2.9764,-1.3322 2.9764,-2.9764 l 0,-137.5273 c 0,-1.6441 -1.3322,-2.9764 -2.9764,-2.9764 -1.6441,0 -2.9764,1.3323 -2.9764,2.9764 z" clip-path="url(#1423613758960-clipPath1)" id="path59" ns1:connector-curvature="0" style="stroke:none" />
    </g>
    <g id="g61" style="text-rendering:geometricPrecision;fill:#000000;stroke:none">
      <path d="m 81.8761,421.6643 c -1.4239,-0.8222 -3.2438,-0.3346 -4.0659,1.0892 -0.8221,1.4239 -0.3346,3.2438 1.0892,4.0659 l 89.1182,51.4575 c 1.4238,0.8221 3.2437,0.3346 4.0659,-1.0893 0.8221,-1.4238 0.3345,-3.2437 -1.0893,-4.0658 z M 54.495,434.4955 c -1.4238,-0.8221 -3.2437,-0.3345 -4.0659,1.0893 -0.8221,1.4238 -0.3345,3.2438 1.0893,4.0659 l 119.0759,68.7553 c 1.4238,0.8221 3.2437,0.3346 4.0658,-1.0893 0.8222,-1.4238 0.3346,-3.2437 -1.0892,-4.0658 z" clip-path="url(#1423613758960-clipPath1)" id="path63" ns1:connector-curvature="0" style="stroke:none" />
    </g>
    <g id="g65" style="text-rendering:geometricPrecision;fill:#000000;stroke:none">
      <path d="m 173.5707,508.4061 119.0926,-68.7553 c 1.4238,-0.8221 1.9115,-2.6419 1.0895,-4.0658 -0.8221,-1.4239 -2.642,-1.9116 -4.0658,-1.0895 l -119.0926,68.7553 c -1.4239,0.822 -1.9115,2.6419 -1.0895,4.0658 0.8221,1.4239 2.642,1.9115 4.0658,1.0895 z" clip-path="url(#1423613758960-clipPath1)" id="path67" ns1:connector-curvature="0" style="stroke:none" />
    </g>
    <g id="g69" style="text-rendering:geometricPrecision;fill:#000000;stroke:none">
      <path d="m 263.3952,419.7762 c 0,1.6441 1.3323,2.9763 2.9764,2.9763 1.6442,0 2.9764,-1.3322 2.9764,-2.9763 l 0,-102.9334 c 0,-1.6441 -1.3322,-2.9764 -2.9764,-2.9764 -1.6441,0 -2.9764,1.3323 -2.9764,2.9764 z m 24.8035,17.2969 c 0,1.6442 1.3323,2.9764 2.9764,2.9764 1.6441,0 2.9764,-1.3322 2.9764,-2.9764 l 0,-137.5273 c 0,-1.6441 -1.3323,-2.9764 -2.9764,-2.9764 -1.6441,0 -2.9764,1.3323 -2.9764,2.9764 z" clip-path="url(#1423613758960-clipPath1)" id="path71" ns1:connector-curvature="0" style="stroke:none" />
    </g>
    <g id="g73" style="text-rendering:geometricPrecision;fill:#000000;stroke:none">
      <path d="M 292.6633,296.9682 173.5707,228.2129 c -1.4238,-0.8221 -3.2437,-0.3344 -4.0658,1.0895 -0.822,1.4238 -0.3344,3.2437 1.0895,4.0658 l 119.0926,68.7553 c 1.4238,0.822 3.2437,0.3344 4.0658,-1.0895 0.822,-1.4239 0.3344,-3.2438 -1.0895,-4.0658 z" clip-path="url(#1423613758960-clipPath1)" id="path75" ns1:connector-curvature="0" style="stroke:none" />
    </g>
    <g id="g77" style="text-rendering:geometricPrecision;fill:#000000;stroke:none">
      <path d="m 680.8156,466.3839 68.7553,-119.0876 c 0.8221,-1.4239 0.3344,-3.2438 -1.0894,-4.0659 -1.4239,-0.822 -3.2438,-0.3344 -4.0659,1.0895 l -68.7553,119.0877 c -0.822,1.4238 -0.3344,3.2437 1.0895,4.0658 1.4238,0.8221 3.2437,0.3344 4.0658,-1.0895 z" clip-path="url(#1423613758960-clipPath1)" id="path79" ns1:connector-curvature="0" style="stroke:none" />
    </g>
    <g id="g81" style="text-rendering:geometricPrecision;fill:#000000;stroke:none">
      <path d="m 568.9152,444.6972 108.7038,23.1099 c 1.6082,0.3419 3.1884,-0.6842 3.5303,-2.2924 0.3419,-1.6082 -0.6842,-3.1884 -2.2924,-3.5303 L 570.1531,438.8745 c -1.6082,-0.3419 -3.1884,0.6842 -3.5303,2.2924 -0.3419,1.6082 0.6842,3.1884 2.2924,3.5303 z" clip-path="url(#1423613758960-clipPath1)" id="path83" ns1:connector-curvature="0" style="stroke:none" />
      <path d="m 568.9152,444.6972 108.7038,23.1099 c 1.6082,0.3419 3.1884,-0.6842 3.5303,-2.2924 0.3419,-1.6082 -0.6842,-3.1884 -2.2924,-3.5303 L 570.1531,438.8745 c -1.6082,-0.3419 -3.1884,0.6842 -3.5303,2.2924 -0.3419,1.6082 0.6842,3.1884 2.2924,3.5303 z" clip-path="url(#1423613758362-clipPath1)" id="path85" ns1:connector-curvature="0" style="fill:#333399;stroke:none" />
    </g>
    <g id="g87" style="fill:#333399;stroke:none;text-rendering:geometricPrecision">
      <path d="m 559.1753,317.5229 c -0.1721,-1.6351 -1.6364,-2.8207 -3.2715,-2.6486 -1.6351,0.172 -2.8207,1.6364 -2.6486,3.2715 l 8.6496,82.2146 c 0.1721,1.6351 1.6364,2.8206 3.2715,2.6486 1.6352,-0.172 2.8207,-1.6363 2.6487,-3.2715 z m -26.8648,-18.2906 c -0.172,-1.6351 -1.6363,-2.8206 -3.2714,-2.6486 -1.6351,0.172 -2.8207,1.6363 -2.6487,3.2715 l 10.8471,103.1004 c 0.172,1.6351 1.6364,2.8206 3.2715,2.6486 1.6351,-0.172 2.8207,-1.6363 2.6487,-3.2715 z" clip-path="url(#1423613758960-clipPath1)" id="path89" ns1:connector-curvature="0" style="stroke:none" />
      <path d="m 559.1753,317.5229 c -0.1721,-1.6351 -1.6364,-2.8207 -3.2715,-2.6486 -1.6351,0.172 -2.8207,1.6364 -2.6486,3.2715 l 8.6496,82.2146 c 0.1721,1.6351 1.6364,2.8206 3.2715,2.6486 1.6352,-0.172 2.8207,-1.6363 2.6487,-3.2715 z m -26.8648,-18.2906 c -0.172,-1.6351 -1.6363,-2.8206 -3.2714,-2.6486 -1.6351,0.172 -2.8207,1.6363 -2.6487,3.2715 l 10.8471,103.1004 c 0.172,1.6351 1.6364,2.8206 3.2715,2.6486 1.6351,-0.172 2.8207,-1.6363 2.6487,-3.2715 z" clip-path="url(#1423613758247-clipPath1)" id="path91" ns1:connector-curvature="0" style="fill:#000000;stroke:none" />
    </g>
    <g id="g93" style="fill:#333399;stroke:none;text-rendering:geometricPrecision">
      <path d="M 749.2051,343.8164 686.879,274.6013 c -1.1002,-1.2217 -2.9817,-1.3203 -4.2035,-0.2201 -1.2218,1.1002 -1.3203,2.9817 -0.2201,4.2035 l 62.3261,69.215 c 1.1002,1.2218 2.9817,1.3204 4.2035,0.2202 1.2218,-1.1002 1.3203,-2.9817 0.2201,-4.2035 z" clip-path="url(#1423613758960-clipPath1)" id="path95" ns1:connector-curvature="0" style="stroke:none" />
      <path d="M 749.2051,343.8164 686.879,274.6013 c -1.1002,-1.2217 -2.9817,-1.3203 -4.2035,-0.2201 -1.2218,1.1002 -1.3203,2.9817 -0.2201,4.2035 l 62.3261,69.215 c 1.1002,1.2218 2.9817,1.3204 4.2035,0.2202 1.2218,-1.1002 1.3203,-2.9817 0.2201,-4.2035 z" clip-path="url(#1423613758976-clipPath1)" id="path97" ns1:connector-curvature="0" style="fill:#000000;stroke:none" />
    </g>
    <g id="g99" style="fill:#333399;stroke:none;text-rendering:geometricPrecision">
      <path d="m 530.5609,302.2629 100.0117,-44.5157 c 1.502,-0.6686 2.1774,-2.4274 1.5088,-3.9295 -0.6686,-1.5021 -2.4274,-2.1774 -3.9295,-1.5089 l -100.0117,44.5158 c -1.5021,0.6685 -2.1775,2.4274 -1.5089,3.9295 0.6686,1.502 2.4275,2.1774 3.9296,1.5088 z" clip-path="url(#1423613758960-clipPath1)" id="path101" ns1:connector-curvature="0" style="stroke:none" />
      <path d="m 530.5609,302.2629 100.0117,-44.5157 c 1.502,-0.6686 2.1774,-2.4274 1.5088,-3.9295 -0.6686,-1.5021 -2.4274,-2.1774 -3.9295,-1.5089 l -100.0117,44.5158 c -1.5021,0.6685 -2.1775,2.4274 -1.5089,3.9295 0.6686,1.502 2.4275,2.1774 3.9296,1.5088 z" clip-path="url(#1423613758882-clipPath1)" id="path103" ns1:connector-curvature="0" style="fill:#000000;stroke:none" />
    </g>
    <g id="g105" style="fill:#009900;stroke:none;text-rendering:geometricPrecision">
      <path d="m 289.6869,439.6507 88.0281,50.8241 c 1.4238,0.8221 3.2437,0.3345 4.0658,-1.0894 0.8221,-1.4239 0.3345,-3.2437 -1.0894,-4.0658 l -88.0281,-50.8241 c -1.4238,-0.8221 -3.2437,-0.3345 -4.0658,1.0894 -0.8221,1.4239 -0.3345,3.2437 1.0894,4.0658 z" clip-path="url(#1423613758960-clipPath1)" id="path107" ns1:connector-curvature="0" style="stroke:none" />
      <path d="m 289.6869,439.6507 88.0281,50.8241 c 1.4238,0.8221 3.2437,0.3345 4.0658,-1.0894 0.8221,-1.4239 0.3345,-3.2437 -1.0894,-4.0658 l -88.0281,-50.8241 c -1.4238,-0.8221 -3.2437,-0.3345 -4.0658,1.0894 -0.8221,1.4239 -0.3345,3.2437 1.0894,4.0658 z" clip-path="url(#142361375866-clipPath1)" id="path109" ns1:connector-curvature="0" style="fill:#000000;stroke:none" />
    </g>
    <g id="g111" style="fill:#009900;stroke:none;text-rendering:geometricPrecision">
      <path d="m 175.059,230.7904 -0.003,-100.9897 c 0,-1.6442 -1.3323,-2.9764 -2.9765,-2.9763 -1.6441,0 -2.9763,1.3323 -2.9763,2.9765 l 0.003,100.9897 c 0,1.6442 1.3323,2.9764 2.9765,2.9763 1.6441,0 2.9763,-1.3323 2.9763,-2.9765 z" clip-path="url(#1423613758960-clipPath1)" id="path113" ns1:connector-curvature="0" style="stroke:none" />
      <path d="m 175.059,230.7904 -0.003,-100.9897 c 0,-1.6442 -1.3323,-2.9764 -2.9765,-2.9763 -1.6441,0 -2.9763,1.3323 -2.9763,2.9765 l 0.003,100.9897 c 0,1.6442 1.3323,2.9764 2.9765,2.9763 1.6441,0 2.9763,-1.3323 2.9763,-2.9765 z" clip-path="url(#1423613758584-clipPath1)" id="path115" ns1:connector-curvature="0" style="fill:#000000;stroke:none" />
    </g>
    <g id="g117" style="fill:#333399;stroke:none;text-rendering:geometricPrecision">
      <path d="m 292.6633,302.1234 93.819,-54.1674 c 1.4238,-0.8221 1.9115,-2.642 1.0894,-4.0659 -0.8221,-1.4238 -2.642,-1.9115 -4.0659,-1.0894 l -93.8189,54.1675 c -1.4239,0.8221 -1.9115,2.642 -1.0894,4.0659 0.8221,1.4238 2.642,1.9114 4.0658,1.0893 z" clip-path="url(#1423613758960-clipPath1)" id="path119" ns1:connector-curvature="0" style="stroke:none" />
      <path d="m 292.6633,302.1234 93.819,-54.1674 c 1.4238,-0.8221 1.9115,-2.642 1.0894,-4.0659 -0.8221,-1.4238 -2.642,-1.9115 -4.0659,-1.0894 l -93.8189,54.1675 c -1.4239,0.8221 -1.9115,2.642 -1.0894,4.0659 0.8221,1.4238 2.642,1.9114 4.0658,1.0893 z" clip-path="url(#1423613758192-clipPath1)" id="path121" ns1:connector-curvature="0" style="fill:#000000;stroke:none" />
    </g>
    <g id="g123" style="text-rendering:geometricPrecision;fill:#000000;stroke:none">
      <path d="m 434.0424,247.9555 93.8199,54.1659 c 1.4239,0.822 3.2438,0.3344 4.0659,-1.0895 0.822,-1.4239 0.3344,-3.2438 -1.0895,-4.0658 l -93.82,-54.1659 c -1.4239,-0.8221 -3.2438,-0.3344 -4.0658,1.0895 -0.8221,1.4239 -0.3344,3.2437 1.0895,4.0658 z" clip-path="url(#1423613758960-clipPath1)" id="path125" ns1:connector-curvature="0" style="stroke:none" />
      <path d="m 434.0424,247.9555 93.8199,54.1659 c 1.4239,0.822 3.2438,0.3344 4.0659,-1.0895 0.822,-1.4239 0.3344,-3.2438 -1.0895,-4.0658 l -93.82,-54.1659 c -1.4239,-0.8221 -3.2438,-0.3344 -4.0658,1.0895 -0.8221,1.4239 -0.3344,3.2437 1.0895,4.0658 z" clip-path="url(#1423613758278-clipPath1)" id="path127" ns1:connector-curvature="0" style="fill:#333399;stroke:none" />
    </g>
    <g id="g129" style="fill:#ffffff;stroke:none;text-rendering:geometricPrecision">
      </g>
    <g font-size="49px" transform="translate(148.1097,64.2799)" id="g133" style="font-size:49px;font-family:sans-serif;fill:#009900;stroke:none;text-rendering:geometricPrecision">
      <text x="0" xml:space="preserve" y="47" clip-path="url(#1423613758272-clipPath1)" id="text135" style="stroke:none">Cl</text>
    </g>
    <g font-size="49px" id="g137" style="font-size:49px;font-family:sans-serif;fill:#ffffff;stroke:none;text-rendering:geometricPrecision">
      <text x="0" y="47" transform="translate(386.2935,476.8295)" clip-path="url(#1423613758448-clipPath1)" xml:space="preserve" id="text141" style="fill:#009900;stroke:none">Cl</text>
    </g>
    <g font-size="49px" id="g143" style="font-size:49px;font-family:sans-serif;fill:#ffffff;stroke:none;text-rendering:geometricPrecision">
      <text x="0" y="47" transform="translate(392.232,152.6785)" clip-path="url(#1423613758241-clipPath1)" xml:space="preserve" id="text147" style="fill:#333399;stroke:none">H</text>
    </g>
    <g font-size="49px" transform="translate(392.231,201.7895)" id="g149" style="font-size:49px;font-family:sans-serif;fill:#333399;stroke:none;text-rendering:geometricPrecision">
      <text x="0" xml:space="preserve" y="47" clip-path="url(#1423613758269-clipPath1)" id="text151" style="stroke:none">N</text>
    </g>
    <g font-size="49px" id="g153" style="font-size:49px;font-family:sans-serif;fill:#ffffff;stroke:none;text-rendering:geometricPrecision">
      <text x="0" y="47" transform="translate(525.7074,407.3019)" clip-path="url(#14236137583-clipPath1)" xml:space="preserve" id="text157" style="fill:#333399;stroke:none">N</text>
    </g>
    <g font-size="49px" id="g159" style="font-size:49px;font-family:sans-serif;fill:#ffffff;stroke:none;text-rendering:geometricPrecision">
      <text x="0" y="47" transform="translate(636.9493,214.6252)" clip-path="url(#1423613758276-clipPath1)" xml:space="preserve" id="text163" style="fill:#333399;stroke:none">NH</text>
    </g>
  </g>
</svg>