<?xml version='1.0' encoding='utf-8'?>
<svg xmlns="http://www.w3.org/2000/svg" xmlns:dc="http://purl.org/dc/elements/1.1/" xmlns:ns1="http://www.inkscape.org/namespaces/inkscape" xmlns:ns2="http://sodipodi.sourceforge.net/DTD/sodipodi-0.dtd" xmlns:ns4="http://creativecommons.org/ns#" xmlns:rdf="http://www.w3.org/1999/02/22-rdf-syntax-ns#" width="693.0755" stroke-miterlimit="10" font-weight="normal" height="434.74677" font-style="normal" font-size="12px" id="svg2" version="1.1" ns1:version="0.91 r13725" ns2:docname="Dextropropoxyphene.svg" style="font-style:normal;font-weight:normal;font-size:12px;font-family:Dialog;color-interpolation:auto;fill:#000000;fill-opacity:1;stroke:none;stroke:none;stroke:none;stroke:none;stroke:none;stroke:none;stroke:none;stroke:none;color-rendering:auto;image-rendering:auto;shape-rendering:auto;text-rendering:auto">
  <metadata id="metadata194">
    <rdf:RDF>
      <ns4:Work rdf:about="">
        <dc:format>image/svg+xml</dc:format>
        <dc:type rdf:resource="http://purl.org/dc/dcmitype/StillImage" />
        <dc:title />
      </ns4:Work>
    </rdf:RDF>
  </metadata>
  <ns2:namedview pagecolor="#ffffff" bordercolor="#666666" borderopacity="1" objecttolerance="10" gridtolerance="10" guidetolerance="10" ns1:pageopacity="0" ns1:pageshadow="2" ns1:window-width="1060" ns1:window-height="480" id="namedview192" showgrid="false" fit-margin-top="10" fit-margin-left="10" fit-margin-right="10" fit-margin-bottom="10" ns1:zoom="0.25721009" ns1:cx="544.2401" ns1:cy="248.44627" ns1:window-x="0" ns1:window-y="0" ns1:window-maximized="0" ns1:current-layer="svg2" />
  
  <defs id="genericDefs" />
  <g id="g5" transform="translate(-23.789,-82.4827)" style="fill:#000000;stroke:none">
    <defs id="185538628180-defs1">
      <clipPath clipPathUnits="userSpaceOnUse" id="1855386281204-clipPath1">
        <path d="M 0,0 800,0 800,600 0,600 0,0 Z" id="path9" ns1:connector-curvature="0" style="stroke:none" />
      </clipPath>
      <clipPath clipPathUnits="userSpaceOnUse" id="1855386281903-clipPath1">
        <path d="m 549.6567,280.9397 c -20.4091,0 -36.9541,16.5448 -36.9541,36.954 0,20.4091 16.545,36.954 36.9541,36.954 20.4092,0 36.954,-16.5449 36.954,-36.954 0,-20.4092 -16.5448,-36.954 -36.954,-36.954 z" id="path12" ns1:connector-curvature="0" style="stroke:none" />
      </clipPath>
      <clipPath clipPathUnits="userSpaceOnUse" id="1855386281373-clipPath1">
        <path d="m 630.7584,356.4623 c -17.267,0 -31.2647,13.9977 -31.2647,31.2646 0,17.267 13.9977,31.2646 31.2647,31.2646 17.2669,0 31.2645,-13.9976 31.2645,-31.2646 0,-17.2669 -13.9976,-31.2646 -31.2645,-31.2646 z" id="path15" ns1:connector-curvature="0" style="stroke:none" />
      </clipPath>
      <clipPath clipPathUnits="userSpaceOnUse" id="1855386281102-clipPath1">
        <path d="m 647.8529,321.9468 c -18.1702,0 -32.9,14.7298 -32.9,32.9 0,18.1702 14.7298,32.9 32.9,32.9 18.1702,0 32.9,-14.7298 32.9,-32.9 0,-18.1702 -14.7298,-32.9 -32.9,-32.9 z" id="path18" ns1:connector-curvature="0" style="stroke:none" />
      </clipPath>
      <clipPath clipPathUnits="userSpaceOnUse" id="1855386281599-clipPath1">
        <path d="m 144.1566,330.9375 c -18.6573,0 -33.782,15.1247 -33.782,33.782 0,18.6574 15.1247,33.7821 33.782,33.7821 18.6573,0 33.7821,-15.1247 33.7821,-33.7821 0,-18.6573 -15.1248,-33.782 -33.7821,-33.782 z" id="path21" ns1:connector-curvature="0" style="stroke:none" />
      </clipPath>
      <clipPath clipPathUnits="userSpaceOnUse" id="1855386281689-clipPath1">
        <path d="m 387.4546,282.5563 c -19.5171,0 -35.3388,15.8217 -35.3388,35.3388 0,19.5171 15.8217,35.3388 35.3388,35.3388 19.5171,0 35.3388,-15.8217 35.3388,-35.3388 0,-19.5171 -15.8217,-35.3388 -35.3388,-35.3388 z" id="path24" ns1:connector-curvature="0" style="stroke:none" />
      </clipPath>
      <clipPath clipPathUnits="userSpaceOnUse" id="1855386281433-clipPath1">
        <path d="m 468.8884,201.4778 c -19.8745,0 -35.986,16.1115 -35.986,35.986 0,19.8745 16.1115,35.986 35.986,35.986 19.8745,0 35.986,-16.1115 35.986,-35.986 0,-19.8745 -16.1115,-35.986 -35.986,-35.986 z" id="path27" ns1:connector-curvature="0" style="stroke:none" />
      </clipPath>
      <clipPath clipPathUnits="userSpaceOnUse" id="1855386281772-clipPath1">
        <path d="m 531.218,166.6788 c -19.219,0 -34.7991,15.58 -34.7991,34.799 0,19.219 15.5801,34.7991 34.7991,34.7991 19.219,0 34.799,-15.5801 34.799,-34.7991 0,-19.219 -15.58,-34.799 -34.799,-34.799 z" id="path30" ns1:connector-curvature="0" style="stroke:none" />
      </clipPath>
      <clipPath clipPathUnits="userSpaceOnUse" id="185538628135-clipPath1">
        <path d="m -31.289,-298.3976 800.0001,0 0,600 -800.0001,0 0,-600 z" id="path33" ns1:connector-curvature="0" style="stroke:none" />
      </clipPath>
      <clipPath clipPathUnits="userSpaceOnUse" id="1855386281579-clipPath1">
        <path d="m -618.6487,-345.2167 799.9999,0 0,600 -799.9999,0 0,-600 z" id="path36" ns1:connector-curvature="0" style="stroke:none" />
      </clipPath>
      <clipPath clipPathUnits="userSpaceOnUse" id="1855386281195-clipPath1">
        <path d="m -436.9607,-228.8015 800,0 0,600 -800,0 0,-600 z" id="path39" ns1:connector-curvature="0" style="stroke:none" />
      </clipPath>
      <clipPath clipPathUnits="userSpaceOnUse" id="1855386281501-clipPath1">
        <path d="m -518.0618,-88.3304 800.0001,0 0,600 -800.0001,0 0,-600 z" id="path42" ns1:connector-curvature="0" style="stroke:none" />
      </clipPath>
    </defs>
    <g id="g44" style="text-rendering:geometricPrecision;fill:#000000;stroke:none">
      <path d="m 224.5084,340.1697 c 0.9697,-0.5599 1.3017,-1.7993 0.7418,-2.7689 -0.5599,-0.9697 -1.7993,-1.3017 -2.7689,-0.7418 l -60.6912,35.0435 c -0.9697,0.5599 -1.3017,1.7993 -0.7418,2.7689 0.5599,0.9697 1.7993,1.3017 2.7689,0.7419 z m 1.7548,-20.5185 c 0.9696,-0.5599 1.3017,-1.7993 0.7418,-2.7689 -0.5599,-0.9697 -1.7993,-1.3017 -2.7689,-0.7419 l -81.093,46.8238 c -0.9697,0.5598 -1.3017,1.7992 -0.7418,2.7689 0.5599,0.9697 1.7992,1.3017 2.7689,0.7418 z" clip-path="url(#1855386281204-clipPath1)" id="path46" ns1:connector-curvature="0" style="stroke:none" />
    </g>
    <g id="g48" style="text-rendering:geometricPrecision;fill:#000000;stroke:none">
      <path d="m 142.1297,364.7195 0,93.6588 c 0,1.1197 0.9072,2.027 2.0269,2.027 1.1197,0 2.027,-0.9073 2.027,-2.027 l 0,-93.6588 c 0,-1.1196 -0.9073,-2.0269 -2.027,-2.0269 -1.1197,0 -2.0269,0.9073 -2.0269,2.0269 z" clip-path="url(#1855386281204-clipPath1)" id="path50" ns1:connector-curvature="0" style="stroke:none" />
    </g>
    <g id="g52" style="text-rendering:geometricPrecision;fill:#000000;stroke:none">
      <path d="m 163.8172,447.8846 c -0.9696,-0.5599 -2.209,-0.2279 -2.7689,0.7418 -0.5599,0.9696 -0.2279,2.209 0.7418,2.7689 l 60.6912,35.0436 c 0.9696,0.5598 2.209,0.2278 2.7689,-0.7418 0.5599,-0.9697 0.2279,-2.2091 -0.7418,-2.769 z m -18.647,8.7383 c -0.9697,-0.5599 -2.209,-0.2278 -2.7689,0.7418 -0.5599,0.9697 -0.2279,2.2091 0.7418,2.769 l 81.093,46.8237 c 0.9696,0.5599 2.209,0.2278 2.7689,-0.7418 0.5599,-0.9697 0.2278,-2.2091 -0.7418,-2.769 z" clip-path="url(#1855386281204-clipPath1)" id="path54" ns1:connector-curvature="0" style="stroke:none" />
    </g>
    <g id="g56" style="text-rendering:geometricPrecision;fill:#000000;stroke:none">
      <path d="m 226.2631,506.9575 81.1043,-46.8238 c 0.9697,-0.5598 1.3018,-1.7992 0.742,-2.7689 -0.5598,-0.9697 -1.7992,-1.3018 -2.7689,-0.7419 l -81.1043,46.8237 c -0.9697,0.5598 -1.3018,1.7992 -0.742,2.7689 0.5598,0.9697 1.7992,1.3018 2.7689,0.742 z" clip-path="url(#1855386281204-clipPath1)" id="path58" ns1:connector-curvature="0" style="stroke:none" />
    </g>
    <g id="g60" style="text-rendering:geometricPrecision;fill:#000000;stroke:none">
      <path d="m 287.4353,446.5987 c 0,1.1197 0.9073,2.027 2.027,2.027 1.1197,0 2.027,-0.9073 2.027,-2.027 l 0,-70.0996 c 0,-1.1197 -0.9073,-2.027 -2.027,-2.027 -1.1197,0 -2.027,0.9073 -2.027,2.027 z m 16.8917,11.7796 c 0,1.1197 0.9073,2.027 2.027,2.027 1.1197,0 2.027,-0.9073 2.027,-2.027 l 0,-93.6588 c 0,-1.1196 -0.9073,-2.0269 -2.027,-2.0269 -1.1197,0 -2.027,0.9073 -2.027,2.0269 z" clip-path="url(#1855386281204-clipPath1)" id="path62" ns1:connector-curvature="0" style="stroke:none" />
    </g>
    <g id="g64" style="text-rendering:geometricPrecision;fill:#000000;stroke:none">
      <path d="m 307.3674,362.9641 -81.1043,-46.8237 c -0.9697,-0.5598 -2.2091,-0.2277 -2.7689,0.742 -0.5598,0.9697 -0.2277,2.209 0.742,2.7688 l 81.1043,46.8238 c 0.9697,0.5598 2.2091,0.2277 2.7689,-0.742 0.5598,-0.9697 0.2277,-2.2091 -0.742,-2.7689 z" clip-path="url(#1855386281204-clipPath1)" id="path66" ns1:connector-curvature="0" style="stroke:none" />
    </g>
    <g id="g68" style="text-rendering:geometricPrecision;fill:#000000;stroke:none">
      <path d="m 307.3675,366.4749 81.1006,-46.8244 c 0.9697,-0.5598 1.3018,-1.7992 0.7419,-2.7689 -0.5599,-0.9697 -1.7992,-1.3018 -2.7689,-0.7419 l -81.1006,46.8244 c -0.9697,0.5599 -1.3018,1.7993 -0.7419,2.7689 0.5598,0.9697 1.7992,1.3018 2.7689,0.7419 z" clip-path="url(#1855386281204-clipPath1)" id="path70" ns1:connector-curvature="0" style="stroke:none" />
    </g>
    <g id="g72" style="text-rendering:geometricPrecision;fill:#000000;stroke:none">
      <path d="m 386.4411,319.6505 81.1015,46.823 c 0.9697,0.5599 2.209,0.2278 2.7689,-0.7419 0.5598,-0.9697 0.2277,-2.2091 -0.742,-2.7689 l -81.1014,-46.823 c -0.9697,-0.5599 -2.2091,-0.2277 -2.7689,0.7419 -0.5599,0.9697 -0.2278,2.2091 0.7419,2.7689 z" clip-path="url(#1855386281204-clipPath1)" id="path74" ns1:connector-curvature="0" style="stroke:none" />
    </g>
    <g id="g76" style="text-rendering:geometricPrecision;fill:#000000;stroke:none">
      <path d="m 469.5695,366.4735 81.1007,-46.8244 c 0.9697,-0.5599 1.3017,-1.7992 0.7419,-2.7689 -0.5599,-0.9697 -1.7992,-1.3018 -2.7689,-0.7419 l -81.1007,46.8244 c -0.9696,0.5599 -1.3017,1.7992 -0.7418,2.7689 0.5598,0.9697 1.7992,1.3018 2.7688,0.7419 z" clip-path="url(#1855386281204-clipPath1)" id="path78" ns1:connector-curvature="0" style="stroke:none" />
    </g>
    <g id="g80" style="fill:#333399;stroke:none;text-rendering:geometricPrecision">
      <path d="m 548.6432,319.6491 64.0066,36.9535 c 0.9696,0.5598 2.209,0.2277 2.7689,-0.742 0.5598,-0.9697 0.2277,-2.209 -0.7419,-2.7689 l -64.0066,-36.9535 c -0.9697,-0.5598 -2.2091,-0.2277 -2.769,0.742 -0.5598,0.9697 -0.2277,2.2091 0.742,2.7689 z" clip-path="url(#1855386281204-clipPath1)" id="path82" ns1:connector-curvature="0" style="stroke:none" />
      <path d="m 548.6432,319.6491 64.0066,36.9535 c 0.9696,0.5598 2.209,0.2277 2.7689,-0.742 0.5598,-0.9697 0.2277,-2.209 -0.7419,-2.7689 l -64.0066,-36.9535 c -0.9697,-0.5598 -2.2091,-0.2277 -2.769,0.742 -0.5598,0.9697 -0.2277,2.2091 0.742,2.7689 z" clip-path="url(#1855386281903-clipPath1)" id="path84" ns1:connector-curvature="0" style="fill:#000000;stroke:none" />
    </g>
    <g id="g86" style="text-rendering:geometricPrecision;fill:#000000;stroke:none">
      <path d="m 468.5561,364.7181 -2.027,0 -10.641,85.5396 12.6687,-10e-5 12.6688,-1e-4 -10.6426,-85.5394 z" clip-path="url(#1855386281204-clipPath1)" id="path88" ns1:connector-curvature="0" style="stroke:none" />
    </g>
    <g id="g90" style="text-rendering:geometricPrecision;fill:#000000;stroke:none">
      <path d="m 628.7314,387.727 5e-4,62.5292 c 0,1.1197 0.9073,2.027 2.027,2.0269 1.1197,0 2.027,-0.9072 2.027,-2.0269 l -6e-4,-62.5293 c 0,-1.1197 -0.9073,-2.0269 -2.027,-2.0269 -1.1197,0 -2.0269,0.9073 -2.0269,2.027 z" clip-path="url(#1855386281204-clipPath1)" id="path92" ns1:connector-curvature="0" style="stroke:none" />
      <path d="m 628.7314,387.727 5e-4,62.5292 c 0,1.1197 0.9073,2.027 2.027,2.0269 1.1197,0 2.027,-0.9072 2.027,-2.0269 l -6e-4,-62.5293 c 0,-1.1197 -0.9073,-2.0269 -2.027,-2.0269 -1.1197,0 -2.0269,0.9073 -2.0269,2.027 z" clip-path="url(#1855386281373-clipPath1)" id="path94" ns1:connector-curvature="0" style="fill:#333399;stroke:none" />
    </g>
    <g id="g96" style="text-rendering:geometricPrecision;fill:#000000;stroke:none">
      <path d="m 648.8664,356.6022 56.9842,-32.9005 c 0.9697,-0.5599 1.3018,-1.7993 0.7419,-2.7689 -0.5598,-0.9697 -1.7992,-1.3018 -2.7689,-0.7419 l -56.9842,32.9005 c -0.9696,0.5598 -1.3017,1.7992 -0.7419,2.7689 0.5598,0.9697 1.7992,1.3018 2.7689,0.7419 z" clip-path="url(#1855386281204-clipPath1)" id="path98" ns1:connector-curvature="0" style="stroke:none" />
      <path d="m 648.8664,356.6022 56.9842,-32.9005 c 0.9697,-0.5599 1.3018,-1.7993 0.7419,-2.7689 -0.5598,-0.9697 -1.7992,-1.3018 -2.7689,-0.7419 l -56.9842,32.9005 c -0.9696,0.5598 -1.3017,1.7992 -0.7419,2.7689 0.5598,0.9697 1.7992,1.3018 2.7689,0.7419 z" clip-path="url(#1855386281102-clipPath1)" id="path100" ns1:connector-curvature="0" style="fill:#333399;stroke:none" />
    </g>
    <g id="g102" style="fill:#ff0000;stroke:none;text-rendering:geometricPrecision" />
    <g id="g108" style="text-rendering:geometricPrecision;fill:#000000;stroke:none">
      <path d="m 384.9524,318.5532 1.1459,0.8483 0,0 1.3563,-1.5064 1.3563,-1.5063 -0.9323,-1.0855 0,0 -2.9262,3.2499 z m -10.6385,-7.8753 3.2734,2.4231 0,0 4.299,-4.7744 0,0 -2.6632,-3.1008 -4.9092,5.4521 z m -10.6384,-7.8752 3.2734,2.4231 6.2818,-6.9767 0,0 -2.6632,-3.1008 0,0 -6.892,7.6544 z m -66.9988,-49.5969 17.08,12.6437 0,0 11.3845,-12.6437 -9.5314,0 -18.9331,0 z m 56.3604,41.7216 3.2733,2.4232 8.2648,-9.179 -2.6632,-3.1007 0,0 -8.8749,9.8565 z m -10.6384,-7.8752 3.2733,2.4231 10.2476,-11.3811 -2.6632,-3.1008 0,0 -10.8577,12.0588 z m -10.6384,-7.8753 3.2733,2.4232 0,0 12.2305,-13.5834 -2.6632,-3.1007 -12.8406,14.2609 z m -10.6385,-7.8752 3.2734,2.4231 0,0 14.2134,-15.7856 -2.6633,-3.1007 -14.8235,16.4632 z" clip-path="url(#1855386281204-clipPath1)" id="path110" ns1:connector-curvature="0" style="stroke:none" />
    </g>
    <g id="g112" style="text-rendering:geometricPrecision;fill:#000000;stroke:none">
      <path d="m 317.861,253.2058 -93.6474,0 c -1.1197,0 -2.027,0.9073 -2.027,2.027 0,1.1196 0.9073,2.0269 2.027,2.0269 l 93.6474,0 c 1.1197,0 2.027,-0.9073 2.027,-2.0269 0,-1.1197 -0.9073,-2.027 -2.027,-2.027 z" clip-path="url(#1855386281204-clipPath1)" id="path114" ns1:connector-curvature="0" style="stroke:none" />
    </g>
    <g id="g116" style="text-rendering:geometricPrecision;fill:#000000;stroke:none">
      <path d="m 225.2259,159.8369 -81.1094,-46.8318 c -0.9697,-0.5599 -2.2091,-0.2278 -2.7689,0.7418 -0.5599,0.9697 -0.2279,2.2091 0.7418,2.769 l 81.1095,46.8318 c 0.9696,0.5599 2.209,0.2278 2.7689,-0.7418 0.5598,-0.9697 0.2278,-2.2091 -0.7419,-2.769 z" clip-path="url(#1855386281204-clipPath1)" id="path118" ns1:connector-curvature="0" style="stroke:none" />
    </g>
    <g id="g120" style="text-rendering:geometricPrecision;fill:#000000;stroke:none">
      <path d="m 142.3598,137.0339 c 0.9697,-0.5598 1.3019,-1.7992 0.7421,-2.7689 -0.5597,-0.9697 -1.7991,-1.3019 -2.7688,-0.7421 l -60.6953,35.0365 c -0.9697,0.5598 -1.3019,1.7991 -0.7421,2.7688 0.5598,0.9698 1.7991,1.3019 2.7688,0.7422 z m 1.7565,-20.5179 c 0.9697,-0.5598 1.3019,-1.7992 0.7421,-2.7689 -0.5597,-0.9697 -1.7991,-1.3019 -2.7688,-0.7421 l -81.0985,46.8142 c -0.9697,0.5598 -1.3019,1.7992 -0.7421,2.7689 0.5598,0.9697 1.7991,1.3019 2.7689,0.7421 z" clip-path="url(#1855386281204-clipPath1)" id="path122" ns1:connector-curvature="0" style="stroke:none" />
    </g>
    <g id="g124" style="text-rendering:geometricPrecision;fill:#000000;stroke:none">
      <path d="m 59.9775,161.5746 -0.0045,93.6503 c 0,1.1197 0.9072,2.0271 2.0269,2.0271 1.1197,0 2.027,-0.9072 2.0271,-2.0269 l 0.0045,-93.6503 c 0,-1.1196 -0.9072,-2.027 -2.0269,-2.027 -1.1197,-1e-4 -2.027,0.9072 -2.0271,2.0268 z" clip-path="url(#1855386281204-clipPath1)" id="path126" ns1:connector-curvature="0" style="stroke:none" />
    </g>
    <g id="g128" style="text-rendering:geometricPrecision;fill:#000000;stroke:none">
      <path d="m 81.6611,244.7314 c -0.9697,-0.5599 -2.2091,-0.2278 -2.769,0.7418 -0.5598,0.9697 -0.2278,2.2091 0.7419,2.769 l 60.707,35.0516 c 0.9696,0.5599 2.209,0.2278 2.7689,-0.7418 0.5599,-0.9697 0.2278,-2.2091 -0.7419,-2.769 z m -18.6475,8.7382 c -0.9697,-0.5598 -2.2091,-0.2278 -2.769,0.7419 -0.5598,0.9696 -0.2278,2.209 0.7419,2.7689 l 81.1094,46.8319 c 0.9697,0.5598 2.2091,0.2278 2.769,-0.7419 0.5598,-0.9697 0.2278,-2.209 -0.7419,-2.7689 z" clip-path="url(#1855386281204-clipPath1)" id="path130" ns1:connector-curvature="0" style="stroke:none" />
    </g>
    <g id="g132" style="text-rendering:geometricPrecision;fill:#000000;stroke:none">
      <path d="m 205.2948,243.4533 c 0,1.1197 0.9073,2.027 2.027,2.027 1.1197,0 2.027,-0.9073 2.027,-2.027 l -9e-4,-70.0819 c 0,-1.1197 -0.9073,-2.027 -2.027,-2.027 -1.1197,1e-4 -2.027,0.9074 -2.027,2.027 z m 16.8918,11.7795 c 0,1.1197 0.9073,2.0269 2.027,2.0269 1.1197,0 2.027,-0.9073 2.027,-2.027 l -0.001,-93.6404 c 0,-1.1197 -0.9073,-2.027 -2.027,-2.027 -1.1197,1e-4 -2.027,0.9073 -2.027,2.027 z" clip-path="url(#1855386281204-clipPath1)" id="path134" ns1:connector-curvature="0" style="stroke:none" />
    </g>
    <g id="g136" style="text-rendering:geometricPrecision;fill:#000000;stroke:none">
      <path d="m 144.1229,303.8123 81.1042,-46.8241 c 0.9696,-0.5599 1.3017,-1.7992 0.7419,-2.7689 -0.5598,-0.9697 -1.7992,-1.3018 -2.7689,-0.742 l -81.1041,46.8241 c -0.9697,0.5599 -1.3018,1.7992 -0.742,2.7689 0.5599,0.9697 1.7992,1.3018 2.7689,0.742 z" clip-path="url(#1855386281204-clipPath1)" id="path138" ns1:connector-curvature="0" style="stroke:none" />
    </g>
    <g id="g140" style="fill:#ff0000;stroke:none;text-rendering:geometricPrecision">
      <path d="m 387.4546,317.8951 1.5063,1.3563 55.201,-45.403 -9.4147,-8.477 -9.4147,-8.4771 -39.3842,59.6445 z" clip-path="url(#1855386281204-clipPath1)" id="path142" ns1:connector-curvature="0" style="stroke:none" />
      <path d="m 387.4546,317.8951 1.5063,1.3563 55.201,-45.403 -9.4147,-8.477 -9.4147,-8.4771 -39.3842,59.6445 z" clip-path="url(#1855386281689-clipPath1)" id="path144" ns1:connector-curvature="0" style="fill:#000000;stroke:none" />
    </g>
    <g id="g146" style="text-rendering:geometricPrecision;fill:#000000;stroke:none">
      <path d="m 469.9019,239.2192 62.3296,-35.986 c 0.9697,-0.5598 1.3018,-1.7992 0.7419,-2.7689 -0.5598,-0.9697 -1.7992,-1.3018 -2.7689,-0.7419 l -62.3296,35.986 c -0.9696,0.5598 -1.3017,1.7992 -0.7419,2.7689 0.5599,0.9697 1.7993,1.3018 2.7689,0.7419 z" clip-path="url(#1855386281204-clipPath1)" id="path148" ns1:connector-curvature="0" style="stroke:none" />
      <path d="m 469.9019,239.2192 62.3296,-35.986 c 0.9697,-0.5598 1.3018,-1.7992 0.7419,-2.7689 -0.5598,-0.9697 -1.7992,-1.3018 -2.7689,-0.7419 l -62.3296,35.986 c -0.9696,0.5598 -1.3017,1.7992 -0.7419,2.7689 0.5599,0.9697 1.7993,1.3018 2.7689,0.7419 z" clip-path="url(#1855386281433-clipPath1)" id="path150" ns1:connector-curvature="0" style="fill:#ff0000;stroke:none" />
    </g>
    <g id="g152" style="text-rendering:geometricPrecision;fill:#000000;stroke:none">
      <path d="m 530.2045,203.2332 81.101,46.8237 c 0.9697,0.5599 2.2091,0.2278 2.769,-0.7419 0.5598,-0.9697 0.2277,-2.2091 -0.742,-2.7689 l -81.101,-46.8237 c -0.9697,-0.5599 -2.2091,-0.2278 -2.7689,0.7419 -0.5599,0.9697 -0.2278,2.2091 0.7419,2.7689 z" clip-path="url(#1855386281204-clipPath1)" id="path154" ns1:connector-curvature="0" style="stroke:none" />
    </g>
    <g id="g156" style="fill:#ff0000;stroke:none;text-rendering:geometricPrecision">
      <path d="m 520.7452,206.354 c 0,1.1197 0.9073,2.027 2.027,2.027 1.1196,0 2.0269,-0.9073 2.0269,-2.027 l 0,-74.4743 c 0,-1.1197 -0.9073,-2.027 -2.0269,-2.027 -1.1197,0 -2.027,0.9073 -2.027,2.027 z m 16.8916,0 c 0,1.1197 0.9073,2.027 2.027,2.027 1.1197,0 2.027,-0.9073 2.027,-2.027 l 0,-74.4743 c 0,-1.1197 -0.9073,-2.027 -2.027,-2.027 -1.1197,0 -2.027,0.9073 -2.027,2.027 z" clip-path="url(#1855386281204-clipPath1)" id="path158" ns1:connector-curvature="0" style="stroke:none" />
      <path d="m 520.7452,206.354 c 0,1.1197 0.9073,2.027 2.027,2.027 1.1196,0 2.0269,-0.9073 2.0269,-2.027 l 0,-74.4743 c 0,-1.1197 -0.9073,-2.027 -2.0269,-2.027 -1.1197,0 -2.027,0.9073 -2.027,2.027 z m 16.8916,0 c 0,1.1197 0.9073,2.027 2.027,2.027 1.1197,0 2.027,-0.9073 2.027,-2.027 l 0,-74.4743 c 0,-1.1197 -0.9073,-2.027 -2.027,-2.027 -1.1197,0 -2.027,0.9073 -2.027,2.027 z" clip-path="url(#1855386281772-clipPath1)" id="path160" ns1:connector-curvature="0" style="fill:#000000;stroke:none" />
    </g>
    <g id="g162" style="text-rendering:geometricPrecision;fill:#000000;stroke:none">
      <path d="m 613.3325,250.0569 74.0794,-42.7697 c 0.9697,-0.5599 1.3018,-1.7992 0.7419,-2.7689 -0.5598,-0.9697 -1.7992,-1.3018 -2.7689,-0.7419 l -74.0794,42.7697 c -0.9696,0.5598 -1.3017,1.7992 -0.7419,2.7689 0.5599,0.9697 1.7993,1.3018 2.7689,0.7419 z" clip-path="url(#1855386281204-clipPath1)" id="path164" ns1:connector-curvature="0" style="stroke:none" />
    </g>
    <g id="g166" style="fill:#ffffff;stroke:none;text-rendering:geometricPrecision">
      </g>
    <g font-size="33px" transform="translate(31.289,298.3976)" id="g170" style="font-size:33px;font-family:sans-serif;fill:#ff0000;stroke:none;text-rendering:geometricPrecision" />
    <g font-size="33px" id="g174" style="font-size:33px;font-family:sans-serif;fill:#ffffff;stroke:none;text-rendering:geometricPrecision">
      <text x="0" y="32" transform="translate(618.6488,345.2167)" clip-path="url(#1855386281579-clipPath1)" xml:space="preserve" id="text178" style="fill:#333399;stroke:none">N</text>
    </g>
    <g font-size="33px" id="g180" style="font-size:33px;font-family:sans-serif;fill:#ffffff;stroke:none;text-rendering:geometricPrecision">
      <text x="0" y="32" transform="translate(436.9607,228.8015)" clip-path="url(#1855386281195-clipPath1)" xml:space="preserve" id="text184" style="fill:#ff0000;stroke:none">O</text>
    </g>
    <g font-size="33px" id="g186" style="font-size:33px;font-family:sans-serif;fill:#ffffff;stroke:none;text-rendering:geometricPrecision">
      <text x="0" y="32" transform="translate(518.0617,88.3304)" clip-path="url(#1855386281501-clipPath1)" xml:space="preserve" id="text190" style="fill:#ff0000;stroke:none">O</text>
    </g>
  </g>
</svg>