<?xml version='1.0' encoding='utf-8'?>
<svg xmlns="http://www.w3.org/2000/svg" xmlns:dc="http://purl.org/dc/elements/1.1/" xmlns:ns1="http://www.inkscape.org/namespaces/inkscape" xmlns:ns2="http://sodipodi.sourceforge.net/DTD/sodipodi-0.dtd" xmlns:ns4="http://creativecommons.org/ns#" xmlns:rdf="http://www.w3.org/1999/02/22-rdf-syntax-ns#" width="721.20593" stroke-miterlimit="10" font-weight="normal" height="421.40887" font-style="normal" font-size="12px" id="svg2" version="1.1" ns1:version="0.91 r13725" ns2:docname="Dimethylamphetamine.svg" style="font-style:normal;font-weight:normal;font-size:12px;font-family:Dialog;color-interpolation:auto;fill:#f5d0fe;fill-opacity:1;stroke:none;stroke:none;stroke:none;stroke:none;stroke:none;stroke:none;stroke:none;stroke:none;color-rendering:auto;image-rendering:auto;shape-rendering:auto;text-rendering:auto">
  <metadata id="metadata87">
    <rdf:RDF>
      <ns4:Work rdf:about="">
        <dc:format>image/svg+xml</dc:format>
        <dc:type rdf:resource="http://purl.org/dc/dcmitype/StillImage" />
        <dc:title />
      </ns4:Work>
    </rdf:RDF>
  </metadata>
  <ns2:namedview pagecolor="#eef2ff" bordercolor="#666666" borderopacity="1" objecttolerance="10" gridtolerance="10" guidetolerance="10" ns1:pageopacity="0" ns1:pageshadow="2" ns1:window-width="1060" ns1:window-height="480" id="namedview85" showgrid="false" fit-margin-top="10" fit-margin-left="10" fit-margin-right="10" fit-margin-bottom="10" ns1:zoom="0.36375" ns1:cx="360.60298" ns1:cy="210.49578" ns1:window-x="0" ns1:window-y="0" ns1:window-maximized="0" ns1:current-layer="svg2" />
  
  <defs id="genericDefs" />
  <g id="g5" transform="translate(-39.39702,-89.0869)" style="fill:#f5d0fe;stroke:none">
    <defs id="806186617341-defs1">
      <clipPath clipPathUnits="userSpaceOnUse" id="806186617945-clipPath1">
        <path d="M 0,0 800,0 800,600 0,600 0,0 Z" id="path9" ns1:connector-curvature="0" style="stroke:none" />
      </clipPath>
      <clipPath clipPathUnits="userSpaceOnUse" id="80618661787-clipPath1">
        <path d="m 522.68,240.3726 c -29.5746,0 -53.5495,23.9749 -53.5495,53.5495 0,29.5746 23.9749,53.5495 53.5495,53.5495 29.5745,0 53.5495,-23.9749 53.5495,-53.5495 0,-29.5746 -23.975,-53.5495 -53.5495,-53.5495 z" id="path12" ns1:connector-curvature="0" style="stroke:none" />
      </clipPath>
      <clipPath clipPathUnits="userSpaceOnUse" id="806186617688-clipPath1">
        <path d="m 640.267,147.3167 c -25.0136,0 -45.291,20.2774 -45.291,45.291 0,25.0135 20.2774,45.291 45.291,45.291 25.0135,0 45.2909,-20.2775 45.2909,-45.291 0,-25.0136 -20.2774,-45.291 -45.2909,-45.291 z" id="path15" ns1:connector-curvature="0" style="stroke:none" />
      </clipPath>
      <clipPath clipPathUnits="userSpaceOnUse" id="806186617609-clipPath1">
        <path d="m 665.0962,192.7085 c -26.3284,0 -47.6717,21.3434 -47.6717,47.6718 0,26.3283 21.3433,47.6717 47.6717,47.6717 26.3284,0 47.6717,-21.3434 47.6717,-47.6717 0,-26.3284 -21.3433,-47.6718 -47.6717,-47.6718 z" id="path18" ns1:connector-curvature="0" style="stroke:none" />
      </clipPath>
      <clipPath clipPathUnits="userSpaceOnUse" id="806186617878-clipPath1">
        <path d="m -622.5152,-197.5424 800,0 0,600 -800,0 0,-600 z" id="path21" ns1:connector-curvature="0" style="stroke:none" />
      </clipPath>
    </defs>
    <g id="g23" style="text-rendering:geometricPrecision;fill:#f5d0fe;stroke:none">
      <path d="m 49.3976,429.6706 c 0,1.6233 1.3154,2.9387 2.9388,2.9387 1.6233,0 2.9388,-1.3154 2.9388,-2.9387 l 0,-135.7882 c 0,-1.6233 -1.3155,-2.9387 -2.9388,-2.9387 -1.6234,0 -2.9388,1.3154 -2.9388,2.9387 z m 24.4899,-17.0787 c 0,1.6234 1.3154,2.9388 2.9387,2.9388 1.6234,0 2.9388,-1.3154 2.9388,-2.9388 l 0,-101.6297 c 0,-1.6234 -1.3154,-2.9388 -2.9388,-2.9388 -1.6233,0 -2.9387,1.3154 -2.9387,2.9388 z" clip-path="url(#806186617945-clipPath1)" id="path25" ns1:connector-curvature="0" style="stroke:none" />
    </g>
    <g id="g27" style="text-rendering:geometricPrecision;fill:#f5d0fe;stroke:none">
      <path d="m 171.0061,465.2648 c -1.4059,0.8115 -1.8876,2.6083 -1.076,4.0143 0.8115,1.4059 2.6084,1.8875 4.0143,1.076 l 87.9989,-50.7961 c 1.4059,-0.8116 1.8876,-2.6084 1.076,-4.0143 -0.8115,-1.406 -2.6084,-1.8876 -4.0143,-1.076 z m -2.5458,29.7465 c -1.4059,0.8115 -1.8875,2.6084 -1.076,4.0143 0.8116,1.4059 2.6084,1.8875 4.0143,1.076 l 117.5788,-67.8707 c 1.406,-0.8115 1.8876,-2.6084 1.076,-4.0143 -0.8115,-1.4059 -2.6083,-1.8876 -4.0143,-1.076 z" clip-path="url(#806186617945-clipPath1)" id="path29" ns1:connector-curvature="0" style="stroke:none" />
    </g>
    <g id="g31" style="text-rendering:geometricPrecision;fill:#f5d0fe;stroke:none">
      <path d="m 290.447,429.6859 0.008,-135.7758 c 1e-4,-1.6233 -1.3153,-2.9388 -2.9386,-2.9389 -1.6234,-1e-4 -2.9388,1.3152 -2.9389,2.9386 l -0.008,135.7758 c -1e-4,1.6233 1.3152,2.9388 2.9386,2.9389 1.6233,10e-5 2.9388,-1.3152 2.9389,-2.9386 z" clip-path="url(#806186617945-clipPath1)" id="path33" ns1:connector-curvature="0" style="stroke:none" />
    </g>
    <g id="g35" style="text-rendering:geometricPrecision;fill:#f5d0fe;stroke:none">
      <path d="m 259.0114,309.1234 c 1.4058,0.8118 3.2027,0.3304 4.0144,-1.0755 0.8118,-1.4058 0.3304,-3.2027 -1.0755,-4.0144 l -88.0146,-50.8203 c -1.4058,-0.8118 -3.2027,-0.3304 -4.0144,1.0755 -0.8118,1.4058 -0.3304,3.2027 1.0755,4.0144 z m 27.0356,-12.6685 c 1.4059,0.8117 3.2027,0.3303 4.0145,-1.0755 0.8117,-1.4058 0.3303,-3.2027 -1.0755,-4.0144 L 171.3929,223.4658 c -1.4058,-0.8117 -3.2027,-0.3303 -4.0144,1.0755 -0.8118,1.4058 -0.3304,3.2027 1.0754,4.0145 z" clip-path="url(#806186617945-clipPath1)" id="path37" ns1:connector-curvature="0" style="stroke:none" />
    </g>
    <g id="g39" style="text-rendering:geometricPrecision;fill:#f5d0fe;stroke:none">
      <path d="m 50.8671,432.2157 117.5931,67.8858 c 1.4059,0.8116 3.2027,0.3301 4.0144,-1.0758 0.8116,-1.4059 0.33,-3.2027 -1.0759,-4.0143 L 53.8057,427.1255 c -1.4059,-0.8116 -3.2028,-0.3301 -4.0144,1.0758 -0.8116,1.4059 -0.3301,3.2028 1.0758,4.0144 z" clip-path="url(#806186617945-clipPath1)" id="path41" ns1:connector-curvature="0" style="stroke:none" />
    </g>
    <g id="g43" style="text-rendering:geometricPrecision;fill:#f5d0fe;stroke:none">
      <path d="m 168.4543,223.4656 -117.587,67.8716 c -1.4059,0.8116 -1.8876,2.6084 -1.0761,4.0143 0.8115,1.406 2.6083,1.8877 4.0143,1.0761 l 117.587,-67.8716 c 1.406,-0.8115 1.8877,-2.6083 1.0761,-4.0143 -0.8115,-1.4059 -2.6083,-1.8876 -4.0143,-1.0761 z" clip-path="url(#806186617945-clipPath1)" id="path45" ns1:connector-curvature="0" style="stroke:none" />
    </g>
    <g id="g47" style="text-rendering:geometricPrecision;fill:#f5d0fe;stroke:none">
      <path d="M 288.9857,296.455 406.571,228.5753 c 1.4059,-0.8116 1.8875,-2.6085 1.0759,-4.0144 -0.8116,-1.4059 -2.6085,-1.8874 -4.0144,-1.0758 l -117.5852,67.8797 c -1.4059,0.8116 -1.8875,2.6085 -1.0759,4.0144 0.8116,1.4059 2.6084,1.8875 4.0143,1.0758 z" clip-path="url(#806186617945-clipPath1)" id="path49" ns1:connector-curvature="0" style="stroke:none" />
    </g>
    <g id="g51" style="text-rendering:geometricPrecision;fill:#f5d0fe;stroke:none">
      <path d="m 403.6322,228.5751 117.5782,67.892 c 1.4059,0.8117 3.2028,0.3304 4.0145,-1.0755 0.8118,-1.4058 0.3304,-3.2027 -1.0754,-4.0144 l -117.5782,-67.892 c -1.4059,-0.8117 -3.2028,-0.3303 -4.0145,1.0755 -0.8117,1.4058 -0.3304,3.2027 1.0754,4.0144 z" clip-path="url(#806186617945-clipPath1)" id="path53" ns1:connector-curvature="0" style="stroke:none" />
    </g>
    <g id="g55" style="fill:#c4b5fd;stroke:none;text-rendering:geometricPrecision">
      <path d="m 524.1492,296.4672 92.7533,-53.5447 c 1.4058,-0.8116 1.8874,-2.6084 1.0758,-4.0143 -0.8116,-1.4059 -2.6084,-1.8875 -4.0144,-1.0759 l -92.7531,53.5447 c -1.406,0.8116 -1.8876,2.6085 -1.0759,4.0144 0.8116,1.4059 2.6084,1.8874 4.0143,1.0758 z" clip-path="url(#806186617945-clipPath1)" id="path57" ns1:connector-curvature="0" style="stroke:none" />
      <path d="m 524.1492,296.4672 92.7533,-53.5447 c 1.4058,-0.8116 1.8874,-2.6084 1.0758,-4.0143 -0.8116,-1.4059 -2.6084,-1.8875 -4.0144,-1.0759 l -92.7531,53.5447 c -1.406,0.8116 -1.8876,2.6085 -1.0759,4.0144 0.8116,1.4059 2.6084,1.8874 4.0143,1.0758 z" clip-path="url(#80618661787-clipPath1)" id="path59" ns1:connector-curvature="0" style="fill:#f5d0fe;stroke:none" />
    </g>
    <g id="g61" style="text-rendering:geometricPrecision;fill:#f5d0fe;stroke:none">
      <path d="m 519.7412,293.922 -0.006,124.0167 c -10e-5,1.6233 1.3152,2.9388 2.9386,2.9389 1.6234,1e-4 2.9388,-1.3153 2.9389,-2.9386 l 0.006,-124.0167 c 10e-5,-1.6234 -1.3152,-2.9388 -2.9386,-2.9389 -1.6233,-1e-4 -2.9388,1.3152 -2.9389,2.9386 z" clip-path="url(#806186617945-clipPath1)" id="path63" ns1:connector-curvature="0" style="stroke:none" />
    </g>
    <g id="g65" style="text-rendering:geometricPrecision;fill:#f5d0fe;stroke:none">
      <path d="m 643.2057,192.6078 0.005,-90.582 c 10e-5,-1.6233 -1.3153,-2.9388 -2.9386,-2.9389 -1.6234,-1e-4 -2.9388,1.3153 -2.9389,2.9386 l -0.005,90.582 c -1e-4,1.6234 1.3152,2.9388 2.9386,2.9389 1.6233,1e-4 2.9388,-1.3152 2.9389,-2.9386 z" clip-path="url(#806186617945-clipPath1)" id="path67" ns1:connector-curvature="0" style="stroke:none" />
      <path d="m 643.2057,192.6078 0.005,-90.582 c 10e-5,-1.6233 -1.3153,-2.9388 -2.9386,-2.9389 -1.6234,-1e-4 -2.9388,1.3153 -2.9389,2.9386 l -0.005,90.582 c -1e-4,1.6234 1.3152,2.9388 2.9386,2.9389 1.6233,1e-4 2.9388,-1.3152 2.9389,-2.9386 z" clip-path="url(#806186617688-clipPath1)" id="path69" ns1:connector-curvature="0" style="fill:#c4b5fd;stroke:none" />
    </g>
    <g id="g71" style="text-rendering:geometricPrecision;fill:#f5d0fe;stroke:none">
      <path d="m 663.6267,242.9252 82.5674,47.676 c 1.4058,0.8118 3.2027,0.3304 4.0145,-1.0754 0.8117,-1.4058 0.3303,-3.2027 -1.0755,-4.0145 l -82.5674,-47.676 c -1.4058,-0.8117 -3.2027,-0.3304 -4.0144,1.0755 -0.8118,1.4058 -0.3304,3.2027 1.0754,4.0144 z" clip-path="url(#806186617945-clipPath1)" id="path73" ns1:connector-curvature="0" style="stroke:none" />
      <path d="m 663.6267,242.9252 82.5674,47.676 c 1.4058,0.8118 3.2027,0.3304 4.0145,-1.0754 0.8117,-1.4058 0.3303,-3.2027 -1.0755,-4.0145 l -82.5674,-47.676 c -1.4058,-0.8117 -3.2027,-0.3304 -4.0144,1.0755 -0.8118,1.4058 -0.3304,3.2027 1.0754,4.0144 z" clip-path="url(#806186617609-clipPath1)" id="path75" ns1:connector-curvature="0" style="fill:#c4b5fd;stroke:none" />
    </g>
    <g id="g77" style="fill:#eef2ff;stroke:none;text-rendering:geometricPrecision">
      </g>
    <g font-size="48px" transform="translate(622.5152,197.5424)" id="g81" style="font-size:48px;font-family:sans-serif;fill:#c4b5fd;stroke:none;text-rendering:geometricPrecision">
      <text x="0" xml:space="preserve" y="46" clip-path="url(#806186617878-clipPath1)" id="text83" style="stroke:none">N</text>
    </g>
  </g>
</svg>