<?xml version='1.0' encoding='utf-8'?>
<svg xmlns="http://www.w3.org/2000/svg" xmlns:dc="http://purl.org/dc/elements/1.1/" xmlns:ns1="http://www.inkscape.org/namespaces/inkscape" xmlns:ns2="http://sodipodi.sourceforge.net/DTD/sodipodi-0.dtd" xmlns:ns4="http://creativecommons.org/ns#" xmlns:rdf="http://www.w3.org/1999/02/22-rdf-syntax-ns#" width="765.77362" stroke-miterlimit="10" font-weight="normal" height="486.08911" font-style="normal" font-size="12px" id="svg2" version="1.1" ns1:version="0.91 r13725" ns2:docname="Diphenoxylate.svg" style="font-style:normal;font-weight:normal;font-size:12px;font-family:Dialog;color-interpolation:auto;fill:#f5d0fe;fill-opacity:1;stroke:none;stroke:none;stroke:none;stroke:none;stroke:none;stroke:none;stroke:none;stroke:none;color-rendering:auto;image-rendering:auto;shape-rendering:auto;text-rendering:auto">
  <metadata id="metadata234">
    <rdf:RDF>
      <ns4:Work rdf:about="">
        <dc:format>image/svg+xml</dc:format>
        <dc:type rdf:resource="http://purl.org/dc/dcmitype/StillImage" />
        <dc:title />
      </ns4:Work>
    </rdf:RDF>
  </metadata>
  <ns2:namedview pagecolor="#eef2ff" bordercolor="#666666" borderopacity="1" objecttolerance="10" gridtolerance="10" guidetolerance="10" ns1:pageopacity="0" ns1:pageshadow="2" ns1:window-width="1060" ns1:window-height="480" id="namedview232" showgrid="false" fit-margin-top="10" fit-margin-left="10" fit-margin-right="10" fit-margin-bottom="10" ns1:zoom="0.36375" ns1:cx="455.33845" ns1:cy="204.22513" ns1:window-x="0" ns1:window-y="0" ns1:window-maximized="0" ns1:current-layer="svg2" />
  
  <defs id="genericDefs" />
  <g id="g5" transform="translate(-17.0069,-18.136005)" style="fill:#f5d0fe;stroke:none">
    <defs id="1779997896997-defs1">
      <clipPath clipPathUnits="userSpaceOnUse" id="1779997896471-clipPath1">
        <path d="M 0,0 800,0 800,600 0,600 0,0 Z" id="path9" ns1:connector-curvature="0" style="stroke:none" />
      </clipPath>
      <clipPath clipPathUnits="userSpaceOnUse" id="17799978968-clipPath1">
        <path d="m 380.4204,306.5621 c -15.6583,0 -28.3519,12.6935 -28.3519,28.3518 0,15.6583 12.6936,28.3519 28.3519,28.3519 15.6583,0 28.3518,-12.6936 28.3518,-28.3519 0,-15.6583 -12.6935,-28.3518 -28.3518,-28.3518 z" id="path12" ns1:connector-curvature="0" style="stroke:none" />
      </clipPath>
      <clipPath clipPathUnits="userSpaceOnUse" id="1779997896132-clipPath1">
        <path d="m 408.7662,226.0005 c -15.6583,0 -28.3518,12.6936 -28.3518,28.3518 0,15.6584 12.6935,28.3519 28.3518,28.3519 15.6583,0 28.3518,-12.6935 28.3518,-28.3519 0,-15.6582 -12.6935,-28.3518 -28.3518,-28.3518 z" id="path15" ns1:connector-curvature="0" style="stroke:none" />
      </clipPath>
      <clipPath clipPathUnits="userSpaceOnUse" id="1779997896801-clipPath1">
        <path d="m 357.409,288.7241 c -16.8249,0 -30.4641,13.6393 -30.4641,30.4642 0,16.8249 13.6392,30.4642 30.4641,30.4642 16.8249,0 30.4642,-13.6393 30.4642,-30.4642 0,-16.8249 -13.6393,-30.4642 -30.4642,-30.4642 z" id="path18" ns1:connector-curvature="0" style="stroke:none" />
      </clipPath>
      <clipPath clipPathUnits="userSpaceOnUse" id="1779997896900-clipPath1">
        <path d="m 579.2498,243.0833 c -16.0122,0 -28.9926,12.9805 -28.9926,28.9927 0,16.0121 12.9804,28.9926 28.9926,28.9926 16.0122,0 28.9926,-12.9805 28.9926,-28.9926 0,-16.0122 -12.9804,-28.9927 -28.9926,-28.9927 z" id="path21" ns1:connector-curvature="0" style="stroke:none" />
      </clipPath>
      <clipPath clipPathUnits="userSpaceOnUse" id="1779997896129-clipPath1">
        <path d="m 663.2939,259.1185 c -15.6436,0 -28.3254,12.6817 -28.3254,28.3254 0,15.6437 12.6818,28.3254 28.3254,28.3254 15.6437,0 28.3254,-12.6817 28.3254,-28.3254 0,-15.6437 -12.6817,-28.3254 -28.3254,-28.3254 z" id="path24" ns1:connector-curvature="0" style="stroke:none" />
      </clipPath>
      <clipPath clipPathUnits="userSpaceOnUse" id="1779997896882-clipPath1">
        <path d="m 579.2498,244.489 c -15.2359,0 -27.587,12.3511 -27.587,27.587 0,15.2358 12.3511,27.5869 27.587,27.5869 15.2359,0 27.587,-12.3511 27.587,-27.5869 0,-15.2359 -12.3511,-27.587 -27.587,-27.587 z" id="path27" ns1:connector-curvature="0" style="stroke:none" />
      </clipPath>
      <clipPath clipPathUnits="userSpaceOnUse" id="1779997896587-clipPath1">
        <path d="m 109.323,223.8908 c -16.8249,0 -30.4641,13.6393 -30.4641,30.4642 0,16.8249 13.6392,30.4642 30.4641,30.4642 16.8249,0 30.4642,-13.6393 30.4642,-30.4642 0,-16.8249 -13.6393,-30.4642 -30.4642,-30.4642 z" id="path30" ns1:connector-curvature="0" style="stroke:none" />
      </clipPath>
      <clipPath clipPathUnits="userSpaceOnUse" id="1779997896753-clipPath1">
        <path d="m -361.8906,-303.6883 800,0 0,600 -800,0 0,-600 z" id="path33" ns1:connector-curvature="0" style="stroke:none" />
      </clipPath>
      <clipPath clipPathUnits="userSpaceOnUse" id="1779997896528-clipPath1">
        <path d="m -557.4143,-182.6345 800,0 0,600 -800,0 0,-600 z" id="path36" ns1:connector-curvature="0" style="stroke:none" />
      </clipPath>
      <clipPath clipPathUnits="userSpaceOnUse" id="1779997896210-clipPath1">
        <path d="m -639.0153,-283.4051 800,0 0,600 -800,0 0,-600 z" id="path39" ns1:connector-curvature="0" style="stroke:none" />
      </clipPath>
      <clipPath clipPathUnits="userSpaceOnUse" id="177999789635-clipPath1">
        <path d="m -25.0069,-238.855 800.0001,0 0,600 -800.0001,0 0,-600 z" id="path42" ns1:connector-curvature="0" style="stroke:none" />
      </clipPath>
    </defs>
    <g id="g44" style="text-rendering:geometricPrecision;fill:#f5d0fe;stroke:none">
      <path d="m 522.4732,318.3781 -37.4315,-64.8359 c -0.4476,-0.7752 -1.4383,-1.0407 -2.2135,-0.5932 -0.7752,0.4476 -1.0407,1.4383 -0.5932,2.2135 l 37.4316,64.836 c 0.4475,0.7752 1.4383,1.0407 2.2135,0.5931 0.7751,-0.4475 1.0406,-1.4383 0.5931,-2.2135 z" clip-path="url(#1779997896471-clipPath1)" id="path46" ns1:connector-curvature="0" style="stroke:none" />
    </g>
    <g id="g48" style="text-rendering:geometricPrecision;fill:#f5d0fe;stroke:none">
      <path d="m 519.6666,318.3781 -37.4316,64.836 c -0.4475,0.7752 -0.182,1.7659 0.5932,2.2135 0.7752,0.4475 1.7659,0.182 2.2135,-0.5932 l 37.4315,-64.8359 c 0.4475,-0.7752 0.182,-1.766 -0.5931,-2.2135 -0.7752,-0.4476 -1.766,-0.1821 -2.2135,0.5931 z" clip-path="url(#1779997896471-clipPath1)" id="path50" ns1:connector-curvature="0" style="stroke:none" />
    </g>
    <g id="g52" style="text-rendering:geometricPrecision;fill:#f5d0fe;stroke:none">
      <path d="m 408.7662,385.6446 74.8721,0 c 0.8951,0 1.6204,-0.7253 1.6204,-1.6204 0,-0.895 -0.7253,-1.6204 -1.6204,-1.6204 l -74.8721,0 c -0.8951,0 -1.6204,0.7254 -1.6204,1.6204 0,0.8951 0.7253,1.6204 1.6204,1.6204 z" clip-path="url(#1779997896471-clipPath1)" id="path54" ns1:connector-curvature="0" style="stroke:none" />
    </g>
    <g id="g56" style="text-rendering:geometricPrecision;fill:#f5d0fe;stroke:none">
      <path d="m 519.9856,320.3925 55.6341,50.0932 c 0.6652,0.5989 1.6895,0.5452 2.2884,-0.12 0.599,-0.6652 0.5453,-1.6895 -0.1199,-2.2884 l -55.6341,-50.0932 c -0.6651,-0.5989 -1.6895,-0.5453 -2.2884,0.1199 -0.599,0.6652 -0.5453,1.6895 0.1199,2.2885 z" clip-path="url(#1779997896471-clipPath1)" id="path58" ns1:connector-curvature="0" style="stroke:none" />
    </g>
    <g id="g60" style="text-rendering:geometricPrecision;fill:#f5d0fe;stroke:none">
      <path d="m 560.0569,443.7075 55.6393,50.1009 c 0.6651,0.5989 1.6895,0.5453 2.2884,-0.1199 0.599,-0.6651 0.5453,-1.6894 -0.1199,-2.2884 l -55.6392,-50.1009 c -0.6652,-0.599 -1.6896,-0.5453 -2.2885,0.1198 -0.599,0.6652 -0.5453,1.6895 0.1199,2.2885 z" clip-path="url(#1779997896471-clipPath1)" id="path62" ns1:connector-curvature="0" style="stroke:none" />
    </g>
    <g id="g64" style="text-rendering:geometricPrecision;fill:#f5d0fe;stroke:none">
      <path d="m 621.0636,475.3112 c -0.8513,0.2765 -1.3171,1.1904 -1.0405,2.0417 0.2765,0.8513 1.1904,1.3171 2.0417,1.0405 l 53.2837,-17.3086 c 0.8513,-0.2765 1.317,-1.1904 1.0405,-2.0417 -0.2765,-0.8513 -1.1905,-1.3171 -2.0418,-1.0405 z m -4.7838,15.7519 c -0.8513,0.2766 -1.317,1.1905 -1.0405,2.0418 0.2766,0.8513 1.1905,1.317 2.0418,1.0405 l 71.1954,-23.127 c 0.8513,-0.2766 1.317,-1.1905 1.0405,-2.0418 -0.2765,-0.8513 -1.1905,-1.317 -2.0418,-1.0405 z" clip-path="url(#1779997896471-clipPath1)" id="path66" ns1:connector-curvature="0" style="stroke:none" />
    </g>
    <g id="g68" style="text-rendering:geometricPrecision;fill:#f5d0fe;stroke:none">
      <path d="m 689.5609,469.8142 15.5688,-73.2286 c 0.1862,-0.8755 -0.3724,-1.7358 -1.248,-1.9219 -0.8755,-0.1862 -1.7358,0.3724 -1.9219,1.248 l -15.5689,73.2286 c -0.1861,0.8755 0.3725,1.7358 1.248,1.9219 0.8755,0.1862 1.7358,-0.3725 1.922,-1.248 z" clip-path="url(#1779997896471-clipPath1)" id="path70" ns1:connector-curvature="0" style="stroke:none" />
    </g>
    <g id="g72" style="text-rendering:geometricPrecision;fill:#f5d0fe;stroke:none">
      <path d="m 686.4268,401.1862 c 0.6651,0.599 1.6895,0.5454 2.2884,-0.1198 0.599,-0.6652 0.5454,-1.6895 -0.1199,-2.2885 l -41.6436,-37.4984 c -0.6652,-0.5989 -1.6895,-0.5453 -2.2884,0.1199 -0.599,0.6651 -0.5454,1.6895 0.1198,2.2884 z m 16.0336,-3.7334 c 0.6652,0.5989 1.6896,0.5453 2.2885,-0.1199 0.599,-0.6651 0.5453,-1.6895 -0.1199,-2.2884 l -55.6393,-50.101 c -0.6651,-0.5989 -1.6895,-0.5453 -2.2884,0.1199 -0.599,0.6652 -0.5453,1.6895 0.1199,2.2885 z" clip-path="url(#1779997896471-clipPath1)" id="path74" ns1:connector-curvature="0" style="stroke:none" />
    </g>
    <g id="g76" style="text-rendering:geometricPrecision;fill:#f5d0fe;stroke:none">
      <path d="m 589.5396,381.6368 c 0.186,-0.8756 -0.3726,-1.7358 -1.2481,-1.9219 -0.8755,-0.1861 -1.7358,0.3726 -1.9219,1.2481 l -11.6474,54.8003 c -0.1861,0.8756 0.3725,1.7358 1.2481,1.9219 0.8755,0.1861 1.7358,-0.3726 1.9219,-1.2481 z m -11.2507,-12.0185 c 0.1861,-0.8755 -0.3725,-1.7357 -1.2481,-1.9218 -0.8755,-0.1861 -1.7357,0.3725 -1.9218,1.2481 l -15.5628,73.2218 c -0.1861,0.8756 0.3725,1.7358 1.2481,1.9219 0.8755,0.1861 1.7357,-0.3726 1.9218,-1.2481 z" clip-path="url(#1779997896471-clipPath1)" id="path78" ns1:connector-curvature="0" style="stroke:none" />
    </g>
    <g id="g80" style="text-rendering:geometricPrecision;fill:#f5d0fe;stroke:none">
      <path d="m 647.4047,344.6066 -71.2015,23.1338 c -0.8512,0.2766 -1.3169,1.1905 -1.0403,2.0418 0.2766,0.8513 1.1905,1.317 2.0418,1.0403 l 71.2014,-23.1337 c 0.8513,-0.2766 1.317,-1.1905 1.0404,-2.0418 -0.2766,-0.8513 -1.1905,-1.317 -2.0418,-1.0404 z" clip-path="url(#1779997896471-clipPath1)" id="path82" ns1:connector-curvature="0" style="stroke:none" />
    </g>
    <g id="g84" style="text-rendering:geometricPrecision;fill:#f5d0fe;stroke:none">
      <path d="m 379.017,335.724 28.3458,49.1103 c 0.4475,0.7752 1.4382,1.0408 2.2134,0.5933 0.7753,-0.4474 1.0409,-1.4382 0.5934,-2.2134 l -28.3458,-49.1103 c -0.4475,-0.7752 -1.4382,-1.0408 -2.2134,-0.5934 -0.7753,0.4475 -1.0409,1.4382 -0.5934,2.2135 z" clip-path="url(#1779997896471-clipPath1)" id="path86" ns1:connector-curvature="0" style="stroke:none" />
      <path d="m 379.017,335.724 28.3458,49.1103 c 0.4475,0.7752 1.4382,1.0408 2.2134,0.5933 0.7753,-0.4474 1.0409,-1.4382 0.5934,-2.2134 l -28.3458,-49.1103 c -0.4475,-0.7752 -1.4382,-1.0408 -2.2134,-0.5934 -0.7753,0.4475 -1.0409,1.4382 -0.5934,2.2135 z" clip-path="url(#17799978968-clipPath1)" id="path88" ns1:connector-curvature="0" style="fill:#c4b5fd;stroke:none" />
    </g>
    <g id="g90" style="text-rendering:geometricPrecision;fill:#f5d0fe;stroke:none">
      <path d="m 483.6383,252.7319 -74.8721,0 c -0.8951,0 -1.6204,0.7253 -1.6204,1.6204 0,0.8951 0.7253,1.6204 1.6204,1.6204 l 74.8721,0 c 0.8951,0 1.6204,-0.7253 1.6204,-1.6204 0,-0.8951 -0.7253,-1.6204 -1.6204,-1.6204 z" clip-path="url(#1779997896471-clipPath1)" id="path92" ns1:connector-curvature="0" style="stroke:none" />
    </g>
    <g id="g94" style="fill:#c4b5fd;stroke:none;text-rendering:geometricPrecision">
      <path d="m 407.3628,253.5423 -28.3458,49.1103 c -0.4475,0.7753 -0.1819,1.766 0.5934,2.2135 0.7752,0.4474 1.7659,0.1818 2.2134,-0.5934 l 28.3458,-49.1103 c 0.4475,-0.7753 0.1819,-1.766 -0.5934,-2.2135 -0.7752,-0.4474 -1.7659,-0.1818 -2.2134,0.5934 z" clip-path="url(#1779997896471-clipPath1)" id="path96" ns1:connector-curvature="0" style="stroke:none" />
      <path d="m 407.3628,253.5423 -28.3458,49.1103 c -0.4475,0.7753 -0.1819,1.766 0.5934,2.2135 0.7752,0.4474 1.7659,0.1818 2.2134,-0.5934 l 28.3458,-49.1103 c 0.4475,-0.7753 0.1819,-1.766 -0.5934,-2.2135 -0.7752,-0.4474 -1.7659,-0.1818 -2.2134,0.5934 z" clip-path="url(#1779997896132-clipPath1)" id="path98" ns1:connector-curvature="0" style="fill:#f5d0fe;stroke:none" />
    </g>
    <g id="g100" style="text-rendering:geometricPrecision;fill:#f5d0fe;stroke:none">
      <path d="m 357.409,317.5679 -60.9283,0 c -0.8951,0 -1.6204,0.7253 -1.6204,1.6204 0,0.8951 0.7253,1.6204 1.6204,1.6204 l 60.9283,0 c 0.8951,0 1.6204,-0.7253 1.6204,-1.6204 0,-0.8951 -0.7253,-1.6204 -1.6204,-1.6204 z" clip-path="url(#1779997896471-clipPath1)" id="path102" ns1:connector-curvature="0" style="stroke:none" />
      <path d="m 357.409,317.5679 -60.9283,0 c -0.8951,0 -1.6204,0.7253 -1.6204,1.6204 0,0.8951 0.7253,1.6204 1.6204,1.6204 l 60.9283,0 c 0.8951,0 1.6204,-0.7253 1.6204,-1.6204 0,-0.8951 -0.7253,-1.6204 -1.6204,-1.6204 z" clip-path="url(#1779997896801-clipPath1)" id="path104" ns1:connector-curvature="0" style="fill:#c4b5fd;stroke:none" />
    </g>
    <g id="g106" style="text-rendering:geometricPrecision;fill:#f5d0fe;stroke:none">
      <path d="m 297.884,318.3781 -37.4315,-64.8333 c -0.4476,-0.7752 -1.4384,-1.0407 -2.2135,-0.5931 -0.7752,0.4475 -1.0407,1.4383 -0.5932,2.2135 l 37.4316,64.8333 c 0.4475,0.7752 1.4383,1.0407 2.2135,0.5931 0.7752,-0.4476 1.0406,-1.4383 0.5931,-2.2135 z" clip-path="url(#1779997896471-clipPath1)" id="path108" ns1:connector-curvature="0" style="stroke:none" />
    </g>
    <g id="g110" style="text-rendering:geometricPrecision;fill:#f5d0fe;stroke:none">
      <path d="m 259.0492,252.7346 -74.8631,0 c -0.8951,0 -1.6204,0.7253 -1.6204,1.6204 0,0.8951 0.7253,1.6204 1.6204,1.6204 l 74.8631,0 c 0.895,0 1.6204,-0.7253 1.6204,-1.6204 0,-0.8951 -0.7254,-1.6204 -1.6204,-1.6204 z" clip-path="url(#1779997896471-clipPath1)" id="path112" ns1:connector-curvature="0" style="stroke:none" />
    </g>
    <g id="g114" style="text-rendering:geometricPrecision;fill:#f5d0fe;stroke:none">
      <path d="m 522.0896,320.4476 58.1799,-47.1124 c 0.6956,-0.5633 0.8029,-1.5834 0.2396,-2.279 -0.5633,-0.6956 -1.5834,-0.8028 -2.279,-0.2395 l -58.18,47.1123 c -0.6956,0.5633 -0.8028,1.5834 -0.2395,2.279 0.5633,0.6957 1.5834,0.8029 2.279,0.2396 z" clip-path="url(#1779997896471-clipPath1)" id="path116" ns1:connector-curvature="0" style="stroke:none" />
    </g>
    <g id="g118" style="fill:#fda4af;stroke:none;text-rendering:geometricPrecision">
      <path d="m 578.6691,273.5887 54.1337,20.7805 c 0.8356,0.3208 1.7727,-0.0964 2.0934,-0.932 0.3208,-0.8357 -0.0963,-1.7727 -0.932,-2.0935 l -54.1337,-20.7805 c -0.8356,-0.3208 -1.7727,0.0964 -2.0934,0.932 -0.3208,0.8357 0.0963,1.7727 0.932,2.0935 z" clip-path="url(#1779997896471-clipPath1)" id="path120" ns1:connector-curvature="0" style="stroke:none" />
      <path d="m 578.6691,273.5887 54.1337,20.7805 c 0.8356,0.3208 1.7727,-0.0964 2.0934,-0.932 0.3208,-0.8357 -0.0963,-1.7727 -0.932,-2.0935 l -54.1337,-20.7805 c -0.8356,-0.3208 -1.7727,0.0964 -2.0934,0.932 -0.3208,0.8357 0.0963,1.7727 0.932,2.0935 z" clip-path="url(#1779997896900-clipPath1)" id="path122" ns1:connector-curvature="0" style="fill:#f5d0fe;stroke:none" />
    </g>
    <g id="g124" style="text-rendering:geometricPrecision;fill:#f5d0fe;stroke:none">
      <path d="M 664.3137,288.7032 708.34,253.052 c 0.6956,-0.5632 0.8028,-1.5834 0.2395,-2.279 -0.5633,-0.6956 -1.5834,-0.8028 -2.279,-0.2395 l -44.0263,35.6511 c -0.6956,0.5633 -0.8028,1.5834 -0.2395,2.279 0.5633,0.6956 1.5833,0.8029 2.279,0.2396 z" clip-path="url(#1779997896471-clipPath1)" id="path126" ns1:connector-curvature="0" style="stroke:none" />
      <path d="M 664.3137,288.7032 708.34,253.052 c 0.6956,-0.5632 0.8028,-1.5834 0.2395,-2.279 -0.5633,-0.6956 -1.5834,-0.8028 -2.279,-0.2395 l -44.0263,35.6511 c -0.6956,0.5633 -0.8028,1.5834 -0.2395,2.279 0.5633,0.6956 1.5833,0.8029 2.279,0.2396 z" clip-path="url(#1779997896129-clipPath1)" id="path128" ns1:connector-curvature="0" style="fill:#fda4af;stroke:none" />
    </g>
    <g id="g130" style="fill:#fda4af;stroke:none;text-rendering:geometricPrecision">
      <path d="m 571.5905,277.2357 c 0.14,0.8841 0.9699,1.487 1.854,1.347 0.8841,-0.14 1.487,-0.9699 1.3469,-1.854 l -9.2404,-58.3448 c -0.14,-0.8841 -0.9698,-1.487 -1.8539,-1.347 -0.8841,0.14 -1.487,0.9698 -1.3469,1.8539 z m 13.3372,-2.1123 c 0.14,0.8841 0.9699,1.487 1.8539,1.347 0.8841,-0.14 1.487,-0.9699 1.347,-1.8539 l -9.2404,-58.3449 c -0.14,-0.8841 -0.9698,-1.487 -1.8539,-1.347 -0.8841,0.14 -1.487,0.9698 -1.347,1.8539 z" clip-path="url(#1779997896471-clipPath1)" id="path132" ns1:connector-curvature="0" style="stroke:none" />
      <path d="m 571.5905,277.2357 c 0.14,0.8841 0.9699,1.487 1.854,1.347 0.8841,-0.14 1.487,-0.9699 1.3469,-1.854 l -9.2404,-58.3448 c -0.14,-0.8841 -0.9698,-1.487 -1.8539,-1.347 -0.8841,0.14 -1.487,0.9698 -1.3469,1.8539 z m 13.3372,-2.1123 c 0.14,0.8841 0.9699,1.487 1.8539,1.347 0.8841,-0.14 1.487,-0.9699 1.347,-1.8539 l -9.2404,-58.3449 c -0.14,-0.8841 -0.9698,-1.487 -1.8539,-1.347 -0.8841,0.14 -1.487,0.9698 -1.347,1.8539 z" clip-path="url(#1779997896882-clipPath1)" id="path134" ns1:connector-curvature="0" style="fill:#f5d0fe;stroke:none" />
    </g>
    <g id="g136" style="text-rendering:geometricPrecision;fill:#f5d0fe;stroke:none">
      <path d="m 706.7395,253.3055 63.8394,24.5063 c 0.8357,0.3208 1.7727,-0.0964 2.0935,-0.932 0.3208,-0.8357 -0.0965,-1.7727 -0.9321,-2.0935 L 707.9009,250.28 c -0.8357,-0.3208 -1.7727,0.0964 -2.0935,0.932 -0.3208,0.8357 0.0965,1.7727 0.9321,2.0935 z" clip-path="url(#1779997896471-clipPath1)" id="path138" ns1:connector-curvature="0" style="stroke:none" />
    </g>
    <g id="g140" style="text-rendering:geometricPrecision;fill:#f5d0fe;stroke:none">
      <path d="m 184.1861,252.7346 -74.8631,0 c -0.8951,0 -1.6204,0.7253 -1.6204,1.6204 0,0.8951 0.7253,1.6204 1.6204,1.6204 l 74.8631,0 c 0.8951,0 1.6204,-0.7253 1.6204,-1.6204 0,-0.8951 -0.7253,-1.6204 -1.6204,-1.6204 z" clip-path="url(#1779997896471-clipPath1)" id="path142" ns1:connector-curvature="0" style="stroke:none" />
    </g>
    <g id="g144" style="text-rendering:geometricPrecision;fill:#f5d0fe;stroke:none">
      <path d="m 185.8065,254.355 0,-74.8631 c 0,-0.8951 -0.7253,-1.6204 -1.6204,-1.6204 -0.8951,0 -1.6204,0.7253 -1.6204,1.6204 l 0,74.8631 c 0,0.8951 0.7253,1.6204 1.6204,1.6204 0.8951,0 1.6204,-0.7253 1.6204,-1.6204 z" clip-path="url(#1779997896471-clipPath1)" id="path146" ns1:connector-curvature="0" style="stroke:none" />
    </g>
    <g id="g148" style="text-rendering:geometricPrecision;fill:#f5d0fe;stroke:none">
      <path d="m 182.5657,254.355 0,74.863 c 0,0.8951 0.7253,1.6204 1.6204,1.6204 0.8951,0 1.6204,-0.7253 1.6204,-1.6204 l 0,-74.863 c 0,-0.8951 -0.7253,-1.6204 -1.6204,-1.6204 -0.8951,0 -1.6204,0.7253 -1.6204,1.6204 z" clip-path="url(#1779997896471-clipPath1)" id="path150" ns1:connector-curvature="0" style="stroke:none" />
    </g>
    <g id="g152" style="text-rendering:geometricPrecision;fill:#f5d0fe;stroke:none">
      <path d="m 250.6345,142.0624 0.002,-74.8721 c 0,-0.8951 -0.7253,-1.6205 -1.6204,-1.6205 -0.8951,0 -1.6204,0.7253 -1.6204,1.6204 l -0.002,74.8721 c 0,0.8951 0.7253,1.6204 1.6204,1.6205 0.895,0 1.6204,-0.7253 1.6204,-1.6204 z" clip-path="url(#1779997896471-clipPath1)" id="path154" ns1:connector-curvature="0" style="stroke:none" />
    </g>
    <g id="g156" style="text-rendering:geometricPrecision;fill:#f5d0fe;stroke:none">
      <path d="m 233.2992,75.5786 c 0.7751,0.4476 1.7659,0.1822 2.2135,-0.593 0.4476,-0.7751 0.1822,-1.7659 -0.5929,-2.2135 L 186.4032,44.7563 c -0.7751,-0.4476 -1.7659,-0.1822 -2.2135,0.593 -0.4476,0.7751 -0.1822,1.7659 0.5929,2.2135 z m 14.9069,-6.9851 c 0.7751,0.4476 1.7659,0.1822 2.2135,-0.593 0.4476,-0.7751 0.1822,-1.7659 -0.5929,-2.2135 L 185.0009,28.3535 c -0.7751,-0.4476 -1.7659,-0.1822 -2.2135,0.5929 -0.4476,0.7752 -0.1822,1.766 0.5929,2.2136 z" clip-path="url(#1779997896471-clipPath1)" id="path158" ns1:connector-curvature="0" style="stroke:none" />
    </g>
    <g id="g160" style="text-rendering:geometricPrecision;fill:#f5d0fe;stroke:none">
      <path d="m 183.3805,28.3534 -64.8371,37.4295 c -0.7752,0.4476 -1.0407,1.4383 -0.5932,2.2135 0.4475,0.7752 1.4383,1.0407 2.2135,0.5932 l 64.8371,-37.4295 c 0.7752,-0.4475 1.0407,-1.4383 0.5932,-2.2135 -0.4475,-0.7752 -1.4383,-1.0407 -2.2135,-0.5932 z" clip-path="url(#1779997896471-clipPath1)" id="path162" ns1:connector-curvature="0" style="stroke:none" />
    </g>
    <g id="g164" style="text-rendering:geometricPrecision;fill:#f5d0fe;stroke:none">
      <path d="m 134.4771,76.6035 c 0,-0.8951 -0.7253,-1.6204 -1.6204,-1.6204 -0.8951,-10e-5 -1.6204,0.7252 -1.6204,1.6203 l -0.002,56.0386 c 0,0.8951 0.7253,1.6205 1.6203,1.6205 0.8951,0 1.6205,-0.7253 1.6205,-1.6204 z M 120.974,67.1863 c 0,-0.8951 -0.7253,-1.6204 -1.6204,-1.6204 -0.8951,0 -1.6204,0.7252 -1.6204,1.6203 l -0.002,74.8722 c 0,0.8951 0.7252,1.6204 1.6203,1.6204 0.8951,0 1.6205,-0.7252 1.6205,-1.6203 z" clip-path="url(#1779997896471-clipPath1)" id="path166" ns1:connector-curvature="0" style="stroke:none" />
    </g>
    <g id="g168" style="text-rendering:geometricPrecision;fill:#f5d0fe;stroke:none">
      <path d="m 184.7792,161.6859 c -0.7752,0.4475 -1.0407,1.4383 -0.5931,2.2135 0.4476,0.7752 1.4383,1.0406 2.2135,0.5931 l 48.5182,-28.0129 c 0.7752,-0.4475 1.0407,-1.4383 0.5931,-2.2135 -0.4475,-0.7751 -1.4383,-1.0406 -2.2135,-0.5931 z m -1.4033,16.4027 c -0.7752,0.4476 -1.0406,1.4384 -0.5931,2.2135 0.4476,0.7752 1.4383,1.0407 2.2135,0.5931 l 64.828,-37.4295 c 0.7752,-0.4476 1.0407,-1.4384 0.5931,-2.2136 -0.4476,-0.7751 -1.4383,-1.0406 -2.2135,-0.593 z" clip-path="url(#1779997896471-clipPath1)" id="path170" ns1:connector-curvature="0" style="stroke:none" />
    </g>
    <g id="g172" style="text-rendering:geometricPrecision;fill:#f5d0fe;stroke:none">
      <path d="m 118.5411,143.4617 64.8348,37.4335 c 0.7751,0.4476 1.7659,0.1821 2.2135,-0.5931 0.4476,-0.7751 0.1821,-1.7659 -0.5931,-2.2135 l -64.8348,-37.4335 c -0.7752,-0.4475 -1.7659,-0.1821 -2.2135,0.5931 -0.4476,0.7752 -0.1821,1.766 0.5931,2.2135 z" clip-path="url(#1779997896471-clipPath1)" id="path174" ns1:connector-curvature="0" style="stroke:none" />
    </g>
    <g id="g176" style="text-rendering:geometricPrecision;fill:#f5d0fe;stroke:none">
      <path d="m 117.7377,366.6476 -0.002,74.8721 c 0,0.8951 0.7253,1.6204 1.6204,1.6204 0.8951,10e-5 1.6204,-0.7252 1.6204,-1.6203 l 0.002,-74.8722 c 0,-0.895 -0.7253,-1.6203 -1.6204,-1.6204 -0.8951,0 -1.6204,0.7253 -1.6204,1.6204 z" clip-path="url(#1779997896471-clipPath1)" id="path178" ns1:connector-curvature="0" style="stroke:none" />
    </g>
    <g id="g180" style="text-rendering:geometricPrecision;fill:#f5d0fe;stroke:none">
      <path d="m 135.073,433.1314 c -0.7751,-0.4476 -1.7659,-0.1822 -2.2135,0.5929 -0.4476,0.7752 -0.1822,1.766 0.5929,2.2136 l 48.5166,28.0157 c 0.7751,0.4476 1.7659,0.1823 2.2135,-0.5929 0.4476,-0.7751 0.1822,-1.7659 -0.5929,-2.2135 z m -14.9069,6.9851 c -0.7751,-0.4476 -1.7659,-0.1822 -2.2135,0.5929 -0.4476,0.7752 -0.1822,1.766 0.5929,2.2136 l 64.8258,37.4335 c 0.7751,0.4476 1.7659,0.1822 2.2135,-0.593 0.4476,-0.7751 0.1822,-1.7659 -0.5929,-2.2135 z" clip-path="url(#1779997896471-clipPath1)" id="path182" ns1:connector-curvature="0" style="stroke:none" />
    </g>
    <g id="g184" style="text-rendering:geometricPrecision;fill:#f5d0fe;stroke:none">
      <path d="m 184.9917,480.3566 64.8371,-37.4296 c 0.7752,-0.4475 1.0407,-1.4383 0.5932,-2.2135 -0.4475,-0.7751 -1.4383,-1.0407 -2.2135,-0.5932 l -64.8371,37.4296 c -0.7752,0.4475 -1.0407,1.4383 -0.5932,2.2135 0.4475,0.7752 1.4383,1.0407 2.2135,0.5932 z" clip-path="url(#1779997896471-clipPath1)" id="path186" ns1:connector-curvature="0" style="stroke:none" />
    </g>
    <g id="g188" style="text-rendering:geometricPrecision;fill:#f5d0fe;stroke:none">
      <path d="m 233.8951,432.1064 c 0,0.8952 0.7253,1.6205 1.6204,1.6205 0.8951,0 1.6204,-0.7253 1.6204,-1.6204 l 0.002,-56.0386 c 0,-0.895 -0.7252,-1.6204 -1.6203,-1.6204 -0.8952,-10e-5 -1.6205,0.7252 -1.6205,1.6203 z m 13.5031,9.4172 c 0,0.8951 0.7253,1.6204 1.6204,1.6205 0.8951,0 1.6204,-0.7253 1.6204,-1.6204 l 0.002,-74.8721 c 0,-0.8951 -0.7252,-1.6204 -1.6203,-1.6205 -0.8951,0 -1.6205,0.7253 -1.6205,1.6204 z" clip-path="url(#1779997896471-clipPath1)" id="path190" ns1:connector-curvature="0" style="stroke:none" />
    </g>
    <g id="g192" style="text-rendering:geometricPrecision;fill:#f5d0fe;stroke:none">
      <path d="m 183.593,347.0241 c 0.7752,-0.4476 1.0407,-1.4383 0.5931,-2.2135 -0.4476,-0.7752 -1.4383,-1.0407 -2.2135,-0.5931 l -48.5182,28.0128 c -0.7752,0.4476 -1.0407,1.4384 -0.5931,2.2135 0.4475,0.7752 1.4383,1.0407 2.2135,0.5931 z m 1.4033,-16.4028 c 0.7752,-0.4475 1.0407,-1.4383 0.5931,-2.2135 -0.4476,-0.7751 -1.4383,-1.0406 -2.2135,-0.593 l -64.828,37.4295 c -0.7752,0.4476 -1.0407,1.4383 -0.5931,2.2135 0.4476,0.7752 1.4383,1.0406 2.2135,0.5931 z" clip-path="url(#1779997896471-clipPath1)" id="path194" ns1:connector-curvature="0" style="stroke:none" />
    </g>
    <g id="g196" style="text-rendering:geometricPrecision;fill:#f5d0fe;stroke:none">
      <path d="m 249.8311,365.2482 -64.8348,-37.4334 c -0.7752,-0.4476 -1.7659,-0.1821 -2.2135,0.593 -0.4475,0.7752 -0.1821,1.766 0.5931,2.2135 l 64.8348,37.4335 c 0.7752,0.4476 1.766,0.1821 2.2135,-0.593 0.4476,-0.7752 0.1821,-1.766 -0.5931,-2.2136 z" clip-path="url(#1779997896471-clipPath1)" id="path198" ns1:connector-curvature="0" style="stroke:none" />
    </g>
    <g id="g200" style="fill:#c4b5fd;stroke:none;text-rendering:geometricPrecision">
      <path d="m 109.323,269.4788 c 0.8951,0 1.6204,-0.7253 1.6204,-1.6204 0,-0.8951 -0.7253,-1.6204 -1.6204,-1.6204 l -60.9283,0 c -0.8951,0 -1.6204,0.7253 -1.6204,1.6204 0,0.8951 0.7253,1.6204 1.6204,1.6204 z m 0,-13.5034 c 0.8951,0 1.6204,-0.7253 1.6204,-1.6204 0,-0.8951 -0.7253,-1.6204 -1.6204,-1.6204 l -60.9283,0 c -0.8951,0 -1.6204,0.7253 -1.6204,1.6204 0,0.8951 0.7253,1.6204 1.6204,1.6204 z m 0,-13.5034 c 0.8951,0 1.6204,-0.7253 1.6204,-1.6204 0,-0.8951 -0.7253,-1.6204 -1.6204,-1.6204 l -60.9283,0 c -0.8951,0 -1.6204,0.7253 -1.6204,1.6204 0,0.8951 0.7253,1.6204 1.6204,1.6204 z" clip-path="url(#1779997896471-clipPath1)" id="path202" ns1:connector-curvature="0" style="stroke:none" />
      <path d="m 109.323,269.4788 c 0.8951,0 1.6204,-0.7253 1.6204,-1.6204 0,-0.8951 -0.7253,-1.6204 -1.6204,-1.6204 l -60.9283,0 c -0.8951,0 -1.6204,0.7253 -1.6204,1.6204 0,0.8951 0.7253,1.6204 1.6204,1.6204 z m 0,-13.5034 c 0.8951,0 1.6204,-0.7253 1.6204,-1.6204 0,-0.8951 -0.7253,-1.6204 -1.6204,-1.6204 l -60.9283,0 c -0.8951,0 -1.6204,0.7253 -1.6204,1.6204 0,0.8951 0.7253,1.6204 1.6204,1.6204 z m 0,-13.5034 c 0.8951,0 1.6204,-0.7253 1.6204,-1.6204 0,-0.8951 -0.7253,-1.6204 -1.6204,-1.6204 l -60.9283,0 c -0.8951,0 -1.6204,0.7253 -1.6204,1.6204 0,0.8951 0.7253,1.6204 1.6204,1.6204 z" clip-path="url(#1779997896587-clipPath1)" id="path204" ns1:connector-curvature="0" style="fill:#f5d0fe;stroke:none" />
    </g>
    <g id="g206" style="fill:#eef2ff;stroke:none;text-rendering:geometricPrecision">
      </g>
    <g font-size="26px" transform="translate(361.8906,303.6883)" id="g210" style="font-size:26px;font-family:sans-serif;fill:#c4b5fd;stroke:none;text-rendering:geometricPrecision">
      <text x="0" xml:space="preserve" y="25" clip-path="url(#1779997896753-clipPath1)" id="text212" style="stroke:none">N</text>
    </g>
    <g font-size="26px" id="g214" style="font-size:26px;font-family:sans-serif;fill:#eef2ff;stroke:none;text-rendering:geometricPrecision">
      <text x="0" y="25" transform="translate(557.4143,182.6345)" clip-path="url(#1779997896528-clipPath1)" xml:space="preserve" id="text218" style="fill:#fda4af;stroke:none">O</text>
    </g>
    <g font-size="26px" id="g220" style="font-size:26px;font-family:sans-serif;fill:#eef2ff;stroke:none;text-rendering:geometricPrecision">
      <text x="0" y="25" transform="translate(639.0153,283.4051)" clip-path="url(#1779997896210-clipPath1)" xml:space="preserve" id="text224" style="fill:#fda4af;stroke:none">O</text>
    </g>
    <g font-size="26px" id="g226" style="font-size:26px;font-family:sans-serif;fill:#eef2ff;stroke:none;text-rendering:geometricPrecision">
      <text x="0" y="25" transform="translate(25.0069,238.855)" clip-path="url(#177999789635-clipPath1)" xml:space="preserve" id="text230" style="fill:#c4b5fd;stroke:none">N</text>
    </g>
  </g>
</svg>