<?xml version='1.0' encoding='utf-8'?>
<svg xmlns="http://www.w3.org/2000/svg" xmlns:dc="http://purl.org/dc/elements/1.1/" xmlns:ns1="http://www.inkscape.org/namespaces/inkscape" xmlns:ns2="http://sodipodi.sourceforge.net/DTD/sodipodi-0.dtd" xmlns:ns4="http://creativecommons.org/ns#" xmlns:rdf="http://www.w3.org/1999/02/22-rdf-syntax-ns#" width="734.37543" stroke-miterlimit="10" font-weight="normal" height="297.1348" font-style="normal" font-size="12px" id="svg2" version="1.1" ns1:version="0.91 r13725" ns2:docname="Dopamine.svg" style="font-style:normal;font-weight:normal;font-size:12px;font-family:Dialog;color-interpolation:auto;fill:#000000;fill-opacity:1;stroke:none;stroke:none;stroke:none;stroke:none;stroke:none;stroke:none;stroke:none;stroke:none;color-rendering:auto;image-rendering:auto;shape-rendering:auto;text-rendering:auto">
  <metadata id="metadata108">
    <rdf:RDF>
      <ns4:Work rdf:about="">
        <dc:format>image/svg+xml</dc:format>
        <dc:type rdf:resource="http://purl.org/dc/dcmitype/StillImage" />
        <dc:title />
      </ns4:Work>
    </rdf:RDF>
  </metadata>
  <ns2:namedview pagecolor="#ffffff" bordercolor="#666666" borderopacity="1" objecttolerance="10" gridtolerance="10" guidetolerance="10" ns1:pageopacity="0" ns1:pageshadow="2" ns1:window-width="1060" ns1:window-height="480" id="namedview106" showgrid="false" fit-margin-top="10" fit-margin-left="10" fit-margin-right="10" fit-margin-bottom="10" ns1:zoom="0.36375" ns1:cx="367.1877" ns1:cy="148.5674" ns1:window-x="0" ns1:window-y="0" ns1:window-maximized="0" ns1:current-layer="svg2" />
  
  <defs id="genericDefs" />
  <g id="g5" transform="translate(-32.8123,-151.4326)" style="fill:#000000;stroke:none">
    <defs id="181183826748-defs1">
      <clipPath clipPathUnits="userSpaceOnUse" id="181183826972-clipPath1">
        <path d="M 0,0 800,0 800,600 0,600 0,0 Z" id="path9" ns1:connector-curvature="0" style="stroke:none" />
      </clipPath>
      <clipPath clipPathUnits="userSpaceOnUse" id="18118382651-clipPath1">
        <path d="m 593.7706,193.5054 c -25.8373,0 -46.7825,20.9452 -46.7825,46.7825 0,25.8373 20.9452,46.7825 46.7825,46.7825 25.8373,0 46.7826,-20.9452 46.7826,-46.7825 0,-25.8373 -20.9453,-46.7825 -46.7826,-46.7825 z" id="path12" ns1:connector-curvature="0" style="stroke:none" />
      </clipPath>
      <clipPath clipPathUnits="userSpaceOnUse" id="181183826411-clipPath1">
        <path d="m 182.7937,197.7565 c -23.4904,0 -42.5332,19.0428 -42.5332,42.5332 0,23.4905 19.0428,42.5332 42.5332,42.5332 23.4904,0 42.5331,-19.0427 42.5331,-42.5332 0,-23.4904 -19.0427,-42.5332 -42.5331,-42.5332 z" id="path15" ns1:connector-curvature="0" style="stroke:none" />
      </clipPath>
      <clipPath clipPathUnits="userSpaceOnUse" id="181183826872-clipPath1">
        <path d="m 182.7937,316.2637 c -23.5721,0 -42.681,19.1089 -42.681,42.681 0,23.572 19.1089,42.6809 42.681,42.6809 23.572,0 42.6809,-19.1089 42.6809,-42.6809 0,-23.5721 -19.1089,-42.681 -42.6809,-42.681 z" id="path18" ns1:connector-curvature="0" style="stroke:none" />
      </clipPath>
      <clipPath clipPathUnits="userSpaceOnUse" id="181183826372-clipPath1">
        <path d="m -39.8123,-156.4716 800,0 0,600 -800,0 0,-600 z" id="path21" ns1:connector-curvature="0" style="stroke:none" />
      </clipPath>
      <clipPath clipPathUnits="userSpaceOnUse" id="181183826730-clipPath1">
        <path d="m -39.8123,-393.7627 800,0 0,600 -800,0 0,-600 z" id="path24" ns1:connector-curvature="0" style="stroke:none" />
      </clipPath>
      <clipPath clipPathUnits="userSpaceOnUse" id="181183826351-clipPath1">
        <path d="m -680.9221,-156.4667 800,0 0,600 -800,0 0,-600 z" id="path27" ns1:connector-curvature="0" style="stroke:none" />
      </clipPath>
      <clipPath clipPathUnits="userSpaceOnUse" id="18118382643-clipPath1">
        <path d="m -736.969,-177.2024 800,0 0,600 -800,0 0,-600 z" id="path30" ns1:connector-curvature="0" style="stroke:none" />
      </clipPath>
    </defs>
    <g id="g32" style="text-rendering:geometricPrecision;fill:#000000;stroke:none">
      <path d="m 284.5902,209.1879 c 1.2284,-0.7093 1.6491,-2.2795 0.9398,-3.5079 -0.7094,-1.2285 -2.2795,-1.6491 -3.508,-0.9398 l -76.8887,44.3962 c -1.2285,0.7093 -1.6492,2.2794 -0.9398,3.5079 0.7093,1.2284 2.2794,1.6491 3.5079,0.9398 z m 2.2231,-25.9946 c 1.2284,-0.7093 1.6491,-2.2795 0.9398,-3.5079 -0.7093,-1.2285 -2.2795,-1.6491 -3.508,-0.9398 l -102.7355,59.3203 c -1.2284,0.7093 -1.6491,2.2794 -0.9398,3.5079 0.7093,1.2284 2.2795,1.6491 3.5079,0.9398 z" clip-path="url(#181183826972-clipPath1)" id="path34" ns1:connector-curvature="0" style="stroke:none" />
    </g>
    <g id="g36" style="text-rendering:geometricPrecision;fill:#000000;stroke:none">
      <path d="m 180.2257,240.2897 0,118.655 c 0,1.4185 1.1495,2.5679 2.568,2.5679 1.4185,0 2.5679,-1.1494 2.5679,-2.5679 l 0,-118.655 c 0,-1.4185 -1.1494,-2.5679 -2.5679,-2.5679 -1.4185,0 -2.568,1.1494 -2.568,2.5679 z" clip-path="url(#181183826972-clipPath1)" id="path38" ns1:connector-curvature="0" style="stroke:none" />
    </g>
    <g id="g40" style="text-rendering:geometricPrecision;fill:#000000;stroke:none">
      <path d="m 207.7014,345.6503 c -1.2285,-0.7093 -2.7986,-0.2886 -3.5079,0.9398 -0.7094,1.2284 -0.2887,2.7986 0.9398,3.5079 l 76.8887,44.3962 c 1.2285,0.7093 2.7986,0.2887 3.508,-0.9398 0.7093,-1.2284 0.2886,-2.7986 -0.9398,-3.5079 z m -23.6237,11.0705 c -1.2284,-0.7093 -2.7986,-0.2887 -3.5079,0.9398 -0.7093,1.2284 -0.2886,2.7986 0.9398,3.5079 l 102.7355,59.3203 c 1.2285,0.7093 2.7987,0.2887 3.508,-0.9398 0.7093,-1.2284 0.2886,-2.7986 -0.9398,-3.5079 z" clip-path="url(#181183826972-clipPath1)" id="path42" ns1:connector-curvature="0" style="stroke:none" />
    </g>
    <g id="g44" style="text-rendering:geometricPrecision;fill:#000000;stroke:none">
      <path d="m 286.8131,420.4889 102.75,-59.3203 c 1.2285,-0.7092 1.6492,-2.2794 0.94,-3.5079 -0.7093,-1.2285 -2.2794,-1.6492 -3.5079,-0.94 L 284.2453,416.041 c -1.2285,0.7092 -1.6493,2.2794 -0.94,3.5079 0.7092,1.2285 2.2794,1.6492 3.5078,0.94 z" clip-path="url(#181183826972-clipPath1)" id="path46" ns1:connector-curvature="0" style="stroke:none" />
    </g>
    <g id="g48" style="text-rendering:geometricPrecision;fill:#000000;stroke:none">
      <path d="m 364.3114,344.0213 c 0,1.4185 1.1494,2.5679 2.5679,2.5679 1.4186,0 2.568,-1.1494 2.568,-2.5679 l 0,-88.8082 c 0,-1.4185 -1.1494,-2.568 -2.568,-2.568 -1.4185,0 -2.5679,1.1495 -2.5679,2.568 z m 21.3998,14.9234 c 0,1.4185 1.1494,2.5679 2.5679,2.5679 1.4186,0 2.568,-1.1494 2.568,-2.5679 l 0,-118.655 c 0,-1.4185 -1.1494,-2.5679 -2.568,-2.5679 -1.4185,0 -2.5679,1.1494 -2.5679,2.5679 z" clip-path="url(#181183826972-clipPath1)" id="path50" ns1:connector-curvature="0" style="stroke:none" />
    </g>
    <g id="g52" style="text-rendering:geometricPrecision;fill:#000000;stroke:none">
      <path d="m 389.5631,238.0658 -102.75,-59.3203 c -1.2284,-0.7092 -2.7986,-0.2885 -3.5078,0.94 -0.7093,1.2285 -0.2885,2.7986 0.94,3.5079 l 102.7499,59.3202 c 1.2285,0.7093 2.7986,0.2885 3.5079,-0.9399 0.7092,-1.2285 0.2885,-2.7987 -0.94,-3.5079 z" clip-path="url(#181183826972-clipPath1)" id="path54" ns1:connector-curvature="0" style="stroke:none" />
    </g>
    <g id="g56" style="text-rendering:geometricPrecision;fill:#000000;stroke:none">
      <path d="m 389.5631,242.5136 102.7452,-59.3212 c 1.2285,-0.7092 1.6493,-2.2794 0.94,-3.5079 -0.7093,-1.2284 -2.2795,-1.6491 -3.5079,-0.9399 l -102.7453,59.3212 c -1.2284,0.7093 -1.6492,2.2794 -0.9399,3.5079 0.7093,1.2285 2.2795,1.6492 3.5079,0.9399 z" clip-path="url(#181183826972-clipPath1)" id="path58" ns1:connector-curvature="0" style="stroke:none" />
    </g>
    <g id="g60" style="text-rendering:geometricPrecision;fill:#000000;stroke:none">
      <path d="m 489.7404,183.1924 102.7463,59.3194 c 1.2284,0.7093 2.7986,0.2886 3.5079,-0.9399 0.7092,-1.2285 0.2885,-2.7987 -0.94,-3.5079 L 492.3083,178.7446 c -1.2285,-0.7092 -2.7986,-0.2885 -3.5079,0.94 -0.7092,1.2285 -0.2885,2.7986 0.94,3.5078 z" clip-path="url(#181183826972-clipPath1)" id="path62" ns1:connector-curvature="0" style="stroke:none" />
    </g>
    <g id="g64" style="fill:#333399;stroke:none;text-rendering:geometricPrecision">
      <path d="m 595.0546,242.5118 81.0293,-46.7832 c 1.2285,-0.7093 1.6492,-2.2794 0.9399,-3.5079 -0.7093,-1.2285 -2.2794,-1.6492 -3.5079,-0.9399 l -81.0293,46.7832 c -1.2284,0.7093 -1.6491,2.2794 -0.9398,3.5079 0.7092,1.2285 2.2794,1.6492 3.5078,0.9399 z" clip-path="url(#181183826972-clipPath1)" id="path66" ns1:connector-curvature="0" style="stroke:none" />
      <path d="m 595.0546,242.5118 81.0293,-46.7832 c 1.2285,-0.7093 1.6492,-2.2794 0.9399,-3.5079 -0.7093,-1.2285 -2.2794,-1.6492 -3.5079,-0.9399 l -81.0293,46.7832 c -1.2284,0.7093 -1.6491,2.2794 -0.9398,3.5079 0.7092,1.2285 2.2794,1.6492 3.5078,0.9399 z" clip-path="url(#18118382651-clipPath1)" id="path68" ns1:connector-curvature="0" style="fill:#000000;stroke:none" />
    </g>
    <g id="g70" style="fill:#ff0000;stroke:none;text-rendering:geometricPrecision">
      <path d="m 184.0776,238.0658 -73.6705,-42.5316 c -1.2285,-0.7092 -2.7987,-0.2885 -3.5079,0.94 -0.7092,1.2285 -0.2885,2.7986 0.94,3.5079 l 73.6706,42.5316 c 1.2284,0.7092 2.7986,0.2884 3.5078,-0.9401 0.7093,-1.2284 0.2885,-2.7986 -0.94,-3.5078 z" clip-path="url(#181183826972-clipPath1)" id="path72" ns1:connector-curvature="0" style="stroke:none" />
      <path d="m 184.0776,238.0658 -73.6705,-42.5316 c -1.2285,-0.7092 -2.7987,-0.2885 -3.5079,0.94 -0.7092,1.2285 -0.2885,2.7986 0.94,3.5079 l 73.6706,42.5316 c 1.2284,0.7092 2.7986,0.2884 3.5078,-0.9401 0.7093,-1.2284 0.2885,-2.7986 -0.94,-3.5078 z" clip-path="url(#181183826411-clipPath1)" id="path74" ns1:connector-curvature="0" style="fill:#000000;stroke:none" />
    </g>
    <g id="g76" style="fill:#ff0000;stroke:none;text-rendering:geometricPrecision">
      <path d="m 181.5098,356.7207 -73.9265,42.6794 c -1.2285,0.7092 -1.6493,2.2793 -0.94,3.5078 0.7092,1.2285 2.2793,1.6493 3.5078,0.94 l 73.9265,-42.6793 c 1.2285,-0.7092 1.6493,-2.2794 0.94,-3.5079 -0.7092,-1.2284 -2.2794,-1.6492 -3.5078,-0.94 z" clip-path="url(#181183826972-clipPath1)" id="path78" ns1:connector-curvature="0" style="stroke:none" />
      <path d="m 181.5098,356.7207 -73.9265,42.6794 c -1.2285,0.7092 -1.6493,2.2793 -0.94,3.5078 0.7092,1.2285 2.2793,1.6493 3.5078,0.94 l 73.9265,-42.6793 c 1.2285,-0.7092 1.6493,-2.2794 0.94,-3.5079 -0.7092,-1.2284 -2.2794,-1.6492 -3.5078,-0.94 z" clip-path="url(#181183826872-clipPath1)" id="path80" ns1:connector-curvature="0" style="fill:#000000;stroke:none" />
    </g>
    <g id="g82" style="fill:#ffffff;stroke:none;text-rendering:geometricPrecision">
      </g>
    <g font-size="42px" transform="translate(39.8123,156.4716)" id="g86" style="font-size:42px;font-family:sans-serif;fill:#ff0000;stroke:none;text-rendering:geometricPrecision">
      <text x="0" xml:space="preserve" y="40" clip-path="url(#181183826372-clipPath1)" id="text88" style="stroke:none">HO</text>
    </g>
    <g font-size="42px" id="g90" style="font-size:42px;font-family:sans-serif;fill:#ffffff;stroke:none;text-rendering:geometricPrecision">
      <text x="0" y="40" transform="translate(39.8123,393.7627)" clip-path="url(#181183826730-clipPath1)" xml:space="preserve" id="text94" style="fill:#ff0000;stroke:none">HO</text>
    </g>
    <g font-size="42px" id="g96" style="font-size:42px;font-family:sans-serif;fill:#ffffff;stroke:none;text-rendering:geometricPrecision">
      <text x="0" y="40" transform="translate(680.9221,156.4667)" clip-path="url(#181183826351-clipPath1)" xml:space="preserve" id="text100" style="fill:#333399;stroke:none">NH</text>
    </g>
    <g font-size="34px" transform="translate(736.969,177.2024)" id="g102" style="font-size:34px;font-family:sans-serif;fill:#333399;stroke:none;text-rendering:geometricPrecision">
      <text x="0" xml:space="preserve" y="33" clip-path="url(#18118382643-clipPath1)" id="text104" style="stroke:none">2</text>
    </g>
  </g>
</svg>