<?xml version='1.0' encoding='utf-8'?>
<svg xmlns="http://www.w3.org/2000/svg" xmlns:dc="http://purl.org/dc/elements/1.1/" xmlns:ns1="http://www.inkscape.org/namespaces/inkscape" xmlns:ns2="http://sodipodi.sourceforge.net/DTD/sodipodi-0.dtd" xmlns:ns4="http://creativecommons.org/ns#" xmlns:rdf="http://www.w3.org/1999/02/22-rdf-syntax-ns#" width="472.71881" stroke-miterlimit="10" font-weight="normal" height="332.88641" font-style="normal" font-size="12px" id="svg2" version="1.1" ns1:version="0.91 r13725" ns2:docname="Eptazocine.svg" style="font-style:normal;font-weight:normal;font-size:12px;font-family:Dialog;color-interpolation:auto;fill:#f5d0fe;fill-opacity:1;stroke:none;stroke:none;stroke:none;stroke:none;stroke:none;stroke:none;stroke:none;stroke:none;color-rendering:auto;image-rendering:auto;shape-rendering:auto;text-rendering:auto">
  <metadata id="metadata128">
    <rdf:RDF>
      <ns4:Work rdf:about="">
        <dc:format>image/svg+xml</dc:format>
        <dc:type rdf:resource="http://purl.org/dc/dcmitype/StillImage" />
        <dc:title />
      </ns4:Work>
    </rdf:RDF>
  </metadata>
  <ns2:namedview pagecolor="#eef2ff" bordercolor="#666666" borderopacity="1" objecttolerance="10" gridtolerance="10" guidetolerance="10" ns1:pageopacity="0" ns1:pageshadow="2" ns1:window-width="1060" ns1:window-height="480" id="namedview126" showgrid="false" fit-margin-top="10" fit-margin-left="10" fit-margin-right="10" fit-margin-bottom="10" ns1:zoom="0.36375" ns1:cx="356.05493" ns1:cy="52.3974" ns1:window-x="0" ns1:window-y="0" ns1:window-maximized="0" ns1:current-layer="svg2" />
  
  <defs id="genericDefs" />
  <g id="g5" transform="translate(-163.5327,-19.511)" style="fill:#f5d0fe;stroke:none">
    <defs id="274841534714-defs1">
      <clipPath clipPathUnits="userSpaceOnUse" id="27484153446-clipPath1">
        <path d="M 0,0 800,0 800,600 0,600 0,0 Z" id="path9" ns1:connector-curvature="0" style="stroke:none" />
      </clipPath>
      <clipPath clipPathUnits="userSpaceOnUse" id="274841534996-clipPath1">
        <path d="m 494,241 q 6,6 0,13 l -82,0 q -7,-7 0,-13 z M 0,0 0,600 800,600 800,0 Z" id="path12" ns1:connector-curvature="0" style="stroke:none" />
      </clipPath>
      <clipPath clipPathUnits="userSpaceOnUse" id="274841534946-clipPath1">
        <path d="m 482.6256,256.1536 c -17.8093,0 -32.2467,14.4373 -32.2467,32.2466 0,17.8094 14.4374,32.2467 32.2467,32.2467 17.8093,0 32.2467,-14.4373 32.2467,-32.2467 0,-17.8093 -14.4374,-32.2466 -32.2467,-32.2466 z" id="path15" ns1:connector-curvature="0" style="stroke:none" />
      </clipPath>
      <clipPath clipPathUnits="userSpaceOnUse" id="274841534277-clipPath1">
        <path d="m 541.8387,272.5709 c -22.5621,0 -40.8524,18.2902 -40.8524,40.8524 0,22.5622 18.2903,40.8524 40.8524,40.8524 22.5622,0 40.8525,-18.2902 40.8525,-40.8524 0,-22.5622 -18.2903,-40.8524 -40.8525,-40.8524 z" id="path18" ns1:connector-curvature="0" style="stroke:none" />
      </clipPath>
      <clipPath clipPathUnits="userSpaceOnUse" id="274841534262-clipPath1">
        <path d="m 270.098,54.4018 c -16.2942,0 -29.5033,13.2091 -29.5033,29.5033 0,16.2942 13.2091,29.5032 29.5033,29.5032 16.2942,0 29.5032,-13.209 29.5032,-29.5032 0,-16.2942 -13.209,-29.5033 -29.5032,-29.5033 z" id="path21" ns1:connector-curvature="0" style="stroke:none" />
      </clipPath>
      <clipPath clipPathUnits="userSpaceOnUse" id="274841534405-clipPath1">
        <path d="m 568.7527,294.9881 c -16.1903,0 -29.3151,13.1248 -29.3151,29.3151 0,16.1903 13.1248,29.3151 29.3151,29.3151 16.1904,0 29.3152,-13.1248 29.3152,-29.3151 0,-16.1903 -13.1248,-29.3151 -29.3152,-29.3151 z" id="path24" ns1:connector-curvature="0" style="stroke:none" />
      </clipPath>
      <clipPath clipPathUnits="userSpaceOnUse" id="274841534414-clipPath1">
        <path d="m -542.9555,-311.8017 800,0 0,600 -800,0 0,-600 z" id="path27" ns1:connector-curvature="0" style="stroke:none" />
      </clipPath>
      <clipPath clipPathUnits="userSpaceOnUse" id="274841534761-clipPath1">
        <path d="m -171.0327,-25.5052 800,0 0,600.0001 -800,0 0,-600.0001 z" id="path30" ns1:connector-curvature="0" style="stroke:none" />
      </clipPath>
    </defs>
    <g id="g32" style="text-rendering:geometricPrecision;fill:#f5d0fe;stroke:none">
      <path d="m 341.5842,187.1424 c -0.847,0.489 -1.1371,1.5716 -0.6481,2.4186 0.489,0.847 1.5716,1.137 2.4186,0.648 l 53.0263,-30.6153 c 0.8469,-0.4891 1.137,-1.5716 0.648,-2.4186 -0.489,-0.847 -1.5716,-1.137 -2.4186,-0.648 z m -1.5333,17.9222 c -0.847,0.489 -1.1371,1.5716 -0.6481,2.4186 0.489,0.8469 1.5716,1.137 2.4186,0.648 l 70.8474,-40.9046 c 0.847,-0.489 1.137,-1.5716 0.648,-2.4186 -0.489,-0.847 -1.5716,-1.137 -2.4185,-0.648 z" clip-path="url(#27484153446-clipPath1)" id="path34" ns1:connector-curvature="0" style="stroke:none" />
    </g>
    <g id="g36" style="text-rendering:geometricPrecision;fill:#f5d0fe;stroke:none">
      <path d="m 340.0565,289.9374 70.8431,40.8872 c 0.8471,0.4889 1.9296,0.1987 2.4185,-0.6484 0.4888,-0.847 0.1986,-1.9296 -0.6485,-2.4184 l -70.8431,-40.8873 c -0.847,-0.4888 -1.9296,-0.1986 -2.4184,0.6485 -0.4889,0.847 -0.1987,1.9295 0.6484,2.4184 z" clip-path="url(#27484153446-clipPath1)" id="path38" ns1:connector-curvature="0" style="stroke:none" />
    </g>
    <g id="g40" style="text-rendering:geometricPrecision;fill:#f5d0fe;stroke:none">
      <path d="m 412.6697,330.8246 70.841,-40.891 c 0.847,-0.4889 1.1372,-1.5714 0.6483,-2.4185 -0.489,-0.847 -1.5715,-1.1372 -2.4185,-0.6482 l -70.841,40.8909 c -0.847,0.4889 -1.1372,1.5715 -0.6482,2.4185 0.4889,0.847 1.5714,1.1372 2.4184,0.6483 z" clip-path="url(#27484153446-clipPath1)" id="path42" ns1:connector-curvature="0" style="stroke:none" />
    </g>
    <g id="g44" style="text-rendering:geometricPrecision;fill:#f5d0fe;stroke:none">
      <path d="m 484.3961,288.4002 -0.002,-81.808 c -10e-5,-0.978 -0.7926,-1.7704 -1.7706,-1.7704 -0.978,0 -1.7705,0.7925 -1.7705,1.7705 l 0.002,81.808 c 0,0.978 0.7925,1.7705 1.7705,1.7704 0.9781,0 1.7705,-0.7925 1.7705,-1.7705 z" clip-path="url(#274841534996-clipPath1)" id="path46" ns1:connector-curvature="0" style="stroke:none" />
    </g>
    <g id="g48" style="text-rendering:geometricPrecision;fill:#f5d0fe;stroke:none">
      <path d="m 339.1656,206.598 0.005,81.8061 c 1e-4,0.978 0.7926,1.7704 1.7706,1.7704 0.978,-1e-4 1.7705,-0.7926 1.7704,-1.7706 l -0.005,-81.8061 c 0,-0.978 -0.7926,-1.7705 -1.7706,-1.7704 -0.978,10e-5 -1.7704,0.7926 -1.7704,1.7706 z" clip-path="url(#27484153446-clipPath1)" id="path50" ns1:connector-curvature="0" style="stroke:none" />
    </g>
    <g id="g52" style="text-rendering:geometricPrecision;fill:#f5d0fe;stroke:none">
      <path d="m 410.8983,167.2266 70.8399,40.899 c 0.847,0.489 1.9295,0.1989 2.4185,-0.6481 0.4891,-0.847 0.199,-1.9295 -0.648,-2.4185 L 412.6688,164.16 c -0.847,-0.489 -1.9296,-0.1989 -2.4186,0.648 -0.489,0.847 -0.1989,1.9296 0.6481,2.4186 z" clip-path="url(#27484153446-clipPath1)" id="path54" ns1:connector-curvature="0" style="stroke:none" />
    </g>
    <g id="g56" style="text-rendering:geometricPrecision;fill:#f5d0fe;stroke:none">
      <path d="m 340.9415,288.404 0.8854,1.5332 95.1426,-44.2103 -22.1274,0 -22.1274,0 -52.6586,41.1439 z" clip-path="url(#27484153446-clipPath1)" id="path58" ns1:connector-curvature="0" style="stroke:none" />
    </g>
    <g id="g60" style="text-rendering:geometricPrecision;fill:#f5d0fe;stroke:none">
      <path d="m 411.7763,249.2679 81.798,0 c 0.978,0 1.7705,-0.7925 1.7705,-1.7705 0,-0.9781 -0.7925,-1.7705 -1.7705,-1.7705 l -81.798,0 c -0.978,0 -1.7705,0.7924 -1.7705,1.7705 0,0.978 0.7925,1.7705 1.7705,1.7705 z" clip-path="url(#27484153446-clipPath1)" id="path62" ns1:connector-curvature="0" style="stroke:none" />
    </g>
    <g id="g64" style="fill:#c4b5fd;stroke:none;text-rendering:geometricPrecision">
      <path d="m 481.7403,289.9335 55.8517,32.2486 c 0.847,0.4891 1.9296,0.199 2.4186,-0.648 0.489,-0.8469 0.199,-1.9295 -0.6479,-2.4185 L 483.5109,286.867 c -0.847,-0.4891 -1.9295,-0.199 -2.4186,0.6479 -0.489,0.847 -0.199,1.9296 0.648,2.4186 z" clip-path="url(#27484153446-clipPath1)" id="path66" ns1:connector-curvature="0" style="stroke:none" />
      <path d="m 481.7403,289.9335 55.8517,32.2486 c 0.847,0.4891 1.9296,0.199 2.4186,-0.648 0.489,-0.8469 0.199,-1.9295 -0.6479,-2.4185 L 483.5109,286.867 c -0.847,-0.4891 -1.9295,-0.199 -2.4186,0.6479 -0.489,0.847 -0.199,1.9296 0.648,2.4186 z" clip-path="url(#274841534946-clipPath1)" id="path68" ns1:connector-curvature="0" style="fill:#f5d0fe;stroke:none" />
    </g>
    <g id="g70" style="text-rendering:geometricPrecision;fill:#f5d0fe;stroke:none">
      <path d="m 541.8387,313.4233 1.4286,-1.0459 -37.2749,-66.6505 -13.7143,0 -13.7142,0 61.8463,68.7423 z" clip-path="url(#27484153446-clipPath1)" id="path72" ns1:connector-curvature="0" style="stroke:none" />
      <path d="m 541.8387,313.4233 1.4286,-1.0459 -37.2749,-66.6505 -13.7143,0 -13.7142,0 61.8463,68.7423 z" clip-path="url(#274841534277-clipPath1)" id="path74" ns1:connector-curvature="0" style="fill:#c4b5fd;stroke:none" />
    </g>
    <g id="g76" style="text-rendering:geometricPrecision;fill:#f5d0fe;stroke:none">
      <path d="m 413.554,165.6933 -0.002,-81.8006 c -1e-4,-0.978 -0.7926,-1.7705 -1.7706,-1.7704 -0.978,0 -1.7705,0.7925 -1.7704,1.7705 l 0.002,81.8005 c 1e-4,0.9781 0.7925,1.7705 1.7706,1.7705 0.978,0 1.7704,-0.7925 1.7704,-1.7705 z" clip-path="url(#27484153446-clipPath1)" id="path78" ns1:connector-curvature="0" style="stroke:none" />
    </g>
    <g id="g80" style="text-rendering:geometricPrecision;fill:#f5d0fe;stroke:none">
      <path d="m 394.6088,93.06 c 0.8469,0.489 1.9295,0.1988 2.4185,-0.6482 0.4889,-0.847 0.1988,-1.9295 -0.6482,-2.4185 L 343.3644,59.3889 c -0.847,-0.489 -1.9296,-0.1988 -2.4185,0.6482 -0.489,0.847 -0.1989,1.9295 0.6481,2.4185 z m 16.2874,-7.6339 c 0.847,0.489 1.9295,0.1989 2.4185,-0.6482 0.489,-0.847 0.1988,-1.9295 -0.6482,-2.4185 l -70.836,-40.8923 c -0.847,-0.4889 -1.9295,-0.1988 -2.4185,0.6482 -0.489,0.847 -0.1988,1.9296 0.6482,2.4185 z" clip-path="url(#27484153446-clipPath1)" id="path82" ns1:connector-curvature="0" style="stroke:none" />
    </g>
    <g id="g84" style="text-rendering:geometricPrecision;fill:#f5d0fe;stroke:none">
      <path d="m 340.0601,41.4672 -70.8474,40.9046 c -0.847,0.489 -1.137,1.5716 -0.648,2.4185 0.489,0.847 1.5715,1.1371 2.4185,0.6481 l 70.8474,-40.9046 c 0.847,-0.489 1.1371,-1.5716 0.648,-2.4186 -0.489,-0.847 -1.5715,-1.137 -2.4185,-0.648 z" clip-path="url(#27484153446-clipPath1)" id="path86" ns1:connector-curvature="0" style="stroke:none" />
    </g>
    <g id="g88" style="text-rendering:geometricPrecision;fill:#f5d0fe;stroke:none">
      <path d="m 286.6224,94.1941 c 10e-5,-0.978 -0.7924,-1.7705 -1.7704,-1.7705 -0.978,-10e-5 -1.7705,0.7924 -1.7706,1.7704 l -0.002,61.2143 c 0,0.978 0.7925,1.7705 1.7705,1.7705 0.978,1e-4 1.7705,-0.7924 1.7705,-1.7704 z m -14.7539,-10.289 c 0,-0.978 -0.7925,-1.7705 -1.7705,-1.7705 -0.978,-1e-4 -1.7705,0.7924 -1.7705,1.7704 l -0.003,81.7919 c 0,0.9781 0.7925,1.7706 1.7705,1.7706 0.978,0 1.7705,-0.7924 1.7706,-1.7704 z" clip-path="url(#27484153446-clipPath1)" id="path90" ns1:connector-curvature="0" style="stroke:none" />
    </g>
    <g id="g92" style="text-rendering:geometricPrecision;fill:#f5d0fe;stroke:none">
      <path d="m 269.2099,167.2303 70.841,40.9009 c 0.8469,0.489 1.9295,0.1989 2.4185,-0.648 0.489,-0.847 0.199,-1.9296 -0.648,-2.4186 l -70.841,-40.9009 c -0.8469,-0.489 -1.9295,-0.1989 -2.4185,0.648 -0.4891,0.847 -0.199,1.9296 0.648,2.4186 z" clip-path="url(#27484153446-clipPath1)" id="path94" ns1:connector-curvature="0" style="stroke:none" />
    </g>
    <g id="g96" style="fill:#fda4af;stroke:none;text-rendering:geometricPrecision">
      <path d="M 270.9832,82.3718 219.8825,52.8679 c -0.847,-0.489 -1.9296,-0.199 -2.4186,0.648 -0.489,0.847 -0.1989,1.9295 0.648,2.4186 l 51.1008,29.5039 c 0.847,0.489 1.9295,0.1989 2.4186,-0.6481 0.489,-0.8469 0.1989,-1.9295 -0.6481,-2.4185 z" clip-path="url(#27484153446-clipPath1)" id="path98" ns1:connector-curvature="0" style="stroke:none" />
      <path d="M 270.9832,82.3718 219.8825,52.8679 c -0.847,-0.489 -1.9296,-0.199 -2.4186,0.648 -0.489,0.847 -0.1989,1.9295 0.648,2.4186 l 51.1008,29.5039 c 0.847,0.489 1.9295,0.1989 2.4186,-0.6481 0.489,-0.8469 0.1989,-1.9295 -0.6481,-2.4185 z" clip-path="url(#274841534262-clipPath1)" id="path100" ns1:connector-curvature="0" style="fill:#f5d0fe;stroke:none" />
    </g>
    <g id="g102" style="text-rendering:geometricPrecision;fill:#f5d0fe;stroke:none">
      <path d="m 569.3029,325.9861 55.7277,-18.2189 c 0.9297,-0.3039 1.4367,-1.3035 1.1327,-2.2331 -0.3039,-0.9295 -1.3034,-1.4365 -2.233,-1.1326 l -55.7277,18.2189 c -0.9297,0.3039 -1.4366,1.3034 -1.1327,2.233 0.3039,0.9296 1.3034,1.4366 2.233,1.1327 z" clip-path="url(#27484153446-clipPath1)" id="path104" ns1:connector-curvature="0" style="stroke:none" />
      <path d="m 569.3029,325.9861 55.7277,-18.2189 c 0.9297,-0.3039 1.4367,-1.3035 1.1327,-2.2331 -0.3039,-0.9295 -1.3034,-1.4365 -2.233,-1.1326 l -55.7277,18.2189 c -0.9297,0.3039 -1.4366,1.3034 -1.1327,2.233 0.3039,0.9296 1.3034,1.4366 2.233,1.1327 z" clip-path="url(#274841534405-clipPath1)" id="path106" ns1:connector-curvature="0" style="fill:#c4b5fd;stroke:none" />
    </g>
    <g id="g108" style="text-rendering:geometricPrecision;fill:#f5d0fe;stroke:none">
      <path d="m 340.0561,286.8708 -64.702,37.3649 c -0.8469,0.4891 -1.1369,1.5717 -0.6478,2.4187 0.4891,0.8469 1.5717,1.1368 2.4187,0.6477 l 64.7019,-37.3649 c 0.847,-0.4891 1.1369,-1.5717 0.6478,-2.4186 -0.4891,-0.847 -1.5717,-1.1369 -2.4186,-0.6478 z" clip-path="url(#27484153446-clipPath1)" id="path110" ns1:connector-curvature="0" style="stroke:none" />
    </g>
    <g id="g112" style="fill:#eef2ff;stroke:none;text-rendering:geometricPrecision">
      </g>
    <g font-size="29px" transform="translate(542.9555,311.8017)" id="g116" style="font-size:29px;font-family:sans-serif;fill:#c4b5fd;stroke:none;text-rendering:geometricPrecision">
      <text x="0" xml:space="preserve" y="28" clip-path="url(#274841534414-clipPath1)" id="text118" style="stroke:none">N</text>
    </g>
    <g font-size="29px" id="g120" style="font-size:29px;font-family:sans-serif;fill:#eef2ff;stroke:none;text-rendering:geometricPrecision">
      <text x="0" y="28" transform="translate(171.0327,25.5052)" clip-path="url(#274841534761-clipPath1)" xml:space="preserve" id="text124" style="fill:#fda4af;stroke:none">HO</text>
    </g>
  </g>
</svg>