<?xml version='1.0' encoding='utf-8'?>
<svg xmlns="http://www.w3.org/2000/svg" xmlns:dc="http://purl.org/dc/elements/1.1/" xmlns:ns1="http://www.inkscape.org/namespaces/inkscape" xmlns:ns2="http://sodipodi.sourceforge.net/DTD/sodipodi-0.dtd" xmlns:ns4="http://creativecommons.org/ns#" xmlns:rdf="http://www.w3.org/1999/02/22-rdf-syntax-ns#" width="402.12927" stroke-miterlimit="10" font-weight="normal" height="192.664" font-style="normal" font-size="12px" id="svg2" version="1.1" ns1:version="0.91 r13725" ns2:docname="Ethyldichloroarsine.svg" style="font-style:normal;font-weight:normal;font-size:12px;font-family:Dialog;color-interpolation:auto;fill:#f0abfc;fill-opacity:1;stroke:none;stroke:none;stroke:none;stroke:none;stroke:none;stroke:none;stroke:none;stroke:none;color-rendering:auto;image-rendering:auto;shape-rendering:auto;text-rendering:auto">
  <metadata id="metadata65">
    <rdf:RDF>
      <ns4:Work rdf:about="">
        <dc:format>image/svg+xml</dc:format>
        <dc:type rdf:resource="http://purl.org/dc/dcmitype/StillImage" />
        <dc:title />
      </ns4:Work>
    </rdf:RDF>
  </metadata>
  <ns2:namedview pagecolor="#eef2ff" bordercolor="#666666" borderopacity="1" objecttolerance="10" gridtolerance="10" guidetolerance="10" ns1:pageopacity="0" ns1:pageshadow="2" ns1:window-width="1920" ns1:window-height="1058" id="namedview63" showgrid="false" fit-margin-top="10" fit-margin-left="10" fit-margin-right="10" fit-margin-bottom="10" ns1:zoom="0.36375" ns1:cx="321.21016" ns1:cy="-60.769992" ns1:window-x="-8" ns1:window-y="-8" ns1:window-maximized="1" ns1:current-layer="svg2" />
  
  <defs id="genericDefs" />
  <g id="g5" transform="translate(-198.37747,-46.566005)" style="fill:#f0abfc;stroke:none">
    <defs id="1362213813560-defs1">
      <clipPath clipPathUnits="userSpaceOnUse" id="1362213813388-clipPath1">
        <path d="M 0,0 800,0 800,600 0,600 0,0 Z" id="path9" ns1:connector-curvature="0" style="stroke:none" />
      </clipPath>
      <clipPath clipPathUnits="userSpaceOnUse" id="1362213813472-clipPath1">
        <path d="m 459.3957,78.0026 c -18.1916,0 -32.9389,14.7472 -32.9389,32.9388 0,18.1916 14.7473,32.9388 32.9389,32.9388 18.1916,0 32.9388,-14.7472 32.9388,-32.9388 0,-18.1916 -14.7472,-32.9388 -32.9388,-32.9388 z" id="path12" ns1:connector-curvature="0" style="stroke:none" />
      </clipPath>
      <clipPath clipPathUnits="userSpaceOnUse" id="1362213813766-clipPath1">
        <path d="m 485.4825,65.61 c -17.0107,0 -30.8005,13.7898 -30.8005,30.8005 0,17.0106 13.7898,30.8005 30.8005,30.8005 17.0106,0 30.8005,-13.7899 30.8005,-30.8005 0,-17.0107 -13.7899,-30.8005 -30.8005,-30.8005 z" id="path15" ns1:connector-curvature="0" style="stroke:none" />
      </clipPath>
      <clipPath clipPathUnits="userSpaceOnUse" id="1362213813559-clipPath1">
        <path d="m 324.1697,96.4105 c -27.2527,0 -49.3453,22.0926 -49.3453,49.3453 0,27.2527 22.0926,49.3453 49.3453,49.3453 27.2527,0 49.3453,-22.0926 49.3453,-49.3453 0,-27.2527 -22.0926,-49.3453 -49.3453,-49.3453 z" id="path18" ns1:connector-curvature="0" style="stroke:none" />
      </clipPath>
      <clipPath clipPathUnits="userSpaceOnUse" id="1362213813938-clipPath1">
        <path d="m -417.7245,-45.0162 800,0 0,600 -800,0 0,-600 z" id="path21" ns1:connector-curvature="0" style="stroke:none" />
      </clipPath>
      <clipPath clipPathUnits="userSpaceOnUse" id="136221381394-clipPath1">
        <path d="m -546.3417,-116.2558 800,0 0,600 -800,0 0,-600 z" id="path24" ns1:connector-curvature="0" style="stroke:none" />
      </clipPath>
      <clipPath clipPathUnits="userSpaceOnUse" id="1362213813634-clipPath1">
        <path d="m -466.9796,-180.522 800,0 0,600 -800,0 0,-600 z" id="path27" ns1:connector-curvature="0" style="stroke:none" />
      </clipPath>
    </defs>
    <g id="g29" style="fill:#6ee7b7;stroke:none;text-rendering:geometricPrecision">
      <path d="m 456.4627,111.8944 20.3573,62.6533 c 0.5264,1.6202 2.2658,2.5065 3.886,1.98 1.6201,-0.5264 2.5064,-2.2658 1.98,-3.886 l -20.3573,-62.6533 c -0.5265,-1.6202 -2.2659,-2.5065 -3.886,-1.98 -1.6202,0.5264 -2.5065,2.2658 -1.98,3.886 z" clip-path="url(#1362213813388-clipPath1)" id="path31" ns1:connector-curvature="0" style="stroke:none" />
      <path d="m 456.4627,111.8944 20.3573,62.6533 c 0.5264,1.6202 2.2658,2.5065 3.886,1.98 1.6201,-0.5264 2.5064,-2.2658 1.98,-3.886 l -20.3573,-62.6533 c -0.5265,-1.6202 -2.2659,-2.5065 -3.886,-1.98 -1.6202,0.5264 -2.5065,2.2658 -1.98,3.886 z" clip-path="url(#1362213813472-clipPath1)" id="path33" ns1:connector-curvature="0" style="fill:#fcd34dcc;stroke:none" />
    </g>
    <g id="g35" style="fill:#6ee7b7;stroke:none;text-rendering:geometricPrecision">
      <path d="m 483.9405,99.0812 53.3481,30.8006 c 1.4753,0.8517 3.3609,0.3465 4.2127,-1.1288 0.8518,-1.4754 0.3465,-3.361 -1.1288,-4.2128 L 487.0244,93.7397 c -1.4753,-0.8518 -3.3609,-0.3465 -4.2127,1.1288 -0.8518,1.4753 -0.3465,3.361 1.1288,4.2127 z" clip-path="url(#1362213813388-clipPath1)" id="path37" ns1:connector-curvature="0" style="stroke:none" />
      <path d="m 483.9405,99.0812 53.3481,30.8006 c 1.4753,0.8517 3.3609,0.3465 4.2127,-1.1288 0.8518,-1.4754 0.3465,-3.361 -1.1288,-4.2128 L 487.0244,93.7397 c -1.4753,-0.8518 -3.3609,-0.3465 -4.2127,1.1288 -0.8518,1.4753 -0.3465,3.361 1.1288,4.2127 z" clip-path="url(#1362213813766-clipPath1)" id="path39" ns1:connector-curvature="0" style="fill:#fcd34dcc;stroke:none" />
    </g>
    <g id="g41" style="fill:#fcd34dcc;stroke:none;text-rendering:geometricPrecision">
      <path d="m 325.7117,148.4266 85.4686,-49.3454 c 1.4753,-0.8517 1.9806,-2.7374 1.1288,-4.2127 -0.8518,-1.4753 -2.7374,-1.9806 -4.2128,-1.1288 l -85.4686,49.3453 c -1.4753,0.8518 -1.9805,2.7375 -1.1288,4.2128 0.8518,1.4753 2.7375,1.9806 4.2128,1.1288 z" clip-path="url(#1362213813388-clipPath1)" id="path43" ns1:connector-curvature="0" style="stroke:none" />
      <path d="m 325.7117,148.4266 85.4686,-49.3454 c 1.4753,-0.8517 1.9806,-2.7374 1.1288,-4.2127 -0.8518,-1.4753 -2.7374,-1.9806 -4.2128,-1.1288 l -85.4686,49.3453 c -1.4753,0.8518 -1.9805,2.7375 -1.1288,4.2128 0.8518,1.4753 2.7375,1.9806 4.2128,1.1288 z" clip-path="url(#1362213813559-clipPath1)" id="path45" ns1:connector-curvature="0" style="fill:#f0abfc;stroke:none" />
    </g>
    <g id="g47" style="text-rendering:geometricPrecision;fill:#f0abfc;stroke:none">
      <path d="M 325.7117,143.085 213.004,78.0133 c -1.4753,-0.8518 -3.3609,-0.3466 -4.2127,1.1288 -0.8518,1.4753 -0.3465,3.3609 1.1288,4.2127 l 112.7076,65.0718 c 1.4754,0.8518 3.361,0.3465 4.2128,-1.1288 0.8517,-1.4753 0.3465,-3.361 -1.1288,-4.2128 z" clip-path="url(#1362213813388-clipPath1)" id="path49" ns1:connector-curvature="0" style="stroke:none" />
    </g>
    <g font-size="50px" transform="translate(417.7245,45.0162)" id="g51" style="font-size:50px;font-family:sans-serif;fill:#fcd34dcc;stroke:none;text-rendering:geometricPrecision">
      <text x="0" xml:space="preserve" y="48" clip-path="url(#1362213813938-clipPath1)" id="text53" style="stroke:none">As</text>
    </g>
    <g font-size="50px" transform="translate(546.3417,116.2558)" id="g55" style="font-size:50px;font-family:sans-serif;fill:#6ee7b7;stroke:none;text-rendering:geometricPrecision">
      <text x="0" xml:space="preserve" y="48" clip-path="url(#136221381394-clipPath1)" id="text57" style="stroke:none">Cl</text>
    </g>
    <g font-size="50px" transform="translate(466.9795,180.522)" id="g59" style="font-size:50px;font-family:sans-serif;fill:#6ee7b7;stroke:none;text-rendering:geometricPrecision">
      <text x="0" xml:space="preserve" y="48" clip-path="url(#1362213813634-clipPath1)" id="text61" style="stroke:none">Cl</text>
    </g>
  </g>
</svg>