<?xml version='1.0' encoding='utf-8'?>
<svg xmlns="http://www.w3.org/2000/svg" xmlns:dc="http://purl.org/dc/elements/1.1/" xmlns:ns1="http://www.inkscape.org/namespaces/inkscape" xmlns:ns2="http://sodipodi.sourceforge.net/DTD/sodipodi-0.dtd" xmlns:ns4="http://creativecommons.org/ns#" xmlns:rdf="http://www.w3.org/1999/02/22-rdf-syntax-ns#" width="752.09705" stroke-miterlimit="10" font-weight="normal" height="318.08456" font-style="normal" font-size="12px" id="svg2" version="1.1" ns1:version="0.91 r13725" ns2:docname="Fenfluramine.svg" style="font-style:normal;font-weight:normal;font-size:12px;font-family:Dialog;color-interpolation:auto;fill:#f0abfc;fill-opacity:1;stroke:none;stroke:none;stroke:none;stroke:none;stroke:none;stroke:none;stroke:none;stroke:none;color-rendering:auto;image-rendering:auto;shape-rendering:auto;text-rendering:auto">
  <metadata id="metadata147">
    <rdf:RDF>
      <ns4:Work rdf:about="">
        <dc:format>image/svg+xml</dc:format>
        <dc:type rdf:resource="http://purl.org/dc/dcmitype/StillImage" />
        <dc:title />
      </ns4:Work>
    </rdf:RDF>
  </metadata>
  <ns2:namedview pagecolor="#eef2ff" bordercolor="#666666" borderopacity="1" objecttolerance="10" gridtolerance="10" guidetolerance="10" ns1:pageopacity="0" ns1:pageshadow="2" ns1:window-width="1060" ns1:window-height="480" id="namedview145" showgrid="false" fit-margin-top="10" fit-margin-left="10" fit-margin-right="10" fit-margin-bottom="10" ns1:zoom="0.36375" ns1:cx="376.1925" ns1:cy="158.89827" ns1:window-x="0" ns1:window-y="0" ns1:window-maximized="0" ns1:current-layer="svg2" />
  
  <defs id="genericDefs" />
  <g id="g5" transform="translate(-23.8075,-140.8137)" style="fill:#f0abfc;stroke:none">
    <defs id="933989903572-defs1">
      <clipPath clipPathUnits="userSpaceOnUse" id="93398990345-clipPath1">
        <path d="M 0,0 800,0 800,600 0,600 0,0 Z" id="path9" ns1:connector-curvature="0" style="stroke:none" />
      </clipPath>
      <clipPath clipPathUnits="userSpaceOnUse" id="933989903633-clipPath1">
        <path d="m 527.4277,269.3329 c -20.4256,0 -36.9838,16.5582 -36.9838,36.9838 0,20.4255 16.5582,36.9837 36.9838,36.9837 20.4255,0 36.9837,-16.5582 36.9837,-36.9837 0,-20.4256 -16.5582,-36.9838 -36.9837,-36.9838 z" id="path12" ns1:connector-curvature="0" style="stroke:none" />
      </clipPath>
      <clipPath clipPathUnits="userSpaceOnUse" id="933989903980-clipPath1">
        <path d="m 625.6871,232.3546 c -20.4255,0 -36.9836,16.5581 -36.9836,36.9836 0,20.4255 16.5581,36.9836 36.9836,36.9836 20.4254,0 36.9836,-16.5581 36.9836,-36.9836 0,-20.4255 -16.5582,-36.9836 -36.9836,-36.9836 z" id="path15" ns1:connector-curvature="0" style="stroke:none" />
      </clipPath>
      <clipPath clipPathUnits="userSpaceOnUse" id="933989903101-clipPath1">
        <path d="m 121.6315,221.0619 c -21.1893,0 -38.3666,17.1773 -38.3666,38.3667 0,21.1893 17.1773,38.3666 38.3666,38.3666 21.1894,0 38.3667,-17.1773 38.3667,-38.3666 0,-21.1894 -17.1773,-38.3667 -38.3667,-38.3667 z" id="path18" ns1:connector-curvature="0" style="stroke:none" />
      </clipPath>
      <clipPath clipPathUnits="userSpaceOnUse" id="933989903275-clipPath1">
        <path d="m 121.6315,221.0621 c -21.1892,0 -38.3664,17.1772 -38.3664,38.3665 0,21.1891 17.1772,38.3664 38.3664,38.3664 21.1893,0 38.3665,-17.1773 38.3665,-38.3664 0,-21.1893 -17.1772,-38.3665 -38.3665,-38.3665 z" id="path21" ns1:connector-curvature="0" style="stroke:none" />
      </clipPath>
      <clipPath clipPathUnits="userSpaceOnUse" id="933989903149-clipPath1">
        <path d="m 121.6315,224.08 c -19.5224,0 -35.3485,15.8261 -35.3485,35.3486 0,19.5224 15.8261,35.3485 35.3485,35.3485 19.5225,0 35.3486,-15.8261 35.3486,-35.3485 0,-19.5225 -15.8261,-35.3486 -35.3486,-35.3486 z" id="path24" ns1:connector-curvature="0" style="stroke:none" />
      </clipPath>
      <clipPath clipPathUnits="userSpaceOnUse" id="933989903209-clipPath1">
        <path d="m -596.4792,-206.4958 800,0 0,600 -800,0 0,-600 z" id="path27" ns1:connector-curvature="0" style="stroke:none" />
      </clipPath>
      <clipPath clipPathUnits="userSpaceOnUse" id="933989903931-clipPath1">
        <path d="m -596.4781,-239.9646 799.9999,0 0,600 -799.9999,0 0,-600 z" id="path30" ns1:connector-curvature="0" style="stroke:none" />
      </clipPath>
      <clipPath clipPathUnits="userSpaceOnUse" id="933989903669-clipPath1">
        <path d="m -31.3075,-286.7803 800.0001,0 0,600 -800.0001,0 0,-600 z" id="path33" ns1:connector-curvature="0" style="stroke:none" />
      </clipPath>
      <clipPath clipPathUnits="userSpaceOnUse" id="933989903380-clipPath1">
        <path d="m -112.4726,-146.216 799.9999,0 0,600 -799.9999,0 0,-600 z" id="path36" ns1:connector-curvature="0" style="stroke:none" />
      </clipPath>
      <clipPath clipPathUnits="userSpaceOnUse" id="933989903887-clipPath1">
        <path d="m -31.31,-193.0723 799.9999,0 0,600 -799.9999,0 0,-600 z" id="path39" ns1:connector-curvature="0" style="stroke:none" />
      </clipPath>
    </defs>
    <g id="g41" style="text-rendering:geometricPrecision;fill:#f0abfc;stroke:none">
      <path d="m 200.758,400.0132 c 0,1.1205 0.9079,2.0284 2.0284,2.0284 1.1205,0 2.0284,-0.9079 2.0284,-2.0284 l 0,-93.7239 c 0,-1.1205 -0.9079,-2.0284 -2.0284,-2.0284 -1.1205,0 -2.0284,0.9079 -2.0284,2.0284 z m 16.9034,-11.788 c 0,1.1204 0.9079,2.0283 2.0284,2.0283 1.1205,0 2.0284,-0.9079 2.0284,-2.0283 l 0,-70.1471 c 0,-1.1205 -0.9079,-2.0284 -2.0284,-2.0284 -1.1205,0 -2.0284,0.9079 -2.0284,2.0284 z" clip-path="url(#93398990345-clipPath1)" id="path43" ns1:connector-curvature="0" style="stroke:none" />
    </g>
    <g id="g45" style="text-rendering:geometricPrecision;fill:#f0abfc;stroke:none">
      <path d="m 284.6948,424.5811 c -0.9704,0.5601 -1.3029,1.8003 -0.7427,2.7707 0.5602,0.9704 1.8004,1.3029 2.7708,0.7427 l 60.7387,-35.0606 c 0.9704,-0.5601 1.3028,-1.8003 0.7427,-2.7707 -0.5602,-0.9704 -1.8004,-1.3029 -2.7708,-0.7427 z m -1.7572,20.5316 c -0.9704,0.5602 -1.3028,1.8004 -0.7427,2.7708 0.5602,0.9704 1.8004,1.3028 2.7708,0.7427 l 81.1555,-46.8458 c 0.9704,-0.5602 1.3028,-1.8004 0.7426,-2.7708 -0.5601,-0.9704 -1.8003,-1.3028 -2.7708,-0.7427 z" clip-path="url(#93398990345-clipPath1)" id="path47" ns1:connector-curvature="0" style="stroke:none" />
    </g>
    <g id="g49" style="text-rendering:geometricPrecision;fill:#f0abfc;stroke:none">
      <path d="m 367.1355,400.0238 0.006,-93.7154 c 0,-1.1205 -0.9078,-2.0285 -2.0283,-2.0285 -1.1205,-10e-5 -2.0284,0.9078 -2.0285,2.0282 l -0.006,93.7154 c -1e-4,1.1205 0.9078,2.0285 2.0283,2.0286 1.1204,0 2.0284,-0.9078 2.0285,-2.0283 z" clip-path="url(#93398990345-clipPath1)" id="path51" ns1:connector-curvature="0" style="stroke:none" />
    </g>
    <g id="g53" style="text-rendering:geometricPrecision;fill:#f0abfc;stroke:none">
      <path d="m 345.4379,316.8089 c 0.9704,0.5603 2.2106,0.2281 2.7709,-0.7423 0.5603,-0.9703 0.228,-2.2106 -0.7423,-2.7709 l -60.7496,-35.0772 c -0.9703,-0.5603 -2.2106,-0.228 -2.7709,0.7423 -0.5603,0.9704 -0.228,2.2106 0.7424,2.7709 z m 18.6606,-8.7441 c 0.9703,0.5603 2.2106,0.2281 2.7709,-0.7423 0.5603,-0.9703 0.228,-2.2106 -0.7424,-2.7708 l -81.1652,-46.8655 c -0.9703,-0.5603 -2.2106,-0.228 -2.7709,0.7424 -0.5603,0.9703 -0.228,2.2105 0.7424,2.7708 z" clip-path="url(#93398990345-clipPath1)" id="path55" ns1:connector-curvature="0" style="stroke:none" />
    </g>
    <g id="g57" style="text-rendering:geometricPrecision;fill:#f0abfc;stroke:none">
      <path d="m 201.7723,401.7699 81.1653,46.8562 c 0.9703,0.5602 2.2106,0.2279 2.7707,-0.7425 0.5603,-0.9704 0.2279,-2.2106 -0.7425,-2.7708 l -81.1653,-46.8563 c -0.9703,-0.5602 -2.2106,-0.2278 -2.7708,0.7426 -0.5602,0.9704 -0.2278,2.2106 0.7426,2.7708 z" clip-path="url(#93398990345-clipPath1)" id="path59" ns1:connector-curvature="0" style="stroke:none" />
    </g>
    <g id="g61" style="text-rendering:geometricPrecision;fill:#f0abfc;stroke:none">
      <path d="m 282.9335,257.6861 -81.1611,46.8464 c -0.9704,0.5602 -1.3029,1.8004 -0.7427,2.7708 0.5601,0.9704 1.8003,1.3029 2.7707,0.7428 l 81.1611,-46.8465 c 0.9704,-0.5602 1.3029,-1.8004 0.7428,-2.7708 -0.5602,-0.9704 -1.8004,-1.3029 -2.7708,-0.7427 z" clip-path="url(#93398990345-clipPath1)" id="path63" ns1:connector-curvature="0" style="stroke:none" />
    </g>
    <g id="g65" style="text-rendering:geometricPrecision;fill:#f0abfc;stroke:none">
      <path d="m 366.1269,308.0649 81.1599,-46.852 c 0.9703,-0.5602 1.3027,-1.8004 0.7426,-2.7708 -0.5603,-0.9704 -1.8005,-1.3028 -2.7709,-0.7426 l -81.1598,46.8521 c -0.9704,0.5602 -1.3028,1.8004 -0.7426,2.7708 0.5602,0.9704 1.8004,1.3028 2.7708,0.7425 z" clip-path="url(#93398990345-clipPath1)" id="path67" ns1:connector-curvature="0" style="stroke:none" />
    </g>
    <g id="g69" style="text-rendering:geometricPrecision;fill:#f0abfc;stroke:none">
      <path d="m 445.2584,261.2128 81.155,46.8605 c 0.9703,0.5602 2.2106,0.228 2.7709,-0.7423 0.5603,-0.9704 0.228,-2.2106 -0.7423,-2.7709 l -81.1551,-46.8605 c -0.9703,-0.5603 -2.2105,-0.228 -2.7708,0.7423 -0.5603,0.9703 -0.2281,2.2106 0.7423,2.7709 z" clip-path="url(#93398990345-clipPath1)" id="path71" ns1:connector-curvature="0" style="stroke:none" />
    </g>
    <g id="g73" style="fill:#c4b5fd;stroke:none;text-rendering:geometricPrecision">
      <path d="m 528.4418,308.0734 64.0596,-36.9805 c 0.9704,-0.5602 1.3028,-1.8004 0.7426,-2.7708 -0.5602,-0.9704 -1.8004,-1.3027 -2.7708,-0.7425 L 526.4136,304.56 c -0.9704,0.5602 -1.3028,1.8004 -0.7426,2.7708 0.5601,0.9703 1.8004,1.3027 2.7708,0.7426 z" clip-path="url(#93398990345-clipPath1)" id="path75" ns1:connector-curvature="0" style="stroke:none" />
      <path d="m 528.4418,308.0734 64.0596,-36.9805 c 0.9704,-0.5602 1.3028,-1.8004 0.7426,-2.7708 -0.5602,-0.9704 -1.8004,-1.3027 -2.7708,-0.7425 L 526.4136,304.56 c -0.9704,0.5602 -1.3028,1.8004 -0.7426,2.7708 0.5601,0.9703 1.8004,1.3027 2.7708,0.7426 z" clip-path="url(#933989903633-clipPath1)" id="path77" ns1:connector-curvature="0" style="fill:#f0abfc;stroke:none" />
    </g>
    <g id="g79" style="text-rendering:geometricPrecision;fill:#f0abfc;stroke:none">
      <path d="m 525.3993,306.3166 -0.005,85.599 c 0,1.1204 0.9079,2.0284 2.0284,2.0284 1.1204,10e-5 2.0283,-0.9078 2.0284,-2.0282 l 0.005,-85.599 c 0,-1.1205 -0.9079,-2.0285 -2.0283,-2.0285 -1.1205,-10e-5 -2.0284,0.9078 -2.0285,2.0283 z" clip-path="url(#93398990345-clipPath1)" id="path81" ns1:connector-curvature="0" style="stroke:none" />
    </g>
    <g id="g83" style="text-rendering:geometricPrecision;fill:#f0abfc;stroke:none">
      <path d="m 624.6728,271.0948 64.0555,36.9869 c 0.9703,0.5602 2.2105,0.228 2.7708,-0.7423 0.5603,-0.9704 0.2281,-2.2106 -0.7423,-2.7709 l -64.0554,-36.9869 c -0.9704,-0.5603 -2.2106,-0.228 -2.7709,0.7423 -0.5603,0.9704 -0.228,2.2106 0.7423,2.7709 z" clip-path="url(#93398990345-clipPath1)" id="path85" ns1:connector-curvature="0" style="stroke:none" />
      <path d="m 624.6728,271.0948 64.0555,36.9869 c 0.9703,0.5602 2.2105,0.228 2.7708,-0.7423 0.5603,-0.9704 0.2281,-2.2106 -0.7423,-2.7709 l -64.0554,-36.9869 c -0.9704,-0.5603 -2.2106,-0.228 -2.7709,0.7423 -0.5603,0.9704 -0.228,2.2106 0.7423,2.7709 z" clip-path="url(#933989903980-clipPath1)" id="path87" ns1:connector-curvature="0" style="fill:#c4b5fd;stroke:none" />
    </g>
    <g id="g89" style="text-rendering:geometricPrecision;fill:#f0abfc;stroke:none">
      <path d="m 690.7567,308.0818 74.1331,-42.7957 c 0.9704,-0.5602 1.3028,-1.8004 0.7426,-2.7708 -0.5603,-0.9703 -1.8004,-1.3027 -2.7708,-0.7426 l -74.1331,42.7957 c -0.9704,0.5602 -1.3028,1.8004 -0.7427,2.7708 0.5603,0.9704 1.8005,1.3028 2.7709,0.7426 z" clip-path="url(#93398990345-clipPath1)" id="path91" ns1:connector-curvature="0" style="stroke:none" />
    </g>
    <g id="g93" style="text-rendering:geometricPrecision;fill:#f0abfc;stroke:none">
      <path d="M 203.8007,304.5327 122.6458,257.672 c -0.9703,-0.5603 -2.2106,-0.2281 -2.7708,0.7422 -0.5603,0.9704 -0.2281,2.2106 0.7422,2.7709 l 81.1549,46.8608 c 0.9703,0.5603 2.2106,0.228 2.7709,-0.7423 0.5603,-0.9703 0.228,-2.2106 -0.7423,-2.7709 z" clip-path="url(#93398990345-clipPath1)" id="path95" ns1:connector-curvature="0" style="stroke:none" />
    </g>
    <g id="g97" style="fill:#fbbf24;stroke:none;text-rendering:geometricPrecision">
      <path d="m 120.6174,257.6718 -66.455,38.3631 c -0.9704,0.5601 -1.3028,1.8003 -0.7426,2.7707 0.5601,0.9704 1.8004,1.3028 2.7708,0.7426 l 66.455,-38.363 c 0.9704,-0.5601 1.3028,-1.8004 0.7426,-2.7707 -0.5601,-0.9704 -1.8004,-1.3028 -2.7708,-0.7427 z" clip-path="url(#93398990345-clipPath1)" id="path99" ns1:connector-curvature="0" style="stroke:none" />
      <path d="m 120.6174,257.6718 -66.455,38.3631 c -0.9704,0.5601 -1.3028,1.8003 -0.7426,2.7707 0.5601,0.9704 1.8004,1.3028 2.7708,0.7426 l 66.455,-38.363 c 0.9704,-0.5601 1.3028,-1.8004 0.7426,-2.7707 -0.5601,-0.9704 -1.8004,-1.3028 -2.7708,-0.7427 z" clip-path="url(#933989903101-clipPath1)" id="path101" ns1:connector-curvature="0" style="fill:#f0abfc;stroke:none" />
    </g>
    <g id="g103" style="fill:#fbbf24;stroke:none;text-rendering:geometricPrecision">
      <path d="M 122.6457,257.6719 56.1931,219.3055 c -0.9704,-0.5603 -2.2106,-0.228 -2.7708,0.7424 -0.5603,0.9704 -0.2279,2.2106 0.7424,2.7708 l 66.4526,38.3665 c 0.9704,0.5602 2.2106,0.2279 2.7709,-0.7425 0.5602,-0.9703 0.2279,-2.2106 -0.7425,-2.7708 z" clip-path="url(#93398990345-clipPath1)" id="path105" ns1:connector-curvature="0" style="stroke:none" />
      <path d="M 122.6457,257.6719 56.1931,219.3055 c -0.9704,-0.5603 -2.2106,-0.228 -2.7708,0.7424 -0.5603,0.9704 -0.2279,2.2106 0.7424,2.7708 l 66.4526,38.3665 c 0.9704,0.5602 2.2106,0.2279 2.7709,-0.7425 0.5602,-0.9703 0.2279,-2.2106 -0.7425,-2.7708 z" clip-path="url(#933989903275-clipPath1)" id="path107" ns1:connector-curvature="0" style="fill:#f0abfc;stroke:none" />
    </g>
    <g id="g109" style="fill:#fbbf24;stroke:none;text-rendering:geometricPrecision">
      <path d="m 123.6599,259.4286 0.004,-70.697 c 1e-4,-1.1204 -0.9078,-2.0284 -2.0282,-2.0285 -1.1205,0 -2.0285,0.9078 -2.0286,2.0283 l -0.004,70.697 c -1e-4,1.1205 0.9078,2.0285 2.0282,2.0285 1.1205,10e-5 2.0285,-0.9078 2.0285,-2.0283 z" clip-path="url(#93398990345-clipPath1)" id="path111" ns1:connector-curvature="0" style="stroke:none" />
      <path d="m 123.6599,259.4286 0.004,-70.697 c 1e-4,-1.1204 -0.9078,-2.0284 -2.0282,-2.0285 -1.1205,0 -2.0285,0.9078 -2.0286,2.0283 l -0.004,70.697 c -1e-4,1.1205 0.9078,2.0285 2.0282,2.0285 1.1205,10e-5 2.0285,-0.9078 2.0285,-2.0283 z" clip-path="url(#933989903149-clipPath1)" id="path113" ns1:connector-curvature="0" style="fill:#f0abfc;stroke:none" />
    </g>
    <g id="g115" style="fill:#eef2ff;stroke:none;text-rendering:geometricPrecision">
      </g>
    <g font-size="33px" transform="translate(596.4792,206.4958)" id="g119" style="font-size:33px;font-family:sans-serif;fill:#c4b5fd;stroke:none;text-rendering:geometricPrecision">
      <text x="0" xml:space="preserve" y="32" clip-path="url(#933989903209-clipPath1)" id="text121" style="stroke:none">H</text>
    </g>
    <g font-size="33px" transform="translate(596.4782,239.9646)" id="g123" style="font-size:33px;font-family:sans-serif;fill:#c4b5fd;stroke:none;text-rendering:geometricPrecision">
      <text x="0" xml:space="preserve" y="32" clip-path="url(#933989903931-clipPath1)" id="text125" style="stroke:none">N</text>
    </g>
    <g font-size="33px" id="g127" style="font-size:33px;font-family:sans-serif;fill:#eef2ff;stroke:none;text-rendering:geometricPrecision">
      <text x="0" y="32" transform="translate(31.3075,286.7803)" clip-path="url(#933989903669-clipPath1)" xml:space="preserve" id="text131" style="fill:#fbbf24;stroke:none">F</text>
    </g>
    <g font-size="33px" id="g133" style="font-size:33px;font-family:sans-serif;fill:#eef2ff;stroke:none;text-rendering:geometricPrecision">
      <text x="0" y="32" transform="translate(112.4726,146.216)" clip-path="url(#933989903380-clipPath1)" xml:space="preserve" id="text137" style="fill:#fbbf24;stroke:none">F</text>
    </g>
    <g font-size="33px" id="g139" style="font-size:33px;font-family:sans-serif;fill:#eef2ff;stroke:none;text-rendering:geometricPrecision">
      <text x="0" y="32" transform="translate(31.31,193.0723)" clip-path="url(#933989903887-clipPath1)" xml:space="preserve" id="text143" style="fill:#fbbf24;stroke:none">F</text>
    </g>
  </g>
</svg>