<?xml version='1.0' encoding='utf-8'?>
<svg xmlns="http://www.w3.org/2000/svg" xmlns:dc="http://purl.org/dc/elements/1.1/" xmlns:ns1="http://www.inkscape.org/namespaces/inkscape" xmlns:ns2="http://sodipodi.sourceforge.net/DTD/sodipodi-0.dtd" xmlns:ns4="http://creativecommons.org/ns#" xmlns:rdf="http://www.w3.org/1999/02/22-rdf-syntax-ns#" width="719.4364" stroke-miterlimit="10" font-weight="normal" height="269.22919" font-style="normal" font-size="12px" id="svg2" version="1.1" ns1:version="0.91 r13725" ns2:docname="GABA.svg" style="font-style:normal;font-weight:normal;font-size:12px;font-family:Dialog;color-interpolation:auto;fill:#f5d0fe;fill-opacity:1;stroke:none;stroke:none;stroke:none;stroke:none;stroke:none;stroke:none;stroke:none;stroke:none;color-rendering:auto;image-rendering:auto;shape-rendering:auto;text-rendering:auto">
  <metadata id="metadata88">
    <rdf:RDF>
      <ns4:Work rdf:about="">
        <dc:format>image/svg+xml</dc:format>
        <dc:type rdf:resource="http://purl.org/dc/dcmitype/StillImage" />
        <dc:title />
      </ns4:Work>
    </rdf:RDF>
  </metadata>
  <ns2:namedview pagecolor="#eef2ff" bordercolor="#666666" borderopacity="1" objecttolerance="10" gridtolerance="10" guidetolerance="10" ns1:pageopacity="0" ns1:pageshadow="2" ns1:window-width="1060" ns1:window-height="480" id="namedview86" showgrid="false" fit-margin-top="10" fit-margin-left="10" fit-margin-right="10" fit-margin-bottom="10" ns1:zoom="0.36375" ns1:cx="359.7182" ns1:cy="134.6146" ns1:window-x="0" ns1:window-y="0" ns1:window-maximized="0" ns1:current-layer="svg2" />
  
  <defs id="genericDefs" />
  <g id="g5" transform="translate(-40.2818,-165.3854)" style="fill:#f5d0fe;stroke:none">
    <defs id="757094370950-defs1">
      <clipPath clipPathUnits="userSpaceOnUse" id="757094370715-clipPath1">
        <path d="M 0,0 800,0 800,600 0,600 0,0 Z" id="path9" ns1:connector-curvature="0" style="stroke:none" />
      </clipPath>
      <clipPath clipPathUnits="userSpaceOnUse" id="757094370242-clipPath1">
        <path d="m 210.4362,284.4353 c -27.1017,0 -49.0719,21.9702 -49.0719,49.0719 0,27.1016 21.9702,49.0719 49.0719,49.0719 27.1016,0 49.0719,-21.9703 49.0719,-49.0719 0,-27.1017 -21.9703,-49.0719 -49.0719,-49.0719 z" id="path12" ns1:connector-curvature="0" style="stroke:none" />
      </clipPath>
      <clipPath clipPathUnits="userSpaceOnUse" id="757094370703-clipPath1">
        <path d="m 210.4362,283.0978 c -27.8403,0 -50.4093,22.5691 -50.4093,50.4094 0,27.8403 22.569,50.4093 50.4093,50.4093 27.8403,0 50.4093,-22.569 50.4093,-50.4093 0,-27.8403 -22.569,-50.4094 -50.4093,-50.4094 z" id="path15" ns1:connector-curvature="0" style="stroke:none" />
      </clipPath>
      <clipPath clipPathUnits="userSpaceOnUse" id="757094370328-clipPath1">
        <path d="m 563.2201,347.8337 c -29.578,0 -53.5557,23.9777 -53.5557,53.5557 0,29.578 23.9777,53.5557 53.5557,53.5557 29.578,0 53.5557,-23.9777 53.5557,-53.5557 0,-29.578 -23.9777,-53.5557 -53.5557,-53.5557 z" id="path18" ns1:connector-curvature="0" style="stroke:none" />
      </clipPath>
      <clipPath clipPathUnits="userSpaceOnUse" id="757094370165-clipPath1">
        <path d="m -663.062,-304.9929 800,0 0,600 -800,0 0,-600 z" id="path21" ns1:connector-curvature="0" style="stroke:none" />
      </clipPath>
      <clipPath clipPathUnits="userSpaceOnUse" id="7570943704-clipPath1">
        <path d="m -726.9057,-328.6549 800,0 0,600 -800,0 0,-600 z" id="path24" ns1:connector-curvature="0" style="stroke:none" />
      </clipPath>
      <clipPath clipPathUnits="userSpaceOnUse" id="757094370580-clipPath1">
        <path d="m -191.7133,-169.2214 800,0 0,600 -800,0 0,-600 z" id="path27" ns1:connector-curvature="0" style="stroke:none" />
      </clipPath>
      <clipPath clipPathUnits="userSpaceOnUse" id="757094370303-clipPath1">
        <path d="m -46.7818,-372.9036 800,0 0,600 -800,0 0,-600 z" id="path30" ns1:connector-curvature="0" style="stroke:none" />
      </clipPath>
    </defs>
    <g id="g32" style="text-rendering:geometricPrecision;fill:#f5d0fe;stroke:none">
      <path d="m 444.1546,336.0454 117.596,67.8893 c 1.4061,0.8117 3.2031,0.3302 4.0148,-1.0759 0.8117,-1.406 0.3302,-3.203 -1.0759,-4.0148 l -117.596,-67.8893 c -1.406,-0.8117 -3.2031,-0.3302 -4.0148,1.0759 -0.8117,1.406 -0.3301,3.2031 1.0759,4.0148 z" clip-path="url(#757094370715-clipPath1)" id="path34" ns1:connector-curvature="0" style="stroke:none" />
    </g>
    <g id="g36" style="text-rendering:geometricPrecision;fill:#f5d0fe;stroke:none">
      <path d="m 444.1545,330.9548 -117.5919,67.8965 c -1.406,0.8118 -1.8875,2.6088 -1.0757,4.0148 0.8118,1.406 2.6089,1.8875 4.0149,1.0756 l 117.5919,-67.8964 c 1.406,-0.8118 1.8874,-2.6089 1.0756,-4.0149 -0.8118,-1.4059 -2.6088,-1.8874 -4.0148,-1.0756 z" clip-path="url(#757094370715-clipPath1)" id="path38" ns1:connector-curvature="0" style="stroke:none" />
    </g>
    <g id="g40" style="text-rendering:geometricPrecision;fill:#f5d0fe;stroke:none">
      <path d="m 329.5016,398.8512 -117.596,-67.8894 c -1.406,-0.8117 -3.2031,-0.3301 -4.0148,1.0759 -0.8117,1.4061 -0.3301,3.2031 1.0759,4.0148 l 117.596,67.8893 c 1.4061,0.8118 3.2031,0.3302 4.0148,-1.0758 0.8118,-1.4061 0.3302,-3.2031 -1.0759,-4.0148 z" clip-path="url(#757094370715-clipPath1)" id="path42" ns1:connector-curvature="0" style="stroke:none" />
    </g>
    <g id="g44" style="fill:#fda4af;stroke:none;text-rendering:geometricPrecision">
      <path d="m 208.9666,330.9619 -84.9936,49.0745 c -1.4059,0.8118 -1.8874,2.6089 -1.0756,4.0148 0.8118,1.406 2.6089,1.8875 4.0149,1.0757 l 84.9935,-49.0745 c 1.406,-0.8118 1.8874,-2.6089 1.0756,-4.0148 -0.8118,-1.406 -2.6089,-1.8875 -4.0148,-1.0757 z" clip-path="url(#757094370715-clipPath1)" id="path46" ns1:connector-curvature="0" style="stroke:none" />
      <path d="m 208.9666,330.9619 -84.9936,49.0745 c -1.4059,0.8118 -1.8874,2.6089 -1.0756,4.0148 0.8118,1.406 2.6089,1.8875 4.0149,1.0757 l 84.9935,-49.0745 c 1.406,-0.8118 1.8874,-2.6089 1.0756,-4.0148 -0.8118,-1.406 -2.6089,-1.8875 -4.0148,-1.0757 z" clip-path="url(#757094370242-clipPath1)" id="path48" ns1:connector-curvature="0" style="fill:#f5d0fe;stroke:none" />
    </g>
    <g id="g50" style="fill:#fda4af;stroke:none;text-rendering:geometricPrecision">
      <path d="m 195.2511,340.578 c 1e-4,1.6235 1.3157,2.939 2.9392,2.9389 1.6235,0 2.939,-1.3156 2.939,-2.9391 l -0.003,-107.889 c -10e-5,-1.6235 -1.3156,-2.939 -2.9392,-2.939 -1.6235,1e-4 -2.939,1.3157 -2.9389,2.9392 z m 24.4924,-8e-4 c 10e-5,1.6235 1.3156,2.939 2.9391,2.939 1.6236,-1e-4 2.9391,-1.3156 2.939,-2.9391 l -0.003,-107.889 c 0,-1.6235 -1.3156,-2.939 -2.9391,-2.939 -1.6235,1e-4 -2.939,1.3156 -2.939,2.9391 z" clip-path="url(#757094370715-clipPath1)" id="path52" ns1:connector-curvature="0" style="stroke:none" />
      <path d="m 195.2511,340.578 c 1e-4,1.6235 1.3157,2.939 2.9392,2.9389 1.6235,0 2.939,-1.3156 2.939,-2.9391 l -0.003,-107.889 c -10e-5,-1.6235 -1.3156,-2.939 -2.9392,-2.939 -1.6235,1e-4 -2.939,1.3157 -2.9389,2.9392 z m 24.4924,-8e-4 c 10e-5,1.6235 1.3156,2.939 2.9391,2.939 1.6236,-1e-4 2.9391,-1.3156 2.939,-2.9391 l -0.003,-107.889 c 0,-1.6235 -1.3156,-2.939 -2.9391,-2.939 -1.6235,1e-4 -2.939,1.3156 -2.939,2.9391 z" clip-path="url(#757094370703-clipPath1)" id="path54" ns1:connector-curvature="0" style="fill:#f5d0fe;stroke:none" />
    </g>
    <g id="g56" style="fill:#c4b5fd;stroke:none;text-rendering:geometricPrecision">
      <path d="m 564.6897,403.9346 92.7596,-53.5585 c 1.406,-0.8118 1.8874,-2.6089 1.0756,-4.0149 -0.8118,-1.4059 -2.6088,-1.8874 -4.0148,-1.0756 l -92.7596,53.5585 c -1.406,0.8118 -1.8875,2.6089 -1.0757,4.0149 0.8118,1.406 2.6089,1.8874 4.0149,1.0756 z" clip-path="url(#757094370715-clipPath1)" id="path58" ns1:connector-curvature="0" style="stroke:none" />
      <path d="m 564.6897,403.9346 92.7596,-53.5585 c 1.406,-0.8118 1.8874,-2.6089 1.0756,-4.0149 -0.8118,-1.4059 -2.6088,-1.8874 -4.0148,-1.0756 l -92.7596,53.5585 c -1.406,0.8118 -1.8875,2.6089 -1.0757,4.0149 0.8118,1.406 2.6089,1.8874 4.0149,1.0756 z" clip-path="url(#757094370328-clipPath1)" id="path60" ns1:connector-curvature="0" style="fill:#f5d0fe;stroke:none" />
    </g>
    <g id="g62" style="fill:#eef2ff;stroke:none;text-rendering:geometricPrecision">
      </g>
    <g font-size="48px" transform="translate(663.062,304.9929)" id="g66" style="font-size:48px;font-family:sans-serif;fill:#c4b5fd;stroke:none;text-rendering:geometricPrecision">
      <text x="0" xml:space="preserve" y="46" clip-path="url(#757094370165-clipPath1)" id="text68" style="stroke:none">NH</text>
    </g>
    <g font-size="39px" transform="translate(726.9057,328.6549)" id="g70" style="font-size:39px;font-family:sans-serif;fill:#c4b5fd;stroke:none;text-rendering:geometricPrecision">
      <text x="0" xml:space="preserve" y="38" clip-path="url(#7570943704-clipPath1)" id="text72" style="stroke:none">2</text>
    </g>
    <g font-size="39px" id="g74" style="font-size:39px;font-family:sans-serif;fill:#eef2ff;stroke:none;text-rendering:geometricPrecision">
      <text x="0" font-size="48px" y="46" transform="translate(191.7133,169.2214)" clip-path="url(#757094370580-clipPath1)" xml:space="preserve" id="text78" style="font-size:48px;fill:#fda4af;stroke:none">O</text>
    </g>
    <g font-size="48px" id="g80" style="font-size:48px;font-family:sans-serif;fill:#eef2ff;stroke:none;text-rendering:geometricPrecision">
      <text x="0" y="46" transform="translate(46.7818,372.9036)" clip-path="url(#757094370303-clipPath1)" xml:space="preserve" id="text84" style="fill:#fda4af;stroke:none">HO</text>
    </g>
  </g>
</svg>