<?xml version='1.0' encoding='utf-8'?>
<svg xmlns="http://www.w3.org/2000/svg" xmlns:dc="http://purl.org/dc/elements/1.1/" xmlns:ns1="http://www.inkscape.org/namespaces/inkscape" xmlns:ns2="http://sodipodi.sourceforge.net/DTD/sodipodi-0.dtd" xmlns:ns4="http://creativecommons.org/ns#" xmlns:rdf="http://www.w3.org/1999/02/22-rdf-syntax-ns#" width="542.41388" stroke-miterlimit="10" font-weight="normal" height="562.0202" font-style="normal" font-size="12px" id="svg2" version="1.1" ns1:version="0.91 r13725" ns2:docname="Gabazine.svg" style="font-style:normal;font-weight:normal;font-size:12px;font-family:Dialog;color-interpolation:auto;fill:#f0abfc;fill-opacity:1;stroke:none;stroke:none;stroke:none;stroke:none;stroke:none;stroke:none;stroke:none;stroke:none;color-rendering:auto;image-rendering:auto;shape-rendering:auto;text-rendering:auto">
  <metadata id="metadata201">
    <rdf:RDF>
      <ns4:Work rdf:about="">
        <dc:format>image/svg+xml</dc:format>
        <dc:type rdf:resource="http://purl.org/dc/dcmitype/StillImage" />
        <dc:title />
      </ns4:Work>
    </rdf:RDF>
  </metadata>
  <ns2:namedview pagecolor="#eef2ff" bordercolor="#666666" borderopacity="1" objecttolerance="10" gridtolerance="10" guidetolerance="10" ns1:pageopacity="0" ns1:pageshadow="2" ns1:window-width="1920" ns1:window-height="1058" id="namedview199" showgrid="false" fit-margin-top="10" fit-margin-left="10" fit-margin-right="10" fit-margin-bottom="10" ns1:zoom="0.36375" ns1:cx="390.78652" ns1:cy="279.67882" ns1:window-x="-8" ns1:window-y="-8" ns1:window-maximized="1" ns1:current-layer="svg2" />
  
  <defs id="genericDefs" />
  <g id="g5" transform="translate(-128.80111,-17.6586)" style="fill:#f0abfc;stroke:none">
    <defs id="1996453361108-defs1">
      <clipPath clipPathUnits="userSpaceOnUse" id="19964533616-clipPath1">
        <path d="M 0,0 800,0 800,600 0,600 0,0 Z" id="path9" ns1:connector-curvature="0" style="stroke:none" />
      </clipPath>
      <clipPath clipPathUnits="userSpaceOnUse" id="1996453361390-clipPath1">
        <path d="m 214.2999,108.3003 c -16.2196,0 -29.3683,13.1487 -29.3683,29.3683 0,16.2197 13.1487,29.3683 29.3683,29.3683 16.2197,0 29.3683,-13.1486 29.3683,-29.3683 0,-16.2196 -13.1486,-29.3683 -29.3683,-29.3683 z" id="path12" ns1:connector-curvature="0" style="stroke:none" />
      </clipPath>
      <clipPath clipPathUnits="userSpaceOnUse" id="1996453361120-clipPath1">
        <path d="m 280.6867,455.1471 c -15.1823,0 -27.4899,12.3076 -27.4899,27.4899 0,15.1822 12.3076,27.4899 27.4899,27.4899 15.1822,0 27.4899,-12.3077 27.4899,-27.4899 0,-15.1823 -12.3077,-27.4899 -27.4899,-27.4899 z" id="path15" ns1:connector-curvature="0" style="stroke:none" />
      </clipPath>
      <clipPath clipPathUnits="userSpaceOnUse" id="1996453361980-clipPath1">
        <path d="m 280.6867,453.9061 c -15.8677,0 -28.731,12.8632 -28.731,28.7309 0,15.8676 12.8633,28.7309 28.731,28.7309 15.8676,0 28.7309,-12.8633 28.7309,-28.7309 0,-15.8677 -12.8633,-28.7309 -28.7309,-28.7309 z" id="path18" ns1:connector-curvature="0" style="stroke:none" />
      </clipPath>
      <clipPath clipPathUnits="userSpaceOnUse" id="1996453361908-clipPath1">
        <path d="m 546.2469,299.3204 c -16.5772,0 -30.0155,13.4385 -30.0155,30.0156 0,16.5771 13.4383,30.0155 30.0155,30.0155 16.5771,0 30.0155,-13.4384 30.0155,-30.0155 0,-16.5771 -13.4384,-30.0156 -30.0155,-30.0156 z" id="path21" ns1:connector-curvature="0" style="stroke:none" />
      </clipPath>
      <clipPath clipPathUnits="userSpaceOnUse" id="1996453361206-clipPath1">
        <path d="m 493.8508,329.3321 c -16.7065,0 -30.2497,13.5432 -30.2497,30.2497 0,16.7064 13.5432,30.2496 30.2497,30.2496 16.7064,0 30.2496,-13.5432 30.2496,-30.2496 0,-16.7065 -13.5432,-30.2497 -30.2496,-30.2497 z" id="path24" ns1:connector-curvature="0" style="stroke:none" />
      </clipPath>
      <clipPath clipPathUnits="userSpaceOnUse" id="1996453361805-clipPath1">
        <path d="m 479.8589,357.5798 c -15.9679,0 -28.9125,12.9446 -28.9125,28.9126 0,15.968 12.9446,28.9126 28.9125,28.9126 15.968,0 28.9126,-12.9446 28.9126,-28.9126 0,-15.968 -12.9446,-28.9126 -28.9126,-28.9126 z" id="path27" ns1:connector-curvature="0" style="stroke:none" />
      </clipPath>
      <clipPath clipPathUnits="userSpaceOnUse" id="1996453361629-clipPath1">
        <path d="m 413.463,223.695 c -16.0013,0 -28.9729,12.9715 -28.9729,28.9728 0,16.0012 12.9716,28.9728 28.9729,28.9728 16.0012,0 28.9728,-12.9716 28.9728,-28.9728 0,-16.0013 -12.9716,-28.9728 -28.9728,-28.9728 z" id="path30" ns1:connector-curvature="0" style="stroke:none" />
      </clipPath>
      <clipPath clipPathUnits="userSpaceOnUse" id="1996453361296-clipPath1">
        <path d="m 147.9096,54.7302 c -14.0349,0 -25.4124,11.3775 -25.4124,25.4124 0,14.0348 11.3775,25.4123 25.4124,25.4123 14.0348,0 25.4123,-11.3775 25.4123,-25.4123 0,-14.0349 -11.3775,-25.4124 -25.4123,-25.4124 z" id="path33" ns1:connector-curvature="0" style="stroke:none" />
      </clipPath>
      <clipPath clipPathUnits="userSpaceOnUse" id="199645336172-clipPath1">
        <path d="m -403.5108,-313.3216 800,0 0,600 -800,0 0,-600 z" id="path36" ns1:connector-curvature="0" style="stroke:none" />
      </clipPath>
      <clipPath clipPathUnits="userSpaceOnUse" id="1996453361844-clipPath1">
        <path d="m -469.9068,-351.658 800,0 0,600 -800,0 0,-600 z" id="path39" ns1:connector-curvature="0" style="stroke:none" />
      </clipPath>
      <clipPath clipPathUnits="userSpaceOnUse" id="1996453361105-clipPath1">
        <path d="m -602.6805,-351.6698 800,0 0,600 -800,0 0,-600 z" id="path42" ns1:connector-curvature="0" style="stroke:none" />
      </clipPath>
      <clipPath clipPathUnits="userSpaceOnUse" id="1996453361451-clipPath1">
        <path d="m -639.5087,-365.8985 800,0 0,600 -800,0 0,-600 z" id="path45" ns1:connector-curvature="0" style="stroke:none" />
      </clipPath>
      <clipPath clipPathUnits="userSpaceOnUse" id="1996453361514-clipPath1">
        <path d="m -137.285,-83.3403 800,0 0,600 -800,0 0,-600 z" id="path48" ns1:connector-curvature="0" style="stroke:none" />
      </clipPath>
      <clipPath clipPathUnits="userSpaceOnUse" id="1996453361704-clipPath1">
        <path d="m -599.1368,-428.3293 800,0 0,600 -800,0 0,-600 z" id="path51" ns1:connector-curvature="0" style="stroke:none" />
      </clipPath>
      <clipPath clipPathUnits="userSpaceOnUse" id="1996453361329-clipPath1">
        <path d="m -188.3464,-428.3038 800,0 0,600 -800,0 0,-600 z" id="path54" ns1:connector-curvature="0" style="stroke:none" />
      </clipPath>
      <clipPath clipPathUnits="userSpaceOnUse" id="1996453361609-clipPath1">
        <path d="m -270.0577,-543.2965 800,0 0,600 -800,0 0,-600 z" id="path57" ns1:connector-curvature="0" style="stroke:none" />
      </clipPath>
    </defs>
    <g id="g59" style="text-rendering:geometricPrecision;fill:#f0abfc;stroke:none">
      <path d="m 280.0757,117.5722 c 0.7937,-0.4583 1.0655,-1.4729 0.6072,-2.2667 -0.4583,-0.7937 -1.4729,-1.0655 -2.2666,-0.6072 l -49.6817,28.6866 c -0.7937,0.4583 -1.0655,1.4728 -0.6072,2.2666 0.4583,0.7938 1.4729,1.0656 2.2666,0.6072 z m 1.4364,-16.7964 c 0.7938,-0.4583 1.0656,-1.4729 0.6073,-2.2667 -0.4584,-0.7937 -1.4729,-1.0655 -2.2667,-0.6072 l -66.3825,38.3298 c -0.7938,0.4583 -1.0656,1.4728 -0.6072,2.2666 0.4583,0.7938 1.4728,1.0656 2.2666,0.6072 z" clip-path="url(#19964533616-clipPath1)" id="path61" ns1:connector-curvature="0" style="stroke:none" />
    </g>
    <g id="g63" style="text-rendering:geometricPrecision;fill:#f0abfc;stroke:none">
      <path d="m 212.6406,137.6686 0,76.6688 c 0,0.9166 0.7427,1.6593 1.6593,1.6593 0.9166,0 1.6593,-0.7427 1.6593,-1.6593 l 0,-76.6688 c 0,-0.9166 -0.7427,-1.6593 -1.6593,-1.6593 -0.9166,0 -1.6593,0.7427 -1.6593,1.6593 z" clip-path="url(#19964533616-clipPath1)" id="path65" ns1:connector-curvature="0" style="stroke:none" />
    </g>
    <g id="g67" style="text-rendering:geometricPrecision;fill:#f0abfc;stroke:none">
      <path d="m 230.394,205.7473 c -0.7937,-0.4583 -1.8083,-0.1865 -2.2666,0.6072 -0.4583,0.7938 -0.1865,1.8084 0.6072,2.2667 l 49.6817,28.6865 c 0.7937,0.4584 1.8083,0.1865 2.2666,-0.6072 0.4583,-0.7938 0.1865,-1.8083 -0.6072,-2.2666 z m -15.2644,7.1532 c -0.7938,-0.4583 -1.8083,-0.1865 -2.2666,0.6072 -0.4584,0.7938 -0.1865,1.8083 0.6072,2.2667 l 66.3825,38.3297 c 0.7938,0.4584 1.8083,0.1865 2.2667,-0.6072 0.4583,-0.7938 0.1865,-1.8083 -0.6073,-2.2667 z" clip-path="url(#19964533616-clipPath1)" id="path69" ns1:connector-curvature="0" style="stroke:none" />
    </g>
    <g id="g71" style="text-rendering:geometricPrecision;fill:#f0abfc;stroke:none">
      <path d="m 281.512,254.1042 66.3918,-38.3298 c 0.7938,-0.4583 1.0657,-1.4728 0.6074,-2.2666 -0.4583,-0.7938 -1.4728,-1.0656 -2.2666,-0.6074 l -66.3918,38.3298 c -0.7938,0.4583 -1.0657,1.4728 -0.6074,2.2666 0.4583,0.7938 1.4728,1.0657 2.2666,0.6074 z" clip-path="url(#19964533616-clipPath1)" id="path73" ns1:connector-curvature="0" style="stroke:none" />
    </g>
    <g id="g75" style="text-rendering:geometricPrecision;fill:#f0abfc;stroke:none">
      <path d="m 331.5875,204.6947 c 0,0.9166 0.7427,1.6593 1.6592,1.6593 0.9166,0 1.6593,-0.7427 1.6593,-1.6593 l 0,-57.3834 c 0,-0.9165 -0.7427,-1.6592 -1.6593,-1.6592 -0.9165,0 -1.6592,0.7427 -1.6592,1.6592 z m 13.8274,9.6427 c 0,0.9166 0.7427,1.6593 1.6593,1.6593 0.9166,0 1.6593,-0.7427 1.6593,-1.6593 l 0,-76.6688 c 0,-0.9166 -0.7427,-1.6593 -1.6593,-1.6593 -0.9166,0 -1.6593,0.7427 -1.6593,1.6593 z" clip-path="url(#19964533616-clipPath1)" id="path77" ns1:connector-curvature="0" style="stroke:none" />
    </g>
    <g id="g79" style="text-rendering:geometricPrecision;fill:#f0abfc;stroke:none">
      <path d="M 347.9038,136.2316 281.512,97.9018 c -0.7938,-0.4582 -1.8083,-0.1864 -2.2666,0.6074 -0.4583,0.7938 -0.1864,1.8084 0.6074,2.2666 l 66.3918,38.3298 c 0.7938,0.4583 1.8083,0.1864 2.2666,-0.6074 0.4583,-0.7938 0.1864,-1.8083 -0.6074,-2.2666 z" clip-path="url(#19964533616-clipPath1)" id="path81" ns1:connector-curvature="0" style="stroke:none" />
    </g>
    <g id="g83" style="text-rendering:geometricPrecision;fill:#f0abfc;stroke:none">
      <path d="m 346.2446,215.7744 66.3887,38.3304 c 0.7938,0.4582 1.8084,0.1864 2.2666,-0.6074 0.4583,-0.7937 0.1865,-1.8083 -0.6073,-2.2666 l -66.3887,-38.3303 c -0.7938,-0.4583 -1.8084,-0.1865 -2.2667,0.6073 -0.4582,0.7937 -0.1864,1.8083 0.6074,2.2666 z" clip-path="url(#19964533616-clipPath1)" id="path85" ns1:connector-curvature="0" style="stroke:none" />
    </g>
    <g id="g87" style="text-rendering:geometricPrecision;fill:#f0abfc;stroke:none">
      <path d="m 547.9062,329.3361 0.004,-76.6619 c 0,-0.9166 -0.7427,-1.6593 -1.6593,-1.6594 -0.9166,0 -1.6593,0.7426 -1.6593,1.6592 l -0.004,76.6619 c 0,0.9166 0.7426,1.6593 1.6592,1.6593 0.9166,10e-5 1.6593,-0.7426 1.6594,-1.6591 z" clip-path="url(#19964533616-clipPath1)" id="path89" ns1:connector-curvature="0" style="stroke:none" />
    </g>
    <g id="g91" style="text-rendering:geometricPrecision;fill:#f0abfc;stroke:none">
      <path d="m 530.1561,261.2642 c 0.7937,0.4583 1.8083,0.1865 2.2666,-0.6073 0.4583,-0.7938 0.1865,-1.8083 -0.6073,-2.2666 l -49.6945,-28.6932 c -0.7938,-0.4583 -1.8083,-0.1865 -2.2667,0.6073 -0.4583,0.7937 -0.1865,1.8083 0.6073,2.2666 z m 15.2648,-7.1531 c 0.7938,0.4583 1.8083,0.1865 2.2666,-0.6073 0.4583,-0.7938 0.1865,-1.8083 -0.6072,-2.2666 l -66.396,-38.3365 c -0.7938,-0.4583 -1.8084,-0.1865 -2.2667,0.6073 -0.4583,0.7938 -0.1865,1.8083 0.6073,2.2666 z" clip-path="url(#19964533616-clipPath1)" id="path93" ns1:connector-curvature="0" style="stroke:none" />
    </g>
    <g id="g95" style="text-rendering:geometricPrecision;fill:#f0abfc;stroke:none">
      <path d="m 479.025,212.9007 -66.3917,38.3301 c -0.7937,0.4583 -1.0656,1.4728 -0.6073,2.2666 0.4583,0.7938 1.4728,1.0656 2.2666,0.6074 l 66.3916,-38.3301 c 0.7938,-0.4583 1.0656,-1.4729 0.6074,-2.2666 -0.4583,-0.7938 -1.4729,-1.0657 -2.2666,-0.6074 z" clip-path="url(#19964533616-clipPath1)" id="path97" ns1:connector-curvature="0" style="stroke:none" />
    </g>
    <g id="g99" style="text-rendering:geometricPrecision;fill:#f0abfc;stroke:none">
      <path d="m 479.0264,442.8805 -66.3911,38.3263 c -0.7938,0.4583 -1.0657,1.4728 -0.6075,2.2666 0.4583,0.7938 1.4728,1.0657 2.2666,0.6075 l 66.3911,-38.3264 c 0.7938,-0.4582 1.0657,-1.4727 0.6075,-2.2665 -0.4583,-0.7938 -1.4728,-1.0657 -2.2666,-0.6075 z" clip-path="url(#19964533616-clipPath1)" id="path101" ns1:connector-curvature="0" style="stroke:none" />
    </g>
    <g id="g103" style="text-rendering:geometricPrecision;fill:#f0abfc;stroke:none">
      <path d="m 414.2946,481.2069 -66.3871,-38.3332 c -0.7938,-0.4583 -1.8083,-0.1865 -2.2667,0.6073 -0.4583,0.7937 -0.1865,1.8083 0.6072,2.2666 l 66.3872,38.3332 c 0.7937,0.4583 1.8083,0.1865 2.2666,-0.6072 0.4583,-0.7938 0.1865,-1.8083 -0.6072,-2.2667 z" clip-path="url(#19964533616-clipPath1)" id="path105" ns1:connector-curvature="0" style="stroke:none" />
    </g>
    <g id="g107" style="text-rendering:geometricPrecision;fill:#f0abfc;stroke:none">
      <path d="M 346.2482,442.8736 279.8571,481.2 c -0.7938,0.4582 -1.0657,1.4728 -0.6074,2.2666 0.4582,0.7937 1.4727,1.0657 2.2665,0.6074 l 66.3911,-38.3263 c 0.7938,-0.4583 1.0657,-1.4728 0.6075,-2.2666 -0.4583,-0.7938 -1.4728,-1.0657 -2.2666,-0.6075 z" clip-path="url(#19964533616-clipPath1)" id="path109" ns1:connector-curvature="0" style="stroke:none" />
    </g>
    <g id="g111" style="fill:#fda4af;stroke:none;text-rendering:geometricPrecision">
      <path d="m 215.1295,136.2316 -50.868,-29.3672 c -0.7938,-0.4582 -1.8083,-0.1864 -2.2666,0.6074 -0.4582,0.7938 -0.1864,1.8083 0.6074,2.2666 l 50.868,29.3672 c 0.7938,0.4583 1.8083,0.1864 2.2666,-0.6074 0.4583,-0.7938 0.1864,-1.8083 -0.6074,-2.2666 z" clip-path="url(#19964533616-clipPath1)" id="path113" ns1:connector-curvature="0" style="stroke:none" />
      <path d="m 215.1295,136.2316 -50.868,-29.3672 c -0.7938,-0.4582 -1.8083,-0.1864 -2.2666,0.6074 -0.4582,0.7938 -0.1864,1.8083 0.6074,2.2666 l 50.868,29.3672 c 0.7938,0.4583 1.8083,0.1864 2.2666,-0.6074 0.4583,-0.7938 0.1864,-1.8083 -0.6074,-2.2666 z" clip-path="url(#1996453361390-clipPath1)" id="path115" ns1:connector-curvature="0" style="fill:#f0abfc;stroke:none" />
    </g>
    <g id="g117" style="fill:#fda4af;stroke:none;text-rendering:geometricPrecision">
      <path d="m 281.5164,481.2 -47.6125,-27.4923 c -0.7937,-0.4583 -1.8083,-0.1866 -2.2666,0.6072 -0.4583,0.7938 -0.1866,1.8083 0.6072,2.2667 l 47.6125,27.4923 c 0.7937,0.4584 1.8083,0.1866 2.2666,-0.6072 0.4583,-0.7938 0.1866,-1.8083 -0.6072,-2.2667 z" clip-path="url(#19964533616-clipPath1)" id="path119" ns1:connector-curvature="0" style="stroke:none" />
      <path d="m 281.5164,481.2 -47.6125,-27.4923 c -0.7937,-0.4583 -1.8083,-0.1866 -2.2666,0.6072 -0.4583,0.7938 -0.1866,1.8083 0.6072,2.2667 l 47.6125,27.4923 c 0.7937,0.4584 1.8083,0.1866 2.2666,-0.6072 0.4583,-0.7938 0.1866,-1.8083 -0.6072,-2.2667 z" clip-path="url(#1996453361120-clipPath1)" id="path121" ns1:connector-curvature="0" style="fill:#f0abfc;stroke:none" />
    </g>
    <g id="g123" style="fill:#fda4af;stroke:none;text-rendering:geometricPrecision">
      <path d="m 289.2599,478.6458 c 0,-0.9166 -0.7426,-1.6593 -1.6592,-1.6594 -0.9166,0 -1.6593,0.7426 -1.6594,1.6592 l -0.003,61.4535 c 0,0.9166 0.7427,1.6593 1.6593,1.6594 0.9165,0 1.6593,-0.7426 1.6593,-1.6592 z m -13.8275,-7e-4 c 1e-4,-0.9166 -0.7426,-1.6594 -1.6592,-1.6594 -0.9165,0 -1.6593,0.7426 -1.6593,1.6592 l -0.003,61.4535 c -1e-4,0.9166 0.7426,1.6593 1.6592,1.6594 0.9166,0 1.6593,-0.7427 1.6594,-1.6592 z" clip-path="url(#19964533616-clipPath1)" id="path125" ns1:connector-curvature="0" style="stroke:none" />
      <path d="m 289.2599,478.6458 c 0,-0.9166 -0.7426,-1.6593 -1.6592,-1.6594 -0.9166,0 -1.6593,0.7426 -1.6594,1.6592 l -0.003,61.4535 c 0,0.9166 0.7427,1.6593 1.6593,1.6594 0.9165,0 1.6593,-0.7426 1.6593,-1.6592 z m -13.8275,-7e-4 c 1e-4,-0.9166 -0.7426,-1.6594 -1.6592,-1.6594 -0.9165,0 -1.6593,0.7426 -1.6593,1.6592 l -0.003,61.4535 c -1e-4,0.9166 0.7426,1.6593 1.6592,1.6594 0.9166,0 1.6593,-0.7427 1.6594,-1.6592 z" clip-path="url(#1996453361980-clipPath1)" id="path127" ns1:connector-curvature="0" style="fill:#f0abfc;stroke:none" />
    </g>
    <g id="g129" style="fill:#c4b5fd;stroke:none;text-rendering:geometricPrecision">
      <path d="m 547.077,319.9157 c -0.7937,-0.4583 -1.8083,-0.1865 -2.2666,0.6072 -0.4584,0.7938 -0.1866,1.8083 0.6071,2.2667 l 55.4435,32.0147 c 0.7937,0.4584 1.8083,0.1866 2.2666,-0.6072 0.4584,-0.7937 0.1866,-1.8083 -0.6072,-2.2666 z m -6.9145,11.9745 c -0.7937,-0.4583 -1.8083,-0.1866 -2.2666,0.6072 -0.4583,0.7938 -0.1865,1.8083 0.6072,2.2667 l 55.4434,32.0147 c 0.7938,0.4584 1.8083,0.1866 2.2667,-0.6072 0.4583,-0.7937 0.1865,-1.8083 -0.6072,-2.2666 z" clip-path="url(#19964533616-clipPath1)" id="path131" ns1:connector-curvature="0" style="stroke:none" />
      <path d="m 547.077,319.9157 c -0.7937,-0.4583 -1.8083,-0.1865 -2.2666,0.6072 -0.4584,0.7938 -0.1866,1.8083 0.6071,2.2667 l 55.4435,32.0147 c 0.7937,0.4584 1.8083,0.1866 2.2666,-0.6072 0.4584,-0.7937 0.1866,-1.8083 -0.6072,-2.2666 z m -6.9145,11.9745 c -0.7937,-0.4583 -1.8083,-0.1866 -2.2666,0.6072 -0.4583,0.7938 -0.1865,1.8083 0.6072,2.2667 l 55.4434,32.0147 c 0.7938,0.4584 1.8083,0.1866 2.2667,-0.6072 0.4583,-0.7937 0.1865,-1.8083 -0.6072,-2.2666 z" clip-path="url(#1996453361908-clipPath1)" id="path133" ns1:connector-curvature="0" style="fill:#f0abfc;stroke:none" />
    </g>
    <g id="g135" style="text-rendering:geometricPrecision;fill:#f0abfc;stroke:none">
      <path d="m 494.6803,361.0188 52.3961,-30.2458 c 0.7938,-0.4582 1.0658,-1.4727 0.6075,-2.2666 -0.4582,-0.7938 -1.4727,-1.0657 -2.2665,-0.6075 l -52.3962,30.2458 c -0.7938,0.4583 -1.0657,1.4728 -0.6075,2.2666 0.4582,0.7938 1.4728,1.0657 2.2666,0.6075 z" clip-path="url(#19964533616-clipPath1)" id="path137" ns1:connector-curvature="0" style="stroke:none" />
      <path d="m 494.6803,361.0188 52.3961,-30.2458 c 0.7938,-0.4582 1.0658,-1.4727 0.6075,-2.2666 -0.4582,-0.7938 -1.4727,-1.0657 -2.2665,-0.6075 l -52.3962,30.2458 c -0.7938,0.4583 -1.0657,1.4728 -0.6075,2.2666 0.4582,0.7938 1.4728,1.0657 2.2666,0.6075 z" clip-path="url(#1996453361206-clipPath1)" id="path139" ns1:connector-curvature="0" style="fill:#c4b5fd;stroke:none" />
    </g>
    <g id="g141" style="text-rendering:geometricPrecision;fill:#f0abfc;stroke:none">
      <path d="m 478.1997,386.4923 -0.003,57.8251 c -1e-4,0.9166 0.7426,1.6594 1.6592,1.6594 0.9165,10e-5 1.6593,-0.7426 1.6593,-1.6592 l 0.003,-57.8251 c 1e-4,-0.9166 -0.7426,-1.6593 -1.6592,-1.6594 -0.9166,0 -1.6593,0.7426 -1.6593,1.6592 z" clip-path="url(#19964533616-clipPath1)" id="path143" ns1:connector-curvature="0" style="stroke:none" />
      <path d="m 478.1997,386.4923 -0.003,57.8251 c -1e-4,0.9166 0.7426,1.6594 1.6592,1.6594 0.9165,10e-5 1.6593,-0.7426 1.6593,-1.6592 l 0.003,-57.8251 c 1e-4,-0.9166 -0.7426,-1.6593 -1.6592,-1.6594 -0.9166,0 -1.6593,0.7426 -1.6593,1.6592 z" clip-path="url(#1996453361805-clipPath1)" id="path145" ns1:connector-curvature="0" style="fill:#c4b5fd;stroke:none" />
    </g>
    <g id="g147" style="fill:#c4b5fd;stroke:none;text-rendering:geometricPrecision">
      <path d="m 428.9498,262.3104 c 0,-0.9166 -0.7427,-1.6593 -1.6593,-1.6593 -0.9165,0 -1.6592,0.7428 -1.6592,1.6593 l 6e-4,48.3029 c 0,0.9165 0.7427,1.6592 1.6593,1.6592 0.9166,0 1.6593,-0.7427 1.6592,-1.6593 z m -13.8275,-9.6426 c -10e-5,-0.9166 -0.7428,-1.6593 -1.6593,-1.6593 -0.9166,0 -1.6593,0.7427 -1.6593,1.6593 l 7e-4,57.9456 c 0,0.9166 0.7427,1.6593 1.6593,1.6593 0.9166,0 1.6593,-0.7427 1.6593,-1.6593 z" clip-path="url(#19964533616-clipPath1)" id="path149" ns1:connector-curvature="0" style="stroke:none" />
      <path d="m 428.9498,262.3104 c 0,-0.9166 -0.7427,-1.6593 -1.6593,-1.6593 -0.9165,0 -1.6592,0.7428 -1.6592,1.6593 l 6e-4,48.3029 c 0,0.9165 0.7427,1.6592 1.6593,1.6592 0.9166,0 1.6593,-0.7427 1.6592,-1.6593 z m -13.8275,-9.6426 c -10e-5,-0.9166 -0.7428,-1.6593 -1.6593,-1.6593 -0.9166,0 -1.6593,0.7427 -1.6593,1.6593 l 7e-4,57.9456 c 0,0.9166 0.7427,1.6593 1.6593,1.6593 0.9166,0 1.6593,-0.7427 1.6593,-1.6593 z" clip-path="url(#1996453361629-clipPath1)" id="path151" ns1:connector-curvature="0" style="fill:#f0abfc;stroke:none" />
    </g>
    <g id="g153" style="fill:#c4b5fd;stroke:none;text-rendering:geometricPrecision">
      <path d="m 426.6245,338.8364 38.4155,22.1807 c 0.7937,0.4583 1.8083,0.1865 2.2666,-0.6072 0.4583,-0.7938 0.1865,-1.8084 -0.6073,-2.2667 l -38.4154,-22.1807 c -0.7938,-0.4583 -1.8083,-0.1865 -2.2667,0.6073 -0.4583,0.7937 -0.1865,1.8083 0.6073,2.2666 z" clip-path="url(#19964533616-clipPath1)" id="path155" ns1:connector-curvature="0" style="stroke:none" />
    </g>
    <g id="g157" style="text-rendering:geometricPrecision;fill:#f0abfc;stroke:none">
      <path d="m 149.5688,80.1425 -0.001,-50.8247 c -1e-4,-0.9165 -0.7428,-1.6592 -1.6594,-1.6592 -0.9165,0 -1.6592,0.7427 -1.6592,1.6593 l 0.001,50.8247 c 0,0.9166 0.7427,1.6593 1.6593,1.6592 0.9166,0 1.6593,-0.7427 1.6592,-1.6593 z" clip-path="url(#19964533616-clipPath1)" id="path159" ns1:connector-curvature="0" style="stroke:none" />
      <path d="m 149.5688,80.1425 -0.001,-50.8247 c -1e-4,-0.9165 -0.7428,-1.6592 -1.6594,-1.6592 -0.9165,0 -1.6592,0.7427 -1.6592,1.6593 l 0.001,50.8247 c 0,0.9166 0.7427,1.6593 1.6593,1.6592 0.9166,0 1.6593,-0.7427 1.6592,-1.6593 z" clip-path="url(#1996453361296-clipPath1)" id="path161" ns1:connector-curvature="0" style="fill:#fda4af;stroke:none" />
    </g>
    <g font-size="27px" transform="translate(403.5108,313.3216)" id="g163" style="font-size:27px;font-family:sans-serif;fill:#c4b5fd;stroke:none;text-rendering:geometricPrecision">
      <text x="0" xml:space="preserve" y="26" clip-path="url(#199645336172-clipPath1)" id="text165" style="stroke:none">N</text>
    </g>
    <g font-size="27px" transform="translate(469.9068,351.658)" id="g167" style="font-size:27px;font-family:sans-serif;fill:#c4b5fd;stroke:none;text-rendering:geometricPrecision">
      <text x="0" xml:space="preserve" y="26" clip-path="url(#1996453361844-clipPath1)" id="text169" style="stroke:none">N</text>
    </g>
    <g font-size="27px" transform="translate(602.6805,351.6698)" id="g171" style="font-size:27px;font-family:sans-serif;fill:#c4b5fd;stroke:none;text-rendering:geometricPrecision">
      <text x="0" xml:space="preserve" y="26" clip-path="url(#1996453361105-clipPath1)" id="text173" style="stroke:none">NH</text>
    </g>
    <g font-size="21px" transform="translate(639.5087,365.8985)" id="g175" style="font-size:21px;font-family:sans-serif;fill:#c4b5fd;stroke:none;text-rendering:geometricPrecision">
      <text x="0" xml:space="preserve" y="20" clip-path="url(#1996453361451-clipPath1)" id="text177" style="stroke:none">2</text>
    </g>
    <g font-size="21px" id="g179" style="font-size:21px;font-family:sans-serif;fill:#c4b5fd;stroke:none;text-rendering:geometricPrecision">
      <path d="m 652.7993,353.8157 0,4.2078 -4.2079,0 0,1.4026 4.2079,0 0,4.2079 1.4026,0 0,-4.2079 4.2079,0 0,-1.4026 -4.2079,0 0,-4.2078 z m 8.4157,-2.8053 0,15.4288 -15.4287,0 0,-15.4288 z m -15.4288,0 0,0 0,15.4288 0,0 15.4288,0 0,0 0,-15.4288 0,0 z" clip-path="url(#19964533616-clipPath1)" id="path181" ns1:connector-curvature="0" style="stroke:none" />
      <text x="0" font-size="27px" y="26" transform="translate(137.285,83.3403)" clip-path="url(#1996453361514-clipPath1)" xml:space="preserve" id="text183" style="font-size:27px;fill:#fda4af;stroke:none">O</text>
    </g>
    <g font-size="27px" transform="translate(599.1368,428.3293)" id="g185" style="font-size:27px;font-family:sans-serif;fill:#fb7185;stroke:none;text-rendering:geometricPrecision">
      <text x="0" xml:space="preserve" y="26" clip-path="url(#1996453361704-clipPath1)" id="text187" style="stroke:none">Br</text>
    </g>
    <g font-size="27px" id="g189" style="font-size:27px;font-family:sans-serif;fill:#fb7185;stroke:none;text-rendering:geometricPrecision">
      <path d="m 624.5611,433.9047 0,1.4026 9.8183,0 0,-1.4026 z m 12.6235,-7.0131 0,15.4288 -15.4287,0 0,-15.4288 z m -15.4287,0 0,0 0,15.4288 0,0 15.4287,0 0,0 0,-15.4288 0,0 z" clip-path="url(#19964533616-clipPath1)" id="path191" ns1:connector-curvature="0" style="stroke:none" />
      <text x="0" y="26" transform="translate(188.3464,428.3038)" clip-path="url(#1996453361329-clipPath1)" xml:space="preserve" id="text193" style="fill:#fda4af;stroke:none">HO</text>
    </g>
    <g font-size="27px" transform="translate(270.0577,543.2965)" id="g195" style="font-size:27px;font-family:sans-serif;fill:#fda4af;stroke:none;text-rendering:geometricPrecision">
      <text x="0" xml:space="preserve" y="26" clip-path="url(#1996453361609-clipPath1)" id="text197" style="stroke:none">O</text>
    </g>
  </g>
</svg>