<?xml version='1.0' encoding='utf-8'?>
<svg xmlns="http://www.w3.org/2000/svg" xmlns:dc="http://purl.org/dc/elements/1.1/" xmlns:ns1="http://www.inkscape.org/namespaces/inkscape" xmlns:ns2="http://sodipodi.sourceforge.net/DTD/sodipodi-0.dtd" xmlns:ns4="http://creativecommons.org/ns#" xmlns:rdf="http://www.w3.org/1999/02/22-rdf-syntax-ns#" width="609.47803" stroke-miterlimit="10" font-weight="normal" height="529.37201" font-style="normal" font-size="12px" id="svg2" version="1.1" ns1:version="0.91 r13725" ns2:docname="Ibotenic acid.svg" style="font-style:normal;font-weight:normal;font-size:12px;font-family:Dialog;color-interpolation:auto;fill:#f0abfc;fill-opacity:1;stroke:none;stroke:none;stroke:none;stroke:none;stroke:none;stroke:none;stroke:none;stroke:none;color-rendering:auto;image-rendering:auto;shape-rendering:auto;text-rendering:auto">
  <metadata id="metadata155">
    <rdf:RDF>
      <ns4:Work rdf:about="">
        <dc:format>image/svg+xml</dc:format>
        <dc:type rdf:resource="http://purl.org/dc/dcmitype/StillImage" />
        <dc:title />
      </ns4:Work>
    </rdf:RDF>
  </metadata>
  <ns2:namedview pagecolor="#eef2ff" bordercolor="#666666" borderopacity="1" objecttolerance="10" gridtolerance="10" guidetolerance="10" ns1:pageopacity="0" ns1:pageshadow="2" ns1:window-width="1060" ns1:window-height="480" id="namedview153" showgrid="false" fit-margin-top="10" fit-margin-left="10" fit-margin-right="10" fit-margin-bottom="10" ns1:zoom="0.36375" ns1:cx="304.739" ns1:cy="264.686" ns1:window-x="0" ns1:window-y="0" ns1:window-maximized="0" ns1:current-layer="svg2" />
  
  <defs id="genericDefs" />
  <g id="g5" transform="translate(-95.261,-35.314)" style="fill:#f0abfc;stroke:none">
    <defs id="804332820327-defs1">
      <clipPath clipPathUnits="userSpaceOnUse" id="804332820403-clipPath1">
        <path d="M 0,0 800,0 800,600 0,600 0,0 Z" id="path9" ns1:connector-curvature="0" style="stroke:none" />
      </clipPath>
      <clipPath clipPathUnits="userSpaceOnUse" id="804332820457-clipPath1">
        <path d="m 189.688,293.8037 c -26.1748,0 -47.3937,21.2189 -47.3937,47.3937 0,26.1748 21.2189,47.3937 47.3937,47.3937 26.1748,0 47.3937,-21.2189 47.3937,-47.3937 0,-26.1748 -21.2189,-47.3937 -47.3937,-47.3937 z" id="path12" ns1:connector-curvature="0" style="stroke:none" />
      </clipPath>
      <clipPath clipPathUnits="userSpaceOnUse" id="804332820270-clipPath1">
        <path d="m 306.3071,208.3016 c -26.3013,0 -47.6227,21.3214 -47.6227,47.6227 0,26.3012 21.3214,47.6226 47.6227,47.6226 26.3013,0 47.6226,-21.3214 47.6226,-47.6226 0,-26.3013 -21.3213,-47.6227 -47.6226,-47.6227 z" id="path15" ns1:connector-curvature="0" style="stroke:none" />
      </clipPath>
      <clipPath clipPathUnits="userSpaceOnUse" id="80433282047-clipPath1">
        <path d="m 257.2243,221.9653 c -18.755,0 -33.9589,15.2039 -33.9589,33.959 0,18.755 15.2039,33.9589 33.9589,33.9589 18.7551,0 33.959,-15.2039 33.959,-33.9589 0,-18.7551 -15.2039,-33.959 -33.959,-33.959 z" id="path18" ns1:connector-curvature="0" style="stroke:none" />
      </clipPath>
      <clipPath clipPathUnits="userSpaceOnUse" id="804332820349-clipPath1">
        <path d="m 218.9756,386.4144 c -24.8154,0 -44.9323,20.1168 -44.9323,44.9322 0,24.8154 20.1169,44.9323 44.9323,44.9323 24.8154,0 44.9322,-20.1169 44.9322,-44.9323 0,-24.8154 -20.1168,-44.9322 -44.9322,-44.9322 z" id="path21" ns1:connector-curvature="0" style="stroke:none" />
      </clipPath>
      <clipPath clipPathUnits="userSpaceOnUse" id="804332820519-clipPath1">
        <path d="m 502.7916,224.614 c -26.7855,0 -48.4995,21.714 -48.4995,48.4995 0,26.7855 21.714,48.4995 48.4995,48.4995 26.7855,0 48.4995,-21.714 48.4995,-48.4995 0,-26.7855 -21.714,-48.4995 -48.4995,-48.4995 z" id="path24" ns1:connector-curvature="0" style="stroke:none" />
      </clipPath>
      <clipPath clipPathUnits="userSpaceOnUse" id="804332820578-clipPath1">
        <path d="m 528.9053,102.9631 c -26.1315,0 -47.3152,21.1838 -47.3152,47.3153 0,26.1314 21.1837,47.3152 47.3152,47.3152 26.1314,0 47.3152,-21.1838 47.3152,-47.3152 0,-26.1315 -21.1838,-47.3153 -47.3152,-47.3153 z" id="path27" ns1:connector-curvature="0" style="stroke:none" />
      </clipPath>
      <clipPath clipPathUnits="userSpaceOnUse" id="804332820442-clipPath1">
        <path d="m 528.9053,101.3628 c -27.0153,0 -48.9155,21.9003 -48.9155,48.9156 0,27.0152 21.9002,48.9154 48.9155,48.9154 27.0153,0 48.9155,-21.9002 48.9155,-48.9154 0,-27.0153 -21.9002,-48.9156 -48.9155,-48.9156 z" id="path30" ns1:connector-curvature="0" style="stroke:none" />
      </clipPath>
      <clipPath clipPathUnits="userSpaceOnUse" id="804332820177-clipPath1">
        <path d="m -264.5548,-212.09 800.0001,0 0,600 -800.0001,0 0,-600 z" id="path33" ns1:connector-curvature="0" style="stroke:none" />
      </clipPath>
      <clipPath clipPathUnits="userSpaceOnUse" id="804332820615-clipPath1">
        <path d="m -163.7532,-285.916 800,0 0,600 -800,0 0,-600 z" id="path36" ns1:connector-curvature="0" style="stroke:none" />
      </clipPath>
      <clipPath clipPathUnits="userSpaceOnUse" id="80433282059-clipPath1">
        <path d="m -102.761,-506.9419 800,0 0,600 -800,0 0,-600 z" id="path39" ns1:connector-curvature="0" style="stroke:none" />
      </clipPath>
      <clipPath clipPathUnits="userSpaceOnUse" id="8043328203-clipPath1">
        <path d="m -580.1913,-331.1462 800,0 0,600 -800,0 0,-600 z" id="path42" ns1:connector-curvature="0" style="stroke:none" />
      </clipPath>
      <clipPath clipPathUnits="userSpaceOnUse" id="804332820192-clipPath1">
        <path d="m -639.8788,-353.0432 800,0 0,600 -800,0 0,-600 z" id="path45" ns1:connector-curvature="0" style="stroke:none" />
      </clipPath>
      <clipPath clipPathUnits="userSpaceOnUse" id="804332820953-clipPath1">
        <path d="m -418.3728,-40.2456 800,0 0,600 -800,0 0,-600 z" id="path48" ns1:connector-curvature="0" style="stroke:none" />
      </clipPath>
      <clipPath clipPathUnits="userSpaceOnUse" id="804332820376-clipPath1">
        <path d="m -631.1296,-85.4759 800,0 0,600 -800,0 0,-600 z" id="path51" ns1:connector-curvature="0" style="stroke:none" />
      </clipPath>
    </defs>
    <g id="g53" style="text-rendering:geometricPrecision;fill:#f0abfc;stroke:none">
      <path d="m 218.9756,434.0648 125.5802,0 c 1.5015,0 2.7182,-1.2167 2.7182,-2.7182 0,-1.5014 -1.2167,-2.7181 -2.7182,-2.7181 l -125.5802,0 c -1.5015,0 -2.7182,1.2167 -2.7182,2.7181 0,1.5015 1.2167,2.7182 2.7182,2.7182 z" clip-path="url(#804332820403-clipPath1)" id="path55" ns1:connector-curvature="0" style="stroke:none" />
    </g>
    <g id="g57" style="text-rendering:geometricPrecision;fill:#f0abfc;stroke:none">
      <path d="m 326.3526,405.2701 c -0.4639,1.428 0.3173,2.9611 1.7453,3.425 1.428,0.464 2.9611,-0.3173 3.425,-1.7453 l 26.9513,-82.958 c 0.464,-1.428 -0.3172,-2.9611 -1.7453,-3.425 -1.428,-0.464 -2.961,0.3173 -3.425,1.7453 z m 15.6181,25.2367 c -0.4639,1.428 0.3173,2.9611 1.7453,3.425 1.428,0.464 2.9611,-0.3173 3.425,-1.7453 l 38.8005,-119.4306 c 0.464,-1.428 -0.3173,-2.9611 -1.7453,-3.4251 -1.428,-0.4639 -2.9611,0.3173 -3.425,1.7453 z" clip-path="url(#804332820403-clipPath1)" id="path59" ns1:connector-curvature="0" style="stroke:none" />
    </g>
    <g id="g61" style="text-rendering:geometricPrecision;fill:#f0abfc;stroke:none">
      <path d="m 384.1962,314.5012 119.4353,-38.8025 c 1.428,-0.464 2.2092,-1.997 1.7452,-3.425 -0.4639,-1.4281 -1.9969,-2.2093 -3.425,-1.7453 l -119.4352,38.8024 c -1.428,0.464 -2.2092,1.9971 -1.7453,3.4251 0.4639,1.428 1.997,2.2092 3.425,1.7453 z" clip-path="url(#804332820403-clipPath1)" id="path63" ns1:connector-curvature="0" style="stroke:none" />
    </g>
    <g id="g65" style="text-rendering:geometricPrecision;fill:#f0abfc;stroke:none">
      <path d="m 213.8163,333.3586 c -0.4639,-1.428 -1.997,-2.2092 -3.425,-1.7453 -1.428,0.464 -2.2092,1.997 -1.7453,3.4251 l 23.3625,71.9114 c 0.4639,1.428 1.997,2.2092 3.425,1.7453 1.428,-0.4639 2.2092,-1.997 1.7453,-3.425 z m -21.5432,6.9989 c -0.4639,-1.428 -1.9969,-2.2092 -3.425,-1.7453 -1.428,0.464 -2.2092,1.9971 -1.7453,3.4251 l 29.2876,90.1492 c 0.464,1.428 1.997,2.2093 3.425,1.7453 1.4281,-0.4639 2.2093,-1.997 1.7453,-3.425 z" clip-path="url(#804332820403-clipPath1)" id="path67" ns1:connector-curvature="0" style="stroke:none" />
      <path d="m 213.8163,333.3586 c -0.4639,-1.428 -1.997,-2.2092 -3.425,-1.7453 -1.428,0.464 -2.2092,1.997 -1.7453,3.4251 l 23.3625,71.9114 c 0.4639,1.428 1.997,2.2092 3.425,1.7453 1.428,-0.4639 2.2092,-1.997 1.7453,-3.425 z m -21.5432,6.9989 c -0.4639,-1.428 -1.9969,-2.2092 -3.425,-1.7453 -1.428,0.464 -2.2092,1.9971 -1.7453,3.4251 l 29.2876,90.1492 c 0.464,1.428 1.997,2.2093 3.425,1.7453 1.4281,-0.4639 2.2093,-1.997 1.7453,-3.425 z" clip-path="url(#804332820457-clipPath1)" id="path69" ns1:connector-curvature="0" style="fill:#c4b5fd;stroke:none" />
    </g>
    <g id="g71" style="text-rendering:geometricPrecision;fill:#f0abfc;stroke:none">
      <path d="m 304.7092,258.1231 77.0493,55.9918 c 1.2146,0.8827 2.914,0.6137 3.7967,-0.601 0.8827,-1.2146 0.6137,-2.9141 -0.6009,-3.7968 L 307.905,253.7254 c -1.2146,-0.8827 -2.9141,-0.6137 -3.7968,0.6009 -0.8826,1.2147 -0.6137,2.9141 0.601,3.7968 z" clip-path="url(#804332820403-clipPath1)" id="path73" ns1:connector-curvature="0" style="stroke:none" />
      <path d="m 304.7092,258.1231 77.0493,55.9918 c 1.2146,0.8827 2.914,0.6137 3.7967,-0.601 0.8827,-1.2146 0.6137,-2.9141 -0.6009,-3.7968 L 307.905,253.7254 c -1.2146,-0.8827 -2.9141,-0.6137 -3.7968,0.6009 -0.8826,1.2147 -0.6137,2.9141 0.601,3.7968 z" clip-path="url(#804332820270-clipPath1)" id="path75" ns1:connector-curvature="0" style="fill:#fda4af;stroke:none" />
    </g>
    <g id="g77" style="fill:#c4b5fd;stroke:none;text-rendering:geometricPrecision">
      <path d="m 255.6264,253.7254 -54.9427,39.9269 c -1.2146,0.8826 -1.4836,2.5821 -0.6009,3.7967 0.8827,1.2147 2.5821,1.4837 3.7968,0.601 l 54.9427,-39.9269 c 1.2146,-0.8827 1.4836,-2.5821 0.6009,-3.7968 -0.8827,-1.2146 -2.5821,-1.4836 -3.7968,-0.6009 z" clip-path="url(#804332820403-clipPath1)" id="path79" ns1:connector-curvature="0" style="stroke:none" />
      <path d="m 255.6264,253.7254 -54.9427,39.9269 c -1.2146,0.8826 -1.4836,2.5821 -0.6009,3.7967 0.8827,1.2147 2.5821,1.4837 3.7968,0.601 l 54.9427,-39.9269 c 1.2146,-0.8827 1.4836,-2.5821 0.6009,-3.7968 -0.8827,-1.2146 -2.5821,-1.4836 -3.7968,-0.6009 z" clip-path="url(#80433282047-clipPath1)" id="path81" ns1:connector-curvature="0" style="fill:#fda4af;stroke:none" />
    </g>
    <g id="g83" style="fill:#fda4af;stroke:none;text-rendering:geometricPrecision">
      <path d="m 216.7766,429.7489 -52.8224,72.7009 c -0.8826,1.2148 -0.6134,2.9142 0.6013,3.7968 1.2147,0.8826 2.9142,0.6134 3.7967,-0.6013 l 52.8224,-72.7009 c 0.8826,-1.2147 0.6134,-2.9142 -0.6013,-3.7968 -1.2147,-0.8825 -2.9142,-0.6134 -3.7967,0.6013 z" clip-path="url(#804332820403-clipPath1)" id="path85" ns1:connector-curvature="0" style="stroke:none" />
      <path d="m 216.7766,429.7489 -52.8224,72.7009 c -0.8826,1.2148 -0.6134,2.9142 0.6013,3.7968 1.2147,0.8826 2.9142,0.6134 3.7967,-0.6013 l 52.8224,-72.7009 c 0.8826,-1.2147 0.6134,-2.9142 -0.6013,-3.7968 -1.2147,-0.8825 -2.9142,-0.6134 -3.7967,0.6013 z" clip-path="url(#804332820349-clipPath1)" id="path87" ns1:connector-curvature="0" style="fill:#f0abfc;stroke:none" />
    </g>
    <g id="g89" style="fill:#c4b5fd;stroke:none;text-rendering:geometricPrecision">
      <path d="m 502.7916,273.1135 -1.8189,2.02 62.533,75.5121 11.368,-12.6247 11.3681,-12.6247 -81.6313,-54.3026 z" clip-path="url(#804332820403-clipPath1)" id="path91" ns1:connector-curvature="0" style="stroke:none" />
      <path d="m 502.7916,273.1135 -1.8189,2.02 62.533,75.5121 11.368,-12.6247 11.3681,-12.6247 -81.6313,-54.3026 z" clip-path="url(#804332820519-clipPath1)" id="path93" ns1:connector-curvature="0" style="fill:#f0abfc;stroke:none" />
    </g>
    <g id="g95" style="text-rendering:geometricPrecision;fill:#f0abfc;stroke:none">
      <path d="M 505.4503,273.6787 531.564,150.8436 c 0.3123,-1.4687 -0.6248,-2.9118 -2.0935,-3.224 -1.4687,-0.3122 -2.9117,0.6248 -3.2239,2.0935 l -26.1138,122.8352 c -0.3122,1.4687 0.6249,2.9118 2.0936,3.224 1.4686,0.3122 2.9117,-0.6249 3.2239,-2.0936 z" clip-path="url(#804332820403-clipPath1)" id="path97" ns1:connector-curvature="0" style="stroke:none" />
    </g>
    <g id="g99" style="fill:#fda4af;stroke:none;text-rendering:geometricPrecision">
      <path d="m 524.3669,165.0903 c 1.1158,1.0047 2.8341,0.9147 3.8388,-0.2011 1.0048,-1.1158 0.9148,-2.834 -0.201,-3.8388 l -75.1812,-67.698 c -1.1158,-1.0047 -2.8341,-0.9147 -3.8388,0.2011 -1.0048,1.1158 -0.9148,2.834 0.201,3.8388 z m 15.1575,-16.8329 c 1.1157,1.0047 2.834,0.9147 3.8388,-0.201 1.0047,-1.1158 0.9147,-2.8341 -0.2011,-3.8389 l -75.1812,-67.698 c -1.1158,-1.0047 -2.8341,-0.9147 -3.8388,0.2011 -1.0048,1.1158 -0.9148,2.834 0.201,3.8388 z" clip-path="url(#804332820403-clipPath1)" id="path101" ns1:connector-curvature="0" style="stroke:none" />
      <path d="m 524.3669,165.0903 c 1.1158,1.0047 2.8341,0.9147 3.8388,-0.2011 1.0048,-1.1158 0.9148,-2.834 -0.201,-3.8388 l -75.1812,-67.698 c -1.1158,-1.0047 -2.8341,-0.9147 -3.8388,0.2011 -1.0048,1.1158 -0.9148,2.834 0.201,3.8388 z m 15.1575,-16.8329 c 1.1157,1.0047 2.834,0.9147 3.8388,-0.201 1.0047,-1.1158 0.9147,-2.8341 -0.2011,-3.8389 l -75.1812,-67.698 c -1.1158,-1.0047 -2.8341,-0.9147 -3.8388,0.2011 -1.0048,1.1158 -0.9148,2.834 0.201,3.8388 z" clip-path="url(#804332820578-clipPath1)" id="path103" ns1:connector-curvature="0" style="fill:#f0abfc;stroke:none" />
    </g>
    <g id="g105" style="fill:#fda4af;stroke:none;text-rendering:geometricPrecision">
      <path d="m 529.7452,152.8635 93.0438,-30.2283 c 1.428,-0.464 2.2092,-1.997 1.7453,-3.4251 -0.464,-1.428 -1.997,-2.2092 -3.425,-1.7453 l -93.0439,30.2284 c -1.428,0.4639 -2.2092,1.997 -1.7453,3.425 0.464,1.428 1.997,2.2092 3.4251,1.7453 z" clip-path="url(#804332820403-clipPath1)" id="path107" ns1:connector-curvature="0" style="stroke:none" />
      <path d="m 529.7452,152.8635 93.0438,-30.2283 c 1.428,-0.464 2.2092,-1.997 1.7453,-3.4251 -0.464,-1.428 -1.997,-2.2092 -3.425,-1.7453 l -93.0439,30.2284 c -1.428,0.4639 -2.2092,1.997 -1.7453,3.425 0.464,1.428 1.997,2.2092 3.4251,1.7453 z" clip-path="url(#804332820442-clipPath1)" id="path109" ns1:connector-curvature="0" style="fill:#f0abfc;stroke:none" />
    </g>
    <g id="g111" style="fill:#eef2ff;stroke:none;text-rendering:geometricPrecision">
      </g>
    <g font-size="44px" transform="translate(264.5548,212.09)" id="g115" style="font-size:44px;font-family:sans-serif;fill:#fda4af;stroke:none;text-rendering:geometricPrecision">
      <text x="0" xml:space="preserve" y="42" clip-path="url(#804332820177-clipPath1)" id="text117" style="stroke:none">O</text>
    </g>
    <g font-size="44px" id="g119" style="font-size:44px;font-family:sans-serif;fill:#eef2ff;stroke:none;text-rendering:geometricPrecision">
      <text x="0" y="42" transform="translate(163.7532,285.916)" clip-path="url(#804332820615-clipPath1)" xml:space="preserve" id="text123" style="fill:#c4b5fd;stroke:none">N</text>
    </g>
    <g font-size="44px" id="g125" style="font-size:44px;font-family:sans-serif;fill:#eef2ff;stroke:none;text-rendering:geometricPrecision">
      <text x="0" y="42" transform="translate(102.761,506.9419)" clip-path="url(#80433282059-clipPath1)" xml:space="preserve" id="text129" style="fill:#fda4af;stroke:none">HO</text>
    </g>
    <g font-size="44px" id="g131" style="font-size:44px;font-family:sans-serif;fill:#eef2ff;stroke:none;text-rendering:geometricPrecision">
      <text x="0" y="42" transform="translate(580.1913,331.1462)" clip-path="url(#8043328203-clipPath1)" xml:space="preserve" id="text135" style="fill:#c4b5fd;stroke:none">NH</text>
    </g>
    <g font-size="36px" transform="translate(639.8788,353.0432)" id="g137" style="font-size:36px;font-family:sans-serif;fill:#c4b5fd;stroke:none;text-rendering:geometricPrecision">
      <text x="0" xml:space="preserve" y="35" clip-path="url(#804332820192-clipPath1)" id="text139" style="stroke:none">2</text>
    </g>
    <g font-size="36px" id="g141" style="font-size:36px;font-family:sans-serif;fill:#eef2ff;stroke:none;text-rendering:geometricPrecision">
      <text x="0" font-size="44px" y="42" transform="translate(418.3728,40.2456)" clip-path="url(#804332820953-clipPath1)" xml:space="preserve" id="text145" style="font-size:44px;fill:#fda4af;stroke:none">O</text>
    </g>
    <g font-size="44px" id="g147" style="font-size:44px;font-family:sans-serif;fill:#eef2ff;stroke:none;text-rendering:geometricPrecision">
      <text x="0" y="42" transform="translate(631.1296,85.4759)" clip-path="url(#804332820376-clipPath1)" xml:space="preserve" id="text151" style="fill:#fda4af;stroke:none">OH</text>
    </g>
  </g>
</svg>