<?xml version='1.0' encoding='utf-8'?>
<svg xmlns="http://www.w3.org/2000/svg" xmlns:dc="http://purl.org/dc/elements/1.1/" xmlns:ns1="http://www.inkscape.org/namespaces/inkscape" xmlns:ns2="http://sodipodi.sourceforge.net/DTD/sodipodi-0.dtd" xmlns:ns4="http://creativecommons.org/ns#" xmlns:rdf="http://www.w3.org/1999/02/22-rdf-syntax-ns#" width="462.42834" stroke-miterlimit="10" font-weight="normal" height="558.19849" font-style="normal" font-size="12px" id="svg2" version="1.1" ns1:version="0.91 r13725" ns2:docname="LSA.svg" style="font-style:normal;font-weight:normal;font-size:12px;font-family:Dialog;color-interpolation:auto;fill:#f0abfc;fill-opacity:1;stroke:none;stroke:none;stroke:none;stroke:none;stroke:none;stroke:none;stroke:none;stroke:none;color-rendering:auto;image-rendering:auto;shape-rendering:auto;text-rendering:auto">
  <metadata id="metadata228">
    <rdf:RDF>
      <ns4:Work rdf:about="">
        <dc:format>image/svg+xml</dc:format>
        <dc:type rdf:resource="http://purl.org/dc/dcmitype/StillImage" />
        <dc:title />
      </ns4:Work>
    </rdf:RDF>
  </metadata>
  <ns2:namedview pagecolor="#eef2ff" bordercolor="#666666" borderopacity="1" objecttolerance="10" gridtolerance="10" guidetolerance="10" ns1:pageopacity="0" ns1:pageshadow="2" ns1:window-width="1060" ns1:window-height="480" id="namedview226" showgrid="false" fit-margin-top="10" fit-margin-left="10" fit-margin-right="10" fit-margin-bottom="10" ns1:zoom="0.36375" ns1:cx="231.21419" ns1:cy="279.0992" ns1:window-x="0" ns1:window-y="0" ns1:window-maximized="0" ns1:current-layer="svg2" />
  
  <defs id="genericDefs" />
  <g id="g5" transform="translate(-168.78581,-20.9007)" style="fill:#f0abfc;stroke:none">
    <defs id="575216279486-defs1">
      <clipPath clipPathUnits="userSpaceOnUse" id="575216279494-clipPath1">
        <path d="M 0,0 800,0 800,600 0,600 0,0 Z" id="path9" ns1:connector-curvature="0" style="stroke:none" />
      </clipPath>
      <clipPath clipPathUnits="userSpaceOnUse" id="575216279837-clipPath1">
        <path d="m 254.8329,442.1669 c -17.3744,0 -31.4592,14.0847 -31.4592,31.4591 0,17.3745 14.0848,31.4592 31.4592,31.4592 17.3744,0 31.4592,-14.0847 31.4592,-31.4592 0,-17.3744 -14.0848,-31.4591 -31.4592,-31.4591 z" id="path12" ns1:connector-curvature="0" style="stroke:none" />
      </clipPath>
      <clipPath clipPathUnits="userSpaceOnUse" id="575216279677-clipPath1">
        <path d="m 303.2676,518.3643 c -20.2882,0 -36.7351,16.4469 -36.7351,36.7352 0,20.2883 16.4469,36.7352 36.7351,36.7352 20.2883,0 36.7352,-16.4469 36.7352,-36.7352 0,-20.2883 -16.4469,-36.7352 -36.7352,-36.7352 z" id="path15" ns1:connector-curvature="0" style="stroke:none" />
      </clipPath>
      <clipPath clipPathUnits="userSpaceOnUse" id="575216279186-clipPath1">
        <path d="m 477.4099,140.387 c -18.4607,0 -33.426,14.9653 -33.426,33.4259 0,18.4607 14.9653,33.426 33.426,33.426 18.4606,0 33.4259,-14.9653 33.4259,-33.426 0,-18.4606 -14.9653,-33.4259 -33.4259,-33.4259 z" id="path18" ns1:connector-curvature="0" style="stroke:none" />
      </clipPath>
      <clipPath clipPathUnits="userSpaceOnUse" id="57521627950-clipPath1">
        <path d="m 477.4173,54.4914 c -18.5897,0 -33.6597,15.0699 -33.6597,33.6596 0,18.5898 15.07,33.6597 33.6597,33.6597 18.5897,0 33.6597,-15.0699 33.6597,-33.6597 0,-18.5897 -15.07,-33.6596 -33.6597,-33.6596 z" id="path21" ns1:connector-curvature="0" style="stroke:none" />
      </clipPath>
      <clipPath clipPathUnits="userSpaceOnUse" id="575216279541-clipPath1">
        <path d="m 551.5929,248.773 c -17.7391,0 -32.1195,14.3804 -32.1195,32.1195 0,17.739 14.3804,32.1194 32.1195,32.1194 17.7391,0 32.1194,-14.3804 32.1194,-32.1194 0,-17.7391 -14.3803,-32.1195 -32.1194,-32.1195 z" id="path24" ns1:connector-curvature="0" style="stroke:none" />
      </clipPath>
      <clipPath clipPathUnits="userSpaceOnUse" id="575216279519-clipPath1">
        <path d="m 477.4029,311.4851 c -18.5921,0 -33.664,15.0719 -33.664,33.664 0,18.5921 15.0719,33.664 33.664,33.664 18.5921,0 33.664,-15.0719 33.664,-33.664 0,-18.5921 -15.0719,-33.664 -33.664,-33.664 z" id="path27" ns1:connector-curvature="0" style="stroke:none" />
      </clipPath>
      <clipPath clipPathUnits="userSpaceOnUse" id="575216279489-clipPath1">
        <path d="m 477.4029,313.0284 c -17.7398,0 -32.1207,14.3809 -32.1207,32.1207 0,17.7398 14.3809,32.1207 32.1207,32.1207 17.7398,0 32.1207,-14.3809 32.1207,-32.1207 0,-17.7398 -14.3809,-32.1207 -32.1207,-32.1207 z" id="path30" ns1:connector-curvature="0" style="stroke:none" />
      </clipPath>
      <clipPath clipPathUnits="userSpaceOnUse" id="575216279769-clipPath1">
        <path d="m 477.4173,55.7693 c -17.884,0 -32.3818,14.4978 -32.3818,32.3817 0,17.884 14.4978,32.3818 32.3818,32.3818 17.8839,0 32.3817,-14.4978 32.3817,-32.3818 0,-17.8839 -14.4978,-32.3817 -32.3817,-32.3817 z" id="path33" ns1:connector-curvature="0" style="stroke:none" />
      </clipPath>
      <clipPath clipPathUnits="userSpaceOnUse" id="575216279126-clipPath1">
        <path d="m 567.4802,281.5314 c -16.5418,0 -29.9516,13.4099 -29.9516,29.9517 0,16.5418 13.4098,29.9516 29.9516,29.9516 16.5418,0 29.9517,-13.4098 29.9517,-29.9516 0,-16.5418 -13.4099,-29.9517 -29.9517,-29.9517 z" id="path36" ns1:connector-curvature="0" style="stroke:none" />
      </clipPath>
      <clipPath clipPathUnits="userSpaceOnUse" id="575216279128-clipPath1">
        <path d="m -540.5325,-284.3129 800,0 0,600 -800,0 0,-600 z" id="path39" ns1:connector-curvature="0" style="stroke:none" />
      </clipPath>
      <clipPath clipPathUnits="userSpaceOnUse" id="575216279886-clipPath1">
        <path d="m -253.7258,-537.0953 800,0 0,600 -800,0 0,-600 z" id="path42" ns1:connector-curvature="0" style="stroke:none" />
      </clipPath>
      <clipPath clipPathUnits="userSpaceOnUse" id="575216279287-clipPath1">
        <path d="m -466.3951,-241.4872 800,0 0,600 -800,0 0,-600 z" id="path45" ns1:connector-curvature="0" style="stroke:none" />
      </clipPath>
      <clipPath clipPathUnits="userSpaceOnUse" id="575216279330-clipPath1">
        <path d="m -392.2167,-112.982 800,0 0,600 -800,0 0,-600 z" id="path48" ns1:connector-curvature="0" style="stroke:none" />
      </clipPath>
      <clipPath clipPathUnits="userSpaceOnUse" id="575216279468-clipPath1">
        <path d="m -361.72,-27.3137 800,0 0,600 -800,0 0,-600 z" id="path51" ns1:connector-curvature="0" style="stroke:none" />
      </clipPath>
      <clipPath clipPathUnits="userSpaceOnUse" id="57521627929-clipPath1">
        <path d="m -380.2356,-43.0448 800,0 0,599.9999 -800,0 0,-599.9999 z" id="path54" ns1:connector-curvature="0" style="stroke:none" />
      </clipPath>
      <clipPath clipPathUnits="userSpaceOnUse" id="575216279539-clipPath1">
        <path d="m -392.1731,-27.3137 800,0 0,600 -800,0 0,-600 z" id="path57" ns1:connector-curvature="0" style="stroke:none" />
      </clipPath>
      <clipPath clipPathUnits="userSpaceOnUse" id="575216279316-clipPath1">
        <path d="m -540.1298,-27.3265 800,0 0,600 -800,0 0,-600 z" id="path60" ns1:connector-curvature="0" style="stroke:none" />
      </clipPath>
    </defs>
    <g id="g62" style="text-rendering:geometricPrecision;fill:#f0abfc;stroke:none">
      <path d="m 178.7862,430.7951 c 0,1.0242 0.8299,1.8541 1.8542,1.8541 1.0242,0 1.8541,-0.8299 1.8541,-1.8541 l 0,-85.6723 c 0,-1.0242 -0.8299,-1.8541 -1.8541,-1.8541 -1.0243,0 -1.8542,0.8299 -1.8542,1.8541 z m 15.4513,-10.7754 c 0,1.0242 0.8299,1.8542 1.8541,1.8542 1.0242,0 1.8542,-0.83 1.8542,-1.8542 l 0,-64.1208 c 0,-1.0243 -0.83,-1.8542 -1.8542,-1.8542 -1.0242,0 -1.8541,0.8299 -1.8541,1.8542 z" clip-path="url(#575216279494-clipPath1)" id="path64" ns1:connector-curvature="0" style="stroke:none" />
    </g>
    <g id="g66" style="text-rendering:geometricPrecision;fill:#f0abfc;stroke:none">
      <path d="m 255.5122,453.2524 c -0.8871,0.512 -1.1909,1.6457 -0.6789,2.5327 0.512,0.887 1.6457,1.1909 2.5327,0.6789 l 55.5208,-32.0486 c 0.8871,-0.512 1.191,-1.6457 0.6789,-2.5327 -0.512,-0.8871 -1.6457,-1.191 -2.5327,-0.6789 z m -1.6062,18.7678 c -0.8871,0.5121 -1.1909,1.6457 -0.6789,2.5328 0.512,0.887 1.6457,1.1909 2.5327,0.6788 l 74.1836,-42.8213 c 0.887,-0.5121 1.1909,-1.6457 0.6789,-2.5328 -0.5121,-0.887 -1.6457,-1.1909 -2.5328,-0.6788 z" clip-path="url(#575216279494-clipPath1)" id="path68" ns1:connector-curvature="0" style="stroke:none" />
    </g>
    <g id="g70" style="text-rendering:geometricPrecision;fill:#f0abfc;stroke:none">
      <path d="m 311.037,354.7387 c 0.887,0.5122 2.0207,0.2084 2.5328,-0.6785 0.5122,-0.887 0.2085,-2.0207 -0.6785,-2.5329 l -55.5307,-32.0638 c -0.887,-0.5121 -2.0207,-0.2084 -2.5329,0.6786 -0.5121,0.8869 -0.2084,2.0206 0.6786,2.5328 z m 17.0575,-7.9929 c 0.887,0.5122 2.0207,0.2085 2.5328,-0.6785 0.5122,-0.887 0.2085,-2.0207 -0.6785,-2.5328 l -74.1926,-42.8394 c -0.8869,-0.5121 -2.0207,-0.2084 -2.5328,0.6786 -0.5121,0.887 -0.2084,2.0206 0.6786,2.5328 z" clip-path="url(#575216279494-clipPath1)" id="path72" ns1:connector-curvature="0" style="stroke:none" />
    </g>
    <g id="g74" style="text-rendering:geometricPrecision;fill:#f0abfc;stroke:none">
      <path d="m 179.7134,432.4008 74.1925,42.831 c 0.887,0.5121 2.0207,0.2083 2.5328,-0.6788 0.512,-0.887 0.2082,-2.0207 -0.6788,-2.5327 l -74.1925,-42.831 c -0.887,-0.5121 -2.0207,-0.2082 -2.5328,0.6788 -0.5121,0.887 -0.2082,2.0207 0.6788,2.5327 z" clip-path="url(#575216279494-clipPath1)" id="path76" ns1:connector-curvature="0" style="stroke:none" />
    </g>
    <g id="g78" style="text-rendering:geometricPrecision;fill:#f0abfc;stroke:none">
      <path d="m 253.9022,300.695 -74.1887,42.822 c -0.8871,0.512 -1.191,1.6456 -0.679,2.5327 0.5121,0.887 1.6457,1.1909 2.5328,0.6789 l 74.1887,-42.822 c 0.887,-0.512 1.1909,-1.6456 0.6789,-2.5327 -0.512,-0.887 -1.6456,-1.1909 -2.5327,-0.6789 z" clip-path="url(#575216279494-clipPath1)" id="path80" ns1:connector-curvature="0" style="stroke:none" />
    </g>
    <g id="g82" style="text-rendering:geometricPrecision;fill:#f0abfc;stroke:none">
      <path d="m 330.8706,430.8048 0.005,-85.6645 c 0,-1.0243 -0.8298,-1.8542 -1.854,-1.8543 -1.0243,-10e-5 -1.8542,0.8298 -1.8543,1.854 l -0.005,85.6645 c -1e-4,1.0243 0.8298,1.8542 1.854,1.8543 1.0242,0 1.8542,-0.8298 1.8543,-1.854 z" clip-path="url(#575216279494-clipPath1)" id="path84" ns1:connector-curvature="0" style="stroke:none" />
    </g>
    <g id="g86" style="text-rendering:geometricPrecision;fill:#f0abfc;stroke:none">
      <path d="m 404.1362,475.2496 74.1797,-42.8355 c 0.887,-0.5122 1.1907,-1.6459 0.6785,-2.5329 -0.5122,-0.8869 -1.6459,-1.1906 -2.5329,-0.6784 l -74.1797,42.8355 c -0.887,0.5122 -1.1906,1.6459 -0.6785,2.5329 0.5122,0.8869 1.6459,1.1906 2.5329,0.6784 z" clip-path="url(#575216279494-clipPath1)" id="path88" ns1:connector-curvature="0" style="stroke:none" />
    </g>
    <g id="g90" style="text-rendering:geometricPrecision;fill:#f0abfc;stroke:none">
      <path d="m 479.2429,430.8087 0.0141,-85.6593 c 2e-4,-1.0242 -0.8296,-1.8543 -1.8538,-1.8544 -1.0242,-2e-4 -1.8543,0.8296 -1.8544,1.8538 l -0.0142,85.6593 c -2e-4,1.0242 0.8296,1.8543 1.8538,1.8545 1.0242,10e-5 1.8543,-0.8297 1.8545,-1.8539 z" clip-path="url(#575216279494-clipPath1)" id="path92" ns1:connector-curvature="0" style="stroke:none" />
    </g>
    <g id="g94" style="text-rendering:geometricPrecision;fill:#f0abfc;stroke:none">
      <path d="m 478.33,343.5434 -74.1925,-42.8393 c -0.887,-0.5122 -2.0207,-0.2084 -2.5328,0.6785 -0.5122,0.887 -0.2085,2.0207 0.6785,2.5329 l 74.1926,42.8393 c 0.8869,0.5121 2.0206,0.2084 2.5328,-0.6786 0.5121,-0.8869 0.2084,-2.0206 -0.6786,-2.5328 z" clip-path="url(#575216279494-clipPath1)" id="path96" ns1:connector-curvature="0" style="stroke:none" />
    </g>
    <g id="g98" style="text-rendering:geometricPrecision;fill:#f0abfc;stroke:none">
      <path d="m 328.0893,432.4103 74.1925,42.8394 c 0.887,0.5121 2.0207,0.2084 2.5329,-0.6786 0.5121,-0.887 0.2084,-2.0207 -0.6786,-2.5328 L 329.9436,429.199 c -0.887,-0.5122 -2.0207,-0.2085 -2.5328,0.6785 -0.5122,0.887 -0.2085,2.0207 0.6785,2.5328 z" clip-path="url(#575216279494-clipPath1)" id="path100" ns1:connector-curvature="0" style="stroke:none" />
    </g>
    <g id="g102" style="text-rendering:geometricPrecision;fill:#f0abfc;stroke:none">
      <path d="m 329.9487,346.7459 74.1887,-42.8304 c 0.887,-0.5121 1.1908,-1.6458 0.6787,-2.5327 -0.5121,-0.8871 -1.6458,-1.1909 -2.5328,-0.6788 l -74.1887,42.8304 c -0.887,0.5121 -1.1908,1.6458 -0.6787,2.5328 0.5121,0.887 1.6457,1.1908 2.5328,0.6787 z" clip-path="url(#575216279494-clipPath1)" id="path104" ns1:connector-curvature="0" style="stroke:none" />
    </g>
    <g id="g106" style="text-rendering:geometricPrecision;fill:#f0abfc;stroke:none">
      <path d="m 552.514,215.048 -74.1768,-42.8406 c -0.8869,-0.5123 -2.0207,-0.2087 -2.5329,0.6782 -0.5123,0.887 -0.2087,2.0207 0.6782,2.5329 l 74.1769,42.8407 c 0.8869,0.5122 2.0207,0.2086 2.5329,-0.6783 0.5122,-0.8869 0.2086,-2.0207 -0.6783,-2.5329 z" clip-path="url(#575216279494-clipPath1)" id="path108" ns1:connector-curvature="0" style="stroke:none" />
    </g>
    <g id="g110" style="text-rendering:geometricPrecision;fill:#f0abfc;stroke:none">
      <path d="m 476.4828,172.2072 -74.1954,42.8343 c -0.887,0.512 -1.1908,1.6457 -0.6788,2.5327 0.5121,0.887 1.6458,1.1908 2.5328,0.6788 l 74.1955,-42.8343 c 0.887,-0.5121 1.1908,-1.6458 0.6787,-2.5328 -0.5121,-0.887 -1.6458,-1.1908 -2.5328,-0.6787 z" clip-path="url(#575216279494-clipPath1)" id="path112" ns1:connector-curvature="0" style="stroke:none" />
    </g>
    <g id="g114" style="text-rendering:geometricPrecision;fill:#f0abfc;stroke:none">
      <path d="m 401.3562,302.3097 c 0,1.0242 0.8299,1.8541 1.8541,1.8542 1.0242,10e-5 1.8542,-0.8298 1.8542,-1.854 l 0.004,-85.6626 c 1e-4,-1.0242 -0.8298,-1.8542 -1.854,-1.8542 -1.0242,-1e-4 -1.8542,0.8298 -1.8542,1.854 z m 15.4518,-10.7743 c 0,1.0243 0.8298,1.8542 1.854,1.8543 1.0243,0 1.8542,-0.8299 1.8543,-1.8541 l 0.003,-64.1129 c 0,-1.0242 -0.8298,-1.8541 -1.854,-1.8542 -1.0243,0 -1.8542,0.8298 -1.8543,1.854 z" clip-path="url(#575216279494-clipPath1)" id="path116" ns1:connector-curvature="0" style="stroke:none" />
    </g>
    <g id="g118" style="text-rendering:geometricPrecision;fill:#f0abfc;stroke:none">
      <path d="m 404.9724,474.2169 c 0.3164,-0.974 -0.2164,-2.0198 -1.1905,-2.3363 -0.974,-0.3165 -2.0198,0.2164 -2.3363,1.1904 l -26.471,81.4693 c -0.3165,0.9741 0.2163,2.0199 1.1904,2.3364 0.9741,0.3165 2.0199,-0.2164 2.3364,-1.1904 z m -19.1343,8.888 c 0.3165,-0.9741 -0.2164,-2.0198 -1.1905,-2.3363 -0.974,-0.3165 -2.0198,0.2163 -2.3363,1.1904 l -17.9891,55.3645 c -0.3165,0.9742 0.2164,2.0199 1.1905,2.3364 0.9741,0.3165 2.0198,-0.2163 2.3363,-1.1904 z" clip-path="url(#575216279494-clipPath1)" id="path120" ns1:connector-curvature="0" style="stroke:none" />
    </g>
    <g id="g122" style="fill:#c4b5fd;stroke:none;text-rendering:geometricPrecision">
      <path d="m 253.0695,474.199 19.4429,59.8389 c 0.3165,0.9741 1.3622,1.5069 2.3363,1.1904 0.9741,-0.3165 1.5069,-1.3622 1.1904,-2.3363 l -19.4428,-59.8389 c -0.3165,-0.9741 -1.3623,-1.507 -2.3364,-1.1905 -0.974,0.3165 -1.5069,1.3623 -1.1904,2.3364 z" clip-path="url(#575216279494-clipPath1)" id="path124" ns1:connector-curvature="0" style="stroke:none" />
      <path d="m 253.0695,474.199 19.4429,59.8389 c 0.3165,0.9741 1.3622,1.5069 2.3363,1.1904 0.9741,-0.3165 1.5069,-1.3622 1.1904,-2.3363 l -19.4428,-59.8389 c -0.3165,-0.9741 -1.3623,-1.507 -2.3364,-1.1905 -0.974,0.3165 -1.5069,1.3623 -1.1904,2.3364 z" clip-path="url(#575216279837-clipPath1)" id="path126" ns1:connector-curvature="0" style="fill:#f0abfc;stroke:none" />
    </g>
    <g id="g128" style="text-rendering:geometricPrecision;fill:#f0abfc;stroke:none">
      <path d="m 303.2673,556.9536 73.4703,0.0138 c 1.0243,3e-4 1.8543,-0.8295 1.8545,-1.8538 2e-4,-1.0242 -0.8296,-1.8543 -1.8538,-1.8544 l -73.4703,-0.0138 c -1.0242,-2e-4 -1.8543,0.8295 -1.8545,1.8537 -2e-4,1.0243 0.8296,1.8543 1.8538,1.8545 z" clip-path="url(#575216279494-clipPath1)" id="path130" ns1:connector-curvature="0" style="stroke:none" />
      <path d="m 303.2673,556.9536 73.4703,0.0138 c 1.0243,3e-4 1.8543,-0.8295 1.8545,-1.8538 2e-4,-1.0242 -0.8296,-1.8543 -1.8538,-1.8544 l -73.4703,-0.0138 c -1.0242,-2e-4 -1.8543,0.8295 -1.8545,1.8537 -2e-4,1.0243 0.8296,1.8543 1.8538,1.8545 z" clip-path="url(#575216279677-clipPath1)" id="path132" ns1:connector-curvature="0" style="fill:#c4b5fd;stroke:none" />
    </g>
    <g id="g134" style="text-rendering:geometricPrecision;fill:#f0abfc;stroke:none">
      <path d="m 477.4099,173.8129 1.8541,2e-4 9.7413,-81.1114 -11.5878,-6.6916 -11.5879,-6.6916 9.7261,94.4943 z" clip-path="url(#575216279494-clipPath1)" id="path136" ns1:connector-curvature="0" style="stroke:none" />
    </g>
    <g id="g138" style="fill:#ffffff99;stroke:none;text-rendering:geometricPrecision">
      <path d="m 470.294,172.9539 3.4814,1.3865 2.2741,-3.9387 0,0 -2.9415,-2.3218 0,0 -2.814,4.874 z m -11.3148,-4.5062 3.4815,1.3865 0,0 4.0289,-6.9783 0,0 -2.9415,-2.3217 0,0 -4.5689,7.9135 z m -11.3147,-4.5062 3.4814,1.3865 0,0 5.7838,-10.0178 0,0 -2.9414,-2.3218 -6.3238,10.9531 z m -11.3148,-4.5062 3.4814,1.3865 0,0 7.5388,-13.0574 -2.9415,-2.3218 0,0 -8.0787,13.9927 z m -11.3147,-4.5062 3.4814,1.3865 9.2936,-16.097 0,0 -2.9415,-2.3217 0,0 -9.8335,17.0322 z m -11.3148,-4.5062 3.4815,1.3865 11.0485,-19.1365 -2.9415,-2.3218 -5.7943,10.0359 -5.7942,10.0359 z" clip-path="url(#575216279494-clipPath1)" id="path140" ns1:connector-curvature="0" style="stroke:none" />
      <path d="m 470.294,172.9539 3.4814,1.3865 2.2741,-3.9387 0,0 -2.9415,-2.3218 0,0 -2.814,4.874 z m -11.3148,-4.5062 3.4815,1.3865 0,0 4.0289,-6.9783 0,0 -2.9415,-2.3217 0,0 -4.5689,7.9135 z m -11.3147,-4.5062 3.4814,1.3865 0,0 5.7838,-10.0178 0,0 -2.9414,-2.3218 -6.3238,10.9531 z m -11.3148,-4.5062 3.4814,1.3865 0,0 7.5388,-13.0574 -2.9415,-2.3218 0,0 -8.0787,13.9927 z m -11.3147,-4.5062 3.4814,1.3865 9.2936,-16.097 0,0 -2.9415,-2.3217 0,0 -9.8335,17.0322 z m -11.3148,-4.5062 3.4815,1.3865 11.0485,-19.1365 -2.9415,-2.3218 -5.7943,10.0359 -5.7942,10.0359 z" clip-path="url(#575216279186-clipPath1)" id="path142" ns1:connector-curvature="0" style="fill:#f0abfc;stroke:none" />
    </g>
    <g id="g144" style="fill:#c4b5fd;stroke:none;text-rendering:geometricPrecision">
      <path d="M 478.3445,86.5454 420.0471,52.8807 c -0.8869,-0.5122 -2.0206,-0.2085 -2.5328,0.6784 -0.5122,0.887 -0.2085,2.0207 0.6784,2.5329 l 58.2974,33.6647 c 0.8869,0.5122 2.0206,0.2085 2.5328,-0.6784 0.5122,-0.887 0.2085,-2.0207 -0.6784,-2.5329 z" clip-path="url(#575216279494-clipPath1)" id="path146" ns1:connector-curvature="0" style="stroke:none" />
      <path d="M 478.3445,86.5454 420.0471,52.8807 c -0.8869,-0.5122 -2.0206,-0.2085 -2.5328,0.6784 -0.5122,0.887 -0.2085,2.0207 0.6784,2.5329 l 58.2974,33.6647 c 0.8869,0.5122 2.0206,0.2085 2.5328,-0.6784 0.5122,-0.887 0.2085,-2.0207 -0.6784,-2.5329 z" clip-path="url(#57521627950-clipPath1)" id="path148" ns1:connector-curvature="0" style="fill:#f0abfc;stroke:none" />
    </g>
    <g id="g150" style="text-rendering:geometricPrecision;fill:#f0abfc;stroke:none">
      <path d="m 553.447,280.8923 -0.006,-64.2389 c -10e-5,-1.0242 -0.8301,-1.8541 -1.8543,-1.8539 -1.0242,0 -1.8541,0.83 -1.854,1.8543 l 0.006,64.2388 c 10e-5,1.0242 0.8301,1.8541 1.8543,1.854 1.0242,-10e-5 1.854,-0.8301 1.8539,-1.8543 z" clip-path="url(#575216279494-clipPath1)" id="path152" ns1:connector-curvature="0" style="stroke:none" />
      <path d="m 553.447,280.8923 -0.006,-64.2389 c -10e-5,-1.0242 -0.8301,-1.8541 -1.8543,-1.8539 -1.0242,0 -1.8541,0.83 -1.854,1.8543 l 0.006,64.2388 c 10e-5,1.0242 0.8301,1.8541 1.8543,1.854 1.0242,-10e-5 1.854,-0.8301 1.8539,-1.8543 z" clip-path="url(#575216279541-clipPath1)" id="path154" ns1:connector-curvature="0" style="fill:#c4b5fd;stroke:none" />
    </g>
    <g id="g156" style="fill:#c4b5fd;stroke:none;text-rendering:geometricPrecision">
      <path d="M 478.33,346.7548 536.6373,313.09 c 0.887,-0.5121 1.1908,-1.6458 0.6786,-2.5328 -0.5121,-0.887 -1.6458,-1.1907 -2.5328,-0.6786 l -58.3073,33.6648 c -0.887,0.5121 -1.1907,1.6458 -0.6786,2.5328 0.5121,0.887 1.6458,1.1907 2.5328,0.6786 z" clip-path="url(#575216279494-clipPath1)" id="path158" ns1:connector-curvature="0" style="stroke:none" />
      <path d="M 478.33,346.7548 536.6373,313.09 c 0.887,-0.5121 1.1908,-1.6458 0.6786,-2.5328 -0.5121,-0.887 -1.6458,-1.1907 -2.5328,-0.6786 l -58.3073,33.6648 c -0.887,0.5121 -1.1907,1.6458 -0.6786,2.5328 0.5121,0.887 1.6458,1.1907 2.5328,0.6786 z" clip-path="url(#575216279519-clipPath1)" id="path160" ns1:connector-curvature="0" style="fill:#f0abfc;stroke:none" />
    </g>
    <g id="g162" style="fill:#ffffff99;stroke:none;text-rendering:geometricPrecision">
      <path d="m 477.4029,345.1491 1.8541,0 9.7344,-64.2414 -11.5885,0 -11.5885,0 9.7344,64.2414 z" clip-path="url(#575216279494-clipPath1)" id="path164" ns1:connector-curvature="0" style="stroke:none" />
      <path d="m 477.4029,345.1491 1.8541,0 9.7344,-64.2414 -11.5885,0 -11.5885,0 9.7344,64.2414 z" clip-path="url(#575216279489-clipPath1)" id="path166" ns1:connector-curvature="0" style="fill:#f0abfc;stroke:none" />
    </g>
    <g id="g168" style="fill:#fda4af;stroke:none;text-rendering:geometricPrecision">
      <path d="m 468.7651,82.0842 c -0.887,0.512 -1.1909,1.6457 -0.6789,2.5327 0.5121,0.8871 1.6457,1.1909 2.5328,0.6789 L 530.5717,50.689 c 0.887,-0.512 1.1908,-1.6457 0.6788,-2.5327 -0.512,-0.887 -1.6457,-1.1909 -2.5327,-0.6789 z m 7.7245,13.3818 c -0.8871,0.5121 -1.1909,1.6457 -0.6789,2.5328 0.512,0.887 1.6457,1.1909 2.5327,0.6789 l 59.9527,-34.6068 c 0.8871,-0.512 1.1909,-1.6457 0.6789,-2.5327 -0.512,-0.8871 -1.6457,-1.191 -2.5327,-0.6789 z" clip-path="url(#575216279494-clipPath1)" id="path170" ns1:connector-curvature="0" style="stroke:none" />
      <path d="m 468.7651,82.0842 c -0.887,0.512 -1.1909,1.6457 -0.6789,2.5327 0.5121,0.8871 1.6457,1.1909 2.5328,0.6789 L 530.5717,50.689 c 0.887,-0.512 1.1908,-1.6457 0.6788,-2.5327 -0.512,-0.887 -1.6457,-1.1909 -2.5327,-0.6789 z m 7.7245,13.3818 c -0.8871,0.5121 -1.1909,1.6457 -0.6789,2.5328 0.512,0.887 1.6457,1.1909 2.5327,0.6789 l 59.9527,-34.6068 c 0.8871,-0.512 1.1909,-1.6457 0.6789,-2.5327 -0.512,-0.8871 -1.6457,-1.191 -2.5327,-0.6789 z" clip-path="url(#575216279769-clipPath1)" id="path172" ns1:connector-curvature="0" style="fill:#f0abfc;stroke:none" />
    </g>
    <g id="g174" style="text-rendering:geometricPrecision;fill:#f0abfc;stroke:none">
      <path d="m 566.5532,313.0888 51.8795,29.9488 c 0.887,0.5121 2.0207,0.2082 2.5327,-0.6788 0.5121,-0.887 0.2082,-2.0207 -0.6788,-2.5328 l -51.8794,-29.9487 c -0.887,-0.5121 -2.0207,-0.2082 -2.5327,0.6788 -0.5121,0.887 -0.2083,2.0207 0.6787,2.5327 z" clip-path="url(#575216279494-clipPath1)" id="path176" ns1:connector-curvature="0" style="stroke:none" />
      <path d="m 566.5532,313.0888 51.8795,29.9488 c 0.887,0.5121 2.0207,0.2082 2.5327,-0.6788 0.5121,-0.887 0.2082,-2.0207 -0.6788,-2.5328 l -51.8794,-29.9487 c -0.887,-0.5121 -2.0207,-0.2082 -2.5327,0.6788 -0.5121,0.887 -0.2083,2.0207 0.6787,2.5327 z" clip-path="url(#575216279126-clipPath1)" id="path178" ns1:connector-curvature="0" style="fill:#c4b5fd;stroke:none" />
    </g>
    <g id="g180" style="fill:#eef2ff;stroke:none;text-rendering:geometricPrecision">
      </g>
    <g font-size="30px" transform="translate(540.5325,284.3129)" id="g184" style="font-size:30px;font-family:sans-serif;fill:#c4b5fd;stroke:none;text-rendering:geometricPrecision">
      <text x="0" xml:space="preserve" y="29" clip-path="url(#575216279128-clipPath1)" id="text186" style="stroke:none">N</text>
    </g>
    <g font-size="30px" id="g188" style="font-size:30px;font-family:sans-serif;fill:#eef2ff;stroke:none;text-rendering:geometricPrecision">
      <text x="0" y="29" transform="translate(253.7258,537.0953)" clip-path="url(#575216279886-clipPath1)" xml:space="preserve" id="text192" style="fill:#c4b5fd;stroke:none">HN</text>
    </g>
    <g font-size="30px" id="g194" style="font-size:30px;font-family:sans-serif;fill:#eef2ff;stroke:none;text-rendering:geometricPrecision">
      <text x="0" y="29" transform="translate(466.3951,241.4872)" clip-path="url(#575216279287-clipPath1)" xml:space="preserve" id="text198" style="fill:#ffffff99;stroke:none">H</text>
    </g>
    <g font-size="30px" id="g200" style="font-size:30px;font-family:sans-serif;fill:#eef2ff;stroke:none;text-rendering:geometricPrecision">
      <text x="0" y="29" transform="translate(392.2167,112.982)" clip-path="url(#575216279330-clipPath1)" xml:space="preserve" id="text204" style="fill:#ffffff99;stroke:none">H</text>
    </g>
    <g font-size="30px" id="g206" style="font-size:30px;font-family:sans-serif;fill:#eef2ff;stroke:none;text-rendering:geometricPrecision">
      <text x="0" y="29" transform="translate(361.72,27.3137)" clip-path="url(#575216279468-clipPath1)" xml:space="preserve" id="text210" style="fill:#c4b5fd;stroke:none">H</text>
    </g>
    <g font-size="24px" transform="translate(380.2356,43.0448)" id="g212" style="font-size:24px;font-family:sans-serif;fill:#c4b5fd;stroke:none;text-rendering:geometricPrecision">
      <text x="0" xml:space="preserve" y="23" clip-path="url(#57521627929-clipPath1)" id="text214" style="stroke:none">2</text>
    </g>
    <g font-size="30px" transform="translate(392.1731,27.3137)" id="g216" style="font-size:30px;font-family:sans-serif;fill:#c4b5fd;stroke:none;text-rendering:geometricPrecision">
      <text x="0" xml:space="preserve" y="29" clip-path="url(#575216279539-clipPath1)" id="text218" style="stroke:none">N</text>
    </g>
    <g font-size="30px" id="g220" style="font-size:30px;font-family:sans-serif;fill:#eef2ff;stroke:none;text-rendering:geometricPrecision">
      <text x="0" y="29" transform="translate(540.1298,27.3265)" clip-path="url(#575216279316-clipPath1)" xml:space="preserve" id="text224" style="fill:#fda4af;stroke:none">O</text>
    </g>
  </g>
</svg>