<?xml version='1.0' encoding='utf-8'?>
<svg xmlns="http://www.w3.org/2000/svg" xmlns:dc="http://purl.org/dc/elements/1.1/" xmlns:ns1="http://sodipodi.sourceforge.net/DTD/sodipodi-0.dtd" xmlns:ns2="http://www.inkscape.org/namespaces/inkscape" xmlns:ns4="http://creativecommons.org/ns#" xmlns:rdf="http://www.w3.org/1999/02/22-rdf-syntax-ns#" width="730.44812" stroke-miterlimit="10" font-weight="normal" height="460.92523" font-style="normal" font-size="12px" version="1.1" id="svg116" ns1:docname="MCPP.svg" style="font-style:normal;font-weight:normal;font-size:12px;font-family:Dialog;color-interpolation:auto;fill:#f5d0fe;fill-opacity:1;stroke:none;stroke:none;stroke:none;stroke:none;stroke:none;stroke:none;stroke:none;stroke:none;color-rendering:auto;image-rendering:auto;shape-rendering:auto;text-rendering:auto" ns2:version="0.92.2 (5c3e80d, 2017-08-06)">
  <metadata id="metadata120">
    <rdf:RDF>
      <ns4:Work rdf:about="">
        <dc:format>image/svg+xml</dc:format>
        <dc:type rdf:resource="http://purl.org/dc/dcmitype/StillImage" />
        <dc:title />
      </ns4:Work>
    </rdf:RDF>
  </metadata>
  <ns1:namedview pagecolor="#eef2ff" bordercolor="#666666" borderopacity="1" objecttolerance="10" gridtolerance="10" guidetolerance="10" ns2:pageopacity="0" ns2:pageshadow="2" ns2:window-width="1366" ns2:window-height="745" id="namedview118" showgrid="false" fit-margin-top="10" fit-margin-left="10" fit-margin-right="10" fit-margin-bottom="10" ns2:zoom="0.375" ns2:cx="365.6245" ns2:cy="230.46261" ns2:window-x="-8" ns2:window-y="-8" ns2:window-maximized="1" ns2:current-layer="svg116" />
  
  <defs id="genericDefs" />
  <g id="g114" transform="translate(-34.375503,-69.537375)" style="fill:#f5d0fe;stroke:none">
    <defs id="1660510774462-defs1">
      <clipPath clipPathUnits="userSpaceOnUse" id="1660510774597-clipPath1">
        <path d="M 0,0 H 800 V 600 H 0 Z" id="path3" ns2:connector-curvature="0" style="stroke:none" />
      </clipPath>
      <clipPath clipPathUnits="userSpaceOnUse" id="1660510774738-clipPath1">
        <path d="m 709.7881,222.0757 c -25.8504,0 -46.8062,20.9559 -46.8062,46.8062 0,25.8504 20.9558,46.8063 46.8062,46.8063 25.8503,0 46.8062,-20.9559 46.8062,-46.8063 0,-25.8503 -20.9559,-46.8062 -46.8062,-46.8062 z" id="path6" ns2:connector-curvature="0" style="stroke:none" />
      </clipPath>
      <clipPath clipPathUnits="userSpaceOnUse" id="1660510774621-clipPath1">
        <path d="m 686.9968,82.2259 c -27.0995,0 -49.068,21.9685 -49.068,49.0679 0,27.0995 21.9685,49.068 49.068,49.068 27.0995,0 49.0679,-21.9685 49.0679,-49.068 0,-27.0994 -21.9684,-49.0679 -49.0679,-49.0679 z" id="path9" ns2:connector-curvature="0" style="stroke:none" />
      </clipPath>
      <clipPath clipPathUnits="userSpaceOnUse" id="1660510774620-clipPath1">
        <path d="m 386.4929,282.0475 c -27.0953,0 -49.0603,21.965 -49.0603,49.0602 0,27.0952 21.965,49.0602 49.0603,49.0602 27.0952,0 49.0602,-21.965 49.0602,-49.0602 0,-27.0952 -21.965,-49.0602 -49.0602,-49.0602 z" id="path12" ns2:connector-curvature="0" style="stroke:none" />
      </clipPath>
      <clipPath clipPathUnits="userSpaceOnUse" id="1660510774726-clipPath1">
        <path d="m 494.2601,97.6619 c -25.8483,0 -46.8025,20.9542 -46.8025,46.8025 0,25.8483 20.9542,46.8025 46.8025,46.8025 25.8484,0 46.8025,-20.9542 46.8025,-46.8025 0,-25.8483 -20.9541,-46.8025 -46.8025,-46.8025 z" id="path15" ns2:connector-curvature="0" style="stroke:none" />
      </clipPath>
      <clipPath clipPathUnits="userSpaceOnUse" id="1660510774445-clipPath1">
        <path d="m 517.0384,232.977 c -27.0995,0 -49.0679,21.9685 -49.0679,49.068 0,27.0994 21.9684,49.0679 49.0679,49.0679 27.0995,0 49.0679,-21.9685 49.0679,-49.0679 0,-27.0995 -21.9684,-49.068 -49.0679,-49.068 z" id="path18" ns2:connector-curvature="0" style="stroke:none" />
      </clipPath>
      <clipPath clipPathUnits="userSpaceOnUse" id="1660510774323-clipPath1">
        <path d="m 170.9789,285.103 c -25.4077,0 -46.0047,20.597 -46.0047,46.0047 0,25.4077 20.597,46.0047 46.0047,46.0047 25.4076,0 46.0046,-20.597 46.0046,-46.0047 0,-25.4077 -20.597,-46.0047 -46.0046,-46.0047 z" id="path21" ns2:connector-curvature="0" style="stroke:none" />
      </clipPath>
      <clipPath clipPathUnits="userSpaceOnUse" id="166051077459-clipPath1">
        <path d="m -477.6119,-242.8914 h 800 v 600 h -800 z" id="path24" ns2:connector-curvature="0" style="stroke:none" />
      </clipPath>
      <clipPath clipPathUnits="userSpaceOnUse" id="1660510774215-clipPath1">
        <path d="m -693.142,-118.4474 h 800 v 600 h -800 z" id="path27" ns2:connector-curvature="0" style="stroke:none" />
      </clipPath>
      <clipPath clipPathUnits="userSpaceOnUse" id="166051077469-clipPath1">
        <path d="m -41.9048,-242.8947 h 800 v 600 h -800 z" id="path30" ns2:connector-curvature="0" style="stroke:none" />
      </clipPath>
    </defs>
    <g id="g36" style="text-rendering:geometricPrecision;fill:#f5d0fe;stroke:none">
      <path d="m 277.7435,298.488 c 1.2881,-0.7438 1.7294,-2.391 0.9856,-3.6791 -0.7438,-1.2882 -2.391,-1.7295 -3.6791,-0.9857 l -80.6413,46.5629 c -1.2881,0.7438 -1.7294,2.391 -0.9857,3.6791 0.7438,1.2882 2.391,1.7295 3.6792,0.9857 z m 2.3316,-27.2633 c 1.2881,-0.7437 1.7294,-2.391 0.9856,-3.6791 -0.7438,-1.2881 -2.391,-1.7294 -3.6791,-0.9856 l -107.7495,62.2153 c -1.2881,0.7438 -1.7294,2.391 -0.9856,3.6791 0.7437,1.2882 2.3909,1.7295 3.6791,0.9857 z" clip-path="url(#1660510774597-clipPath1)" id="path34" ns2:connector-curvature="0" style="stroke:none" />
    </g>
    <g id="g40" style="text-rendering:geometricPrecision;fill:#f5d0fe;stroke:none">
      <path d="m 173.6721,331.1077 v 0 124.4458 c 0,1.4875 -1.2058,2.6933 -2.6932,2.6933 -1.4875,0 -2.6933,-1.2058 -2.6933,-2.6933 v 0 -124.4458 c 0,-1.4874 1.2058,-2.6933 2.6933,-2.6933 1.4874,0 2.6932,1.2059 2.6932,2.6933 z" clip-path="url(#1660510774597-clipPath1)" id="path38" ns2:connector-curvature="0" style="stroke:none" />
    </g>
    <g id="g44" style="text-rendering:geometricPrecision;fill:#f5d0fe;stroke:none">
      <path d="m 197.1022,441.6104 c -1.2882,-0.7438 -2.9354,-0.3025 -3.6792,0.9856 -0.7437,1.2882 -0.3024,2.9353 0.9857,3.6791 L 275.05,492.838 c 1.2881,0.7438 2.9353,0.3025 3.6791,-0.9856 0.7438,-1.2882 0.3025,-2.9354 -0.9856,-3.6792 z m -24.7766,11.6107 c -1.2882,-0.7437 -2.9354,-0.3025 -3.6791,0.9857 -0.7438,1.2881 -0.3025,2.9353 0.9856,3.6791 l 107.7495,62.2154 c 1.2881,0.7437 2.9353,0.3024 3.6791,-0.9857 0.7438,-1.2881 0.3025,-2.9353 -0.9856,-3.6791 z" clip-path="url(#1660510774597-clipPath1)" id="path42" ns2:connector-curvature="0" style="stroke:none" />
    </g>
    <g id="g48" style="text-rendering:geometricPrecision;fill:#f5d0fe;stroke:none">
      <path d="m 277.3817,515.4364 v 0 L 385.1463,453.221 c 1.2882,-0.7436 2.9353,-0.3023 3.679,0.9859 0.7438,1.2882 0.3024,2.9354 -0.9858,3.6791 v 0 l -107.7646,62.2154 c -1.2882,0.7436 -2.9353,0.3023 -3.6791,-0.9859 -0.7436,-1.2882 -0.3023,-2.9354 0.9859,-3.6791 z" clip-path="url(#1660510774597-clipPath1)" id="path46" ns2:connector-curvature="0" style="stroke:none" />
    </g>
    <g id="g52" style="text-rendering:geometricPrecision;fill:#f5d0fe;stroke:none">
      <path d="m 361.3554,439.9018 c 0,1.4875 1.2058,2.6933 2.6933,2.6933 1.4874,0 2.6933,-1.2058 2.6933,-2.6933 v -93.1424 c 0,-1.4874 -1.2059,-2.6933 -2.6933,-2.6933 -1.4875,0 -2.6933,1.2059 -2.6933,2.6933 z m 22.4442,15.6517 c 0,1.4875 1.2058,2.6933 2.6933,2.6933 1.4874,0 2.6933,-1.2058 2.6933,-2.6933 V 331.1077 c 0,-1.4874 -1.2059,-2.6933 -2.6933,-2.6933 -1.4875,0 -2.6933,1.2059 -2.6933,2.6933 z" clip-path="url(#1660510774597-clipPath1)" id="path50" ns2:connector-curvature="0" style="stroke:none" />
    </g>
    <g id="g56" style="text-rendering:geometricPrecision;fill:#f5d0fe;stroke:none">
      <path d="m 385.1463,333.4402 v 0 L 277.3817,271.2248 c -1.2882,-0.7437 -1.7295,-2.3909 -0.9859,-3.6791 0.7438,-1.2881 2.3909,-1.7295 3.6791,-0.9858 v 0 l 107.7646,62.2153 c 1.2882,0.7438 1.7296,2.3909 0.9858,3.6791 -0.7437,1.2882 -2.3908,1.7296 -3.679,0.9859 z" clip-path="url(#1660510774597-clipPath1)" id="path54" ns2:connector-curvature="0" style="stroke:none" />
    </g>
    <g id="g60" style="text-rendering:geometricPrecision;fill:#f5d0fe;stroke:none">
      <path d="m 711.1349,271.2143 v 0 L 603.3763,333.44 c -1.288,0.7439 -2.9353,0.3026 -3.6791,-0.9855 -0.7438,-1.2881 -0.3026,-2.9353 0.9855,-3.6791 v 0 l 107.7586,-62.2258 c 1.2881,-0.7438 2.9353,-0.3026 3.6791,0.9855 0.7439,1.2881 0.3026,2.9354 -0.9855,3.6792 z" clip-path="url(#1660510774597-clipPath1)" id="path58" ns2:connector-curvature="0" style="stroke:none" />
    </g>
    <g id="g64" style="text-rendering:geometricPrecision;fill:#f5d0fe;stroke:none">
      <path d="m 603.3527,84.5633 v 0 l -107.7455,62.2333 c -1.288,0.744 -2.9353,0.3029 -3.6793,-0.9851 -0.7439,-1.288 -0.3029,-2.9353 0.9852,-3.6793 v 0 L 600.6586,79.8989 c 1.288,-0.7439 2.9353,-0.3029 3.6792,0.9851 0.744,1.2881 0.3029,2.9354 -0.9851,3.6793 z" clip-path="url(#1660510774597-clipPath1)" id="path62" ns2:connector-curvature="0" style="stroke:none" />
    </g>
    <g id="g70" style="fill:#c4b5fd;stroke:none;text-rendering:geometricPrecision">
      <path d="m 707.0948,268.882 v 0 l -0.004,-93.6124 c -10e-5,-1.4875 1.2057,-2.6933 2.6932,-2.6934 1.4875,-1e-4 2.6933,1.2057 2.6934,2.6932 v 0 l 0.004,93.6124 c 0,1.4875 -1.2058,2.6934 -2.6932,2.6934 -1.4874,1e-4 -2.6934,-1.2057 -2.6934,-2.6932 z" clip-path="url(#1660510774597-clipPath1)" id="path66" ns2:connector-curvature="0" style="stroke:none" />
      <path d="m 707.0948,268.882 v 0 l -0.004,-93.6124 c -10e-5,-1.4875 1.2057,-2.6933 2.6932,-2.6934 1.4875,-1e-4 2.6933,1.2057 2.6934,2.6932 v 0 l 0.004,93.6124 c 0,1.4875 -1.2058,2.6934 -2.6932,2.6934 -1.4874,1e-4 -2.6934,-1.2057 -2.6934,-2.6932 z" clip-path="url(#1660510774738-clipPath1)" id="path68" ns2:connector-curvature="0" style="fill:#f5d0fe;stroke:none" />
    </g>
    <g id="g76" style="text-rendering:geometricPrecision;fill:#f5d0fe;stroke:none">
      <path d="m 685.6503,133.6264 v 0 L 600.6591,84.5637 c -1.2882,-0.7437 -1.7297,-2.3909 -0.986,-3.6791 0.7436,-1.2882 2.3908,-1.7297 3.679,-0.986 v 0 l 84.9912,49.0627 c 1.2882,0.7437 1.7296,2.3908 0.986,3.679 -0.7437,1.2883 -2.3908,1.7297 -3.679,0.9861 z" clip-path="url(#1660510774597-clipPath1)" id="path72" ns2:connector-curvature="0" style="stroke:none" />
      <path d="m 685.6503,133.6264 v 0 L 600.6591,84.5637 c -1.2882,-0.7437 -1.7297,-2.3909 -0.986,-3.6791 0.7436,-1.2882 2.3908,-1.7297 3.679,-0.986 v 0 l 84.9912,49.0627 c 1.2882,0.7437 1.7296,2.3908 0.986,3.679 -0.7437,1.2883 -2.3908,1.7297 -3.679,0.9861 z" clip-path="url(#1660510774621-clipPath1)" id="path74" ns2:connector-curvature="0" style="fill:#c4b5fd;stroke:none" />
    </g>
    <g id="g82" style="fill:#c4b5fd;stroke:none;text-rendering:geometricPrecision">
      <path d="m 385.1462,328.7753 v 0 l 84.9744,-49.061 c 1.2882,-0.7437 2.9353,-0.3024 3.6791,0.9858 0.7437,1.2882 0.3024,2.9353 -0.9858,3.6791 v 0 l -84.9744,49.061 c -1.2881,0.7437 -2.9353,0.3024 -3.6791,-0.9858 -0.7437,-1.2882 -0.3024,-2.9354 0.9858,-3.6791 z" clip-path="url(#1660510774597-clipPath1)" id="path78" ns2:connector-curvature="0" style="stroke:none" />
      <path d="m 385.1462,328.7753 v 0 l 84.9744,-49.061 c 1.2882,-0.7437 2.9353,-0.3024 3.6791,0.9858 0.7437,1.2882 0.3024,2.9353 -0.9858,3.6791 v 0 l -84.9744,49.061 c -1.2881,0.7437 -2.9353,0.3024 -3.6791,-0.9858 -0.7437,-1.2882 -0.3024,-2.9354 0.9858,-3.6791 z" clip-path="url(#1660510774620-clipPath1)" id="path80" ns2:connector-curvature="0" style="fill:#f5d0fe;stroke:none" />
    </g>
    <g id="g88" style="fill:#c4b5fd;stroke:none;text-rendering:geometricPrecision">
      <path d="m 496.9534,144.4646 v 0 l -0.006,93.605 c -1e-4,1.4875 -1.206,2.6932 -2.6935,2.6931 -1.4874,-1e-4 -2.6932,-1.206 -2.6931,-2.6934 v 0 l 0.006,-93.6051 c 10e-5,-1.4874 1.206,-2.6931 2.6935,-2.6931 1.4874,1e-4 2.6932,1.206 2.6931,2.6935 z" clip-path="url(#1660510774597-clipPath1)" id="path84" ns2:connector-curvature="0" style="stroke:none" />
      <path d="m 496.9534,144.4646 v 0 l -0.006,93.605 c -1e-4,1.4875 -1.206,2.6932 -2.6935,2.6931 -1.4874,-1e-4 -2.6932,-1.206 -2.6931,-2.6934 v 0 l 0.006,-93.6051 c 10e-5,-1.4874 1.206,-2.6931 2.6935,-2.6931 1.4874,1e-4 2.6932,1.206 2.6931,2.6935 z" clip-path="url(#1660510774726-clipPath1)" id="path86" ns2:connector-curvature="0" style="fill:#f5d0fe;stroke:none" />
    </g>
    <g id="g94" style="text-rendering:geometricPrecision;fill:#f5d0fe;stroke:none">
      <path d="m 518.3849,279.7124 v 0 l 84.9911,49.0628 c 1.2882,0.7436 1.7297,2.3908 0.9861,3.679 -0.7437,1.2882 -2.3908,1.7297 -3.6791,0.986 v 0 l -84.9911,-49.0627 c -1.2882,-0.7436 -1.7297,-2.3908 -0.986,-3.679 0.7436,-1.2883 2.3908,-1.7297 3.679,-0.9861 z" clip-path="url(#1660510774597-clipPath1)" id="path90" ns2:connector-curvature="0" style="stroke:none" />
      <path d="m 518.3849,279.7124 v 0 l 84.9911,49.0628 c 1.2882,0.7436 1.7297,2.3908 0.9861,3.679 -0.7437,1.2882 -2.3908,1.7297 -3.6791,0.986 v 0 l -84.9911,-49.0627 c -1.2882,-0.7436 -1.7297,-2.3908 -0.986,-3.679 0.7436,-1.2883 2.3908,-1.7297 3.679,-0.9861 z" clip-path="url(#1660510774445-clipPath1)" id="path92" ns2:connector-curvature="0" style="fill:#c4b5fd;stroke:none" />
    </g>
    <g id="g100" style="fill:#6ee7b7;stroke:none;text-rendering:geometricPrecision">
      <path d="m 169.6323,333.4402 v 0 l -79.6835,-46.003 c -1.2882,-0.7437 -1.7296,-2.3908 -0.9859,-3.6791 0.7437,-1.2881 2.3909,-1.7295 3.6791,-0.9858 v 0 l 79.6834,46.0029 c 1.2882,0.7437 1.7296,2.3909 0.9859,3.6791 -0.7437,1.2882 -2.3908,1.7296 -3.679,0.9859 z" clip-path="url(#1660510774597-clipPath1)" id="path96" ns2:connector-curvature="0" style="stroke:none" />
      <path d="m 169.6323,333.4402 v 0 l -79.6835,-46.003 c -1.2882,-0.7437 -1.7296,-2.3908 -0.9859,-3.6791 0.7437,-1.2881 2.3909,-1.7295 3.6791,-0.9858 v 0 l 79.6834,46.0029 c 1.2882,0.7437 1.7296,2.3909 0.9859,3.6791 -0.7437,1.2882 -2.3908,1.7296 -3.679,0.9859 z" clip-path="url(#1660510774323-clipPath1)" id="path98" ns2:connector-curvature="0" style="fill:#f5d0fe;stroke:none" />
    </g>
    <g font-size="44px" transform="translate(477.6119,242.8914)" id="g104" style="font-size:44px;font-family:sans-serif;fill:#c4b5fd;stroke:none;text-rendering:geometricPrecision">
      <text x="0" xml:space="preserve" y="41" clip-path="url(#166051077459-clipPath1)" id="text102" style="stroke:none">N</text>
    </g>
    <g font-size="44px" transform="translate(693.142,118.4474)" id="g108" style="font-size:44px;font-family:sans-serif;fill:#c4b5fd;stroke:none;text-rendering:geometricPrecision">
      <text x="0" xml:space="preserve" y="41" clip-path="url(#1660510774215-clipPath1)" id="text106" style="stroke:none">NH</text>
    </g>
    <g font-size="44px" transform="translate(41.9048,242.8947)" id="g112" style="font-size:44px;font-family:sans-serif;fill:#6ee7b7;stroke:none;text-rendering:geometricPrecision">
      <text x="0" xml:space="preserve" y="41" clip-path="url(#166051077469-clipPath1)" id="text110" style="stroke:none">Cl</text>
    </g>
  </g>
</svg>