<?xml version='1.0' encoding='utf-8'?>
<svg xmlns="http://www.w3.org/2000/svg" xmlns:dc="http://purl.org/dc/elements/1.1/" xmlns:ns1="http://www.inkscape.org/namespaces/inkscape" xmlns:ns2="http://sodipodi.sourceforge.net/DTD/sodipodi-0.dtd" xmlns:ns4="http://creativecommons.org/ns#" xmlns:rdf="http://www.w3.org/1999/02/22-rdf-syntax-ns#" width="749.85699" stroke-miterlimit="10" font-weight="normal" height="264.70602" font-style="normal" font-size="12px" id="svg2" version="1.1" ns1:version="0.91 r13725" ns2:docname="MDEA.svg" style="font-style:normal;font-weight:normal;font-size:12px;font-family:Dialog;color-interpolation:auto;fill:#f0abfc;fill-opacity:1;stroke:none;stroke:none;stroke:none;stroke:none;stroke:none;stroke:none;stroke:none;stroke:none;color-rendering:auto;image-rendering:auto;shape-rendering:auto;text-rendering:auto">
  <metadata id="metadata143">
    <rdf:RDF>
      <ns4:Work rdf:about="">
        <dc:format>image/svg+xml</dc:format>
        <dc:type rdf:resource="http://purl.org/dc/dcmitype/StillImage" />
        <dc:title />
      </ns4:Work>
    </rdf:RDF>
  </metadata>
  <ns2:namedview pagecolor="#eef2ff" bordercolor="#666666" borderopacity="1" objecttolerance="10" gridtolerance="10" guidetolerance="10" ns1:pageopacity="0" ns1:pageshadow="2" ns1:window-width="1060" ns1:window-height="480" id="namedview141" showgrid="false" fit-margin-top="10" fit-margin-left="10" fit-margin-right="10" fit-margin-bottom="10" ns1:zoom="0.36375" ns1:cx="374.9373" ns1:cy="132.20481" ns1:window-x="0" ns1:window-y="0" ns1:window-maximized="0" ns1:current-layer="svg2" />
  
  <defs id="genericDefs" />
  <g id="g5" transform="translate(-25.062697,-167.4988)" style="fill:#f0abfc;stroke:none">
    <defs id="1511673477239-defs1">
      <clipPath clipPathUnits="userSpaceOnUse" id="1511673477586-clipPath1">
        <path d="M 0,0 800,0 800,600 0,600 0,0 Z" id="path9" ns1:connector-curvature="0" style="stroke:none" />
      </clipPath>
      <clipPath clipPathUnits="userSpaceOnUse" id="1511673477460-clipPath1">
        <path d="m 79.2521,229.9322 c -19.7768,0 -35.8091,16.0322 -35.8091,35.809 0,19.7769 16.0323,35.8091 35.8091,35.8091 19.7768,0 35.809,-16.0322 35.809,-35.8091 0,-19.7768 -16.0322,-35.809 -35.809,-35.809 z" id="path12" ns1:connector-curvature="0" style="stroke:none" />
      </clipPath>
      <clipPath clipPathUnits="userSpaceOnUse" id="1511673477946-clipPath1">
        <path d="m 185.5268,237.8181 c -20.7969,0 -37.6561,16.8592 -37.6561,37.6561 0,20.7969 16.8592,37.6561 37.6561,37.6561 20.7969,0 37.6561,-16.8592 37.6561,-37.6561 0,-20.7969 -16.8592,-37.6561 -37.6561,-37.6561 z" id="path15" ns1:connector-curvature="0" style="stroke:none" />
      </clipPath>
      <clipPath clipPathUnits="userSpaceOnUse" id="1511673477891-clipPath1">
        <path d="m 37.15,287.6057 c -19.9218,0 -36.0716,16.1497 -36.0716,36.0715 0,19.9218 16.1498,36.0715 36.0716,36.0715 19.9217,0 36.0715,-16.1497 36.0715,-36.0715 0,-19.9218 -16.1498,-36.0715 -36.0715,-36.0715 z" id="path18" ns1:connector-curvature="0" style="stroke:none" />
      </clipPath>
      <clipPath clipPathUnits="userSpaceOnUse" id="1511673477860-clipPath1">
        <path d="m 185.5268,334.2457 c -20.7997,0 -37.6611,16.8614 -37.6611,37.6611 0,20.7997 16.8614,37.6612 37.6611,37.6612 20.7997,0 37.6612,-16.8615 37.6612,-37.6612 0,-20.7997 -16.8615,-37.6611 -37.6612,-37.6611 z" id="path21" ns1:connector-curvature="0" style="stroke:none" />
      </clipPath>
      <clipPath clipPathUnits="userSpaceOnUse" id="1511673477970-clipPath1">
        <path d="m 519.5506,237.4609 c -21.0097,0 -38.0415,17.0317 -38.0415,38.0415 0,21.0097 17.0318,38.0415 38.0415,38.0415 21.0098,0 38.0416,-17.0318 38.0416,-38.0415 0,-21.0098 -17.0318,-38.0415 -38.0416,-38.0415 z" id="path24" ns1:connector-curvature="0" style="stroke:none" />
      </clipPath>
      <clipPath clipPathUnits="userSpaceOnUse" id="1511673477811-clipPath1">
        <path d="m 620.6691,199.425 c -21.0097,0 -38.0414,17.0316 -38.0414,38.0413 0,21.0096 17.0317,38.0413 38.0414,38.0413 21.0096,0 38.0413,-17.0317 38.0413,-38.0413 0,-21.0097 -17.0317,-38.0413 -38.0413,-38.0413 z" id="path27" ns1:connector-curvature="0" style="stroke:none" />
      </clipPath>
      <clipPath clipPathUnits="userSpaceOnUse" id="1511673477789-clipPath1">
        <path d="m -80.8485,-225.1769 800,0 0,600 -800,0 0,-600 z" id="path30" ns1:connector-curvature="0" style="stroke:none" />
      </clipPath>
      <clipPath clipPathUnits="userSpaceOnUse" id="1511673477102-clipPath1">
        <path d="m -80.833,-381.1841 800.0001,0 0,600 -800.0001,0 0,-600 z" id="path33" ns1:connector-curvature="0" style="stroke:none" />
      </clipPath>
      <clipPath clipPathUnits="userSpaceOnUse" id="1511673477807-clipPath1">
        <path d="m -590.6665,-172.3602 800,0 0,600 -800,0 0,-600 z" id="path36" ns1:connector-curvature="0" style="stroke:none" />
      </clipPath>
      <clipPath clipPathUnits="userSpaceOnUse" id="1511673477239-clipPath1">
        <path d="m -590.6655,-206.7962 800,0 0,600 -800,0 0,-600 z" id="path39" ns1:connector-curvature="0" style="stroke:none" />
      </clipPath>
    </defs>
    <g id="g41" style="text-rendering:geometricPrecision;fill:#f0abfc;stroke:none">
      <path d="m 183.4398,371.9068 c 0,1.1529 0.9342,2.0871 2.087,2.0871 1.1529,0 2.087,-0.9342 2.087,-2.0871 l 0,-96.4326 c 0,-1.1528 -0.9341,-2.087 -2.087,-2.087 -1.1528,0 -2.087,0.9342 -2.087,2.087 z m 17.3919,-12.1287 c 0,1.1529 0.9342,2.087 2.087,2.087 1.1529,0 2.0871,-0.9341 2.0871,-2.087 l 0,-72.1744 c 0,-1.1528 -0.9342,-2.087 -2.0871,-2.087 -1.1528,0 -2.087,0.9342 -2.087,2.087 z" clip-path="url(#1511673477586-clipPath1)" id="path43" ns1:connector-curvature="0" style="stroke:none" />
    </g>
    <g id="g45" style="text-rendering:geometricPrecision;fill:#f0abfc;stroke:none">
      <path d="m 269.8025,397.1848 c -0.9985,0.5763 -1.3405,1.8523 -0.7642,2.8508 0.5764,0.9984 1.8524,1.3405 2.8509,0.7641 l 62.4941,-36.0738 c 0.9985,-0.5764 1.3405,-1.8524 0.7642,-2.8509 -0.5764,-0.9984 -1.8524,-1.3405 -2.8509,-0.7641 z m -1.808,21.125 c -0.9984,0.5764 -1.3405,1.8524 -0.7641,2.8509 0.5763,0.9984 1.8524,1.3405 2.8508,0.7641 l 83.501,-48.1997 c 0.9984,-0.5763 1.3404,-1.8524 0.7641,-2.8508 -0.5763,-0.9985 -1.8524,-1.3405 -2.8508,-0.7642 z" clip-path="url(#1511673477586-clipPath1)" id="path47" ns1:connector-curvature="0" style="stroke:none" />
    </g>
    <g id="g49" style="text-rendering:geometricPrecision;fill:#f0abfc;stroke:none">
      <path d="m 354.6258,371.9178 0.006,-96.4239 c 0,-1.1529 -0.9341,-2.0871 -2.0869,-2.0872 -1.1529,-10e-5 -2.0871,0.9341 -2.0872,2.0869 l -0.006,96.4239 c -1e-4,1.1528 0.934,2.087 2.0869,2.0871 1.1528,1e-4 2.087,-0.934 2.0871,-2.0868 z" clip-path="url(#1511673477586-clipPath1)" id="path51" ns1:connector-curvature="0" style="stroke:none" />
    </g>
    <g id="g53" style="text-rendering:geometricPrecision;fill:#f0abfc;stroke:none">
      <path d="m 332.3011,286.2979 c 0.9984,0.5765 2.2745,0.2346 2.851,-0.7638 0.5765,-0.9984 0.2346,-2.2745 -0.7638,-2.8509 L 271.883,246.5921 c -0.9984,-0.5765 -2.2745,-0.2346 -2.851,0.7638 -0.5764,0.9984 -0.2345,2.2745 0.7638,2.8509 z m 19.1999,-8.9968 c 0.9984,0.5765 2.2745,0.2346 2.851,-0.7638 0.5765,-0.9984 0.2346,-2.2745 -0.7638,-2.8509 l -83.511,-48.22 c -0.9984,-0.5764 -2.2745,-0.2345 -2.851,0.7638 -0.5765,0.9984 -0.2346,2.2745 0.7638,2.851 z" clip-path="url(#1511673477586-clipPath1)" id="path55" ns1:connector-curvature="0" style="stroke:none" />
    </g>
    <g id="g57" style="text-rendering:geometricPrecision;fill:#f0abfc;stroke:none">
      <path d="m 184.4834,373.7143 83.511,48.2105 c 0.9985,0.5764 2.2745,0.2344 2.8509,-0.764 0.5764,-0.9985 0.2344,-2.2745 -0.764,-2.8509 l -83.511,-48.2105 c -0.9985,-0.5764 -2.2745,-0.2344 -2.8509,0.764 -0.5764,0.9984 -0.2344,2.2745 0.764,2.8509 z" clip-path="url(#1511673477586-clipPath1)" id="path59" ns1:connector-curvature="0" style="stroke:none" />
    </g>
    <g id="g61" style="text-rendering:geometricPrecision;fill:#f0abfc;stroke:none">
      <path d="m 267.9903,225.4663 -83.5068,48.2004 c -0.9985,0.5763 -1.3405,1.8523 -0.7642,2.8508 0.5763,0.9985 1.8524,1.3405 2.8508,0.7642 l 83.5068,-48.2004 c 0.9984,-0.5763 1.3405,-1.8523 0.7642,-2.8508 -0.5763,-0.9985 -1.8524,-1.3405 -2.8508,-0.7642 z" clip-path="url(#1511673477586-clipPath1)" id="path63" ns1:connector-curvature="0" style="stroke:none" />
    </g>
    <g id="g65" style="text-rendering:geometricPrecision;fill:#f0abfc;stroke:none">
      <path d="m 77.5638,264.5143 -42.1021,57.936 c -0.6778,0.9326 -0.4712,2.2375 0.4614,2.9152 0.9326,0.6777 2.2374,0.4712 2.9152,-0.4614 l 42.1021,-57.936 c 0.6777,-0.9326 0.4712,-2.2374 -0.4614,-2.9152 -0.9327,-0.6777 -2.2375,-0.4711 -2.9152,0.4614 z" clip-path="url(#1511673477586-clipPath1)" id="path67" ns1:connector-curvature="0" style="stroke:none" />
      <path d="m 77.5638,264.5143 -42.1021,57.936 c -0.6778,0.9326 -0.4712,2.2375 0.4614,2.9152 0.9326,0.6777 2.2374,0.4712 2.9152,-0.4614 l 42.1021,-57.936 c 0.6777,-0.9326 0.4712,-2.2374 -0.4614,-2.9152 -0.9327,-0.6777 -2.2375,-0.4711 -2.9152,0.4614 z" clip-path="url(#1511673477460-clipPath1)" id="path69" ns1:connector-curvature="0" style="fill:#fda4af;stroke:none" />
    </g>
    <g id="g71" style="fill:#fda4af;stroke:none;text-rendering:geometricPrecision">
      <path d="m 186.1718,273.4893 -71.6252,-23.2756 c -1.0964,-0.3563 -2.2735,0.2434 -2.6298,1.3398 -0.3563,1.0964 0.2434,2.2736 1.3398,2.6298 l 71.6252,23.2757 c 1.0964,0.3563 2.2736,-0.2434 2.6299,-1.3398 0.3563,-1.0964 -0.2435,-2.2735 -1.3399,-2.6299 z" clip-path="url(#1511673477586-clipPath1)" id="path73" ns1:connector-curvature="0" style="stroke:none" />
      <path d="m 186.1718,273.4893 -71.6252,-23.2756 c -1.0964,-0.3563 -2.2735,0.2434 -2.6298,1.3398 -0.3563,1.0964 0.2434,2.2736 1.3398,2.6298 l 71.6252,23.2757 c 1.0964,0.3563 2.2736,-0.2434 2.6299,-1.3398 0.3563,-1.0964 -0.2435,-2.2735 -1.3399,-2.6299 z" clip-path="url(#1511673477946-clipPath1)" id="path75" ns1:connector-curvature="0" style="fill:#f0abfc;stroke:none" />
    </g>
    <g id="g77" style="fill:#fda4af;stroke:none;text-rendering:geometricPrecision">
      <path d="m 35.4615,324.9038 42.4007,58.3678 c 0.6776,0.9327 1.9824,1.1395 2.9151,0.4619 0.9328,-0.6776 1.1395,-1.9824 0.4619,-2.9151 L 38.8385,322.4506 c -0.6776,-0.9327 -1.9824,-1.1395 -2.9151,-0.4619 -0.9328,0.6776 -1.1395,1.9824 -0.4619,2.9151 z" clip-path="url(#1511673477586-clipPath1)" id="path79" ns1:connector-curvature="0" style="stroke:none" />
      <path d="m 35.4615,324.9038 42.4007,58.3678 c 0.6776,0.9327 1.9824,1.1395 2.9151,0.4619 0.9328,-0.6776 1.1395,-1.9824 0.4619,-2.9151 L 38.8385,322.4506 c -0.6776,-0.9327 -1.9824,-1.1395 -2.9151,-0.4619 -0.9328,0.6776 -1.1395,1.9824 -0.4619,2.9151 z" clip-path="url(#1511673477891-clipPath1)" id="path81" ns1:connector-curvature="0" style="fill:#f0abfc;stroke:none" />
    </g>
    <g id="g83" style="fill:#fda4af;stroke:none;text-rendering:geometricPrecision">
      <path d="m 184.8823,369.9218 -71.6406,23.2611 c -1.0965,0.356 -1.6965,1.533 -1.3405,2.6295 0.3561,1.0965 1.533,1.6965 2.6296,1.3405 l 71.6405,-23.2611 c 1.0965,-0.356 1.6965,-1.533 1.3405,-2.6295 -0.356,-1.0965 -1.533,-1.6965 -2.6295,-1.3405 z" clip-path="url(#1511673477586-clipPath1)" id="path85" ns1:connector-curvature="0" style="stroke:none" />
      <path d="m 184.8823,369.9218 -71.6406,23.2611 c -1.0965,0.356 -1.6965,1.533 -1.3405,2.6295 0.3561,1.0965 1.533,1.6965 2.6296,1.3405 l 71.6405,-23.2611 c 1.0965,-0.356 1.6965,-1.533 1.3405,-2.6295 -0.356,-1.0965 -1.533,-1.6965 -2.6295,-1.3405 z" clip-path="url(#1511673477860-clipPath1)" id="path87" ns1:connector-curvature="0" style="fill:#f0abfc;stroke:none" />
    </g>
    <g id="g89" style="text-rendering:geometricPrecision;fill:#f0abfc;stroke:none">
      <path d="m 353.588,277.3012 83.5055,-48.2062 c 0.9985,-0.5763 1.3405,-1.8524 0.7641,-2.8508 -0.5764,-0.9985 -1.8524,-1.3405 -2.8509,-0.7641 l -83.5055,48.2061 c -0.9984,0.5764 -1.3404,1.8525 -0.764,2.8509 0.5763,0.9985 1.8524,1.3405 2.8508,0.7641 z" clip-path="url(#1511673477586-clipPath1)" id="path91" ns1:connector-curvature="0" style="stroke:none" />
    </g>
    <g id="g93" style="text-rendering:geometricPrecision;fill:#f0abfc;stroke:none">
      <path d="m 435.0065,229.0949 83.5005,48.2148 c 0.9984,0.5765 2.2745,0.2346 2.851,-0.7637 0.5764,-0.9984 0.2346,-2.2745 -0.7638,-2.851 l -83.5005,-48.2148 c -0.9983,-0.5765 -2.2745,-0.2346 -2.8509,0.7638 -0.5765,0.9983 -0.2347,2.2744 0.7637,2.8509 z" clip-path="url(#1511673477586-clipPath1)" id="path95" ns1:connector-curvature="0" style="stroke:none" />
    </g>
    <g id="g97" style="fill:#c4b5fd;stroke:none;text-rendering:geometricPrecision">
      <path d="m 520.5941,277.3098 65.8917,-38.0381 c 0.9985,-0.5763 1.3405,-1.8524 0.7641,-2.8508 -0.5764,-0.9985 -1.8524,-1.3405 -2.8509,-0.7641 l -65.8918,38.0381 c -0.9984,0.5764 -1.3404,1.8525 -0.764,2.8509 0.5763,0.9984 1.8524,1.3404 2.8509,0.764 z" clip-path="url(#1511673477586-clipPath1)" id="path99" ns1:connector-curvature="0" style="stroke:none" />
      <path d="m 520.5941,277.3098 65.8917,-38.0381 c 0.9985,-0.5763 1.3405,-1.8524 0.7641,-2.8508 -0.5764,-0.9985 -1.8524,-1.3405 -2.8509,-0.7641 l -65.8918,38.0381 c -0.9984,0.5764 -1.3404,1.8525 -0.764,2.8509 0.5763,0.9984 1.8524,1.3404 2.8509,0.764 z" clip-path="url(#1511673477970-clipPath1)" id="path101" ns1:connector-curvature="0" style="fill:#f0abfc;stroke:none" />
    </g>
    <g id="g103" style="text-rendering:geometricPrecision;fill:#f0abfc;stroke:none">
      <path d="m 517.4636,275.5023 -0.005,88.0729 c 0,1.1528 0.9341,2.087 2.087,2.0871 1.1528,10e-5 2.087,-0.9341 2.0871,-2.0869 l 0.005,-88.0729 c 10e-5,-1.1529 -0.934,-2.0871 -2.0869,-2.0871 -1.1528,-10e-5 -2.087,0.934 -2.0871,2.0869 z" clip-path="url(#1511673477586-clipPath1)" id="path105" ns1:connector-curvature="0" style="stroke:none" />
    </g>
    <g id="g107" style="text-rendering:geometricPrecision;fill:#f0abfc;stroke:none">
      <path d="m 619.6255,239.2736 65.8875,38.0448 c 0.9984,0.5765 2.2745,0.2346 2.851,-0.7638 0.5764,-0.9984 0.2346,-2.2744 -0.7638,-2.8509 l -65.8876,-38.0448 c -0.9983,-0.5764 -2.2744,-0.2346 -2.8509,0.7638 -0.5765,0.9984 -0.2346,2.2745 0.7638,2.8509 z" clip-path="url(#1511673477586-clipPath1)" id="path109" ns1:connector-curvature="0" style="stroke:none" />
      <path d="m 619.6255,239.2736 65.8875,38.0448 c 0.9984,0.5765 2.2745,0.2346 2.851,-0.7638 0.5764,-0.9984 0.2346,-2.2744 -0.7638,-2.8509 l -65.8876,-38.0448 c -0.9983,-0.5764 -2.2744,-0.2346 -2.8509,0.7638 -0.5765,0.9984 -0.2346,2.2745 0.7638,2.8509 z" clip-path="url(#1511673477811-clipPath1)" id="path111" ns1:connector-curvature="0" style="fill:#c4b5fd;stroke:none" />
    </g>
    <g id="g113" style="text-rendering:geometricPrecision;fill:#f0abfc;stroke:none">
      <path d="m 687.6,277.3185 76.2757,-44.0325 c 0.9984,-0.5764 1.3404,-1.8525 0.764,-2.8509 -0.5763,-0.9984 -1.8524,-1.3404 -2.8508,-0.764 l -76.2757,44.0325 c -0.9984,0.5763 -1.3404,1.8524 -0.7641,2.8508 0.5764,0.9985 1.8525,1.3405 2.8509,0.7641 z" clip-path="url(#1511673477586-clipPath1)" id="path115" ns1:connector-curvature="0" style="stroke:none" />
    </g>
    <g id="g117" style="fill:#eef2ff;stroke:none;text-rendering:geometricPrecision">
      </g>
    <g font-size="34px" transform="translate(80.8485,225.1769)" id="g121" style="font-size:34px;font-family:sans-serif;fill:#fda4af;stroke:none;text-rendering:geometricPrecision">
      <text x="0" xml:space="preserve" y="33" clip-path="url(#1511673477789-clipPath1)" id="text123" style="stroke:none">O</text>
    </g>
    <g font-size="34px" id="g125" style="font-size:34px;font-family:sans-serif;fill:#eef2ff;stroke:none;text-rendering:geometricPrecision">
      <text x="0" y="33" transform="translate(80.833,381.1841)" clip-path="url(#1511673477102-clipPath1)" xml:space="preserve" id="text129" style="fill:#fda4af;stroke:none">O</text>
    </g>
    <g font-size="34px" id="g131" style="font-size:34px;font-family:sans-serif;fill:#eef2ff;stroke:none;text-rendering:geometricPrecision">
      <text x="0" y="33" transform="translate(590.6665,172.3602)" clip-path="url(#1511673477807-clipPath1)" xml:space="preserve" id="text135" style="fill:#c4b5fd;stroke:none">H</text>
    </g>
    <g font-size="34px" transform="translate(590.6655,206.7962)" id="g137" style="font-size:34px;font-family:sans-serif;fill:#c4b5fd;stroke:none;text-rendering:geometricPrecision">
      <text x="0" xml:space="preserve" y="33" clip-path="url(#1511673477239-clipPath1)" id="text139" style="stroke:none">N</text>
    </g>
  </g>
</svg>