<?xml version='1.0' encoding='utf-8'?>
<svg xmlns="http://www.w3.org/2000/svg" xmlns:dc="http://purl.org/dc/elements/1.1/" xmlns:ns1="http://www.inkscape.org/namespaces/inkscape" xmlns:ns2="http://sodipodi.sourceforge.net/DTD/sodipodi-0.dtd" xmlns:ns4="http://creativecommons.org/ns#" xmlns:rdf="http://www.w3.org/1999/02/22-rdf-syntax-ns#" width="741.68213" stroke-miterlimit="10" font-weight="normal" height="293.24191" font-style="normal" font-size="12px" id="svg2" version="1.1" ns1:version="1.1.1 (3bf5ae0d25, 2021-09-20)" ns2:docname="MDMA.svg" style="font-style:normal;font-weight:normal;font-size:12px;font-family:Dialog;color-interpolation:auto;fill:#000000;fill-opacity:1;stroke:none;stroke:none;stroke:none;stroke:none;stroke:none;stroke:none;stroke:none;stroke:none;color-rendering:auto;image-rendering:auto;shape-rendering:auto;text-rendering:auto">
  <metadata id="metadata139">
    <rdf:RDF>
      <ns4:Work rdf:about="">
        <dc:format>image/svg+xml</dc:format>
        <dc:type rdf:resource="http://purl.org/dc/dcmitype/StillImage" />
      </ns4:Work>
    </rdf:RDF>
  </metadata>
  <ns2:namedview pagecolor="#ffffff" bordercolor="#666666" borderopacity="1" objecttolerance="10" gridtolerance="10" guidetolerance="10" ns1:pageopacity="0" ns1:pageshadow="2" ns1:window-width="3840" ns1:window-height="2126" id="namedview137" showgrid="false" fit-margin-top="10" fit-margin-left="10" fit-margin-right="10" fit-margin-bottom="10" ns1:zoom="5.82" ns1:cx="738.23024" ns1:cy="75.773196" ns1:window-x="2869" ns1:window-y="-11" ns1:window-maximized="1" ns1:current-layer="g127" ns1:pagecheckerboard="1" />
  
  <defs id="genericDefs" />
  <g id="g5" transform="translate(-29.149131,-153.2136)" style="fill:#000000;stroke:none">
    <defs id="1546323301276-defs1">
      <clipPath clipPathUnits="userSpaceOnUse" id="1546323301193-clipPath1">
        <path d="M 0,0 H 800 V 600 H 0 Z" id="path9" ns1:connector-curvature="0" style="stroke:none" />
      </clipPath>
      <clipPath clipPathUnits="userSpaceOnUse" id="1546323301772-clipPath1">
        <path d="m 88.4768,221.8006 c -22.0762,0 -39.9725,17.8962 -39.9725,39.9724 0,22.0762 17.8963,39.9724 39.9725,39.9724 22.0761,0 39.9724,-17.8962 39.9724,-39.9724 0,-22.0762 -17.8963,-39.9724 -39.9724,-39.9724 z" id="path12" ns1:connector-curvature="0" style="stroke:none" />
      </clipPath>
      <clipPath clipPathUnits="userSpaceOnUse" id="1546323301185-clipPath1">
        <path d="m 207.1494,230.586 c -23.217,0 -42.038,18.8211 -42.038,42.038 0,23.2169 18.821,42.0379 42.038,42.0379 23.2169,0 42.0379,-18.821 42.0379,-42.0379 0,-23.2169 -18.821,-42.038 -42.0379,-42.038 z" id="path15" ns1:connector-curvature="0" style="stroke:none" />
      </clipPath>
      <clipPath clipPathUnits="userSpaceOnUse" id="1546323301478-clipPath1">
        <path d="m 41.4797,286.1773 c -22.2392,0 -40.2676,18.0284 -40.2676,40.2676 0,22.2391 18.0284,40.2675 40.2676,40.2675 22.2391,0 40.2675,-18.0284 40.2675,-40.2675 0,-22.2392 -18.0284,-40.2676 -40.2675,-40.2676 z" id="path18" ns1:connector-curvature="0" style="stroke:none" />
      </clipPath>
      <clipPath clipPathUnits="userSpaceOnUse" id="1546323301668-clipPath1">
        <path d="m 207.1494,338.252 c -23.2201,0 -42.0436,18.8235 -42.0436,42.0435 0,23.22 18.8235,42.0436 42.0436,42.0436 23.22,0 42.0435,-18.8236 42.0435,-42.0436 0,-23.22 -18.8235,-42.0435 -42.0435,-42.0435 z" id="path21" ns1:connector-curvature="0" style="stroke:none" />
      </clipPath>
      <clipPath clipPathUnits="userSpaceOnUse" id="154632330160-clipPath1">
        <path d="m 580.1025,230.1852 c -23.4556,0 -42.4702,19.0146 -42.4702,42.4702 0,23.4557 19.0146,42.4703 42.4702,42.4703 23.4557,0 42.4703,-19.0146 42.4703,-42.4703 0,-23.4556 -19.0146,-42.4702 -42.4703,-42.4702 z" id="path24" ns1:connector-curvature="0" style="stroke:none" />
      </clipPath>
      <clipPath clipPathUnits="userSpaceOnUse" id="1546323301255-clipPath1">
        <path d="m 693.0144,192.3817 c -20.8816,0 -37.8095,16.9279 -37.8095,37.8096 0,20.8816 16.9279,37.8095 37.8095,37.8095 20.8817,0 37.8096,-16.9279 37.8096,-37.8095 0,-20.8817 -16.9279,-37.8096 -37.8096,-37.8096 z" id="path27" ns1:connector-curvature="0" style="stroke:none" />
      </clipPath>
      <clipPath clipPathUnits="userSpaceOnUse" id="1546323301648-clipPath1">
        <path d="m -89.9328,-216.3539 h 800 v 600 h -800 z" id="path30" ns1:connector-curvature="0" style="stroke:none" />
      </clipPath>
      <clipPath clipPathUnits="userSpaceOnUse" id="1546323301946-clipPath1">
        <path d="m -89.9155,-390.5432 h 800 v 600 h -800 z" id="path33" ns1:connector-curvature="0" style="stroke:none" />
      </clipPath>
      <clipPath clipPathUnits="userSpaceOnUse" id="1546323301802-clipPath1">
        <path d="m -659.3491,-157.3815 h 800 v 599.9999 h -800 z" id="path36" ns1:connector-curvature="0" style="stroke:none" />
      </clipPath>
      <clipPath clipPathUnits="userSpaceOnUse" id="154632330131-clipPath1">
        <path d="m -659.3481,-195.831 h 800 v 600 h -800 z" id="path39" ns1:connector-curvature="0" style="stroke:none" />
      </clipPath>
    </defs>
    <g id="g41" style="text-rendering:geometricPrecision;fill:#000000;stroke:none">
      <path d="m 204.8191,380.2955 c 0,1.2872 1.043,2.3303 2.3303,2.3303 1.2872,0 2.3302,-1.0431 2.3302,-2.3303 V 272.624 c 0,-1.2872 -1.043,-2.3303 -2.3302,-2.3303 -1.2873,0 -2.3303,1.0431 -2.3303,2.3303 z m 19.4189,-13.5423 c 0,1.2872 1.043,2.3303 2.3303,2.3303 1.2872,0 2.3302,-1.0431 2.3302,-2.3303 v -80.5861 c 0,-1.2872 -1.043,-2.3302 -2.3302,-2.3302 -1.2873,0 -2.3303,1.043 -2.3303,2.3302 z" clip-path="url(#1546323301193-clipPath1)" id="path43" ns1:connector-curvature="0" style="stroke:none" />
    </g>
    <g id="g45" style="text-rendering:geometricPrecision;fill:#000000;stroke:none">
      <path d="m 301.247,408.5195 c -1.1148,0.6435 -1.4967,2.0682 -0.8532,3.1831 0.6435,1.1148 2.0683,1.4967 3.1831,0.8532 l 69.7777,-40.2782 c 1.1148,-0.6435 1.4967,-2.0682 0.8532,-3.1831 -0.6435,-1.1148 -2.0683,-1.4967 -3.1831,-0.8532 z m -2.0186,23.5871 c -1.1148,0.6435 -1.4967,2.0683 -0.8532,3.1831 0.6435,1.1148 2.0683,1.4967 3.1831,0.8532 l 93.2327,-53.8172 c 1.1148,-0.6435 1.4967,-2.0683 0.8532,-3.1831 -0.6436,-1.1148 -2.0683,-1.4967 -3.1831,-0.8532 z" clip-path="url(#1546323301193-clipPath1)" id="path47" ns1:connector-curvature="0" style="stroke:none" />
    </g>
    <g id="g49" style="text-rendering:geometricPrecision;fill:#000000;stroke:none">
      <path d="m 395.9562,380.3077 0.007,-107.6618 c 1e-4,-1.2872 -1.0429,-2.3303 -2.3301,-2.3304 -1.2872,-10e-5 -2.3304,1.0429 -2.3304,2.3301 l -0.007,107.6618 c 0,1.2872 1.043,2.3303 2.3302,2.3304 1.2872,10e-5 2.3303,-1.0429 2.3303,-2.3301 z" clip-path="url(#1546323301193-clipPath1)" id="path51" ns1:connector-curvature="0" style="stroke:none" />
    </g>
    <g id="g53" style="text-rendering:geometricPrecision;fill:#000000;stroke:none">
      <path d="m 371.0297,284.7091 c 1.1148,0.6437 2.5396,0.262 3.1833,-0.8528 0.6436,-1.1147 0.2619,-2.5395 -0.8529,-3.1832 L 303.57,240.3758 c -1.1147,-0.6437 -2.5395,-0.262 -3.1832,0.8528 -0.6436,1.1147 -0.2619,2.5395 0.8528,3.1832 z m 21.4376,-10.0453 c 1.1147,0.6436 2.5396,0.2619 3.1832,-0.8528 0.6437,-1.1148 0.262,-2.5396 -0.8528,-3.1832 L 301.5538,216.788 c -1.1148,-0.6437 -2.5396,-0.262 -3.1833,0.8528 -0.6436,1.1147 -0.2619,2.5395 0.8528,3.1832 z" clip-path="url(#1546323301193-clipPath1)" id="path55" ns1:connector-curvature="0" style="stroke:none" />
    </g>
    <g id="g57" style="text-rendering:geometricPrecision;fill:#000000;stroke:none">
      <path d="m 205.9843,382.3136 93.244,53.8293 c 1.1148,0.6435 2.5396,0.2617 3.1831,-0.8531 0.6436,-1.1148 0.2618,-2.5396 -0.853,-3.1831 l -93.244,-53.8293 c -1.1148,-0.6435 -2.5396,-0.2617 -3.1831,0.8531 -0.6436,1.1148 -0.2618,2.5395 0.853,3.1831 z" clip-path="url(#1546323301193-clipPath1)" id="path59" ns1:connector-curvature="0" style="stroke:none" />
    </g>
    <g id="g61" style="text-rendering:geometricPrecision;fill:#000000;stroke:none">
      <path d="m 299.2236,216.7878 -93.2391,53.818 c -1.1149,0.6435 -1.4968,2.0682 -0.8533,3.1831 0.6435,1.1148 2.0682,1.4967 3.1831,0.8533 l 93.2391,-53.818 c 1.1149,-0.6435 1.4968,-2.0683 0.8533,-3.1831 -0.6435,-1.1149 -2.0682,-1.4968 -3.1831,-0.8533 z" clip-path="url(#1546323301193-clipPath1)" id="path63" ns1:connector-curvature="0" style="stroke:none" />
    </g>
    <g id="g65" style="text-rendering:geometricPrecision;fill:#000000;stroke:none">
      <path d="M 86.5917,260.4031 39.5946,325.075 c -0.7567,1.0413 -0.5261,2.4982 0.5152,3.2549 1.0413,0.7567 2.4982,0.5261 3.2549,-0.5152 l 46.9971,-64.6718 c 0.7568,-1.0413 0.5261,-2.4983 -0.5152,-3.255 -1.0412,-0.7567 -2.4982,-0.5261 -3.2549,0.5152 z" clip-path="url(#1546323301193-clipPath1)" id="path67" ns1:connector-curvature="0" style="stroke:none" />
      <path d="M 86.5917,260.4031 39.5946,325.075 c -0.7567,1.0413 -0.5261,2.4982 0.5152,3.2549 1.0413,0.7567 2.4982,0.5261 3.2549,-0.5152 l 46.9971,-64.6718 c 0.7568,-1.0413 0.5261,-2.4983 -0.5152,-3.255 -1.0412,-0.7567 -2.4982,-0.5261 -3.2549,0.5152 z" clip-path="url(#1546323301772-clipPath1)" id="path69" ns1:connector-curvature="0" style="fill:#ff0000;stroke:none" />
    </g>
    <g id="g71" style="fill:#ff0000;stroke:none;text-rendering:geometricPrecision">
      <path d="m 207.8695,270.4078 -79.9598,-25.9841 c -1.2242,-0.3979 -2.5385,0.2717 -2.9363,1.4959 -0.3978,1.2243 0.2718,2.5386 1.496,2.9364 l 79.9598,25.9841 c 1.2242,0.3978 2.5385,-0.2717 2.9363,-1.496 0.3978,-1.2242 -0.2718,-2.5385 -1.496,-2.9363 z" clip-path="url(#1546323301193-clipPath1)" id="path73" ns1:connector-curvature="0" style="stroke:none" />
      <path d="m 207.8695,270.4078 -79.9598,-25.9841 c -1.2242,-0.3979 -2.5385,0.2717 -2.9363,1.4959 -0.3978,1.2243 0.2718,2.5386 1.496,2.9364 l 79.9598,25.9841 c 1.2242,0.3978 2.5385,-0.2717 2.9363,-1.496 0.3978,-1.2242 -0.2718,-2.5385 -1.496,-2.9363 z" clip-path="url(#1546323301185-clipPath1)" id="path75" ns1:connector-curvature="0" style="fill:#000000;stroke:none" />
    </g>
    <g id="g77" style="fill:#ff0000;stroke:none;text-rendering:geometricPrecision">
      <path d="m 39.5944,327.8144 47.333,65.1574 c 0.7565,1.0414 2.2134,1.2723 3.2548,0.5157 1.0414,-0.7565 1.2723,-2.2134 0.5158,-3.2548 L 43.365,325.0753 c -0.7566,-1.0414 -2.2135,-1.2723 -3.2549,-0.5157 -1.0414,0.7565 -1.2723,2.2134 -0.5157,3.2548 z" clip-path="url(#1546323301193-clipPath1)" id="path79" ns1:connector-curvature="0" style="stroke:none" />
      <path d="m 39.5944,327.8144 47.333,65.1574 c 0.7565,1.0414 2.2134,1.2723 3.2548,0.5157 1.0414,-0.7565 1.2723,-2.2134 0.5158,-3.2548 L 43.365,325.0753 c -0.7566,-1.0414 -2.2135,-1.2723 -3.2549,-0.5157 -1.0414,0.7565 -1.2723,2.2134 -0.5157,3.2548 z" clip-path="url(#1546323301478-clipPath1)" id="path81" ns1:connector-curvature="0" style="fill:#000000;stroke:none" />
    </g>
    <g id="g83" style="fill:#ff0000;stroke:none;text-rendering:geometricPrecision">
      <path d="m 206.4297,378.0792 -79.9769,25.9678 c -1.2243,0.3975 -1.8943,1.7116 -1.4968,2.9359 0.3976,1.2243 1.7117,1.8943 2.936,1.4967 l 79.977,-25.9678 c 1.2243,-0.3975 1.8942,-1.7116 1.4967,-2.9359 -0.3975,-1.2243 -1.7117,-1.8943 -2.936,-1.4967 z" clip-path="url(#1546323301193-clipPath1)" id="path85" ns1:connector-curvature="0" style="stroke:none" />
      <path d="m 206.4297,378.0792 -79.9769,25.9678 c -1.2243,0.3975 -1.8943,1.7116 -1.4968,2.9359 0.3976,1.2243 1.7117,1.8943 2.936,1.4967 l 79.977,-25.9678 c 1.2243,-0.3975 1.8942,-1.7116 1.4967,-2.9359 -0.3975,-1.2243 -1.7117,-1.8943 -2.936,-1.4967 z" clip-path="url(#1546323301668-clipPath1)" id="path87" ns1:connector-curvature="0" style="fill:#000000;stroke:none" />
    </g>
    <g id="g89" style="text-rendering:geometricPrecision;fill:#000000;stroke:none">
      <path d="m 394.7975,274.6639 93.2378,-53.8244 c 1.1148,-0.6436 1.4967,-2.0684 0.8531,-3.1832 -0.6435,-1.1148 -2.0683,-1.4966 -3.1831,-0.8531 l -93.2378,53.8245 c -1.1148,0.6435 -1.4966,2.0683 -0.8531,3.1831 0.6436,1.1148 2.0683,1.4966 3.1831,0.8531 z" clip-path="url(#1546323301193-clipPath1)" id="path91" ns1:connector-curvature="0" style="stroke:none" />
    </g>
    <g id="g93" style="text-rendering:geometricPrecision;fill:#000000;stroke:none">
      <path d="m 485.7051,220.8393 93.2322,53.8341 c 1.1147,0.6437 2.5395,0.262 3.1832,-0.8528 0.6437,-1.1147 0.2619,-2.5395 -0.8528,-3.1832 l -93.2322,-53.834 c -1.1147,-0.6437 -2.5395,-0.262 -3.1832,0.8527 -0.6437,1.1148 -0.262,2.5396 0.8528,3.1832 z" clip-path="url(#1546323301193-clipPath1)" id="path95" ns1:connector-curvature="0" style="stroke:none" />
    </g>
    <g id="g97" style="fill:#333399;stroke:none;text-rendering:geometricPrecision">
      <path d="m 581.2675,274.6736 73.5628,-42.4665 c 1.1148,-0.6435 1.4967,-2.0683 0.8531,-3.1831 -0.6435,-1.1148 -2.0683,-1.4967 -3.1831,-0.8531 l -73.5628,42.4664 c -1.1148,0.6436 -1.4966,2.0684 -0.8531,3.1831 0.6435,1.1148 2.0683,1.4967 3.1831,0.8532 z" clip-path="url(#1546323301193-clipPath1)" id="path99" ns1:connector-curvature="0" style="stroke:none" />
      <path d="m 581.2675,274.6736 73.5628,-42.4665 c 1.1148,-0.6435 1.4967,-2.0683 0.8531,-3.1831 -0.6435,-1.1148 -2.0683,-1.4967 -3.1831,-0.8531 l -73.5628,42.4664 c -1.1148,0.6436 -1.4966,2.0684 -0.8531,3.1831 0.6435,1.1148 2.0683,1.4967 3.1831,0.8532 z" clip-path="url(#154632330160-clipPath1)" id="path101" ns1:connector-curvature="0" style="fill:#000000;stroke:none" />
    </g>
    <g id="g103" style="text-rendering:geometricPrecision;fill:#000000;stroke:none">
      <path d="m 577.7723,272.6553 -0.005,98.3375 c -10e-5,1.2872 1.0429,2.3303 2.3301,2.3304 1.2872,0 2.3303,-1.0429 2.3304,-2.3302 l 0.005,-98.3375 c 10e-5,-1.2872 -1.0429,-2.3302 -2.3301,-2.3303 -1.2872,-10e-5 -2.3303,1.0429 -2.3303,2.3301 z" clip-path="url(#1546323301193-clipPath1)" id="path105" ns1:connector-curvature="0" style="stroke:none" />
    </g>
    <g id="g107" style="text-rendering:geometricPrecision;fill:#000000;stroke:none">
      <path d="m 691.8492,232.2092 65.4861,37.813 c 1.1147,0.6436 2.5395,0.2619 3.1832,-0.8528 0.6437,-1.1147 0.262,-2.5395 -0.8528,-3.1832 l -65.486,-37.8129 c -1.1148,-0.6437 -2.5396,-0.262 -3.1832,0.8527 -0.6437,1.1147 -0.262,2.5396 0.8527,3.1832 z" clip-path="url(#1546323301193-clipPath1)" id="path109" ns1:connector-curvature="0" style="stroke:none" />
      <path d="m 691.8492,232.2092 65.4861,37.813 c 1.1147,0.6436 2.5395,0.2619 3.1832,-0.8528 0.6437,-1.1147 0.262,-2.5395 -0.8528,-3.1832 l -65.486,-37.8129 c -1.1148,-0.6437 -2.5396,-0.262 -3.1832,0.8527 -0.6437,1.1147 -0.262,2.5396 0.8527,3.1832 z" clip-path="url(#1546323301255-clipPath1)" id="path111" ns1:connector-curvature="0" style="fill:#333399;stroke:none" />
    </g>
    <g font-size="38px" transform="translate(89.9328,216.3539)" id="g117" style="font-size:38px;font-family:sans-serif;fill:#ff0000;stroke:none;text-rendering:geometricPrecision">
      <text x="0" xml:space="preserve" y="37" clip-path="url(#1546323301648-clipPath1)" id="text119" style="line-height:0%;stroke:none">O</text>
    </g>
    <g font-size="38px" id="g121" style="font-size:38px;font-family:sans-serif;fill:#ffffff;stroke:none;text-rendering:geometricPrecision">
      <text x="0" y="37" transform="translate(89.9155,390.5432)" clip-path="url(#1546323301946-clipPath1)" xml:space="preserve" id="text125" style="line-height:0%;fill:#ff0000;stroke:none">O</text>
    </g>
    <g font-size="38px" id="g127" style="font-size:38px;font-family:sans-serif;fill:#ffffff;stroke:none;text-rendering:geometricPrecision">
      <text x="0" y="37" transform="translate(659.3491,157.3815)" clip-path="url(#1546323301802-clipPath1)" xml:space="preserve" id="text131" style="line-height:0%;fill:#333399;stroke:none">H</text>
    </g>
    <g font-size="38px" transform="translate(659.3481,195.831)" id="g133" style="font-size:38px;font-family:sans-serif;fill:#333399;stroke:none;text-rendering:geometricPrecision">
      <text x="0" xml:space="preserve" y="37" clip-path="url(#154632330131-clipPath1)" id="text135" style="line-height:0%;stroke:none">N</text>
    </g>
  </g>
</svg>