<?xml version='1.0' encoding='utf-8'?>
<svg xmlns="http://www.w3.org/2000/svg" xmlns:dc="http://purl.org/dc/elements/1.1/" xmlns:ns1="http://www.inkscape.org/namespaces/inkscape" xmlns:ns2="http://sodipodi.sourceforge.net/DTD/sodipodi-0.dtd" xmlns:ns4="http://creativecommons.org/ns#" xmlns:rdf="http://www.w3.org/1999/02/22-rdf-syntax-ns#" width="738.78058" stroke-miterlimit="10" font-weight="normal" height="264.72937" font-style="normal" font-size="12px" id="svg2" version="1.1" ns1:version="0.92.2 (5c3e80d, 2017-08-06)" ns2:docname="MDPEA.svg" style="font-style:normal;font-weight:normal;font-size:12px;font-family:Dialog;color-interpolation:auto;fill:#000000;fill-opacity:1;stroke:none;stroke:none;stroke:none;stroke:none;stroke:none;stroke:none;stroke:none;stroke:none;color-rendering:auto;image-rendering:auto;shape-rendering:auto;text-rendering:auto">
  <metadata id="metadata130">
    <rdf:RDF>
      <ns4:Work rdf:about="">
        <dc:format>image/svg+xml</dc:format>
        <dc:type rdf:resource="http://purl.org/dc/dcmitype/StillImage" />
        <dc:title />
      </ns4:Work>
    </rdf:RDF>
  </metadata>
  <ns2:namedview pagecolor="#ffffff" bordercolor="#666666" borderopacity="1" objecttolerance="10" gridtolerance="10" guidetolerance="10" ns1:pageopacity="0" ns1:pageshadow="2" ns1:window-width="1366" ns1:window-height="745" id="namedview128" showgrid="false" fit-margin-top="10" fit-margin-left="10" fit-margin-right="10" fit-margin-bottom="10" ns1:zoom="0.36375" ns1:cx="930.05294" ns1:cy="132.19236" ns1:window-x="-8" ns1:window-y="-8" ns1:window-maximized="1" ns1:current-layer="svg2" ns1:pagecheckerboard="false" />
  
  <defs id="genericDefs" />
  <g id="g5" transform="translate(-30.771796,-167.463)" style="fill:#000000;stroke:none">
    <defs id="58935911694-defs1">
      <clipPath clipPathUnits="userSpaceOnUse" id="589359116590-clipPath1">
        <path d="M 0,0 800,0 800,600 0,600 0,0 Z" id="path9" ns1:connector-curvature="0" style="stroke:none" />
      </clipPath>
      <clipPath clipPathUnits="userSpaceOnUse" id="589359116679-clipPath1">
        <path d="m 92.0254,198.8957 c -22.9354,0 -41.5282,18.5927 -41.5282,41.5281 0,22.9354 18.5928,41.5282 41.5282,41.5282 22.9353,0 41.5281,-18.5928 41.5281,-41.5282 0,-22.9354 -18.5928,-41.5281 -41.5281,-41.5281 z" id="path12" ns1:connector-curvature="0" style="stroke:none" />
      </clipPath>
      <clipPath clipPathUnits="userSpaceOnUse" id="589359116405-clipPath1">
        <path d="m 215.7495,207.8497 c -24.1386,0 -43.7068,19.5682 -43.7068,43.7068 0,24.1386 19.5682,43.7068 43.7068,43.7068 24.1386,0 43.7068,-19.5682 43.7068,-43.7068 0,-24.1386 -19.5682,-43.7068 -43.7068,-43.7068 z" id="path15" ns1:connector-curvature="0" style="stroke:none" />
      </clipPath>
      <clipPath clipPathUnits="userSpaceOnUse" id="589359116185-clipPath1">
        <path d="m 43.1991,265.7742 c -23.1067,0 -41.8385,18.7318 -41.8385,41.8385 0,23.1068 18.7318,41.8385 41.8385,41.8385 23.1068,0 41.8385,-18.7317 41.8385,-41.8385 0,-23.1067 -18.7317,-41.8385 -41.8385,-41.8385 z" id="path18" ns1:connector-curvature="0" style="stroke:none" />
      </clipPath>
      <clipPath clipPathUnits="userSpaceOnUse" id="58935911659-clipPath1">
        <path d="m 215.7495,319.9872 c -24.1419,0 -43.7127,19.5709 -43.7127,43.7127 0,24.1418 19.5708,43.7127 43.7127,43.7127 24.1418,0 43.7126,-19.5709 43.7126,-43.7127 0,-24.1418 -19.5708,-43.7127 -43.7126,-43.7127 z" id="path21" ns1:connector-curvature="0" style="stroke:none" />
      </clipPath>
      <clipPath clipPathUnits="userSpaceOnUse" id="589359116754-clipPath1">
        <path d="m 604.1923,207.4284 c -24.3894,0 -44.1609,19.7715 -44.1609,44.1609 0,24.3893 19.7715,44.1608 44.1609,44.1608 24.3893,0 44.1608,-19.7715 44.1608,-44.1608 0,-24.3894 -19.7715,-44.1609 -44.1608,-44.1609 z" id="path24" ns1:connector-curvature="0" style="stroke:none" />
      </clipPath>
      <clipPath clipPathUnits="userSpaceOnUse" id="589359116822-clipPath1">
        <path d="m -93.6012,-193.4046 800.0001,0 0,600 -800.0001,0 0,-600 z" id="path27" ns1:connector-curvature="0" style="stroke:none" />
      </clipPath>
      <clipPath clipPathUnits="userSpaceOnUse" id="589359116215-clipPath1">
        <path d="m -93.5831,-374.8284 800,0 0,600 -800,0 0,-600 z" id="path30" ns1:connector-curvature="0" style="stroke:none" />
      </clipPath>
      <clipPath clipPathUnits="userSpaceOnUse" id="589359116364-clipPath1">
        <path d="m -686.7556,-172.0294 800.0001,0 0,600 -800.0001,0 0,-600 z" id="path33" ns1:connector-curvature="0" style="stroke:none" />
      </clipPath>
      <clipPath clipPathUnits="userSpaceOnUse" id="589359116806-clipPath1">
        <path d="m -740.7087,-191.986 800,0 0,600 -800,0 0,-600 z" id="path36" ns1:connector-curvature="0" style="stroke:none" />
      </clipPath>
    </defs>
    <g id="g38" style="text-rendering:geometricPrecision;fill:#000000;stroke:none">
      <path d="m 213.3224,363.6999 c 0,1.3407 1.0864,2.427 2.4271,2.427 1.3406,0 2.427,-1.0863 2.427,-2.427 l 0,-112.1434 c 0,-1.3407 -1.0864,-2.427 -2.427,-2.427 -1.3407,0 -2.4271,1.0863 -2.4271,2.427 z m 20.2255,-14.1047 c 0,1.3406 1.0863,2.427 2.427,2.427 1.3407,0 2.427,-1.0864 2.427,-2.427 l 0,-83.933 c 0,-1.3407 -1.0863,-2.4271 -2.427,-2.4271 -1.3407,0 -2.427,1.0864 -2.427,2.4271 z" clip-path="url(#589359116590-clipPath1)" id="path40" ns1:connector-curvature="0" style="stroke:none" />
    </g>
    <g id="g42" style="text-rendering:geometricPrecision;fill:#000000;stroke:none">
      <path d="m 313.7552,393.0961 c -1.1611,0.6702 -1.5588,2.1541 -0.8886,3.3153 0.6702,1.1611 2.1542,1.5588 3.3153,0.8886 l 72.6757,-41.951 c 1.1611,-0.6702 1.5589,-2.1542 0.8886,-3.3153 -0.6702,-1.1611 -2.1542,-1.5589 -3.3153,-0.8886 z m -2.1024,24.5667 c -1.1612,0.6703 -1.5589,2.1542 -0.8887,3.3153 0.6703,1.1612 2.1542,1.5589 3.3153,0.8887 l 97.1049,-56.0524 c 1.1611,-0.6702 1.5588,-2.1542 0.8886,-3.3153 -0.6702,-1.1611 -2.1542,-1.5589 -3.3153,-0.8887 z" clip-path="url(#589359116590-clipPath1)" id="path44" ns1:connector-curvature="0" style="stroke:none" />
    </g>
    <g id="g46" style="text-rendering:geometricPrecision;fill:#000000;stroke:none">
      <path d="m 412.398,363.7126 0.007,-112.1333 c 0,-1.3406 -1.0863,-2.427 -2.4269,-2.4271 -1.3407,-1e-4 -2.4271,1.0862 -2.4272,2.4269 l -0.007,112.1332 c -1e-4,1.3406 1.0862,2.4271 2.4269,2.4272 1.3407,0 2.4271,-1.0862 2.4272,-2.4269 z" clip-path="url(#589359116590-clipPath1)" id="path48" ns1:connector-curvature="0" style="stroke:none" />
    </g>
    <g id="g50" style="text-rendering:geometricPrecision;fill:#000000;stroke:none">
      <path d="m 386.4362,264.1436 c 1.161,0.6704 2.645,0.2728 3.3154,-0.8882 0.6704,-1.1611 0.2728,-2.6451 -0.8882,-3.3155 L 316.1747,217.969 c -1.161,-0.6704 -2.645,-0.2728 -3.3154,0.8882 -0.6704,1.161 -0.2728,2.645 0.8882,3.3154 z m 22.3279,-10.4626 c 1.1611,0.6704 2.645,0.2728 3.3155,-0.8882 0.6703,-1.161 0.2728,-2.645 -0.8883,-3.3154 l -97.1166,-56.0759 c -1.161,-0.6704 -2.645,-0.2728 -3.3154,0.8882 -0.6704,1.1611 -0.2728,2.6451 0.8882,3.3154 z" clip-path="url(#589359116590-clipPath1)" id="path52" ns1:connector-curvature="0" style="stroke:none" />
    </g>
    <g id="g54" style="text-rendering:geometricPrecision;fill:#000000;stroke:none">
      <path d="m 214.536,365.8018 97.1167,56.0649 c 1.1611,0.6703 2.645,0.2726 3.3153,-0.8885 0.6703,-1.1611 0.2726,-2.645 -0.8885,-3.3153 L 216.9629,361.598 c -1.1611,-0.6703 -2.6451,-0.2726 -3.3153,0.8885 -0.6703,1.1611 -0.2726,2.645 0.8884,3.3153 z" clip-path="url(#589359116590-clipPath1)" id="path56" ns1:connector-curvature="0" style="stroke:none" />
    </g>
    <g id="g58" style="text-rendering:geometricPrecision;fill:#000000;stroke:none">
      <path d="m 311.6478,193.4013 -97.1116,56.0532 c -1.1611,0.6702 -1.5589,2.1542 -0.8887,3.3153 0.6702,1.1611 2.1541,1.5589 3.3153,0.8887 l 97.1116,-56.0532 c 1.1611,-0.6702 1.5589,-2.1541 0.8887,-3.3152 -0.6702,-1.1612 -2.1541,-1.559 -3.3153,-0.8888 z" clip-path="url(#589359116590-clipPath1)" id="path60" ns1:connector-curvature="0" style="stroke:none" />
    </g>
    <g id="g62" style="text-rendering:geometricPrecision;fill:#000000;stroke:none">
      <path d="m 90.062,238.997 -48.8262,67.1889 c -0.7882,1.0846 -0.548,2.602 0.5366,3.3901 1.0845,0.7882 2.602,0.548 3.3901,-0.5365 l 48.8262,-67.1889 c 0.7882,-1.0846 0.548,-2.602 -0.5366,-3.3902 -1.0845,-0.7881 -2.602,-0.5479 -3.3901,0.5366 z" clip-path="url(#589359116590-clipPath1)" id="path64" ns1:connector-curvature="0" style="stroke:none" />
      <path d="m 90.062,238.997 -48.8262,67.1889 c -0.7882,1.0846 -0.548,2.602 0.5366,3.3901 1.0845,0.7882 2.602,0.548 3.3901,-0.5365 l 48.8262,-67.1889 c 0.7882,-1.0846 0.548,-2.602 -0.5366,-3.3902 -1.0845,-0.7881 -2.602,-0.5479 -3.3901,0.5366 z" clip-path="url(#589359116679-clipPath1)" id="path66" ns1:connector-curvature="0" style="fill:#ff0000;stroke:none" />
    </g>
    <g id="g68" style="fill:#ff0000;stroke:none;text-rendering:geometricPrecision">
      <path d="m 216.4996,249.2483 -83.1342,-27.0157 c -1.275,-0.4143 -2.6439,0.2831 -3.0583,1.5581 -0.4143,1.2751 0.2831,2.644 1.5581,3.0583 l 83.1342,27.0157 c 1.275,0.4144 2.6439,-0.2831 3.0583,-1.5581 0.4143,-1.275 -0.2831,-2.644 -1.5581,-3.0583 z" clip-path="url(#589359116590-clipPath1)" id="path70" ns1:connector-curvature="0" style="stroke:none" />
      <path d="m 216.4996,249.2483 -83.1342,-27.0157 c -1.275,-0.4143 -2.6439,0.2831 -3.0583,1.5581 -0.4143,1.2751 0.2831,2.644 1.5581,3.0583 l 83.1342,27.0157 c 1.275,0.4144 2.6439,-0.2831 3.0583,-1.5581 0.4143,-1.275 -0.2831,-2.644 -1.5581,-3.0583 z" clip-path="url(#589359116405-clipPath1)" id="path72" ns1:connector-curvature="0" style="fill:#000000;stroke:none" />
    </g>
    <g id="g74" style="fill:#ff0000;stroke:none;text-rendering:geometricPrecision">
      <path d="m 41.2355,309.0392 49.1796,67.6993 c 0.788,1.0847 2.3054,1.3252 3.3901,0.5372 1.0847,-0.788 1.3251,-2.3054 0.5371,-3.39 L 45.1627,306.1862 c -0.7879,-1.0846 -2.3053,-1.3251 -3.39,-0.5371 -1.0847,0.788 -1.3251,2.3054 -0.5372,3.3901 z" clip-path="url(#589359116590-clipPath1)" id="path76" ns1:connector-curvature="0" style="stroke:none" />
      <path d="m 41.2355,309.0392 49.1796,67.6993 c 0.788,1.0847 2.3054,1.3252 3.3901,0.5372 1.0847,-0.788 1.3251,-2.3054 0.5371,-3.39 L 45.1627,306.1862 c -0.7879,-1.0846 -2.3053,-1.3251 -3.39,-0.5371 -1.0847,0.788 -1.3251,2.3054 -0.5372,3.3901 z" clip-path="url(#589359116185-clipPath1)" id="path78" ns1:connector-curvature="0" style="fill:#000000;stroke:none" />
    </g>
    <g id="g80" style="fill:#ff0000;stroke:none;text-rendering:geometricPrecision">
      <path d="m 215,361.3915 -83.152,26.9987 c -1.2752,0.414 -1.973,1.7828 -1.5589,3.0579 0.414,1.2752 1.7827,1.9729 3.0579,1.5589 l 83.152,-26.9987 c 1.2751,-0.414 1.9729,-1.7828 1.5589,-3.0579 -0.4141,-1.2752 -1.7828,-1.9729 -3.0579,-1.5589 z" clip-path="url(#589359116590-clipPath1)" id="path82" ns1:connector-curvature="0" style="stroke:none" />
      <path d="m 215,361.3915 -83.152,26.9987 c -1.2752,0.414 -1.973,1.7828 -1.5589,3.0579 0.414,1.2752 1.7827,1.9729 3.0579,1.5589 l 83.152,-26.9987 c 1.2751,-0.414 1.9729,-1.7828 1.5589,-3.0579 -0.4141,-1.2752 -1.7828,-1.9729 -3.0579,-1.5589 z" clip-path="url(#58935911659-clipPath1)" id="path84" ns1:connector-curvature="0" style="fill:#000000;stroke:none" />
    </g>
    <g id="g86" style="text-rendering:geometricPrecision;fill:#000000;stroke:none">
      <path d="m 411.1911,253.6811 97.1102,-56.0598 c 1.1611,-0.6703 1.5588,-2.1543 0.8885,-3.3154 -0.6702,-1.1611 -2.1542,-1.5588 -3.3153,-0.8885 l -97.1102,56.0599 c -1.1611,0.6703 -1.5588,2.1542 -0.8885,3.3153 0.6703,1.1611 2.1542,1.5588 3.3153,0.8885 z" clip-path="url(#589359116590-clipPath1)" id="path88" ns1:connector-curvature="0" style="stroke:none" />
    </g>
    <g id="g90" style="text-rendering:geometricPrecision;fill:#000000;stroke:none">
      <path d="m 505.8743,197.6211 97.1043,56.07 c 1.161,0.6704 2.6451,0.2728 3.3155,-0.8882 0.6704,-1.161 0.2728,-2.645 -0.8882,-3.3154 l -97.1044,-56.07 c -1.161,-0.6704 -2.645,-0.2728 -3.3154,0.8882 -0.6704,1.161 -0.2728,2.645 0.8882,3.3154 z" clip-path="url(#589359116590-clipPath1)" id="path92" ns1:connector-curvature="0" style="stroke:none" />
    </g>
    <g id="g94" style="fill:#333399;stroke:none;text-rendering:geometricPrecision">
      <path d="m 605.4056,253.6912 76.4911,-44.1569 c 1.1612,-0.6702 1.5589,-2.1542 0.8886,-3.3153 -0.6703,-1.1611 -2.1543,-1.5588 -3.3154,-0.8885 l -76.4911,44.1568 c -1.1611,0.6703 -1.5588,2.1543 -0.8885,3.3154 0.6703,1.1611 2.1543,1.5588 3.3153,0.8885 z" clip-path="url(#589359116590-clipPath1)" id="path96" ns1:connector-curvature="0" style="stroke:none" />
      <path d="m 605.4056,253.6912 76.4911,-44.1569 c 1.1612,-0.6702 1.5589,-2.1542 0.8886,-3.3153 -0.6703,-1.1611 -2.1543,-1.5588 -3.3154,-0.8885 l -76.4911,44.1568 c -1.1611,0.6703 -1.5588,2.1543 -0.8885,3.3154 0.6703,1.1611 2.1543,1.5588 3.3153,0.8885 z" clip-path="url(#589359116754-clipPath1)" id="path98" ns1:connector-curvature="0" style="fill:#000000;stroke:none" />
    </g>
    <g id="g100" style="text-rendering:geometricPrecision;fill:#000000;stroke:none" />
    <g id="g104" style="fill:#ffffff;stroke:none;text-rendering:geometricPrecision">
      </g>
    <g font-size="40px" transform="translate(93.6012,193.4046)" id="g108" style="font-size:40px;font-family:sans-serif;fill:#ff0000;stroke:none;text-rendering:geometricPrecision">
      <text x="0" xml:space="preserve" y="38" clip-path="url(#589359116822-clipPath1)" id="text110" style="line-height:0%;stroke:none">O</text>
    </g>
    <g font-size="40px" id="g112" style="font-size:40px;font-family:sans-serif;fill:#ffffff;stroke:none;text-rendering:geometricPrecision">
      <text x="0" y="38" transform="translate(93.5831,374.8284)" clip-path="url(#589359116215-clipPath1)" xml:space="preserve" id="text116" style="line-height:0%;fill:#ff0000;stroke:none">O</text>
    </g>
    <g font-size="40px" id="g118" style="font-size:40px;font-family:sans-serif;fill:#ffffff;stroke:none;text-rendering:geometricPrecision">
      <text x="0" y="38" transform="translate(686.7555,172.0294)" clip-path="url(#589359116364-clipPath1)" xml:space="preserve" id="text122" style="line-height:0%;fill:#333399;stroke:none">NH</text>
    </g>
    <g font-size="32px" transform="translate(740.7087,191.986)" id="g124" style="font-size:32px;font-family:sans-serif;fill:#333399;stroke:none;text-rendering:geometricPrecision">
      <text x="0" xml:space="preserve" y="31" clip-path="url(#589359116806-clipPath1)" id="text126" style="line-height:0%;stroke:none">2</text>
    </g>
  </g>
</svg>