<?xml version='1.0' encoding='utf-8'?>
<svg xmlns="http://www.w3.org/2000/svg" xmlns:dc="http://purl.org/dc/elements/1.1/" xmlns:ns1="http://www.inkscape.org/namespaces/inkscape" xmlns:ns2="http://sodipodi.sourceforge.net/DTD/sodipodi-0.dtd" xmlns:ns4="http://creativecommons.org/ns#" xmlns:rdf="http://www.w3.org/1999/02/22-rdf-syntax-ns#" width="471.15463" stroke-miterlimit="10" font-weight="normal" height="454.27173" font-style="normal" font-size="12px" id="svg2" version="1.1" ns1:version="0.91 r13725" ns2:docname="Methoxphenidine.svg" style="font-style:normal;font-weight:normal;font-size:12px;font-family:Dialog;color-interpolation:auto;fill:#f5d0fe;fill-opacity:1;stroke:none;stroke:none;stroke:none;stroke:none;stroke:none;stroke:none;stroke:none;stroke:none;color-rendering:auto;image-rendering:auto;shape-rendering:auto;text-rendering:auto">
  <metadata id="metadata154">
    <rdf:RDF>
      <ns4:Work rdf:about="">
        <dc:format>image/svg+xml</dc:format>
        <dc:type rdf:resource="http://purl.org/dc/dcmitype/StillImage" />
        <dc:title />
      </ns4:Work>
    </rdf:RDF>
  </metadata>
  <ns2:namedview pagecolor="#eef2ff" bordercolor="#666666" borderopacity="1" objecttolerance="10" gridtolerance="10" guidetolerance="10" ns1:pageopacity="0" ns1:pageshadow="2" ns1:window-width="1060" ns1:window-height="480" id="namedview152" showgrid="false" fit-margin-top="10" fit-margin-left="10" fit-margin-right="10" fit-margin-bottom="10" ns1:zoom="0.36375" ns1:cx="235.57733" ns1:cy="175.59921" ns1:window-x="0" ns1:window-y="0" ns1:window-maximized="0" ns1:current-layer="svg2" />
  
  <defs id="genericDefs" />
  <g id="g5" transform="translate(-164.42267,-21.327472)" style="fill:#f5d0fe;stroke:none">
    <defs id="1409422360734-defs1">
      <clipPath clipPathUnits="userSpaceOnUse" id="1409422360548-clipPath1">
        <path d="M 0,0 800,0 800,600 0,600 0,0 Z" id="path9" ns1:connector-curvature="0" style="stroke:none" />
      </clipPath>
      <clipPath clipPathUnits="userSpaceOnUse" id="1409422360192-clipPath1">
        <path d="m 474.562,108.5781 c -17.8525,0 -32.3249,14.4723 -32.3249,32.3249 0,17.8526 14.4724,32.3249 32.3249,32.3249 17.8526,0 32.325,-14.4723 32.325,-32.3249 0,-17.8526 -14.4724,-32.3249 -32.325,-32.3249 z" id="path12" ns1:connector-curvature="0" style="stroke:none" />
      </clipPath>
      <clipPath clipPathUnits="userSpaceOnUse" id="1409422360921-clipPath1">
        <path d="m 399.9923,171.5529 c -18.7014,0 -33.862,15.1606 -33.862,33.8621 0,18.7015 15.1606,33.862 33.862,33.862 18.7015,0 33.8621,-15.1605 33.8621,-33.862 0,-18.7015 -15.1606,-33.8621 -33.8621,-33.8621 z" id="path15" ns1:connector-curvature="0" style="stroke:none" />
      </clipPath>
      <clipPath clipPathUnits="userSpaceOnUse" id="1409422360353-clipPath1">
        <path d="m 490.4816,137.6899 c -18.7022,0 -33.8633,15.1611 -33.8633,33.8633 0,18.7022 15.1611,33.8633 33.8633,33.8633 18.7022,0 33.8634,-15.1611 33.8634,-33.8633 0,-18.7022 -15.1612,-33.8633 -33.8634,-33.8633 z" id="path18" ns1:connector-curvature="0" style="stroke:none" />
      </clipPath>
      <clipPath clipPathUnits="userSpaceOnUse" id="1409422360127-clipPath1">
        <path d="m 250.8495,173.3017 c -17.7353,0 -32.1126,14.3773 -32.1126,32.1126 0,17.7353 14.3773,32.1126 32.1126,32.1126 17.7353,0 32.1127,-14.3773 32.1127,-32.1126 0,-17.7353 -14.3774,-32.1126 -32.1127,-32.1126 z" id="path21" ns1:connector-curvature="0" style="stroke:none" />
      </clipPath>
      <clipPath clipPathUnits="userSpaceOnUse" id="1409422360432-clipPath1">
        <path d="m 233.1712,272.6041 c -16.0829,0 -29.1206,13.0378 -29.1206,29.1207 0,16.0829 13.0377,29.1207 29.1206,29.1207 16.0829,0 29.1207,-13.0378 29.1207,-29.1207 0,-16.0829 -13.0378,-29.1207 -29.1207,-29.1207 z" id="path24" ns1:connector-curvature="0" style="stroke:none" />
      </clipPath>
      <clipPath clipPathUnits="userSpaceOnUse" id="1409422360802-clipPath1">
        <path d="m -463.4999,-144.3619 800,0 0,600 -800,0 0,-600 z" id="path27" ns1:connector-curvature="0" style="stroke:none" />
      </clipPath>
      <clipPath clipPathUnits="userSpaceOnUse" id="1409422360240-clipPath1">
        <path d="m -239.3703,-273.5204 799.9999,0 0,600 -799.9999,0 0,-600 z" id="path30" ns1:connector-curvature="0" style="stroke:none" />
      </clipPath>
    </defs>
    <g id="g32" style="text-rendering:geometricPrecision;fill:#f5d0fe;stroke:none">
      <path d="m 250.168,53.6718 c 0.8916,-0.5148 1.1969,-1.6544 0.6821,-2.5459 -0.5148,-0.8916 -1.6544,-1.1969 -2.546,-0.6821 l -55.8038,32.2215 c -0.8916,0.5148 -1.1969,1.6544 -0.6821,2.546 0.5148,0.8916 1.6544,1.1969 2.546,0.6821 z m 1.6135,-18.8662 c 0.8915,-0.5148 1.1968,-1.6543 0.682,-2.5459 -0.5148,-0.8916 -1.6543,-1.1969 -2.5459,-0.6821 l -74.5627,43.0531 c -0.8916,0.5148 -1.1969,1.6544 -0.6821,2.5459 0.5148,0.8916 1.6544,1.1969 2.546,0.6821 z" clip-path="url(#1409422360548-clipPath1)" id="path34" ns1:connector-curvature="0" style="stroke:none" />
    </g>
    <g id="g36" style="text-rendering:geometricPrecision;fill:#f5d0fe;stroke:none">
      <path d="m 174.4231,76.2447 0,86.1165 c 0,1.0296 0.8342,1.8638 1.8637,1.8638 1.0296,0 1.8638,-0.8342 1.8638,-1.8638 l 0,-86.1165 c 0,-1.0295 -0.8342,-1.8638 -1.8638,-1.8638 -1.0295,0 -1.8637,0.8343 -1.8637,1.8638 z" clip-path="url(#1409422360548-clipPath1)" id="path38" ns1:connector-curvature="0" style="stroke:none" />
    </g>
    <g id="g40" style="text-rendering:geometricPrecision;fill:#f5d0fe;stroke:none">
      <path d="m 194.3642,152.7126 c -0.8916,-0.5148 -2.0312,-0.2095 -2.546,0.682 -0.5148,0.8916 -0.2095,2.0312 0.6821,2.546 l 55.8038,32.2215 c 0.8916,0.5148 2.0312,0.2095 2.546,-0.682 0.5148,-0.8916 0.2095,-2.0312 -0.6821,-2.546 z m -17.1454,8.0346 c -0.8916,-0.5148 -2.0312,-0.2095 -2.546,0.6821 -0.5148,0.8916 -0.2095,2.0312 0.6821,2.546 l 74.5627,43.053 c 0.8915,0.5148 2.0311,0.2095 2.5459,-0.6821 0.5148,-0.8915 0.2095,-2.0311 -0.682,-2.5459 z" clip-path="url(#1409422360548-clipPath1)" id="path42" ns1:connector-curvature="0" style="stroke:none" />
    </g>
    <g id="g44" style="text-rendering:geometricPrecision;fill:#f5d0fe;stroke:none">
      <path d="m 251.7814,207.0284 74.5731,-43.0531 c 0.8916,-0.5147 1.197,-1.6543 0.6822,-2.5459 -0.5147,-0.8916 -1.6543,-1.197 -2.5459,-0.6822 l -74.5731,43.053 c -0.8916,0.5148 -1.197,1.6543 -0.6822,2.5459 0.5147,0.8916 1.6543,1.197 2.5459,0.6823 z" clip-path="url(#1409422360548-clipPath1)" id="path46" ns1:connector-curvature="0" style="stroke:none" />
    </g>
    <g id="g48" style="text-rendering:geometricPrecision;fill:#f5d0fe;stroke:none">
      <path d="m 308.0275,151.5303 c 0,1.0295 0.8342,1.8637 1.8637,1.8637 1.0296,0 1.8638,-0.8342 1.8638,-1.8637 l 0,-64.4546 c 0,-1.0295 -0.8342,-1.8638 -1.8638,-1.8638 -1.0295,0 -1.8637,0.8343 -1.8637,1.8638 z m 15.5314,10.831 c 0,1.0295 0.8342,1.8637 1.8637,1.8637 1.0296,0 1.8638,-0.8342 1.8638,-1.8637 l 0,-86.1166 c 0,-1.0295 -0.8342,-1.8638 -1.8638,-1.8638 -1.0295,0 -1.8637,0.8343 -1.8637,1.8638 z" clip-path="url(#1409422360548-clipPath1)" id="path50" ns1:connector-curvature="0" style="stroke:none" />
    </g>
    <g id="g52" style="text-rendering:geometricPrecision;fill:#f5d0fe;stroke:none">
      <path d="m 326.3545,74.6306 -74.5731,-43.053 c -0.8916,-0.5148 -2.0312,-0.2094 -2.5459,0.6822 -0.5148,0.8916 -0.2094,2.0312 0.6822,2.5459 l 74.5731,43.0531 c 0.8916,0.5147 2.0312,0.2093 2.5459,-0.6823 0.5148,-0.8916 0.2094,-2.0311 -0.6822,-2.5459 z" clip-path="url(#1409422360548-clipPath1)" id="path54" ns1:connector-curvature="0" style="stroke:none" />
    </g>
    <g id="g56" style="text-rendering:geometricPrecision;fill:#f5d0fe;stroke:none">
      <path d="m 324.4908,163.9753 74.5697,43.0537 c 0.8916,0.5148 2.0311,0.2094 2.5459,-0.6822 0.5148,-0.8915 0.2094,-2.0311 -0.6822,-2.5459 l -74.5697,-43.0537 c -0.8915,-0.5148 -2.0311,-0.2094 -2.5459,0.6822 -0.5148,0.8915 -0.2094,2.0311 0.6822,2.5459 z" clip-path="url(#1409422360548-clipPath1)" id="path58" ns1:connector-curvature="0" style="stroke:none" />
    </g>
    <g id="g60" style="text-rendering:geometricPrecision;fill:#f5d0fe;stroke:none">
      <path d="m 398.1286,205.4149 -8e-4,86.1062 c 0,1.0295 0.8342,1.8637 1.8638,1.8637 1.0295,0 1.8637,-0.8342 1.8637,-1.8637 l 8e-4,-86.1061 c 0,-1.0295 -0.8342,-1.8638 -1.8637,-1.8638 -1.0296,0 -1.8638,0.8342 -1.8638,1.8637 z" clip-path="url(#1409422360548-clipPath1)" id="path62" ns1:connector-curvature="0" style="stroke:none" />
    </g>
    <g id="g64" style="text-rendering:geometricPrecision;fill:#f5d0fe;stroke:none">
      <path d="m 399.0597,293.1351 74.5697,43.0537 c 0.8916,0.5148 2.0312,0.2095 2.5459,-0.6821 0.5148,-0.8916 0.2095,-2.0312 -0.6821,-2.5459 L 400.9235,289.907 c -0.8916,-0.5147 -2.0312,-0.2094 -2.546,0.6822 -0.5147,0.8916 -0.2094,2.0312 0.6822,2.5459 z" clip-path="url(#1409422360548-clipPath1)" id="path66" ns1:connector-curvature="0" style="stroke:none" />
    </g>
    <g id="g68" style="text-rendering:geometricPrecision;fill:#f5d0fe;stroke:none">
      <path d="m 473.6305,422.2885 74.5778,43.0606 c 0.8916,0.5148 2.0311,0.2094 2.5459,-0.6821 0.5148,-0.8916 0.2095,-2.0312 -0.6821,-2.546 l -74.5778,-43.0605 c -0.8916,-0.5148 -2.0311,-0.2095 -2.5459,0.6821 -0.5148,0.8916 -0.2095,2.0311 0.6821,2.5459 z" clip-path="url(#1409422360548-clipPath1)" id="path70" ns1:connector-curvature="0" style="stroke:none" />
    </g>
    <g id="g72" style="text-rendering:geometricPrecision;fill:#f5d0fe;stroke:none">
      <path d="m 549.8235,443.2553 c -0.8916,0.5147 -1.197,1.6542 -0.6824,2.5458 0.5147,0.8917 1.6543,1.1971 2.5459,0.6824 l 55.8076,-32.215 c 0.8916,-0.5147 1.1971,-1.6543 0.6823,-2.5459 -0.5147,-0.8916 -1.6542,-1.1971 -2.5459,-0.6824 z m -1.6151,18.8656 c -0.8916,0.5147 -1.197,1.6542 -0.6823,2.5459 0.5147,0.8916 1.6543,1.1971 2.5459,0.6824 l 74.5676,-43.0444 c 0.8917,-0.5147 1.1971,-1.6543 0.6824,-2.5459 -0.5147,-0.8917 -1.6542,-1.1971 -2.5459,-0.6824 z" clip-path="url(#1409422360548-clipPath1)" id="path74" ns1:connector-curvature="0" style="stroke:none" />
    </g>
    <g id="g76" style="text-rendering:geometricPrecision;fill:#f5d0fe;stroke:none">
      <path d="m 625.5717,420.6907 0.004,-86.1087 c 10e-5,-1.0295 -0.8341,-1.8638 -1.8636,-1.8638 -1.0295,-1e-4 -1.8638,0.8341 -1.8638,1.8636 l -0.004,86.1088 c 0,1.0295 0.8342,1.8638 1.8637,1.8638 1.0295,0 1.8638,-0.8341 1.8639,-1.8637 z" clip-path="url(#1409422360548-clipPath1)" id="path78" ns1:connector-curvature="0" style="stroke:none" />
    </g>
    <g id="g80" style="text-rendering:geometricPrecision;fill:#f5d0fe;stroke:none">
      <path d="m 605.6343,344.2305 c 0.8915,0.5148 2.0311,0.2095 2.5459,-0.6821 0.5148,-0.8916 0.2094,-2.0312 -0.6821,-2.546 l -55.8184,-32.2289 c -0.8915,-0.5148 -2.0311,-0.2095 -2.5459,0.6821 -0.5148,0.8915 -0.2095,2.0311 0.6821,2.5459 z m 17.1458,-8.0346 c 0.8916,0.5148 2.0312,0.2095 2.5459,-0.6821 0.5148,-0.8915 0.2095,-2.0311 -0.6821,-2.5459 l -74.5778,-43.0606 c -0.8915,-0.5148 -2.0311,-0.2094 -2.5459,0.6821 -0.5148,0.8916 -0.2095,2.0312 0.6821,2.546 z" clip-path="url(#1409422360548-clipPath1)" id="path82" ns1:connector-curvature="0" style="stroke:none" />
    </g>
    <g id="g84" style="text-rendering:geometricPrecision;fill:#f5d0fe;stroke:none">
      <path d="m 491.9566,345.4056 c 0,-1.0295 -0.8343,-1.8637 -1.8638,-1.8637 -1.0295,0 -1.8637,0.8343 -1.8637,1.8638 l 8e-4,64.4383 c 0,1.0295 0.8342,1.8637 1.8638,1.8637 1.0295,0 1.8637,-0.8343 1.8637,-1.8638 z M 476.425,334.5748 c 0,-1.0295 -0.8342,-1.8638 -1.8637,-1.8638 -1.0296,10e-5 -1.8638,0.8343 -1.8638,1.8638 l 0.001,86.0997 c 0,1.0295 0.8343,1.8637 1.8638,1.8637 1.0295,0 1.8637,-0.8342 1.8637,-1.8637 z" clip-path="url(#1409422360548-clipPath1)" id="path86" ns1:connector-curvature="0" style="stroke:none" />
    </g>
    <g id="g88" style="text-rendering:geometricPrecision;fill:#f5d0fe;stroke:none">
      <path d="m 548.2023,289.9073 -74.5728,43.0534 c -0.8916,0.5148 -1.197,1.6544 -0.6823,2.546 0.5148,0.8916 1.6544,1.1969 2.546,0.6822 l 74.5728,-43.0535 c 0.8916,-0.5147 1.197,-1.6543 0.6823,-2.5459 -0.5148,-0.8916 -1.6544,-1.197 -2.546,-0.6822 z" clip-path="url(#1409422360548-clipPath1)" id="path90" ns1:connector-curvature="0" style="stroke:none" />
    </g>
    <g id="g92" style="text-rendering:geometricPrecision;fill:#f5d0fe;stroke:none">
      <path d="m 476.4258,140.903 -10e-4,-64.6499 c 0,-1.0295 -0.8343,-1.8637 -1.8638,-1.8637 -1.0295,0 -1.8638,0.8343 -1.8637,1.8638 l 0.001,64.6498 c 0,1.0296 0.8343,1.8638 1.8638,1.8637 1.0295,0 1.8637,-0.8342 1.8637,-1.8637 z" clip-path="url(#1409422360548-clipPath1)" id="path94" ns1:connector-curvature="0" style="stroke:none" />
      <path d="m 476.4258,140.903 -10e-4,-64.6499 c 0,-1.0295 -0.8343,-1.8637 -1.8638,-1.8637 -1.0295,0 -1.8638,0.8343 -1.8637,1.8638 l 0.001,64.6498 c 0,1.0296 0.8343,1.8638 1.8638,1.8637 1.0295,0 1.8637,-0.8342 1.8637,-1.8637 z" clip-path="url(#1409422360192-clipPath1)" id="path96" ns1:connector-curvature="0" style="fill:#c4b5fd;stroke:none" />
    </g>
    <g id="g98" style="fill:#c4b5fd;stroke:none;text-rendering:geometricPrecision">
      <path d="m 400.9242,207.029 58.6508,-33.8621 c 0.8916,-0.5147 1.197,-1.6543 0.6822,-2.5459 -0.5148,-0.8916 -1.6543,-1.1969 -2.5459,-0.6822 l -58.6508,33.8621 c -0.8916,0.5148 -1.197,1.6543 -0.6822,2.5459 0.5148,0.8916 1.6543,1.197 2.5459,0.6822 z" clip-path="url(#1409422360548-clipPath1)" id="path100" ns1:connector-curvature="0" style="stroke:none" />
      <path d="m 400.9242,207.029 58.6508,-33.8621 c 0.8916,-0.5147 1.197,-1.6543 0.6822,-2.5459 -0.5148,-0.8916 -1.6543,-1.1969 -2.5459,-0.6822 l -58.6508,33.8621 c -0.8916,0.5148 -1.197,1.6543 -0.6822,2.5459 0.5148,0.8916 1.6543,1.197 2.5459,0.6822 z" clip-path="url(#1409422360921-clipPath1)" id="path102" ns1:connector-curvature="0" style="fill:#f5d0fe;stroke:none" />
    </g>
    <g id="g104" style="text-rendering:geometricPrecision;fill:#f5d0fe;stroke:none">
      <path d="M 548.2082,31.5808 473.629,74.6391 c -0.8915,0.5148 -1.1969,1.6543 -0.6821,2.5459 0.5147,0.8916 1.6543,1.197 2.5459,0.6822 l 74.5791,-43.0583 c 0.8916,-0.5147 1.197,-1.6543 0.6822,-2.5459 -0.5148,-0.8916 -1.6544,-1.1969 -2.5459,-0.6822 z" clip-path="url(#1409422360548-clipPath1)" id="path106" ns1:connector-curvature="0" style="stroke:none" />
    </g>
    <g id="g108" style="text-rendering:geometricPrecision;fill:#f5d0fe;stroke:none">
      <path d="m 625.5769,162.3591 -0.0106,-86.1035 c -10e-5,-1.0296 -0.8344,-1.8637 -1.8639,-1.8636 -1.0295,2e-4 -1.8637,0.8345 -1.8635,1.864 l 0.0105,86.1035 c 1e-4,1.0296 0.8344,1.8637 1.864,1.8636 1.0295,-2e-4 1.8636,-0.8345 1.8635,-1.864 z" clip-path="url(#1409422360548-clipPath1)" id="path110" ns1:connector-curvature="0" style="stroke:none" />
    </g>
    <g id="g112" style="text-rendering:geometricPrecision;fill:#f5d0fe;stroke:none">
      <path d="M 624.6347,74.6418 550.0721,31.5809 c -0.8915,-0.5148 -2.0311,-0.2096 -2.546,0.6819 -0.5149,0.8915 -0.2097,2.0311 0.6818,2.546 l 74.5626,43.0609 c 0.8915,0.5149 2.0312,0.2097 2.546,-0.6818 0.5149,-0.8916 0.2097,-2.0312 -0.6818,-2.5461 z" clip-path="url(#1409422360548-clipPath1)" id="path114" ns1:connector-curvature="0" style="stroke:none" />
    </g>
    <g id="g116" style="text-rendering:geometricPrecision;fill:#f5d0fe;stroke:none">
      <path d="m 550.0659,207.0316 74.5791,-43.0582 c 0.8916,-0.5148 1.197,-1.6544 0.6822,-2.546 -0.5148,-0.8916 -1.6543,-1.1969 -2.5459,-0.6821 l -74.5792,43.0582 c -0.8916,0.5148 -1.1969,1.6544 -0.6821,2.546 0.5147,0.8916 1.6543,1.1969 2.5459,0.6821 z" clip-path="url(#1409422360548-clipPath1)" id="path118" ns1:connector-curvature="0" style="stroke:none" />
    </g>
    <g id="g120" style="text-rendering:geometricPrecision;fill:#f5d0fe;stroke:none">
      <path d="m 489.5497,173.1673 58.6524,33.8643 c 0.8916,0.5148 2.0312,0.2095 2.5459,-0.6821 0.5148,-0.8916 0.2095,-2.0312 -0.6821,-2.546 l -58.6524,-33.8643 c -0.8916,-0.5148 -2.0311,-0.2095 -2.5459,0.6821 -0.5148,0.8916 -0.2095,2.0312 0.6821,2.546 z" clip-path="url(#1409422360548-clipPath1)" id="path122" ns1:connector-curvature="0" style="stroke:none" />
      <path d="m 489.5497,173.1673 58.6524,33.8643 c 0.8916,0.5148 2.0312,0.2095 2.5459,-0.6821 0.5148,-0.8916 0.2095,-2.0312 -0.6821,-2.546 l -58.6524,-33.8643 c -0.8916,-0.5148 -2.0311,-0.2095 -2.5459,0.6821 -0.5148,0.8916 -0.2095,2.0312 0.6821,2.546 z" clip-path="url(#1409422360353-clipPath1)" id="path124" ns1:connector-curvature="0" style="fill:#c4b5fd;stroke:none" />
    </g>
    <g id="g126" style="fill:#fda4af;stroke:none;text-rendering:geometricPrecision">
      <path d="m 248.9858,205.4142 -0.002,64.2253 c 0,1.0296 0.8342,1.8638 1.8637,1.8638 1.0295,10e-5 1.8638,-0.8341 1.8638,-1.8637 l 0.002,-64.2252 c 0,-1.0296 -0.8342,-1.8638 -1.8637,-1.8638 -1.0295,-1e-4 -1.8638,0.8341 -1.8638,1.8636 z" clip-path="url(#1409422360548-clipPath1)" id="path128" ns1:connector-curvature="0" style="stroke:none" />
      <path d="m 248.9858,205.4142 -0.002,64.2253 c 0,1.0296 0.8342,1.8638 1.8637,1.8638 1.0295,10e-5 1.8638,-0.8341 1.8638,-1.8637 l 0.002,-64.2252 c 0,-1.0296 -0.8342,-1.8638 -1.8637,-1.8638 -1.0295,-1e-4 -1.8638,0.8341 -1.8638,1.8636 z" clip-path="url(#1409422360127-clipPath1)" id="path130" ns1:connector-curvature="0" style="fill:#f5d0fe;stroke:none" />
    </g>
    <g id="g132" style="text-rendering:geometricPrecision;fill:#f5d0fe;stroke:none">
      <path d="M 232.2394,300.1107 181.8,329.2298 c -0.8916,0.5148 -1.197,1.6543 -0.6822,2.5459 0.5147,0.8917 1.6543,1.197 2.5459,0.6823 l 50.4394,-29.1191 c 0.8916,-0.5148 1.1969,-1.6543 0.6822,-2.546 -0.5147,-0.8916 -1.6543,-1.197 -2.5459,-0.6822 z" clip-path="url(#1409422360548-clipPath1)" id="path134" ns1:connector-curvature="0" style="stroke:none" />
      <path d="M 232.2394,300.1107 181.8,329.2298 c -0.8916,0.5148 -1.197,1.6543 -0.6822,2.5459 0.5147,0.8917 1.6543,1.197 2.5459,0.6823 l 50.4394,-29.1191 c 0.8916,-0.5148 1.1969,-1.6543 0.6822,-2.546 -0.5147,-0.8916 -1.6543,-1.197 -2.5459,-0.6822 z" clip-path="url(#1409422360432-clipPath1)" id="path136" ns1:connector-curvature="0" style="fill:#fda4af;stroke:none" />
    </g>
    <g id="g138" style="fill:#eef2ff;stroke:none;text-rendering:geometricPrecision">
      </g>
    <g font-size="30px" transform="translate(463.4999,144.3619)" id="g142" style="font-size:30px;font-family:sans-serif;fill:#c4b5fd;stroke:none;text-rendering:geometricPrecision">
      <text x="0" xml:space="preserve" y="29" clip-path="url(#1409422360802-clipPath1)" id="text144" style="stroke:none">N</text>
    </g>
    <g font-size="30px" id="g146" style="font-size:30px;font-family:sans-serif;fill:#eef2ff;stroke:none;text-rendering:geometricPrecision">
      <text x="0" y="29" transform="translate(239.3704,273.5204)" clip-path="url(#1409422360240-clipPath1)" xml:space="preserve" id="text150" style="fill:#fda4af;stroke:none">O</text>
    </g>
  </g>
</svg>