<?xml version='1.0' encoding='utf-8'?>
<svg xmlns="http://www.w3.org/2000/svg" xmlns:dc="http://purl.org/dc/elements/1.1/" xmlns:ns1="http://www.inkscape.org/namespaces/inkscape" xmlns:ns2="http://sodipodi.sourceforge.net/DTD/sodipodi-0.dtd" xmlns:ns4="http://creativecommons.org/ns#" xmlns:rdf="http://www.w3.org/1999/02/22-rdf-syntax-ns#" width="420.68134" stroke-miterlimit="10" font-weight="normal" height="434.08359" font-style="normal" font-size="12px" id="svg2" version="1.1" ns1:version="0.91 r13725" ns2:docname="Morphine.svg" style="font-style:normal;font-weight:normal;font-size:12px;font-family:Dialog;color-interpolation:auto;fill:#000000;fill-opacity:1;stroke:none;stroke:none;stroke:none;stroke:none;stroke:none;stroke:none;stroke:none;stroke:none;color-rendering:auto;image-rendering:auto;shape-rendering:auto;text-rendering:auto">
  <metadata id="metadata207">
    <rdf:RDF>
      <ns4:Work rdf:about="">
        <dc:format>image/svg+xml</dc:format>
        <dc:type rdf:resource="http://purl.org/dc/dcmitype/StillImage" />
        <dc:title />
      </ns4:Work>
    </rdf:RDF>
  </metadata>
  <ns2:namedview pagecolor="#ffffff" bordercolor="#666666" borderopacity="1" objecttolerance="10" gridtolerance="10" guidetolerance="10" ns1:pageopacity="0" ns1:pageshadow="2" ns1:window-width="1060" ns1:window-height="480" id="namedview205" showgrid="false" fit-margin-top="10" fit-margin-left="10" fit-margin-right="10" fit-margin-bottom="10" ns1:zoom="0.36375" ns1:cx="382.0496" ns1:cy="217.0418" ns1:window-x="0" ns1:window-y="0" ns1:window-maximized="0" ns1:current-layer="svg2" />
  
  <defs id="genericDefs" />
  <g id="g5" transform="translate(-17.9504,-82.9582)" style="fill:#000000;stroke:none">
    <defs id="157192737377-defs1">
      <clipPath clipPathUnits="userSpaceOnUse" id="1571927373775-clipPath1">
        <path d="M 0,0 800,0 800,600 0,600 0,0 Z" id="path9" ns1:connector-curvature="0" style="stroke:none" />
      </clipPath>
      <clipPath clipPathUnits="userSpaceOnUse" id="1571927373755-clipPath1">
        <path d="m 213,406 74,24 q 4,8 -4,12 l -74,-24 q -4,-8 4,-12 z M 0,0 0,600 800,600 800,0 Z" id="path12" ns1:connector-curvature="0" style="stroke:none" />
      </clipPath>
      <clipPath clipPathUnits="userSpaceOnUse" id="1571927373769-clipPath1">
        <path d="m 321.2561,309.1321 c -16.2188,0 -29.3668,13.148 -29.3668,29.3669 0,16.2189 13.148,29.3669 29.3668,29.3669 16.2189,0 29.3669,-13.148 29.3669,-29.3669 0,-16.2189 -13.148,-29.3669 -29.3669,-29.3669 z" id="path15" ns1:connector-curvature="0" style="stroke:none" />
      </clipPath>
      <clipPath clipPathUnits="userSpaceOnUse" id="1571927373296-clipPath1">
        <path d="m 345.4234,378.7516 c -18.102,0 -32.7766,14.6745 -32.7766,32.7766 0,18.102 14.6746,32.7766 32.7766,32.7766 18.1021,0 32.7767,-14.6746 32.7767,-32.7766 0,-18.1021 -14.6746,-32.7766 -32.7767,-32.7766 z" id="path18" ns1:connector-curvature="0" style="stroke:none" />
      </clipPath>
      <clipPath clipPathUnits="userSpaceOnUse" id="1571927373542-clipPath1">
        <path d="m 254.1359,348.1678 c -16.0561,0 -29.0721,13.016 -29.0721,29.0721 0,16.0561 13.016,29.0721 29.0721,29.0721 16.0561,0 29.0721,-13.016 29.0721,-29.0721 0,-16.0561 -13.016,-29.0721 -29.0721,-29.0721 z" id="path21" ns1:connector-curvature="0" style="stroke:none" />
      </clipPath>
      <clipPath clipPathUnits="userSpaceOnUse" id="157192737380-clipPath1">
        <path d="m 119.9047,193.4232 c -15.9143,0 -28.8154,12.9011 -28.8154,28.8154 0,15.9143 12.9011,28.8154 28.8154,28.8154 15.9144,0 28.8155,-12.9011 28.8155,-28.8154 0,-15.9143 -12.9011,-28.8154 -28.8155,-28.8154 z" id="path24" ns1:connector-curvature="0" style="stroke:none" />
      </clipPath>
      <clipPath clipPathUnits="userSpaceOnUse" id="1571927373460-clipPath1">
        <path d="m 119.8933,342.4455 c -19.2287,0 -34.8167,15.588 -34.8167,34.8168 0,19.2287 15.588,34.8167 34.8167,34.8167 19.2288,0 34.8168,-15.588 34.8168,-34.8167 0,-19.2288 -15.588,-34.8168 -34.8168,-34.8168 z" id="path27" ns1:connector-curvature="0" style="stroke:none" />
      </clipPath>
      <clipPath clipPathUnits="userSpaceOnUse" id="1571927373195-clipPath1">
        <path d="m 119.9137,427.0734 c -15.2912,0 -27.6872,12.396 -27.6872,27.6872 0,15.2912 12.396,27.6871 27.6872,27.6871 15.2912,0 27.6872,-12.3959 27.6872,-27.6871 0,-15.2912 -12.396,-27.6872 -27.6872,-27.6872 z" id="path30" ns1:connector-curvature="0" style="stroke:none" />
      </clipPath>
      <clipPath clipPathUnits="userSpaceOnUse" id="1571927373694-clipPath1">
        <path d="m 119.9047,117.2482 c -15.177,0 -27.4804,12.3034 -27.4804,27.4804 0,15.177 12.3034,27.4804 27.4804,27.4804 15.1771,0 27.4805,-12.3034 27.4805,-27.4804 0,-15.177 -12.3034,-27.4804 -27.4805,-27.4804 z" id="path33" ns1:connector-curvature="0" style="stroke:none" />
      </clipPath>
      <clipPath clipPathUnits="userSpaceOnUse" id="1571927373394-clipPath1">
        <path d="m 374.6317,382.98 c -15.2778,0 -27.6629,12.3851 -27.6629,27.6629 0,15.2778 12.3851,27.6629 27.6629,27.6629 15.2778,0 27.6629,-12.3851 27.6629,-27.6629 0,-15.2778 -12.3851,-27.6629 -27.6629,-27.6629 z" id="path36" ns1:connector-curvature="0" style="stroke:none" />
      </clipPath>
      <clipPath clipPathUnits="userSpaceOnUse" id="1571927373389-clipPath1">
        <path d="m -349.7721,-389.6165 800,0 0,600 -800,0 0,-600 z" id="path39" ns1:connector-curvature="0" style="stroke:none" />
      </clipPath>
      <clipPath clipPathUnits="userSpaceOnUse" id="1571927373567-clipPath1">
        <path d="m -243.9484,-283.7393 800,0 0,600 -800,0 0,-600 z" id="path42" ns1:connector-curvature="0" style="stroke:none" />
      </clipPath>
      <clipPath clipPathUnits="userSpaceOnUse" id="1571927373691-clipPath1">
        <path d="m -77.9214,-277.039 800,0 0,600 -800,0 0,-600 z" id="path45" ns1:connector-curvature="0" style="stroke:none" />
      </clipPath>
      <clipPath clipPathUnits="userSpaceOnUse" id="1571927373665-clipPath1">
        <path d="m -26.9657,-477.5203 800.0001,0 0,600 -800.0001,0 0,-600 z" id="path48" ns1:connector-curvature="0" style="stroke:none" />
      </clipPath>
      <clipPath clipPathUnits="userSpaceOnUse" id="1571927373520-clipPath1">
        <path d="m -26.9504,-89.9797 800,0 0,600 -800,0 0,-600 z" id="path51" ns1:connector-curvature="0" style="stroke:none" />
      </clipPath>
    </defs>
    <g id="g53" style="text-rendering:geometricPrecision;fill:#000000;stroke:none">
      <path d="m 186.4022,124.4117 c 0.8025,-0.4634 1.0772,-1.4891 0.6139,-2.2916 -0.4634,-0.8024 -1.4891,-1.0772 -2.2915,-0.6139 l -50.2268,29.0014 c -0.8025,0.4633 -1.0772,1.489 -0.6139,2.2915 0.4634,0.8024 1.4891,1.0772 2.2915,0.6139 z m 1.4522,-16.9807 c 0.8025,-0.4634 1.0773,-1.4891 0.6139,-2.2915 -0.4633,-0.8025 -1.489,-1.0773 -2.2915,-0.614 l -67.1109,38.7504 c -0.8024,0.4633 -1.0772,1.489 -0.6139,2.2915 0.4634,0.8025 1.4891,1.0772 2.2915,0.6139 z" clip-path="url(#1571927373775-clipPath1)" id="path55" ns1:connector-curvature="0" style="stroke:none" />
    </g>
    <g id="g57" style="text-rendering:geometricPrecision;fill:#000000;stroke:none">
      <path d="m 118.2272,144.7286 0,77.51 c 0,0.9267 0.7509,1.6775 1.6775,1.6775 0.9267,0 1.6775,-0.7508 1.6775,-1.6775 l 0,-77.51 c 0,-0.9267 -0.7508,-1.6775 -1.6775,-1.6775 -0.9266,0 -1.6775,0.7508 -1.6775,1.6775 z" clip-path="url(#1571927373775-clipPath1)" id="path59" ns1:connector-curvature="0" style="stroke:none" />
    </g>
    <g id="g61" style="text-rendering:geometricPrecision;fill:#000000;stroke:none">
      <path d="m 136.1754,213.5542 c -0.8024,-0.4633 -1.8281,-0.1885 -2.2915,0.6139 -0.4633,0.8025 -0.1885,1.8282 0.6139,2.2916 l 50.2268,29.0013 c 0.8024,0.4633 1.8281,0.1885 2.2915,-0.6139 0.4633,-0.8025 0.1886,-1.8282 -0.6139,-2.2916 z m -15.4319,7.2317 c -0.8024,-0.4633 -1.8281,-0.1885 -2.2915,0.6139 -0.4633,0.8025 -0.1885,1.8282 0.6139,2.2915 l 67.1109,38.7504 c 0.8025,0.4633 1.8282,0.1885 2.2915,-0.6139 0.4634,-0.8025 0.1886,-1.8282 -0.6139,-2.2915 z" clip-path="url(#1571927373775-clipPath1)" id="path63" ns1:connector-curvature="0" style="stroke:none" />
    </g>
    <g id="g65" style="text-rendering:geometricPrecision;fill:#000000;stroke:none">
      <path d="m 187.8543,262.4417 67.1203,-38.7503 c 0.8025,-0.4633 1.0773,-1.489 0.614,-2.2915 -0.4633,-0.8025 -1.489,-1.0773 -2.2915,-0.614 l -67.1202,38.7503 c -0.8025,0.4633 -1.0774,1.489 -0.6141,2.2915 0.4633,0.8025 1.489,1.0773 2.2915,0.614 z" clip-path="url(#1571927373775-clipPath1)" id="path67" ns1:connector-curvature="0" style="stroke:none" />
    </g>
    <g id="g69" style="text-rendering:geometricPrecision;fill:#000000;stroke:none">
      <path d="m 238.4792,212.4901 c 0,0.9266 0.7509,1.6775 1.6775,1.6775 0.9266,0 1.6775,-0.7509 1.6775,-1.6775 l 0,-58.013 c 0,-0.9266 -0.7509,-1.6775 -1.6775,-1.6775 -0.9266,0 -1.6775,0.7509 -1.6775,1.6775 z m 13.9792,9.7485 c 0,0.9267 0.7508,1.6775 1.6775,1.6775 0.9266,0 1.6775,-0.7508 1.6775,-1.6775 l 0,-77.51 c 0,-0.9267 -0.7509,-1.6775 -1.6775,-1.6775 -0.9267,0 -1.6775,0.7508 -1.6775,1.6775 z" clip-path="url(#1571927373775-clipPath1)" id="path71" ns1:connector-curvature="0" style="stroke:none" />
    </g>
    <g id="g73" style="text-rendering:geometricPrecision;fill:#000000;stroke:none">
      <path d="m 254.9746,143.2758 -67.1203,-38.7503 c -0.8025,-0.4633 -1.8282,-0.1885 -2.2915,0.614 -0.4633,0.8025 -0.1884,1.8282 0.6141,2.2915 l 67.1202,38.7503 c 0.8025,0.4633 1.8282,0.1885 2.2915,-0.614 0.4633,-0.8025 0.1885,-1.8282 -0.614,-2.2915 z" clip-path="url(#1571927373775-clipPath1)" id="path75" ns1:connector-curvature="0" style="stroke:none" />
    </g>
    <g id="g77" style="text-rendering:geometricPrecision;fill:#000000;stroke:none">
      <path d="m 186.177,339.9518 67.1203,38.741 c 0.8025,0.4632 1.8282,0.1882 2.2914,-0.6143 0.4632,-0.8026 0.1883,-1.8282 -0.6143,-2.2914 l -67.1202,-38.741 c -0.8026,-0.4632 -1.8282,-0.1882 -2.2914,0.6143 -0.4633,0.8026 -0.1883,1.8282 0.6142,2.2914 z" clip-path="url(#1571927373775-clipPath1)" id="path79" ns1:connector-curvature="0" style="stroke:none" />
    </g>
    <g id="g81" style="text-rendering:geometricPrecision;fill:#000000;stroke:none">
      <path d="m 254.9744,378.6928 67.1203,-38.741 c 0.8025,-0.4632 1.0775,-1.4888 0.6143,-2.2914 -0.4632,-0.8025 -1.4889,-1.0775 -2.2915,-0.6143 l -67.1202,38.741 c -0.8025,0.4632 -1.0775,1.4888 -0.6143,2.2914 0.4632,0.8025 1.4889,1.0775 2.2914,0.6143 z" clip-path="url(#1571927373775-clipPath1)" id="path83" ns1:connector-curvature="0" style="stroke:none" />
    </g>
    <g id="g85" style="text-rendering:geometricPrecision;fill:#000000;stroke:none">
      <path d="m 322.9336,338.499 0,-77.51 c 0,-0.9267 -0.7508,-1.6775 -1.6775,-1.6775 -0.9266,0 -1.6775,0.7508 -1.6775,1.6775 l 0,77.51 c 0,0.9266 0.7509,1.6775 1.6775,1.6775 0.9267,0 1.6775,-0.7509 1.6775,-1.6775 z" clip-path="url(#1571927373775-clipPath1)" id="path87" ns1:connector-curvature="0" style="stroke:none" />
    </g>
    <g id="g89" style="text-rendering:geometricPrecision;fill:#000000;stroke:none">
      <path d="m 185.3381,260.989 0,77.51 c 0,0.9266 0.7509,1.6775 1.6775,1.6775 0.9266,0 1.6775,-0.7509 1.6775,-1.6775 l 0,-77.51 c 0,-0.9267 -0.7509,-1.6775 -1.6775,-1.6775 -0.9266,0 -1.6775,0.7508 -1.6775,1.6775 z" clip-path="url(#1571927373775-clipPath1)" id="path91" ns1:connector-curvature="0" style="stroke:none" />
    </g>
    <g id="g93" style="text-rendering:geometricPrecision;fill:#000000;stroke:none">
      <path d="m 253.2971,223.6914 67.1203,38.7503 c 0.8025,0.4633 1.8282,0.1885 2.2915,-0.614 0.4633,-0.8025 0.1884,-1.8282 -0.6141,-2.2915 l -67.1202,-38.7503 c -0.8025,-0.4633 -1.8282,-0.1885 -2.2915,0.614 -0.4633,0.8025 -0.1885,1.8282 0.614,2.2915 z" clip-path="url(#1571927373775-clipPath1)" id="path95" ns1:connector-curvature="0" style="stroke:none" />
    </g>
    <g id="g97" style="text-rendering:geometricPrecision;fill:#000000;stroke:none">
      <path d="m 118.2159,377.2627 0.0203,77.4983 c 3e-4,0.9267 0.7513,1.6773 1.6779,1.677 0.9267,-2e-4 1.6773,-0.7512 1.6771,-1.6779 l -0.0204,-77.4983 c -2e-4,-0.9266 -0.7513,-1.6773 -1.6779,-1.677 -0.9266,2e-4 -1.6773,0.7513 -1.677,1.6779 z" clip-path="url(#1571927373775-clipPath1)" id="path99" ns1:connector-curvature="0" style="stroke:none" />
    </g>
    <g id="g101" style="text-rendering:geometricPrecision;fill:#000000;stroke:none">
      <path d="m 119.075,456.2133 67.1162,38.748 c 0.8025,0.4633 1.8281,0.1884 2.2915,-0.614 0.4633,-0.8025 0.1884,-1.8282 -0.6141,-2.2915 l -67.1162,-38.748 c -0.8025,-0.4633 -1.8282,-0.1884 -2.2915,0.614 -0.4633,0.8025 -0.1884,1.8282 0.6141,2.2915 z" clip-path="url(#1571927373775-clipPath1)" id="path103" ns1:connector-curvature="0" style="stroke:none" />
    </g>
    <g id="g105" style="text-rendering:geometricPrecision;fill:#000000;stroke:none">
      <path d="m 187.6423,475.0746 c -0.8024,0.4635 -1.0771,1.4892 -0.6137,2.2916 0.4635,0.8024 1.4892,1.0771 2.2916,0.6137 l 50.2356,-29.0129 c 0.8024,-0.4635 1.0771,-1.4892 0.6137,-2.2916 -0.4635,-0.8024 -1.4892,-1.0771 -2.2916,-0.6137 z m -1.4514,16.9813 c -0.8024,0.4634 -1.0771,1.4892 -0.6136,2.2916 0.4634,0.8024 1.4891,1.0771 2.2915,0.6137 l 67.1203,-38.7645 c 0.8024,-0.4634 1.0771,-1.4891 0.6137,-2.2915 -0.4635,-0.8024 -1.4892,-1.0771 -2.2916,-0.6137 z" clip-path="url(#1571927373775-clipPath1)" id="path107" ns1:connector-curvature="0" style="stroke:none" />
    </g>
    <g id="g109" style="text-rendering:geometricPrecision;fill:#000000;stroke:none">
      <path d="m 186.1767,337.0464 -67.1223,38.7632 c -0.8024,0.4634 -1.0771,1.4891 -0.6137,2.2916 0.4634,0.8024 1.4891,1.0771 2.2915,0.6137 l 67.1223,-38.7632 c 0.8025,-0.4634 1.0772,-1.4892 0.6137,-2.2916 -0.4633,-0.8024 -1.4891,-1.0772 -2.2915,-0.6137 z" clip-path="url(#1571927373775-clipPath1)" id="path111" ns1:connector-curvature="0" style="stroke:none" />
    </g>
    <g id="g113" style="text-rendering:geometricPrecision;fill:#000000;stroke:none">
      <path d="m 252.4584,377.2402 0.0142,77.5042 c 2e-4,0.9267 0.7512,1.6774 1.6778,1.6772 0.9267,-2e-4 1.6774,-0.7512 1.6772,-1.6778 l -0.0142,-77.5042 c -2e-4,-0.9266 -0.7512,-1.6773 -1.6778,-1.6772 -0.9267,2e-4 -1.6774,0.7512 -1.6772,1.6778 z" clip-path="url(#1571927373755-clipPath1)" id="path115" ns1:connector-curvature="0" style="stroke:none" />
    </g>
    <g id="g117" style="text-rendering:geometricPrecision;fill:#000000;stroke:none">
      <path d="m 187.0156,338.499 -1.5954,0.5184 13.86,71.1564 12.3252,4.0047 12.3251,4.0047 -35.3195,-80.2026 z" clip-path="url(#1571927373775-clipPath1)" id="path119" ns1:connector-curvature="0" style="stroke:none" />
    </g>
    <g id="g121" style="fill:#333399;stroke:none;text-rendering:geometricPrecision">
      <path d="m 321.2561,338.499 -1.4527,0.8387 21.7398,55.2684 9.0798,-5.2422 9.0798,-5.2422 -36.9939,-46.4615 z" clip-path="url(#1571927373775-clipPath1)" id="path123" ns1:connector-curvature="0" style="stroke:none" />
      <path d="m 321.2561,338.499 -1.4527,0.8387 21.7398,55.2684 9.0798,-5.2422 9.0798,-5.2422 -36.9939,-46.4615 z" clip-path="url(#1571927373769-clipPath1)" id="path125" ns1:connector-curvature="0" style="fill:#000000;stroke:none" />
    </g>
    <g id="g127" style="text-rendering:geometricPrecision;fill:#000000;stroke:none">
      <path d="m 210.4462,413.8019 73.7075,23.949 c 0.8813,0.2863 1.8275,-0.1957 2.1138,-1.077 0.2864,-0.8813 -0.1957,-1.8274 -1.077,-2.1138 l -73.7075,-23.949 c -0.8813,-0.2863 -1.8274,0.1958 -2.1138,1.077 -0.2863,0.8813 0.1958,1.8274 1.077,2.1138 z" clip-path="url(#1571927373775-clipPath1)" id="path129" ns1:connector-curvature="0" style="stroke:none" />
    </g>
    <g id="g131" style="text-rendering:geometricPrecision;fill:#000000;stroke:none">
      <path d="m 344.7932,409.9736 -60.7513,24.6273 c -0.8587,0.3481 -1.2725,1.3261 -0.9244,2.1848 0.3481,0.8588 1.3261,1.2726 2.1848,0.9244 l 60.7513,-24.6273 c 0.8588,-0.3482 1.2726,-1.3261 0.9245,-2.1848 -0.3482,-0.8588 -1.3261,-1.2725 -2.1849,-0.9244 z" clip-path="url(#1571927373775-clipPath1)" id="path133" ns1:connector-curvature="0" style="stroke:none" />
      <path d="m 344.7932,409.9736 -60.7513,24.6273 c -0.8587,0.3481 -1.2725,1.3261 -0.9244,2.1848 0.3481,0.8588 1.3261,1.2726 2.1848,0.9244 l 60.7513,-24.6273 c 0.8588,-0.3482 1.2726,-1.3261 0.9245,-2.1848 -0.3482,-0.8588 -1.3261,-1.2725 -2.1849,-0.9244 z" clip-path="url(#1571927373296-clipPath1)" id="path135" ns1:connector-curvature="0" style="fill:#333399;stroke:none" />
    </g>
    <g id="g137" style="fill:#333333;stroke:none;text-rendering:geometricPrecision">
      <path d="m 254.1359,377.2399 1.6775,0 8.8069,-58.1442 -10.4844,0 -10.4844,0 8.8069,58.1442 z" clip-path="url(#1571927373775-clipPath1)" id="path139" ns1:connector-curvature="0" style="stroke:none" />
      <path d="m 254.1359,377.2399 1.6775,0 8.8069,-58.1442 -10.4844,0 -10.4844,0 8.8069,58.1442 z" clip-path="url(#1571927373542-clipPath1)" id="path141" ns1:connector-curvature="0" style="fill:#000000;stroke:none" />
    </g>
    <g id="g143" style="fill:#ff0000;stroke:none;text-rendering:geometricPrecision">
      <path d="m 118.3723,221.5563 -23.4406,52.6484 c -0.3769,0.8465 0.0036,1.8379 0.8502,2.2148 0.8465,0.3769 1.8378,-0.004 2.2147,-0.8502 l 23.4406,-52.6484 c 0.3769,-0.8465 -0.004,-1.8378 -0.8502,-2.2147 -0.8465,-0.3769 -1.8378,0.004 -2.2147,0.8501 z" clip-path="url(#1571927373775-clipPath1)" id="path145" ns1:connector-curvature="0" style="stroke:none" />
      <path d="m 118.3723,221.5563 -23.4406,52.6484 c -0.3769,0.8465 0.0036,1.8379 0.8502,2.2148 0.8465,0.3769 1.8378,-0.004 2.2147,-0.8502 l 23.4406,-52.6484 c 0.3769,-0.8465 -0.004,-1.8378 -0.8502,-2.2147 -0.8465,-0.3769 -1.8378,0.004 -2.2147,0.8501 z" clip-path="url(#157192737380-clipPath1)" id="path147" ns1:connector-curvature="0" style="fill:#000000;stroke:none" />
    </g>
    <g id="g149" style="fill:#ff0000;stroke:none;text-rendering:geometricPrecision">
      <path d="m 116.3478,374.0927 1.573,2.9935 0,0 3.3451,-1.2515 0,0 -0.7782,-3.2909 0,0 -4.1399,1.5489 z m -5.1125,-9.7292 1.5731,2.9936 0,0 5.9283,-2.218 -0.7782,-3.291 0,0 -6.7232,2.5154 z m -5.1124,-9.7291 1.5731,2.9935 0,0 8.5115,-3.1844 0,0 -0.7782,-3.291 0,0 -9.3064,3.4819 z m -5.1124,-9.7292 1.573,2.9936 11.0948,-4.151 -0.7782,-3.2909 0,0 -11.8896,4.4483 z m -5.1125,-9.7291 1.5731,2.9935 13.678,-5.1174 -0.7783,-3.2909 -14.4728,5.4148 z m -5.1124,-9.7292 1.5731,2.9936 16.2612,-6.0839 0,0 -0.7783,-3.291 -17.056,6.3813 z m -5.1124,-9.7291 1.573,2.9935 0,0 18.8444,-7.0503 0,0 -0.7782,-3.291 -9.8196,3.6739 -9.8196,3.6739 z" clip-path="url(#1571927373775-clipPath1)" id="path151" ns1:connector-curvature="0" style="stroke:none" />
      <path d="m 116.3478,374.0927 1.573,2.9935 0,0 3.3451,-1.2515 0,0 -0.7782,-3.2909 0,0 -4.1399,1.5489 z m -5.1125,-9.7292 1.5731,2.9936 0,0 5.9283,-2.218 -0.7782,-3.291 0,0 -6.7232,2.5154 z m -5.1124,-9.7291 1.5731,2.9935 0,0 8.5115,-3.1844 0,0 -0.7782,-3.291 0,0 -9.3064,3.4819 z m -5.1124,-9.7292 1.573,2.9936 11.0948,-4.151 -0.7782,-3.2909 0,0 -11.8896,4.4483 z m -5.1125,-9.7291 1.5731,2.9935 13.678,-5.1174 -0.7783,-3.2909 -14.4728,5.4148 z m -5.1124,-9.7292 1.5731,2.9936 16.2612,-6.0839 0,0 -0.7783,-3.291 -17.056,6.3813 z m -5.1124,-9.7291 1.573,2.9935 0,0 18.8444,-7.0503 0,0 -0.7782,-3.291 -9.8196,3.6739 -9.8196,3.6739 z" clip-path="url(#1571927373460-clipPath1)" id="path153" ns1:connector-curvature="0" style="fill:#000000;stroke:none" />
    </g>
    <g id="g155" style="fill:#ff0000;stroke:none;text-rendering:geometricPrecision">
      <path d="m 120.0798,456.759 0.6728,-0.5458 -0.8389,-1.4526 -0.8389,-1.4526 -0.8091,0.31 0,0 1.8141,3.141 z m -8.5749,6.9549 2.6384,-2.14 -3.0149,-5.2202 0,0 -3.1721,1.2158 0,0 3.5486,6.1444 z m -8.5749,6.9549 2.6384,-2.14 -4.7494,-8.2237 0,0 -3.1721,1.2159 0,0 5.2831,9.1478 z m -8.5748,6.9549 2.6384,-2.14 0,0 -6.4841,-11.227 0,0 -3.1721,1.2158 0,0 7.0178,12.1512 z m -8.5749,6.9549 2.6384,-2.14 -8.2186,-14.2305 -3.1721,1.2159 0,0 8.7523,15.1546 z m -8.5748,6.9549 2.6384,-2.14 0,0 -9.9533,-17.2339 -3.1721,1.2158 5.2435,9.0791 5.2435,9.079 z" clip-path="url(#1571927373775-clipPath1)" id="path157" ns1:connector-curvature="0" style="stroke:none" />
      <path d="m 120.0798,456.759 0.6728,-0.5458 -0.8389,-1.4526 -0.8389,-1.4526 -0.8091,0.31 0,0 1.8141,3.141 z m -8.5749,6.9549 2.6384,-2.14 -3.0149,-5.2202 0,0 -3.1721,1.2158 0,0 3.5486,6.1444 z m -8.5749,6.9549 2.6384,-2.14 -4.7494,-8.2237 0,0 -3.1721,1.2159 0,0 5.2831,9.1478 z m -8.5748,6.9549 2.6384,-2.14 0,0 -6.4841,-11.227 0,0 -3.1721,1.2158 0,0 7.0178,12.1512 z m -8.5749,6.9549 2.6384,-2.14 -8.2186,-14.2305 -3.1721,1.2159 0,0 8.7523,15.1546 z m -8.5748,6.9549 2.6384,-2.14 0,0 -9.9533,-17.2339 -3.1721,1.2158 5.2435,9.0791 5.2435,9.079 z" clip-path="url(#1571927373195-clipPath1)" id="path159" ns1:connector-curvature="0" style="fill:#000000;stroke:none" />
    </g>
    <g id="g161" style="fill:#ff0000;stroke:none;text-rendering:geometricPrecision">
      <path d="m 120.7434,143.2758 -47.598,-27.4794 c -0.8025,-0.4633 -1.8282,-0.1884 -2.2915,0.6141 -0.4633,0.8025 -0.1885,1.8281 0.614,2.2914 l 47.5981,27.4795 c 0.8025,0.4632 1.8282,0.1884 2.2915,-0.6141 0.4633,-0.8025 0.1884,-1.8282 -0.6141,-2.2915 z" clip-path="url(#1571927373775-clipPath1)" id="path163" ns1:connector-curvature="0" style="stroke:none" />
      <path d="m 120.7434,143.2758 -47.598,-27.4794 c -0.8025,-0.4633 -1.8282,-0.1884 -2.2915,0.6141 -0.4633,0.8025 -0.1885,1.8281 0.614,2.2914 l 47.5981,27.4795 c 0.8025,0.4632 1.8282,0.1884 2.2915,-0.6141 0.4633,-0.8025 0.1884,-1.8282 -0.6141,-2.2915 z" clip-path="url(#1571927373694-clipPath1)" id="path165" ns1:connector-curvature="0" style="fill:#000000;stroke:none" />
    </g>
    <g id="g167" style="text-rendering:geometricPrecision;fill:#000000;stroke:none">
      <path d="m 374.0865,412.2293 52.322,17.9819 c 0.8764,0.3012 1.8305,-0.1648 2.1317,-1.0412 0.3011,-0.8763 -0.1649,-1.8304 -1.0412,-2.1316 l -52.3221,-17.9819 c -0.8763,-0.3012 -1.8305,0.1648 -2.1316,1.0412 -0.3012,0.8763 0.1648,1.8304 1.0412,2.1316 z" clip-path="url(#1571927373775-clipPath1)" id="path169" ns1:connector-curvature="0" style="stroke:none" />
      <path d="m 374.0865,412.2293 52.322,17.9819 c 0.8764,0.3012 1.8305,-0.1648 2.1317,-1.0412 0.3011,-0.8763 -0.1649,-1.8304 -1.0412,-2.1316 l -52.3221,-17.9819 c -0.8763,-0.3012 -1.8305,0.1648 -2.1316,1.0412 -0.3012,0.8763 0.1648,1.8304 1.0412,2.1316 z" clip-path="url(#1571927373394-clipPath1)" id="path171" ns1:connector-curvature="0" style="fill:#333399;stroke:none" />
    </g>
    <g id="g173" style="fill:#ffffff;stroke:none;text-rendering:geometricPrecision">
      </g>
    <g font-size="27px" transform="translate(349.7721,389.6165)" id="g177" style="font-size:27px;font-family:sans-serif;fill:#333399;stroke:none;text-rendering:geometricPrecision">
      <text x="0" xml:space="preserve" y="26" clip-path="url(#1571927373389-clipPath1)" id="text179" style="stroke:none">N</text>
    </g>
    <g font-size="27px" id="g181" style="font-size:27px;font-family:sans-serif;fill:#ffffff;stroke:none;text-rendering:geometricPrecision">
      <text x="0" y="26" transform="translate(243.9484,283.7393)" clip-path="url(#1571927373567-clipPath1)" xml:space="preserve" id="text185" style="fill:#333333;stroke:none">H</text>
    </g>
    <g font-size="27px" id="g187" style="font-size:27px;font-family:sans-serif;fill:#ffffff;stroke:none;text-rendering:geometricPrecision">
      <text x="0" y="26" transform="translate(77.9214,277.039)" clip-path="url(#1571927373691-clipPath1)" xml:space="preserve" id="text191" style="fill:#ff0000;stroke:none">O</text>
    </g>
    <g font-size="27px" id="g193" style="font-size:27px;font-family:sans-serif;fill:#ffffff;stroke:none;text-rendering:geometricPrecision">
      <text x="0" y="26" transform="translate(26.9657,477.5203)" clip-path="url(#1571927373665-clipPath1)" xml:space="preserve" id="text197" style="fill:#ff0000;stroke:none">HO</text>
    </g>
    <g font-size="27px" id="g199" style="font-size:27px;font-family:sans-serif;fill:#ffffff;stroke:none;text-rendering:geometricPrecision">
      <text x="0" y="26" transform="translate(26.9504,89.9797)" clip-path="url(#1571927373520-clipPath1)" xml:space="preserve" id="text203" style="fill:#ff0000;stroke:none">HO</text>
    </g>
  </g>
</svg>