<?xml version='1.0' encoding='utf-8'?>
<svg xmlns="http://www.w3.org/2000/svg" xmlns:dc="http://purl.org/dc/elements/1.1/" xmlns:ns1="http://www.inkscape.org/namespaces/inkscape" xmlns:ns2="http://sodipodi.sourceforge.net/DTD/sodipodi-0.dtd" xmlns:ns4="http://creativecommons.org/ns#" xmlns:rdf="http://www.w3.org/1999/02/22-rdf-syntax-ns#" width="478.4899" stroke-miterlimit="10" font-weight="normal" height="373.04538" font-style="normal" font-size="12px" id="svg2" version="1.1" ns1:version="0.91 r13725" ns2:docname="N-ethyl-nor-hexedrone.svg" style="font-style:normal;font-weight:normal;font-size:12px;font-family:Dialog;color-interpolation:auto;fill:#000000;fill-opacity:1;stroke:none;stroke:none;stroke:none;stroke:none;stroke:none;stroke:none;stroke:none;stroke:none;color-rendering:auto;image-rendering:auto;shape-rendering:auto;text-rendering:auto">
  <metadata id="metadata119">
    <rdf:RDF>
      <ns4:Work rdf:about="">
        <dc:format>image/svg+xml</dc:format>
        <dc:type rdf:resource="http://purl.org/dc/dcmitype/StillImage" />
        <dc:title />
      </ns4:Work>
    </rdf:RDF>
  </metadata>
  <ns2:namedview pagecolor="#ffffff" bordercolor="#666666" borderopacity="1" objecttolerance="10" gridtolerance="10" guidetolerance="10" ns1:pageopacity="0" ns1:pageshadow="2" ns1:window-width="1060" ns1:window-height="480" id="namedview117" showgrid="false" fit-margin-top="10" fit-margin-left="10" fit-margin-right="10" fit-margin-bottom="10" ns1:zoom="0.36375" ns1:cx="204.17971" ns1:cy="90.473083" ns1:window-x="0" ns1:window-y="0" ns1:window-maximized="0" ns1:current-layer="svg2" />
  
  <defs id="genericDefs" />
  <g id="g5" transform="translate(-195.82029,-17.4277)" style="fill:#000000;stroke:none">
    <defs id="1138334691359-defs1">
      <clipPath clipPathUnits="userSpaceOnUse" id="1138334691318-clipPath1">
        <path d="M 0,0 800,0 800,600 0,600 0,0 Z" id="path9" ns1:connector-curvature="0" style="stroke:none" />
      </clipPath>
      <clipPath clipPathUnits="userSpaceOnUse" id="1138334691160-clipPath1">
        <path d="m 405.0007,87.8152 c -15.5743,0 -28.1997,12.6255 -28.1997,28.1997 0,15.5743 12.6254,28.1998 28.1997,28.1998 15.5743,0 28.1997,-12.6255 28.1997,-28.1998 0,-15.5742 -12.6254,-28.1997 -28.1997,-28.1997 z" id="path12" ns1:connector-curvature="0" style="stroke:none" />
      </clipPath>
      <clipPath clipPathUnits="userSpaceOnUse" id="1138334691382-clipPath1">
        <path d="m 470.8398,124.0674 c -16.5489,0 -29.9644,13.4154 -29.9644,29.9643 0,16.5488 13.4155,29.9643 29.9644,29.9643 16.5488,0 29.9643,-13.4155 29.9643,-29.9643 0,-16.5489 -13.4155,-29.9643 -29.9643,-29.9643 z" id="path15" ns1:connector-curvature="0" style="stroke:none" />
      </clipPath>
      <clipPath clipPathUnits="userSpaceOnUse" id="1138334691176-clipPath1">
        <path d="m 550.6239,94.1075 c -16.5488,0 -29.9642,13.4154 -29.9642,29.9641 0,16.5488 13.4154,29.9642 29.9642,29.9642 16.5488,0 29.9642,-13.4154 29.9642,-29.9642 0,-16.5487 -13.4154,-29.9641 -29.9642,-29.9641 z" id="path18" ns1:connector-curvature="0" style="stroke:none" />
      </clipPath>
      <clipPath clipPathUnits="userSpaceOnUse" id="113833469151-clipPath1">
        <path d="m -394.3796,-23.9882 800,0 0,600 -800,0 0,-600 z" id="path21" ns1:connector-curvature="0" style="stroke:none" />
      </clipPath>
      <clipPath clipPathUnits="userSpaceOnUse" id="1138334691766-clipPath1">
        <path d="m -526.7307,-72.8694 800,0 0,600 -800,0 0,-600 z" id="path24" ns1:connector-curvature="0" style="stroke:none" />
      </clipPath>
      <clipPath clipPathUnits="userSpaceOnUse" id="1138334691593-clipPath1">
        <path d="m -526.7297,-100.0218 800.0001,0 0,600 -800.0001,0 0,-600 z" id="path27" ns1:connector-curvature="0" style="stroke:none" />
      </clipPath>
    </defs>
    <g id="g29" style="text-rendering:geometricPrecision;fill:#000000;stroke:none">
      <path d="m 205.8207,230.0454 c 0,0.909 0.7365,1.6456 1.6455,1.6456 0.9091,0 1.6456,-0.7366 1.6456,-1.6456 l 0,-76.0359 c 0,-0.909 -0.7365,-1.6456 -1.6456,-1.6456 -0.909,0 -1.6455,0.7366 -1.6455,1.6456 z m 13.7133,-9.5634 c 0,0.9091 0.7366,1.6456 1.6456,1.6456 0.909,0 1.6455,-0.7365 1.6455,-1.6456 l 0,-56.9085 c 0,-0.9091 -0.7365,-1.6456 -1.6455,-1.6456 -0.909,0 -1.6456,0.7365 -1.6456,1.6456 z" clip-path="url(#1138334691318-clipPath1)" id="path31" ns1:connector-curvature="0" style="stroke:none" />
    </g>
    <g id="g33" style="text-rendering:geometricPrecision;fill:#000000;stroke:none">
      <path d="m 273.9165,249.9767 c -0.7873,0.4544 -1.0569,1.4606 -0.6025,2.2478 0.4544,0.7873 1.4606,1.057 2.2479,0.6026 l 49.2758,-28.4438 c 0.7873,-0.4545 1.057,-1.4606 0.6025,-2.2479 -0.4544,-0.7872 -1.4606,-1.0569 -2.2478,-0.6025 z m -1.4255,16.6568 c -0.7873,0.4545 -1.057,1.4606 -0.6025,2.2479 0.4544,0.7873 1.4606,1.057 2.2478,0.6025 l 65.8394,-38.0048 c 0.7873,-0.4545 1.057,-1.4606 0.6025,-2.2479 -0.4544,-0.7872 -1.4606,-1.0569 -2.2478,-0.6025 z" clip-path="url(#1138334691318-clipPath1)" id="path35" ns1:connector-curvature="0" style="stroke:none" />
    </g>
    <g id="g37" style="text-rendering:geometricPrecision;fill:#000000;stroke:none">
      <path d="m 340.7986,230.054 0.005,-76.029 c 0,-0.909 -0.7365,-1.6457 -1.6455,-1.6457 -0.9091,-1e-4 -1.6457,0.7365 -1.6457,1.6455 l -0.005,76.029 c -1e-4,0.909 0.7365,1.6456 1.6455,1.6457 0.909,0 1.6456,-0.7365 1.6456,-1.6455 z" clip-path="url(#1138334691318-clipPath1)" id="path39" ns1:connector-curvature="0" style="stroke:none" />
    </g>
    <g id="g41" style="text-rendering:geometricPrecision;fill:#000000;stroke:none">
      <path d="m 323.196,162.5438 c 0.7872,0.4546 1.7933,0.185 2.2479,-0.6022 0.4545,-0.7872 0.1849,-1.7934 -0.6023,-2.248 L 275.557,131.2363 c -0.7872,-0.4545 -1.7934,-0.185 -2.2479,0.6022 -0.4546,0.7873 -0.185,1.7934 0.6022,2.248 z m 15.1388,-7.0938 c 0.7872,0.4545 1.7934,0.1849 2.2479,-0.6023 0.4546,-0.7872 0.185,-1.7934 -0.6022,-2.2479 L 274.1331,114.579 c -0.7872,-0.4545 -1.7934,-0.185 -2.2479,0.6022 -0.4545,0.7872 -0.185,1.7934 0.6022,2.248 z" clip-path="url(#1138334691318-clipPath1)" id="path43" ns1:connector-curvature="0" style="stroke:none" />
    </g>
    <g id="g45" style="text-rendering:geometricPrecision;fill:#000000;stroke:none">
      <path d="m 206.6435,231.4705 65.8474,38.0134 c 0.7873,0.4545 1.7934,0.1848 2.2479,-0.6024 0.4545,-0.7873 0.1848,-1.7935 -0.6024,-2.2479 L 208.289,228.6202 c -0.7873,-0.4544 -1.7934,-0.1848 -2.2479,0.6025 -0.4545,0.7872 -0.1848,1.7934 0.6024,2.2478 z" clip-path="url(#1138334691318-clipPath1)" id="path47" ns1:connector-curvature="0" style="stroke:none" />
    </g>
    <g id="g49" style="text-rendering:geometricPrecision;fill:#000000;stroke:none">
      <path d="m 272.4876,114.5789 -65.844,38.0054 c -0.7873,0.4544 -1.057,1.4605 -0.6026,2.2478 0.4545,0.7873 1.4606,1.057 2.2479,0.6026 l 65.844,-38.0054 c 0.7873,-0.4544 1.057,-1.4606 0.6026,-2.2479 -0.4544,-0.7872 -1.4606,-1.0569 -2.2479,-0.6025 z" clip-path="url(#1138334691318-clipPath1)" id="path51" ns1:connector-curvature="0" style="stroke:none" />
    </g>
    <g id="g53" style="text-rendering:geometricPrecision;fill:#000000;stroke:none">
      <path d="m 339.9804,155.45 65.843,-38.0099 c 0.7873,-0.4545 1.0569,-1.4606 0.6024,-2.2479 -0.4544,-0.7872 -1.4606,-1.0569 -2.2478,-0.6024 l -65.843,38.0099 c -0.7873,0.4545 -1.057,1.4606 -0.6025,2.2479 0.4545,0.7872 1.4606,1.0569 2.2479,0.6024 z" clip-path="url(#1138334691318-clipPath1)" id="path55" ns1:connector-curvature="0" style="stroke:none" />
    </g>
    <g id="g57" style="text-rendering:geometricPrecision;fill:#000000;stroke:none">
      <path d="m 404.1778,117.44 65.8391,38.0168 c 0.7872,0.4545 1.7934,0.185 2.2479,-0.6022 0.4546,-0.7872 0.185,-1.7934 -0.6022,-2.248 l -65.8391,-38.0167 c -0.7872,-0.4546 -1.7933,-0.185 -2.2479,0.6022 -0.4545,0.7872 -0.185,1.7934 0.6022,2.2479 z" clip-path="url(#1138334691318-clipPath1)" id="path59" ns1:connector-curvature="0" style="stroke:none" />
    </g>
    <g id="g61" style="fill:#ff0000;stroke:none;text-rendering:geometricPrecision">
      <path d="m 396.4982,119.9732 c 0,0.909 0.7365,1.6456 1.6455,1.6457 0.909,0 1.6457,-0.7365 1.6457,-1.6455 l 0.003,-60.3582 c 1e-4,-0.909 -0.7365,-1.6456 -1.6455,-1.6456 -0.909,-1e-4 -1.6456,0.7364 -1.6456,1.6455 z m 13.7133,7e-4 c 0,0.909 0.7365,1.6456 1.6456,1.6457 0.909,0 1.6456,-0.7365 1.6456,-1.6455 l 0.003,-60.3582 c 0,-0.909 -0.7366,-1.6456 -1.6455,-1.6456 -0.9091,-1e-4 -1.6457,0.7365 -1.6457,1.6455 z" clip-path="url(#1138334691318-clipPath1)" id="path63" ns1:connector-curvature="0" style="stroke:none" />
      <path d="m 396.4982,119.9732 c 0,0.909 0.7365,1.6456 1.6455,1.6457 0.909,0 1.6457,-0.7365 1.6457,-1.6455 l 0.003,-60.3582 c 1e-4,-0.909 -0.7365,-1.6456 -1.6455,-1.6456 -0.909,-1e-4 -1.6456,0.7364 -1.6456,1.6455 z m 13.7133,7e-4 c 0,0.909 0.7365,1.6456 1.6456,1.6457 0.909,0 1.6456,-0.7365 1.6456,-1.6455 l 0.003,-60.3582 c 0,-0.909 -0.7366,-1.6456 -1.6455,-1.6456 -0.9091,-1e-4 -1.6457,0.7365 -1.6457,1.6455 z" clip-path="url(#1138334691160-clipPath1)" id="path65" ns1:connector-curvature="0" style="fill:#000000;stroke:none" />
    </g>
    <g id="g67" style="fill:#333399;stroke:none;text-rendering:geometricPrecision">
      <path d="m 471.6625,155.4568 51.9013,-29.9616 c 0.7872,-0.4545 1.0569,-1.4606 0.6025,-2.2479 -0.4545,-0.7872 -1.4607,-1.0569 -2.248,-0.6024 l -51.9012,29.9616 c -0.7873,0.4545 -1.057,1.4607 -0.6025,2.2479 0.4545,0.7873 1.4606,1.0569 2.2479,0.6024 z" clip-path="url(#1138334691318-clipPath1)" id="path69" ns1:connector-curvature="0" style="stroke:none" />
      <path d="m 471.6625,155.4568 51.9013,-29.9616 c 0.7872,-0.4545 1.0569,-1.4606 0.6025,-2.2479 -0.4545,-0.7872 -1.4607,-1.0569 -2.248,-0.6024 l -51.9012,29.9616 c -0.7873,0.4545 -1.057,1.4607 -0.6025,2.2479 0.4545,0.7873 1.4606,1.0569 2.2479,0.6024 z" clip-path="url(#1138334691382-clipPath1)" id="path71" ns1:connector-curvature="0" style="fill:#000000;stroke:none" />
    </g>
    <g id="g73" style="text-rendering:geometricPrecision;fill:#000000;stroke:none">
      <path d="m 549.801,125.4967 51.898,29.9669 c 0.7872,0.4545 1.7934,0.185 2.248,-0.6022 0.4545,-0.7872 0.1849,-1.7934 -0.6023,-2.248 l -51.8979,-29.9668 c -0.7872,-0.4546 -1.7934,-0.185 -2.2479,0.6022 -0.4546,0.7872 -0.185,1.7934 0.6021,2.2479 z" clip-path="url(#1138334691318-clipPath1)" id="path75" ns1:connector-curvature="0" style="stroke:none" />
      <path d="m 549.801,125.4967 51.898,29.9669 c 0.7872,0.4545 1.7934,0.185 2.248,-0.6022 0.4545,-0.7872 0.1849,-1.7934 -0.6023,-2.248 l -51.8979,-29.9668 c -0.7872,-0.4546 -1.7934,-0.185 -2.2479,0.6022 -0.4546,0.7872 -0.185,1.7934 0.6021,2.2479 z" clip-path="url(#1138334691176-clipPath1)" id="path77" ns1:connector-curvature="0" style="fill:#333399;stroke:none" />
    </g>
    <g id="g79" style="text-rendering:geometricPrecision;fill:#000000;stroke:none">
      <path d="m 603.3446,155.4637 60.1423,-34.7191 c 0.7873,-0.4545 1.057,-1.4606 0.6025,-2.2479 -0.4545,-0.7872 -1.4606,-1.0569 -2.2479,-0.6024 l -60.1423,34.7191 c -0.7873,0.4544 -1.057,1.4606 -0.6025,2.2478 0.4544,0.7873 1.4606,1.0569 2.2479,0.6025 z" clip-path="url(#1138334691318-clipPath1)" id="path81" ns1:connector-curvature="0" style="stroke:none" />
    </g>
    <g id="g83" style="text-rendering:geometricPrecision;fill:#000000;stroke:none">
      <path d="m 469.1942,154.0316 -0.004,76.0267 c 0,0.909 0.7365,1.6456 1.6455,1.6457 0.9091,0 1.6457,-0.7365 1.6457,-1.6455 l 0.004,-76.0267 c 0,-0.909 -0.7365,-1.6456 -1.6456,-1.6457 -0.909,0 -1.6456,0.7365 -1.6456,1.6455 z" clip-path="url(#1138334691318-clipPath1)" id="path85" ns1:connector-curvature="0" style="stroke:none" />
    </g>
    <g id="g87" style="text-rendering:geometricPrecision;fill:#000000;stroke:none">
      <path d="m 470.013,231.4835 65.8391,38.0167 c 0.7871,0.4546 1.7933,0.185 2.2479,-0.6022 0.4545,-0.7872 0.185,-1.7934 -0.6023,-2.2479 l -65.839,-38.0168 c -0.7872,-0.4545 -1.7934,-0.185 -2.248,0.6022 -0.4545,0.7872 -0.1849,1.7934 0.6023,2.248 z" clip-path="url(#1138334691318-clipPath1)" id="path89" ns1:connector-curvature="0" style="stroke:none" />
    </g>
    <g id="g91" style="text-rendering:geometricPrecision;fill:#000000;stroke:none">
      <path d="m 535.0293,268.0751 -0.004,76.0266 c -10e-5,0.9091 0.7364,1.6457 1.6455,1.6457 0.909,10e-5 1.6456,-0.7365 1.6456,-1.6455 l 0.004,-76.0267 c 1e-4,-0.909 -0.7365,-1.6456 -1.6455,-1.6456 -0.909,-10e-5 -1.6456,0.7364 -1.6457,1.6455 z" clip-path="url(#1138334691318-clipPath1)" id="path93" ns1:connector-curvature="0" style="stroke:none" />
    </g>
    <g id="g95" style="text-rendering:geometricPrecision;fill:#000000;stroke:none">
      <path d="m 535.8481,345.5269 60.1388,34.7253 c 0.7872,0.4546 1.7934,0.185 2.2479,-0.6022 0.4546,-0.7872 0.185,-1.7934 -0.6022,-2.2479 l -60.1388,-34.7253 c -0.7872,-0.4546 -1.7934,-0.185 -2.2479,0.6022 -0.4546,0.7872 -0.185,1.7934 0.6022,2.2479 z" clip-path="url(#1138334691318-clipPath1)" id="path97" ns1:connector-curvature="0" style="stroke:none" />
    </g>
    <g id="g99" style="fill:#ffffff;stroke:none;text-rendering:geometricPrecision">
      </g>
    <g font-size="27px" transform="translate(394.3796,23.9882)" id="g103" style="font-size:27px;font-family:sans-serif;fill:#ff0000;stroke:none;text-rendering:geometricPrecision">
      <text x="0" xml:space="preserve" y="26" clip-path="url(#113833469151-clipPath1)" id="text105" style="stroke:none">O</text>
    </g>
    <g font-size="27px" id="g107" style="font-size:27px;font-family:sans-serif;fill:#ffffff;stroke:none;text-rendering:geometricPrecision">
      <text x="0" y="26" transform="translate(526.7307,72.8694)" clip-path="url(#1138334691766-clipPath1)" xml:space="preserve" id="text111" style="fill:#333399;stroke:none">H</text>
    </g>
    <g font-size="27px" transform="translate(526.7297,100.0218)" id="g113" style="font-size:27px;font-family:sans-serif;fill:#333399;stroke:none;text-rendering:geometricPrecision">
      <text x="0" xml:space="preserve" y="26" clip-path="url(#1138334691593-clipPath1)" id="text115" style="stroke:none">N</text>
    </g>
  </g>
</svg>