<?xml version='1.0' encoding='utf-8'?>
<svg xmlns="http://www.w3.org/2000/svg" xmlns:dc="http://purl.org/dc/elements/1.1/" xmlns:ns1="http://www.inkscape.org/namespaces/inkscape" xmlns:ns2="http://sodipodi.sourceforge.net/DTD/sodipodi-0.dtd" xmlns:ns4="http://creativecommons.org/ns#" xmlns:rdf="http://www.w3.org/1999/02/22-rdf-syntax-ns#" width="780.92316" stroke-miterlimit="10" font-weight="normal" height="327.59949" font-style="normal" font-size="12px" id="svg2" version="1.1" ns1:version="0.91 r13725" ns2:docname="Nefazodone.svg" style="font-style:normal;font-weight:normal;font-size:12px;font-family:Dialog;color-interpolation:auto;fill:#f0abfc;fill-opacity:1;stroke:none;stroke:none;stroke:none;stroke:none;stroke:none;stroke:none;stroke:none;stroke:none;color-rendering:auto;image-rendering:auto;shape-rendering:auto;text-rendering:auto">
  <metadata id="metadata311">
    <rdf:RDF>
      <ns4:Work rdf:about="">
        <dc:format>image/svg+xml</dc:format>
        <dc:type rdf:resource="http://purl.org/dc/dcmitype/StillImage" />
        <dc:title />
      </ns4:Work>
    </rdf:RDF>
  </metadata>
  <ns2:namedview pagecolor="#eef2ff" bordercolor="#666666" borderopacity="1" objecttolerance="10" gridtolerance="10" guidetolerance="10" ns1:pageopacity="0" ns1:pageshadow="2" ns1:window-width="1060" ns1:window-height="480" id="namedview309" showgrid="false" fit-margin-top="10" fit-margin-left="10" fit-margin-right="10" fit-margin-bottom="10" ns1:zoom="0.36375" ns1:cx="390.46394" ns1:cy="160.91" ns1:window-x="0" ns1:window-y="0" ns1:window-maximized="0" ns1:current-layer="svg2" />
  
  <defs id="genericDefs" />
  <g id="g5" transform="translate(-9.5360576,-133.3105)" style="fill:#f0abfc;stroke:none">
    <defs id="440089502657-defs1">
      <clipPath clipPathUnits="userSpaceOnUse" id="440089502124-clipPath1">
        <path d="M 0,0 800,0 800,600 0,600 0,0 Z" id="path9" ns1:connector-curvature="0" style="stroke:none" />
      </clipPath>
      <clipPath clipPathUnits="userSpaceOnUse" id="440089502517-clipPath1">
        <path d="m 407.1808,373.0241 c -11.6967,0 -21.1787,9.4821 -21.1787,21.1788 0,11.6966 9.482,21.1787 21.1787,21.1787 11.6967,0 21.1787,-9.4821 21.1787,-21.1787 0,-11.6967 -9.482,-21.1788 -21.1787,-21.1788 z" id="path12" ns1:connector-curvature="0" style="stroke:none" />
      </clipPath>
      <clipPath clipPathUnits="userSpaceOnUse" id="440089502188-clipPath1">
        <path d="m 500.2084,373.0241 c -11.6967,0 -21.1788,9.4821 -21.1788,21.1788 0,11.6966 9.4821,21.1787 21.1788,21.1787 11.6966,0 21.1787,-9.4821 21.1787,-21.1787 0,-11.6967 -9.4821,-21.1788 -21.1787,-21.1788 z" id="path15" ns1:connector-curvature="0" style="stroke:none" />
      </clipPath>
      <clipPath clipPathUnits="userSpaceOnUse" id="440089502441-clipPath1">
        <path d="m 350.696,350.3882 c -11.8178,0 -21.3981,9.5802 -21.3981,21.3981 0,11.8178 9.5803,21.3981 21.3981,21.3981 11.8179,0 21.3981,-9.5803 21.3981,-21.3981 0,-11.8179 -9.5802,-21.3981 -21.3981,-21.3981 z" id="path18" ns1:connector-curvature="0" style="stroke:none" />
      </clipPath>
      <clipPath clipPathUnits="userSpaceOnUse" id="440089502469-clipPath1">
        <path d="m 556.5532,351.8448 c -11.6971,0 -21.1795,9.4824 -21.1795,21.1796 0,11.6971 9.4824,21.1795 21.1795,21.1795 11.6972,0 21.1795,-9.4824 21.1795,-21.1795 0,-11.6972 -9.4823,-21.1796 -21.1795,-21.1796 z" id="path21" ns1:connector-curvature="0" style="stroke:none" />
      </clipPath>
      <clipPath clipPathUnits="userSpaceOnUse" id="440089502604-clipPath1">
        <path d="m 546.7219,333.8755 c -11.1774,0 -20.2385,9.0611 -20.2385,20.2385 0,11.1774 9.0611,20.2385 20.2385,20.2385 11.1774,0 20.2385,-9.0611 20.2385,-20.2385 0,-11.1774 -9.0611,-20.2385 -20.2385,-20.2385 z" id="path24" ns1:connector-curvature="0" style="stroke:none" />
      </clipPath>
      <clipPath clipPathUnits="userSpaceOnUse" id="44008950294-clipPath1">
        <path d="m 639.7563,347.1096 c -11.1766,0 -20.2369,9.0604 -20.2369,20.2369 0,11.1765 9.0603,20.2369 20.2369,20.2369 11.1765,0 20.2369,-9.0604 20.2369,-20.2369 0,-11.1765 -9.0604,-20.2369 -20.2369,-20.2369 z" id="path27" ns1:connector-curvature="0" style="stroke:none" />
      </clipPath>
      <clipPath clipPathUnits="userSpaceOnUse" id="44008950276-clipPath1">
        <path d="m 629.919,286.7835 c -11.6962,0 -21.1778,9.4816 -21.1778,21.1778 0,11.6962 9.4816,21.1778 21.1778,21.1778 11.6962,0 21.1778,-9.4816 21.1778,-21.1778 0,-11.6962 -9.4816,-21.1778 -21.1778,-21.1778 z" id="path30" ns1:connector-curvature="0" style="stroke:none" />
      </clipPath>
      <clipPath clipPathUnits="userSpaceOnUse" id="440089502476-clipPath1">
        <path d="m 649.5808,286.7839 c -11.6966,0 -21.1787,9.4821 -21.1787,21.1787 0,11.6967 9.4821,21.1788 21.1787,21.1788 11.6967,0 21.1787,-9.4821 21.1787,-21.1788 0,-11.6966 -9.482,-21.1787 -21.1787,-21.1787 z" id="path33" ns1:connector-curvature="0" style="stroke:none" />
      </clipPath>
      <clipPath clipPathUnits="userSpaceOnUse" id="440089502773-clipPath1">
        <path d="m 732.7776,186.4668 c -10.9111,0 -19.7562,8.8452 -19.7562,19.7563 0,10.911 8.8451,19.7562 19.7562,19.7562 10.9111,0 19.7562,-8.8452 19.7562,-19.7562 0,-10.9111 -8.8451,-19.7563 -19.7562,-19.7563 z" id="path36" ns1:connector-curvature="0" style="stroke:none" />
      </clipPath>
      <clipPath clipPathUnits="userSpaceOnUse" id="440089502977-clipPath1">
        <path d="m 302.5139,282.3424 c -11.2786,0 -20.4218,9.1432 -20.4218,20.4219 0,11.2786 9.1432,20.4218 20.4218,20.4218 11.2787,0 20.4219,-9.1432 20.4219,-20.4218 0,-11.2787 -9.1432,-20.4219 -20.4219,-20.4219 z" id="path39" ns1:connector-curvature="0" style="stroke:none" />
      </clipPath>
      <clipPath clipPathUnits="userSpaceOnUse" id="440089502489-clipPath1">
        <path d="m 283.9555,337.8366 c -11.4073,0 -20.6547,9.2474 -20.6547,20.6546 0,11.4073 9.2474,20.6547 20.6547,20.6547 11.4072,0 20.6546,-9.2474 20.6546,-20.6547 0,-11.4072 -9.2474,-20.6546 -20.6546,-20.6546 z" id="path42" ns1:connector-curvature="0" style="stroke:none" />
      </clipPath>
      <clipPath clipPathUnits="userSpaceOnUse" id="440089502339-clipPath1">
        <path d="m 344.9177,290.1034 c -11.9711,0 -21.6757,9.7045 -21.6757,21.6757 0,11.9711 9.7046,21.6757 21.6757,21.6757 11.9712,0 21.6757,-9.7046 21.6757,-21.6757 0,-11.9712 -9.7045,-21.6757 -21.6757,-21.6757 z" id="path45" ns1:connector-curvature="0" style="stroke:none" />
      </clipPath>
      <clipPath clipPathUnits="userSpaceOnUse" id="440089502800-clipPath1">
        <path d="m 311.5979,369.179 c -11.0512,0 -20.0099,8.9588 -20.0099,20.01 0,11.0512 8.9587,20.01 20.0099,20.01 11.0512,0 20.01,-8.9588 20.01,-20.01 0,-11.0512 -8.9588,-20.01 -20.01,-20.01 z" id="path48" ns1:connector-curvature="0" style="stroke:none" />
      </clipPath>
      <clipPath clipPathUnits="userSpaceOnUse" id="440089502245-clipPath1">
        <path d="m 265.663,328.4997 c -12.0559,0 -21.8291,9.7732 -21.8291,21.8291 0,12.0559 9.7732,21.8292 21.8291,21.8292 12.0559,0 21.8291,-9.7733 21.8291,-21.8292 0,-12.0559 -9.7732,-21.8291 -21.8291,-21.8291 z" id="path51" ns1:connector-curvature="0" style="stroke:none" />
      </clipPath>
      <clipPath clipPathUnits="userSpaceOnUse" id="440089502682-clipPath1">
        <path d="m 190.6736,290.2019 c -11.7305,0 -21.2399,9.5095 -21.2399,21.24 0,11.7305 9.5094,21.2399 21.2399,21.2399 11.7305,0 21.24,-9.5094 21.24,-21.2399 0,-11.7305 -9.5095,-21.24 -21.24,-21.24 z" id="path54" ns1:connector-curvature="0" style="stroke:none" />
      </clipPath>
      <clipPath clipPathUnits="userSpaceOnUse" id="440089502579-clipPath1">
        <path d="m 129.2914,286.014 c -11.0886,0 -20.0777,8.9891 -20.0777,20.0777 0,11.0886 8.9891,20.0777 20.0777,20.0777 11.0886,0 20.0777,-8.9891 20.0777,-20.0777 0,-11.0886 -8.9891,-20.0777 -20.0777,-20.0777 z" id="path57" ns1:connector-curvature="0" style="stroke:none" />
      </clipPath>
      <clipPath clipPathUnits="userSpaceOnUse" id="440089502602-clipPath1">
        <path d="m -353.4171,-355.3481 800,0 0,600 -800,0 0,-600 z" id="path60" ns1:connector-curvature="0" style="stroke:none" />
      </clipPath>
      <clipPath clipPathUnits="userSpaceOnUse" id="440089502670-clipPath1">
        <path d="m -539.4721,-355.3481 800,0 0,600 -800,0 0,-600 z" id="path63" ns1:connector-curvature="0" style="stroke:none" />
      </clipPath>
      <clipPath clipPathUnits="userSpaceOnUse" id="440089502818-clipPath1">
        <path d="m -347.7973,-301.9326 800,0 0,600 -800,0 0,-600 z" id="path66" ns1:connector-curvature="0" style="stroke:none" />
      </clipPath>
      <clipPath clipPathUnits="userSpaceOnUse" id="440089502193-clipPath1">
        <path d="m -268.4092,-337.278 800,0 0,600 -800,0 0,-600 z" id="path69" ns1:connector-curvature="0" style="stroke:none" />
      </clipPath>
      <clipPath clipPathUnits="userSpaceOnUse" id="440089502427-clipPath1">
        <path d="m -632.4997,-301.6386 800,0 0,600 -800,0 0,-600 z" id="path72" ns1:connector-curvature="0" style="stroke:none" />
      </clipPath>
      <clipPath clipPathUnits="userSpaceOnUse" id="440089502111-clipPath1">
        <path d="m -293.0075,-429.7245 800,0 0,600 -800,0 0,-600 z" id="path75" ns1:connector-curvature="0" style="stroke:none" />
      </clipPath>
      <clipPath clipPathUnits="userSpaceOnUse" id="440089502334-clipPath1">
        <path d="m -723.4345,-140.5136 800,0 0,600 -800,0 0,-600 z" id="path78" ns1:connector-curvature="0" style="stroke:none" />
      </clipPath>
      <clipPath clipPathUnits="userSpaceOnUse" id="440089502125-clipPath1">
        <path d="m -129.8366,-305.057 800,0 0,600 -800,0 0,-600 z" id="path81" ns1:connector-curvature="0" style="stroke:none" />
      </clipPath>
    </defs>
    <g id="g83" style="text-rendering:geometricPrecision;fill:#f0abfc;stroke:none">
      <path d="m 407.7621,395.2097 46.5137,-26.8548 c 0.5562,-0.3211 0.7467,-1.0319 0.4256,-1.588 -0.3211,-0.5562 -1.0319,-0.7466 -1.5881,-0.4256 l -46.5138,26.8548 c -0.5561,0.3211 -0.7466,1.0319 -0.4255,1.588 0.3211,0.5562 1.0319,0.7466 1.5881,0.4256 z" clip-path="url(#440089502124-clipPath1)" id="path85" ns1:connector-curvature="0" style="stroke:none" />
    </g>
    <g id="g87" style="text-rendering:geometricPrecision;fill:#f0abfc;stroke:none">
      <path d="m 453.1133,368.3549 46.5138,26.8548 c 0.5561,0.321 1.2669,0.1306 1.588,-0.4256 0.3211,-0.5561 0.1307,-1.2669 -0.4255,-1.588 l -46.5138,-26.8548 c -0.5561,-0.321 -1.2669,-0.1306 -1.588,0.4256 -0.3211,0.5561 -0.1306,1.2669 0.4255,1.588 z" clip-path="url(#440089502124-clipPath1)" id="path89" ns1:connector-curvature="0" style="stroke:none" />
    </g>
    <g id="g91" style="fill:#c4b5fd;stroke:none;text-rendering:geometricPrecision">
      <path d="m 407.7621,393.1961 -36.6826,-21.1787 c -0.5562,-0.3211 -1.267,-0.1307 -1.5881,0.4255 -0.3211,0.5561 -0.1306,1.2669 0.4255,1.588 l 36.6826,21.1788 c 0.5562,0.321 1.267,0.1306 1.5881,-0.4256 0.3211,-0.5561 0.1306,-1.2669 -0.4255,-1.588 z" clip-path="url(#440089502124-clipPath1)" id="path93" ns1:connector-curvature="0" style="stroke:none" />
      <path d="m 407.7621,393.1961 -36.6826,-21.1787 c -0.5562,-0.3211 -1.267,-0.1307 -1.5881,0.4255 -0.3211,0.5561 -0.1306,1.2669 0.4255,1.588 l 36.6826,21.1788 c 0.5562,0.321 1.267,0.1306 1.5881,-0.4256 0.3211,-0.5561 0.1306,-1.2669 -0.4255,-1.588 z" clip-path="url(#440089502517-clipPath1)" id="path95" ns1:connector-curvature="0" style="fill:#f0abfc;stroke:none" />
    </g>
    <g id="g97" style="fill:#c4b5fd;stroke:none;text-rendering:geometricPrecision">
      <path d="m 500.7896,395.2097 36.6826,-21.1788 c 0.5562,-0.3211 0.7467,-1.0319 0.4256,-1.588 -0.3211,-0.5562 -1.032,-0.7466 -1.5881,-0.4255 l -36.6826,21.1787 c -0.5561,0.3211 -0.7466,1.0319 -0.4255,1.588 0.3211,0.5562 1.0319,0.7466 1.588,0.4256 z" clip-path="url(#440089502124-clipPath1)" id="path99" ns1:connector-curvature="0" style="stroke:none" />
      <path d="m 500.7896,395.2097 36.6826,-21.1788 c 0.5562,-0.3211 0.7467,-1.0319 0.4256,-1.588 -0.3211,-0.5562 -1.032,-0.7466 -1.5881,-0.4255 l -36.6826,21.1787 c -0.5561,0.3211 -0.7466,1.0319 -0.4255,1.588 0.3211,0.5562 1.0319,0.7466 1.588,0.4256 z" clip-path="url(#440089502188-clipPath1)" id="path101" ns1:connector-curvature="0" style="fill:#f0abfc;stroke:none" />
    </g>
    <g id="g103" style="text-rendering:geometricPrecision;fill:#f0abfc;stroke:none">
      <path d="m 350.2233,370.7242 -39.0981,17.4028 c -0.5867,0.2611 -0.8505,0.9481 -0.5894,1.5348 0.2612,0.5866 0.9482,0.8504 1.5348,0.5893 l 39.0982,-17.4027 c 0.5866,-0.2612 0.8504,-0.9482 0.5893,-1.5349 -0.2612,-0.5866 -0.9481,-0.8504 -1.5348,-0.5893 z" clip-path="url(#440089502124-clipPath1)" id="path105" ns1:connector-curvature="0" style="stroke:none" />
      <path d="m 350.2233,370.7242 -39.0981,17.4028 c -0.5867,0.2611 -0.8505,0.9481 -0.5894,1.5348 0.2612,0.5866 0.9482,0.8504 1.5348,0.5893 l 39.0982,-17.4027 c 0.5866,-0.2612 0.8504,-0.9482 0.5893,-1.5349 -0.2612,-0.5866 -0.9481,-0.8504 -1.5348,-0.5893 z" clip-path="url(#440089502441-clipPath1)" id="path107" ns1:connector-curvature="0" style="fill:#c4b5fd;stroke:none" />
    </g>
    <g id="g109" style="text-rendering:geometricPrecision;fill:#f0abfc;stroke:none">
      <path d="m 303.5207,302.183 -26.8584,-46.5197 c -0.3211,-0.5561 -1.0319,-0.7466 -1.588,-0.4255 -0.5562,0.3211 -0.7466,1.0319 -0.4255,1.5881 l 26.8584,46.5196 c 0.3211,0.5561 1.0319,0.7466 1.588,0.4255 0.5562,-0.3211 0.7466,-1.0319 0.4255,-1.588 z" clip-path="url(#440089502124-clipPath1)" id="path111" ns1:connector-curvature="0" style="stroke:none" />
    </g>
    <g id="g113" style="text-rendering:geometricPrecision;fill:#f0abfc;stroke:none">
      <path d="m 593.8181,395.2113 46.5194,-26.858 c 0.5562,-0.3211 0.7466,-1.0319 0.4256,-1.5881 -0.3211,-0.5561 -1.032,-0.7466 -1.5881,-0.4255 l -46.5194,26.858 c -0.5562,0.3211 -0.7466,1.0319 -0.4256,1.5881 0.3211,0.5561 1.032,0.7466 1.5881,0.4255 z" clip-path="url(#440089502124-clipPath1)" id="path115" ns1:connector-curvature="0" style="stroke:none" />
    </g>
    <g id="g117" style="text-rendering:geometricPrecision;fill:#f0abfc;stroke:none">
      <path d="m 592.6593,285.7722 -46.5194,26.858 c -0.5561,0.3211 -0.7466,1.0319 -0.4255,1.5881 0.3211,0.5561 1.0319,0.7466 1.588,0.4255 l 46.5194,-26.858 c 0.5562,-0.3211 0.7467,-1.0319 0.4256,-1.588 -0.3211,-0.5562 -1.0319,-0.7467 -1.5881,-0.4256 z" clip-path="url(#440089502124-clipPath1)" id="path119" ns1:connector-curvature="0" style="stroke:none" />
    </g>
    <g id="g121" style="text-rendering:geometricPrecision;fill:#f0abfc;stroke:none">
      <path d="m 555.9719,374.0311 36.6837,21.1802 c 0.5561,0.3211 1.2669,0.1306 1.5881,-0.4255 0.321,-0.5562 0.1306,-1.267 -0.4256,-1.5881 l -36.6836,-21.1801 c -0.5561,-0.3211 -1.2669,-0.1307 -1.5881,0.4255 -0.3211,0.5561 -0.1306,1.2669 0.4255,1.588 z" clip-path="url(#440089502124-clipPath1)" id="path123" ns1:connector-curvature="0" style="stroke:none" />
      <path d="m 555.9719,374.0311 36.6837,21.1802 c 0.5561,0.3211 1.2669,0.1306 1.5881,-0.4255 0.321,-0.5562 0.1306,-1.267 -0.4256,-1.5881 l -36.6836,-21.1801 c -0.5561,-0.3211 -1.2669,-0.1307 -1.5881,0.4255 -0.3211,0.5561 -0.1306,1.2669 0.4255,1.588 z" clip-path="url(#440089502469-clipPath1)" id="path125" ns1:connector-curvature="0" style="fill:#c4b5fd;stroke:none" />
    </g>
    <g id="g127" style="text-rendering:geometricPrecision;fill:#f0abfc;stroke:none">
      <path d="m 547.8845,354.114 -8e-4,-40.477 c 0,-0.6422 -0.5204,-1.1625 -1.1625,-1.1625 -0.6422,0 -1.1625,0.5203 -1.1625,1.1625 l 7e-4,40.477 c 0,0.6422 0.5204,1.1626 1.1625,1.1626 0.6422,0 1.1626,-0.5204 1.1626,-1.1626 z" clip-path="url(#440089502124-clipPath1)" id="path129" ns1:connector-curvature="0" style="stroke:none" />
      <path d="m 547.8845,354.114 -8e-4,-40.477 c 0,-0.6422 -0.5204,-1.1625 -1.1625,-1.1625 -0.6422,0 -1.1625,0.5203 -1.1625,1.1625 l 7e-4,40.477 c 0,0.6422 0.5204,1.1626 1.1625,1.1626 0.6422,0 1.1626,-0.5204 1.1626,-1.1626 z" clip-path="url(#440089502604-clipPath1)" id="path131" ns1:connector-curvature="0" style="fill:#c4b5fd;stroke:none" />
    </g>
    <g id="g133" style="text-rendering:geometricPrecision;fill:#f0abfc;stroke:none">
      <path d="m 733.2084,300.8685 c -0.5562,0.321 -0.7467,1.0318 -0.4256,1.588 0.321,0.5561 1.0318,0.7467 1.588,0.4256 l 34.8103,-20.0947 c 0.5561,-0.3211 0.7466,-1.0319 0.4256,-1.5881 -0.3211,-0.5561 -1.0319,-0.7466 -1.588,-0.4256 z m -1.0074,11.7676 c -0.5561,0.3211 -0.7466,1.0318 -0.4255,1.588 0.321,0.5562 1.0318,0.7467 1.588,0.4256 L 779.8755,287.8 c 0.5562,-0.3211 0.7467,-1.0319 0.4256,-1.588 -0.321,-0.5562 -1.0318,-0.7467 -1.588,-0.4257 z" clip-path="url(#440089502124-clipPath1)" id="path135" ns1:connector-curvature="0" style="stroke:none" />
    </g>
    <g id="g137" style="text-rendering:geometricPrecision;fill:#f0abfc;stroke:none">
      <path d="m 780.4568,286.7932 0.002,-53.7111 c 10e-5,-0.6422 -0.5202,-1.1626 -1.1625,-1.1626 -0.6421,0 -1.1625,0.5203 -1.1625,1.1625 l -0.002,53.7111 c 0,0.6422 0.5203,1.1626 1.1625,1.1626 0.6422,0 1.1625,-0.5203 1.1625,-1.1625 z" clip-path="url(#440089502124-clipPath1)" id="path139" ns1:connector-curvature="0" style="stroke:none" />
    </g>
    <g id="g141" style="text-rendering:geometricPrecision;fill:#f0abfc;stroke:none">
      <path d="m 768.0203,239.1006 c 0.5561,0.321 1.2669,0.1306 1.588,-0.4255 0.3211,-0.5562 0.1307,-1.267 -0.4254,-1.5881 l -34.8174,-20.1028 c -0.5561,-0.3211 -1.2669,-0.1307 -1.588,0.4255 -0.3211,0.5561 -0.1307,1.2669 0.4254,1.588 z m 10.6948,-5.0118 c 0.5561,0.3211 1.267,0.1307 1.5881,-0.4255 0.3211,-0.5561 0.1306,-1.2669 -0.4255,-1.588 l -46.5188,-26.859 c -0.5562,-0.3211 -1.267,-0.1307 -1.5881,0.4255 -0.3211,0.5561 -0.1307,1.2669 0.4255,1.588 z" clip-path="url(#440089502124-clipPath1)" id="path143" ns1:connector-curvature="0" style="stroke:none" />
    </g>
    <g id="g145" style="text-rendering:geometricPrecision;fill:#f0abfc;stroke:none">
      <path d="m 732.1964,205.2163 -46.5154,26.8554 c -0.5561,0.321 -0.7466,1.0319 -0.4255,1.588 0.3211,0.5561 1.0319,0.7466 1.5881,0.4255 l 46.5152,-26.8554 c 0.5562,-0.321 0.7467,-1.0319 0.4256,-1.588 -0.3211,-0.5561 -1.032,-0.7466 -1.588,-0.4255 z" clip-path="url(#440089502124-clipPath1)" id="path147" ns1:connector-curvature="0" style="stroke:none" />
    </g>
    <g id="g149" style="text-rendering:geometricPrecision;fill:#f0abfc;stroke:none">
      <path d="m 697.1128,239.8342 c 0,-0.6422 -0.5204,-1.1625 -1.1625,-1.1625 -0.6422,0 -1.1626,0.5203 -1.1625,1.1625 l 8e-4,40.194 c 0,0.6422 0.5204,1.1625 1.1626,1.1625 0.6421,0 1.1625,-0.5204 1.1625,-1.1626 z m -9.688,-6.7558 c 0,-0.6422 -0.5204,-1.1625 -1.1625,-1.1625 -0.6422,0 -1.1626,0.5204 -1.1626,1.1626 l 10e-4,53.7054 c 1e-4,0.6422 0.5204,1.1626 1.1626,1.1625 0.6421,0 1.1625,-0.5203 1.1625,-1.1625 z" clip-path="url(#440089502124-clipPath1)" id="path151" ns1:connector-curvature="0" style="stroke:none" />
    </g>
    <g id="g153" style="text-rendering:geometricPrecision;fill:#f0abfc;stroke:none">
      <path d="m 685.6822,287.7907 46.5188,26.859 c 0.5561,0.3211 1.267,0.1306 1.5881,-0.4255 0.3211,-0.5561 0.1306,-1.267 -0.4255,-1.5881 l -46.5189,-26.859 c -0.5561,-0.321 -1.2669,-0.1306 -1.588,0.4255 -0.3211,0.5562 -0.1307,1.267 0.4255,1.5881 z" clip-path="url(#440089502124-clipPath1)" id="path155" ns1:connector-curvature="0" style="stroke:none" />
    </g>
    <g id="g157" style="fill:#c4b5fd;stroke:none;text-rendering:geometricPrecision">
      <path d="m 640.9188,367.3464 -0.005,-40.4738 c 0,-0.6422 -0.5205,-1.1625 -1.1626,-1.1624 -0.6422,1e-4 -1.1625,0.5205 -1.1625,1.1627 l 0.005,40.4737 c 0,0.6422 0.5204,1.1625 1.1626,1.1624 0.6422,0 1.1625,-0.5204 1.1624,-1.1626 z" clip-path="url(#440089502124-clipPath1)" id="path159" ns1:connector-curvature="0" style="stroke:none" />
      <path d="m 640.9188,367.3464 -0.005,-40.4738 c 0,-0.6422 -0.5205,-1.1625 -1.1626,-1.1624 -0.6422,1e-4 -1.1625,0.5205 -1.1625,1.1627 l 0.005,40.4737 c 0,0.6422 0.5204,1.1625 1.1626,1.1624 0.6422,0 1.1625,-0.5204 1.1624,-1.1626 z" clip-path="url(#44008950294-clipPath1)" id="path161" ns1:connector-curvature="0" style="fill:#f0abfc;stroke:none" />
    </g>
    <g id="g163" style="text-rendering:geometricPrecision;fill:#f0abfc;stroke:none">
      <path d="M 630.5004,306.9546 593.822,285.7723 c -0.5561,-0.3212 -1.2669,-0.1308 -1.5881,0.4253 -0.3212,0.5561 -0.1308,1.267 0.4253,1.5881 l 36.6784,21.1823 c 0.5561,0.3212 1.267,0.1308 1.5881,-0.4253 0.3212,-0.5561 0.1308,-1.2669 -0.4253,-1.5881 z" clip-path="url(#440089502124-clipPath1)" id="path165" ns1:connector-curvature="0" style="stroke:none" />
      <path d="M 630.5004,306.9546 593.822,285.7723 c -0.5561,-0.3212 -1.2669,-0.1308 -1.5881,0.4253 -0.3212,0.5561 -0.1308,1.267 0.4253,1.5881 l 36.6784,21.1823 c 0.5561,0.3212 1.267,0.1308 1.5881,-0.4253 0.3212,-0.5561 0.1308,-1.2669 -0.4253,-1.5881 z" clip-path="url(#44008950276-clipPath1)" id="path167" ns1:connector-curvature="0" style="fill:#c4b5fd;stroke:none" />
    </g>
    <g id="g169" style="text-rendering:geometricPrecision;fill:#f0abfc;stroke:none">
      <path d="m 650.1621,308.9694 36.6826,-21.1787 c 0.5562,-0.3211 0.7466,-1.0319 0.4255,-1.5881 -0.321,-0.5561 -1.0319,-0.7465 -1.588,-0.4255 l -36.6826,21.1787 c -0.5562,0.3211 -0.7466,1.032 -0.4256,1.5881 0.3211,0.5561 1.032,0.7466 1.5881,0.4255 z" clip-path="url(#440089502124-clipPath1)" id="path171" ns1:connector-curvature="0" style="stroke:none" />
      <path d="m 650.1621,308.9694 36.6826,-21.1787 c 0.5562,-0.3211 0.7466,-1.0319 0.4255,-1.5881 -0.321,-0.5561 -1.0319,-0.7465 -1.588,-0.4255 l -36.6826,21.1787 c -0.5562,0.3211 -0.7466,1.032 -0.4256,1.5881 0.3211,0.5561 1.032,0.7466 1.5881,0.4255 z" clip-path="url(#440089502476-clipPath1)" id="path173" ns1:connector-curvature="0" style="fill:#c4b5fd;stroke:none" />
    </g>
    <g id="g175" style="fill:#6ee7b7;stroke:none;text-rendering:geometricPrecision">
      <path d="m 733.9401,206.2231 5e-4,-39.5125 c 0,-0.6422 -0.5203,-1.1625 -1.1625,-1.1625 -0.6422,-1e-4 -1.1626,0.5203 -1.1626,1.1625 l -4e-4,39.5125 c 0,0.6421 0.5203,1.1625 1.1625,1.1625 0.6421,0 1.1625,-0.5204 1.1625,-1.1625 z" clip-path="url(#440089502124-clipPath1)" id="path177" ns1:connector-curvature="0" style="stroke:none" />
      <path d="m 733.9401,206.2231 5e-4,-39.5125 c 0,-0.6422 -0.5203,-1.1625 -1.1625,-1.1625 -0.6422,-1e-4 -1.1626,0.5203 -1.1626,1.1625 l -4e-4,39.5125 c 0,0.6421 0.5203,1.1625 1.1625,1.1625 0.6421,0 1.1625,-0.5204 1.1625,-1.1625 z" clip-path="url(#440089502773-clipPath1)" id="path179" ns1:connector-curvature="0" style="fill:#f0abfc;stroke:none" />
    </g>
    <g id="g181" style="fill:#c4b5fd;stroke:none;text-rendering:geometricPrecision">
      <path d="m 301.5072,302.183 -20.4218,35.3716 c -0.3211,0.5561 -0.1307,1.267 0.4255,1.588 0.5561,0.3211 1.2669,0.1307 1.588,-0.4255 l 20.4218,-35.3716 c 0.3211,-0.5561 0.1307,-1.2669 -0.4255,-1.5881 -0.5561,-0.321 -1.267,-0.1306 -1.588,0.4256 z" clip-path="url(#440089502124-clipPath1)" id="path183" ns1:connector-curvature="0" style="stroke:none" />
      <path d="m 301.5072,302.183 -20.4218,35.3716 c -0.3211,0.5561 -0.1307,1.267 0.4255,1.588 0.5561,0.3211 1.2669,0.1307 1.588,-0.4255 l 20.4218,-35.3716 c 0.3211,-0.5561 0.1307,-1.2669 -0.4255,-1.5881 -0.5561,-0.321 -1.267,-0.1306 -1.588,0.4256 z" clip-path="url(#440089502977-clipPath1)" id="path185" ns1:connector-curvature="0" style="fill:#f0abfc;stroke:none" />
    </g>
    <g id="g187" style="text-rendering:geometricPrecision;fill:#f0abfc;stroke:none">
      <path d="m 283.0916,359.2692 27.6424,30.6977 c 0.4297,0.4773 1.1646,0.5157 1.6418,0.086 0.4773,-0.4297 0.5157,-1.1646 0.086,-1.6418 l -27.6424,-30.6978 c -0.4298,-0.4772 -1.1646,-0.5157 -1.6418,-0.086 -0.4773,0.4298 -0.5158,1.1647 -0.086,1.6419 z" clip-path="url(#440089502124-clipPath1)" id="path189" ns1:connector-curvature="0" style="stroke:none" />
      <path d="m 283.0916,359.2692 27.6424,30.6977 c 0.4297,0.4773 1.1646,0.5157 1.6418,0.086 0.4773,-0.4297 0.5157,-1.1646 0.086,-1.6418 l -27.6424,-30.6978 c -0.4298,-0.4772 -1.1646,-0.5157 -1.6418,-0.086 -0.4773,0.4298 -0.5158,1.1647 -0.086,1.6419 z" clip-path="url(#440089502489-clipPath1)" id="path191" ns1:connector-curvature="0" style="fill:#c4b5fd;stroke:none" />
    </g>
    <g id="g193" style="text-rendering:geometricPrecision;fill:#f0abfc;stroke:none">
      <path d="m 342.6614,322.3923 c 0.6282,0.1335 1.2453,-0.2673 1.3789,-0.8954 0.1335,-0.6282 -0.2673,-1.2453 -0.8954,-1.3789 l -34.3816,-7.3093 c -0.6282,-0.1336 -1.2454,0.2672 -1.3789,0.8953 -0.1335,0.6282 0.2672,1.2454 0.8954,1.3789 z m 2.0146,-9.4761 c 0.6281,0.1335 1.2453,-0.2672 1.3788,-0.8954 0.1336,-0.6281 -0.2672,-1.2453 -0.8953,-1.3788 l -42.4038,-9.0149 c -0.6281,-0.1335 -1.2453,0.2672 -1.3789,0.8954 -0.1335,0.6281 0.2673,1.2453 0.8954,1.3789 z" clip-path="url(#440089502124-clipPath1)" id="path195" ns1:connector-curvature="0" style="stroke:none" />
      <path d="m 342.6614,322.3923 c 0.6282,0.1335 1.2453,-0.2673 1.3789,-0.8954 0.1335,-0.6282 -0.2673,-1.2453 -0.8954,-1.3789 l -34.3816,-7.3093 c -0.6282,-0.1336 -1.2454,0.2672 -1.3789,0.8953 -0.1335,0.6282 0.2672,1.2454 0.8954,1.3789 z m 2.0146,-9.4761 c 0.6281,0.1335 1.2453,-0.2672 1.3788,-0.8954 0.1336,-0.6281 -0.2672,-1.2453 -0.8953,-1.3788 l -42.4038,-9.0149 c -0.6281,-0.1335 -1.2453,0.2672 -1.3789,0.8954 -0.1335,0.6281 0.2673,1.2453 0.8954,1.3789 z" clip-path="url(#440089502339-clipPath1)" id="path197" ns1:connector-curvature="0" style="fill:#c4b5fd;stroke:none" />
    </g>
    <g id="g199" style="fill:#c4b5fd;stroke:none;text-rendering:geometricPrecision">
      <path d="m 360.4335,354.0179 -2.8404,-26.9984 c -0.0672,-0.6386 -0.6392,-1.1017 -1.2778,-1.0345 -0.6387,0.0672 -1.1017,0.6391 -1.0345,1.2778 l 2.8404,26.9984 c 0.0672,0.6386 0.6392,1.1017 1.2778,1.0345 0.6387,-0.0672 1.1017,-0.6391 1.0345,-1.2778 z" clip-path="url(#440089502124-clipPath1)" id="path201" ns1:connector-curvature="0" style="stroke:none" />
    </g>
    <g id="g203" style="fill:#fda4af;stroke:none;text-rendering:geometricPrecision">
      <path d="m 318.2048,386.9962 c 0.1335,-0.6282 -0.2672,-1.2454 -0.8954,-1.3789 -0.6281,-0.1335 -1.2453,0.2672 -1.3789,0.8954 l -9.0536,42.587 c -0.1335,0.6281 0.2673,1.2453 0.8954,1.3789 0.6281,0.1335 1.2453,-0.2673 1.3789,-0.8954 z m -9.4761,-2.0146 c 0.1335,-0.6281 -0.2672,-1.2453 -0.8954,-1.3788 -0.6281,-0.1336 -1.2453,0.2672 -1.3788,0.8953 l -9.0537,42.5871 c -0.1335,0.6281 0.2673,1.2453 0.8954,1.3789 0.6281,0.1335 1.2453,-0.2673 1.3789,-0.8954 z" clip-path="url(#440089502124-clipPath1)" id="path205" ns1:connector-curvature="0" style="stroke:none" />
      <path d="m 318.2048,386.9962 c 0.1335,-0.6282 -0.2672,-1.2454 -0.8954,-1.3789 -0.6281,-0.1335 -1.2453,0.2672 -1.3789,0.8954 l -9.0536,42.587 c -0.1335,0.6281 0.2673,1.2453 0.8954,1.3789 0.6281,0.1335 1.2453,-0.2673 1.3789,-0.8954 z m -9.4761,-2.0146 c 0.1335,-0.6281 -0.2672,-1.2453 -0.8954,-1.3788 -0.6281,-0.1336 -1.2453,0.2672 -1.3788,0.8953 l -9.0537,42.5871 c -0.1335,0.6281 0.2673,1.2453 0.8954,1.3789 0.6281,0.1335 1.2453,-0.2673 1.3789,-0.8954 z" clip-path="url(#440089502800-clipPath1)" id="path207" ns1:connector-curvature="0" style="fill:#f0abfc;stroke:none" />
    </g>
    <g id="g209" style="text-rendering:geometricPrecision;fill:#f0abfc;stroke:none">
      <path d="m 265.5415,349.1727 -43.419,4.5643 c -0.6386,0.0671 -1.1017,0.639 -1.0346,1.2777 0.0671,0.6387 0.639,1.1018 1.2777,1.0346 l 43.419,-4.5643 c 0.6386,-0.0671 1.1017,-0.6391 1.0346,-1.2777 -0.0672,-0.6387 -0.6391,-1.1018 -1.2777,-1.0346 z" clip-path="url(#440089502124-clipPath1)" id="path211" ns1:connector-curvature="0" style="stroke:none" />
      <path d="m 265.5415,349.1727 -43.419,4.5643 c -0.6386,0.0671 -1.1017,0.639 -1.0346,1.2777 0.0671,0.6387 0.639,1.1018 1.2777,1.0346 l 43.419,-4.5643 c 0.6386,-0.0671 1.1017,-0.6391 1.0346,-1.2777 -0.0672,-0.6387 -0.6391,-1.1018 -1.2777,-1.0346 z" clip-path="url(#440089502245-clipPath1)" id="path213" ns1:connector-curvature="0" style="fill:#c4b5fd;stroke:none" />
    </g>
    <g id="g215" style="text-rendering:geometricPrecision;fill:#f0abfc;stroke:none">
      <path d="m 223.1846,354.2098 -31.5705,-43.4513 c -0.3775,-0.5195 -1.1043,-0.6346 -1.6238,-0.2571 -0.5195,0.3774 -0.6346,1.1043 -0.2572,1.6238 l 31.5705,43.4513 c 0.3774,0.5195 1.1043,0.6346 1.6238,0.2571 0.5195,-0.3774 0.6346,-1.1043 0.2572,-1.6238 z" clip-path="url(#440089502124-clipPath1)" id="path217" ns1:connector-curvature="0" style="stroke:none" />
    </g>
    <g id="g219" style="text-rendering:geometricPrecision;fill:#f0abfc;stroke:none">
      <path d="M 128.4719,223.8598 96.8998,180.4017 c -0.3775,-0.5196 -1.1043,-0.6347 -1.6238,-0.2573 -0.5196,0.3775 -0.6347,1.1043 -0.2573,1.6238 l 31.5722,43.4581 c 0.3774,0.5196 1.1042,0.6347 1.6238,0.2573 0.5195,-0.3775 0.6347,-1.1043 0.2572,-1.6238 z" clip-path="url(#440089502124-clipPath1)" id="path221" ns1:connector-curvature="0" style="stroke:none" />
    </g>
    <g id="g223" style="text-rendering:geometricPrecision;fill:#f0abfc;stroke:none">
      <path d="m 90.3741,192.5816 c 0.6386,-0.0671 1.1018,-0.6389 1.0347,-1.2776 -0.0671,-0.6386 -0.6389,-1.1018 -1.2776,-1.0347 l -39.9741,4.1985 c -0.6387,0.0671 -1.1018,0.6389 -1.0347,1.2776 0.067,0.6386 0.6389,1.1018 1.2776,1.0347 z m 5.7066,-10.3405 c 0.6386,-0.0671 1.1018,-0.6389 1.0347,-1.2776 -0.0671,-0.6386 -0.6389,-1.1018 -1.2776,-1.0347 l -53.4117,5.6098 c -0.6386,0.0671 -1.1018,0.639 -1.0347,1.2776 0.0671,0.6387 0.6389,1.1018 1.2776,1.0348 z" clip-path="url(#440089502124-clipPath1)" id="path225" ns1:connector-curvature="0" style="stroke:none" />
    </g>
    <g id="g227" style="text-rendering:geometricPrecision;fill:#f0abfc;stroke:none">
      <path d="m 41.4856,186.2219 -21.8487,49.0665 c -0.2612,0.5866 0.0025,1.2737 0.5891,1.5349 0.5867,0.2612 1.2737,-0.002 1.5349,-0.5891 l 21.8487,-49.0665 c 0.2612,-0.5867 -0.0025,-1.2737 -0.5891,-1.5349 -0.5867,-0.2612 -1.2737,0.002 -1.5349,0.5891 z" clip-path="url(#440089502124-clipPath1)" id="path229" ns1:connector-curvature="0" style="stroke:none" />
    </g>
    <g id="g231" style="text-rendering:geometricPrecision;fill:#f0abfc;stroke:none">
      <path d="m 33.4481,234.8496 c -0.3774,-0.5195 -1.1042,-0.6346 -1.6238,-0.2572 -0.5195,0.3774 -0.6347,1.1043 -0.2572,1.6238 l 23.6304,32.5266 c 0.3774,0.5195 1.1043,0.6346 1.6238,0.2572 0.5196,-0.3774 0.6347,-1.1043 0.2573,-1.6238 z m -11.8086,0.2284 c -0.3775,-0.5195 -1.1043,-0.6347 -1.6239,-0.2572 -0.5195,0.3774 -0.6346,1.1042 -0.2572,1.6238 l 31.5722,43.4581 c 0.3774,0.5195 1.1042,0.6347 1.6238,0.2572 0.5195,-0.3774 0.6347,-1.1043 0.2572,-1.6238 z" clip-path="url(#440089502124-clipPath1)" id="path233" ns1:connector-curvature="0" style="stroke:none" />
    </g>
    <g id="g235" style="text-rendering:geometricPrecision;fill:#f0abfc;stroke:none">
      <path d="m 98.5235,263.0207 c -0.2612,0.5866 0.0025,1.2736 0.5892,1.5348 0.5867,0.2612 1.2737,-0.002 1.5349,-0.5892 l 16.3478,-36.7192 c 0.2612,-0.5866 -0.002,-1.2737 -0.5892,-1.5349 -0.5866,-0.2611 -1.2736,0.003 -1.5348,0.5893 z m 6.1025,10.1122 c -0.2612,0.5866 0.002,1.2737 0.5892,1.5349 0.5867,0.2612 1.2737,-0.003 1.5349,-0.5892 l 21.8433,-49.0627 c 0.2612,-0.5867 -0.002,-1.2737 -0.5892,-1.5349 -0.5866,-0.2612 -1.2736,0.003 -1.5348,0.5892 z" clip-path="url(#440089502124-clipPath1)" id="path237" ns1:connector-curvature="0" style="stroke:none" />
    </g>
    <g id="g239" style="text-rendering:geometricPrecision;fill:#f0abfc;stroke:none">
      <path d="m 52.3926,280.3755 53.4169,-5.6136 c 0.6387,-0.0671 1.1018,-0.639 1.0347,-1.2777 -0.0671,-0.6386 -0.639,-1.1018 -1.2777,-1.0346 l -53.4169,5.6136 c -0.6387,0.0671 -1.1018,0.639 -1.0347,1.2777 0.0671,0.6387 0.639,1.1018 1.2777,1.0346 z" clip-path="url(#440089502124-clipPath1)" id="path241" ns1:connector-curvature="0" style="stroke:none" />
    </g>
    <g id="g243" style="fill:#fda4af;stroke:none;text-rendering:geometricPrecision">
      <path d="m 190.5521,310.2857 -42.2471,4.4411 c -0.6387,0.0672 -1.1018,0.6391 -1.0346,1.2777 0.0671,0.6387 0.639,1.1018 1.2777,1.0347 l 42.2471,-4.4412 c 0.6386,-0.0671 1.1017,-0.639 1.0346,-1.2777 -0.0672,-0.6386 -0.639,-1.1017 -1.2777,-1.0346 z" clip-path="url(#440089502124-clipPath1)" id="path245" ns1:connector-curvature="0" style="stroke:none" />
      <path d="m 190.5521,310.2857 -42.2471,4.4411 c -0.6387,0.0672 -1.1018,0.6391 -1.0346,1.2777 0.0671,0.6387 0.639,1.1018 1.2777,1.0347 l 42.2471,-4.4412 c 0.6386,-0.0671 1.1017,-0.639 1.0346,-1.2777 -0.0672,-0.6386 -0.639,-1.1017 -1.2777,-1.0346 z" clip-path="url(#440089502682-clipPath1)" id="path247" ns1:connector-curvature="0" style="fill:#f0abfc;stroke:none" />
    </g>
    <g id="g249" style="text-rendering:geometricPrecision;fill:#f0abfc;stroke:none">
      <path d="m 130.2319,305.4084 -23.6034,-32.486 c -0.3774,-0.5195 -1.1043,-0.6346 -1.6238,-0.2572 -0.5195,0.3775 -0.6346,1.1043 -0.2572,1.6239 l 23.6034,32.4859 c 0.3775,0.5196 1.1043,0.6347 1.6238,0.2572 0.5195,-0.3775 0.6347,-1.1043 0.2572,-1.6238 z" clip-path="url(#440089502124-clipPath1)" id="path251" ns1:connector-curvature="0" style="stroke:none" />
      <path d="m 130.2319,305.4084 -23.6034,-32.486 c -0.3774,-0.5195 -1.1043,-0.6346 -1.6238,-0.2572 -0.5195,0.3775 -0.6346,1.1043 -0.2572,1.6239 l 23.6034,32.4859 c 0.3775,0.5196 1.1043,0.6347 1.6238,0.2572 0.5195,-0.3775 0.6347,-1.1043 0.2572,-1.6238 z" clip-path="url(#440089502579-clipPath1)" id="path253" ns1:connector-curvature="0" style="fill:#fda4af;stroke:none" />
    </g>
    <g id="g255" style="text-rendering:geometricPrecision;fill:#f0abfc;stroke:none">
      <path d="m 275.6554,255.0821 -49.0577,0.007 c -0.6422,1e-4 -1.1625,0.5206 -1.1624,1.1627 10e-5,0.6422 0.5205,1.1625 1.1627,1.1624 l 49.0577,-0.007 c 0.6422,-10e-5 1.1625,-0.5205 1.1624,-1.1627 -1e-4,-0.6421 -0.5206,-1.1624 -1.1627,-1.1623 z" clip-path="url(#440089502124-clipPath1)" id="path257" ns1:connector-curvature="0" style="stroke:none" />
    </g>
    <g id="g259" style="fill:#eef2ff;stroke:none;text-rendering:geometricPrecision">
      </g>
    <g font-size="19px" transform="translate(353.417,355.3481)" id="g263" style="font-size:19px;font-family:sans-serif;fill:#c4b5fd;stroke:none;text-rendering:geometricPrecision">
      <text x="0" xml:space="preserve" y="19" clip-path="url(#440089502602-clipPath1)" id="text265" style="stroke:none">N</text>
    </g>
    <g font-size="19px" id="g267" style="font-size:19px;font-family:sans-serif;fill:#eef2ff;stroke:none;text-rendering:geometricPrecision">
      <text x="0" y="19" transform="translate(539.4721,355.3481)" clip-path="url(#440089502670-clipPath1)" xml:space="preserve" id="text271" style="fill:#c4b5fd;stroke:none">N</text>
    </g>
    <g font-size="19px" id="g273" style="font-size:19px;font-family:sans-serif;fill:#eef2ff;stroke:none;text-rendering:geometricPrecision">
      <text x="0" y="19" transform="translate(347.7973,301.9326)" clip-path="url(#440089502818-clipPath1)" xml:space="preserve" id="text277" style="fill:#c4b5fd;stroke:none">N</text>
    </g>
    <g font-size="19px" id="g279" style="font-size:19px;font-family:sans-serif;fill:#eef2ff;stroke:none;text-rendering:geometricPrecision">
      <text x="0" y="19" transform="translate(268.4092,337.278)" clip-path="url(#440089502193-clipPath1)" xml:space="preserve" id="text283" style="fill:#c4b5fd;stroke:none">N</text>
    </g>
    <g font-size="19px" id="g285" style="font-size:19px;font-family:sans-serif;fill:#eef2ff;stroke:none;text-rendering:geometricPrecision">
      <text x="0" y="19" transform="translate(632.4997,301.6387)" clip-path="url(#440089502427-clipPath1)" xml:space="preserve" id="text289" style="fill:#c4b5fd;stroke:none">N</text>
    </g>
    <g font-size="19px" id="g291" style="font-size:19px;font-family:sans-serif;fill:#eef2ff;stroke:none;text-rendering:geometricPrecision">
      <text x="0" y="19" transform="translate(293.0075,429.7245)" clip-path="url(#440089502111-clipPath1)" xml:space="preserve" id="text295" style="fill:#fda4af;stroke:none">O</text>
    </g>
    <g font-size="19px" id="g297" style="font-size:19px;font-family:sans-serif;fill:#eef2ff;stroke:none;text-rendering:geometricPrecision">
      <text x="0" y="19" transform="translate(723.4345,140.5136)" clip-path="url(#440089502334-clipPath1)" xml:space="preserve" id="text301" style="fill:#6ee7b7;stroke:none">Cl</text>
    </g>
    <g font-size="19px" id="g303" style="font-size:19px;font-family:sans-serif;fill:#eef2ff;stroke:none;text-rendering:geometricPrecision">
      <text x="0" y="19" transform="translate(129.8366,305.057)" clip-path="url(#440089502125-clipPath1)" xml:space="preserve" id="text307" style="fill:#fda4af;stroke:none">O</text>
    </g>
  </g>
</svg>