<?xml version='1.0' encoding='utf-8'?>
<svg xmlns="http://www.w3.org/2000/svg" xmlns:dc="http://purl.org/dc/elements/1.1/" xmlns:ns1="http://www.inkscape.org/namespaces/inkscape" xmlns:ns2="http://sodipodi.sourceforge.net/DTD/sodipodi-0.dtd" xmlns:ns4="http://creativecommons.org/ns#" xmlns:rdf="http://www.w3.org/1999/02/22-rdf-syntax-ns#" width="734.37543" stroke-miterlimit="10" font-weight="normal" height="415.77859" font-style="normal" font-size="12px" id="svg2" version="1.1" ns1:version="0.91 r13725" ns2:docname="Norepinephrine.svg" style="font-style:normal;font-weight:normal;font-size:12px;font-family:Dialog;color-interpolation:auto;fill:#f5d0fe;fill-opacity:1;stroke:none;stroke:none;stroke:none;stroke:none;stroke:none;stroke:none;stroke:none;stroke:none;color-rendering:auto;image-rendering:auto;shape-rendering:auto;text-rendering:auto">
  <metadata id="metadata126">
    <rdf:RDF>
      <ns4:Work rdf:about="">
        <dc:format>image/svg+xml</dc:format>
        <dc:type rdf:resource="http://purl.org/dc/dcmitype/StillImage" />
        <dc:title />
      </ns4:Work>
    </rdf:RDF>
  </metadata>
  <ns2:namedview pagecolor="#eef2ff" bordercolor="#666666" borderopacity="1" objecttolerance="10" gridtolerance="10" guidetolerance="10" ns1:pageopacity="0" ns1:pageshadow="2" ns1:window-width="1060" ns1:window-height="480" id="namedview124" showgrid="false" fit-margin-top="10" fit-margin-left="10" fit-margin-right="10" fit-margin-bottom="10" ns1:zoom="0.36375" ns1:cx="367.1877" ns1:cy="207.8893" ns1:window-x="0" ns1:window-y="0" ns1:window-maximized="0" ns1:current-layer="svg2" />
  
  <defs id="genericDefs" />
  <g id="g5" transform="translate(-32.8123,-92.1107)" style="fill:#f5d0fe;stroke:none">
    <defs id="559568785975-defs1">
      <clipPath clipPathUnits="userSpaceOnUse" id="559568785931-clipPath1">
        <path d="M 0,0 800,0 800,600 0,600 0,0 Z" id="path9" ns1:connector-curvature="0" style="stroke:none" />
      </clipPath>
      <clipPath clipPathUnits="userSpaceOnUse" id="559568785904-clipPath1">
        <path d="m 593.7706,252.8272 c -25.8373,0 -46.7825,20.9453 -46.7825,46.7825 0,25.8373 20.9452,46.7826 46.7825,46.7826 25.8373,0 46.7826,-20.9453 46.7826,-46.7826 0,-25.8372 -20.9453,-46.7825 -46.7826,-46.7825 z" id="path12" ns1:connector-curvature="0" style="stroke:none" />
      </clipPath>
      <clipPath clipPathUnits="userSpaceOnUse" id="559568785370-clipPath1">
        <path d="m 182.7937,257.0784 c -23.4904,0 -42.5332,19.0427 -42.5332,42.5331 0,23.4905 19.0428,42.5332 42.5332,42.5332 23.4904,0 42.5331,-19.0427 42.5331,-42.5332 0,-23.4904 -19.0427,-42.5331 -42.5331,-42.5331 z" id="path15" ns1:connector-curvature="0" style="stroke:none" />
      </clipPath>
      <clipPath clipPathUnits="userSpaceOnUse" id="559568785226-clipPath1">
        <path d="m 182.7937,375.5856 c -23.5721,0 -42.681,19.1089 -42.681,42.6809 0,23.572 19.1089,42.6809 42.681,42.6809 23.572,0 42.6809,-19.1089 42.6809,-42.6809 0,-23.572 -19.1089,-42.6809 -42.6809,-42.6809 z" id="path18" ns1:connector-curvature="0" style="stroke:none" />
      </clipPath>
      <clipPath clipPathUnits="userSpaceOnUse" id="559568785362-clipPath1">
        <path d="m 491.0244,196.2584 c -24.3182,0 -44.032,19.7138 -44.032,44.032 0,24.3182 19.7138,44.0319 44.032,44.0319 24.3181,0 44.0319,-19.7137 44.0319,-44.0319 0,-24.3182 -19.7138,-44.032 -44.0319,-44.032 z" id="path21" ns1:connector-curvature="0" style="stroke:none" />
      </clipPath>
      <clipPath clipPathUnits="userSpaceOnUse" id="559568785131-clipPath1">
        <path d="m -39.8123,-215.7935 800,0 0,600 -800,0 0,-600 z" id="path24" ns1:connector-curvature="0" style="stroke:none" />
      </clipPath>
      <clipPath clipPathUnits="userSpaceOnUse" id="559568785136-clipPath1">
        <path d="m -39.8123,-453.0846 800,0 0,600 -800,0 0,-600 z" id="path27" ns1:connector-curvature="0" style="stroke:none" />
      </clipPath>
      <clipPath clipPathUnits="userSpaceOnUse" id="559568785559-clipPath1">
        <path d="m -680.9221,-215.7886 800,0 0,600.0001 -800,0 0,-600.0001 z" id="path30" ns1:connector-curvature="0" style="stroke:none" />
      </clipPath>
      <clipPath clipPathUnits="userSpaceOnUse" id="559568785541-clipPath1">
        <path d="m -736.969,-236.5242 800,0 0,600 -800,0 0,-600 z" id="path33" ns1:connector-curvature="0" style="stroke:none" />
      </clipPath>
      <clipPath clipPathUnits="userSpaceOnUse" id="559568785157-clipPath1">
        <path d="m -473.8358,-97.1498 800,0 0,600 -800,0 0,-600 z" id="path36" ns1:connector-curvature="0" style="stroke:none" />
      </clipPath>
    </defs>
    <g id="g38" style="text-rendering:geometricPrecision;fill:#f5d0fe;stroke:none">
      <path d="m 284.5902,268.5097 c 1.2284,-0.7093 1.6491,-2.2794 0.9398,-3.5079 -0.7094,-1.2285 -2.2795,-1.6491 -3.508,-0.9398 l -76.8887,44.3962 c -1.2285,0.7093 -1.6492,2.2795 -0.9398,3.5079 0.7093,1.2284 2.2794,1.6491 3.5079,0.9398 z m 2.2231,-25.9946 c 1.2284,-0.7093 1.6491,-2.2795 0.9398,-3.5079 -0.7093,-1.2285 -2.2795,-1.6491 -3.508,-0.9398 l -102.7355,59.3203 c -1.2284,0.7093 -1.6491,2.2795 -0.9398,3.5079 0.7093,1.2285 2.2795,1.6491 3.5079,0.9398 z" clip-path="url(#559568785931-clipPath1)" id="path40" ns1:connector-curvature="0" style="stroke:none" />
    </g>
    <g id="g42" style="text-rendering:geometricPrecision;fill:#f5d0fe;stroke:none">
      <path d="m 180.2257,299.6115 0,118.655 c 0,1.4185 1.1495,2.5679 2.568,2.5679 1.4185,0 2.5679,-1.1494 2.5679,-2.5679 l 0,-118.655 c 0,-1.4185 -1.1494,-2.5679 -2.5679,-2.5679 -1.4185,0 -2.568,1.1494 -2.568,2.5679 z" clip-path="url(#559568785931-clipPath1)" id="path44" ns1:connector-curvature="0" style="stroke:none" />
    </g>
    <g id="g46" style="text-rendering:geometricPrecision;fill:#f5d0fe;stroke:none">
      <path d="m 207.7014,404.9722 c -1.2285,-0.7094 -2.7986,-0.2887 -3.5079,0.9397 -0.7094,1.2285 -0.2887,2.7986 0.9398,3.508 l 76.8887,44.3961 c 1.2285,0.7094 2.7986,0.2887 3.508,-0.9397 0.7093,-1.2285 0.2886,-2.7987 -0.9398,-3.508 z m -23.6237,11.0704 c -1.2284,-0.7093 -2.7986,-0.2886 -3.5079,0.9398 -0.7093,1.2285 -0.2886,2.7986 0.9398,3.508 l 102.7355,59.3202 c 1.2285,0.7094 2.7987,0.2887 3.508,-0.9398 0.7093,-1.2284 0.2886,-2.7986 -0.9398,-3.5079 z" clip-path="url(#559568785931-clipPath1)" id="path48" ns1:connector-curvature="0" style="stroke:none" />
    </g>
    <g id="g50" style="text-rendering:geometricPrecision;fill:#f5d0fe;stroke:none">
      <path d="m 286.8131,479.8107 102.75,-59.3203 c 1.2285,-0.7092 1.6492,-2.2793 0.94,-3.5078 -0.7093,-1.2285 -2.2794,-1.6493 -3.5079,-0.94 l -102.7499,59.3203 c -1.2285,0.7092 -1.6493,2.2793 -0.94,3.5078 0.7092,1.2285 2.2794,1.6493 3.5078,0.94 z" clip-path="url(#559568785931-clipPath1)" id="path52" ns1:connector-curvature="0" style="stroke:none" />
    </g>
    <g id="g54" style="text-rendering:geometricPrecision;fill:#f5d0fe;stroke:none">
      <path d="m 364.3114,403.3431 c 0,1.4186 1.1494,2.568 2.5679,2.568 1.4186,0 2.568,-1.1494 2.568,-2.568 l 0,-88.8082 c 0,-1.4185 -1.1494,-2.5679 -2.568,-2.5679 -1.4185,0 -2.5679,1.1494 -2.5679,2.5679 z m 21.3998,14.9234 c 0,1.4185 1.1494,2.5679 2.5679,2.5679 1.4186,0 2.568,-1.1494 2.568,-2.5679 l 0,-118.6549 c 0,-1.4186 -1.1494,-2.568 -2.568,-2.568 -1.4185,0 -2.5679,1.1494 -2.5679,2.568 z" clip-path="url(#559568785931-clipPath1)" id="path56" ns1:connector-curvature="0" style="stroke:none" />
    </g>
    <g id="g58" style="text-rendering:geometricPrecision;fill:#f5d0fe;stroke:none">
      <path d="m 389.5631,297.3876 -102.75,-59.3203 c -1.2284,-0.7092 -2.7986,-0.2885 -3.5078,0.94 -0.7093,1.2285 -0.2885,2.7987 0.94,3.5079 l 102.7499,59.3203 c 1.2285,0.7092 2.7986,0.2885 3.5079,-0.94 0.7092,-1.2285 0.2885,-2.7986 -0.94,-3.5079 z" clip-path="url(#559568785931-clipPath1)" id="path60" ns1:connector-curvature="0" style="stroke:none" />
    </g>
    <g id="g62" style="text-rendering:geometricPrecision;fill:#f5d0fe;stroke:none">
      <path d="m 389.5631,301.8354 102.7452,-59.3211 c 1.2285,-0.7093 1.6493,-2.2795 0.94,-3.5079 -0.7093,-1.2285 -2.2795,-1.6492 -3.5079,-0.9399 l -102.7453,59.3212 c -1.2284,0.7092 -1.6492,2.2794 -0.9399,3.5078 0.7093,1.2285 2.2795,1.6492 3.5079,0.9399 z" clip-path="url(#559568785931-clipPath1)" id="path64" ns1:connector-curvature="0" style="stroke:none" />
    </g>
    <g id="g66" style="text-rendering:geometricPrecision;fill:#f5d0fe;stroke:none">
      <path d="m 489.7404,242.5143 102.7463,59.3194 c 1.2284,0.7092 2.7986,0.2885 3.5079,-0.94 0.7092,-1.2285 0.2885,-2.7986 -0.94,-3.5079 L 492.3083,238.0664 c -1.2285,-0.7092 -2.7986,-0.2885 -3.5079,0.94 -0.7092,1.2285 -0.2885,2.7986 0.94,3.5079 z" clip-path="url(#559568785931-clipPath1)" id="path68" ns1:connector-curvature="0" style="stroke:none" />
    </g>
    <g id="g70" style="fill:#c4b5fd;stroke:none;text-rendering:geometricPrecision">
      <path d="m 595.0546,301.8336 81.0293,-46.7832 c 1.2285,-0.7093 1.6492,-2.2794 0.9399,-3.5079 -0.7093,-1.2284 -2.2794,-1.6492 -3.5079,-0.9399 l -81.0293,46.7832 c -1.2284,0.7093 -1.6491,2.2795 -0.9398,3.5079 0.7092,1.2285 2.2794,1.6492 3.5078,0.9399 z" clip-path="url(#559568785931-clipPath1)" id="path72" ns1:connector-curvature="0" style="stroke:none" />
      <path d="m 595.0546,301.8336 81.0293,-46.7832 c 1.2285,-0.7093 1.6492,-2.2794 0.9399,-3.5079 -0.7093,-1.2284 -2.2794,-1.6492 -3.5079,-0.9399 l -81.0293,46.7832 c -1.2284,0.7093 -1.6491,2.2795 -0.9398,3.5079 0.7092,1.2285 2.2794,1.6492 3.5078,0.9399 z" clip-path="url(#559568785904-clipPath1)" id="path74" ns1:connector-curvature="0" style="fill:#f5d0fe;stroke:none" />
    </g>
    <g id="g76" style="fill:#fda4af;stroke:none;text-rendering:geometricPrecision">
      <path d="M 184.0776,297.3876 110.4071,254.856 c -1.2285,-0.7092 -2.7987,-0.2885 -3.5079,0.94 -0.7092,1.2285 -0.2885,2.7987 0.94,3.5079 l 73.6706,42.5316 c 1.2284,0.7092 2.7986,0.2885 3.5078,-0.94 0.7093,-1.2285 0.2885,-2.7986 -0.94,-3.5079 z" clip-path="url(#559568785931-clipPath1)" id="path78" ns1:connector-curvature="0" style="stroke:none" />
      <path d="M 184.0776,297.3876 110.4071,254.856 c -1.2285,-0.7092 -2.7987,-0.2885 -3.5079,0.94 -0.7092,1.2285 -0.2885,2.7987 0.94,3.5079 l 73.6706,42.5316 c 1.2284,0.7092 2.7986,0.2885 3.5078,-0.94 0.7093,-1.2285 0.2885,-2.7986 -0.94,-3.5079 z" clip-path="url(#559568785370-clipPath1)" id="path80" ns1:connector-curvature="0" style="fill:#f5d0fe;stroke:none" />
    </g>
    <g id="g82" style="fill:#fda4af;stroke:none;text-rendering:geometricPrecision">
      <path d="m 181.5098,416.0426 -73.9265,42.6793 c -1.2285,0.7093 -1.6493,2.2794 -0.94,3.5079 0.7092,1.2285 2.2793,1.6492 3.5078,0.94 l 73.9265,-42.6794 c 1.2285,-0.7092 1.6493,-2.2793 0.94,-3.5078 -0.7092,-1.2285 -2.2794,-1.6493 -3.5078,-0.94 z" clip-path="url(#559568785931-clipPath1)" id="path84" ns1:connector-curvature="0" style="stroke:none" />
      <path d="m 181.5098,416.0426 -73.9265,42.6793 c -1.2285,0.7093 -1.6493,2.2794 -0.94,3.5079 0.7092,1.2285 2.2793,1.6492 3.5078,0.94 l 73.9265,-42.6794 c 1.2285,-0.7092 1.6493,-2.2793 0.94,-3.5078 -0.7092,-1.2285 -2.2794,-1.6493 -3.5078,-0.94 z" clip-path="url(#559568785226-clipPath1)" id="path86" ns1:connector-curvature="0" style="fill:#f5d0fe;stroke:none" />
    </g>
    <g id="g88" style="fill:#fda4af;stroke:none;text-rendering:geometricPrecision">
      <path d="m 491.0244,240.2904 2.5679,-1e-4 13.4812,-88.064 -16.0499,1e-4 -16.0499,2e-4 13.4827,88.0638 z" clip-path="url(#559568785931-clipPath1)" id="path90" ns1:connector-curvature="0" style="stroke:none" />
      <path d="m 491.0244,240.2904 2.5679,-1e-4 13.4812,-88.064 -16.0499,1e-4 -16.0499,2e-4 13.4827,88.0638 z" clip-path="url(#559568785362-clipPath1)" id="path92" ns1:connector-curvature="0" style="fill:#f5d0fe;stroke:none" />
    </g>
    <g id="g94" style="fill:#eef2ff;stroke:none;text-rendering:geometricPrecision">
      </g>
    <g font-size="42px" transform="translate(39.8123,215.7935)" id="g98" style="font-size:42px;font-family:sans-serif;fill:#fda4af;stroke:none;text-rendering:geometricPrecision">
      <text x="0" xml:space="preserve" y="40" clip-path="url(#559568785131-clipPath1)" id="text100" style="stroke:none">HO</text>
    </g>
    <g font-size="42px" id="g102" style="font-size:42px;font-family:sans-serif;fill:#eef2ff;stroke:none;text-rendering:geometricPrecision">
      <text x="0" y="40" transform="translate(39.8123,453.0846)" clip-path="url(#559568785136-clipPath1)" xml:space="preserve" id="text106" style="fill:#fda4af;stroke:none">HO</text>
    </g>
    <g font-size="42px" id="g108" style="font-size:42px;font-family:sans-serif;fill:#eef2ff;stroke:none;text-rendering:geometricPrecision">
      <text x="0" y="40" transform="translate(680.9221,215.7886)" clip-path="url(#559568785559-clipPath1)" xml:space="preserve" id="text112" style="fill:#c4b5fd;stroke:none">NH</text>
    </g>
    <g font-size="34px" transform="translate(736.969,236.5242)" id="g114" style="font-size:34px;font-family:sans-serif;fill:#c4b5fd;stroke:none;text-rendering:geometricPrecision">
      <text x="0" xml:space="preserve" y="33" clip-path="url(#559568785541-clipPath1)" id="text116" style="stroke:none">2</text>
    </g>
    <g font-size="34px" id="g118" style="font-size:34px;font-family:sans-serif;fill:#eef2ff;stroke:none;text-rendering:geometricPrecision">
      <text x="0" font-size="42px" y="40" transform="translate(473.8358,97.1498)" clip-path="url(#559568785157-clipPath1)" xml:space="preserve" id="text122" style="font-size:42px;fill:#fda4af;stroke:none">OH</text>
    </g>
  </g>
</svg>