<?xml version='1.0' encoding='utf-8'?>
<svg xmlns="http://www.w3.org/2000/svg" xmlns:dc="http://purl.org/dc/elements/1.1/" xmlns:ns1="http://www.inkscape.org/namespaces/inkscape" xmlns:ns2="http://sodipodi.sourceforge.net/DTD/sodipodi-0.dtd" xmlns:ns4="http://creativecommons.org/ns#" xmlns:rdf="http://www.w3.org/1999/02/22-rdf-syntax-ns#" width="673.2627" stroke-miterlimit="10" font-weight="normal" height="380.52786" font-style="normal" font-size="12px" id="svg2" version="1.1" ns1:version="0.91 r13725" ns2:docname="o-xylyl bromide.svg" style="font-style:normal;font-weight:normal;font-size:12px;font-family:Dialog;color-interpolation:auto;fill:#f5d0fe;fill-opacity:1;stroke:none;stroke:none;stroke:none;stroke:none;stroke:none;stroke:none;stroke:none;stroke:none;color-rendering:auto;image-rendering:auto;shape-rendering:auto;text-rendering:auto">
  <metadata id="metadata61">
    <rdf:RDF>
      <ns4:Work rdf:about="">
        <dc:format>image/svg+xml</dc:format>
        <dc:type rdf:resource="http://purl.org/dc/dcmitype/StillImage" />
        <dc:title />
      </ns4:Work>
    </rdf:RDF>
  </metadata>
  <ns2:namedview pagecolor="#eef2ff" bordercolor="#666666" borderopacity="1" objecttolerance="10" gridtolerance="10" guidetolerance="10" ns1:pageopacity="0" ns1:pageshadow="2" ns1:window-width="1920" ns1:window-height="1058" id="namedview59" showgrid="false" fit-margin-top="10" fit-margin-left="10" fit-margin-right="10" fit-margin-bottom="10" ns1:zoom="0.36375" ns1:cx="345.80946" ns1:cy="179.22736" ns1:window-x="-8" ns1:window-y="-8" ns1:window-maximized="1" ns1:current-layer="svg2" />
  
  <defs id="genericDefs" />
  <g id="g5" transform="translate(-54.190542,-98.69951)" style="fill:#f5d0fe;stroke:none">
    <defs id="1477286696623-defs1">
      <clipPath clipPathUnits="userSpaceOnUse" id="1477286696506-clipPath1">
        <path d="M 0,0 800,0 800,600 0,600 0,0 Z" id="path9" ns1:connector-curvature="0" style="stroke:none" />
      </clipPath>
      <clipPath clipPathUnits="userSpaceOnUse" id="1477286696185-clipPath1">
        <path d="m 526.3866,47.667 c -35.8169,0 -64.8522,29.0353 -64.8522,64.8522 0,35.8168 29.0353,64.8521 64.8522,64.8521 35.8168,0 64.8521,-29.0353 64.8521,-64.8521 0,-35.8169 -29.0353,-64.8522 -64.8521,-64.8522 z" id="path12" ns1:connector-curvature="0" style="stroke:none" />
      </clipPath>
      <clipPath clipPathUnits="userSpaceOnUse" id="147728669652-clipPath1">
        <path d="m -648.3624,-163.7343 800,0 0,600 -800,0 0,-600 z" id="path15" ns1:connector-curvature="0" style="stroke:none" />
      </clipPath>
    </defs>
    <g id="g17" style="text-rendering:geometricPrecision;fill:#f5d0fe;stroke:none">
      <path d="m 219.394,154.4848 c 1.8268,-1.0549 2.4524,-3.3899 1.3975,-5.2167 -1.0548,-1.8269 -3.3898,-2.4525 -5.2167,-1.3976 L 101.2319,213.893 c -1.8269,1.0548 -2.4524,3.3898 -1.3976,5.2167 1.0548,1.8268 3.3899,2.4524 5.2167,1.3976 z m 3.306,-38.6572 c 1.8268,-1.0548 2.4524,-3.3898 1.3975,-5.2167 -1.0548,-1.8268 -3.3898,-2.4524 -5.2167,-1.3975 L 66.1006,197.4298 c -1.8268,1.0548 -2.4524,3.3899 -1.3975,5.2167 1.0548,1.8269 3.3898,2.4524 5.2167,1.3976 z" clip-path="url(#1477286696506-clipPath1)" id="path19" ns1:connector-curvature="0" style="stroke:none" />
    </g>
    <g id="g21" style="text-rendering:geometricPrecision;fill:#f5d0fe;stroke:none">
      <path d="m 64.1914,200.737 0,176.4542 c 0,2.1096 1.7093,3.8189 3.8188,3.8189 2.1095,0 3.8189,-1.7093 3.8189,-3.8189 l 0,-176.4542 c 0,-2.1096 -1.7094,-3.8189 -3.8189,-3.8189 -2.1095,0 -3.8188,1.7093 -3.8188,3.8189 z" clip-path="url(#1477286696506-clipPath1)" id="path23" ns1:connector-curvature="0" style="stroke:none" />
    </g>
    <g id="g25" style="text-rendering:geometricPrecision;fill:#f5d0fe;stroke:none">
      <path d="m 105.051,357.4209 c -1.8268,-1.0548 -4.1619,-0.4293 -5.2167,1.3976 -1.0548,1.8269 -0.4293,4.1619 1.3976,5.2167 l 114.3429,66.0225 c 1.8269,1.0548 4.1619,0.4293 5.2167,-1.3976 1.0549,-1.8268 0.4293,-4.1619 -1.3975,-5.2167 z m -35.1312,16.4632 c -1.8269,-1.0548 -4.1619,-0.4293 -5.2167,1.3975 -1.0549,1.8269 -0.4293,4.1619 1.3975,5.2168 l 152.7802,88.2164 c 1.8269,1.0549 4.1619,0.4293 5.2168,-1.3975 1.0548,-1.8269 0.4292,-4.1619 -1.3976,-5.2168 z" clip-path="url(#1477286696506-clipPath1)" id="path27" ns1:connector-curvature="0" style="stroke:none" />
    </g>
    <g id="g29" style="text-rendering:geometricPrecision;fill:#f5d0fe;stroke:none">
      <path d="m 222.6998,468.7149 152.8016,-88.2164 c 1.8269,-1.0547 2.4526,-3.3897 1.3979,-5.2166 -1.0548,-1.8269 -3.3898,-2.4526 -5.2167,-1.3979 L 218.881,462.1004 c -1.8269,1.0548 -2.4526,3.3897 -1.3978,5.2166 1.0547,1.827 3.3897,2.4527 5.2166,1.3979 z" clip-path="url(#1477286696506-clipPath1)" id="path31" ns1:connector-curvature="0" style="stroke:none" />
    </g>
    <g id="g33" style="text-rendering:geometricPrecision;fill:#f5d0fe;stroke:none">
      <path d="m 337.949,354.9984 c 10e-5,2.1095 1.7094,3.8188 3.8189,3.8188 2.1095,0 3.8189,-1.7093 3.8189,-3.8188 l 0,-132.0686 c 0,-2.1095 -1.7094,-3.8188 -3.8189,-3.8189 -2.1095,1e-4 -3.8188,1.7094 -3.8189,3.8189 z m 31.8241,22.1928 c 0,2.1096 1.7094,3.8189 3.8189,3.8189 2.1095,0 3.8189,-1.7093 3.8189,-3.8189 l 0,-176.4543 c 0,-2.1095 -1.7094,-3.8188 -3.8189,-3.8188 -2.1095,0 -3.8189,1.7093 -3.8189,3.8188 z" clip-path="url(#1477286696506-clipPath1)" id="path35" ns1:connector-curvature="0" style="stroke:none" />
    </g>
    <g id="g37" style="text-rendering:geometricPrecision;fill:#f5d0fe;stroke:none">
      <path d="M 375.5014,197.4297 222.6998,109.2132 c -1.8269,-1.0547 -4.1619,-0.429 -5.2167,1.3979 -1.0547,1.8269 -0.429,4.1619 1.3979,5.2167 l 152.8016,88.2164 c 1.8269,1.0547 4.1619,0.429 5.2167,-1.3979 1.0547,-1.8269 0.429,-4.1619 -1.3979,-5.2166 z" clip-path="url(#1477286696506-clipPath1)" id="path39" ns1:connector-curvature="0" style="stroke:none" />
    </g>
    <g id="g41" style="text-rendering:geometricPrecision;fill:#f5d0fe;stroke:none">
      <path d="M 375.5014,204.0442 528.296,115.8264 c 1.8269,-1.0548 2.4525,-3.3898 1.3978,-5.2167 -1.0548,-1.8269 -3.3898,-2.4525 -5.2167,-1.3977 l -152.7946,88.2177 c -1.8268,1.0548 -2.4525,3.3898 -1.3977,5.2167 1.0547,1.8269 3.3898,2.4525 5.2166,1.3978 z" clip-path="url(#1477286696506-clipPath1)" id="path43" ns1:connector-curvature="0" style="stroke:none" />
    </g>
    <g id="g45" style="fill:#fb7185;stroke:none;text-rendering:geometricPrecision">
      <path d="m 524.4772,115.8264 112.3278,64.8512 c 1.8269,1.0547 4.1619,0.429 5.2166,-1.3979 1.0548,-1.8269 0.4291,-4.1619 -1.3978,-5.2166 L 528.296,109.2119 c -1.8269,-1.0547 -4.1619,-0.429 -5.2167,1.3979 -1.0547,1.8269 -0.429,4.1619 1.3979,5.2166 z" clip-path="url(#1477286696506-clipPath1)" id="path47" ns1:connector-curvature="0" style="stroke:none" />
      <path d="m 524.4772,115.8264 112.3278,64.8512 c 1.8269,1.0547 4.1619,0.429 5.2166,-1.3979 1.0548,-1.8269 0.4291,-4.1619 -1.3978,-5.2166 L 528.296,109.2119 c -1.8269,-1.0547 -4.1619,-0.429 -5.2167,1.3979 -1.0547,1.8269 -0.429,4.1619 1.3979,5.2166 z" clip-path="url(#1477286696185-clipPath1)" id="path49" ns1:connector-curvature="0" style="fill:#f5d0fe;stroke:none" />
    </g>
    <g id="g51" style="text-rendering:geometricPrecision;fill:#f5d0fe;stroke:none">
      <path d="m 371.6825,380.4984 139.5658,80.58 c 1.8269,1.0548 4.1619,0.4291 5.2167,-1.3977 1.0547,-1.8269 0.4291,-4.1619 -1.3978,-5.2167 l -139.5658,-80.58 c -1.8268,-1.0547 -4.1619,-0.4291 -5.2166,1.3978 -1.0548,1.8268 -0.4291,4.1619 1.3977,5.2166 z" clip-path="url(#1477286696506-clipPath1)" id="path53" ns1:connector-curvature="0" style="stroke:none" />
    </g>
    <g font-size="63px" transform="translate(648.3624,163.7343)" id="g55" style="font-size:63px;font-family:sans-serif;fill:#fb7185;stroke:none;text-rendering:geometricPrecision">
      <text x="0" xml:space="preserve" y="60" clip-path="url(#147728669652-clipPath1)" id="text57" style="stroke:none">Br</text>
    </g>
  </g>
</svg>