<?xml version='1.0' encoding='utf-8'?>
<svg xmlns="http://www.w3.org/2000/svg" xmlns:dc="http://purl.org/dc/elements/1.1/" xmlns:ns1="http://www.inkscape.org/namespaces/inkscape" xmlns:ns2="http://sodipodi.sourceforge.net/DTD/sodipodi-0.dtd" xmlns:ns4="http://creativecommons.org/ns#" xmlns:rdf="http://www.w3.org/1999/02/22-rdf-syntax-ns#" width="711.64856" stroke-miterlimit="10" font-weight="normal" height="516.73218" font-style="normal" font-size="12px" id="svg2" version="1.1" ns1:version="0.91 r13725" ns2:docname="OMA.svg" style="font-style:normal;font-weight:normal;font-size:12px;font-family:Dialog;color-interpolation:auto;fill:#000000;fill-opacity:1;stroke:none;stroke:none;stroke:none;stroke:none;stroke:none;stroke:none;stroke:none;stroke:none;color-rendering:auto;image-rendering:auto;shape-rendering:auto;text-rendering:auto">
  <metadata id="metadata103">
    <rdf:RDF>
      <ns4:Work rdf:about="">
        <dc:format>image/svg+xml</dc:format>
        <dc:type rdf:resource="http://purl.org/dc/dcmitype/StillImage" />
        <dc:title />
      </ns4:Work>
    </rdf:RDF>
  </metadata>
  <ns2:namedview pagecolor="#ffffff" bordercolor="#666666" borderopacity="1" objecttolerance="10" gridtolerance="10" guidetolerance="10" ns1:pageopacity="0" ns1:pageshadow="2" ns1:window-width="1060" ns1:window-height="480" id="namedview101" showgrid="false" fit-margin-top="10" fit-margin-left="10" fit-margin-right="10" fit-margin-bottom="10" ns1:zoom="0.36375" ns1:cx="355.60615" ns1:cy="258.36607" ns1:window-x="0" ns1:window-y="0" ns1:window-maximized="0" ns1:current-layer="svg2" />
  
  <defs id="genericDefs" />
  <g id="g5" transform="translate(-44.393853,-41.633908)" style="fill:#000000;stroke:none">
    <defs id="924290106874-defs1">
      <clipPath clipPathUnits="userSpaceOnUse" id="924290106737-clipPath1">
        <path d="M 0,0 800,0 800,600 0,600 0,0 Z" id="path9" ns1:connector-curvature="0" style="stroke:none" />
      </clipPath>
      <clipPath clipPathUnits="userSpaceOnUse" id="92429010689-clipPath1">
        <path d="m 549.1089,276.6096 c -30.833,0 -55.8282,24.9952 -55.8282,55.8283 0,30.8331 24.9952,55.8283 55.8282,55.8283 30.8332,0 55.8283,-24.9952 55.8283,-55.8283 0,-30.8331 -24.9951,-55.8283 -55.8283,-55.8283 z" id="path12" ns1:connector-curvature="0" style="stroke:none" />
      </clipPath>
      <clipPath clipPathUnits="userSpaceOnUse" id="924290106845-clipPath1">
        <path d="m 180.3782,208.9603 c -28.99,0 -52.491,23.501 -52.491,52.491 0,28.99 23.501,52.491 52.491,52.491 28.99,0 52.491,-23.501 52.491,-52.491 0,-28.99 -23.501,-52.491 -52.491,-52.491 z" id="path15" ns1:connector-curvature="0" style="stroke:none" />
      </clipPath>
      <clipPath clipPathUnits="userSpaceOnUse" id="924290106864-clipPath1">
        <path d="m 151.6015,54.7128 c -26.6174,0 -48.1951,21.5776 -48.1951,48.195 0,26.6174 21.5777,48.1951 48.1951,48.1951 26.6174,0 48.195,-21.5777 48.195,-48.1951 0,-26.6174 -21.5776,-48.195 -48.195,-48.195 z" id="path18" ns1:connector-curvature="0" style="stroke:none" />
      </clipPath>
      <clipPath clipPathUnits="userSpaceOnUse" id="924290106356-clipPath1">
        <path d="m -653.933,-231.9843 800,0 0,600 -800,0 0,-600 z" id="path21" ns1:connector-curvature="0" style="stroke:none" />
      </clipPath>
      <clipPath clipPathUnits="userSpaceOnUse" id="924290106640-clipPath1">
        <path d="m -721.933,-257.5111 800,0 0,600 -800,0 0,-600 z" id="path24" ns1:connector-curvature="0" style="stroke:none" />
      </clipPath>
      <clipPath clipPathUnits="userSpaceOnUse" id="92429010687-clipPath1">
        <path d="m -160.6547,-90.0313 800,0 0,600 -800,0 0,-600 z" id="path27" ns1:connector-curvature="0" style="stroke:none" />
      </clipPath>
    </defs>
    <g id="g29" style="text-rendering:geometricPrecision;fill:#000000;stroke:none">
      <path d="m 54.3945,474.3336 c 0,1.6969 1.375,3.0718 3.0718,3.0718 1.6969,0 3.0719,-1.3749 3.0719,-3.0718 l 0,-141.9372 c 0,-1.6968 -1.375,-3.0718 -3.0719,-3.0718 -1.6968,0 -3.0718,1.375 -3.0718,3.0718 z m 25.5988,-17.852 c 0,1.6968 1.375,3.0718 3.0719,3.0718 1.6968,0 3.0718,-1.375 3.0718,-3.0718 l 0,-106.232 c 0,-1.6968 -1.375,-3.0718 -3.0718,-3.0718 -1.6969,0 -3.0719,1.375 -3.0719,3.0718 z" clip-path="url(#924290106737-clipPath1)" id="path31" ns1:connector-curvature="0" style="stroke:none" />
    </g>
    <g id="g33" style="text-rendering:geometricPrecision;fill:#000000;stroke:none">
      <path d="m 181.5099,511.5396 c -1.4696,0.8483 -1.9731,2.7265 -1.1248,4.1961 0.8483,1.4696 2.7265,1.973 4.1962,1.1248 l 91.9838,-53.0964 c 1.4696,-0.8483 1.973,-2.7265 1.1247,-4.1961 -0.8483,-1.4696 -2.7265,-1.973 -4.1961,-1.1247 z m -2.6611,31.0936 c -1.4696,0.8483 -1.973,2.7265 -1.1247,4.1961 0.8483,1.4696 2.7265,1.973 4.1961,1.1247 l 122.9032,-70.9441 c 1.4696,-0.8483 1.973,-2.7265 1.1248,-4.1961 -0.8483,-1.4696 -2.7265,-1.9731 -4.1961,-1.1247 z" clip-path="url(#924290106737-clipPath1)" id="path35" ns1:connector-curvature="0" style="stroke:none" />
    </g>
    <g id="g37" style="text-rendering:geometricPrecision;fill:#000000;stroke:none">
      <path d="m 306.3596,474.3496 0.009,-141.9242 c 10e-5,-1.6969 -1.3748,-3.0719 -3.0717,-3.0721 -1.6968,-10e-5 -3.0719,1.3748 -3.072,3.0717 l -0.009,141.9243 c -10e-5,1.6968 1.3748,3.0719 3.0717,3.072 1.6968,1e-4 3.0719,-1.3748 3.072,-3.0717 z" clip-path="url(#924290106737-clipPath1)" id="path39" ns1:connector-curvature="0" style="stroke:none" />
    </g>
    <g id="g41" style="text-rendering:geometricPrecision;fill:#000000;stroke:none">
      <path d="m 273.5004,348.3276 c 1.4695,0.8485 3.3477,0.3453 4.1962,-1.1242 0.8485,-1.4695 0.3453,-3.3477 -1.1242,-4.1963 l -92.0002,-53.1216 c -1.4695,-0.8485 -3.3478,-0.3453 -4.1963,1.1242 -0.8485,1.4695 -0.3453,3.3477 1.1242,4.1962 z m 28.2599,-13.2422 c 1.4695,0.8485 3.3478,0.3453 4.1963,-1.1242 0.8485,-1.4695 0.3453,-3.3478 -1.1242,-4.1962 L 181.9142,258.7911 c -1.4695,-0.8485 -3.3477,-0.3453 -4.1962,1.1242 -0.8485,1.4695 -0.3453,3.3477 1.1242,4.1962 z" clip-path="url(#924290106737-clipPath1)" id="path43" ns1:connector-curvature="0" style="stroke:none" />
    </g>
    <g id="g45" style="text-rendering:geometricPrecision;fill:#000000;stroke:none">
      <path d="m 55.9305,476.994 122.9182,70.9599 c 1.4696,0.8484 3.3478,0.3451 4.1961,-1.1245 0.8484,-1.4695 0.3451,-3.3478 -1.1245,-4.1962 l -122.9182,-70.96 c -1.4695,-0.8483 -3.3477,-0.345 -4.1961,1.1246 -0.8484,1.4696 -0.345,3.3478 1.1245,4.1962 z" clip-path="url(#924290106737-clipPath1)" id="path47" ns1:connector-curvature="0" style="stroke:none" />
    </g>
    <g id="g49" style="text-rendering:geometricPrecision;fill:#000000;stroke:none">
      <path d="M 178.8426,258.7908 55.9307,329.736 c -1.4696,0.8483 -1.9731,2.7264 -1.1248,4.196 0.8483,1.4697 2.7264,1.9732 4.1961,1.1249 l 122.9118,-70.9451 c 1.4696,-0.8483 1.9731,-2.7265 1.1249,-4.1961 -0.8483,-1.4697 -2.7265,-1.9731 -4.1961,-1.1249 z" clip-path="url(#924290106737-clipPath1)" id="path51" ns1:connector-curvature="0" style="stroke:none" />
    </g>
    <g id="g53" style="text-rendering:geometricPrecision;fill:#000000;stroke:none">
      <path d="m 304.8321,335.0855 122.91,-70.9536 c 1.4696,-0.8484 1.973,-2.7266 1.1246,-4.1961 -0.8484,-1.4696 -2.7266,-1.973 -4.1961,-1.1246 l -122.91,70.9536 c -1.4696,0.8484 -1.973,2.7266 -1.1246,4.1961 0.8483,1.4696 2.7265,1.973 4.1961,1.1246 z" clip-path="url(#924290106737-clipPath1)" id="path55" ns1:connector-curvature="0" style="stroke:none" />
    </g>
    <g id="g57" style="text-rendering:geometricPrecision;fill:#000000;stroke:none">
      <path d="m 424.6703,264.1317 122.9026,70.9664 c 1.4695,0.8485 3.3478,0.3453 4.1963,-1.1242 0.8485,-1.4694 0.3453,-3.3477 -1.1242,-4.1962 L 427.7424,258.8113 c -1.4695,-0.8485 -3.3478,-0.3453 -4.1963,1.1242 -0.8485,1.4695 -0.3453,3.3477 1.1242,4.1962 z" clip-path="url(#924290106737-clipPath1)" id="path59" ns1:connector-curvature="0" style="stroke:none" />
    </g>
    <g id="g61" style="fill:#333399;stroke:none;text-rendering:geometricPrecision">
      <path d="M 550.6447,335.0983 647.345,279.275 c 1.4696,-0.8483 1.9729,-2.7266 1.1246,-4.1961 -0.8484,-1.4696 -2.7266,-1.973 -4.1962,-1.1246 l -96.7002,55.8232 c -1.4696,0.8484 -1.973,2.7266 -1.1246,4.1962 0.8483,1.4695 2.7266,1.9729 4.1961,1.1246 z" clip-path="url(#924290106737-clipPath1)" id="path63" ns1:connector-curvature="0" style="stroke:none" />
      <path d="M 550.6447,335.0983 647.345,279.275 c 1.4696,-0.8483 1.9729,-2.7266 1.1246,-4.1961 -0.8484,-1.4696 -2.7266,-1.973 -4.1962,-1.1246 l -96.7002,55.8232 c -1.4696,0.8484 -1.973,2.7266 -1.1246,4.1962 0.8483,1.4695 2.7266,1.9729 4.1961,1.1246 z" clip-path="url(#92429010689-clipPath1)" id="path65" ns1:connector-curvature="0" style="fill:#000000;stroke:none" />
    </g>
    <g id="g67" style="text-rendering:geometricPrecision;fill:#000000;stroke:none">
      <path d="m 546.0371,332.4377 -0.007,129.6327 c -10e-5,1.6969 1.3748,3.0719 3.0717,3.072 1.6969,10e-5 3.0719,-1.3748 3.072,-3.0717 l 0.007,-129.6327 c 0,-1.6968 -1.3748,-3.0719 -3.0717,-3.0719 -1.6969,-1e-4 -3.0719,1.3748 -3.072,3.0716 z" clip-path="url(#924290106737-clipPath1)" id="path69" ns1:connector-curvature="0" style="stroke:none" />
    </g>
    <g id="g71" style="fill:#ff0000;stroke:none;text-rendering:geometricPrecision">
      <path d="m 183.45,261.4515 0.008,-104.982 c 1e-4,-1.6969 -1.3748,-3.0719 -3.0716,-3.0721 -1.6969,-1e-4 -3.072,1.3748 -3.0721,3.0716 l -0.008,104.982 c -2e-4,1.6969 1.3747,3.072 3.0716,3.0721 1.6968,2e-4 3.0719,-1.3747 3.072,-3.0716 z" clip-path="url(#924290106737-clipPath1)" id="path73" ns1:connector-curvature="0" style="stroke:none" />
      <path d="m 183.45,261.4515 0.008,-104.982 c 1e-4,-1.6969 -1.3748,-3.0719 -3.0716,-3.0721 -1.6969,-1e-4 -3.072,1.3748 -3.0721,3.0716 l -0.008,104.982 c -2e-4,1.6969 1.3747,3.072 3.0716,3.0721 1.6968,2e-4 3.0719,-1.3747 3.072,-3.0716 z" clip-path="url(#924290106845-clipPath1)" id="path75" ns1:connector-curvature="0" style="fill:#000000;stroke:none" />
    </g>
    <g id="g77" style="text-rendering:geometricPrecision;fill:#000000;stroke:none">
      <path d="M 153.1376,100.2477 69.665,52.0462 c -1.4695,-0.8485 -3.3478,-0.3454 -4.1963,1.1241 -0.8486,1.4694 -0.3454,3.3477 1.124,4.1963 l 83.4726,48.2014 c 1.4695,0.8485 3.3478,0.3454 4.1963,-1.124 0.8486,-1.4695 0.3454,-3.3478 -1.124,-4.1963 z" clip-path="url(#924290106737-clipPath1)" id="path79" ns1:connector-curvature="0" style="stroke:none" />
      <path d="M 153.1376,100.2477 69.665,52.0462 c -1.4695,-0.8485 -3.3478,-0.3454 -4.1963,1.1241 -0.8486,1.4694 -0.3454,3.3477 1.124,4.1963 l 83.4726,48.2014 c 1.4695,0.8485 3.3478,0.3454 4.1963,-1.124 0.8486,-1.4695 0.3454,-3.3478 -1.124,-4.1963 z" clip-path="url(#924290106864-clipPath1)" id="path81" ns1:connector-curvature="0" style="fill:#ff0000;stroke:none" />
    </g>
    <g id="g83" style="fill:#ffffff;stroke:none;text-rendering:geometricPrecision">
      </g>
    <g font-size="50px" transform="translate(653.933,231.9843)" id="g87" style="font-size:50px;font-family:sans-serif;fill:#333399;stroke:none;text-rendering:geometricPrecision">
      <text x="0" xml:space="preserve" y="48" clip-path="url(#924290106356-clipPath1)" id="text89" style="stroke:none">NH</text>
    </g>
    <g font-size="41px" transform="translate(721.933,257.5111)" id="g91" style="font-size:41px;font-family:sans-serif;fill:#333399;stroke:none;text-rendering:geometricPrecision">
      <text x="0" xml:space="preserve" y="39" clip-path="url(#924290106640-clipPath1)" id="text93" style="stroke:none">2</text>
    </g>
    <g font-size="41px" id="g95" style="font-size:41px;font-family:sans-serif;fill:#ffffff;stroke:none;text-rendering:geometricPrecision">
      <text x="0" font-size="50px" y="48" transform="translate(160.6547,90.0313)" clip-path="url(#92429010687-clipPath1)" xml:space="preserve" id="text99" style="font-size:50px;fill:#ff0000;stroke:none">O</text>
    </g>
  </g>
</svg>