<?xml version='1.0' encoding='utf-8'?>
<svg xmlns="http://www.w3.org/2000/svg" xmlns:dc="http://purl.org/dc/elements/1.1/" xmlns:ns1="http://www.inkscape.org/namespaces/inkscape" xmlns:ns2="http://sodipodi.sourceforge.net/DTD/sodipodi-0.dtd" xmlns:ns4="http://creativecommons.org/ns#" xmlns:rdf="http://www.w3.org/1999/02/22-rdf-syntax-ns#" width="330.11108" stroke-miterlimit="10" font-weight="normal" height="345.15698" font-style="normal" font-size="12px" id="svg2" version="1.1" ns1:version="0.91 r13725" ns2:docname="PCE.svg" style="font-style:normal;font-weight:normal;font-size:12px;font-family:Dialog;color-interpolation:auto;fill:#f5d0fe;fill-opacity:1;stroke:none;stroke:none;stroke:none;stroke:none;stroke:none;stroke:none;stroke:none;stroke:none;color-rendering:auto;image-rendering:auto;shape-rendering:auto;text-rendering:auto">
  <metadata id="metadata98">
    <rdf:RDF>
      <ns4:Work rdf:about="">
        <dc:format>image/svg+xml</dc:format>
        <dc:type rdf:resource="http://purl.org/dc/dcmitype/StillImage" />
        <dc:title />
      </ns4:Work>
    </rdf:RDF>
  </metadata>
  <ns2:namedview pagecolor="#eef2ff" bordercolor="#666666" borderopacity="1" objecttolerance="10" gridtolerance="10" guidetolerance="10" ns1:pageopacity="0" ns1:pageshadow="2" ns1:window-width="1060" ns1:window-height="480" id="namedview96" showgrid="false" fit-margin-top="10" fit-margin-left="10" fit-margin-right="10" fit-margin-bottom="10" ns1:zoom="0.36375" ns1:cx="381.93712" ns1:cy="105.10587" ns1:window-x="0" ns1:window-y="0" ns1:window-maximized="0" ns1:current-layer="svg2" />
  
  <defs id="genericDefs" />
  <g id="g5" transform="translate(-18.062884,-59.948886)" style="fill:#f5d0fe;stroke:none">
    <defs id="241503130204-defs1">
      <clipPath clipPathUnits="userSpaceOnUse" id="241503130540-clipPath1">
        <path d="M 0,0 800,0 800,600 0,600 0,0 Z" id="path9" ns1:connector-curvature="0" style="stroke:none" />
      </clipPath>
      <clipPath clipPathUnits="userSpaceOnUse" id="241503130799-clipPath1">
        <path d="m 225.1088,209.3915 c -16.4028,0 -29.6999,13.2972 -29.6999,29.7 0,16.4028 13.2971,29.6999 29.6999,29.6999 16.4029,0 29.7,-13.2971 29.7,-29.6999 0,-16.4028 -13.2971,-29.7 -29.7,-29.7 z" id="path12" ns1:connector-curvature="0" style="stroke:none" />
      </clipPath>
      <clipPath clipPathUnits="userSpaceOnUse" id="241503130148-clipPath1">
        <path d="m 285.5146,145.5526 c -15.954,0 -28.8872,12.9332 -28.8872,28.8871 0,15.9539 12.9332,28.8871 28.8872,28.8871 15.9538,0 28.887,-12.9332 28.887,-28.8871 0,-15.9539 -12.9332,-28.8871 -28.887,-28.8871 z" id="path15" ns1:connector-curvature="0" style="stroke:none" />
      </clipPath>
      <clipPath clipPathUnits="userSpaceOnUse" id="241503130944-clipPath1">
        <path d="m -277.8078,-177.731 800,0 0,600 -800,0 0,-600 z" id="path18" ns1:connector-curvature="0" style="stroke:none" />
      </clipPath>
    </defs>
    <g id="g20" style="text-rendering:geometricPrecision;fill:#f5d0fe;stroke:none">
      <path d="m 224.2737,237.6449 -66.8355,38.5859 c -0.7991,0.4613 -1.0728,1.4827 -0.6114,2.2818 0.4613,0.7991 1.4826,1.0728 2.2817,0.6114 l 66.8355,-38.5859 c 0.7991,-0.4613 1.0728,-1.4827 0.6114,-2.2818 -0.4613,-0.7991 -1.4826,-1.0727 -2.2817,-0.6114 z" clip-path="url(#241503130540-clipPath1)" id="path22" ns1:connector-curvature="0" style="stroke:none" />
    </g>
    <g id="g24" style="text-rendering:geometricPrecision;fill:#f5d0fe;stroke:none">
      <path d="m 224.2737,240.5381 66.8355,38.5859 c 0.799,0.4614 1.8204,0.1877 2.2817,-0.6114 0.4614,-0.7991 0.1877,-1.8205 -0.6114,-2.2818 L 225.944,237.6449 c -0.7991,-0.4613 -1.8204,-0.1877 -2.2818,0.6114 -0.4613,0.7991 -0.1876,1.8205 0.6115,2.2818 z" clip-path="url(#241503130540-clipPath1)" id="path26" ns1:connector-curvature="0" style="stroke:none" />
    </g>
    <g id="g28" style="text-rendering:geometricPrecision;fill:#f5d0fe;stroke:none">
      <path d="m 156.603,277.6774 0,77.1812 c 0,0.9227 0.7476,1.6704 1.6703,1.6704 0.9227,0 1.6704,-0.7477 1.6704,-1.6704 l 0,-77.1812 c 0,-0.9227 -0.7477,-1.6704 -1.6704,-1.6704 -0.9227,0 -1.6703,0.7477 -1.6703,1.6704 z" clip-path="url(#241503130540-clipPath1)" id="path30" ns1:connector-curvature="0" style="stroke:none" />
    </g>
    <g id="g32" style="text-rendering:geometricPrecision;fill:#f5d0fe;stroke:none">
      <path d="m 157.4383,356.3053 66.8355,38.5765 c 0.7992,0.4613 1.8205,0.1875 2.2817,-0.6116 0.4613,-0.7992 0.1875,-1.8205 -0.6117,-2.2817 l -66.8354,-38.5766 c -0.7992,-0.4612 -1.8205,-0.1874 -2.2817,0.6117 -0.4613,0.7991 -0.1875,1.8204 0.6116,2.2817 z" clip-path="url(#241503130540-clipPath1)" id="path34" ns1:connector-curvature="0" style="stroke:none" />
    </g>
    <g id="g36" style="text-rendering:geometricPrecision;fill:#f5d0fe;stroke:none">
      <path d="m 225.9438,394.8818 66.8355,-38.5765 c 0.7992,-0.4613 1.073,-1.4826 0.6117,-2.2817 -0.4613,-0.7991 -1.4826,-1.0729 -2.2817,-0.6117 l -66.8355,38.5766 c -0.7991,0.4612 -1.0729,1.4825 -0.6117,2.2817 0.4613,0.7991 1.4826,1.0729 2.2817,0.6116 z" clip-path="url(#241503130540-clipPath1)" id="path38" ns1:connector-curvature="0" style="stroke:none" />
    </g>
    <g id="g40" style="text-rendering:geometricPrecision;fill:#f5d0fe;stroke:none">
      <path d="m 293.6147,354.8586 0,-77.1812 c 0,-0.9227 -0.7477,-1.6704 -1.6704,-1.6704 -0.9227,0 -1.6703,0.7477 -1.6703,1.6704 l 0,77.1812 c 0,0.9227 0.7476,1.6704 1.6703,1.6704 0.9227,0 1.6704,-0.7477 1.6704,-1.6704 z" clip-path="url(#241503130540-clipPath1)" id="path42" ns1:connector-curvature="0" style="stroke:none" />
    </g>
    <g id="g44" style="text-rendering:geometricPrecision;fill:#f5d0fe;stroke:none">
      <path d="m 223.11,239.8529 1.017,0.59 0.9818,-1.3514 0.9819,-1.3514 -0.8754,-0.7849 0,0 -2.1053,2.8977 z m -9.4413,-5.477 2.905,1.6852 3.0156,-4.1505 0,0 -2.5004,-2.2421 -3.4202,4.7074 z m -9.4413,-5.477 2.905,1.6853 0,0 4.3304,-5.9604 0,0 -2.5004,-2.242 -4.735,6.5171 z m -9.4413,-5.477 2.905,1.6853 5.6453,-7.7701 -2.5004,-2.2421 0,0 -6.0499,8.3269 z m -9.4413,-5.4769 2.905,1.6852 6.9601,-9.5798 -2.5004,-2.2421 0,0 -7.3647,10.1367 z m -9.4413,-5.477 2.905,1.6852 0,0 8.275,-11.3896 0,0 -2.5004,-2.2421 -8.6796,11.9465 z m -9.4413,-5.477 2.905,1.6852 0,0 9.5898,-13.1993 0,0 -2.5004,-2.2421 -9.9944,13.7562 z m -16.36,-9.4906 9.8237,5.6988 10.9047,-15.0091 -8.4556,-7.5818 -1.2599,11.989 -11.0129,4.9031 z" clip-path="url(#241503130540-clipPath1)" id="path46" ns1:connector-curvature="0" style="stroke:none" />
    </g>
    <g id="g48" style="text-rendering:geometricPrecision;fill:#f5d0fe;stroke:none">
      <path d="M 171.7224,115.6362 109.2829,70.2684 c -0.7464,-0.5424 -1.7908,-0.377 -2.3332,0.3695 -0.5423,0.7464 -0.377,1.7908 0.3695,2.3331 l 62.4395,45.3679 c 0.7465,0.5424 1.7908,0.377 2.3332,-0.3695 0.5424,-0.7464 0.377,-1.7908 -0.3695,-2.3332 z" clip-path="url(#241503130540-clipPath1)" id="path50" ns1:connector-curvature="0" style="stroke:none" />
    </g>
    <g id="g52" style="text-rendering:geometricPrecision;fill:#f5d0fe;stroke:none">
      <path d="m 105.7734,89.81 c 0.843,-0.3753 1.222,-1.3624 0.8467,-2.2053 -0.3752,-0.843 -1.3623,-1.222 -2.2053,-0.8468 l -52.761,23.4861 c -0.8429,0.3753 -1.2219,1.3624 -0.8467,2.2053 0.3753,0.843 1.3624,1.222 2.2053,0.8467 z m 3.207,-16.6643 c 0.8429,-0.3752 1.2219,-1.3623 0.8467,-2.2053 -0.3753,-0.8429 -1.3624,-1.2219 -2.2053,-0.8467 l -70.497,31.3811 c -0.843,0.3752 -1.222,1.3624 -0.8468,2.2053 0.3753,0.843 1.3624,1.222 2.2053,0.8467 z" clip-path="url(#241503130540-clipPath1)" id="path54" ns1:connector-curvature="0" style="stroke:none" />
    </g>
    <g id="g56" style="text-rendering:geometricPrecision;fill:#f5d0fe;stroke:none">
      <path d="m 36.1428,102.8261 -8.0705,76.7511 c -0.0965,0.9176 0.5688,1.7394 1.4865,1.8359 0.9176,0.0965 1.7394,-0.5689 1.8359,-1.4866 l 8.0706,-76.751 c 0.0964,-0.9176 -0.5689,-1.7394 -1.4866,-1.8359 -0.9176,-0.0965 -1.7394,0.5689 -1.8359,1.4865 z" clip-path="url(#241503130540-clipPath1)" id="path58" ns1:connector-curvature="0" style="stroke:none" />
    </g>
    <g id="g60" style="text-rendering:geometricPrecision;fill:#f5d0fe;stroke:none">
      <path d="m 46.7507,172.8453 c -0.7465,-0.5423 -1.7909,-0.377 -2.3332,0.3695 -0.5424,0.7465 -0.377,1.7908 0.3694,2.3332 l 46.7334,33.9559 c 0.7464,0.5424 1.7908,0.377 2.3332,-0.3695 0.5423,-0.7464 0.3769,-1.7908 -0.3695,-2.3332 z m -16.0354,5.5552 c -0.7464,-0.5423 -1.7908,-0.377 -2.3332,0.3695 -0.5423,0.7464 -0.377,1.7908 0.3695,2.3332 l 62.4395,45.3678 c 0.7465,0.5424 1.7908,0.377 2.3332,-0.3694 0.5424,-0.7465 0.377,-1.7909 -0.3695,-2.3332 z" clip-path="url(#241503130540-clipPath1)" id="path62" ns1:connector-curvature="0" style="stroke:none" />
    </g>
    <g id="g64" style="text-rendering:geometricPrecision;fill:#f5d0fe;stroke:none">
      <path d="m 148.1852,182.4475 c -0.0964,0.9177 0.569,1.7394 1.4867,1.8358 0.9176,0.0965 1.7393,-0.569 1.8358,-1.4866 l 6.036,-57.436 c 0.0964,-0.9176 -0.569,-1.7393 -1.4867,-1.8358 -0.9176,-0.0964 -1.7393,0.569 -1.8358,1.4867 z m 12.8291,11.109 c -0.0965,0.9176 0.569,1.7393 1.4866,1.8358 0.9177,0.0964 1.7394,-0.569 1.8358,-1.4867 l 8.0651,-76.7435 c 0.0964,-0.9176 -0.569,-1.7393 -1.4866,-1.8358 -0.9177,-0.0964 -1.7394,0.569 -1.8358,1.4867 z" clip-path="url(#241503130540-clipPath1)" id="path66" ns1:connector-curvature="0" style="stroke:none" />
    </g>
    <g id="g68" style="text-rendering:geometricPrecision;fill:#f5d0fe;stroke:none">
      <path d="m 92.8524,226.6457 70.5025,-31.3887 c 0.8429,-0.3753 1.2219,-1.3624 0.8466,-2.2053 -0.3753,-0.843 -1.3624,-1.2219 -2.2054,-0.8466 l -70.5025,31.3886 c -0.8429,0.3753 -1.2219,1.3624 -0.8466,2.2054 0.3753,0.8429 1.3624,1.2219 2.2054,0.8466 z" clip-path="url(#241503130540-clipPath1)" id="path70" ns1:connector-curvature="0" style="stroke:none" />
    </g>
    <g id="g72" style="fill:#c4b5fd;stroke:none;text-rendering:geometricPrecision">
      <path d="m 225.1088,239.0915 0.9819,1.3514 53.2101,-27.8197 -6.1364,-8.4461 -6.1364,-8.4461 -42.901,42.0091 z" clip-path="url(#241503130540-clipPath1)" id="path74" ns1:connector-curvature="0" style="stroke:none" />
      <path d="m 225.1088,239.0915 0.9819,1.3514 53.2101,-27.8197 -6.1364,-8.4461 -6.1364,-8.4461 -42.901,42.0091 z" clip-path="url(#241503130799-clipPath1)" id="path76" ns1:connector-curvature="0" style="fill:#f5d0fe;stroke:none" />
    </g>
    <g id="g78" style="text-rendering:geometricPrecision;fill:#f5d0fe;stroke:none">
      <path d="m 287.1758,174.2651 -6.0391,-57.4577 c -0.0964,-0.9177 -0.9182,-1.5831 -1.8358,-1.4867 -0.9177,0.0965 -1.5831,0.9182 -1.4866,1.8359 l 6.039,57.4577 c 0.0965,0.9176 0.9182,1.583 1.8358,1.4866 0.9177,-0.0965 1.5831,-0.9182 1.4867,-1.8358 z" clip-path="url(#241503130540-clipPath1)" id="path80" ns1:connector-curvature="0" style="stroke:none" />
      <path d="m 287.1758,174.2651 -6.0391,-57.4577 c -0.0964,-0.9177 -0.9182,-1.5831 -1.8358,-1.4867 -0.9177,0.0965 -1.5831,0.9182 -1.4866,1.8359 l 6.039,57.4577 c 0.0965,0.9176 0.9182,1.583 1.8358,1.4866 0.9177,-0.0965 1.5831,-0.9182 1.4867,-1.8358 z" clip-path="url(#241503130148-clipPath1)" id="path82" ns1:connector-curvature="0" style="fill:#c4b5fd;stroke:none" />
    </g>
    <g id="g84" style="text-rendering:geometricPrecision;fill:#f5d0fe;stroke:none">
      <path d="m 280.4573,118.3333 57.0279,-41.4332 c 0.7465,-0.5423 0.9119,-1.5867 0.3696,-2.3332 -0.5424,-0.7464 -1.5867,-0.9118 -2.3332,-0.3695 l -57.0279,41.4332 c -0.7465,0.5424 -0.9119,1.5867 -0.3696,2.3332 0.5424,0.7465 1.5867,0.9119 2.3332,0.3695 z" clip-path="url(#241503130540-clipPath1)" id="path86" ns1:connector-curvature="0" style="stroke:none" />
    </g>
    <g id="g88" style="fill:#eef2ff;stroke:none;text-rendering:geometricPrecision">
      </g>
    <g font-size="27px" transform="translate(277.8078,177.731)" id="g92" style="font-size:27px;font-family:sans-serif;fill:#c4b5fd;stroke:none;text-rendering:geometricPrecision">
      <text x="0" xml:space="preserve" y="26" clip-path="url(#241503130944-clipPath1)" id="text94" style="stroke:none">NH</text>
    </g>
  </g>
</svg>