<?xml version='1.0' encoding='utf-8'?>
<svg xmlns="http://www.w3.org/2000/svg" xmlns:dc="http://purl.org/dc/elements/1.1/" xmlns:ns1="http://www.inkscape.org/namespaces/inkscape" xmlns:ns2="http://sodipodi.sourceforge.net/DTD/sodipodi-0.dtd" xmlns:ns4="http://creativecommons.org/ns#" xmlns:rdf="http://www.w3.org/1999/02/22-rdf-syntax-ns#" width="412.64923" stroke-miterlimit="10" font-weight="normal" height="331.73901" font-style="normal" font-size="12px" id="svg2" version="1.1" ns1:version="0.91 r13725" ns2:docname="Pentedrone.svg" style="font-style:normal;font-weight:normal;font-size:12px;font-family:Dialog;color-interpolation:auto;fill:#f5d0fe;fill-opacity:1;stroke:none;stroke:none;stroke:none;stroke:none;stroke:none;stroke:none;stroke:none;stroke:none;color-rendering:auto;image-rendering:auto;shape-rendering:auto;text-rendering:auto">
  <metadata id="metadata111">
    <rdf:RDF>
      <ns4:Work rdf:about="">
        <dc:format>image/svg+xml</dc:format>
        <dc:type rdf:resource="http://purl.org/dc/dcmitype/StillImage" />
        <dc:title />
      </ns4:Work>
    </rdf:RDF>
  </metadata>
  <ns2:namedview pagecolor="#eef2ff" bordercolor="#666666" borderopacity="1" objecttolerance="10" gridtolerance="10" guidetolerance="10" ns1:pageopacity="0" ns1:pageshadow="2" ns1:window-width="1060" ns1:window-height="480" id="namedview109" showgrid="false" fit-margin-top="10" fit-margin-left="10" fit-margin-right="10" fit-margin-bottom="10" ns1:zoom="0.36375" ns1:cx="171.25919" ns1:cy="49.1653" ns1:window-x="0" ns1:window-y="0" ns1:window-maximized="0" ns1:current-layer="svg2" />
  
  <defs id="genericDefs" />
  <g id="g5" transform="translate(-228.74081,-17.4263)" style="fill:#f5d0fe;stroke:none">
    <defs id="1265298280319-defs1">
      <clipPath clipPathUnits="userSpaceOnUse" id="1265298280161-clipPath1">
        <path d="M 0,0 800,0 800,600 0,600 0,0 Z" id="path9" ns1:connector-curvature="0" style="stroke:none" />
      </clipPath>
      <clipPath clipPathUnits="userSpaceOnUse" id="1265298280702-clipPath1">
        <path d="m 437.9222,87.8141 c -15.5744,0 -28.1999,12.6255 -28.1999,28.1999 0,15.5743 12.6255,28.1999 28.1999,28.1999 15.5744,0 28.1999,-12.6256 28.1999,-28.1999 0,-15.5744 -12.6255,-28.1999 -28.1999,-28.1999 z" id="path12" ns1:connector-curvature="0" style="stroke:none" />
      </clipPath>
      <clipPath clipPathUnits="userSpaceOnUse" id="126529828052-clipPath1">
        <path d="m 503.7616,124.0664 c -16.5489,0 -29.9645,13.4156 -29.9645,29.9645 0,16.5489 13.4156,29.9645 29.9645,29.9645 16.549,0 29.9645,-13.4156 29.9645,-29.9645 0,-16.5489 -13.4155,-29.9645 -29.9645,-29.9645 z" id="path15" ns1:connector-curvature="0" style="stroke:none" />
      </clipPath>
      <clipPath clipPathUnits="userSpaceOnUse" id="1265298280773-clipPath1">
        <path d="m 583.5461,97.3975 c -14.7312,0 -26.6731,11.942 -26.6731,26.6732 0,14.7312 11.9419,26.6732 26.6731,26.6732 14.7312,0 26.6733,-11.942 26.6733,-26.6732 0,-14.7312 -11.9421,-26.6732 -26.6733,-26.6732 z" id="path18" ns1:connector-curvature="0" style="stroke:none" />
      </clipPath>
      <clipPath clipPathUnits="userSpaceOnUse" id="1265298280646-clipPath1">
        <path d="m -427.3011,-23.9869 800,0 0,600 -800,0 0,-600 z" id="path21" ns1:connector-curvature="0" style="stroke:none" />
      </clipPath>
      <clipPath clipPathUnits="userSpaceOnUse" id="1265298280217-clipPath1">
        <path d="m -559.6529,-72.8682 800,0 0,600 -800,0 0,-600 z" id="path24" ns1:connector-curvature="0" style="stroke:none" />
      </clipPath>
      <clipPath clipPathUnits="userSpaceOnUse" id="1265298280205-clipPath1">
        <path d="m -559.6519,-100.0208 800,0 0,600 -800,0 0,-600 z" id="path27" ns1:connector-curvature="0" style="stroke:none" />
      </clipPath>
    </defs>
    <g id="g29" style="text-rendering:geometricPrecision;fill:#f5d0fe;stroke:none">
      <path d="m 238.7412,230.045 c 0,0.909 0.7366,1.6456 1.6456,1.6456 0.909,0 1.6456,-0.7366 1.6456,-1.6456 l 0,-76.0363 c 0,-0.909 -0.7366,-1.6456 -1.6456,-1.6456 -0.909,0 -1.6456,0.7366 -1.6456,1.6456 z m 13.7134,-9.5634 c 0,0.909 0.7365,1.6456 1.6456,1.6456 0.909,0 1.6455,-0.7366 1.6455,-1.6456 l 0,-56.9089 c 0,-0.909 -0.7365,-1.6456 -1.6455,-1.6456 -0.9091,0 -1.6456,0.7366 -1.6456,1.6456 z" clip-path="url(#1265298280161-clipPath1)" id="path31" ns1:connector-curvature="0" style="stroke:none" />
    </g>
    <g id="g33" style="text-rendering:geometricPrecision;fill:#f5d0fe;stroke:none">
      <path d="m 306.8374,249.9764 c -0.7873,0.4544 -1.057,1.4606 -0.6025,2.2479 0.4544,0.7872 1.4606,1.0569 2.2478,0.6025 l 49.2761,-28.4439 c 0.7873,-0.4545 1.057,-1.4606 0.6026,-2.2479 -0.4545,-0.7873 -1.4606,-1.057 -2.2479,-0.6025 z m -1.4256,16.6569 c -0.7872,0.4545 -1.0569,1.4606 -0.6025,2.2479 0.4544,0.7873 1.4606,1.057 2.2479,0.6025 l 65.8397,-38.005 c 0.7873,-0.4545 1.057,-1.4606 0.6026,-2.2479 -0.4545,-0.7873 -1.4607,-1.0569 -2.2479,-0.6025 z" clip-path="url(#1265298280161-clipPath1)" id="path35" ns1:connector-curvature="0" style="stroke:none" />
    </g>
    <g id="g37" style="text-rendering:geometricPrecision;fill:#f5d0fe;stroke:none">
      <path d="m 373.7198,230.0536 0.005,-76.0294 c 0,-0.909 -0.7365,-1.6456 -1.6456,-1.6457 -0.9089,-1e-4 -1.6456,0.7365 -1.6456,1.6455 l -0.005,76.0294 c 0,0.909 0.7365,1.6456 1.6456,1.6457 0.909,0 1.6456,-0.7365 1.6456,-1.6455 z" clip-path="url(#1265298280161-clipPath1)" id="path39" ns1:connector-curvature="0" style="stroke:none" />
    </g>
    <g id="g41" style="text-rendering:geometricPrecision;fill:#f5d0fe;stroke:none">
      <path d="m 356.1171,162.5431 c 0.7872,0.4545 1.7934,0.185 2.2479,-0.6023 0.4545,-0.7872 0.185,-1.7934 -0.6022,-2.2479 l -49.285,-28.4575 c -0.7872,-0.4545 -1.7934,-0.185 -2.2479,0.6022 -0.4545,0.7873 -0.185,1.7935 0.6023,2.248 z m 15.1389,-7.0939 c 0.7872,0.4545 1.7934,0.185 2.2479,-0.6023 0.4546,-0.7872 0.185,-1.7934 -0.6022,-2.2479 L 307.054,114.578 c -0.7872,-0.4545 -1.7934,-0.185 -2.248,0.6022 -0.4545,0.7873 -0.1849,1.7935 0.6023,2.248 z" clip-path="url(#1265298280161-clipPath1)" id="path43" ns1:connector-curvature="0" style="stroke:none" />
    </g>
    <g id="g45" style="text-rendering:geometricPrecision;fill:#f5d0fe;stroke:none">
      <path d="m 239.564,231.4702 65.8478,38.0135 c 0.7872,0.4545 1.7934,0.1848 2.2479,-0.6024 0.4544,-0.7873 0.1848,-1.7934 -0.6025,-2.2479 l -65.8477,-38.0136 c -0.7872,-0.4544 -1.7934,-0.1848 -2.2479,0.6025 -0.4545,0.7872 -0.1848,1.7934 0.6024,2.2479 z" clip-path="url(#1265298280161-clipPath1)" id="path47" ns1:connector-curvature="0" style="stroke:none" />
    </g>
    <g id="g49" style="text-rendering:geometricPrecision;fill:#f5d0fe;stroke:none">
      <path d="m 305.4085,114.5779 -65.8444,38.0056 c -0.7872,0.4544 -1.057,1.4606 -0.6025,2.2478 0.4544,0.7873 1.4605,1.057 2.2478,0.6026 l 65.8444,-38.0056 c 0.7872,-0.4544 1.057,-1.4605 0.6025,-2.2478 -0.4544,-0.7873 -1.4605,-1.057 -2.2478,-0.6026 z" clip-path="url(#1265298280161-clipPath1)" id="path51" ns1:connector-curvature="0" style="stroke:none" />
    </g>
    <g id="g53" style="text-rendering:geometricPrecision;fill:#f5d0fe;stroke:none">
      <path d="m 372.9016,155.4492 65.8433,-38.0101 c 0.7873,-0.4544 1.0569,-1.4606 0.6025,-2.2479 -0.4545,-0.7872 -1.4607,-1.0569 -2.2479,-0.6024 l -65.8434,38.0101 c -0.7872,0.4545 -1.0569,1.4607 -0.6024,2.2479 0.4545,0.7873 1.4606,1.0569 2.2479,0.6024 z" clip-path="url(#1265298280161-clipPath1)" id="path55" ns1:connector-curvature="0" style="stroke:none" />
    </g>
    <g id="g57" style="text-rendering:geometricPrecision;fill:#f5d0fe;stroke:none">
      <path d="m 437.0993,117.439 65.8395,38.017 c 0.7872,0.4545 1.7934,0.185 2.2479,-0.6022 0.4546,-0.7872 0.185,-1.7934 -0.6022,-2.248 l -65.8394,-38.0169 c -0.7872,-0.4546 -1.7934,-0.185 -2.248,0.6022 -0.4545,0.7872 -0.185,1.7934 0.6022,2.2479 z" clip-path="url(#1265298280161-clipPath1)" id="path59" ns1:connector-curvature="0" style="stroke:none" />
    </g>
    <g id="g61" style="fill:#fda4af;stroke:none;text-rendering:geometricPrecision">
      <path d="m 429.4197,119.9722 c 0,0.909 0.7365,1.6457 1.6455,1.6457 0.909,10e-5 1.6457,-0.7365 1.6457,-1.6455 l 0.003,-60.3585 c 0,-0.909 -0.7366,-1.6456 -1.6456,-1.6457 -0.909,0 -1.6456,0.7365 -1.6456,1.6455 z m 13.7134,7e-4 c 0,0.9091 0.7365,1.6457 1.6455,1.6457 0.909,1e-4 1.6457,-0.7365 1.6457,-1.6455 l 0.003,-60.3585 c 10e-5,-0.909 -0.7365,-1.6456 -1.6455,-1.6457 -0.909,0 -1.6456,0.7365 -1.6457,1.6455 z" clip-path="url(#1265298280161-clipPath1)" id="path63" ns1:connector-curvature="0" style="stroke:none" />
      <path d="m 429.4197,119.9722 c 0,0.909 0.7365,1.6457 1.6455,1.6457 0.909,10e-5 1.6457,-0.7365 1.6457,-1.6455 l 0.003,-60.3585 c 0,-0.909 -0.7366,-1.6456 -1.6456,-1.6457 -0.909,0 -1.6456,0.7365 -1.6456,1.6455 z m 13.7134,7e-4 c 0,0.9091 0.7365,1.6457 1.6455,1.6457 0.909,1e-4 1.6457,-0.7365 1.6457,-1.6455 l 0.003,-60.3585 c 10e-5,-0.909 -0.7365,-1.6456 -1.6455,-1.6457 -0.909,0 -1.6456,0.7365 -1.6457,1.6455 z" clip-path="url(#1265298280702-clipPath1)" id="path65" ns1:connector-curvature="0" style="fill:#f5d0fe;stroke:none" />
    </g>
    <g id="g67" style="fill:#c4b5fd;stroke:none;text-rendering:geometricPrecision">
      <path d="m 504.5844,155.4561 51.9016,-29.9619 c 0.7873,-0.4544 1.0569,-1.4606 0.6024,-2.2478 -0.4544,-0.7873 -1.4606,-1.0569 -2.2479,-0.6025 l -51.9016,29.9618 c -0.7872,0.4545 -1.0569,1.4607 -0.6024,2.2479 0.4544,0.7873 1.4606,1.0569 2.2479,0.6025 z" clip-path="url(#1265298280161-clipPath1)" id="path69" ns1:connector-curvature="0" style="stroke:none" />
      <path d="m 504.5844,155.4561 51.9016,-29.9619 c 0.7873,-0.4544 1.0569,-1.4606 0.6024,-2.2478 -0.4544,-0.7873 -1.4606,-1.0569 -2.2479,-0.6025 l -51.9016,29.9618 c -0.7872,0.4545 -1.0569,1.4607 -0.6024,2.2479 0.4544,0.7873 1.4606,1.0569 2.2479,0.6025 z" clip-path="url(#126529828052-clipPath1)" id="path71" ns1:connector-curvature="0" style="fill:#f5d0fe;stroke:none" />
    </g>
    <g id="g73" style="text-rendering:geometricPrecision;fill:#f5d0fe;stroke:none">
      <path d="m 502.1161,154.0308 -0.004,76.0271 c 0,0.909 0.7365,1.6456 1.6455,1.6457 0.909,0 1.6456,-0.7365 1.6457,-1.6455 l 0.004,-76.0271 c 10e-5,-0.909 -0.7365,-1.6456 -1.6455,-1.6457 -0.909,0 -1.6456,0.7365 -1.6456,1.6455 z" clip-path="url(#1265298280161-clipPath1)" id="path75" ns1:connector-curvature="0" style="stroke:none" />
    </g>
    <g id="g77" style="text-rendering:geometricPrecision;fill:#f5d0fe;stroke:none">
      <path d="M 502.9348,231.4831 568.7742,269.5 c 0.7873,0.4546 1.7934,0.185 2.248,-0.6022 0.4545,-0.7872 0.185,-1.7934 -0.6022,-2.2479 l -65.8394,-38.017 c -0.7872,-0.4545 -1.7934,-0.185 -2.248,0.6022 -0.4545,0.7872 -0.185,1.7934 0.6022,2.248 z" clip-path="url(#1265298280161-clipPath1)" id="path79" ns1:connector-curvature="0" style="stroke:none" />
    </g>
    <g id="g81" style="text-rendering:geometricPrecision;fill:#f5d0fe;stroke:none">
      <path d="m 582.7233,125.4958 46.1979,26.6755 c 0.7872,0.4546 1.7934,0.185 2.248,-0.6022 0.4545,-0.7872 0.185,-1.7934 -0.6022,-2.2479 l -46.198,-26.6756 c -0.7872,-0.4546 -1.7934,-0.185 -2.2479,0.6022 -0.4546,0.7872 -0.185,1.7934 0.6022,2.248 z" clip-path="url(#1265298280161-clipPath1)" id="path83" ns1:connector-curvature="0" style="stroke:none" />
      <path d="m 582.7233,125.4958 46.1979,26.6755 c 0.7872,0.4546 1.7934,0.185 2.248,-0.6022 0.4545,-0.7872 0.185,-1.7934 -0.6022,-2.2479 l -46.198,-26.6756 c -0.7872,-0.4546 -1.7934,-0.185 -2.2479,0.6022 -0.4546,0.7872 -0.185,1.7934 0.6022,2.248 z" clip-path="url(#1265298280773-clipPath1)" id="path85" ns1:connector-curvature="0" style="fill:#c4b5fd;stroke:none" />
    </g>
    <g id="g87" style="text-rendering:geometricPrecision;fill:#f5d0fe;stroke:none">
      <path d="m 567.9515,268.0749 -0.004,69.4447 c 0,0.909 0.7365,1.6456 1.6455,1.6457 0.909,0 1.6457,-0.7365 1.6457,-1.6456 l 0.004,-69.4447 c 0,-0.909 -0.7365,-1.6456 -1.6455,-1.6456 -0.909,-10e-5 -1.6456,0.7365 -1.6457,1.6455 z" clip-path="url(#1265298280161-clipPath1)" id="path89" ns1:connector-curvature="0" style="stroke:none" />
    </g>
    <g id="g91" style="fill:#eef2ff;stroke:none;text-rendering:geometricPrecision">
      </g>
    <g font-size="27px" transform="translate(427.3012,23.9869)" id="g95" style="font-size:27px;font-family:sans-serif;fill:#fda4af;stroke:none;text-rendering:geometricPrecision">
      <text x="0" xml:space="preserve" y="26" clip-path="url(#1265298280646-clipPath1)" id="text97" style="stroke:none">O</text>
    </g>
    <g font-size="27px" id="g99" style="font-size:27px;font-family:sans-serif;fill:#eef2ff;stroke:none;text-rendering:geometricPrecision">
      <text x="0" y="26" transform="translate(559.6529,72.8682)" clip-path="url(#1265298280217-clipPath1)" xml:space="preserve" id="text103" style="fill:#c4b5fd;stroke:none">H</text>
    </g>
    <g font-size="27px" transform="translate(559.6519,100.0208)" id="g105" style="font-size:27px;font-family:sans-serif;fill:#c4b5fd;stroke:none;text-rendering:geometricPrecision">
      <text x="0" xml:space="preserve" y="26" clip-path="url(#1265298280205-clipPath1)" id="text107" style="stroke:none">N</text>
    </g>
  </g>
</svg>