<?xml version='1.0' encoding='utf-8'?>
<svg xmlns="http://www.w3.org/2000/svg" xmlns:dc="http://purl.org/dc/elements/1.1/" xmlns:ns1="http://www.inkscape.org/namespaces/inkscape" xmlns:ns2="http://sodipodi.sourceforge.net/DTD/sodipodi-0.dtd" xmlns:ns4="http://creativecommons.org/ns#" xmlns:rdf="http://www.w3.org/1999/02/22-rdf-syntax-ns#" width="673.70123" stroke-miterlimit="10" font-weight="normal" height="396.267" font-style="normal" font-size="12px" id="svg2" version="1.1" ns1:version="0.91 r13725" ns2:docname="Pentazocine.svg" style="font-style:normal;font-weight:normal;font-size:12px;font-family:Dialog;color-interpolation:auto;fill:#f0abfc;fill-opacity:1;stroke:none;stroke:none;stroke:none;stroke:none;stroke:none;stroke:none;stroke:none;stroke:none;color-rendering:auto;image-rendering:auto;shape-rendering:auto;text-rendering:auto">
  <metadata id="metadata148">
    <rdf:RDF>
      <ns4:Work rdf:about="">
        <dc:format>image/svg+xml</dc:format>
        <dc:type rdf:resource="http://purl.org/dc/dcmitype/StillImage" />
        <dc:title />
      </ns4:Work>
    </rdf:RDF>
  </metadata>
  <ns2:namedview pagecolor="#eef2ff" bordercolor="#666666" borderopacity="1" objecttolerance="10" gridtolerance="10" guidetolerance="10" ns1:pageopacity="0" ns1:pageshadow="2" ns1:window-width="1060" ns1:window-height="480" id="namedview146" showgrid="false" fit-margin-top="10" fit-margin-left="10" fit-margin-right="10" fit-margin-bottom="10" ns1:zoom="0.36375" ns1:cx="456.53843" ns1:cy="115.7778" ns1:window-x="0" ns1:window-y="0" ns1:window-maximized="0" ns1:current-layer="svg2" />
  
  <defs id="genericDefs" />
  <g id="g5" transform="translate(-63.0492,-19.5108)" style="fill:#f0abfc;stroke:none">
    <defs id="920910908448-defs1">
      <clipPath clipPathUnits="userSpaceOnUse" id="920910908131-clipPath1">
        <path d="M 0,0 800,0 800,600 0,600 0,0 Z" id="path9" ns1:connector-curvature="0" style="stroke:none" />
      </clipPath>
      <clipPath clipPathUnits="userSpaceOnUse" id="920910908713-clipPath1">
        <path d="m 393,241 q 7,6 0,13 l -82,0 q -6,-7 0,-13 z M 0,0 0,600 800,600 800,0 Z" id="path12" ns1:connector-curvature="0" style="stroke:none" />
      </clipPath>
      <clipPath clipPathUnits="userSpaceOnUse" id="920910908828-clipPath1">
        <path d="m 382.1423,256.1535 c -17.8094,0 -32.2467,14.4374 -32.2467,32.2467 0,17.8094 14.4373,32.2467 32.2467,32.2467 17.8093,0 32.2467,-14.4373 32.2467,-32.2467 0,-17.8093 -14.4374,-32.2467 -32.2467,-32.2467 z" id="path15" ns1:connector-curvature="0" style="stroke:none" />
      </clipPath>
      <clipPath clipPathUnits="userSpaceOnUse" id="920910908281-clipPath1">
        <path d="m 441.3555,272.5708 c -22.5622,0 -40.8525,18.2903 -40.8525,40.8525 0,22.5622 18.2903,40.8525 40.8525,40.8525 22.5622,0 40.8524,-18.2903 40.8524,-40.8525 0,-22.5622 -18.2902,-40.8525 -40.8524,-40.8525 z" id="path18" ns1:connector-curvature="0" style="stroke:none" />
      </clipPath>
      <clipPath clipPathUnits="userSpaceOnUse" id="920910908335-clipPath1">
        <path d="m 169.6144,54.4016 c -16.2942,0 -29.5032,13.2091 -29.5032,29.5033 0,16.2942 13.209,29.5033 29.5032,29.5033 16.2943,0 29.5033,-13.2091 29.5033,-29.5033 0,-16.2942 -13.209,-29.5033 -29.5033,-29.5033 z" id="path21" ns1:connector-curvature="0" style="stroke:none" />
      </clipPath>
      <clipPath clipPathUnits="userSpaceOnUse" id="920910908150-clipPath1">
        <path d="m 468.2695,291.4471 c -18.146,0 -32.8562,14.7102 -32.8562,32.8561 0,18.146 14.7102,32.8562 32.8562,32.8562 18.1459,0 32.8561,-14.7102 32.8561,-32.8562 0,-18.1459 -14.7102,-32.8561 -32.8561,-32.8561 z" id="path24" ns1:connector-curvature="0" style="stroke:none" />
      </clipPath>
      <clipPath clipPathUnits="userSpaceOnUse" id="920910908481-clipPath1">
        <path d="m -442.4723,-311.8017 800,0 0,600 -800,0 0,-600 z" id="path27" ns1:connector-curvature="0" style="stroke:none" />
      </clipPath>
      <clipPath clipPathUnits="userSpaceOnUse" id="920910908710-clipPath1">
        <path d="m -70.5492,-25.5049 800,0 0,600 -800,0 0,-600 z" id="path30" ns1:connector-curvature="0" style="stroke:none" />
      </clipPath>
    </defs>
    <g id="g32" style="text-rendering:geometricPrecision;fill:#f0abfc;stroke:none">
      <path d="m 241.1007,187.1423 c -0.847,0.489 -1.137,1.5716 -0.648,2.4186 0.489,0.847 1.5716,1.137 2.4185,0.648 l 53.0264,-30.6154 c 0.8469,-0.489 1.137,-1.5715 0.648,-2.4185 -0.4891,-0.847 -1.5716,-1.1371 -2.4186,-0.6481 z m -1.5333,17.9222 c -0.847,0.489 -1.137,1.5716 -0.648,2.4186 0.489,0.8469 1.5716,1.137 2.4186,0.648 0,0 0,0 0,0 l 70.8474,-40.9046 c 0,0 0,0 0,0 0.847,-0.4891 1.137,-1.5716 0.648,-2.4186 -0.489,-0.847 -1.5715,-1.137 -2.4185,-0.648 0,0 0,0 0,0 l -70.8475,40.9046 c 0,0 0,0 0,0 z" clip-path="url(#920910908131-clipPath1)" id="path34" ns1:connector-curvature="0" style="stroke:none" />
    </g>
    <g id="g36" style="text-rendering:geometricPrecision;fill:#f0abfc;stroke:none">
      <path d="m 239.573,289.9374 70.8432,40.8872 c 0.8471,0.4889 1.9296,0.1987 2.4185,-0.6484 0.4888,-0.847 0.1986,-1.9295 -0.6485,-2.4184 l -70.8431,-40.8873 c -0.8471,-0.4888 -1.9296,-0.1986 -2.4185,0.6484 -0.4889,0.8471 -0.1986,1.9296 0.6484,2.4185 z" clip-path="url(#920910908131-clipPath1)" id="path38" ns1:connector-curvature="0" style="stroke:none" />
    </g>
    <g id="g40" style="text-rendering:geometricPrecision;fill:#f0abfc;stroke:none">
      <path d="m 312.1863,330.8246 70.8411,-40.891 c 0.847,-0.4889 1.1372,-1.5714 0.6483,-2.4185 -0.489,-0.847 -1.5715,-1.1372 -2.4185,-0.6483 l -70.8411,40.891 c -0.847,0.489 -1.1372,1.5715 -0.6482,2.4185 0.4889,0.847 1.5714,1.1372 2.4184,0.6483 z" clip-path="url(#920910908131-clipPath1)" id="path42" ns1:connector-curvature="0" style="stroke:none" />
    </g>
    <g id="g44" style="text-rendering:geometricPrecision;fill:#f0abfc;stroke:none">
      <path d="m 383.9128,288.4002 -0.002,-81.808 c 0,-0.9781 -0.7925,-1.7705 -1.7705,-1.7705 -0.9781,0 -1.7705,0.7925 -1.7705,1.7706 l 0.002,81.808 c 0,0.978 0.7925,1.7704 1.7705,1.7704 0.978,0 1.7705,-0.7925 1.7705,-1.7705 z" clip-path="url(#920910908713-clipPath1)" id="path46" ns1:connector-curvature="0" style="stroke:none" />
    </g>
    <g id="g48" style="text-rendering:geometricPrecision;fill:#f0abfc;stroke:none">
      <path d="m 238.6822,206.5979 0.005,81.8062 c 1e-4,0.978 0.7926,1.7704 1.7707,1.7704 0.978,-1e-4 1.7704,-0.7926 1.7704,-1.7707 l -0.005,-81.8061 c -1e-4,-0.978 -0.7926,-1.7705 -1.7706,-1.7704 -0.9781,1e-4 -1.7705,0.7926 -1.7704,1.7706 z" clip-path="url(#920910908131-clipPath1)" id="path50" ns1:connector-curvature="0" style="stroke:none" />
    </g>
    <g id="g52" style="text-rendering:geometricPrecision;fill:#f0abfc;stroke:none">
      <path d="m 310.4149,167.2265 70.84,40.899 c 0.847,0.489 1.9295,0.1989 2.4185,-0.6481 0.489,-0.8469 0.1989,-1.9295 -0.648,-2.4185 l -70.84,-40.899 c -0.847,-0.489 -1.9296,-0.199 -2.4186,0.648 -0.489,0.847 -0.1989,1.9296 0.6481,2.4186 z" clip-path="url(#920910908131-clipPath1)" id="path54" ns1:connector-curvature="0" style="stroke:none" />
    </g>
    <g id="g56" style="text-rendering:geometricPrecision;fill:#f0abfc;stroke:none">
      <path d="m 240.4581,288.404 0.8854,1.5332 95.1426,-44.2104 -22.1274,0 -22.1274,0 -52.6587,41.144 z" clip-path="url(#920910908131-clipPath1)" id="path58" ns1:connector-curvature="0" style="stroke:none" />
    </g>
    <g id="g60" style="text-rendering:geometricPrecision;fill:#f0abfc;stroke:none">
      <path d="m 311.2929,249.2678 81.7981,0 c 0.978,0 1.7705,-0.7925 1.7705,-1.7705 0,-0.978 -0.7925,-1.7705 -1.7705,-1.7705 l -81.7981,0 c -0.978,0 -1.7705,0.7925 -1.7705,1.7705 0,0.978 0.7925,1.7705 1.7705,1.7705 z" clip-path="url(#920910908131-clipPath1)" id="path62" ns1:connector-curvature="0" style="stroke:none" />
    </g>
    <g id="g64" style="fill:#c4b5fd;stroke:none;text-rendering:geometricPrecision">
      <path d="m 381.257,289.9335 55.8518,32.2486 c 0.8469,0.4891 1.9295,0.199 2.4185,-0.6479 0.4891,-0.847 0.199,-1.9296 -0.6479,-2.4186 l -55.8518,-32.2487 c -0.847,-0.489 -1.9296,-0.199 -2.4186,0.648 -0.489,0.847 -0.199,1.9296 0.648,2.4186 z" clip-path="url(#920910908131-clipPath1)" id="path66" ns1:connector-curvature="0" style="stroke:none" />
      <path d="m 381.257,289.9335 55.8518,32.2486 c 0.8469,0.4891 1.9295,0.199 2.4185,-0.6479 0.4891,-0.847 0.199,-1.9296 -0.6479,-2.4186 l -55.8518,-32.2487 c -0.847,-0.489 -1.9296,-0.199 -2.4186,0.648 -0.489,0.847 -0.199,1.9296 0.648,2.4186 z" clip-path="url(#920910908828-clipPath1)" id="path68" ns1:connector-curvature="0" style="fill:#f0abfc;stroke:none" />
    </g>
    <g id="g70" style="text-rendering:geometricPrecision;fill:#f0abfc;stroke:none">
      <path d="m 441.3555,313.4233 1.4286,-1.0459 -37.275,-66.6506 -13.7143,0 -13.7143,0 61.8464,68.7424 z" clip-path="url(#920910908131-clipPath1)" id="path72" ns1:connector-curvature="0" style="stroke:none" />
      <path d="m 441.3555,313.4233 1.4286,-1.0459 -37.275,-66.6506 -13.7143,0 -13.7143,0 61.8464,68.7424 z" clip-path="url(#920910908281-clipPath1)" id="path74" ns1:connector-curvature="0" style="fill:#c4b5fd;stroke:none" />
    </g>
    <g id="g76" style="text-rendering:geometricPrecision;fill:#f0abfc;stroke:none">
      <path d="m 313.0706,165.6931 -0.002,-81.8006 c 0,-0.978 -0.7926,-1.7704 -1.7706,-1.7704 -0.978,0 -1.7705,0.7925 -1.7704,1.7705 l 0.002,81.8006 c 10e-5,0.978 0.7926,1.7705 1.7706,1.7705 0.978,0 1.7705,-0.7926 1.7704,-1.7706 z" clip-path="url(#920910908131-clipPath1)" id="path78" ns1:connector-curvature="0" style="stroke:none" />
    </g>
    <g id="g80" style="text-rendering:geometricPrecision;fill:#f0abfc;stroke:none">
      <path d="m 294.1253,93.0598 c 0.8471,0.489 1.9296,0.1989 2.4186,-0.6482 0.4889,-0.847 0.1988,-1.9295 -0.6482,-2.4185 L 242.8809,59.3887 c -0.847,-0.489 -1.9295,-0.1988 -2.4185,0.6482 -0.4889,0.847 -0.1988,1.9295 0.6482,2.4185 z m 16.2875,-7.6339 c 0.847,0.489 1.9295,0.1989 2.4185,-0.6481 0.489,-0.8471 0.1989,-1.9296 -0.6482,-2.4186 0,0 0,0 0,0 l -70.836,-40.8923 c 0,0 0,0 0,0 -0.847,-0.489 -1.9296,-0.1988 -2.4185,0.6482 -0.489,0.847 -0.1989,1.9295 0.6481,2.4185 0,0 0,0 0,0 l 70.8361,40.8923 c 0,0 0,0 0,0 z" clip-path="url(#920910908131-clipPath1)" id="path82" ns1:connector-curvature="0" style="stroke:none" />
    </g>
    <g id="g84" style="text-rendering:geometricPrecision;fill:#f0abfc;stroke:none">
      <path d="m 239.5766,41.467 -70.8474,40.9046 c -0.847,0.489 -1.1371,1.5716 -0.648,2.4185 0.489,0.847 1.5715,1.1371 2.4185,0.6481 l 70.8475,-40.9047 c 0.847,-0.489 1.137,-1.5715 0.648,-2.4185 -0.489,-0.847 -1.5716,-1.1371 -2.4186,-0.648 z" clip-path="url(#920910908131-clipPath1)" id="path86" ns1:connector-curvature="0" style="stroke:none" />
    </g>
    <g id="g88" style="text-rendering:geometricPrecision;fill:#f0abfc;stroke:none">
      <path d="m 186.1389,94.1939 c 1e-4,-0.978 -0.7924,-1.7705 -1.7704,-1.7705 -0.978,-1e-4 -1.7705,0.7924 -1.7706,1.7704 l -0.002,61.2144 c 0,0.978 0.7925,1.7705 1.7705,1.7705 0.978,1e-4 1.7705,-0.7924 1.7705,-1.7704 z m -14.754,-10.289 c 1e-4,-0.978 -0.7924,-1.7705 -1.7704,-1.7705 -0.978,-1e-4 -1.7705,0.7924 -1.7706,1.7704 0,0 0,0 0,0 l -0.003,81.792 c 0,0 0,0 0,0 0,0.978 0.7925,1.7705 1.7705,1.7706 0.978,0 1.7705,-0.7924 1.7706,-1.7705 0,0 0,0 0,0 l 0.003,-81.792 c 0,0 0,0 0,0 z" clip-path="url(#920910908131-clipPath1)" id="path90" ns1:connector-curvature="0" style="stroke:none" />
    </g>
    <g id="g92" style="text-rendering:geometricPrecision;fill:#f0abfc;stroke:none">
      <path d="m 168.7264,167.2302 70.841,40.9009 c 0.847,0.489 1.9295,0.1989 2.4186,-0.648 0.489,-0.847 0.1989,-1.9296 -0.648,-2.4186 l -70.8411,-40.9009 c -0.847,-0.489 -1.9295,-0.199 -2.4185,0.648 -0.4891,0.847 -0.199,1.9296 0.648,2.4186 z" clip-path="url(#920910908131-clipPath1)" id="path94" ns1:connector-curvature="0" style="stroke:none" />
    </g>
    <g id="g96" style="fill:#fda4af;stroke:none;text-rendering:geometricPrecision">
      <path d="M 170.4997,82.3716 119.3989,52.8677 c -0.847,-0.4891 -1.9295,-0.199 -2.4185,0.648 -0.4891,0.847 -0.199,1.9295 0.648,2.4185 l 51.1008,29.504 c 0.847,0.489 1.9295,0.1989 2.4185,-0.648 0.4891,-0.847 0.199,-1.9296 -0.648,-2.4186 z" clip-path="url(#920910908131-clipPath1)" id="path98" ns1:connector-curvature="0" style="stroke:none" />
      <path d="M 170.4997,82.3716 119.3989,52.8677 c -0.847,-0.4891 -1.9295,-0.199 -2.4185,0.648 -0.4891,0.847 -0.199,1.9295 0.648,2.4185 l 51.1008,29.504 c 0.847,0.489 1.9295,0.1989 2.4185,-0.648 0.4891,-0.847 0.199,-1.9296 -0.648,-2.4186 z" clip-path="url(#920910908335-clipPath1)" id="path100" ns1:connector-curvature="0" style="fill:#f0abfc;stroke:none" />
    </g>
    <g id="g102" style="text-rendering:geometricPrecision;fill:#f0abfc;stroke:none">
      <path d="m 468.8196,325.9861 62.4593,-20.4196 c 0.9296,-0.3039 1.4366,-1.3034 1.1327,-2.233 -0.3039,-0.9296 -1.3034,-1.4366 -2.2331,-1.1327 l -62.4592,20.4196 c -0.9296,0.3039 -1.4366,1.3034 -1.1327,2.233 0.3039,0.9296 1.3034,1.4366 2.233,1.1327 z" clip-path="url(#920910908131-clipPath1)" id="path104" ns1:connector-curvature="0" style="stroke:none" />
      <path d="m 468.8196,325.9861 62.4593,-20.4196 c 0.9296,-0.3039 1.4366,-1.3034 1.1327,-2.233 -0.3039,-0.9296 -1.3034,-1.4366 -2.2331,-1.1327 l -62.4592,20.4196 c -0.9296,0.3039 -1.4366,1.3034 -1.1327,2.233 0.3039,0.9296 1.3034,1.4366 2.233,1.1327 z" clip-path="url(#920910908150-clipPath1)" id="path106" ns1:connector-curvature="0" style="fill:#c4b5fd;stroke:none" />
    </g>
    <g id="g108" style="text-rendering:geometricPrecision;fill:#f0abfc;stroke:none">
      <path d="m 529.5464,305.2015 60.887,54.6233 c 0.728,0.6531 1.8471,0.5924 2.5002,-0.1356 0.6531,-0.728 0.5925,-1.8471 -0.1356,-2.5002 l -60.887,-54.6232 c -0.728,-0.6531 -1.8471,-0.5924 -2.5002,0.1355 -0.6531,0.728 -0.5924,1.8471 0.1356,2.5002 z" clip-path="url(#920910908131-clipPath1)" id="path110" ns1:connector-curvature="0" style="stroke:none" />
    </g>
    <g id="g112" style="text-rendering:geometricPrecision;fill:#f0abfc;stroke:none">
      <path d="m 239.5726,286.8708 -64.702,37.3649 c -0.8469,0.4891 -1.1369,1.5717 -0.6478,2.4187 0.4891,0.8469 1.5717,1.1369 2.4186,0.6478 l 64.7021,-37.365 c 0.8469,-0.4891 1.1369,-1.5717 0.6478,-2.4186 -0.4891,-0.847 -1.5717,-1.1369 -2.4187,-0.6478 z" clip-path="url(#920910908131-clipPath1)" id="path114" ns1:connector-curvature="0" style="stroke:none" />
    </g>
    <g id="g116" style="text-rendering:geometricPrecision;fill:#f0abfc;stroke:none">
      <path d="m 596.2603,339.6029 c -0.9296,0.3039 -1.4366,1.3034 -1.1327,2.233 0.304,0.9297 1.3035,1.4367 2.2331,1.1327 l 58.1895,-19.0237 c 0.9296,-0.3039 1.4366,-1.3034 1.1327,-2.233 -0.3039,-0.9296 -1.3034,-1.4366 -2.2331,-1.1327 z m -5.1947,17.2211 c -0.9296,0.304 -1.4366,1.3035 -1.1327,2.2331 0.3039,0.9296 1.3034,1.4366 2.233,1.1327 0,0 0,0 0,0 l 77.7487,-25.4181 c 0,0 0,0 0,0 0.9295,-0.304 1.4365,-1.3035 1.1326,-2.2331 -0.3039,-0.9296 -1.3034,-1.4366 -2.233,-1.1327 0,0 0,0 0,0 l -77.7486,25.4181 c 0,0 0,0 0,0 z" clip-path="url(#920910908131-clipPath1)" id="path118" ns1:connector-curvature="0" style="stroke:none" />
    </g>
    <g id="g120" style="text-rendering:geometricPrecision;fill:#f0abfc;stroke:none">
      <path d="m 668.1821,334.4067 55.6154,49.894 c 0.728,0.6531 1.8471,0.5924 2.5002,-0.1356 0.6531,-0.728 0.5924,-1.8471 -0.1355,-2.5002 l -55.6155,-49.894 c -0.728,-0.6531 -1.8471,-0.5924 -2.5003,0.1356 -0.653,0.728 -0.5924,1.8471 0.1357,2.5002 z" clip-path="url(#920910908131-clipPath1)" id="path122" ns1:connector-curvature="0" style="stroke:none" />
    </g>
    <g id="g124" style="text-rendering:geometricPrecision;fill:#f0abfc;stroke:none">
      <path d="m 671.0969,333.4538 15.4017,-73.1115 c 0.2016,-0.957 -0.4105,-1.8958 -1.3676,-2.0974 -0.9569,-0.2016 -1.8958,0.4105 -2.0974,1.3675 l -15.4017,73.1114 c -0.2016,0.957 0.4105,1.8959 1.3675,2.0975 0.957,0.2016 1.8958,-0.4105 2.0975,-1.3675 z" clip-path="url(#920910908131-clipPath1)" id="path126" ns1:connector-curvature="0" style="stroke:none" />
    </g>
    <g id="g128" style="text-rendering:geometricPrecision;fill:#f0abfc;stroke:none">
      <path d="m 309.5307,329.2913 0.002,74.7161 c 0,0.978 0.7926,1.7704 1.7706,1.7704 0.978,0 1.7704,-0.7925 1.7704,-1.7705 l -0.002,-74.7161 c 0,-0.978 -0.7925,-1.7705 -1.7705,-1.7705 -0.978,1e-4 -1.7705,0.7926 -1.7705,1.7706 z" clip-path="url(#920910908131-clipPath1)" id="path130" ns1:connector-curvature="0" style="stroke:none" />
    </g>
    <g id="g132" style="fill:#eef2ff;stroke:none;text-rendering:geometricPrecision">
      </g>
    <g font-size="29px" transform="translate(442.4723,311.8017)" id="g136" style="font-size:29px;font-family:sans-serif;fill:#c4b5fd;stroke:none;text-rendering:geometricPrecision">
      <text x="0" xml:space="preserve" y="28" clip-path="url(#920910908481-clipPath1)" id="text138" style="stroke:none">N</text>
    </g>
    <g font-size="29px" id="g140" style="font-size:29px;font-family:sans-serif;fill:#eef2ff;stroke:none;text-rendering:geometricPrecision">
      <text x="0" y="28" transform="translate(70.5492,25.5049)" clip-path="url(#920910908710-clipPath1)" xml:space="preserve" id="text144" style="fill:#fda4af;stroke:none">HO</text>
    </g>
  </g>
</svg>