<?xml version='1.0' encoding='utf-8'?>
<svg xmlns="http://www.w3.org/2000/svg" xmlns:dc="http://purl.org/dc/elements/1.1/" xmlns:ns1="http://www.inkscape.org/namespaces/inkscape" xmlns:ns2="http://sodipodi.sourceforge.net/DTD/sodipodi-0.dtd" xmlns:ns4="http://creativecommons.org/ns#" xmlns:rdf="http://www.w3.org/1999/02/22-rdf-syntax-ns#" width="549.82941" stroke-miterlimit="10" font-weight="normal" height="476.03702" font-style="normal" font-size="12px" id="svg2" version="1.1" ns1:version="0.91 r13725" ns2:docname="Pericine.svg" style="font-style:normal;font-weight:normal;font-size:12px;font-family:Dialog;color-interpolation:auto;fill:#f5d0fe;fill-opacity:1;stroke:none;stroke:none;stroke:none;stroke:none;stroke:none;stroke:none;stroke:none;stroke:none;color-rendering:auto;image-rendering:auto;shape-rendering:auto;text-rendering:auto">
  <metadata id="metadata154">
    <rdf:RDF>
      <ns4:Work rdf:about="">
        <dc:format>image/svg+xml</dc:format>
        <dc:type rdf:resource="http://purl.org/dc/dcmitype/StillImage" />
        <dc:title />
      </ns4:Work>
    </rdf:RDF>
  </metadata>
  <ns2:namedview pagecolor="#eef2ff" bordercolor="#666666" borderopacity="1" objecttolerance="10" gridtolerance="10" guidetolerance="10" ns1:pageopacity="0" ns1:pageshadow="2" ns1:window-width="1060" ns1:window-height="480" id="namedview152" showgrid="false" fit-margin-top="10" fit-margin-left="10" fit-margin-right="10" fit-margin-bottom="10" ns1:zoom="0.36375" ns1:cx="319.00246" ns1:cy="389.24948" ns1:window-x="0" ns1:window-y="0" ns1:window-maximized="0" ns1:current-layer="svg2" />
  
  <defs id="genericDefs" />
  <g id="g5" transform="translate(-227.24558,-61.967053)" style="fill:#f5d0fe;stroke:none">
    <defs id="1342926165975-defs1">
      <clipPath clipPathUnits="userSpaceOnUse" id="134292616519-clipPath1">
        <path d="M 0,0 800,0 800,600 0,600 0,0 Z" id="path9" ns1:connector-curvature="0" style="stroke:none" />
      </clipPath>
      <clipPath clipPathUnits="userSpaceOnUse" id="1342926165122-clipPath1">
        <path d="m 352.9403,215.1185 c -18.0245,0 -32.6363,14.6117 -32.6363,32.6362 0,18.0246 14.6118,32.6363 32.6363,32.6363 18.0245,0 32.6363,-14.6117 32.6363,-32.6363 0,-18.0245 -14.6118,-32.6362 -32.6363,-32.6362 z" id="path12" ns1:connector-curvature="0" style="stroke:none" />
      </clipPath>
      <clipPath clipPathUnits="userSpaceOnUse" id="1342926165114-clipPath1">
        <path d="m 419.4373,289.6967 c -18.4682,0 -33.4397,14.9715 -33.4397,33.4397 0,18.4683 14.9715,33.4398 33.4397,33.4398 18.4683,0 33.4398,-14.9715 33.4398,-33.4398 0,-18.4682 -14.9715,-33.4397 -33.4398,-33.4397 z" id="path15" ns1:connector-curvature="0" style="stroke:none" />
      </clipPath>
      <clipPath clipPathUnits="userSpaceOnUse" id="1342926165400-clipPath1">
        <path d="m 731.1614,198.9205 c -18.8891,0 -34.2016,15.3127 -34.2016,34.2017 0,18.8891 15.3125,34.2017 34.2016,34.2017 18.8891,0 34.2017,-15.3126 34.2017,-34.2017 0,-18.889 -15.3126,-34.2017 -34.2017,-34.2017 z" id="path18" ns1:connector-curvature="0" style="stroke:none" />
      </clipPath>
      <clipPath clipPathUnits="userSpaceOnUse" id="1342926165123-clipPath1">
        <path d="m 710.7681,163.9633 c -19.5857,0 -35.463,15.8772 -35.463,35.4629 0,19.5856 15.8773,35.4629 35.463,35.4629 19.5855,0 35.4629,-15.8773 35.4629,-35.4629 0,-19.5857 -15.8774,-35.4629 -35.4629,-35.4629 z" id="path21" ns1:connector-curvature="0" style="stroke:none" />
      </clipPath>
      <clipPath clipPathUnits="userSpaceOnUse" id="1342926165518-clipPath1">
        <path d="m 710.1014,186.108 c -19.6978,0 -35.6661,15.9683 -35.6661,35.6661 0,19.6979 15.9683,35.6662 35.6661,35.6662 19.6979,0 35.6662,-15.9683 35.6662,-35.6662 0,-19.6978 -15.9683,-35.6661 -35.6662,-35.6661 z" id="path24" ns1:connector-curvature="0" style="stroke:none" />
      </clipPath>
      <clipPath clipPathUnits="userSpaceOnUse" id="1342926165257-clipPath1">
        <path d="m -366.6944,-308.437 800,0 0,600 -800,0 0,-600 z" id="path27" ns1:connector-curvature="0" style="stroke:none" />
      </clipPath>
      <clipPath clipPathUnits="userSpaceOnUse" id="1342926165178-clipPath1">
        <path d="m -714.5411,-192.4301 800,0 0,600 -800,0 0,-600 z" id="path30" ns1:connector-curvature="0" style="stroke:none" />
      </clipPath>
    </defs>
    <g id="g32" style="text-rendering:geometricPrecision;fill:#f5d0fe;stroke:none">
      <path d="m 413.9665,180.7394 -62.4475,65.6637 c -0.7466,0.7851 -0.7154,2.0263 0.0697,2.7729 0.785,0.7467 2.0262,0.7155 2.7729,-0.0696 l 62.4475,-65.6637 c 0.7466,-0.7851 0.7154,-2.0262 -0.0697,-2.7729 -0.7851,-0.7466 -2.0263,-0.7155 -2.7729,0.0696 z" clip-path="url(#134292616519-clipPath1)" id="path34" ns1:connector-curvature="0" style="stroke:none" />
    </g>
    <g id="g36" style="text-rendering:geometricPrecision;fill:#f5d0fe;stroke:none">
      <path d="m 497.9813,219.4216 -81.7472,-39.0999 c -0.9774,-0.4675 -2.1482,-0.0543 -2.6157,0.9231 -0.4675,0.9774 -0.0543,2.1482 0.9231,2.6157 l 81.7471,39.0999 c 0.9775,0.4675 2.1483,0.0543 2.6158,-0.9231 0.4675,-0.9774 0.0543,-2.1482 -0.9231,-2.6157 z" clip-path="url(#134292616519-clipPath1)" id="path38" ns1:connector-curvature="0" style="stroke:none" />
    </g>
    <g id="g40" style="text-rendering:geometricPrecision;fill:#f5d0fe;stroke:none">
      <path d="m 514.2411,231.4417 c 0.1426,-1.074 -0.6121,-2.0598 -1.6862,-2.2024 -1.074,-0.1426 -2.0598,0.6121 -2.2024,1.6862 l -9.8429,74.1453 c -0.1426,1.0741 0.6121,2.0599 1.6862,2.2025 1.074,0.1425 2.0598,-0.6122 2.2024,-1.6862 z m -15.1618,-9.9926 c 0.1426,-1.0741 -0.6122,-2.0599 -1.6862,-2.2025 -1.0741,-0.1426 -2.0599,0.6122 -2.2025,1.6862 l -11.9249,89.8288 c -0.1426,1.074 0.6122,2.0598 1.6862,2.2024 1.0741,0.1426 2.0599,-0.6122 2.2025,-1.6862 z" clip-path="url(#134292616519-clipPath1)" id="path42" ns1:connector-curvature="0" style="stroke:none" />
    </g>
    <g id="g44" style="text-rendering:geometricPrecision;fill:#f5d0fe;stroke:none">
      <path d="M 390.205,93.2715 302.1149,72.0222 c -1.0533,-0.254 -2.1126,0.3935 -2.3666,1.4468 -0.2541,1.0532 0.3935,2.1126 1.4467,2.3666 l 88.0902,21.2493 c 1.0532,0.254 2.1125,-0.3935 2.3666,-1.4468 0.2541,-1.0532 -0.3935,-2.1126 -1.4468,-2.3666 z" clip-path="url(#134292616519-clipPath1)" id="path46" ns1:connector-curvature="0" style="stroke:none" />
    </g>
    <g id="g48" style="text-rendering:geometricPrecision;fill:#f5d0fe;stroke:none">
      <path d="m 307.0654,94.804 c 0.7467,-0.7851 0.7155,-2.0263 -0.0696,-2.7729 -0.7851,-0.7467 -2.0263,-0.7155 -2.7729,0.0696 l -46.7377,49.1447 c -0.7466,0.7851 -0.7155,2.0263 0.0696,2.773 0.7852,0.7466 2.0263,0.7155 2.773,-0.0697 z m -3.9892,-19.5234 c 0.7467,-0.7851 0.7155,-2.0263 -0.0696,-2.773 -0.7851,-0.7466 -2.0263,-0.7154 -2.7729,0.0697 l -62.4475,65.6636 c -0.7466,0.7851 -0.7155,2.0263 0.0697,2.773 0.7851,0.7466 2.0262,0.7155 2.7729,-0.0697 z" clip-path="url(#134292616519-clipPath1)" id="path50" ns1:connector-curvature="0" style="stroke:none" />
    </g>
    <g id="g52" style="text-rendering:geometricPrecision;fill:#f5d0fe;stroke:none">
      <path d="m 237.3263,140.1476 25.6427,86.9129 c 0.3066,1.0392 1.3971,1.6328 2.4362,1.3262 1.0392,-0.3066 1.6328,-1.3971 1.3262,-2.4362 l -25.6427,-86.9129 c -0.3066,-1.0392 -1.397,-1.6328 -2.4362,-1.3262 -1.0392,0.3066 -1.6328,1.397 -1.3262,2.4362 z" clip-path="url(#134292616519-clipPath1)" id="path54" ns1:connector-curvature="0" style="stroke:none" />
    </g>
    <g id="g56" style="text-rendering:geometricPrecision;fill:#f5d0fe;stroke:none">
      <path d="m 394.6042,176.3391 c 0.3066,1.0392 1.3971,1.6328 2.4362,1.3262 1.0392,-0.3066 1.6328,-1.3971 1.3262,-2.4362 l -19.1918,-65.0484 c -0.3065,-1.0392 -1.397,-1.6328 -2.4362,-1.3262 -1.0392,0.3066 -1.6328,1.3971 -1.3262,2.4363 z m 18.9024,6.307 c 0.3065,1.0392 1.397,1.6328 2.4362,1.3262 1.0392,-0.3066 1.6328,-1.3971 1.3262,-2.4362 l -25.6427,-86.913 c -0.3066,-1.0391 -1.3971,-1.6327 -2.4362,-1.3261 -1.0392,0.3066 -1.6328,1.397 -1.3262,2.4362 z" clip-path="url(#134292616519-clipPath1)" id="path58" ns1:connector-curvature="0" style="stroke:none" />
    </g>
    <g id="g60" style="text-rendering:geometricPrecision;fill:#f5d0fe;stroke:none">
      <path d="m 280.2233,211.3824 c -1.0532,-0.2541 -2.1126,0.3935 -2.3666,1.4467 -0.2541,1.0533 0.3935,2.1126 1.4467,2.3667 l 65.9294,15.9036 c 1.0533,0.254 2.1126,-0.3935 2.3667,-1.4468 0.254,-1.0532 -0.3935,-2.1126 -1.4468,-2.3666 z m -14.9132,13.2164 c -1.0532,-0.2541 -2.1125,0.3935 -2.3666,1.4468 -0.2541,1.0532 0.3935,2.1125 1.4468,2.3666 l 88.0901,21.2492 c 1.0532,0.2541 2.1126,-0.3935 2.3666,-1.4467 0.2541,-1.0533 -0.3935,-2.1126 -1.4468,-2.3666 z" clip-path="url(#134292616519-clipPath1)" id="path62" ns1:connector-curvature="0" style="stroke:none" />
    </g>
    <g id="g64" style="fill:#c4b5fd;stroke:none;text-rendering:geometricPrecision">
      <path d="m 351.2156,248.6888 31.0834,57.3963 c 0.5159,0.9527 1.706,1.3066 2.6587,0.7906 0.9528,-0.5159 1.3067,-1.706 0.7907,-2.6587 L 354.665,246.8207 c -0.5159,-0.9527 -1.706,-1.3066 -2.6587,-0.7907 -0.9527,0.516 -1.3067,1.7061 -0.7907,2.6588 z" clip-path="url(#134292616519-clipPath1)" id="path66" ns1:connector-curvature="0" style="stroke:none" />
      <path d="m 351.2156,248.6888 31.0834,57.3963 c 0.5159,0.9527 1.706,1.3066 2.6587,0.7906 0.9528,-0.5159 1.3067,-1.706 0.7907,-2.6587 L 354.665,246.8207 c -0.5159,-0.9527 -1.706,-1.3066 -2.6587,-0.7907 -0.9527,0.516 -1.3067,1.7061 -0.7907,2.6588 z" clip-path="url(#1342926165122-clipPath1)" id="path68" ns1:connector-curvature="0" style="fill:#f5d0fe;stroke:none" />
    </g>
    <g id="g70" style="text-rendering:geometricPrecision;fill:#f5d0fe;stroke:none">
      <path d="m 419.7927,325.0654 65.7727,-12.1168 c 1.0655,-0.1963 1.7699,-1.2187 1.5735,-2.2843 -0.1962,-1.0655 -1.2187,-1.7699 -2.2842,-1.5736 l -65.7727,12.1168 c -1.0656,0.1963 -1.7699,1.2188 -1.5736,2.2843 0.1963,1.0655 1.2187,1.7699 2.2843,1.5736 z" clip-path="url(#134292616519-clipPath1)" id="path72" ns1:connector-curvature="0" style="stroke:none" />
      <path d="m 419.7927,325.0654 65.7727,-12.1168 c 1.0655,-0.1963 1.7699,-1.2187 1.5735,-2.2843 -0.1962,-1.0655 -1.2187,-1.7699 -2.2842,-1.5736 l -65.7727,12.1168 c -1.0656,0.1963 -1.7699,1.2188 -1.5736,2.2843 0.1963,1.0655 1.2187,1.7699 2.2843,1.5736 z" clip-path="url(#1342926165114-clipPath1)" id="path74" ns1:connector-curvature="0" style="fill:#c4b5fd;stroke:none" />
    </g>
    <g id="g76" style="text-rendering:geometricPrecision;fill:#f5d0fe;stroke:none">
      <path d="m 483.5547,312.0717 48.6058,76.478 c 0.5811,0.9144 1.7929,1.1844 2.7074,0.6033 0.9144,-0.5812 1.1844,-1.793 0.6032,-2.7074 l -48.6057,-76.478 c -0.5812,-0.9144 -1.793,-1.1844 -2.7074,-0.6033 -0.9144,0.5812 -1.1845,1.793 -0.6033,2.7074 z" clip-path="url(#134292616519-clipPath1)" id="path78" ns1:connector-curvature="0" style="stroke:none" />
    </g>
    <g id="g80" style="text-rendering:geometricPrecision;fill:#f5d0fe;stroke:none">
      <path d="m 533.224,389.3676 86.3932,27.3424 c 1.033,0.3269 2.1349,-0.2452 2.4618,-1.2782 0.3269,-1.033 -0.2451,-2.1349 -1.2781,-2.4618 l -86.3933,-27.3423 c -1.033,-0.3269 -2.1348,0.2452 -2.4617,1.2781 -0.327,1.033 0.2451,2.1349 1.2781,2.4618 z" clip-path="url(#134292616519-clipPath1)" id="path82" ns1:connector-curvature="0" style="stroke:none" />
    </g>
    <g id="g84" style="text-rendering:geometricPrecision;fill:#f5d0fe;stroke:none">
      <path d="m 744.1557,299.0125 -41.929,80.3329 c -0.5014,0.9605 -0.1293,2.145 0.8312,2.6463 0.9605,0.5013 2.145,0.1292 2.6464,-0.8312 l 41.9289,-80.3329 c 0.5014,-0.9605 0.1293,-2.145 -0.8312,-2.6463 -0.9605,-0.5013 -2.145,-0.1292 -2.6463,0.8312 z" clip-path="url(#134292616519-clipPath1)" id="path86" ns1:connector-curvature="0" style="stroke:none" />
    </g>
    <g id="g88" style="text-rendering:geometricPrecision;fill:#f5d0fe;stroke:none">
      <path d="m 620.9577,416.6529 83.7564,-34.5871 c 1.0014,-0.4135 1.4778,-1.5601 1.0643,-2.5615 -0.4136,-1.0015 -1.5601,-1.4778 -2.5615,-1.0643 l -83.7565,34.5871 c -1.0014,0.4135 -1.4777,1.5601 -1.0642,2.5615 0.4136,1.0015 1.5601,1.4778 2.5615,1.0643 z" clip-path="url(#134292616519-clipPath1)" id="path90" ns1:connector-curvature="0" style="stroke:none" />
    </g>
    <g id="g92" style="text-rendering:geometricPrecision;fill:#f5d0fe;stroke:none">
      <path d="m 729.2461,233.5447 14.733,66.7978 c 0.2334,1.0581 1.2798,1.7263 2.3378,1.4929 1.058,-0.2333 1.7263,-1.2797 1.4929,-2.3377 l -14.733,-66.7979 c -0.2334,-1.0581 -1.2798,-1.7263 -2.3378,-1.4929 -1.058,0.2333 -1.7263,1.2797 -1.4929,2.3378 z" clip-path="url(#134292616519-clipPath1)" id="path94" ns1:connector-curvature="0" style="stroke:none" />
      <path d="m 729.2461,233.5447 14.733,66.7978 c 0.2334,1.0581 1.2798,1.7263 2.3378,1.4929 1.058,-0.2333 1.7263,-1.2797 1.4929,-2.3377 l -14.733,-66.7979 c -0.2334,-1.0581 -1.2798,-1.7263 -2.3378,-1.4929 -1.058,0.2333 -1.7263,1.2797 -1.4929,2.3378 z" clip-path="url(#1342926165400-clipPath1)" id="path96" ns1:connector-curvature="0" style="fill:#c4b5fd;stroke:none" />
    </g>
    <g id="g98" style="text-rendering:geometricPrecision;fill:#f5d0fe;stroke:none">
      <path d="m 705.413,378.9294 c -0.7311,-0.7996 -1.9715,-0.8551 -2.771,-0.124 -0.7997,0.7311 -0.8551,1.9715 -0.1241,2.771 l 61.1477,66.8758 c 0.7311,0.7996 1.9714,0.8551 2.771,0.124 0.7996,-0.7311 0.8551,-1.9714 0.124,-2.771 z m -3.0163,20.9234 c -0.7311,-0.7996 -1.9714,-0.8551 -2.771,-0.124 -0.7996,0.7311 -0.8551,1.9715 -0.124,2.771 l 44.4097,48.57 c 0.7311,0.7996 1.9715,0.8551 2.7711,0.124 0.7996,-0.7311 0.8551,-1.9714 0.124,-2.771 z" clip-path="url(#134292616519-clipPath1)" id="path100" ns1:connector-curvature="0" style="stroke:none" />
    </g>
    <g id="g102" style="text-rendering:geometricPrecision;fill:#f5d0fe;stroke:none">
      <path d="m 498.4585,222.6385 66.8758,-61.1476 c 0.7996,-0.7311 0.8551,-1.9715 0.124,-2.7711 -0.7311,-0.7996 -1.9715,-0.8551 -2.7711,-0.124 l -66.8758,61.1476 c -0.7996,0.7311 -0.8551,1.9715 -0.124,2.7711 0.7311,0.7996 1.9715,0.8551 2.7711,0.124 z" clip-path="url(#134292616519-clipPath1)" id="path104" ns1:connector-curvature="0" style="stroke:none" />
    </g>
    <g id="g106" style="text-rendering:geometricPrecision;fill:#f5d0fe;stroke:none">
      <path d="m 711.9637,197.8714 -56.2225,-43.2377 c -0.8589,-0.6605 -2.09,-0.4997 -2.7505,0.3591 -0.6604,0.8589 -0.4997,2.09 0.3591,2.7505 l 56.2225,43.2376 c 0.8589,0.6605 2.0901,0.4998 2.7505,-0.359 0.6605,-0.8589 0.4998,-2.09 -0.3591,-2.7505 z" clip-path="url(#134292616519-clipPath1)" id="path108" ns1:connector-curvature="0" style="stroke:none" />
      <path d="m 711.9637,197.8714 -56.2225,-43.2377 c -0.8589,-0.6605 -2.09,-0.4997 -2.7505,0.3591 -0.6604,0.8589 -0.4997,2.09 0.3591,2.7505 l 56.2225,43.2376 c 0.8589,0.6605 2.0901,0.4998 2.7505,-0.359 0.6605,-0.8589 0.4998,-2.09 -0.3591,-2.7505 z" clip-path="url(#1342926165123-clipPath1)" id="path110" ns1:connector-curvature="0" style="fill:#c4b5fd;stroke:none" />
    </g>
    <g id="g112" style="text-rendering:geometricPrecision;fill:#f5d0fe;stroke:none">
      <path d="m 654.4621,154.2289 -90.5348,3.8549 c -1.0825,0.046 -1.9222,0.9605 -1.8762,2.043 0.0461,1.0825 0.9606,1.9223 2.0431,1.8762 l 90.5348,-3.8549 c 1.0824,-0.0461 1.9222,-0.9605 1.8761,-2.043 -0.0461,-1.0825 -0.9605,-1.9223 -2.043,-1.8762 z" clip-path="url(#134292616519-clipPath1)" id="path114" ns1:connector-curvature="0" style="stroke:none" />
    </g>
    <g id="g116" style="text-rendering:geometricPrecision;fill:#f5d0fe;stroke:none">
      <path d="m 543.6622,391.3175 c 0.6605,-0.8588 0.4998,-2.0899 -0.359,-2.7505 -0.8589,-0.6604 -2.0901,-0.4997 -2.7505,0.3591 l -52.2722,67.9703 c -0.6605,0.8589 -0.4998,2.09 0.3591,2.7505 0.8588,0.6605 2.0899,0.4998 2.7504,-0.3591 z m -12.9566,-9.9642 c 0.6605,-0.8588 0.4998,-2.09 -0.359,-2.7505 -0.8589,-0.6604 -2.0901,-0.4997 -2.7505,0.3591 l -52.2722,67.9703 c -0.6605,0.8589 -0.4998,2.09 0.3591,2.7505 0.8588,0.6605 2.0899,0.4998 2.7504,-0.3591 z" clip-path="url(#134292616519-clipPath1)" id="path118" ns1:connector-curvature="0" style="stroke:none" />
    </g>
    <g id="g120" style="text-rendering:geometricPrecision;fill:#f5d0fe;stroke:none">
      <path d="m 763.2431,446.5369 -24.975,78.9134 c -0.327,1.033 0.2451,2.1348 1.2781,2.4618 1.033,0.3269 2.1349,-0.2452 2.4618,-1.2781 l 24.975,-78.9135 c 0.3269,-1.0329 -0.2451,-2.1348 -1.2781,-2.4617 -1.033,-0.327 -2.1349,0.2451 -2.4618,1.2781 z" clip-path="url(#134292616519-clipPath1)" id="path122" ns1:connector-curvature="0" style="stroke:none" />
    </g>
    <g id="g124" style="text-rendering:geometricPrecision;fill:#f5d0fe;stroke:none">
      <path d="m 617.9984,413.5596 0.2511,1.3638 1.9595,-0.0834 1.9597,-0.0834 0.0636,-1.3773 0,0 -4.2339,0.1803 z m -2.3317,-12.6613 0.7175,3.8957 6.257,-0.2664 0.1817,-3.934 0,0 -7.1562,0.3047 z m -2.3316,-12.6614 0.7175,3.8958 9.1792,-0.3908 0.1817,-3.9341 0,0 -10.0784,0.4291 z m -2.3316,-12.6613 0.7174,3.8957 0,0 12.1015,-0.5152 0,0 0.1817,-3.9341 -13.0006,0.5536 z m -2.3315,-12.6614 0.7174,3.8958 15.0236,-0.6397 0,0 0.1817,-3.9341 0,0 -15.9227,0.678 z m -2.3316,-12.6613 0.7174,3.8957 17.9457,-0.7641 0.1817,-3.934 0,0 -18.8448,0.8024 z m -1.1565,-8.7851 20.4103,-0.869 0,0 0.1817,-3.9341 -18.4961,0.7875 -2.0959,4.0156 z m 6.8117,-13.0507 14.1892,-0.6041 1.347,-29.1621 -11.3444,21.7351 -4.1918,8.0311 z" clip-path="url(#134292616519-clipPath1)" id="path126" ns1:connector-curvature="0" style="stroke:none" />
    </g>
    <g id="g128" style="text-rendering:geometricPrecision;fill:#f5d0fe;stroke:none">
      <path d="m 705.1847,228.1824 3.0861,-2.4575 -2.6885,-4.2302 0,0 -3.7118,1.4731 0,0 3.3142,5.2146 z m -69.9408,55.6927 22.8767,-18.2163 0,0 -7.3405,-11.5499 -4.1918,8.0311 -11.3444,21.7351 z m 59.9107,-47.706 3.0862,-2.4574 -4.7219,-7.4295 0,0 -3.7117,1.4731 0,0 5.3474,8.4138 z m -10.03,7.9868 3.0862,-2.4575 0,0 -6.7552,-10.6287 0,0 -3.7118,1.473 7.3808,11.6132 z m -10.0301,7.9868 3.0862,-2.4575 0,0 -8.7885,-13.8281 0,0 -3.7117,1.4731 9.414,14.8125 z m -10.03,7.9867 3.0861,-2.4574 0,0 -10.5589,-16.6137 -2.0959,4.0155 9.5687,15.0556 z" clip-path="url(#134292616519-clipPath1)" id="path130" ns1:connector-curvature="0" style="stroke:none" />
      <path d="m 705.1847,228.1824 3.0861,-2.4575 -2.6885,-4.2302 0,0 -3.7118,1.4731 0,0 3.3142,5.2146 z m -69.9408,55.6927 22.8767,-18.2163 0,0 -7.3405,-11.5499 -4.1918,8.0311 -11.3444,21.7351 z m 59.9107,-47.706 3.0862,-2.4574 -4.7219,-7.4295 0,0 -3.7117,1.4731 0,0 5.3474,8.4138 z m -10.03,7.9868 3.0862,-2.4575 0,0 -6.7552,-10.6287 0,0 -3.7118,1.473 7.3808,11.6132 z m -10.0301,7.9868 3.0862,-2.4575 0,0 -8.7885,-13.8281 0,0 -3.7117,1.4731 9.414,14.8125 z m -10.03,7.9867 3.0861,-2.4574 0,0 -10.5589,-16.6137 -2.0959,4.0155 9.5687,15.0556 z" clip-path="url(#1342926165518-clipPath1)" id="path132" ns1:connector-curvature="0" style="fill:#c4b5fd;stroke:none" />
    </g>
    <g id="g134" style="text-rendering:geometricPrecision;fill:#f5d0fe;stroke:none">
      <path d="m 618.093,325.2128 33.5448,-64.2693 c 0.5014,-0.9605 0.1293,-2.145 -0.8312,-2.6464 -0.9605,-0.5013 -2.145,-0.1292 -2.6464,0.8313 l -33.5448,64.2693 c -0.5013,0.9605 -0.1292,2.145 0.8313,2.6463 0.9605,0.5013 2.145,0.1293 2.6463,-0.8312 z" clip-path="url(#134292616519-clipPath1)" id="path136" ns1:connector-curvature="0" style="stroke:none" />
    </g>
    <g id="g138" style="fill:#eef2ff;stroke:none;text-rendering:geometricPrecision">
      </g>
    <g font-size="32px" transform="translate(366.6944,308.437)" id="g142" style="font-size:32px;font-family:sans-serif;fill:#c4b5fd;stroke:none;text-rendering:geometricPrecision">
      <text x="0" xml:space="preserve" y="31" clip-path="url(#1342926165257-clipPath1)" id="text144" style="stroke:none">HN</text>
    </g>
    <g font-size="32px" id="g146" style="font-size:32px;font-family:sans-serif;fill:#eef2ff;stroke:none;text-rendering:geometricPrecision">
      <text x="0" y="31" transform="translate(714.5411,192.4302)" clip-path="url(#1342926165178-clipPath1)" xml:space="preserve" id="text150" style="fill:#c4b5fd;stroke:none">N</text>
    </g>
  </g>
</svg>