<?xml version='1.0' encoding='utf-8'?>
<svg xmlns="http://www.w3.org/2000/svg" xmlns:dc="http://purl.org/dc/elements/1.1/" xmlns:ns1="http://www.inkscape.org/namespaces/inkscape" xmlns:ns2="http://sodipodi.sourceforge.net/DTD/sodipodi-0.dtd" xmlns:ns4="http://creativecommons.org/ns#" xmlns:rdf="http://www.w3.org/1999/02/22-rdf-syntax-ns#" width="459.61282" stroke-miterlimit="10" font-weight="normal" height="463.35358" font-style="normal" font-size="12px" id="svg2" version="1.1" ns1:version="0.91 r13725" ns2:docname="Phosgene oxime.svg" style="font-style:normal;font-weight:normal;font-size:12px;font-family:Dialog;color-interpolation:auto;fill:#000000;fill-opacity:1;stroke:none;stroke:none;stroke:none;stroke:none;stroke:none;stroke:none;stroke:none;stroke:none;color-rendering:auto;image-rendering:auto;shape-rendering:auto;text-rendering:auto">
  <metadata id="metadata77">
    <rdf:RDF>
      <ns4:Work rdf:about="">
        <dc:format>image/svg+xml</dc:format>
        <dc:type rdf:resource="http://purl.org/dc/dcmitype/StillImage" />
        <dc:title />
      </ns4:Work>
    </rdf:RDF>
  </metadata>
  <ns2:namedview pagecolor="#ffffff" bordercolor="#666666" borderopacity="1" objecttolerance="10" gridtolerance="10" guidetolerance="10" ns1:pageopacity="0" ns1:pageshadow="2" ns1:window-width="1920" ns1:window-height="1058" id="namedview75" showgrid="false" fit-margin-top="10" fit-margin-left="10" fit-margin-right="10" fit-margin-bottom="10" ns1:zoom="0.36375" ns1:cx="350.44042" ns1:cy="230.76295" ns1:window-x="-8" ns1:window-y="-8" ns1:window-maximized="1" ns1:current-layer="svg2">
    <ns1:grid type="xygrid" id="grid4205" originx="-169.14721" originy="-69.237049" />
  </ns2:namedview>
  
  <defs id="genericDefs" />
  <g id="g5" transform="translate(-169.14721,-67.409363)" style="fill:#000000;stroke:none">
    <defs id="527791943248-defs1">
      <clipPath clipPathUnits="userSpaceOnUse" id="527791943870-clipPath1">
        <path d="M 0,0 800,0 800,600 0,600 0,0 Z" id="path9" ns1:connector-curvature="0" style="stroke:none" />
      </clipPath>
      <clipPath clipPathUnits="userSpaceOnUse" id="52779194394-clipPath1">
        <path d="m 253.2969,396.4945 c -39.9561,0 -72.347,32.3908 -72.347,72.347 0,39.9561 32.3909,72.3469 72.347,72.3469 39.9561,0 72.3469,-32.3908 72.3469,-72.3469 0,-39.9562 -32.3908,-72.347 -72.3469,-72.347 z" id="path12" ns1:connector-curvature="0" style="stroke:none" />
      </clipPath>
      <clipPath clipPathUnits="userSpaceOnUse" id="527791943856-clipPath1">
        <path d="m 378.6055,324.1476 c -39.9561,0 -72.347,32.3908 -72.347,72.3469 0,39.9562 32.3909,72.347 72.347,72.347 39.9561,0 72.3469,-32.3908 72.3469,-72.347 0,-39.9561 -32.3908,-72.3469 -72.3469,-72.3469 z" id="path15" ns1:connector-curvature="0" style="stroke:none" />
      </clipPath>
      <clipPath clipPathUnits="userSpaceOnUse" id="527791943835-clipPath1">
        <path d="m 378.6055,322.8321 c -40.6826,0 -73.6624,32.9798 -73.6624,73.6624 0,40.6827 32.9798,73.6624 73.6624,73.6624 40.6826,0 73.6624,-32.9797 73.6624,-73.6624 0,-40.6826 -32.9798,-73.6624 -73.6624,-73.6624 z" id="path18" ns1:connector-curvature="0" style="stroke:none" />
      </clipPath>
      <clipPath clipPathUnits="userSpaceOnUse" id="527791943859-clipPath1">
        <path d="m 414.6359,126.2093 c -29.7683,0 -53.9003,24.132 -53.9003,53.9003 0,29.7683 24.132,53.9002 53.9003,53.9002 29.7683,0 53.9003,-24.1319 53.9003,-53.9002 0,-29.7683 -24.132,-53.9003 -53.9003,-53.9003 z" id="path21" ns1:connector-curvature="0" style="stroke:none" />
      </clipPath>
      <clipPath clipPathUnits="userSpaceOnUse" id="527791943189-clipPath1">
        <path d="m -175.2727,-453.7859 800.0001,0 0,600 -800.0001,0 0,-600 z" id="path24" ns1:connector-curvature="0" style="stroke:none" />
      </clipPath>
      <clipPath clipPathUnits="userSpaceOnUse" id="527791943996-clipPath1">
        <path d="m -514.032,-453.7859 800,0 0,600 -800,0 0,-600 z" id="path27" ns1:connector-curvature="0" style="stroke:none" />
      </clipPath>
      <clipPath clipPathUnits="userSpaceOnUse" id="527791943503-clipPath1">
        <path d="m -353.2773,-160.4117 800,0 0,600 -800,0 0,-600 z" id="path30" ns1:connector-curvature="0" style="stroke:none" />
      </clipPath>
      <clipPath clipPathUnits="userSpaceOnUse" id="52779194343-clipPath1">
        <path d="m -519.3367,-62.6203 800,0 0,600 -800,0 0,-600 z" id="path33" ns1:connector-curvature="0" style="stroke:none" />
      </clipPath>
    </defs>
    <g id="g35" style="text-rendering:geometricPrecision;fill:#000000;stroke:none">
      <path d="m 255.4135,472.5077 125.3086,-72.347 c 2.0252,-1.1692 2.7188,-3.7577 1.5496,-5.7829 -1.1693,-2.0251 -3.7577,-2.7187 -5.7829,-1.5495 l -125.3086,72.347 c -2.0252,1.1692 -2.7188,3.7577 -1.5495,5.7829 1.1692,2.0251 3.7577,2.7187 5.7828,1.5495 z" clip-path="url(#527791943870-clipPath1)" id="path37" ns1:connector-curvature="0" style="stroke:none" />
      <path d="m 255.4135,472.5077 125.3086,-72.347 c 2.0252,-1.1692 2.7188,-3.7577 1.5496,-5.7829 -1.1693,-2.0251 -3.7577,-2.7187 -5.7829,-1.5495 l -125.3086,72.347 c -2.0252,1.1692 -2.7188,3.7577 -1.5495,5.7829 1.1692,2.0251 3.7577,2.7187 5.7828,1.5495 z" clip-path="url(#52779194394-clipPath1)" id="path39" ns1:connector-curvature="0" style="fill:#009900;stroke:none" />
    </g>
    <g id="g41" style="fill:#009900;stroke:none;text-rendering:geometricPrecision">
      <path d="m 376.4888,400.1607 125.3086,72.347 c 2.0252,1.1692 4.6136,0.4756 5.7829,-1.5495 1.1692,-2.0252 0.4756,-4.6137 -1.5496,-5.7829 l -125.3086,-72.347 c -2.0251,-1.1692 -4.6136,-0.4756 -5.7828,1.5495 -1.1692,2.0252 -0.4757,4.6137 1.5495,5.7829 z" clip-path="url(#527791943870-clipPath1)" id="path43" ns1:connector-curvature="0" style="stroke:none" />
      <path d="m 376.4888,400.1607 125.3086,72.347 c 2.0252,1.1692 4.6136,0.4756 5.7829,-1.5495 1.1692,-2.0252 0.4756,-4.6137 -1.5496,-5.7829 l -125.3086,-72.347 c -2.0251,-1.1692 -4.6136,-0.4756 -5.7828,1.5495 -1.1692,2.0252 -0.4757,4.6137 1.5495,5.7829 z" clip-path="url(#527791943856-clipPath1)" id="path45" ns1:connector-curvature="0" style="fill:#000000;stroke:none" />
    </g>
    <g id="g47" style="fill:#333399;stroke:none;text-rendering:geometricPrecision">
      <path d="m 374.3721,396.4945 c 0,2.3385 1.8949,4.2334 4.2334,4.2334 2.3384,0 4.2333,-1.8949 4.2333,-4.2334 l 0,-147.3248 c 0,-2.3384 -1.8949,-4.2333 -4.2333,-4.2333 -2.3385,0 -4.2334,1.8949 -4.2334,4.2333 z m 35.2783,-24.6012 c 0,2.3385 1.8948,4.2333 4.2333,4.2333 2.3385,0 4.2334,-1.8948 4.2334,-4.2333 l 0,-122.7236 c 0,-2.3384 -1.8949,-4.2333 -4.2334,-4.2333 -2.3385,0 -4.2333,1.8949 -4.2333,4.2333 z" clip-path="url(#527791943870-clipPath1)" id="path49" ns1:connector-curvature="0" style="stroke:none" />
      <path d="m 374.3721,396.4945 c 0,2.3385 1.8949,4.2334 4.2334,4.2334 2.3384,0 4.2333,-1.8949 4.2333,-4.2334 l 0,-147.3248 c 0,-2.3384 -1.8949,-4.2333 -4.2333,-4.2333 -2.3385,0 -4.2334,1.8949 -4.2334,4.2333 z m 35.2783,-24.6012 c 0,2.3385 1.8948,4.2333 4.2333,4.2333 2.3385,0 4.2334,-1.8948 4.2334,-4.2333 l 0,-122.7236 c 0,-2.3384 -1.8949,-4.2333 -4.2334,-4.2333 -2.3385,0 -4.2333,1.8949 -4.2333,4.2333 z" clip-path="url(#527791943835-clipPath1)" id="path51" ns1:connector-curvature="0" style="fill:#000000;stroke:none" />
    </g>
    <g id="g53" style="fill:#ff0000;stroke:none;text-rendering:geometricPrecision">
      <path d="m 416.7526,183.7758 93.358,-53.9003 c 2.0251,-1.1693 2.7187,-3.7577 1.5495,-5.7829 -1.1693,-2.0252 -3.7577,-2.7187 -5.7829,-1.5495 l -93.358,53.9003 c -2.0252,1.1692 -2.7188,3.7576 -1.5495,5.7828 1.1692,2.0252 3.7577,2.7188 5.7829,1.5496 z" clip-path="url(#527791943870-clipPath1)" id="path55" ns1:connector-curvature="0" style="stroke:none" />
      <path d="m 416.7526,183.7758 93.358,-53.9003 c 2.0251,-1.1693 2.7187,-3.7577 1.5495,-5.7829 -1.1693,-2.0252 -3.7577,-2.7187 -5.7829,-1.5495 l -93.358,53.9003 c -2.0252,1.1692 -2.7188,3.7576 -1.5495,5.7828 1.1692,2.0252 3.7577,2.7188 5.7829,1.5496 z" clip-path="url(#527791943859-clipPath1)" id="path57" ns1:connector-curvature="0" style="fill:#333399;stroke:none" />
    </g>
    <g font-size="69px" transform="translate(175.2727,453.7859)" id="g59" style="font-size:69px;font-family:sans-serif;fill:#009900;stroke:none;text-rendering:geometricPrecision">
      <text x="0" xml:space="preserve" y="66" clip-path="url(#527791943189-clipPath1)" id="text61" style="stroke:none">Cl</text>
    </g>
    <g font-size="69px" transform="translate(514.032,453.7859)" id="g63" style="font-size:69px;font-family:sans-serif;fill:#009900;stroke:none;text-rendering:geometricPrecision">
      <text x="0" xml:space="preserve" y="66" clip-path="url(#527791943996-clipPath1)" id="text65" style="stroke:none">Cl</text>
    </g>
    <g font-size="69px" transform="translate(353.2773,160.4117)" id="g67" style="font-size:69px;font-family:sans-serif;fill:#333399;stroke:none;text-rendering:geometricPrecision">
      <text x="0" xml:space="preserve" y="66" clip-path="url(#527791943503-clipPath1)" id="text69" style="stroke:none">N</text>
    </g>
    <g font-size="69px" transform="translate(519.3367,62.6203)" id="g71" style="font-size:69px;font-family:sans-serif;fill:#ff0000;stroke:none;text-rendering:geometricPrecision">
      <text x="0" xml:space="preserve" y="66" clip-path="url(#52779194343-clipPath1)" id="text73" style="stroke:none">OH</text>
    </g>
  </g>
</svg>