<?xml version='1.0' encoding='utf-8'?>
<svg xmlns="http://www.w3.org/2000/svg" xmlns:dc="http://purl.org/dc/elements/1.1/" xmlns:ns1="http://www.inkscape.org/namespaces/inkscape" xmlns:ns2="http://sodipodi.sourceforge.net/DTD/sodipodi-0.dtd" xmlns:ns4="http://creativecommons.org/ns#" xmlns:rdf="http://www.w3.org/1999/02/22-rdf-syntax-ns#" width="513.01996" stroke-miterlimit="10" font-weight="normal" height="555.14142" font-style="normal" font-size="12px" id="svg2" version="1.1" ns1:version="0.91 r13725" ns2:docname="Saxitoxin.svg" style="font-style:normal;font-weight:normal;font-size:12px;font-family:Dialog;color-interpolation:auto;fill:#000000;fill-opacity:1;stroke:none;stroke:none;stroke:none;stroke:none;stroke:none;stroke:none;stroke:none;stroke:none;color-rendering:auto;image-rendering:auto;shape-rendering:auto;text-rendering:auto">
  <metadata id="metadata304">
    <rdf:RDF>
      <ns4:Work rdf:about="">
        <dc:format>image/svg+xml</dc:format>
        <dc:type rdf:resource="http://purl.org/dc/dcmitype/StillImage" />
        <dc:title />
      </ns4:Work>
    </rdf:RDF>
  </metadata>
  <ns2:namedview pagecolor="#ffffff" bordercolor="#666666" borderopacity="1" objecttolerance="10" gridtolerance="10" guidetolerance="10" ns1:pageopacity="0" ns1:pageshadow="2" ns1:window-width="1920" ns1:window-height="1058" id="namedview302" showgrid="false" fit-margin-top="10" fit-margin-left="10" fit-margin-right="10" fit-margin-bottom="10" ns1:zoom="0.36375" ns1:cx="257.02755" ns1:cy="277.61268" ns1:window-x="-8" ns1:window-y="-8" ns1:window-maximized="1" ns1:current-layer="svg2" />
  
  <defs id="genericDefs" />
  <g id="g5" transform="translate(-142.97245,-22.47125)" style="fill:#000000;stroke:none">
    <defs id="1904107890232-defs1">
      <clipPath clipPathUnits="userSpaceOnUse" id="1904107890222-clipPath1">
        <path d="M 0,0 800,0 800,600 0,600 0,0 Z" id="path9" ns1:connector-curvature="0" style="stroke:none" />
      </clipPath>
      <clipPath clipPathUnits="userSpaceOnUse" id="1904107890193-clipPath1">
        <path d="m 329.6827,173.9593 c -17.1051,0 -30.9714,13.8664 -30.9714,30.9714 0,17.1051 13.8663,30.9714 30.9714,30.9714 17.105,0 30.9714,-13.8663 30.9714,-30.9714 0,-17.105 -13.8664,-30.9714 -30.9714,-30.9714 z" id="path12" ns1:connector-curvature="0" style="stroke:none" />
      </clipPath>
      <clipPath clipPathUnits="userSpaceOnUse" id="190410789028-clipPath1">
        <path d="m 259.4575,113.5842 c -16.7272,0 -30.2872,13.5601 -30.2872,30.2872 0,16.7271 13.56,30.2872 30.2872,30.2872 16.7271,0 30.2871,-13.5601 30.2871,-30.2872 0,-16.7271 -13.56,-30.2872 -30.2871,-30.2872 z" id="path15" ns1:connector-curvature="0" style="stroke:none" />
      </clipPath>
      <clipPath clipPathUnits="userSpaceOnUse" id="1904107890283-clipPath1">
        <path d="m 259.4575,52.576 c -16.9668,0 -30.7211,13.7543 -30.7211,30.7211 0,16.9667 13.7543,30.721 30.7211,30.721 16.9667,0 30.721,-13.7543 30.721,-30.721 0,-16.9668 -13.7543,-30.7211 -30.721,-30.7211 z" id="path18" ns1:connector-curvature="0" style="stroke:none" />
      </clipPath>
      <clipPath clipPathUnits="userSpaceOnUse" id="1904107890208-clipPath1">
        <path d="m 430.6987,468.9005 c -16.7857,0 -30.3932,13.6075 -30.3932,30.3932 0,16.7857 13.6075,30.3932 30.3932,30.3932 16.7857,0 30.3932,-13.6075 30.3932,-30.3932 0,-16.7857 -13.6075,-30.3932 -30.3932,-30.3932 z" id="path21" ns1:connector-curvature="0" style="stroke:none" />
      </clipPath>
      <clipPath clipPathUnits="userSpaceOnUse" id="1904107890165-clipPath1">
        <path d="m 430.6987,467.9344 c -17.3192,0 -31.3592,14.04 -31.3592,31.3593 0,17.3192 14.04,31.3592 31.3592,31.3592 17.3192,0 31.3593,-14.04 31.3593,-31.3592 0,-17.3193 -14.0401,-31.3593 -31.3593,-31.3593 z" id="path24" ns1:connector-curvature="0" style="stroke:none" />
      </clipPath>
      <clipPath clipPathUnits="userSpaceOnUse" id="1904107890455-clipPath1">
        <path d="m 524.6943,334.099 c -18.2421,0 -33.0303,14.7882 -33.0303,33.0303 0,18.2421 14.7882,33.0302 33.0303,33.0302 18.2421,0 33.0302,-14.7881 33.0302,-33.0302 0,-18.2421 -14.7881,-33.0303 -33.0302,-33.0303 z" id="path27" ns1:connector-curvature="0" style="stroke:none" />
      </clipPath>
      <clipPath clipPathUnits="userSpaceOnUse" id="1904107890223-clipPath1">
        <path d="m 259.4546,377.9899 c -16.3882,0 -29.6734,13.2852 -29.6734,29.6734 0,16.3882 13.2852,29.6734 29.6734,29.6734 16.3882,0 29.6734,-13.2852 29.6734,-29.6734 0,-16.3882 -13.2852,-29.6734 -29.6734,-29.6734 z" id="path30" ns1:connector-curvature="0" style="stroke:none" />
      </clipPath>
      <clipPath clipPathUnits="userSpaceOnUse" id="1904107890552-clipPath1">
        <path d="m 259.4546,375.7404 c -17.6305,0 -31.9229,14.2924 -31.9229,31.9229 0,17.6306 14.2924,31.923 31.9229,31.923 17.6305,0 31.9229,-14.2924 31.9229,-31.923 0,-17.6305 -14.2924,-31.9229 -31.9229,-31.9229 z" id="path33" ns1:connector-curvature="0" style="stroke:none" />
      </clipPath>
      <clipPath clipPathUnits="userSpaceOnUse" id="1904107890690-clipPath1">
        <path d="m 344.6147,407.6566 c -17.6305,0 -31.9229,14.2923 -31.9229,31.9229 0,17.6306 14.2924,31.9229 31.9229,31.9229 17.6305,0 31.9229,-14.2923 31.9229,-31.9229 0,-17.6306 -14.2924,-31.9229 -31.9229,-31.9229 z" id="path36" ns1:connector-curvature="0" style="stroke:none" />
      </clipPath>
      <clipPath clipPathUnits="userSpaceOnUse" id="1904107890174-clipPath1">
        <path d="m 329.6827,437.828 c -16.8372,0 -30.4864,13.6492 -30.4864,30.4864 0,16.8372 13.6492,30.4864 30.4864,30.4864 16.8371,0 30.4864,-13.6492 30.4864,-30.4864 0,-16.8372 -13.6493,-30.4864 -30.4864,-30.4864 z" id="path39" ns1:connector-curvature="0" style="stroke:none" />
      </clipPath>
      <clipPath clipPathUnits="userSpaceOnUse" id="1904107890365-clipPath1">
        <path d="m 329.6827,256.4606 c -16.3251,0 -29.5592,13.2341 -29.5592,29.5592 0,16.3251 13.2341,29.5592 29.5592,29.5592 16.3251,0 29.5592,-13.2341 29.5592,-29.5592 0,-16.3251 -13.2341,-29.5592 -29.5592,-29.5592 z" id="path42" ns1:connector-curvature="0" style="stroke:none" />
      </clipPath>
      <clipPath clipPathUnits="userSpaceOnUse" id="1904107890310-clipPath1">
        <path d="m 259.4546,316.1894 c -16.8399,0 -30.4913,13.6515 -30.4913,30.4913 0,16.8399 13.6514,30.4913 30.4913,30.4913 16.8399,0 30.4913,-13.6514 30.4913,-30.4913 0,-16.8398 -13.6514,-30.4913 -30.4913,-30.4913 z" id="path45" ns1:connector-curvature="0" style="stroke:none" />
      </clipPath>
      <clipPath clipPathUnits="userSpaceOnUse" id="1904107890223-clipPath2">
        <path d="m 524.6943,338.8274 c -15.6307,0 -28.3019,12.6712 -28.3019,28.3019 0,15.6307 12.6712,28.3019 28.3019,28.3019 15.6307,0 28.3019,-12.6712 28.3019,-28.3019 0,-15.6307 -12.6712,-28.3019 -28.3019,-28.3019 z" id="path48" ns1:connector-curvature="0" style="stroke:none" />
      </clipPath>
      <clipPath clipPathUnits="userSpaceOnUse" id="1904107890899-clipPath1">
        <path d="m 399.9108,294.0246 c -17.9713,0 -32.5398,14.5686 -32.5398,32.5398 0,17.9712 14.5685,32.5398 32.5398,32.5398 17.9712,0 32.5397,-14.5686 32.5397,-32.5398 0,-17.9712 -14.5685,-32.5398 -32.5397,-32.5398 z" id="path51" ns1:connector-curvature="0" style="stroke:none" />
      </clipPath>
      <clipPath clipPathUnits="userSpaceOnUse" id="1904107890855-clipPath1">
        <path d="m 488.5565,386.1216 c -16.9751,0 -30.7362,13.7611 -30.7362,30.7362 0,16.9752 13.7611,30.7363 30.7362,30.7363 16.9752,0 30.7363,-13.7611 30.7363,-30.7363 0,-16.9751 -13.7611,-30.7362 -30.7363,-30.7362 z" id="path54" ns1:connector-curvature="0" style="stroke:none" />
      </clipPath>
      <clipPath clipPathUnits="userSpaceOnUse" id="1904107890607-clipPath1">
        <path d="m 399.9108,375.1266 c -17.9695,0 -32.5367,14.5672 -32.5367,32.5367 0,17.9695 14.5672,32.5367 32.5367,32.5367 17.9695,0 32.5366,-14.5672 32.5366,-32.5367 0,-17.9695 -14.5671,-32.5367 -32.5366,-32.5367 z" id="path57" ns1:connector-curvature="0" style="stroke:none" />
      </clipPath>
      <clipPath clipPathUnits="userSpaceOnUse" id="190410789065-clipPath1">
        <path d="m 259.4575,51.3731 c -17.6312,0 -31.924,14.2928 -31.924,31.924 0,17.6311 14.2928,31.9239 31.924,31.9239 17.6311,0 31.9239,-14.2928 31.9239,-31.9239 0,-17.6312 -14.2928,-31.924 -31.9239,-31.924 z" id="path60" ns1:connector-curvature="0" style="stroke:none" />
      </clipPath>
      <clipPath clipPathUnits="userSpaceOnUse" id="1904107890800-clipPath1">
        <path d="m 399.9108,296.1141 c -16.8172,0 -30.4503,13.6331 -30.4503,30.4503 0,16.8172 13.6331,30.4502 30.4503,30.4502 16.8172,0 30.4502,-13.633 30.4502,-30.4502 0,-16.8172 -13.633,-30.4503 -30.4502,-30.4503 z" id="path63" ns1:connector-curvature="0" style="stroke:none" />
      </clipPath>
      <clipPath clipPathUnits="userSpaceOnUse" id="1904107890936-clipPath1">
        <path d="m -233.0249,-310.0644 800,0 0,600 -800,0 0,-600 z" id="path66" ns1:connector-curvature="0" style="stroke:none" />
      </clipPath>
      <clipPath clipPathUnits="userSpaceOnUse" id="1904107890857-clipPath1">
        <path d="m -319.1749,-431.6981 800,0 0,600 -800,0 0,-600 z" id="path69" ns1:connector-curvature="0" style="stroke:none" />
      </clipPath>
      <clipPath clipPathUnits="userSpaceOnUse" id="1904107890230-clipPath1">
        <path d="m -466.5167,-416.2268 800,0 0,600 -800,0 0,-600 z" id="path72" ns1:connector-curvature="0" style="stroke:none" />
      </clipPath>
      <clipPath clipPathUnits="userSpaceOnUse" id="19041078904-clipPath1">
        <path d="m -466.5298,-285.0262 800,0 0,600 -800,0 0,-600 z" id="path75" ns1:connector-curvature="0" style="stroke:none" />
      </clipPath>
      <clipPath clipPathUnits="userSpaceOnUse" id="1904107890784-clipPath1">
        <path d="m -248.6528,-147.8862 800,0 0,600 -800,0 0,-600 z" id="path78" ns1:connector-curvature="0" style="stroke:none" />
      </clipPath>
      <clipPath clipPathUnits="userSpaceOnUse" id="1904107890197-clipPath1">
        <path d="m -150.2244,-26.2525 800,0 0,600 -800,0 0,-600 z" id="path81" ns1:connector-curvature="0" style="stroke:none" />
      </clipPath>
      <clipPath clipPathUnits="userSpaceOnUse" id="1904107890159-clipPath1">
        <path d="m -168.1463,-41.3325 800,0 0,600 -800,0 0,-600 z" id="path84" ns1:connector-curvature="0" style="stroke:none" />
      </clipPath>
      <clipPath clipPathUnits="userSpaceOnUse" id="190410789085-clipPath1">
        <path d="m -178.7244,-26.2525 800,0 0,600 -800,0 0,-600 z" id="path87" ns1:connector-curvature="0" style="stroke:none" />
      </clipPath>
      <clipPath clipPathUnits="userSpaceOnUse" id="1904107890932-clipPath1">
        <path d="m -318.878,-26.2525 800,0 0,600 -800,0 0,-600 z" id="path90" ns1:connector-curvature="0" style="stroke:none" />
      </clipPath>
      <clipPath clipPathUnits="userSpaceOnUse" id="1904107890336-clipPath1">
        <path d="m -162.8022,-431.7122 800,0 0,600 -800,0 0,-600 z" id="path93" ns1:connector-curvature="0" style="stroke:none" />
      </clipPath>
      <clipPath clipPathUnits="userSpaceOnUse" id="1904107890657-clipPath1">
        <path d="m -595.2756,-350.6362 800,0 0,600 -800,0 0,-600 z" id="path96" ns1:connector-curvature="0" style="stroke:none" />
      </clipPath>
      <clipPath clipPathUnits="userSpaceOnUse" id="1904107890238-clipPath1">
        <path d="m -634.1974,-365.7162 799.9999,0 0,600.0001 -799.9999,0 0,-600.0001 z" id="path99" ns1:connector-curvature="0" style="stroke:none" />
      </clipPath>
      <clipPath clipPathUnits="userSpaceOnUse" id="1904107890578-clipPath1">
        <path d="m -498.3828,-470.5419 800,0 0,600 -800,0 0,-600 z" id="path102" ns1:connector-curvature="0" style="stroke:none" />
      </clipPath>
      <clipPath clipPathUnits="userSpaceOnUse" id="1904107890439-clipPath1">
        <path d="m -476.6487,-540.2162 800,0 0,600 -800,0 0,-600 z" id="path105" ns1:connector-curvature="0" style="stroke:none" />
      </clipPath>
      <clipPath clipPathUnits="userSpaceOnUse" id="190410789062-clipPath1">
        <path d="m -397.9356,-229.4205 800,0 0,600 -800,0 0,-600 z" id="path108" ns1:connector-curvature="0" style="stroke:none" />
      </clipPath>
    </defs>
    <g id="g110" style="text-rendering:geometricPrecision;fill:#000000;stroke:none">
      <path d="m 328.8051,287.5399 70.2281,40.5445 c 0.8397,0.4848 1.9128,0.1972 2.3976,-0.6425 0.4848,-0.8396 0.1972,-1.9128 -0.6425,-2.3975 l -70.2281,-40.5446 c -0.8396,-0.4848 -1.9128,-0.1972 -2.3975,0.6425 -0.4848,0.8396 -0.1972,1.9128 0.6424,2.3976 z" clip-path="url(#1904107890222-clipPath1)" id="path112" ns1:connector-curvature="0" style="stroke:none" />
    </g>
    <g id="g114" style="text-rendering:geometricPrecision;fill:#000000;stroke:none">
      <path d="m 401.6659,407.6633 0,-81.0989 c 0,-0.9696 -0.7856,-1.7552 -1.7551,-1.7552 -0.9696,0 -1.7552,0.7856 -1.7552,1.7552 l 0,81.0989 c 0,0.9696 0.7856,1.7552 1.7552,1.7552 0.9695,0 1.7551,-0.7856 1.7551,-1.7552 z" clip-path="url(#1904107890222-clipPath1)" id="path116" ns1:connector-curvature="0" style="stroke:none" />
    </g>
    <g id="g118" style="text-rendering:geometricPrecision;fill:#000000;stroke:none">
      <path d="m 329.6827,286.0198 1.7551,0 9.2147,-76.7823 -10.9698,-6.3335 -10.9699,-6.3334 9.2147,89.4492 z" clip-path="url(#1904107890222-clipPath1)" id="path120" ns1:connector-curvature="0" style="stroke:none" />
    </g>
    <g id="g122" style="text-rendering:geometricPrecision;fill:#000000;stroke:none">
      <path d="m 399.9108,407.6633 -1.6638,0.5591 25.2348,104.0344 8.2094,-11.3409 10.574,-1.6401 -40.6907,-92.1715 z" clip-path="url(#1904107890222-clipPath1)" id="path124" ns1:connector-curvature="0" style="stroke:none" />
    </g>
    <g id="g126" style="text-rendering:geometricPrecision;fill:#000000;stroke:none">
      <path d="m 329.2054,530.9762 65.8373,18.6049 c 0.933,0.2636 1.9026,-0.2788 2.1663,-1.2118 0.2636,-0.933 -0.2787,-1.9026 -1.2117,-2.1663 L 330.16,527.5981 c -0.933,-0.2636 -1.9027,0.2788 -2.1663,1.2118 -0.2637,0.933 0.2787,1.9026 1.2117,2.1663 z" clip-path="url(#1904107890222-clipPath1)" id="path128" ns1:connector-curvature="0" style="stroke:none" />
    </g>
    <g id="g130" style="text-rendering:geometricPrecision;fill:#000000;stroke:none">
      <path d="m 396.9417,548.9212 35.1788,-48.5984 c 0.5685,-0.7853 0.3927,-1.8824 -0.3926,-2.4509 -0.7854,-0.5685 -1.8824,-0.3928 -2.451,0.3926 l -35.1787,48.5984 c -0.5685,0.7854 -0.3928,1.8824 0.3926,2.4509 0.7854,0.5685 1.8824,0.3927 2.4509,-0.3926 z" clip-path="url(#1904107890222-clipPath1)" id="path132" ns1:connector-curvature="0" style="stroke:none" />
    </g>
    <g id="g134" style="fill:#ff0000;stroke:none;text-rendering:geometricPrecision">
      <path d="m 330.5603,203.4107 -53.6441,-30.9714 c -0.8397,-0.4848 -1.9128,-0.1972 -2.3976,0.6424 -0.4848,0.8397 -0.1972,1.9129 0.6424,2.3976 l 53.6441,30.9714 c 0.8396,0.4848 1.9128,0.1972 2.3976,-0.6424 0.4848,-0.8396 0.1972,-1.9128 -0.6424,-2.3976 z" clip-path="url(#1904107890222-clipPath1)" id="path136" ns1:connector-curvature="0" style="stroke:none" />
      <path d="m 330.5603,203.4107 -53.6441,-30.9714 c -0.8397,-0.4848 -1.9128,-0.1972 -2.3976,0.6424 -0.4848,0.8397 -0.1972,1.9129 0.6424,2.3976 l 53.6441,30.9714 c 0.8396,0.4848 1.9128,0.1972 2.3976,-0.6424 0.4848,-0.8396 0.1972,-1.9128 -0.6424,-2.3976 z" clip-path="url(#1904107890193-clipPath1)" id="path138" ns1:connector-curvature="0" style="fill:#000000;stroke:none" />
    </g>
    <g id="g140" style="text-rendering:geometricPrecision;fill:#000000;stroke:none">
      <path d="m 261.2126,143.8714 0,-60.5743 c 0,-0.9696 -0.7856,-1.7552 -1.7551,-1.7552 -0.9696,0 -1.7552,0.7856 -1.7552,1.7552 l 0,60.5743 c 0,0.9695 0.7856,1.7552 1.7552,1.7552 0.9695,0 1.7551,-0.7857 1.7551,-1.7552 z" clip-path="url(#1904107890222-clipPath1)" id="path142" ns1:connector-curvature="0" style="stroke:none" />
      <path d="m 261.2126,143.8714 0,-60.5743 c 0,-0.9696 -0.7856,-1.7552 -1.7551,-1.7552 -0.9696,0 -1.7552,0.7856 -1.7552,1.7552 l 0,60.5743 c 0,0.9695 0.7856,1.7552 1.7552,1.7552 0.9695,0 1.7551,-0.7857 1.7551,-1.7552 z" clip-path="url(#190410789028-clipPath1)" id="path144" ns1:connector-curvature="0" style="fill:#ff0000;stroke:none" />
    </g>
    <g id="g146" style="fill:#ff0000;stroke:none;text-rendering:geometricPrecision">
      <path d="m 251.2666,77.5548 c -0.8396,0.4847 -1.1271,1.5579 -0.6424,2.3975 0.4848,0.8397 1.558,1.1272 2.3976,0.6425 l 56.8671,-32.8323 c 0.8396,-0.4847 1.1272,-1.5579 0.6424,-2.3975 -0.4847,-0.8397 -1.5579,-1.1272 -2.3976,-0.6425 z m 7.3133,12.6668 c -0.8397,0.4848 -1.1272,1.558 -0.6425,2.3976 0.4848,0.8397 1.558,1.1272 2.3976,0.6425 l 56.8671,-32.8323 c 0.8397,-0.4847 1.1272,-1.5579 0.6424,-2.3976 -0.4847,-0.8396 -1.5579,-1.1272 -2.3975,-0.6424 z" clip-path="url(#1904107890222-clipPath1)" id="path148" ns1:connector-curvature="0" style="stroke:none" />
      <path d="m 251.2666,77.5548 c -0.8396,0.4847 -1.1271,1.5579 -0.6424,2.3975 0.4848,0.8397 1.558,1.1272 2.3976,0.6425 l 56.8671,-32.8323 c 0.8396,-0.4847 1.1272,-1.5579 0.6424,-2.3975 -0.4847,-0.8397 -1.5579,-1.1272 -2.3976,-0.6425 z m 7.3133,12.6668 c -0.8397,0.4848 -1.1272,1.558 -0.6425,2.3976 0.4848,0.8397 1.558,1.1272 2.3976,0.6425 l 56.8671,-32.8323 c 0.8397,-0.4847 1.1272,-1.5579 0.6424,-2.3976 -0.4847,-0.8396 -1.5579,-1.1272 -2.3975,-0.6424 z" clip-path="url(#1904107890283-clipPath1)" id="path150" ns1:connector-curvature="0" style="fill:#000000;stroke:none" />
    </g>
    <g id="g152" style="fill:#ff0000;stroke:none;text-rendering:geometricPrecision">
      <path d="m 429.4558,500.5329 42.9195,43.0454 c 0.6846,0.6866 1.7956,0.6882 2.4822,0.004 0.6865,-0.6846 0.6882,-1.7956 0.004,-2.4822 L 431.942,498.0547 c -0.6846,-0.6866 -1.7956,-0.6882 -2.4822,-0.004 -0.6865,0.6845 -0.6882,1.7956 -0.004,2.4821 z" clip-path="url(#1904107890222-clipPath1)" id="path154" ns1:connector-curvature="0" style="stroke:none" />
      <path d="m 429.4558,500.5329 42.9195,43.0454 c 0.6846,0.6866 1.7956,0.6882 2.4822,0.004 0.6865,-0.6846 0.6882,-1.7956 0.004,-2.4822 L 431.942,498.0547 c -0.6846,-0.6866 -1.7956,-0.6882 -2.4822,-0.004 -0.6865,0.6845 -0.6882,1.7956 -0.004,2.4821 z" clip-path="url(#1904107890208-clipPath1)" id="path156" ns1:connector-curvature="0" style="fill:#000000;stroke:none" />
    </g>
    <g id="g158" style="fill:#ff0000;stroke:none;text-rendering:geometricPrecision">
      <path d="m 430.9677,501.0281 61.9774,-9.6132 c 0.9581,-0.1486 1.614,-1.0453 1.4654,-2.0034 -0.1486,-0.9581 -1.0454,-1.614 -2.0034,-1.4654 l -61.9774,9.6132 c -0.9581,0.1486 -1.614,1.0453 -1.4654,2.0034 0.1486,0.9581 1.0453,1.614 2.0034,1.4654 z" clip-path="url(#1904107890222-clipPath1)" id="path160" ns1:connector-curvature="0" style="stroke:none" />
      <path d="m 430.9677,501.0281 61.9774,-9.6132 c 0.9581,-0.1486 1.614,-1.0453 1.4654,-2.0034 -0.1486,-0.9581 -1.0454,-1.614 -2.0034,-1.4654 l -61.9774,9.6132 c -0.9581,0.1486 -1.614,1.0453 -1.4654,2.0034 0.1486,0.9581 1.0453,1.614 2.0034,1.4654 z" clip-path="url(#1904107890165-clipPath1)" id="path162" ns1:connector-curvature="0" style="fill:#000000;stroke:none" />
    </g>
    <g id="g164" style="fill:#333399;stroke:none;text-rendering:geometricPrecision">
      <path d="m 524.6942,368.8845 66.0604,0.006 c 0.9696,1e-4 1.7553,-0.7855 1.7553,-1.755 2e-4,-0.9696 -0.7854,-1.7552 -1.755,-1.7553 l -66.0604,-0.006 c -0.9696,0 -1.7553,0.7855 -1.7554,1.7551 -1e-4,0.9695 0.7855,1.7552 1.7551,1.7553 z" clip-path="url(#1904107890222-clipPath1)" id="path166" ns1:connector-curvature="0" style="stroke:none" />
      <path d="m 524.6942,368.8845 66.0604,0.006 c 0.9696,1e-4 1.7553,-0.7855 1.7553,-1.755 2e-4,-0.9696 -0.7854,-1.7552 -1.755,-1.7553 l -66.0604,-0.006 c -0.9696,0 -1.7553,0.7855 -1.7554,1.7551 -1e-4,0.9695 0.7855,1.7552 1.7551,1.7553 z" clip-path="url(#1904107890455-clipPath1)" id="path168" ns1:connector-curvature="0" style="fill:#000000;stroke:none" />
    </g>
    <g id="g170" style="fill:#333399;stroke:none;text-rendering:geometricPrecision">
      <path d="m 267.6463,413.4048 c 0.8396,-0.4848 1.1271,-1.558 0.6422,-2.3976 -0.4848,-0.8396 -1.558,-1.1271 -2.3976,-0.6423 l -55.051,31.7882 c -0.8396,0.4849 -1.1271,1.5581 -0.6423,2.3977 0.4848,0.8396 1.558,1.1271 2.3976,0.6423 z m -7.314,-12.6664 c 0.8396,-0.4848 1.1271,-1.558 0.6422,-2.3976 -0.4848,-0.8396 -1.558,-1.1271 -2.3976,-0.6423 l -55.051,31.7882 c -0.8396,0.4848 -1.1271,1.558 -0.6423,2.3976 0.4848,0.8397 1.558,1.1271 2.3976,0.6423 z" clip-path="url(#1904107890222-clipPath1)" id="path172" ns1:connector-curvature="0" style="stroke:none" />
      <path d="m 267.6463,413.4048 c 0.8396,-0.4848 1.1271,-1.558 0.6422,-2.3976 -0.4848,-0.8396 -1.558,-1.1271 -2.3976,-0.6423 l -55.051,31.7882 c -0.8396,0.4849 -1.1271,1.5581 -0.6423,2.3977 0.4848,0.8396 1.558,1.1271 2.3976,0.6423 z m -7.314,-12.6664 c 0.8396,-0.4848 1.1271,-1.558 0.6422,-2.3976 -0.4848,-0.8396 -1.558,-1.1271 -2.3976,-0.6423 l -55.051,31.7882 c -0.8396,0.4848 -1.1271,1.558 -0.6423,2.3976 0.4848,0.8397 1.558,1.1271 2.3976,0.6423 z" clip-path="url(#1904107890223-clipPath1)" id="path174" ns1:connector-curvature="0" style="fill:#000000;stroke:none" />
    </g>
    <g id="g176" style="fill:#333399;stroke:none;text-rendering:geometricPrecision">
      <path d="m 258.5772,409.1834 55.2961,31.9162 c 0.8397,0.4847 1.9128,0.197 2.3975,-0.6427 0.4847,-0.8397 0.1969,-1.9129 -0.6427,-2.3975 L 260.332,406.1432 c -0.8397,-0.4847 -1.9128,-0.197 -2.3975,0.6427 -0.4847,0.8397 -0.197,1.9129 0.6427,2.3975 z" clip-path="url(#1904107890222-clipPath1)" id="path178" ns1:connector-curvature="0" style="stroke:none" />
      <path d="m 258.5772,409.1834 55.2961,31.9162 c 0.8397,0.4847 1.9128,0.197 2.3975,-0.6427 0.4847,-0.8397 0.1969,-1.9129 -0.6427,-2.3975 L 260.332,406.1432 c -0.8397,-0.4847 -1.9128,-0.197 -2.3975,0.6427 -0.4847,0.8397 -0.197,1.9129 0.6427,2.3975 z" clip-path="url(#1904107890552-clipPath1)" id="path180" ns1:connector-curvature="0" style="fill:#000000;stroke:none" />
    </g>
    <g id="g182" style="text-rendering:geometricPrecision;fill:#000000;stroke:none">
      <path d="m 345.4921,441.0996 55.296,-31.9162 c 0.8398,-0.4846 1.1275,-1.5578 0.6428,-2.3975 -0.4847,-0.8397 -1.5578,-1.1274 -2.3975,-0.6427 l -55.2961,31.9162 c -0.8397,0.4846 -1.1274,1.5578 -0.6427,2.3975 0.4847,0.8397 1.5578,1.1274 2.3975,0.6427 z" clip-path="url(#1904107890222-clipPath1)" id="path184" ns1:connector-curvature="0" style="stroke:none" />
      <path d="m 345.4921,441.0996 55.296,-31.9162 c 0.8398,-0.4846 1.1275,-1.5578 0.6428,-2.3975 -0.4847,-0.8397 -1.5578,-1.1274 -2.3975,-0.6427 l -55.2961,31.9162 c -0.8397,0.4846 -1.1274,1.5578 -0.6427,2.3975 0.4847,0.8397 1.5578,1.1274 2.3975,0.6427 z" clip-path="url(#1904107890690-clipPath1)" id="path186" ns1:connector-curvature="0" style="fill:#333399;stroke:none" />
    </g>
    <g id="g188" style="text-rendering:geometricPrecision;fill:#000000;stroke:none">
      <path d="m 327.9275,468.3144 0,60.9728 c 0,0.9695 0.7856,1.7551 1.7552,1.7551 0.9695,0 1.7551,-0.7856 1.7551,-1.7551 l 0,-60.9728 c 0,-0.9696 -0.7856,-1.7552 -1.7551,-1.7552 -0.9696,0 -1.7552,0.7856 -1.7552,1.7552 z" clip-path="url(#1904107890222-clipPath1)" id="path190" ns1:connector-curvature="0" style="stroke:none" />
      <path d="m 327.9275,468.3144 0,60.9728 c 0,0.9695 0.7856,1.7551 1.7552,1.7551 0.9695,0 1.7551,-0.7856 1.7551,-1.7551 l 0,-60.9728 c 0,-0.9696 -0.7856,-1.7552 -1.7551,-1.7552 -0.9696,0 -1.7552,0.7856 -1.7552,1.7552 z" clip-path="url(#1904107890174-clipPath1)" id="path192" ns1:connector-curvature="0" style="fill:#333399;stroke:none" />
    </g>
    <g id="g194" style="fill:#333399;stroke:none;text-rendering:geometricPrecision">
      <path d="m 328.8051,284.4998 -51.1985,29.5583 c -0.8397,0.4848 -1.1273,1.5579 -0.6425,2.3976 0.4848,0.8396 1.5579,1.1272 2.3976,0.6425 l 51.1985,-29.5583 c 0.8397,-0.4848 1.1273,-1.558 0.6425,-2.3976 -0.4847,-0.8397 -1.5579,-1.1273 -2.3976,-0.6425 z" clip-path="url(#1904107890222-clipPath1)" id="path196" ns1:connector-curvature="0" style="stroke:none" />
      <path d="m 328.8051,284.4998 -51.1985,29.5583 c -0.8397,0.4848 -1.1273,1.5579 -0.6425,2.3976 0.4848,0.8396 1.5579,1.1272 2.3976,0.6425 l 51.1985,-29.5583 c 0.8397,-0.4848 1.1273,-1.558 0.6425,-2.3976 -0.4847,-0.8397 -1.5579,-1.1273 -2.3976,-0.6425 z" clip-path="url(#1904107890365-clipPath1)" id="path198" ns1:connector-curvature="0" style="fill:#000000;stroke:none" />
    </g>
    <g id="g200" style="text-rendering:geometricPrecision;fill:#000000;stroke:none">
      <path d="m 257.6994,346.6807 0,60.9826 c 0,0.9696 0.7856,1.7552 1.7552,1.7552 0.9695,0 1.7551,-0.7856 1.7551,-1.7552 l 0,-60.9826 c 0,-0.9695 -0.7856,-1.7551 -1.7551,-1.7551 -0.9696,0 -1.7552,0.7856 -1.7552,1.7551 z" clip-path="url(#1904107890222-clipPath1)" id="path202" ns1:connector-curvature="0" style="stroke:none" />
      <path d="m 257.6994,346.6807 0,60.9826 c 0,0.9696 0.7856,1.7552 1.7552,1.7552 0.9695,0 1.7551,-0.7856 1.7551,-1.7552 l 0,-60.9826 c 0,-0.9695 -0.7856,-1.7551 -1.7551,-1.7551 -0.9696,0 -1.7552,0.7856 -1.7552,1.7551 z" clip-path="url(#1904107890310-clipPath1)" id="path204" ns1:connector-curvature="0" style="fill:#333399;stroke:none" />
    </g>
    <g id="g206" style="fill:#333399;stroke:none;text-rendering:geometricPrecision">
      <path d="M 526.1143,366.0977 492.8465,320.302 c -0.5699,-0.7844 -1.6672,-0.9582 -2.4516,-0.3884 -0.7845,0.5698 -0.9583,1.6671 -0.3885,2.4516 l 33.2679,45.7957 c 0.5698,0.7844 1.6672,0.9582 2.4515,0.3884 0.7845,-0.5698 0.9583,-1.6672 0.3885,-2.4516 z" clip-path="url(#1904107890222-clipPath1)" id="path208" ns1:connector-curvature="0" style="stroke:none" />
      <path d="M 526.1143,366.0977 492.8465,320.302 c -0.5699,-0.7844 -1.6672,-0.9582 -2.4516,-0.3884 -0.7845,0.5698 -0.9583,1.6671 -0.3885,2.4516 l 33.2679,45.7957 c 0.5698,0.7844 1.6672,0.9582 2.4515,0.3884 0.7845,-0.5698 0.9583,-1.6672 0.3885,-2.4516 z" clip-path="url(#1904107890223-clipPath2)" id="path210" ns1:connector-curvature="0" style="fill:#000000;stroke:none" />
    </g>
    <g id="g212" style="fill:#333399;stroke:none;text-rendering:geometricPrecision">
      <path d="m 400.4527,328.2338 61.8995,-20.0948 c 0.9222,-0.2994 1.4268,-1.2892 1.1274,-2.2114 -0.2993,-0.9221 -1.2891,-1.4268 -2.2113,-1.1274 l -61.8995,20.0948 c -0.9221,0.2994 -1.4268,1.2892 -1.1274,2.2113 0.2993,0.9222 1.2891,1.4268 2.2113,1.1275 z" clip-path="url(#1904107890222-clipPath1)" id="path214" ns1:connector-curvature="0" style="stroke:none" />
      <path d="m 400.4527,328.2338 61.8995,-20.0948 c 0.9222,-0.2994 1.4268,-1.2892 1.1274,-2.2114 -0.2993,-0.9221 -1.2891,-1.4268 -2.2113,-1.1274 l -61.8995,20.0948 c -0.9221,0.2994 -1.4268,1.2892 -1.1274,2.2113 0.2993,0.9222 1.2891,1.4268 2.2113,1.1275 z" clip-path="url(#1904107890899-clipPath1)" id="path216" ns1:connector-curvature="0" style="fill:#000000;stroke:none" />
    </g>
    <g id="g218" style="text-rendering:geometricPrecision;fill:#000000;stroke:none">
      <path d="m 475.3045,407.2276 c -0.5699,0.7843 -0.3963,1.8817 0.3881,2.4517 0.7843,0.5699 1.8816,0.3962 2.4516,-0.3881 l 28.8586,-39.7118 c 0.57,-0.7843 0.3963,-1.8817 -0.388,-2.4517 -0.7844,-0.5699 -1.8817,-0.3962 -2.4517,0.3881 z m 11.8322,8.5984 c -0.57,0.7844 -0.3963,1.8817 0.388,2.4517 0.7843,0.57 1.8817,0.3963 2.4516,-0.3881 l 36.1378,-49.7285 c 0.57,-0.7843 0.3963,-1.8817 -0.388,-2.4517 -0.7843,-0.5699 -1.8817,-0.3962 -2.4516,0.3881 z" clip-path="url(#1904107890222-clipPath1)" id="path220" ns1:connector-curvature="0" style="stroke:none" />
      <path d="m 475.3045,407.2276 c -0.5699,0.7843 -0.3963,1.8817 0.3881,2.4517 0.7843,0.5699 1.8816,0.3962 2.4516,-0.3881 l 28.8586,-39.7118 c 0.57,-0.7843 0.3963,-1.8817 -0.388,-2.4517 -0.7844,-0.5699 -1.8817,-0.3962 -2.4517,0.3881 z m 11.8322,8.5984 c -0.57,0.7844 -0.3963,1.8817 0.388,2.4517 0.7843,0.57 1.8817,0.3963 2.4516,-0.3881 l 36.1378,-49.7285 c 0.57,-0.7843 0.3963,-1.8817 -0.388,-2.4517 -0.7843,-0.5699 -1.8817,-0.3962 -2.4516,0.3881 z" clip-path="url(#1904107890855-clipPath1)" id="path222" ns1:connector-curvature="0" style="fill:#333399;stroke:none" />
    </g>
    <g id="g224" style="fill:#333399;stroke:none;text-rendering:geometricPrecision">
      <path d="m 399.3682,409.3325 61.8867,20.1144 c 0.922,0.2997 1.912,-0.2046 2.2117,-1.1267 0.2997,-0.922 -0.2047,-1.912 -1.1267,-2.2117 l -61.8866,-20.1144 c -0.9221,-0.2997 -1.912,0.2046 -2.2118,1.1267 -0.2996,0.922 0.2047,1.912 1.1267,2.2117 z" clip-path="url(#1904107890222-clipPath1)" id="path226" ns1:connector-curvature="0" style="stroke:none" />
      <path d="m 399.3682,409.3325 61.8867,20.1144 c 0.922,0.2997 1.912,-0.2046 2.2117,-1.1267 0.2997,-0.922 -0.2047,-1.912 -1.1267,-2.2117 l -61.8866,-20.1144 c -0.9221,-0.2997 -1.912,0.2046 -2.2118,1.1267 -0.2996,0.922 0.2047,1.912 1.1267,2.2117 z" clip-path="url(#1904107890607-clipPath1)" id="path228" ns1:connector-curvature="0" style="fill:#000000;stroke:none" />
    </g>
    <g id="g230" style="fill:#333399;stroke:none;text-rendering:geometricPrecision">
      <path d="M 260.335,81.777 205.0411,49.8531 c -0.8397,-0.4848 -1.9128,-0.1972 -2.3976,0.6424 -0.4848,0.8397 -0.1972,1.9128 0.6424,2.3976 l 55.294,31.924 c 0.8396,0.4847 1.9128,0.1972 2.3975,-0.6425 0.4848,-0.8396 0.1973,-1.9128 -0.6424,-2.3976 z" clip-path="url(#1904107890222-clipPath1)" id="path232" ns1:connector-curvature="0" style="stroke:none" />
      <path d="M 260.335,81.777 205.0411,49.8531 c -0.8397,-0.4848 -1.9128,-0.1972 -2.3976,0.6424 -0.4848,0.8397 -0.1972,1.9128 0.6424,2.3976 l 55.294,31.924 c 0.8396,0.4847 1.9128,0.1972 2.3975,-0.6425 0.4848,-0.8396 0.1973,-1.9128 -0.6424,-2.3976 z" clip-path="url(#190410789065-clipPath1)" id="path234" ns1:connector-curvature="0" style="fill:#000000;stroke:none" />
    </g>
    <g id="g236" style="fill:#333333;stroke:none;text-rendering:geometricPrecision">
      <path d="m 399.9108,326.5644 1.7455,0.1836 15.5372,-59.6017 -10.9097,-1.148 -10.9096,-1.148 2.7911,61.5304 z" clip-path="url(#1904107890222-clipPath1)" id="path238" ns1:connector-curvature="0" style="stroke:none" />
      <path d="m 399.9108,326.5644 1.7455,0.1836 15.5372,-59.6017 -10.9097,-1.148 -10.9096,-1.148 2.7911,61.5304 z" clip-path="url(#1904107890800-clipPath1)" id="path240" ns1:connector-curvature="0" style="fill:#000000;stroke:none" />
    </g>
    <g font-size="28px" transform="translate(233.0249,310.0644)" id="g242" style="font-size:28px;font-family:sans-serif;fill:#333399;stroke:none;text-rendering:geometricPrecision">
      <text x="0" xml:space="preserve" y="27" clip-path="url(#1904107890936-clipPath1)" id="text244" style="stroke:none">HN</text>
    </g>
    <g font-size="28px" transform="translate(319.1749,431.6981)" id="g246" style="font-size:28px;font-family:sans-serif;fill:#333399;stroke:none;text-rendering:geometricPrecision">
      <text x="0" xml:space="preserve" y="27" clip-path="url(#1904107890857-clipPath1)" id="text248" style="stroke:none">N</text>
    </g>
    <g font-size="28px" transform="translate(466.5167,416.2268)" id="g250" style="font-size:28px;font-family:sans-serif;fill:#333399;stroke:none;text-rendering:geometricPrecision">
      <text x="0" xml:space="preserve" y="27" clip-path="url(#1904107890230-clipPath1)" id="text252" style="stroke:none">N</text>
    </g>
    <g font-size="28px" transform="translate(466.5298,285.0263)" id="g254" style="font-size:28px;font-family:sans-serif;fill:#333399;stroke:none;text-rendering:geometricPrecision">
      <text x="0" xml:space="preserve" y="27" clip-path="url(#19041078904-clipPath1)" id="text256" style="stroke:none">NH</text>
    </g>
    <g font-size="28px" transform="translate(248.6528,147.8862)" id="g258" style="font-size:28px;font-family:sans-serif;fill:#ff0000;stroke:none;text-rendering:geometricPrecision">
      <text x="0" xml:space="preserve" y="27" clip-path="url(#1904107890784-clipPath1)" id="text260" style="stroke:none">O</text>
    </g>
    <g font-size="28px" transform="translate(150.2244,26.2525)" id="g262" style="font-size:28px;font-family:sans-serif;fill:#333399;stroke:none;text-rendering:geometricPrecision">
      <text x="0" xml:space="preserve" y="27" clip-path="url(#1904107890197-clipPath1)" id="text264" style="stroke:none">H</text>
    </g>
    <g font-size="22px" transform="translate(168.1463,41.3325)" id="g266" style="font-size:22px;font-family:sans-serif;fill:#333399;stroke:none;text-rendering:geometricPrecision">
      <text x="0" xml:space="preserve" y="21" clip-path="url(#1904107890159-clipPath1)" id="text268" style="stroke:none">2</text>
    </g>
    <g font-size="28px" transform="translate(178.7244,26.2525)" id="g270" style="font-size:28px;font-family:sans-serif;fill:#333399;stroke:none;text-rendering:geometricPrecision">
      <text x="0" xml:space="preserve" y="27" clip-path="url(#190410789085-clipPath1)" id="text272" style="stroke:none">N</text>
    </g>
    <g font-size="28px" transform="translate(318.878,26.2525)" id="g274" style="font-size:28px;font-family:sans-serif;fill:#ff0000;stroke:none;text-rendering:geometricPrecision">
      <text x="0" xml:space="preserve" y="27" clip-path="url(#1904107890932-clipPath1)" id="text276" style="stroke:none">O</text>
    </g>
    <g font-size="28px" transform="translate(162.8022,431.7122)" id="g278" style="font-size:28px;font-family:sans-serif;fill:#333399;stroke:none;text-rendering:geometricPrecision">
      <text x="0" xml:space="preserve" y="27" clip-path="url(#1904107890336-clipPath1)" id="text280" style="stroke:none">HN</text>
    </g>
    <g font-size="28px" transform="translate(595.2756,350.6362)" id="g282" style="font-size:28px;font-family:sans-serif;fill:#333399;stroke:none;text-rendering:geometricPrecision">
      <text x="0" xml:space="preserve" y="27" clip-path="url(#1904107890657-clipPath1)" id="text284" style="stroke:none">NH</text>
    </g>
    <g font-size="22px" transform="translate(634.1975,365.7161)" id="g286" style="font-size:22px;font-family:sans-serif;fill:#333399;stroke:none;text-rendering:geometricPrecision">
      <text x="0" xml:space="preserve" y="21" clip-path="url(#1904107890238-clipPath1)" id="text288" style="stroke:none">2</text>
    </g>
    <g font-size="28px" transform="translate(498.3828,470.5419)" id="g290" style="font-size:28px;font-family:sans-serif;fill:#ff0000;stroke:none;text-rendering:geometricPrecision">
      <text x="0" xml:space="preserve" y="27" clip-path="url(#1904107890578-clipPath1)" id="text292" style="stroke:none">OH</text>
    </g>
    <g font-size="28px" transform="translate(476.6486,540.2162)" id="g294" style="font-size:28px;font-family:sans-serif;fill:#ff0000;stroke:none;text-rendering:geometricPrecision">
      <text x="0" xml:space="preserve" y="27" clip-path="url(#1904107890439-clipPath1)" id="text296" style="stroke:none">OH</text>
    </g>
    <g font-size="28px" transform="translate(397.9356,229.4205)" id="g298" style="font-size:28px;font-family:sans-serif;fill:#333333;stroke:none;text-rendering:geometricPrecision">
      <text x="0" xml:space="preserve" y="27" clip-path="url(#190410789062-clipPath1)" id="text300" style="stroke:none">H</text>
    </g>
  </g>
</svg>