<?xml version='1.0' encoding='utf-8'?>
<svg xmlns="http://www.w3.org/2000/svg" xmlns:dc="http://purl.org/dc/elements/1.1/" xmlns:ns1="http://www.inkscape.org/namespaces/inkscape" xmlns:ns2="http://sodipodi.sourceforge.net/DTD/sodipodi-0.dtd" xmlns:ns4="http://creativecommons.org/ns#" xmlns:rdf="http://www.w3.org/1999/02/22-rdf-syntax-ns#" width="733.83282" stroke-miterlimit="10" font-weight="normal" height="501.05499" font-style="normal" font-size="12px" id="svg2" version="1.1" ns1:version="0.91 r13725" ns2:docname="Serotonin.svg" style="font-style:normal;font-weight:normal;font-size:12px;font-family:Dialog;color-interpolation:auto;fill:#f5d0fe;fill-opacity:1;stroke:none;stroke:none;stroke:none;stroke:none;stroke:none;stroke:none;stroke:none;stroke:none;color-rendering:auto;image-rendering:auto;shape-rendering:auto;text-rendering:auto">
  <metadata id="metadata125">
    <rdf:RDF>
      <ns4:Work rdf:about="">
        <dc:format>image/svg+xml</dc:format>
        <dc:type rdf:resource="http://purl.org/dc/dcmitype/StillImage" />
        <dc:title />
      </ns4:Work>
    </rdf:RDF>
  </metadata>
  <ns2:namedview pagecolor="#eef2ff" bordercolor="#666666" borderopacity="1" objecttolerance="10" gridtolerance="10" guidetolerance="10" ns1:pageopacity="0" ns1:pageshadow="2" ns1:window-width="1060" ns1:window-height="480" id="namedview123" showgrid="false" fit-margin-top="10" fit-margin-left="10" fit-margin-right="10" fit-margin-bottom="10" ns1:zoom="0.36375" ns1:cx="366.76004" ns1:cy="250.5275" ns1:window-x="0" ns1:window-y="0" ns1:window-maximized="0" ns1:current-layer="svg2" />
  
  <defs id="genericDefs" />
  <g id="g5" transform="translate(-33.239963,-49.4725)" style="fill:#f5d0fe;stroke:none">
    <defs id="1271943609321-defs1">
      <clipPath clipPathUnits="userSpaceOnUse" id="1271943609164-clipPath1">
        <path d="M 0,0 800,0 800,600 0,600 0,0 Z" id="path9" ns1:connector-curvature="0" style="stroke:none" />
      </clipPath>
      <clipPath clipPathUnits="userSpaceOnUse" id="1271943609938-clipPath1">
        <path d="m 593.3598,331.5435 c -25.9231,0 -46.9379,21.0147 -46.9379,46.9378 0,25.923 21.0148,46.9378 46.9379,46.9378 25.923,0 46.9378,-21.0148 46.9378,-46.9378 0,-25.9231 -21.0148,-46.9378 -46.9378,-46.9378 z" id="path12" ns1:connector-curvature="0" style="stroke:none" />
      </clipPath>
      <clipPath clipPathUnits="userSpaceOnUse" id="1271943609363-clipPath1">
        <path d="m 198.9611,375.87 c -23.5504,0 -42.6418,19.0913 -42.6418,42.6417 0,23.5504 19.0914,42.6417 42.6418,42.6417 23.5503,0 42.6417,-19.0913 42.6417,-42.6417 0,-23.5504 -19.0914,-42.6417 -42.6417,-42.6417 z" id="path15" ns1:connector-curvature="0" style="stroke:none" />
      </clipPath>
      <clipPath clipPathUnits="userSpaceOnUse" id="1271943609718-clipPath1">
        <path d="m 288.6105,471.0691 c -24.3404,0 -44.0722,19.7318 -44.0722,44.0722 0,24.3404 19.7318,44.0722 44.0722,44.0722 24.3404,0 44.0722,-19.7318 44.0722,-44.0722 0,-24.3404 -19.7318,-44.0722 -44.0722,-44.0722 z" id="path18" ns1:connector-curvature="0" style="stroke:none" />
      </clipPath>
      <clipPath clipPathUnits="userSpaceOnUse" id="1271943609735-clipPath1">
        <path d="m 125.4414,148.9264 c -23.885,0 -43.2476,19.3626 -43.2476,43.2476 0,23.8849 19.3626,43.2475 43.2476,43.2475 23.8849,0 43.2475,-19.3626 43.2475,-43.2475 0,-23.885 -19.3626,-43.2476 -43.2475,-43.2476 z" id="path21" ns1:connector-curvature="0" style="stroke:none" />
      </clipPath>
      <clipPath clipPathUnits="userSpaceOnUse" id="1271943609177-clipPath1">
        <path d="m -680.8072,-294.4904 800,0 0,600 -800,0 0,-600 z" id="path24" ns1:connector-curvature="0" style="stroke:none" />
      </clipPath>
      <clipPath clipPathUnits="userSpaceOnUse" id="1271943609141-clipPath1">
        <path d="m -736.8541,-315.2261 800,0 0,600 -800,0 0,-600 z" id="path27" ns1:connector-curvature="0" style="stroke:none" />
      </clipPath>
      <clipPath clipPathUnits="userSpaceOnUse" id="1271943609269-clipPath1">
        <path d="m -219.8113,-497.0529 800,0 0,600 -800,0 0,-600 z" id="path30" ns1:connector-curvature="0" style="stroke:none" />
      </clipPath>
      <clipPath clipPathUnits="userSpaceOnUse" id="1271943609809-clipPath1">
        <path d="m -48.4521,-54.5116 800,0 0,600 -800,0 0,-600 z" id="path33" ns1:connector-curvature="0" style="stroke:none" />
      </clipPath>
    </defs>
    <g id="g35" style="text-rendering:geometricPrecision;fill:#f5d0fe;stroke:none">
      <path d="m 388.5651,380.7116 103.0412,-59.4909 c 1.232,-0.7112 1.6539,-2.2859 0.9426,-3.5179 -0.7113,-1.232 -2.2859,-1.654 -3.518,-0.9427 L 385.9898,376.251 c -1.232,0.7113 -1.654,2.2859 -0.9427,3.518 0.7114,1.2319 2.286,1.6539 3.518,0.9426 z" clip-path="url(#1271943609164-clipPath1)" id="path37" ns1:connector-curvature="0" style="stroke:none" />
    </g>
    <g id="g39" style="text-rendering:geometricPrecision;fill:#f5d0fe;stroke:none">
      <path d="m 489.031,321.2207 103.0411,59.4909 c 1.232,0.7113 2.8067,0.2893 3.518,-0.9426 0.7113,-1.2321 0.2894,-2.8067 -0.9426,-3.518 L 491.6063,316.7601 c -1.232,-0.7113 -2.8067,-0.2893 -3.518,0.9427 -0.7113,1.232 -0.2893,2.8066 0.9427,3.5179 z" clip-path="url(#1271943609164-clipPath1)" id="path41" ns1:connector-curvature="0" style="stroke:none" />
    </g>
    <g id="g43" style="fill:#c4b5fd;stroke:none;text-rendering:geometricPrecision">
      <path d="m 594.6475,380.7116 81.2987,-46.9379 c 1.232,-0.7113 1.6539,-2.2859 0.9426,-3.5179 -0.7113,-1.232 -2.286,-1.654 -3.518,-0.9427 l -81.2987,46.9379 c -1.232,0.7113 -1.6539,2.2859 -0.9426,3.518 0.7113,1.2319 2.286,1.6539 3.518,0.9426 z" clip-path="url(#1271943609164-clipPath1)" id="path45" ns1:connector-curvature="0" style="stroke:none" />
      <path d="m 594.6475,380.7116 81.2987,-46.9379 c 1.232,-0.7113 1.6539,-2.2859 0.9426,-3.5179 -0.7113,-1.232 -2.286,-1.654 -3.518,-0.9427 l -81.2987,46.9379 c -1.232,0.7113 -1.6539,2.2859 -0.9426,3.518 0.7113,1.2319 2.286,1.6539 3.518,0.9426 z" clip-path="url(#1271943609938-clipPath1)" id="path47" ns1:connector-curvature="0" style="fill:#f5d0fe;stroke:none" />
    </g>
    <g id="g49" style="text-rendering:geometricPrecision;fill:#f5d0fe;stroke:none">
      <path d="m 280.4893,331.8208 c 0.9519,-1.0572 0.8666,-2.6851 -0.1905,-3.6371 -1.0572,-0.9519 -2.6852,-0.8667 -3.6371,0.1905 l -79.6144,88.4142 c -0.952,1.0572 -0.8667,2.6851 0.1905,3.6371 1.0571,0.9519 2.6851,0.8667 3.637,-0.1905 z m -25.9628,-3.2397 c 0.952,-1.0572 0.8667,-2.6852 -0.1904,-3.6371 -1.0572,-0.952 -2.6852,-0.8667 -3.6371,0.1905 l -59.585,66.1709 c -0.952,1.0571 -0.8667,2.6851 0.1905,3.6371 1.0571,0.9519 2.6851,0.8666 3.637,-0.1905 z" clip-path="url(#1271943609164-clipPath1)" id="path51" ns1:connector-curvature="0" style="stroke:none" />
    </g>
    <g id="g53" style="text-rendering:geometricPrecision;fill:#f5d0fe;stroke:none">
      <path d="m 388.3247,376.1285 -108.702,-48.3838 c -1.2997,-0.5785 -2.8215,0.006 -3.4,1.3056 -0.5785,1.2996 0.006,2.8215 1.3055,3.4 l 108.702,48.3838 c 1.2997,0.5785 2.8216,-0.006 3.4,-1.3056 0.5785,-1.2996 -0.006,-2.8215 -1.3055,-3.4 z" clip-path="url(#1271943609164-clipPath1)" id="path55" ns1:connector-curvature="0" style="stroke:none" />
    </g>
    <g id="g57" style="text-rendering:geometricPrecision;fill:#f5d0fe;stroke:none">
      <path d="m 389.8387,378.7507 c 0.1488,-1.4148 -0.877,-2.6818 -2.2918,-2.8306 -1.4148,-0.1489 -2.6818,0.8769 -2.8306,2.2917 l -12.4495,118.3306 c -0.1488,1.4148 0.877,2.6818 2.2918,2.8306 1.4148,0.1489 2.6818,-0.8769 2.8307,-2.2917 z m -23.2448,15.8261 c 0.1488,-1.4148 -0.877,-2.6818 -2.2918,-2.8307 -1.4148,-0.1488 -2.6818,0.8769 -2.8306,2.2917 l -8.6475,82.1932 c -0.1488,1.4148 0.877,2.6818 2.2918,2.8306 1.4147,0.1489 2.6818,-0.8769 2.8306,-2.2917 z" clip-path="url(#1271943609164-clipPath1)" id="path59" ns1:connector-curvature="0" style="stroke:none" />
    </g>
    <g id="g61" style="text-rendering:geometricPrecision;fill:#f5d0fe;stroke:none">
      <path d="m 222.1731,237.3216 c 1.3915,0.296 2.7588,-0.5917 3.0548,-1.9832 0.2959,-1.3915 -0.5918,-2.7588 -1.9833,-3.0547 l -87.0932,-18.5235 c -1.3914,-0.2959 -2.7588,0.5918 -3.0547,1.9833 -0.2959,1.3915 0.5918,2.7588 1.9832,3.0547 z m 19.1024,-17.8785 c 1.3915,0.2959 2.7588,-0.5918 3.0548,-1.9832 0.2959,-1.3915 -0.5918,-2.7589 -1.9833,-3.0548 L 125.9771,189.655 c -1.3915,-0.296 -2.7588,0.5917 -3.0547,1.9832 -0.296,1.3915 0.5917,2.7588 1.9832,3.0547 z" clip-path="url(#1271943609164-clipPath1)" id="path63" ns1:connector-curvature="0" style="stroke:none" />
    </g>
    <g id="g65" style="text-rendering:geometricPrecision;fill:#f5d0fe;stroke:none">
      <path d="m 123.5277,190.4505 -79.6254,88.4156 c -0.952,1.0571 -0.8668,2.6851 0.1903,3.6371 1.0571,0.952 2.6851,0.8668 3.6371,-0.1903 l 79.6253,-88.4155 c 0.9521,-1.0571 0.8669,-2.6851 -0.1902,-3.6371 -1.0571,-0.952 -2.6851,-0.8669 -3.6371,0.1902 z" clip-path="url(#1271943609164-clipPath1)" id="path67" ns1:connector-curvature="0" style="stroke:none" />
    </g>
    <g id="g69" style="text-rendering:geometricPrecision;fill:#f5d0fe;stroke:none">
      <path d="m 73.3005,287.3978 c -0.4395,-1.3531 -1.8919,-2.0933 -3.2449,-1.6538 -1.353,0.4395 -2.0933,1.892 -1.6538,3.245 l 27.5155,84.7069 c 0.4395,1.353 1.8919,2.0932 3.245,1.6537 1.353,-0.4395 2.0932,-1.892 1.6537,-3.245 z m -25.0351,-7.6039 c -0.4395,-1.353 -1.892,-2.0932 -3.245,-1.6537 -1.353,0.4395 -2.0932,1.8919 -1.6537,3.2449 l 36.7627,113.175 c 0.4395,1.353 1.892,2.0932 3.245,1.6537 1.353,-0.4395 2.0933,-1.892 1.6538,-3.245 z" clip-path="url(#1271943609164-clipPath1)" id="path71" ns1:connector-curvature="0" style="stroke:none" />
    </g>
    <g id="g73" style="text-rendering:geometricPrecision;fill:#f5d0fe;stroke:none">
      <path d="M 281.0248,329.3018 244.2606,216.1284 c -0.4395,-1.353 -1.892,-2.0932 -3.245,-1.6536 -1.353,0.4395 -2.0932,1.892 -1.6536,3.245 l 36.7641,113.1734 c 0.4395,1.353 1.892,2.0932 3.245,1.6536 1.353,-0.4395 2.0932,-1.892 1.6537,-3.245 z" clip-path="url(#1271943609164-clipPath1)" id="path75" ns1:connector-curvature="0" style="stroke:none" />
    </g>
    <g id="g77" style="text-rendering:geometricPrecision;fill:#f5d0fe;stroke:none">
      <path d="m 82.0432,396.2835 116.3822,24.7472 c 1.3915,0.2959 2.7588,-0.5919 3.0547,-1.9834 0.2959,-1.3914 -0.5919,-2.7587 -1.9834,-3.0546 L 83.1144,391.2455 c -1.3914,-0.2959 -2.7587,0.5918 -3.0546,1.9833 -0.2959,1.3915 0.5919,2.7588 1.9834,3.0547 z" clip-path="url(#1271943609164-clipPath1)" id="path79" ns1:connector-curvature="0" style="stroke:none" />
    </g>
    <g id="g81" style="fill:#c4b5fd;stroke:none;text-rendering:geometricPrecision">
      <path d="m 196.7308,419.7994 42.6417,73.8576 c 0.7113,1.232 2.286,1.654 3.518,0.9427 1.232,-0.7113 1.6539,-2.286 0.9426,-3.518 L 201.1914,417.224 c -0.7113,-1.232 -2.286,-1.6539 -3.518,-0.9426 -1.232,0.7113 -1.6539,2.286 -0.9426,3.518 z" clip-path="url(#1271943609164-clipPath1)" id="path83" ns1:connector-curvature="0" style="stroke:none" />
      <path d="m 196.7308,419.7994 42.6417,73.8576 c 0.7113,1.232 2.286,1.654 3.518,0.9427 1.232,-0.7113 1.6539,-2.286 0.9426,-3.518 L 201.1914,417.224 c -0.7113,-1.232 -2.286,-1.6539 -3.518,-0.9426 -1.232,0.7113 -1.6539,2.286 -0.9426,3.518 z" clip-path="url(#1271943609363-clipPath1)" id="path85" ns1:connector-curvature="0" style="fill:#f5d0fe;stroke:none" />
    </g>
    <g id="g87" style="text-rendering:geometricPrecision;fill:#f5d0fe;stroke:none">
      <path d="m 289.146,517.6603 86.2176,-18.3294 c 1.3915,-0.2958 2.2793,-1.6631 1.9835,-3.0546 -0.2959,-1.3915 -1.6631,-2.2793 -3.0546,-1.9835 l -86.2175,18.3295 c -1.3916,0.2958 -2.2794,1.663 -1.9836,3.0545 0.2959,1.3916 1.6631,2.2794 3.0546,1.9835 z" clip-path="url(#1271943609164-clipPath1)" id="path89" ns1:connector-curvature="0" style="stroke:none" />
      <path d="m 289.146,517.6603 86.2176,-18.3294 c 1.3915,-0.2958 2.2793,-1.6631 1.9835,-3.0546 -0.2959,-1.3915 -1.6631,-2.2793 -3.0546,-1.9835 l -86.2175,18.3295 c -1.3916,0.2958 -2.2794,1.663 -1.9836,3.0545 0.2959,1.3916 1.6631,2.2794 3.0546,1.9835 z" clip-path="url(#1271943609718-clipPath1)" id="path91" ns1:connector-curvature="0" style="fill:#c4b5fd;stroke:none" />
    </g>
    <g id="g93" style="fill:#fda4af;stroke:none;text-rendering:geometricPrecision">
      <path d="m 127.8907,191.3784 -26.7193,-82.2646 c -0.4395,-1.353 -1.8919,-2.0933 -3.245,-1.6538 -1.353,0.4394 -2.0932,1.8919 -1.6538,3.2449 l 26.7194,82.2646 c 0.4394,1.353 1.8919,2.0933 3.2449,1.6538 1.353,-0.4394 2.0933,-1.8919 1.6538,-3.2449 z" clip-path="url(#1271943609164-clipPath1)" id="path95" ns1:connector-curvature="0" style="stroke:none" />
      <path d="m 127.8907,191.3784 -26.7193,-82.2646 c -0.4395,-1.353 -1.8919,-2.0933 -3.245,-1.6538 -1.353,0.4394 -2.0932,1.8919 -1.6538,3.2449 l 26.7194,82.2646 c 0.4394,1.353 1.8919,2.0933 3.2449,1.6538 1.353,-0.4394 2.0933,-1.8919 1.6538,-3.2449 z" clip-path="url(#1271943609735-clipPath1)" id="path97" ns1:connector-curvature="0" style="fill:#f5d0fe;stroke:none" />
    </g>
    <g id="g99" style="fill:#eef2ff;stroke:none;text-rendering:geometricPrecision">
      </g>
    <g font-size="42px" transform="translate(680.8072,294.4904)" id="g103" style="font-size:42px;font-family:sans-serif;fill:#c4b5fd;stroke:none;text-rendering:geometricPrecision">
      <text x="0" xml:space="preserve" y="40" clip-path="url(#1271943609177-clipPath1)" id="text105" style="stroke:none">NH</text>
    </g>
    <g font-size="34px" transform="translate(736.8541,315.2261)" id="g107" style="font-size:34px;font-family:sans-serif;fill:#c4b5fd;stroke:none;text-rendering:geometricPrecision">
      <text x="0" xml:space="preserve" y="33" clip-path="url(#1271943609141-clipPath1)" id="text109" style="stroke:none">2</text>
    </g>
    <g font-size="34px" id="g111" style="font-size:34px;font-family:sans-serif;fill:#eef2ff;stroke:none;text-rendering:geometricPrecision">
      <text x="0" font-size="42px" y="40" transform="translate(219.8113,497.0529)" clip-path="url(#1271943609269-clipPath1)" xml:space="preserve" id="text115" style="font-size:42px;fill:#c4b5fd;stroke:none">HN</text>
    </g>
    <g font-size="42px" id="g117" style="font-size:42px;font-family:sans-serif;fill:#eef2ff;stroke:none;text-rendering:geometricPrecision">
      <text x="0" y="40" transform="translate(48.4521,54.5116)" clip-path="url(#1271943609809-clipPath1)" xml:space="preserve" id="text121" style="fill:#fda4af;stroke:none">HO</text>
    </g>
  </g>
</svg>