<?xml version='1.0' encoding='utf-8'?>
<svg xmlns="http://www.w3.org/2000/svg" xmlns:dc="http://purl.org/dc/elements/1.1/" xmlns:ns1="http://www.inkscape.org/namespaces/inkscape" xmlns:ns2="http://sodipodi.sourceforge.net/DTD/sodipodi-0.dtd" xmlns:ns4="http://creativecommons.org/ns#" xmlns:rdf="http://www.w3.org/1999/02/22-rdf-syntax-ns#" width="516.19843" stroke-miterlimit="10" font-weight="normal" height="321.51599" font-style="normal" font-size="12px" id="svg2" version="1.1" ns1:version="0.91 r13725" ns2:docname="Soman.svg" style="font-style:normal;font-weight:normal;font-size:12px;font-family:Dialog;color-interpolation:auto;fill:#000000;fill-opacity:1;stroke:none;stroke:none;stroke:none;stroke:none;stroke:none;stroke:none;stroke:none;stroke:none;color-rendering:auto;image-rendering:auto;shape-rendering:auto;text-rendering:auto">
  <metadata id="metadata101">
    <rdf:RDF>
      <ns4:Work rdf:about="">
        <dc:format>image/svg+xml</dc:format>
        <dc:type rdf:resource="http://purl.org/dc/dcmitype/StillImage" />
        <dc:title />
      </ns4:Work>
    </rdf:RDF>
  </metadata>
  <ns2:namedview pagecolor="#ffffff" bordercolor="#666666" borderopacity="1" objecttolerance="10" gridtolerance="10" guidetolerance="10" ns1:pageopacity="0" ns1:pageshadow="2" ns1:window-width="1920" ns1:window-height="1058" id="namedview99" showgrid="false" fit-margin-top="10" fit-margin-left="10" fit-margin-right="10" fit-margin-bottom="10" ns1:zoom="0.36375" ns1:cx="377.68683" ns1:cy="58.0098" ns1:window-x="-8" ns1:window-y="-8" ns1:window-maximized="1" ns1:current-layer="svg2" />
  
  <defs id="genericDefs" />
  <g id="g5" transform="translate(-141.9008,-36.493812)" style="fill:#000000;stroke:none">
    <defs id="967361222262-defs1">
      <clipPath clipPathUnits="userSpaceOnUse" id="967361222365-clipPath1">
        <path d="M 0,0 800,0 800,600 0,600 0,0 Z" id="path9" ns1:connector-curvature="0" style="stroke:none" />
      </clipPath>
      <clipPath clipPathUnits="userSpaceOnUse" id="967361222794-clipPath1">
        <path d="m 247.3811,121.3316 c -15.9784,0 -28.9315,12.9531 -28.9315,28.9315 0,15.9785 12.9531,28.9316 28.9315,28.9316 15.9785,0 28.9316,-12.9531 28.9316,-28.9316 0,-15.9784 -12.9531,-28.9315 -28.9316,-28.9315 z" id="path12" ns1:connector-curvature="0" style="stroke:none" />
      </clipPath>
      <clipPath clipPathUnits="userSpaceOnUse" id="967361222641-clipPath1">
        <path d="m 266.7429,157.0915 c -18.4996,0 -33.4966,14.997 -33.4966,33.4966 0,18.4997 14.997,33.4966 33.4966,33.4966 18.4997,0 33.4967,-14.9969 33.4967,-33.4966 0,-18.4996 -14.997,-33.4966 -33.4967,-33.4966 z" id="path15" ns1:connector-curvature="0" style="stroke:none" />
      </clipPath>
      <clipPath clipPathUnits="userSpaceOnUse" id="967361222881-clipPath1">
        <path d="m 372.8772,179.4096 c -24.8699,0 -45.0309,20.161 -45.0309,45.0309 0,24.8698 20.161,45.0308 45.0309,45.0308 24.8698,0 45.0309,-20.161 45.0309,-45.0308 0,-24.8699 -20.1611,-45.0309 -45.0309,-45.0309 z" id="path18" ns1:connector-curvature="0" style="stroke:none" />
      </clipPath>
      <clipPath clipPathUnits="userSpaceOnUse" id="967361222417-clipPath1">
        <path d="m 154.4443,190.5881 c -23.4603,0 -42.4786,19.0183 -42.4786,42.4786 0,23.4602 19.0183,42.4786 42.4786,42.4786 23.4602,0 42.4785,-19.0184 42.4785,-42.4786 0,-23.4603 -19.0183,-42.4786 -42.4785,-42.4786 z" id="path21" ns1:connector-curvature="0" style="stroke:none" />
      </clipPath>
      <clipPath clipPathUnits="userSpaceOnUse" id="967361222815-clipPath1">
        <path d="m -236.0999,-155.4096 800,0 0,600 -800,0 0,-600 z" id="path24" ns1:connector-curvature="0" style="stroke:none" />
      </clipPath>
      <clipPath clipPathUnits="userSpaceOnUse" id="967361222181-clipPath1">
        <path d="m -231.1936,-37.9235 800,0 0,600 -800,0 0,-600 z" id="path27" ns1:connector-curvature="0" style="stroke:none" />
      </clipPath>
      <clipPath clipPathUnits="userSpaceOnUse" id="967361222213-clipPath1">
        <path d="m -332.9395,-214.1526 800,0 0,600 -800,0 0,-600 z" id="path30" ns1:connector-curvature="0" style="stroke:none" />
      </clipPath>
      <clipPath clipPathUnits="userSpaceOnUse" id="967361222705-clipPath1">
        <path d="m -272.7097,-267.1455 799.9999,0 0,600 -799.9999,0 0,-600 z" id="path33" ns1:connector-curvature="0" style="stroke:none" />
      </clipPath>
    </defs>
    <g id="g35" style="fill:#ff0000;stroke:none;text-rendering:geometricPrecision">
      <path d="m 234.2424,150.2631 c 0,1.4047 1.1382,2.543 2.5429,2.543 1.4048,0 2.543,-1.1383 2.543,-2.543 l 0,-57.863 c 0,-1.4048 -1.1382,-2.543 -2.543,-2.543 -1.4047,0 -2.5429,1.1382 -2.5429,2.543 z m 21.1915,0 c 0,1.4047 1.1383,2.543 2.543,2.543 1.4047,0 2.543,-1.1383 2.543,-2.543 l 0,-57.863 c 0,-1.4048 -1.1383,-2.543 -2.543,-2.543 -1.4047,0 -2.543,1.1382 -2.543,2.543 z" clip-path="url(#967361222365-clipPath1)" id="path37" ns1:connector-curvature="0" style="stroke:none" />
      <path d="m 234.2424,150.2631 c 0,1.4047 1.1382,2.543 2.5429,2.543 1.4048,0 2.543,-1.1383 2.543,-2.543 l 0,-57.863 c 0,-1.4048 -1.1382,-2.543 -2.543,-2.543 -1.4047,0 -2.5429,1.1382 -2.5429,2.543 z m 21.1915,0 c 0,1.4047 1.1383,2.543 2.543,2.543 1.4047,0 2.543,-1.1383 2.543,-2.543 l 0,-57.863 c 0,-1.4048 -1.1383,-2.543 -2.543,-2.543 -1.4047,0 -2.543,1.1382 -2.543,2.543 z" clip-path="url(#967361222794-clipPath1)" id="path39" ns1:connector-curvature="0" style="fill:#996600;stroke:none" />
    </g>
    <g id="g41" style="fill:#ff0000;stroke:none;text-rendering:geometricPrecision">
      <path d="m 268.8601,188.6726 -0.8457,-0.2867 -1.2715,2.2022 -1.2714,2.2023 0.6711,0.589 0,0 2.7175,-4.7068 z m 15.9619,5.4119 -4.9114,-1.6652 -4.9979,8.6568 0,0 3.8977,3.4207 0,0 6.0116,-10.4123 z m 15.9618,5.412 -4.9113,-1.6652 0,0 -8.292,14.3622 0,0 3.8978,3.4207 0,0 9.3055,-16.1177 z m 15.9619,5.412 -4.9113,-1.6652 0,0 -11.586,20.0676 3.8977,3.4208 0,0 12.5996,-21.8232 z m 15.9619,5.4119 -4.9113,-1.6652 -14.8801,25.7732 0,0 3.8977,3.4207 7.9469,-13.7644 7.9468,-13.7643 z" clip-path="url(#967361222365-clipPath1)" id="path43" ns1:connector-curvature="0" style="stroke:none" />
      <path d="m 268.8601,188.6726 -0.8457,-0.2867 -1.2715,2.2022 -1.2714,2.2023 0.6711,0.589 0,0 2.7175,-4.7068 z m 15.9619,5.4119 -4.9114,-1.6652 -4.9979,8.6568 0,0 3.8977,3.4207 0,0 6.0116,-10.4123 z m 15.9618,5.412 -4.9113,-1.6652 0,0 -8.292,14.3622 0,0 3.8978,3.4207 0,0 9.3055,-16.1177 z m 15.9619,5.412 -4.9113,-1.6652 0,0 -11.586,20.0676 3.8977,3.4208 0,0 12.5996,-21.8232 z m 15.9619,5.4119 -4.9113,-1.6652 -14.8801,25.7732 0,0 3.8977,3.4207 7.9469,-13.7644 7.9468,-13.7643 z" clip-path="url(#967361222641-clipPath1)" id="path45" ns1:connector-curvature="0" style="fill:#996600;stroke:none" />
    </g>
    <g id="g47" style="text-rendering:geometricPrecision;fill:#000000;stroke:none">
      <path d="m 374.1487,226.6427 77.9957,-45.0309 c 1.2166,-0.7023 1.6332,-2.2572 0.9308,-3.4737 -0.7023,-1.2165 -2.2572,-1.6331 -3.4737,-0.9308 l -77.9958,45.0309 c -1.2165,0.7024 -1.6331,2.2572 -0.9308,3.4737 0.7024,1.2166 2.2572,1.6332 3.4738,0.9308 z" clip-path="url(#967361222365-clipPath1)" id="path49" ns1:connector-curvature="0" style="stroke:none" />
      <path d="m 374.1487,226.6427 77.9957,-45.0309 c 1.2166,-0.7023 1.6332,-2.2572 0.9308,-3.4737 -0.7023,-1.2165 -2.2572,-1.6331 -3.4737,-0.9308 l -77.9958,45.0309 c -1.2165,0.7024 -1.6331,2.2572 -0.9308,3.4737 0.7024,1.2166 2.2572,1.6332 3.4738,0.9308 z" clip-path="url(#967361222881-clipPath1)" id="path51" ns1:connector-curvature="0" style="fill:#ff0000;stroke:none" />
    </g>
    <g id="g53" style="fill:#996600;stroke:none;text-rendering:geometricPrecision">
      <path d="m 256.0121,205.9729 -2.4185,0.7858 6.4756,63.1336 15.1157,-4.9114 15.1158,-4.9114 -31.8702,-54.8825 z" clip-path="url(#967361222365-clipPath1)" id="path55" ns1:connector-curvature="0" style="stroke:none" />
    </g>
    <g id="g57" style="text-rendering:geometricPrecision;fill:#000000;stroke:none">
      <path d="m 449.6015,181.6118 101.7459,58.7431 c 1.2165,0.7024 2.7714,0.2857 3.4738,-0.9308 0.7023,-1.2165 0.2857,-2.7714 -0.9308,-3.4738 l -101.746,-58.743 c -1.2165,-0.7023 -2.7714,-0.2857 -3.4737,0.9308 -0.7024,1.2165 -0.2858,2.7714 0.9308,3.4737 z" clip-path="url(#967361222365-clipPath1)" id="path59" ns1:connector-curvature="0" style="stroke:none" />
    </g>
    <g id="g61" style="text-rendering:geometricPrecision;fill:#000000;stroke:none">
      <path d="m 453.4159,179.4096 0,-107.3142 c 0,-1.4047 -1.1382,-2.543 -2.5429,-2.543 -1.4048,0 -2.543,1.1383 -2.543,2.543 l 0,107.3142 c 0,1.4047 1.1382,2.5429 2.543,2.5429 1.4047,0 2.5429,-1.1382 2.5429,-2.5429 z" clip-path="url(#967361222365-clipPath1)" id="path63" ns1:connector-curvature="0" style="stroke:none" />
    </g>
    <g id="g65" style="text-rendering:geometricPrecision;fill:#000000;stroke:none">
      <path d="m 550.0759,238.1526 0,107.3142 c 0,1.4048 1.1383,2.543 2.543,2.543 1.4047,0 2.543,-1.1382 2.543,-2.543 l 0,-107.3142 c 0,-1.4047 -1.1383,-2.543 -2.543,-2.543 -1.4047,0 -2.543,1.1383 -2.543,2.543 z" clip-path="url(#967361222365-clipPath1)" id="path67" ns1:connector-curvature="0" style="stroke:none" />
    </g>
    <g id="g69" style="fill:#996600;stroke:none;text-rendering:geometricPrecision">
      <path d="m 155.7158,235.269 73.575,-42.4786 c 1.2165,-0.7024 1.6331,-2.2572 0.9308,-3.4737 -0.7024,-1.2166 -2.2573,-1.6332 -3.4738,-0.9308 l -73.575,42.4785 c -1.2165,0.7024 -1.6331,2.2572 -0.9308,3.4738 0.7024,1.2165 2.2572,1.6331 3.4738,0.9308 z" clip-path="url(#967361222365-clipPath1)" id="path71" ns1:connector-curvature="0" style="stroke:none" />
      <path d="m 155.7158,235.269 73.575,-42.4786 c 1.2165,-0.7024 1.6331,-2.2572 0.9308,-3.4737 -0.7024,-1.2166 -2.2573,-1.6332 -3.4738,-0.9308 l -73.575,42.4785 c -1.2165,0.7024 -1.6331,2.2572 -0.9308,3.4738 0.7024,1.2165 2.2572,1.6331 3.4738,0.9308 z" clip-path="url(#967361222417-clipPath1)" id="path73" ns1:connector-curvature="0" style="fill:#000000;stroke:none" />
    </g>
    <g id="g75" style="text-rendering:geometricPrecision;fill:#000000;stroke:none">
      <path d="m 551.3474,240.3549 92.9368,53.6571 c 1.2165,0.7024 2.7714,0.2857 3.4738,-0.9308 0.7023,-1.2165 0.2857,-2.7714 -0.9308,-3.4737 l -92.9368,-53.6572 c -1.2166,-0.7023 -2.7714,-0.2857 -3.4738,0.9308 -0.7024,1.2166 -0.2857,2.7714 0.9308,3.4738 z" clip-path="url(#967361222365-clipPath1)" id="path77" ns1:connector-curvature="0" style="stroke:none" />
    </g>
    <g id="g79" style="text-rendering:geometricPrecision;fill:#000000;stroke:none">
      <path d="m 553.8904,240.3549 92.9368,-53.6571 c 1.2165,-0.7024 1.6331,-2.2572 0.9308,-3.4738 -0.7024,-1.2165 -2.2573,-1.6331 -3.4738,-0.9308 l -92.9368,53.6571 c -1.2165,0.7024 -1.6332,2.2573 -0.9308,3.4738 0.7024,1.2165 2.2572,1.6332 3.4738,0.9308 z" clip-path="url(#967361222365-clipPath1)" id="path81" ns1:connector-curvature="0" style="stroke:none" />
    </g>
    <g font-size="41px" transform="translate(236.0999,155.4096)" id="g83" style="font-size:41px;font-family:sans-serif;fill:#996600;stroke:none;text-rendering:geometricPrecision">
      <text x="0" xml:space="preserve" y="39" clip-path="url(#967361222815-clipPath1)" id="text85" style="stroke:none">P</text>
    </g>
    <g font-size="41px" transform="translate(231.1936,37.9235)" id="g87" style="font-size:41px;font-family:sans-serif;fill:#ff0000;stroke:none;text-rendering:geometricPrecision">
      <text x="0" xml:space="preserve" y="39" clip-path="url(#967361222181-clipPath1)" id="text89" style="stroke:none">O</text>
    </g>
    <g font-size="41px" transform="translate(332.9395,214.1526)" id="g91" style="font-size:41px;font-family:sans-serif;fill:#ff0000;stroke:none;text-rendering:geometricPrecision">
      <text x="0" xml:space="preserve" y="39" clip-path="url(#967361222213-clipPath1)" id="text93" style="stroke:none">O</text>
    </g>
    <g font-size="41px" transform="translate(272.7097,267.1455)" id="g95" style="font-size:41px;font-family:sans-serif;fill:#996600;stroke:none;text-rendering:geometricPrecision">
      <text x="0" xml:space="preserve" y="39" clip-path="url(#967361222705-clipPath1)" id="text97" style="stroke:none">F</text>
    </g>
  </g>
</svg>