<?xml version='1.0' encoding='utf-8'?>
<svg xmlns="http://www.w3.org/2000/svg" xmlns:dc="http://purl.org/dc/elements/1.1/" xmlns:ns1="http://www.inkscape.org/namespaces/inkscape" xmlns:ns2="http://sodipodi.sourceforge.net/DTD/sodipodi-0.dtd" xmlns:ns4="http://creativecommons.org/ns#" xmlns:rdf="http://www.w3.org/1999/02/22-rdf-syntax-ns#" width="622.91028" stroke-miterlimit="10" font-weight="normal" height="317.95352" font-style="normal" font-size="12px" id="svg2" version="1.1" ns1:version="0.91 r13725" ns2:docname="TIK-301.svg" style="font-style:normal;font-weight:normal;font-size:12px;font-family:Dialog;color-interpolation:auto;fill:#f5d0fe;fill-opacity:1;stroke:none;stroke:none;stroke:none;stroke:none;stroke:none;stroke:none;stroke:none;stroke:none;color-rendering:auto;image-rendering:auto;shape-rendering:auto;text-rendering:auto">
  <metadata id="metadata187">
    <rdf:RDF>
      <ns4:Work rdf:about="">
        <dc:format>image/svg+xml</dc:format>
        <dc:type rdf:resource="http://purl.org/dc/dcmitype/StillImage" />
        <dc:title />
      </ns4:Work>
    </rdf:RDF>
  </metadata>
  <ns2:namedview pagecolor="#eef2ff" bordercolor="#666666" borderopacity="1" objecttolerance="10" gridtolerance="10" guidetolerance="10" ns1:pageopacity="0" ns1:pageshadow="2" ns1:window-width="1060" ns1:window-height="480" id="namedview185" showgrid="false" fit-margin-top="10" fit-margin-left="10" fit-margin-right="10" fit-margin-bottom="10" ns1:zoom="0.36375" ns1:cx="311.83704" ns1:cy="34.3646" ns1:window-x="0" ns1:window-y="0" ns1:window-maximized="0" ns1:current-layer="svg2" />
  
  <defs id="genericDefs" />
  <g id="g5" transform="translate(-88.162961,-16.411079)" style="fill:#f5d0fe;stroke:none">
    <defs id="573138747469-defs1">
      <clipPath clipPathUnits="userSpaceOnUse" id="573138747589-clipPath1">
        <path d="M 0,0 800,0 800,600 0,600 0,0 Z" id="path9" ns1:connector-curvature="0" style="stroke:none" />
      </clipPath>
      <clipPath clipPathUnits="userSpaceOnUse" id="573138747740-clipPath1">
        <path d="m 515.8002,196.4009 c -15.8333,0 -28.6687,12.8355 -28.6687,28.6688 0,15.8333 12.8354,28.6687 28.6687,28.6687 15.8333,0 28.6687,-12.8354 28.6687,-28.6687 0,-15.8333 -12.8354,-28.6688 -28.6687,-28.6688 z" id="path12" ns1:connector-curvature="0" style="stroke:none" />
      </clipPath>
      <clipPath clipPathUnits="userSpaceOnUse" id="573138747972-clipPath1">
        <path d="m 592.2484,167.7322 c -15.8333,0 -28.6687,12.8354 -28.6687,28.6687 0,15.8333 12.8354,28.6688 28.6687,28.6688 15.8333,0 28.6687,-12.8355 28.6687,-28.6688 0,-15.8333 -12.8354,-28.6687 -28.6687,-28.6687 z" id="path15" ns1:connector-curvature="0" style="stroke:none" />
      </clipPath>
      <clipPath clipPathUnits="userSpaceOnUse" id="573138747674-clipPath1">
        <path d="m 641.9041,197.8682 c -15.023,0 -27.2015,12.1785 -27.2015,27.2015 0,15.0229 12.1785,27.2014 27.2015,27.2014 15.023,0 27.2015,-12.1785 27.2015,-27.2014 0,-15.023 -12.1785,-27.2015 -27.2015,-27.2015 z" id="path18" ns1:connector-curvature="0" style="stroke:none" />
      </clipPath>
      <clipPath clipPathUnits="userSpaceOnUse" id="573138747905-clipPath1">
        <path d="m 229.4762,84.1665 c -14.8564,0 -26.8998,12.0434 -26.8998,26.8998 0,14.8564 12.0434,26.8999 26.8998,26.8999 14.8564,0 26.8999,-12.0435 26.8999,-26.8999 0,-14.8564 -12.0435,-26.8998 -26.8999,-26.8998 z" id="path21" ns1:connector-curvature="0" style="stroke:none" />
      </clipPath>
      <clipPath clipPathUnits="userSpaceOnUse" id="573138747797-clipPath1">
        <path d="m 180.7527,137.6241 c -15.2125,0 -27.5446,12.3321 -27.5446,27.5446 0,15.2125 12.3321,27.5446 27.5446,27.5446 15.2125,0 27.5446,-12.3321 27.5446,-27.5446 0,-15.2125 -12.3321,-27.5446 -27.5446,-27.5446 z" id="path24" ns1:connector-curvature="0" style="stroke:none" />
      </clipPath>
      <clipPath clipPathUnits="userSpaceOnUse" id="573138747336-clipPath1">
        <path d="m 274.4637,223.551 c -14.367,0 -26.0137,11.6467 -26.0137,26.0137 0,14.3669 11.6467,26.0136 26.0137,26.0136 14.3669,0 26.0136,-11.6467 26.0136,-26.0136 0,-14.367 -11.6467,-26.0137 -26.0136,-26.0137 z" id="path27" ns1:connector-curvature="0" style="stroke:none" />
      </clipPath>
      <clipPath clipPathUnits="userSpaceOnUse" id="57313874767-clipPath1">
        <path d="m 329.2742,281.7111 c -14.9074,0 -26.9922,12.0848 -26.9922,26.9921 0,14.9074 12.0848,26.9922 26.9922,26.9922 14.9073,0 26.9922,-12.0848 26.9922,-26.9922 0,-14.9073 -12.0849,-26.9921 -26.9922,-26.9921 z" id="path30" ns1:connector-curvature="0" style="stroke:none" />
      </clipPath>
      <clipPath clipPathUnits="userSpaceOnUse" id="573138747468-clipPath1">
        <path d="m 191.7109,13.1295 c -14.0519,0 -25.4432,11.3913 -25.4432,25.4432 0,14.0518 11.3913,25.4431 25.4432,25.4431 14.0518,0 25.4431,-11.3913 25.4431,-25.4431 0,-14.0519 -11.3913,-25.4432 -25.4431,-25.4432 z" id="path33" ns1:connector-curvature="0" style="stroke:none" />
      </clipPath>
      <clipPath clipPathUnits="userSpaceOnUse" id="57313874731-clipPath1">
        <path d="m -569.1735,-147.1644 800,0 0,600 -800,0 0,-600 z" id="path36" ns1:connector-curvature="0" style="stroke:none" />
      </clipPath>
      <clipPath clipPathUnits="userSpaceOnUse" id="573138747844-clipPath1">
        <path d="m -569.1725,-173.1666 800,0 0,600 -800,0 0,-600 z" id="path39" ns1:connector-curvature="0" style="stroke:none" />
      </clipPath>
      <clipPath clipPathUnits="userSpaceOnUse" id="573138747600-clipPath1">
        <path d="m -632.1228,-282.3757 800,0 0,600 -800,0 0,-600 z" id="path42" ns1:connector-curvature="0" style="stroke:none" />
      </clipPath>
      <clipPath clipPathUnits="userSpaceOnUse" id="573138747291-clipPath1">
        <path d="m -286.9214,-297.1166 800,0 0,600 -800,0 0,-600 z" id="path45" ns1:connector-curvature="0" style="stroke:none" />
      </clipPath>
      <clipPath clipPathUnits="userSpaceOnUse" id="573138747945-clipPath1">
        <path d="m -197.2043,-26.3211 800,0 0,599.9999 -800,0 0,-599.9999 z" id="path48" ns1:connector-curvature="0" style="stroke:none" />
      </clipPath>
      <clipPath clipPathUnits="userSpaceOnUse" id="573138747119-clipPath1">
        <path d="m -96.703,-134.5251 800,0 0,600 -800,0 0,-600 z" id="path51" ns1:connector-curvature="0" style="stroke:none" />
      </clipPath>
    </defs>
    <g id="g53" style="text-rendering:geometricPrecision;fill:#f5d0fe;stroke:none">
      <path d="m 451.9604,190.0314 63.0519,36.403 c 0.7539,0.4353 1.7174,0.1771 2.1527,-0.5768 0.4352,-0.7539 0.177,-1.7174 -0.5769,-2.1527 l -63.0519,-36.403 c -0.7539,-0.4353 -1.7174,-0.1771 -2.1527,0.5768 -0.4352,0.7539 -0.177,1.7174 0.5769,2.1527 z" clip-path="url(#573138747589-clipPath1)" id="path55" ns1:connector-curvature="0" style="stroke:none" />
    </g>
    <g id="g57" style="fill:#c4b5fd;stroke:none;text-rendering:geometricPrecision">
      <path d="m 516.5881,226.4344 49.6557,-28.6687 c 0.7539,-0.4353 1.0121,-1.3988 0.5769,-2.1527 -0.4353,-0.7539 -1.3989,-1.0121 -2.1527,-0.5768 l -49.6557,28.6687 c -0.7539,0.4353 -1.0121,1.3988 -0.5768,2.1527 0.4352,0.7539 1.3988,1.012 2.1526,0.5768 z" clip-path="url(#573138747589-clipPath1)" id="path59" ns1:connector-curvature="0" style="stroke:none" />
      <path d="m 516.5881,226.4344 49.6557,-28.6687 c 0.7539,-0.4353 1.0121,-1.3988 0.5769,-2.1527 -0.4353,-0.7539 -1.3989,-1.0121 -2.1527,-0.5768 l -49.6557,28.6687 c -0.7539,0.4353 -1.0121,1.3988 -0.5768,2.1527 0.4352,0.7539 1.3988,1.012 2.1526,0.5768 z" clip-path="url(#573138747740-clipPath1)" id="path61" ns1:connector-curvature="0" style="fill:#f5d0fe;stroke:none" />
    </g>
    <g id="g63" style="text-rendering:geometricPrecision;fill:#f5d0fe;stroke:none">
      <path d="m 591.4604,197.7657 49.6557,28.6687 c 0.7539,0.4352 1.7175,0.1771 2.1527,-0.5768 0.4353,-0.7539 0.1771,-1.7174 -0.5768,-2.1527 l -49.6557,-28.6687 c -0.7538,-0.4353 -1.7174,-0.1771 -2.1526,0.5768 -0.4353,0.7539 -0.1771,1.7174 0.5767,2.1527 z" clip-path="url(#573138747589-clipPath1)" id="path65" ns1:connector-curvature="0" style="stroke:none" />
      <path d="m 591.4604,197.7657 49.6557,28.6687 c 0.7539,0.4352 1.7175,0.1771 2.1527,-0.5768 0.4353,-0.7539 0.1771,-1.7174 -0.5768,-2.1527 l -49.6557,-28.6687 c -0.7538,-0.4353 -1.7174,-0.1771 -2.1526,0.5768 -0.4353,0.7539 -0.1771,1.7174 0.5767,2.1527 z" clip-path="url(#573138747972-clipPath1)" id="path67" ns1:connector-curvature="0" style="fill:#c4b5fd;stroke:none" />
    </g>
    <g id="g69" style="fill:#fda4af;stroke:none;text-rendering:geometricPrecision">
      <path d="m 650.0461,221.2787 c 0,-0.8705 -0.7053,-1.5759 -1.5758,-1.5759 -0.8705,0 -1.5759,0.7054 -1.5759,1.5759 l 0,58.1939 c 0,0.8705 0.7054,1.5759 1.5759,1.5759 0.8705,0 1.5758,-0.7054 1.5758,-1.5759 z m -13.1323,0 c 0,-0.8705 -0.7054,-1.5759 -1.5759,-1.5759 -0.8706,0 -1.5759,0.7054 -1.5759,1.5759 l 0,58.1939 c 0,0.8705 0.7053,1.5759 1.5759,1.5759 0.8705,0 1.5759,-0.7054 1.5759,-1.5759 z" clip-path="url(#573138747589-clipPath1)" id="path71" ns1:connector-curvature="0" style="stroke:none" />
      <path d="m 650.0461,221.2787 c 0,-0.8705 -0.7053,-1.5759 -1.5758,-1.5759 -0.8705,0 -1.5759,0.7054 -1.5759,1.5759 l 0,58.1939 c 0,0.8705 0.7054,1.5759 1.5759,1.5759 0.8705,0 1.5758,-0.7054 1.5758,-1.5759 z m -13.1323,0 c 0,-0.8705 -0.7054,-1.5759 -1.5759,-1.5759 -0.8706,0 -1.5759,0.7054 -1.5759,1.5759 l 0,58.1939 c 0,0.8705 0.7053,1.5759 1.5759,1.5759 0.8705,0 1.5759,-0.7054 1.5759,-1.5759 z" clip-path="url(#573138747674-clipPath1)" id="path73" ns1:connector-curvature="0" style="fill:#f5d0fe;stroke:none" />
    </g>
    <g id="g75" style="text-rendering:geometricPrecision;fill:#f5d0fe;stroke:none">
      <path d="m 390.4843,226.4344 63.052,-36.403 c 0.7538,-0.4353 1.012,-1.3988 0.5767,-2.1527 -0.4352,-0.7539 -1.3988,-1.0121 -2.1526,-0.5768 l -63.052,36.403 c -0.7538,0.4353 -1.012,1.3988 -0.5768,2.1527 0.4353,0.7539 1.3988,1.012 2.1527,0.5768 z" clip-path="url(#573138747589-clipPath1)" id="path77" ns1:connector-curvature="0" style="stroke:none" />
    </g>
    <g id="g79" style="text-rendering:geometricPrecision;fill:#f5d0fe;stroke:none">
      <path d="m 322.0095,194.4086 -48.7169,54.1016 c -0.5825,0.6468 -0.5303,1.643 0.1166,2.2255 0.6469,0.5825 1.643,0.5304 2.2255,-0.1165 l 48.7169,-54.1016 c 0.5825,-0.6468 0.5303,-1.643 -0.1166,-2.2255 -0.6468,-0.5825 -1.643,-0.5304 -2.2255,0.1165 z" clip-path="url(#573138747589-clipPath1)" id="path81" ns1:connector-curvature="0" style="stroke:none" />
    </g>
    <g id="g83" style="text-rendering:geometricPrecision;fill:#f5d0fe;stroke:none">
      <path d="m 390.3372,223.63 -66.5158,-29.6066 c -0.7953,-0.354 -1.7266,0.004 -2.0806,0.7989 -0.354,0.7953 0.004,1.7265 0.7989,2.0805 l 66.5159,29.6066 c 0.7952,0.3539 1.7265,-0.004 2.0805,-0.7989 0.354,-0.7953 -0.004,-1.7266 -0.7989,-2.0805 z" clip-path="url(#573138747589-clipPath1)" id="path85" ns1:connector-curvature="0" style="stroke:none" />
    </g>
    <g id="g87" style="text-rendering:geometricPrecision;fill:#f5d0fe;stroke:none">
      <path d="m 391.2636,225.2345 c 0.0911,-0.8657 -0.5366,-1.641 -1.4023,-1.7321 -0.8658,-0.0911 -1.6411,0.5366 -1.7321,1.4024 l -7.618,72.4076 c -0.0911,0.8658 0.5367,1.6411 1.4024,1.7322 0.8657,0.091 1.641,-0.5367 1.7321,-1.4024 z m -14.2237,9.6841 c 0.0911,-0.8657 -0.5366,-1.641 -1.4024,-1.7321 -0.8657,-0.0911 -1.641,0.5366 -1.7321,1.4024 l -5.2914,50.2948 c -0.0911,0.8657 0.5366,1.641 1.4023,1.7321 0.8657,0.0911 1.641,-0.5366 1.7321,-1.4024 z" clip-path="url(#573138747589-clipPath1)" id="path89" ns1:connector-curvature="0" style="stroke:none" />
    </g>
    <g id="g91" style="text-rendering:geometricPrecision;fill:#f5d0fe;stroke:none">
      <path d="m 301.012,124.6698 -71.2079,-15.1449 c -0.8515,-0.1811 -1.6882,0.3621 -1.8693,1.2136 -0.1811,0.8515 0.3621,1.6881 1.2136,1.8692 l 71.2079,15.1449 c 0.8515,0.1811 1.6882,-0.3621 1.8693,-1.2136 0.181,-0.8514 -0.3621,-1.6881 -1.2136,-1.8692 z" clip-path="url(#573138747589-clipPath1)" id="path93" ns1:connector-curvature="0" style="stroke:none" />
    </g>
    <g id="g95" style="text-rendering:geometricPrecision;fill:#f5d0fe;stroke:none">
      <path d="m 234.277,127.7143 c 0.5826,-0.6468 0.5305,-1.643 -0.1164,-2.2255 -0.6469,-0.5826 -1.643,-0.5305 -2.2256,0.1164 l -36.4663,40.492 c -0.5826,0.6469 -0.5305,1.643 0.1164,2.2256 0.6469,0.5825 1.643,0.5304 2.2256,-0.1164 z m -3.6298,-15.5934 c 0.5826,-0.6468 0.5305,-1.643 -0.1164,-2.2256 -0.6468,-0.5825 -1.643,-0.5304 -2.2256,0.1164 l -48.7235,54.1024 c -0.5826,0.6469 -0.5304,1.6431 0.1164,2.2256 0.6469,0.5825 1.643,0.5304 2.2256,-0.1164 z" clip-path="url(#573138747589-clipPath1)" id="path97" ns1:connector-curvature="0" style="stroke:none" />
    </g>
    <g id="g99" style="text-rendering:geometricPrecision;fill:#f5d0fe;stroke:none">
      <path d="m 179.2539,165.6555 22.4955,69.2529 c 0.269,0.828 1.1577,1.2809 1.9857,1.012 0.8279,-0.269 1.2808,-1.1578 1.0119,-1.9857 l -22.4955,-69.2529 c -0.269,-0.8279 -1.1577,-1.2808 -1.9857,-1.0119 -0.8279,0.2689 -1.2808,1.1577 -1.0119,1.9856 z" clip-path="url(#573138747589-clipPath1)" id="path101" ns1:connector-curvature="0" style="stroke:none" />
    </g>
    <g id="g103" style="text-rendering:geometricPrecision;fill:#f5d0fe;stroke:none">
      <path d="m 306.3625,191.2977 c 0.269,0.828 1.1578,1.2809 1.9857,1.0119 0.8279,-0.2689 1.2808,-1.1577 1.0119,-1.9856 l -16.8379,-51.833 c -0.2689,-0.8279 -1.1577,-1.2809 -1.9856,-1.0119 -0.8279,0.2689 -1.2809,1.1577 -1.0119,1.9856 z m 15.3193,4.6523 c 0.2689,0.8279 1.1577,1.2809 1.9856,1.0119 0.8279,-0.2689 1.2808,-1.1577 1.0119,-1.9856 l -22.4963,-69.252 c -0.269,-0.8279 -1.1578,-1.2808 -1.9857,-1.0119 -0.8279,0.269 -1.2809,1.1577 -1.0119,1.9857 z" clip-path="url(#573138747589-clipPath1)" id="path105" ns1:connector-curvature="0" style="stroke:none" />
    </g>
    <g id="g107" style="text-rendering:geometricPrecision;fill:#f5d0fe;stroke:none">
      <path d="m 215.265,221.9397 c -0.8515,-0.1811 -1.6882,0.3622 -1.8692,1.2136 -0.1811,0.8515 0.3622,1.6882 1.2136,1.8692 l 53.2999,11.3336 c 0.8515,0.181 1.6882,-0.3622 1.8692,-1.2137 0.1811,-0.8514 -0.3622,-1.6881 -1.2136,-1.8691 z m -11.689,10.9405 c -0.8515,-0.1811 -1.6882,0.3622 -1.8692,1.2136 -0.1811,0.8515 0.3622,1.6882 1.2136,1.8692 l 71.2155,15.1431 c 0.8515,0.181 1.6881,-0.3622 1.8692,-1.2137 0.1811,-0.8514 -0.3622,-1.6881 -1.2137,-1.8691 z" clip-path="url(#573138747589-clipPath1)" id="path109" ns1:connector-curvature="0" style="stroke:none" />
    </g>
    <g id="g111" style="fill:#fda4af;stroke:none;text-rendering:geometricPrecision">
      <path d="M 230.975,110.5795 214.3556,59.4111 c -0.2689,-0.8279 -1.1576,-1.2809 -1.9856,-1.012 -0.8279,0.2689 -1.2809,1.1577 -1.012,1.9856 l 16.6194,51.1684 c 0.2689,0.828 1.1577,1.2809 1.9856,1.012 0.828,-0.2689 1.2809,-1.1577 1.012,-1.9856 z" clip-path="url(#573138747589-clipPath1)" id="path113" ns1:connector-curvature="0" style="stroke:none" />
      <path d="M 230.975,110.5795 214.3556,59.4111 c -0.2689,-0.8279 -1.1576,-1.2809 -1.9856,-1.012 -0.8279,0.2689 -1.2809,1.1577 -1.012,1.9856 l 16.6194,51.1684 c 0.2689,0.828 1.1577,1.2809 1.9856,1.012 0.828,-0.2689 1.2809,-1.1577 1.012,-1.9856 z" clip-path="url(#573138747905-clipPath1)" id="path115" ns1:connector-curvature="0" style="fill:#f5d0fe;stroke:none" />
    </g>
    <g id="g117" style="fill:#6ee7b7;stroke:none;text-rendering:geometricPrecision">
      <path d="m 181.0805,163.6273 -53.8844,-11.4585 c -0.8515,-0.1811 -1.6882,0.3622 -1.8692,1.2136 -0.1811,0.8515 0.3621,1.6882 1.2136,1.8692 l 53.8844,11.4585 c 0.8515,0.1811 1.6881,-0.3622 1.8692,-1.2136 0.1811,-0.8515 -0.3622,-1.6882 -1.2136,-1.8692 z" clip-path="url(#573138747589-clipPath1)" id="path119" ns1:connector-curvature="0" style="stroke:none" />
      <path d="m 181.0805,163.6273 -53.8844,-11.4585 c -0.8515,-0.1811 -1.6882,0.3622 -1.8692,1.2136 -0.1811,0.8515 0.3621,1.6882 1.2136,1.8692 l 53.8844,11.4585 c 0.8515,0.1811 1.6881,-0.3622 1.8692,-1.2136 0.1811,-0.8515 -0.3622,-1.6882 -1.2136,-1.8692 z" clip-path="url(#573138747797-clipPath1)" id="path121" ns1:connector-curvature="0" style="fill:#f5d0fe;stroke:none" />
    </g>
    <g id="g123" style="fill:#c4b5fd;stroke:none;text-rendering:geometricPrecision">
      <path d="m 273.0989,250.3526 26.0137,45.0569 c 0.4352,0.7539 1.3988,1.0121 2.1527,0.5769 0.7538,-0.4353 1.012,-1.3988 0.5768,-2.1527 l -26.0137,-45.057 c -0.4352,-0.7538 -1.3988,-1.012 -2.1526,-0.5768 -0.7539,0.4353 -1.0121,1.3988 -0.5769,2.1527 z" clip-path="url(#573138747589-clipPath1)" id="path125" ns1:connector-curvature="0" style="stroke:none" />
      <path d="m 273.0989,250.3526 26.0137,45.0569 c 0.4352,0.7539 1.3988,1.0121 2.1527,0.5769 0.7538,-0.4353 1.012,-1.3988 0.5768,-2.1527 l -26.0137,-45.057 c -0.4352,-0.7538 -1.3988,-1.012 -2.1526,-0.5768 -0.7539,0.4353 -1.0121,1.3988 -0.5769,2.1527 z" clip-path="url(#573138747336-clipPath1)" id="path127" ns1:connector-curvature="0" style="fill:#f5d0fe;stroke:none" />
    </g>
    <g id="g129" style="text-rendering:geometricPrecision;fill:#f5d0fe;stroke:none">
      <path d="m 329.6019,310.2447 52.8043,-11.226 c 0.8514,-0.181 1.3947,-1.0176 1.2137,-1.8691 -0.181,-0.8514 -1.0177,-1.3947 -1.8691,-1.2137 l -52.8043,11.2259 c -0.8515,0.181 -1.3947,1.0177 -1.2137,1.8691 0.181,0.8515 1.0176,1.3948 1.8691,1.2138 z" clip-path="url(#573138747589-clipPath1)" id="path131" ns1:connector-curvature="0" style="stroke:none" />
      <path d="m 329.6019,310.2447 52.8043,-11.226 c 0.8514,-0.181 1.3947,-1.0176 1.2137,-1.8691 -0.181,-0.8514 -1.0177,-1.3947 -1.8691,-1.2137 l -52.8043,11.2259 c -0.8515,0.181 -1.3947,1.0177 -1.2137,1.8691 0.181,0.8515 1.0176,1.3948 1.8691,1.2138 z" clip-path="url(#57313874767-clipPath1)" id="path133" ns1:connector-curvature="0" style="fill:#c4b5fd;stroke:none" />
    </g>
    <g id="g135" style="text-rendering:geometricPrecision;fill:#f5d0fe;stroke:none">
      <path d="M 192.0387,37.0312 142.2655,26.4459 c -0.8514,-0.1811 -1.6881,0.3621 -1.8692,1.2136 -0.1811,0.8515 0.3621,1.6881 1.2136,1.8692 l 49.7732,10.5854 c 0.8514,0.181 1.6881,-0.3622 1.8692,-1.2136 0.1811,-0.8515 -0.3621,-1.6882 -1.2136,-1.8693 z" clip-path="url(#573138747589-clipPath1)" id="path137" ns1:connector-curvature="0" style="stroke:none" />
      <path d="M 192.0387,37.0312 142.2655,26.4459 c -0.8514,-0.1811 -1.6881,0.3621 -1.8692,1.2136 -0.1811,0.8515 0.3621,1.6881 1.2136,1.8692 l 49.7732,10.5854 c 0.8514,0.181 1.6881,-0.3622 1.8692,-1.2136 0.1811,-0.8515 -0.3621,-1.6882 -1.2136,-1.8693 z" clip-path="url(#573138747468-clipPath1)" id="path139" ns1:connector-curvature="0" style="fill:#fda4af;stroke:none" />
    </g>
    <g id="g141" style="text-rendering:geometricPrecision;fill:#f5d0fe;stroke:none">
      <path d="m 452.7483,188.6666 1.5759,0 8.2734,-66.5026 -9.8493,0 -9.8493,0 8.2734,66.5026 z" clip-path="url(#573138747589-clipPath1)" id="path143" ns1:connector-curvature="0" style="stroke:none" />
    </g>
    <g id="g145" style="text-rendering:geometricPrecision;fill:#f5d0fe;stroke:none">
      <path d="m 642.692,226.4344 57.593,-33.2513 c 0.7538,-0.4353 1.012,-1.3988 0.5768,-2.1527 -0.4353,-0.7539 -1.3988,-1.012 -2.1528,-0.5768 l -57.5929,33.2513 c -0.7539,0.4353 -1.012,1.3988 -0.5768,2.1527 0.4352,0.7539 1.3988,1.012 2.1527,0.5768 z" clip-path="url(#573138747589-clipPath1)" id="path147" ns1:connector-curvature="0" style="stroke:none" />
    </g>
    <g id="g149" style="fill:#eef2ff;stroke:none;text-rendering:geometricPrecision">
      </g>
    <g font-size="26px" transform="translate(569.1735,147.1644)" id="g153" style="font-size:26px;font-family:sans-serif;fill:#c4b5fd;stroke:none;text-rendering:geometricPrecision">
      <text x="0" xml:space="preserve" y="25" clip-path="url(#57313874731-clipPath1)" id="text155" style="stroke:none">H</text>
    </g>
    <g font-size="26px" transform="translate(569.1725,173.1666)" id="g157" style="font-size:26px;font-family:sans-serif;fill:#c4b5fd;stroke:none;text-rendering:geometricPrecision">
      <text x="0" xml:space="preserve" y="25" clip-path="url(#573138747844-clipPath1)" id="text159" style="stroke:none">N</text>
    </g>
    <g font-size="26px" id="g161" style="font-size:26px;font-family:sans-serif;fill:#eef2ff;stroke:none;text-rendering:geometricPrecision">
      <text x="0" y="25" transform="translate(632.1228,282.3757)" clip-path="url(#573138747600-clipPath1)" xml:space="preserve" id="text165" style="fill:#fda4af;stroke:none">O</text>
    </g>
    <g font-size="26px" id="g167" style="font-size:26px;font-family:sans-serif;fill:#eef2ff;stroke:none;text-rendering:geometricPrecision">
      <text x="0" y="25" transform="translate(286.9214,297.1166)" clip-path="url(#573138747291-clipPath1)" xml:space="preserve" id="text171" style="fill:#c4b5fd;stroke:none">HN</text>
    </g>
    <g font-size="26px" id="g173" style="font-size:26px;font-family:sans-serif;fill:#eef2ff;stroke:none;text-rendering:geometricPrecision">
      <text x="0" y="25" transform="translate(197.2043,26.3211)" clip-path="url(#573138747945-clipPath1)" xml:space="preserve" id="text177" style="fill:#fda4af;stroke:none">O</text>
    </g>
    <g font-size="26px" id="g179" style="font-size:26px;font-family:sans-serif;fill:#eef2ff;stroke:none;text-rendering:geometricPrecision">
      <text x="0" y="25" transform="translate(96.703,134.5251)" clip-path="url(#573138747119-clipPath1)" xml:space="preserve" id="text183" style="fill:#6ee7b7;stroke:none">Cl</text>
    </g>
  </g>
</svg>