<?xml version='1.0' encoding='utf-8'?>
<svg xmlns="http://www.w3.org/2000/svg" xmlns:dc="http://purl.org/dc/elements/1.1/" xmlns:ns1="http://www.inkscape.org/namespaces/inkscape" xmlns:ns2="http://sodipodi.sourceforge.net/DTD/sodipodi-0.dtd" xmlns:ns4="http://creativecommons.org/ns#" xmlns:rdf="http://www.w3.org/1999/02/22-rdf-syntax-ns#" width="228.09366" stroke-miterlimit="10" font-weight="normal" height="366.58902" font-style="normal" font-size="12px" id="svg2" version="1.1" ns1:version="0.91 r13725" ns2:docname="Toluene.svg" style="font-style:normal;font-weight:normal;font-size:12px;font-family:Dialog;color-interpolation:auto;fill:#f5d0fe;fill-opacity:1;stroke:none;stroke:none;stroke:none;stroke:none;stroke:none;stroke:none;stroke:none;stroke:none;color-rendering:auto;image-rendering:auto;shape-rendering:auto;text-rendering:auto">
  <metadata id="metadata41">
    <rdf:RDF>
      <ns4:Work rdf:about="">
        <dc:format>image/svg+xml</dc:format>
        <dc:type rdf:resource="http://purl.org/dc/dcmitype/StillImage" />
        <dc:title />
      </ns4:Work>
    </rdf:RDF>
  </metadata>
  <ns2:namedview pagecolor="#eef2ff" bordercolor="#666666" borderopacity="1" objecttolerance="10" gridtolerance="10" guidetolerance="10" ns1:pageopacity="0" ns1:pageshadow="2" ns1:window-width="1060" ns1:window-height="480" id="namedview39" showgrid="false" fit-margin-top="10" fit-margin-left="10" fit-margin-right="10" fit-margin-bottom="10" ns1:zoom="0.36375" ns1:cx="114.04683" ns1:cy="98.874809" ns1:window-x="0" ns1:window-y="0" ns1:window-maximized="0" ns1:current-layer="svg2" />
  
  <defs id="genericDefs" />
  <g id="g5" transform="translate(-285.95317,-32.2858)" style="fill:#f5d0fe;stroke:none">
    <defs id="1739253521467-defs1">
      <clipPath clipPathUnits="userSpaceOnUse" id="1739253521573-clipPath1">
        <path d="M 0,0 800,0 800,600 0,600 0,0 Z" id="path9" ns1:connector-curvature="0" style="stroke:none" />
      </clipPath>
    </defs>
    <g id="g11" style="text-rendering:geometricPrecision;fill:#f5d0fe;stroke:none">
      <path d="m 399.0651,179.7703 c 1.2137,-0.7008 1.6293,-2.2521 0.9285,-3.4658 -0.7008,-1.2137 -2.2521,-1.6293 -3.4658,-0.9285 l -75.9656,43.8631 c -1.2137,0.7008 -1.6293,2.2521 -0.9285,3.4658 0.7008,1.2137 2.2521,1.6293 3.4658,0.9285 z m 2.1964,-25.6825 c 1.2138,-0.7008 1.6293,-2.2522 0.9286,-3.4659 -0.7008,-1.2137 -2.2522,-1.6293 -3.4659,-0.9284 l -101.502,58.608 c -1.2137,0.7008 -1.6293,2.2521 -0.9285,3.4658 0.7007,1.2137 2.2521,1.6293 3.4658,0.9285 z" clip-path="url(#1739253521573-clipPath1)" id="path13" ns1:connector-curvature="0" style="stroke:none" />
    </g>
    <g id="g15" style="text-rendering:geometricPrecision;fill:#f5d0fe;stroke:none">
      <path d="m 295.9537,210.4987 0,117.2303 c 0,1.4015 1.1356,2.5372 2.5371,2.5372 1.4015,0 2.5371,-1.1357 2.5371,-2.5372 l 0,-117.2303 c 0,-1.4015 -1.1356,-2.5371 -2.5371,-2.5371 -1.4015,0 -2.5371,1.1356 -2.5371,2.5371 z" clip-path="url(#1739253521573-clipPath1)" id="path17" ns1:connector-curvature="0" style="stroke:none" />
    </g>
    <g id="g19" style="text-rendering:geometricPrecision;fill:#f5d0fe;stroke:none">
      <path d="m 323.0995,314.5943 c -1.2137,-0.7008 -2.765,-0.2852 -3.4658,0.9285 -0.7008,1.2137 -0.2852,2.765 0.9285,3.4658 l 75.9656,43.8632 c 1.2137,0.7008 2.765,0.2852 3.4658,-0.9286 0.7008,-1.2136 0.2852,-2.765 -0.9285,-3.4657 z m -23.34,10.9376 c -1.2137,-0.7008 -2.7651,-0.2852 -3.4659,0.9285 -0.7007,1.2137 -0.2851,2.765 0.9286,3.4658 l 101.502,58.6081 c 1.2137,0.7008 2.7651,0.2852 3.4658,-0.9285 0.7008,-1.2137 0.2853,-2.765 -0.9285,-3.4658 z" clip-path="url(#1739253521573-clipPath1)" id="path21" ns1:connector-curvature="0" style="stroke:none" />
    </g>
    <g id="g23" style="text-rendering:geometricPrecision;fill:#f5d0fe;stroke:none">
      <path d="m 401.2614,388.5344 101.5163,-58.6081 c 1.2138,-0.7007 1.6294,-2.252 0.9287,-3.4658 -0.7007,-1.2137 -2.252,-1.6294 -3.4657,-0.9287 l -101.5163,58.6081 c -1.2138,0.7007 -1.6295,2.252 -0.9287,3.4658 0.7007,1.2137 2.252,1.6294 3.4657,0.9287 z" clip-path="url(#1739253521573-clipPath1)" id="path25" ns1:connector-curvature="0" style="stroke:none" />
    </g>
    <g id="g27" style="text-rendering:geometricPrecision;fill:#f5d0fe;stroke:none">
      <path d="m 477.8292,312.9848 c 0,1.4015 1.1356,2.5371 2.5371,2.5371 1.4015,0 2.5371,-1.1356 2.5371,-2.5371 l 0,-87.7419 c 0,-1.4015 -1.1356,-2.5371 -2.5371,-2.5371 -1.4015,0 -2.5371,1.1356 -2.5371,2.5371 z m 21.1429,14.7442 c 0,1.4015 1.1356,2.5372 2.5371,2.5372 1.4015,0 2.5371,-1.1357 2.5371,-2.5372 l 0,-117.2303 c 0,-1.4015 -1.1356,-2.5372 -2.5371,-2.5372 -1.4015,0 -2.5371,1.1357 -2.5371,2.5372 z" clip-path="url(#1739253521573-clipPath1)" id="path29" ns1:connector-curvature="0" style="stroke:none" />
    </g>
    <g id="g31" style="text-rendering:geometricPrecision;fill:#f5d0fe;stroke:none">
      <path d="M 502.7777,208.3015 401.2614,149.6934 c -1.2137,-0.7008 -2.765,-0.2851 -3.4657,0.9287 -0.7008,1.2137 -0.2851,2.765 0.9287,3.4657 l 101.5163,58.6081 c 1.2137,0.7007 2.765,0.285 3.4657,-0.9287 0.7007,-1.2137 0.2851,-2.765 -0.9287,-3.4657 z" clip-path="url(#1739253521573-clipPath1)" id="path33" ns1:connector-curvature="0" style="stroke:none" />
    </g>
    <g id="g35" style="text-rendering:geometricPrecision;fill:#f5d0fe;stroke:none">
      <path d="M 402.53,151.8905 402.527,44.8229 c -10e-5,-1.4015 -1.1357,-2.5371 -2.5372,-2.5371 -1.4015,0 -2.5371,1.1357 -2.5371,2.5372 l 0.003,107.0677 c 0,1.4015 1.1357,2.5371 2.5372,2.537 1.4015,0 2.5371,-1.1357 2.537,-2.5372 z" clip-path="url(#1739253521573-clipPath1)" id="path37" ns1:connector-curvature="0" style="stroke:none" />
    </g>
  </g>
</svg>