<?xml version='1.0' encoding='utf-8'?>
<svg xmlns="http://www.w3.org/2000/svg" xmlns:dc="http://purl.org/dc/elements/1.1/" xmlns:ns1="http://www.inkscape.org/namespaces/inkscape" xmlns:ns2="http://sodipodi.sourceforge.net/DTD/sodipodi-0.dtd" xmlns:ns4="http://creativecommons.org/ns#" xmlns:rdf="http://www.w3.org/1999/02/22-rdf-syntax-ns#" width="763.03955" stroke-miterlimit="10" font-weight="normal" height="497.53421" font-style="normal" font-size="12px" id="svg2" version="1.1" ns1:version="0.91 r13725" ns2:docname="Tonazocine.svg" style="font-style:normal;font-weight:normal;font-size:12px;font-family:Dialog;color-interpolation:auto;fill:#f5d0fe;fill-opacity:1;stroke:none;stroke:none;stroke:none;stroke:none;stroke:none;stroke:none;stroke:none;stroke:none;color-rendering:auto;image-rendering:auto;shape-rendering:auto;text-rendering:auto">
  <metadata id="metadata182">
    <rdf:RDF>
      <ns4:Work rdf:about="">
        <dc:format>image/svg+xml</dc:format>
        <dc:type rdf:resource="http://purl.org/dc/dcmitype/StillImage" />
        <dc:title />
      </ns4:Work>
    </rdf:RDF>
  </metadata>
  <ns2:namedview pagecolor="#eef2ff" bordercolor="#666666" borderopacity="1" objecttolerance="10" gridtolerance="10" guidetolerance="10" ns1:pageopacity="0" ns1:pageshadow="2" ns1:window-width="1060" ns1:window-height="480" id="namedview180" showgrid="false" fit-margin-top="10" fit-margin-left="10" fit-margin-right="10" fit-margin-bottom="10" ns1:zoom="0.36375" ns1:cx="501.18643" ns1:cy="227.2233" ns1:window-x="0" ns1:window-y="0" ns1:window-maximized="0" ns1:current-layer="svg2" />
  
  <defs id="genericDefs" />
  <g id="g5" transform="translate(-18.4012,-29.6891)" style="fill:#f5d0fe;stroke:none">
    <defs id="848502445649-defs1">
      <clipPath clipPathUnits="userSpaceOnUse" id="848502445447-clipPath1">
        <path d="M 0,0 800,0 800,600 0,600 0,0 Z" id="path9" ns1:connector-curvature="0" style="stroke:none" />
      </clipPath>
      <clipPath clipPathUnits="userSpaceOnUse" id="848502445782-clipPath1">
        <path d="m 336,243 q 7,6 0,13 l -78,0 q -7,-7 0,-13 z M 0,0 0,600 800,600 800,0 Z" id="path12" ns1:connector-curvature="0" style="stroke:none" />
      </clipPath>
      <clipPath clipPathUnits="userSpaceOnUse" id="84850244548-clipPath1">
        <path d="m 325.9219,257.8419 c -17.1284,0 -31.0136,13.8852 -31.0136,31.0136 0,17.1283 13.8852,31.0136 31.0136,31.0136 17.1283,0 31.0136,-13.8853 31.0136,-31.0136 0,-17.1284 -13.8853,-31.0136 -31.0136,-31.0136 z" id="path15" ns1:connector-curvature="0" style="stroke:none" />
      </clipPath>
      <clipPath clipPathUnits="userSpaceOnUse" id="848502445947-clipPath1">
        <path d="m 382.8766,273.6091 c -21.6994,0 -39.2902,17.5908 -39.2902,39.2902 0,21.6993 17.5908,39.2901 39.2902,39.2901 21.6993,0 39.2901,-17.5908 39.2901,-39.2901 0,-21.6994 -17.5908,-39.2902 -39.2901,-39.2902 z" id="path18" ns1:connector-curvature="0" style="stroke:none" />
      </clipPath>
      <clipPath clipPathUnits="userSpaceOnUse" id="848502445528-clipPath1">
        <path d="m 121.4055,64.0357 c -15.4823,0 -28.0331,12.5508 -28.0331,28.0331 0,15.4822 12.5508,28.0331 28.0331,28.0331 15.4822,0 28.0331,-12.5509 28.0331,-28.0331 0,-15.4823 -12.5509,-28.0331 -28.0331,-28.0331 z" id="path21" ns1:connector-curvature="0" style="stroke:none" />
      </clipPath>
      <clipPath clipPathUnits="userSpaceOnUse" id="848502445690-clipPath1">
        <path d="m 408.8309,295.2007 c -15.5718,0 -28.1952,12.6234 -28.1952,28.1951 0,15.5718 12.6234,28.1952 28.1952,28.1952 15.5717,0 28.1951,-12.6234 28.1951,-28.1952 0,-15.5717 -12.6234,-28.1951 -28.1951,-28.1951 z" id="path24" ns1:connector-curvature="0" style="stroke:none" />
      </clipPath>
      <clipPath clipPathUnits="userSpaceOnUse" id="84850244593-clipPath1">
        <path d="m 440.0817,399.4671 c -16.2227,0 -29.3738,13.1511 -29.3738,29.3738 0,16.2227 13.1511,29.3738 29.3738,29.3738 16.2227,0 29.3739,-13.1511 29.3739,-29.3738 0,-16.2227 -13.1512,-29.3738 -29.3739,-29.3738 z" id="path27" ns1:connector-curvature="0" style="stroke:none" />
      </clipPath>
      <clipPath clipPathUnits="userSpaceOnUse" id="84850244584-clipPath1">
        <path d="m -383.355,-311.7152 800,0 0,600 -800,0 0,-600 z" id="path30" ns1:connector-curvature="0" style="stroke:none" />
      </clipPath>
      <clipPath clipPathUnits="userSpaceOnUse" id="848502445260-clipPath1">
        <path d="m -26.4012,-36.2106 800,0 0,600 -800,0 0,-600 z" id="path33" ns1:connector-curvature="0" style="stroke:none" />
      </clipPath>
      <clipPath clipPathUnits="userSpaceOnUse" id="848502445875-clipPath1">
        <path d="m -404.793,-487.2018 800,0 0,600 -800,0 0,-600 z" id="path36" ns1:connector-curvature="0" style="stroke:none" />
      </clipPath>
    </defs>
    <g id="g38" style="text-rendering:geometricPrecision;fill:#f5d0fe;stroke:none">
      <path d="m 190.197,191.4146 c -0.815,0.4706 -1.0942,1.5123 -0.6236,2.3274 0.4706,0.8151 1.5124,1.0942 2.3274,0.6236 l 51.0274,-29.4613 c 0.8151,-0.4706 1.0942,-1.5123 0.6236,-2.3274 -0.4705,-0.8151 -1.5123,-1.0942 -2.3273,-0.6236 z m -1.4755,17.2466 c -0.815,0.4706 -1.0942,1.5123 -0.6236,2.3274 0.4706,0.815 1.5124,1.0942 2.3274,0.6236 l 68.1768,-39.3627 c 0.815,-0.4706 1.0942,-1.5123 0.6236,-2.3274 -0.4706,-0.815 -1.5123,-1.0942 -2.3274,-0.6236 z" clip-path="url(#848502445447-clipPath1)" id="path40" ns1:connector-curvature="0" style="stroke:none" />
    </g>
    <g id="g42" style="text-rendering:geometricPrecision;fill:#f5d0fe;stroke:none">
      <path d="m 188.7269,290.3347 68.1727,39.346 c 0.8152,0.4705 1.8568,0.1912 2.3273,-0.624 0.4705,-0.8151 0.1912,-1.8568 -0.624,-2.3273 l -68.1726,-39.3459 c -0.8152,-0.4705 -1.8569,-0.1912 -2.3273,0.6239 -0.4705,0.8152 -0.1912,1.8569 0.6239,2.3273 z" clip-path="url(#848502445447-clipPath1)" id="path44" ns1:connector-curvature="0" style="stroke:none" />
    </g>
    <g id="g46" style="text-rendering:geometricPrecision;fill:#f5d0fe;stroke:none">
      <path d="m 258.603,329.6807 68.1706,-39.3496 c 0.8151,-0.4705 1.0944,-1.5123 0.6239,-2.3273 -0.4705,-0.8151 -1.5122,-1.0944 -2.3273,-0.6239 l -68.1707,39.3496 c -0.8151,0.4705 -1.0943,1.5122 -0.6238,2.3273 0.4705,0.8151 1.5122,1.0944 2.3273,0.6239 z" clip-path="url(#848502445447-clipPath1)" id="path48" ns1:connector-curvature="0" style="stroke:none" />
    </g>
    <g id="g50" style="text-rendering:geometricPrecision;fill:#f5d0fe;stroke:none">
      <path d="m 327.6256,288.8554 -0.002,-78.7241 c -1e-4,-0.9412 -0.7627,-1.7038 -1.7038,-1.7037 -0.9412,0 -1.7038,0.7626 -1.7038,1.7037 l 0.002,78.7242 c 0,0.9412 0.7627,1.7038 1.7038,1.7038 0.9412,-1e-4 1.7038,-0.7627 1.7037,-1.7039 z" clip-path="url(#848502445782-clipPath1)" id="path52" ns1:connector-curvature="0" style="stroke:none" />
    </g>
    <g id="g54" style="text-rendering:geometricPrecision;fill:#f5d0fe;stroke:none">
      <path d="m 187.8696,210.1368 0.005,78.7224 c 1e-4,0.9412 0.7627,1.7037 1.7039,1.7037 0.9412,-1e-4 1.7037,-0.7628 1.7036,-1.7039 l -0.005,-78.7224 c -1e-4,-0.9412 -0.7627,-1.7037 -1.7039,-1.7037 -0.9411,1e-4 -1.7037,0.7627 -1.7037,1.7039 z" clip-path="url(#848502445447-clipPath1)" id="path56" ns1:connector-curvature="0" style="stroke:none" />
    </g>
    <g id="g58" style="text-rendering:geometricPrecision;fill:#f5d0fe;stroke:none">
      <path d="m 256.8983,172.2495 68.1696,39.3573 c 0.8151,0.4706 1.8568,0.1914 2.3274,-0.6236 0.4706,-0.8151 0.1914,-1.8568 -0.6236,-2.3274 l -68.1696,-39.3573 c -0.8151,-0.4706 -1.8568,-0.1914 -2.3274,0.6236 -0.4706,0.8151 -0.1914,1.8568 0.6236,2.3274 z" clip-path="url(#848502445447-clipPath1)" id="path60" ns1:connector-curvature="0" style="stroke:none" />
    </g>
    <g id="g62" style="text-rendering:geometricPrecision;fill:#f5d0fe;stroke:none">
      <path d="m 189.5786,288.8591 0.852,1.4754 91.5562,-42.5438 -21.2933,0 -21.2933,0 -50.6737,39.593 z" clip-path="url(#848502445447-clipPath1)" id="path64" ns1:connector-curvature="0" style="stroke:none" />
    </g>
    <g id="g66" style="text-rendering:geometricPrecision;fill:#f5d0fe;stroke:none">
      <path d="m 257.7433,251.1982 78.7146,0 c 0.9411,0 1.7038,-0.7626 1.7038,-1.7038 0,-0.9411 -0.7627,-1.7037 -1.7038,-1.7037 l -78.7146,0 c -0.9412,0 -1.7038,0.7626 -1.7038,1.7037 0,0.9412 0.7626,1.7038 1.7038,1.7038 z" clip-path="url(#848502445447-clipPath1)" id="path68" ns1:connector-curvature="0" style="stroke:none" />
    </g>
    <g id="g70" style="fill:#c4b5fd;stroke:none;text-rendering:geometricPrecision">
      <path d="m 325.0699,290.331 53.7161,31.0154 c 0.815,0.4706 1.8568,0.1915 2.3274,-0.6235 0.4706,-0.815 0.1915,-1.8568 -0.6235,-2.3274 L 326.7738,287.38 c -0.815,-0.4706 -1.8568,-0.1915 -2.3274,0.6236 -0.4706,0.815 -0.1915,1.8568 0.6235,2.3274 z" clip-path="url(#848502445447-clipPath1)" id="path72" ns1:connector-curvature="0" style="stroke:none" />
      <path d="m 325.0699,290.331 53.7161,31.0154 c 0.815,0.4706 1.8568,0.1915 2.3274,-0.6235 0.4706,-0.815 0.1915,-1.8568 -0.6235,-2.3274 L 326.7738,287.38 c -0.815,-0.4706 -1.8568,-0.1915 -2.3274,0.6236 -0.4706,0.815 -0.1915,1.8568 0.6235,2.3274 z" clip-path="url(#84850244548-clipPath1)" id="path74" ns1:connector-curvature="0" style="fill:#f5d0fe;stroke:none" />
    </g>
    <g id="g76" style="text-rendering:geometricPrecision;fill:#f5d0fe;stroke:none">
      <path d="m 382.8766,312.8993 1.3747,-1.0065 -35.8434,-64.1021 -13.1973,0 -13.1974,0 59.4887,66.115 z" clip-path="url(#848502445447-clipPath1)" id="path78" ns1:connector-curvature="0" style="stroke:none" />
      <path d="m 382.8766,312.8993 1.3747,-1.0065 -35.8434,-64.1021 -13.1973,0 -13.1974,0 59.4887,66.115 z" clip-path="url(#848502445947-clipPath1)" id="path80" ns1:connector-curvature="0" style="fill:#c4b5fd;stroke:none" />
    </g>
    <g id="g82" style="text-rendering:geometricPrecision;fill:#f5d0fe;stroke:none">
      <path d="m 259.454,170.774 -0.002,-78.7171 c 0,-0.9411 -0.7627,-1.7037 -1.7038,-1.7037 -0.9412,0 -1.7038,0.7627 -1.7037,1.7038 l 0.002,78.717 c 1e-4,0.9412 0.7627,1.7038 1.7038,1.7038 0.9412,-1e-4 1.7038,-0.7627 1.7038,-1.7038 z" clip-path="url(#848502445447-clipPath1)" id="path84" ns1:connector-curvature="0" style="stroke:none" />
    </g>
    <g id="g86" style="text-rendering:geometricPrecision;fill:#f5d0fe;stroke:none">
      <path d="m 241.2228,100.8786 c 0.8151,0.4706 1.8569,0.1914 2.3274,-0.6237 0.4705,-0.8151 0.1913,-1.8568 -0.6237,-2.3274 L 191.9101,68.4768 c -0.815,-0.4706 -1.8568,-0.1914 -2.3273,0.6237 -0.4705,0.8151 -0.1914,1.8568 0.6237,2.3274 z m 15.6735,-7.3461 c 0.8151,0.4705 1.8568,0.1913 2.3274,-0.6237 0.4705,-0.8151 0.1913,-1.8569 -0.6238,-2.3274 L 190.4341,51.2306 c -0.8151,-0.4706 -1.8568,-0.1914 -2.3273,0.6237 -0.4706,0.8151 -0.1914,1.8568 0.6237,2.3273 z" clip-path="url(#848502445447-clipPath1)" id="path88" ns1:connector-curvature="0" style="stroke:none" />
    </g>
    <g id="g90" style="text-rendering:geometricPrecision;fill:#f5d0fe;stroke:none">
      <path d="m 188.7304,51.2306 -68.1768,39.3627 c -0.8151,0.4706 -1.0942,1.5123 -0.6236,2.3274 0.4706,0.815 1.5123,1.0942 2.3274,0.6236 l 68.1768,-39.3627 c 0.815,-0.4706 1.0942,-1.5123 0.6236,-2.3274 -0.4706,-0.815 -1.5123,-1.0942 -2.3274,-0.6236 z" clip-path="url(#848502445447-clipPath1)" id="path92" ns1:connector-curvature="0" style="stroke:none" />
    </g>
    <g id="g94" style="text-rendering:geometricPrecision;fill:#f5d0fe;stroke:none">
      <path d="m 137.3071,101.97 c 0,-0.9412 -0.7626,-1.7038 -1.7037,-1.7038 -0.9412,-1e-4 -1.7038,0.7625 -1.7038,1.7037 l -0.002,58.9068 c 0,0.9411 0.7626,1.7038 1.7037,1.7038 0.9412,0 1.7038,-0.7626 1.7039,-1.7037 z m -14.1978,-9.9012 c 0,-0.9411 -0.7626,-1.7037 -1.7037,-1.7038 -0.9412,0 -1.7038,0.7626 -1.7039,1.7037 l -0.003,78.7088 c 0,0.9412 0.7626,1.7038 1.7037,1.7038 0.9412,1e-4 1.7038,-0.7625 1.7039,-1.7037 z" clip-path="url(#848502445447-clipPath1)" id="path96" ns1:connector-curvature="0" style="stroke:none" />
    </g>
    <g id="g98" style="text-rendering:geometricPrecision;fill:#f5d0fe;stroke:none">
      <path d="m 120.5509,172.2531 68.1706,39.3591 c 0.8151,0.4706 1.8568,0.1914 2.3274,-0.6236 0.4706,-0.8151 0.1915,-1.8568 -0.6236,-2.3274 l -68.1706,-39.3591 c -0.8151,-0.4706 -1.8568,-0.1915 -2.3274,0.6236 -0.4706,0.815 -0.1914,1.8568 0.6236,2.3274 z" clip-path="url(#848502445447-clipPath1)" id="path100" ns1:connector-curvature="0" style="stroke:none" />
    </g>
    <g id="g102" style="fill:#fda4af;stroke:none;text-rendering:geometricPrecision">
      <path d="M 122.2574,90.5933 73.703,62.5596 c -0.815,-0.4706 -1.8568,-0.1915 -2.3274,0.6236 -0.4705,0.815 -0.1914,1.8568 0.6236,2.3274 l 48.5544,28.0337 c 0.815,0.4706 1.8568,0.1914 2.3274,-0.6236 0.4706,-0.8151 0.1914,-1.8568 -0.6236,-2.3274 z" clip-path="url(#848502445447-clipPath1)" id="path104" ns1:connector-curvature="0" style="stroke:none" />
      <path d="M 122.2574,90.5933 73.703,62.5596 c -0.815,-0.4706 -1.8568,-0.1915 -2.3274,0.6236 -0.4705,0.815 -0.1914,1.8568 0.6236,2.3274 l 48.5544,28.0337 c 0.815,0.4706 1.8568,0.1914 2.3274,-0.6236 0.4706,-0.8151 0.1914,-1.8568 -0.6236,-2.3274 z" clip-path="url(#848502445528-clipPath1)" id="path106" ns1:connector-curvature="0" style="fill:#f5d0fe;stroke:none" />
    </g>
    <g id="g108" style="text-rendering:geometricPrecision;fill:#f5d0fe;stroke:none">
      <path d="m 256.4272,327.1329 -45.2451,55.8788 c -0.5923,0.7314 -0.4795,1.804 0.252,2.3963 0.7314,0.5922 1.804,0.4794 2.3962,-0.252 l 45.2451,-55.8788 c 0.5923,-0.7314 0.4795,-1.804 -0.252,-2.3962 -0.7314,-0.5923 -1.804,-0.4795 -2.3962,0.2519 z" clip-path="url(#848502445447-clipPath1)" id="path110" ns1:connector-curvature="0" style="stroke:none" />
    </g>
    <g id="g112" style="text-rendering:geometricPrecision;fill:#f5d0fe;stroke:none">
      <path d="m 188.7265,287.3837 -62.263,35.9564 c -0.815,0.4707 -1.094,1.5125 -0.6233,2.3275 0.4706,0.815 1.5124,1.094 2.3274,0.6234 l 62.263,-35.9565 c 0.815,-0.4707 1.0941,-1.5124 0.6234,-2.3275 -0.4707,-0.815 -1.5125,-1.094 -2.3275,-0.6233 z" clip-path="url(#848502445447-clipPath1)" id="path114" ns1:connector-curvature="0" style="stroke:none" />
    </g>
    <g id="g116" style="text-rendering:geometricPrecision;fill:#f5d0fe;stroke:none">
      <path d="m 409.3603,325.0152 53.5987,-17.5228 c 0.8945,-0.2924 1.3824,-1.2543 1.09,-2.1489 -0.2925,-0.8945 -1.2543,-1.3824 -2.1489,-1.0899 l -53.5986,17.5228 c -0.8946,0.2924 -1.3825,1.2543 -1.09,2.1488 0.2924,0.8946 1.2542,1.3825 2.1488,1.09 z" clip-path="url(#848502445447-clipPath1)" id="path118" ns1:connector-curvature="0" style="stroke:none" />
      <path d="m 409.3603,325.0152 53.5987,-17.5228 c 0.8945,-0.2924 1.3824,-1.2543 1.09,-2.1489 -0.2925,-0.8945 -1.2543,-1.3824 -2.1489,-1.0899 l -53.5986,17.5228 c -0.8946,0.2924 -1.3825,1.2543 -1.09,2.1488 0.2924,0.8946 1.2542,1.3825 2.1488,1.09 z" clip-path="url(#848502445690-clipPath1)" id="path120" ns1:connector-curvature="0" style="fill:#c4b5fd;stroke:none" />
    </g>
    <g id="g122" style="text-rendering:geometricPrecision;fill:#f5d0fe;stroke:none">
      <path d="m 256.4851,329.3451 52.6675,58.4989 c 0.6297,0.6994 1.7068,0.7559 2.4062,0.1262 0.6995,-0.6297 0.756,-1.7067 0.1262,-2.4062 l -52.6675,-58.4989 c -0.6297,-0.6994 -1.7068,-0.756 -2.4062,-0.1262 -0.6995,0.6297 -0.7559,1.7067 -0.1262,2.4062 z" clip-path="url(#848502445447-clipPath1)" id="path124" ns1:connector-curvature="0" style="stroke:none" />
    </g>
    <g id="g126" style="text-rendering:geometricPrecision;fill:#f5d0fe;stroke:none">
      <path d="m 310.773,388.3705 76.9953,-16.362 c 0.9206,-0.1956 1.508,-1.1001 1.3124,-2.0206 -0.1956,-0.9206 -1.1001,-1.5081 -2.0207,-1.3125 l -76.9953,16.362 c -0.9206,0.1957 -1.508,1.1001 -1.3124,2.0207 0.1956,0.9206 1.1001,1.5081 2.0207,1.3124 z" clip-path="url(#848502445447-clipPath1)" id="path128" ns1:connector-curvature="0" style="stroke:none" />
    </g>
    <g id="g130" style="text-rendering:geometricPrecision;fill:#f5d0fe;stroke:none">
      <path d="m 386.148,371.482 52.6675,58.4989 c 0.6298,0.6994 1.7068,0.7559 2.4062,0.1262 0.6994,-0.6297 0.7559,-1.7067 0.1262,-2.4062 L 388.6804,369.202 c -0.6297,-0.6994 -1.7068,-0.7559 -2.4062,-0.1262 -0.6995,0.6297 -0.756,1.7067 -0.1262,2.4062 z" clip-path="url(#848502445447-clipPath1)" id="path132" ns1:connector-curvature="0" style="stroke:none" />
    </g>
    <g id="g134" style="text-rendering:geometricPrecision;fill:#f5d0fe;stroke:none">
      <path d="m 440.4359,430.5074 76.9953,-16.362 c 0.9206,-0.1956 1.5081,-1.1001 1.3124,-2.0206 -0.1956,-0.9206 -1.1001,-1.5081 -2.0207,-1.3124 l -76.9953,16.3619 c -0.9206,0.1957 -1.5081,1.1002 -1.3124,2.0208 0.1956,0.9206 1.1001,1.508 2.0207,1.3123 z" clip-path="url(#848502445447-clipPath1)" id="path136" ns1:connector-curvature="0" style="stroke:none" />
    </g>
    <g id="g138" style="fill:#fda4af;stroke:none;text-rendering:geometricPrecision">
      <path d="m 449.7203,427.6635 c 0.2909,-0.895 -0.1987,-1.856 -1.0937,-2.1469 -0.8951,-0.2909 -1.8561,0.1987 -2.147,1.0938 l -19.4234,59.7695 c -0.2909,0.895 0.1987,1.856 1.0938,2.1469 0.895,0.2909 1.856,-0.1987 2.1469,-1.0938 z m -13.503,-4.3881 c 0.2909,-0.8951 -0.1987,-1.856 -1.0938,-2.1469 -0.895,-0.2909 -1.856,0.1987 -2.1469,1.0938 l -19.4234,59.7695 c -0.2909,0.895 0.1987,1.856 1.0937,2.1469 0.8951,0.2908 1.8561,-0.1987 2.147,-1.0938 z" clip-path="url(#848502445447-clipPath1)" id="path140" ns1:connector-curvature="0" style="stroke:none" />
      <path d="m 449.7203,427.6635 c 0.2909,-0.895 -0.1987,-1.856 -1.0937,-2.1469 -0.8951,-0.2909 -1.8561,0.1987 -2.147,1.0938 l -19.4234,59.7695 c -0.2909,0.895 0.1987,1.856 1.0938,2.1469 0.895,0.2909 1.856,-0.1987 2.1469,-1.0938 z m -13.503,-4.3881 c 0.2909,-0.8951 -0.1987,-1.856 -1.0938,-2.1469 -0.895,-0.2909 -1.856,0.1987 -2.1469,1.0938 l -19.4234,59.7695 c -0.2909,0.895 0.1987,1.856 1.0937,2.1469 0.8951,0.2908 1.8561,-0.1987 2.147,-1.0938 z" clip-path="url(#84850244593-clipPath1)" id="path142" ns1:connector-curvature="0" style="fill:#f5d0fe;stroke:none" />
    </g>
    <g id="g144" style="text-rendering:geometricPrecision;fill:#f5d0fe;stroke:none">
      <path d="m 515.8109,413.6189 52.6676,58.4989 c 0.6297,0.6994 1.7067,0.7559 2.4061,0.1262 0.6994,-0.6297 0.756,-1.7067 0.1262,-2.4061 l -52.6675,-58.499 c -0.6297,-0.6994 -1.7068,-0.7559 -2.4062,-0.1262 -0.6995,0.6297 -0.7559,1.7068 -0.1262,2.4062 z" clip-path="url(#848502445447-clipPath1)" id="path146" ns1:connector-curvature="0" style="stroke:none" />
    </g>
    <g id="g148" style="text-rendering:geometricPrecision;fill:#f5d0fe;stroke:none">
      <path d="m 570.0988,472.6444 76.9953,-16.362 c 0.9206,-0.1956 1.508,-1.1001 1.3124,-2.0207 -0.1956,-0.9206 -1.1001,-1.508 -2.0207,-1.3124 l -76.9954,16.362 c -0.9206,0.1956 -1.508,1.1001 -1.3123,2.0207 0.1956,0.9206 1.1001,1.508 2.0207,1.3124 z" clip-path="url(#848502445447-clipPath1)" id="path150" ns1:connector-curvature="0" style="stroke:none" />
    </g>
    <g id="g152" style="text-rendering:geometricPrecision;fill:#f5d0fe;stroke:none">
      <path d="m 645.4738,455.7558 52.6675,58.4989 c 0.6298,0.6995 1.7067,0.756 2.4062,0.1262 0.6994,-0.6297 0.7559,-1.7067 0.1262,-2.4061 l -52.6675,-58.4989 c -0.6298,-0.6995 -1.7068,-0.756 -2.4062,-0.1263 -0.6995,0.6297 -0.7559,1.7068 -0.1262,2.4062 z" clip-path="url(#848502445447-clipPath1)" id="path154" ns1:connector-curvature="0" style="stroke:none" />
    </g>
    <g id="g156" style="text-rendering:geometricPrecision;fill:#f5d0fe;stroke:none">
      <path d="m 699.7617,514.7813 70.3291,-14.9454 c 0.9206,-0.1956 1.508,-1.1001 1.3124,-2.0207 -0.1956,-0.9206 -1.1001,-1.508 -2.0207,-1.3124 l -70.3292,14.9454 c -0.9205,0.1956 -1.508,1.1001 -1.3123,2.0207 0.1956,0.9206 1.1001,1.508 2.0207,1.3124 z" clip-path="url(#848502445447-clipPath1)" id="path158" ns1:connector-curvature="0" style="stroke:none" />
    </g>
    <g id="g160" style="fill:#eef2ff;stroke:none;text-rendering:geometricPrecision">
      </g>
    <g font-size="28px" transform="translate(383.355,311.7152)" id="g164" style="font-size:28px;font-family:sans-serif;fill:#c4b5fd;stroke:none;text-rendering:geometricPrecision">
      <text x="0" xml:space="preserve" y="27" clip-path="url(#84850244584-clipPath1)" id="text166" style="stroke:none">N</text>
    </g>
    <g font-size="28px" id="g168" style="font-size:28px;font-family:sans-serif;fill:#eef2ff;stroke:none;text-rendering:geometricPrecision">
      <text x="0" y="27" transform="translate(26.4012,36.2106)" clip-path="url(#848502445260-clipPath1)" xml:space="preserve" id="text172" style="fill:#fda4af;stroke:none">HO</text>
    </g>
    <g font-size="28px" id="g174" style="font-size:28px;font-family:sans-serif;fill:#eef2ff;stroke:none;text-rendering:geometricPrecision">
      <text x="0" y="27" transform="translate(404.793,487.2018)" clip-path="url(#848502445875-clipPath1)" xml:space="preserve" id="text178" style="fill:#fda4af;stroke:none">O</text>
    </g>
  </g>
</svg>