<?xml version='1.0' encoding='utf-8'?>
<svg xmlns="http://www.w3.org/2000/svg" xmlns:dc="http://purl.org/dc/elements/1.1/" xmlns:ns1="http://www.inkscape.org/namespaces/inkscape" xmlns:ns2="http://sodipodi.sourceforge.net/DTD/sodipodi-0.dtd" xmlns:ns4="http://creativecommons.org/ns#" xmlns:rdf="http://www.w3.org/1999/02/22-rdf-syntax-ns#" width="565.61499" stroke-miterlimit="10" font-weight="normal" height="275.90988" font-style="normal" font-size="12px" id="svg2" version="1.1" ns1:version="0.91 r13725" ns2:docname="Tryptamine.svg" style="font-style:normal;font-weight:normal;font-size:12px;font-family:Dialog;color-interpolation:auto;fill:#000000;fill-opacity:1;stroke:none;stroke:none;stroke:none;stroke:none;stroke:none;stroke:none;stroke:none;stroke:none;color-rendering:auto;image-rendering:auto;shape-rendering:auto;text-rendering:auto">
  <metadata id="metadata107">
    <rdf:RDF>
      <ns4:Work rdf:about="">
        <dc:format>image/svg+xml</dc:format>
        <dc:type rdf:resource="http://purl.org/dc/dcmitype/StillImage" />
        <dc:title />
      </ns4:Work>
    </rdf:RDF>
  </metadata>
  <ns2:namedview pagecolor="#ffffff" bordercolor="#666666" borderopacity="1" objecttolerance="10" gridtolerance="10" guidetolerance="10" ns1:pageopacity="0" ns1:pageshadow="2" ns1:window-width="1060" ns1:window-height="480" id="namedview105" showgrid="false" fit-margin-top="10" fit-margin-left="10" fit-margin-right="10" fit-margin-bottom="10" ns1:zoom="0.36375" ns1:cx="282.67192" ns1:cy="-1.0567" ns1:window-x="0" ns1:window-y="0" ns1:window-maximized="0" ns1:current-layer="svg2" />
  
  <defs id="genericDefs" />
  <g id="g5" transform="translate(-117.32808,-23.033416)" style="fill:#000000;stroke:none">
    <defs id="810944044809-defs1">
      <clipPath clipPathUnits="userSpaceOnUse" id="810944044316-clipPath1">
        <path d="M 0,0 800,0 800,600 0,600 0,0 Z" id="path9" ns1:connector-curvature="0" style="stroke:none" />
      </clipPath>
      <clipPath clipPathUnits="userSpaceOnUse" id="810944044357-clipPath1">
        <path d="m 256.5781,169.158 c -17.5847,0 -31.8399,14.2552 -31.8399,31.8398 0,17.5847 14.2552,31.8399 31.8399,31.8399 17.5847,0 31.8398,-14.2552 31.8398,-31.8399 0,-17.5846 -14.2551,-31.8398 -31.8398,-31.8398 z" id="path12" ns1:connector-curvature="0" style="stroke:none" />
      </clipPath>
      <clipPath clipPathUnits="userSpaceOnUse" id="810944044176-clipPath1">
        <path d="m 396.3679,213.3013 c -18.3026,0 -33.1398,14.8371 -33.1398,33.1397 0,18.3026 14.8372,33.1397 33.1398,33.1397 18.3025,0 33.1397,-14.8371 33.1397,-33.1397 0,-18.3026 -14.8372,-33.1397 -33.1397,-33.1397 z" id="path15" ns1:connector-curvature="0" style="stroke:none" />
      </clipPath>
      <clipPath clipPathUnits="userSpaceOnUse" id="810944044116-clipPath1">
        <path d="m 552.8475,103.5174 c -19.6792,0 -35.6324,15.9532 -35.6324,35.6323 0,19.6792 15.9532,35.6324 35.6324,35.6324 19.6791,0 35.6322,-15.9532 35.6322,-35.6324 0,-19.6791 -15.9531,-35.6323 -35.6322,-35.6323 z" id="path18" ns1:connector-curvature="0" style="stroke:none" />
      </clipPath>
      <clipPath clipPathUnits="userSpaceOnUse" id="810944044226-clipPath1">
        <path d="m -280.5675,-255.4902 800,0 0,600 -800,0 0,-600 z" id="path21" ns1:connector-curvature="0" style="stroke:none" />
      </clipPath>
      <clipPath clipPathUnits="userSpaceOnUse" id="810944044551-clipPath1">
        <path d="m -614.5056,-66.7582 800,0 0,600 -800,0 0,-600 z" id="path24" ns1:connector-curvature="0" style="stroke:none" />
      </clipPath>
      <clipPath clipPathUnits="userSpaceOnUse" id="810944044153-clipPath1">
        <path d="m -658.0681,-83.5721 800,0 0,600 -800,0 0,-600 z" id="path27" ns1:connector-curvature="0" style="stroke:none" />
      </clipPath>
    </defs>
    <g id="g29" style="text-rendering:geometricPrecision;fill:#000000;stroke:none">
      <path d="m 398.3341,155.5892 c 0,-1.0861 -0.8801,-1.9662 -1.9662,-1.9662 -1.0862,0 -1.9663,0.8801 -1.9663,1.9662 l 0,90.8518 c 0,1.0861 0.8801,1.9662 1.9663,1.9662 1.0861,0 1.9662,-0.8801 1.9662,-1.9662 z m -16.3854,13.8698 c 0,-1.0861 -0.8801,-1.9662 -1.9662,-1.9662 -1.0862,0 -1.9663,0.8801 -1.9663,1.9662 l 0,63.1079 c 0,1.0861 0.8801,1.9662 1.9663,1.9662 1.0861,0 1.9662,-0.8801 1.9662,-1.9662 z" clip-path="url(#810944044316-clipPath1)" id="path31" ns1:connector-curvature="0" style="stroke:none" />
    </g>
    <g id="g33" style="text-rendering:geometricPrecision;fill:#000000;stroke:none">
      <path d="m 311.5711,128.6675 c 0.6385,-0.8786 0.4439,-2.1079 -0.4347,-2.7464 -0.8786,-0.6386 -2.108,-0.444 -2.7465,0.4347 l -53.4024,73.4861 c -0.6385,0.8787 -0.444,2.108 0.4347,2.7465 0.8786,0.6385 2.108,0.4439 2.7465,-0.4347 z m -19.9722,-0.3891 c 0.6385,-0.8787 0.4439,-2.108 -0.4347,-2.7465 -0.8786,-0.6385 -2.108,-0.4439 -2.7465,0.4347 L 248.45,180.9655 c -0.6385,0.8787 -0.444,2.108 0.4347,2.7465 0.8786,0.6385 2.108,0.444 2.7465,-0.4347 z" clip-path="url(#810944044316-clipPath1)" id="path35" ns1:connector-curvature="0" style="stroke:none" />
    </g>
    <g id="g37" style="text-rendering:geometricPrecision;fill:#000000;stroke:none">
      <path d="m 396.9756,153.7193 -86.3873,-28.0776 c -1.0329,-0.3357 -2.142,0.2292 -2.4777,1.2622 -0.3358,1.0329 0.2292,2.142 1.2621,2.4777 l 86.3874,28.0776 c 1.0329,0.3357 2.142,-0.2292 2.4777,-1.2622 0.3357,-1.0329 -0.2292,-2.142 -1.2622,-2.4777 z" clip-path="url(#810944044316-clipPath1)" id="path39" ns1:connector-curvature="0" style="stroke:none" />
    </g>
    <g id="g41" style="text-rendering:geometricPrecision;fill:#000000;stroke:none">
      <path d="m 259.7535,61.5661 c 1.0802,0.1137 2.0476,-0.6694 2.1614,-1.7496 0.1137,-1.0801 -0.6694,-2.0475 -1.7496,-2.1613 l -67.608,-7.1188 c -1.0802,-0.1138 -2.0476,0.6693 -2.1614,1.7495 -0.1137,1.0802 0.6694,2.0476 1.7495,2.1613 z m 13.0786,-15.0989 c 1.0801,0.1137 2.0475,-0.6694 2.1613,-1.7495 0.1137,-1.0802 -0.6694,-2.0476 -1.7495,-2.1614 l -90.3346,-9.5118 c -1.0802,-0.1137 -2.0476,0.6694 -2.1613,1.7495 -0.1138,1.0802 0.6693,2.0476 1.7495,2.1613 z" clip-path="url(#810944044316-clipPath1)" id="path43" ns1:connector-curvature="0" style="stroke:none" />
    </g>
    <g id="g45" style="text-rendering:geometricPrecision;fill:#000000;stroke:none">
      <path d="m 181.1129,33.8439 -53.4086,73.4852 c -0.6385,0.8786 -0.444,2.108 0.4346,2.7465 0.8786,0.6386 2.1079,0.4441 2.7465,-0.4345 l 53.4085,-73.4852 c 0.6386,-0.8786 0.4441,-2.108 -0.4345,-2.7465 -0.8786,-0.6386 -2.108,-0.4441 -2.7465,0.4345 z" clip-path="url(#810944044316-clipPath1)" id="path47" ns1:connector-curvature="0" style="stroke:none" />
    </g>
    <g id="g49" style="text-rendering:geometricPrecision;fill:#000000;stroke:none">
      <path d="m 150.707,111.4626 c -0.4416,-0.9923 -1.6035,-1.4385 -2.5958,-0.9969 -0.9923,0.4417 -1.4385,1.6036 -0.9969,2.5959 l 27.6486,62.1242 c 0.4417,0.9923 1.6036,1.4385 2.5959,0.9969 0.9923,-0.4416 1.4385,-1.6035 0.9969,-2.5958 z m -19.6158,-3.777 c -0.4416,-0.9923 -1.6035,-1.4385 -2.5958,-0.9969 -0.9923,0.4417 -1.4385,1.6036 -0.9969,2.5959 l 36.9406,83.0026 c 0.4416,0.9923 1.6035,1.4385 2.5958,0.9969 0.9923,-0.4416 1.4385,-1.6036 0.9969,-2.5959 z" clip-path="url(#810944044316-clipPath1)" id="path51" ns1:connector-curvature="0" style="stroke:none" />
    </g>
    <g id="g53" style="text-rendering:geometricPrecision;fill:#000000;stroke:none">
      <path d="M 311.7769,126.7121 274.8343,43.7122 c -0.4417,-0.9922 -1.6036,-1.4384 -2.5959,-0.9968 -0.9922,0.4417 -1.4384,1.6036 -0.9968,2.5959 l 36.9426,82.9999 c 0.4417,0.9923 1.6036,1.4384 2.5959,0.9968 0.9922,-0.4417 1.4384,-1.6036 0.9968,-2.5959 z" clip-path="url(#810944044316-clipPath1)" id="path55" ns1:connector-curvature="0" style="stroke:none" />
    </g>
    <g id="g57" style="text-rendering:geometricPrecision;fill:#000000;stroke:none">
      <path d="m 166.0296,193.4431 90.3426,9.5102 c 1.0802,0.1137 2.0476,-0.6695 2.1613,-1.7496 0.1137,-1.0802 -0.6694,-2.0476 -1.7496,-2.1613 l -90.3426,-9.5101 c -1.0802,-0.1137 -2.0476,0.6694 -2.1613,1.7496 -0.1137,1.0801 0.6694,2.0475 1.7496,2.1612 z" clip-path="url(#810944044316-clipPath1)" id="path59" ns1:connector-curvature="0" style="stroke:none" />
    </g>
    <g id="g61" style="fill:#333399;stroke:none;text-rendering:geometricPrecision">
      <path d="m 254.9873,202.1534 37.4265,51.5205 c 0.6384,0.8787 1.8677,1.0735 2.7464,0.4352 0.8788,-0.6384 1.0736,-1.8677 0.4352,-2.7464 l -37.4265,-51.5205 c -0.6384,-0.8787 -1.8677,-1.0735 -2.7464,-0.4352 -0.8788,0.6384 -1.0736,1.8677 -0.4352,2.7464 z" clip-path="url(#810944044316-clipPath1)" id="path63" ns1:connector-curvature="0" style="stroke:none" />
      <path d="m 254.9873,202.1534 37.4265,51.5205 c 0.6384,0.8787 1.8677,1.0735 2.7464,0.4352 0.8788,-0.6384 1.0736,-1.8677 0.4352,-2.7464 l -37.4265,-51.5205 c -0.6384,-0.8787 -1.8677,-1.0735 -2.7464,-0.4352 -0.8788,0.6384 -1.0736,1.8677 -0.4352,2.7464 z" clip-path="url(#810944044357-clipPath1)" id="path65" ns1:connector-curvature="0" style="fill:#000000;stroke:none" />
    </g>
    <g id="g67" style="fill:#333399;stroke:none;text-rendering:geometricPrecision">
      <path d="M 395.7607,244.5709 332.72,265.0362 c -1.0331,0.3353 -1.5984,1.4442 -1.2631,2.4772 0.3354,1.0331 1.4442,1.5984 2.4773,1.2631 l 63.0408,-20.4653 c 1.033,-0.3354 1.5984,-1.4443 1.263,-2.4773 -0.3354,-1.0331 -1.4442,-1.5984 -2.4773,-1.263 z" clip-path="url(#810944044316-clipPath1)" id="path69" ns1:connector-curvature="0" style="stroke:none" />
      <path d="M 395.7607,244.5709 332.72,265.0362 c -1.0331,0.3353 -1.5984,1.4442 -1.2631,2.4772 0.3354,1.0331 1.4442,1.5984 2.4773,1.2631 l 63.0408,-20.4653 c 1.033,-0.3354 1.5984,-1.4443 1.263,-2.4773 -0.3354,-1.0331 -1.4442,-1.5984 -2.4773,-1.263 z" clip-path="url(#810944044176-clipPath1)" id="path71" ns1:connector-curvature="0" style="fill:#000000;stroke:none" />
    </g>
    <g id="g73" style="text-rendering:geometricPrecision;fill:#000000;stroke:none">
      <path d="m 397.5235,157.18 73.4941,-53.3915 c 0.8788,-0.6384 1.0735,-1.8677 0.4352,-2.7464 -0.6384,-0.8787 -1.8677,-1.0735 -2.7465,-0.4351 l -73.4941,53.3915 c -0.8787,0.6384 -1.0735,1.8677 -0.4351,2.7464 0.6384,0.8787 1.8677,1.0735 2.7464,0.4351 z" clip-path="url(#810944044316-clipPath1)" id="path75" ns1:connector-curvature="0" style="stroke:none" />
    </g>
    <g id="g77" style="text-rendering:geometricPrecision;fill:#000000;stroke:none">
      <path d="m 469.0622,103.9939 82.9854,36.9521 c 0.9923,0.4418 2.1542,-0.004 2.5961,-0.9964 0.4417,-0.9922 -0.004,-2.1542 -0.9964,-2.5961 l -82.9855,-36.952 c -0.9922,-0.4418 -2.1542,0.004 -2.596,0.9964 -0.4418,0.9922 0.004,2.1542 0.9964,2.596 z" clip-path="url(#810944044316-clipPath1)" id="path79" ns1:connector-curvature="0" style="stroke:none" />
    </g>
    <g id="g81" style="fill:#333399;stroke:none;text-rendering:geometricPrecision">
      <path d="m 554.0031,140.7405 57.6562,-41.8857 c 0.8787,-0.6383 1.0735,-1.8676 0.4351,-2.7464 -0.6383,-0.8787 -1.8677,-1.0735 -2.7464,-0.4351 l -57.6562,41.8857 c -0.8788,0.6384 -1.0735,1.8677 -0.4351,2.7464 0.6384,0.8787 1.8677,1.0735 2.7464,0.4351 z" clip-path="url(#810944044316-clipPath1)" id="path83" ns1:connector-curvature="0" style="stroke:none" />
      <path d="m 554.0031,140.7405 57.6562,-41.8857 c 0.8787,-0.6383 1.0735,-1.8676 0.4351,-2.7464 -0.6383,-0.8787 -1.8677,-1.0735 -2.7464,-0.4351 l -57.6562,41.8857 c -0.8788,0.6384 -1.0735,1.8677 -0.4351,2.7464 0.6384,0.8787 1.8677,1.0735 2.7464,0.4351 z" clip-path="url(#810944044116-clipPath1)" id="path85" ns1:connector-curvature="0" style="fill:#000000;stroke:none" />
    </g>
    <g id="g87" style="fill:#ffffff;stroke:none;text-rendering:geometricPrecision">
      </g>
    <g font-size="32px" transform="translate(280.5675,255.4902)" id="g91" style="font-size:32px;font-family:sans-serif;fill:#333399;stroke:none;text-rendering:geometricPrecision">
      <text x="0" xml:space="preserve" y="31" clip-path="url(#810944044226-clipPath1)" id="text93" style="stroke:none">HN</text>
    </g>
    <g font-size="32px" id="g95" style="font-size:32px;font-family:sans-serif;fill:#ffffff;stroke:none;text-rendering:geometricPrecision">
      <text x="0" y="31" transform="translate(614.5056,66.7582)" clip-path="url(#810944044551-clipPath1)" xml:space="preserve" id="text99" style="fill:#333399;stroke:none">NH</text>
    </g>
    <g font-size="25px" transform="translate(658.0681,83.5721)" id="g101" style="font-size:25px;font-family:sans-serif;fill:#333399;stroke:none;text-rendering:geometricPrecision">
      <text x="0" xml:space="preserve" y="24" clip-path="url(#810944044153-clipPath1)" id="text103" style="stroke:none">2</text>
    </g>
  </g>
</svg>