<?xml version='1.0' encoding='utf-8'?>
<svg xmlns="http://www.w3.org/2000/svg" xmlns:dc="http://purl.org/dc/elements/1.1/" xmlns:ns1="http://www.inkscape.org/namespaces/inkscape" xmlns:ns2="http://sodipodi.sourceforge.net/DTD/sodipodi-0.dtd" xmlns:ns4="http://creativecommons.org/ns#" xmlns:rdf="http://www.w3.org/1999/02/22-rdf-syntax-ns#" width="780.3194" stroke-miterlimit="10" font-weight="normal" height="378.22394" font-style="normal" font-size="12px" id="svg2" version="1.1" ns1:version="0.91 r13725" ns2:docname="Vilazodone.svg" style="font-style:normal;font-weight:normal;font-size:12px;font-family:Dialog;color-interpolation:auto;fill:#f0abfc;fill-opacity:1;stroke:none;stroke:none;stroke:none;stroke:none;stroke:none;stroke:none;stroke:none;stroke:none;color-rendering:auto;image-rendering:auto;shape-rendering:auto;text-rendering:auto">
  <metadata id="metadata298">
    <rdf:RDF>
      <ns4:Work rdf:about="">
        <dc:format>image/svg+xml</dc:format>
        <dc:type rdf:resource="http://purl.org/dc/dcmitype/StillImage" />
        <dc:title />
      </ns4:Work>
    </rdf:RDF>
  </metadata>
  <ns2:namedview pagecolor="#eef2ff" bordercolor="#666666" borderopacity="1" objecttolerance="10" gridtolerance="10" guidetolerance="10" ns1:pageopacity="0" ns1:pageshadow="2" ns1:window-width="1060" ns1:window-height="480" id="namedview296" showgrid="false" fit-margin-top="10" fit-margin-left="10" fit-margin-right="10" fit-margin-bottom="10" ns1:zoom="0.36375" ns1:cx="390.1597" ns1:cy="189.02733" ns1:window-x="0" ns1:window-y="0" ns1:window-maximized="0" ns1:current-layer="svg2" />
  
  <defs id="genericDefs" />
  <g id="g5" transform="translate(-9.8403,-110.8034)" style="fill:#f0abfc;stroke:none">
    <defs id="398096106279-defs1">
      <clipPath clipPathUnits="userSpaceOnUse" id="398096106787-clipPath1">
        <path d="M 0,0 800,0 800,600 0,600 0,0 Z" id="path9" ns1:connector-curvature="0" style="stroke:none" />
      </clipPath>
      <clipPath clipPathUnits="userSpaceOnUse" id="39809610621-clipPath1">
        <path d="m 363.7395,456.207 c -11.944,0 -21.6265,9.6825 -21.6265,21.6265 0,11.9439 9.6825,21.6264 21.6265,21.6264 11.9439,0 21.6264,-9.6825 21.6264,-21.6264 0,-11.944 -9.6825,-21.6265 -21.6264,-21.6265 z" id="path12" ns1:connector-curvature="0" style="stroke:none" />
      </clipPath>
      <clipPath clipPathUnits="userSpaceOnUse" id="398096106845-clipPath1">
        <path d="m 421.6617,434.5799 c -11.9444,0 -21.6272,9.6829 -21.6272,21.6273 0,11.9444 9.6828,21.6273 21.6272,21.6273 11.9445,0 21.6273,-9.6829 21.6273,-21.6273 0,-11.9444 -9.6828,-21.6273 -21.6273,-21.6273 z" id="path15" ns1:connector-curvature="0" style="stroke:none" />
      </clipPath>
      <clipPath clipPathUnits="userSpaceOnUse" id="398096106854-clipPath1">
        <path d="m 411.4295,415.8642 c -11.3961,0 -20.6344,9.2383 -20.6344,20.6344 0,11.396 9.2383,20.6343 20.6344,20.6343 11.396,0 20.6343,-9.2383 20.6343,-20.6343 0,-11.3961 -9.2383,-20.6344 -20.6343,-20.6344 z" id="path18" ns1:connector-curvature="0" style="stroke:none" />
      </clipPath>
      <clipPath clipPathUnits="userSpaceOnUse" id="398096106207-clipPath1">
        <path d="m 506.8169,429.6652 c -11.3951,0 -20.6326,9.2375 -20.6326,20.6326 0,11.3951 9.2375,20.6327 20.6326,20.6327 11.3951,0 20.6327,-9.2376 20.6327,-20.6327 0,-11.3951 -9.2376,-20.6326 -20.6327,-20.6326 z" id="path21" ns1:connector-curvature="0" style="stroke:none" />
      </clipPath>
      <clipPath clipPathUnits="userSpaceOnUse" id="398096106850-clipPath1">
        <path d="m 496.5786,367.6972 c -11.9435,0 -21.6255,9.682 -21.6255,21.6255 0,11.9434 9.682,21.6255 21.6255,21.6255 11.9434,0 21.6254,-9.6821 21.6254,-21.6255 0,-11.9435 -9.682,-21.6255 -21.6254,-21.6255 z" id="path24" ns1:connector-curvature="0" style="stroke:none" />
      </clipPath>
      <clipPath clipPathUnits="userSpaceOnUse" id="398096106350-clipPath1">
        <path d="m 517.0423,367.6976 c -11.944,0 -21.6265,9.6825 -21.6265,21.6264 0,11.944 9.6825,21.6265 21.6265,21.6265 11.944,0 21.6265,-9.6825 21.6265,-21.6265 0,-11.9439 -9.6825,-21.6264 -21.6265,-21.6264 z" id="path27" ns1:connector-curvature="0" style="stroke:none" />
      </clipPath>
      <clipPath clipPathUnits="userSpaceOnUse" id="398096106629-clipPath1">
        <path d="m 685.0506,242.4025 c -11.2941,0 -20.4498,9.1557 -20.4498,20.4499 0,11.2941 9.1557,20.4498 20.4498,20.4498 11.2941,0 20.4498,-9.1557 20.4498,-20.4498 0,-11.2942 -9.1557,-20.4499 -20.4498,-20.4499 z" id="path30" ns1:connector-curvature="0" style="stroke:none" />
      </clipPath>
      <clipPath clipPathUnits="userSpaceOnUse" id="398096106276-clipPath1">
        <path d="m 649.8864,292.0102 c -11.3921,0 -20.6272,9.2352 -20.6272,20.6273 0,11.3921 9.2351,20.6272 20.6272,20.6272 11.3922,0 20.6273,-9.2351 20.6273,-20.6272 0,-11.3921 -9.2351,-20.6273 -20.6273,-20.6273 z" id="path33" ns1:connector-curvature="0" style="stroke:none" />
      </clipPath>
      <clipPath clipPathUnits="userSpaceOnUse" id="398096106723-clipPath1">
        <path d="m 695.9589,155.411 c -12.3647,0 -22.3883,10.0236 -22.3883,22.3883 0,12.3647 10.0236,22.3883 22.3883,22.3883 12.3648,0 22.3883,-10.0236 22.3883,-22.3883 0,-12.3647 -10.0235,-22.3883 -22.3883,-22.3883 z" id="path36" ns1:connector-curvature="0" style="stroke:none" />
      </clipPath>
      <clipPath clipPathUnits="userSpaceOnUse" id="398096106415-clipPath1">
        <path d="m 695.9589,157.5401 c -11.1888,0 -20.2591,9.0704 -20.2591,20.2592 0,11.1888 9.0703,20.2592 20.2591,20.2592 11.1889,0 20.2592,-9.0704 20.2592,-20.2592 0,-11.1888 -9.0703,-20.2592 -20.2592,-20.2592 z" id="path39" ns1:connector-curvature="0" style="stroke:none" />
      </clipPath>
      <clipPath clipPathUnits="userSpaceOnUse" id="39809610693-clipPath1">
        <path d="m 79.2283,240.0255 c -12.2607,0 -22.2,9.9393 -22.2,22.2 0,12.2607 9.9393,22.2 22.2,22.2 12.2608,0 22.2,-9.9393 22.2,-22.2 0,-12.2607 -9.9392,-22.2 -22.2,-22.2 z" id="path42" ns1:connector-curvature="0" style="stroke:none" />
      </clipPath>
      <clipPath clipPathUnits="userSpaceOnUse" id="398096106988-clipPath1">
        <path d="m 312.9073,260.05 c -11.1597,0 -20.2064,9.0467 -20.2064,20.2064 0,11.1597 9.0467,20.2064 20.2064,20.2064 11.1597,0 20.2064,-9.0467 20.2064,-20.2064 0,-11.1597 -9.0467,-20.2064 -20.2064,-20.2064 z" id="path45" ns1:connector-curvature="0" style="stroke:none" />
      </clipPath>
      <clipPath clipPathUnits="userSpaceOnUse" id="398096106584-clipPath1">
        <path d="m 285.6018,205.4967 c -12.3648,0 -22.3884,10.0236 -22.3884,22.3884 0,12.3648 10.0236,22.3884 22.3884,22.3884 12.3648,0 22.3884,-10.0236 22.3884,-22.3884 0,-12.3648 -10.0236,-22.3884 -22.3884,-22.3884 z" id="path48" ns1:connector-curvature="0" style="stroke:none" />
      </clipPath>
      <clipPath clipPathUnits="userSpaceOnUse" id="398096106517-clipPath1">
        <path d="m -404.4063,-438.2995 800,0 0,600 -800,0 0,-600 z" id="path51" ns1:connector-curvature="0" style="stroke:none" />
      </clipPath>
      <clipPath clipPathUnits="userSpaceOnUse" id="398096106164-clipPath1">
        <path d="m -499.7867,-383.2316 800,0 0,600 -800,0 0,-600 z" id="path54" ns1:connector-curvature="0" style="stroke:none" />
      </clipPath>
      <clipPath clipPathUnits="userSpaceOnUse" id="398096106630-clipPath1">
        <path d="m -683.5539,-263.7965 800,0 0,600 -800,0 0,-600 z" id="path57" ns1:connector-curvature="0" style="stroke:none" />
      </clipPath>
      <clipPath clipPathUnits="userSpaceOnUse" id="398096106286-clipPath1">
        <path d="m -661.1722,-118.1061 800,0 0,600 -800,0 0,-600 z" id="path60" ns1:connector-curvature="0" style="stroke:none" />
      </clipPath>
      <clipPath clipPathUnits="userSpaceOnUse" id="398096106452-clipPath1">
        <path d="m -744.5034,-165.8052 800,0 0,600 -800,0 0,-600 z" id="path63" ns1:connector-curvature="0" style="stroke:none" />
      </clipPath>
      <clipPath clipPathUnits="userSpaceOnUse" id="398096106730-clipPath1">
        <path d="m -771.4878,-176.6575 800,0 0,600 -800,0 0,-600 z" id="path66" ns1:connector-curvature="0" style="stroke:none" />
      </clipPath>
      <clipPath clipPathUnits="userSpaceOnUse" id="398096106373-clipPath1">
        <path d="m -289.3695,-215.8851 800,0 0,600 -800,0 0,-600 z" id="path69" ns1:connector-curvature="0" style="stroke:none" />
      </clipPath>
      <clipPath clipPathUnits="userSpaceOnUse" id="398096106432-clipPath1">
        <path d="m -18.3403,-261.6748 800,0 0,600 -800,0 0,-600 z" id="path72" ns1:connector-curvature="0" style="stroke:none" />
      </clipPath>
    </defs>
    <g id="g74" style="text-rendering:geometricPrecision;fill:#f0abfc;stroke:none">
      <path d="m 315.4533,451.3317 47.6902,27.534 c 0.5702,0.3292 1.299,0.1339 1.6282,-0.4363 0.3292,-0.5702 0.1339,-1.299 -0.4363,-1.6282 l -47.6902,-27.534 c -0.5702,-0.3292 -1.299,-0.1339 -1.6282,0.4363 -0.3292,0.5702 -0.1339,1.299 0.4363,1.6282 z" clip-path="url(#398096106787-clipPath1)" id="path76" ns1:connector-curvature="0" style="stroke:none" />
    </g>
    <g id="g78" style="fill:#c4b5fd;stroke:none;text-rendering:geometricPrecision">
      <path d="m 364.3354,478.8657 37.4581,-21.6264 c 0.5703,-0.3293 0.7656,-1.0581 0.4363,-1.6283 -0.3292,-0.5702 -1.058,-0.7654 -1.6282,-0.4362 l -37.4581,21.6264 c -0.5702,0.3292 -0.7655,1.058 -0.4363,1.6282 0.3292,0.5702 1.058,0.7655 1.6282,0.4363 z" clip-path="url(#398096106787-clipPath1)" id="path80" ns1:connector-curvature="0" style="stroke:none" />
      <path d="m 364.3354,478.8657 37.4581,-21.6264 c 0.5703,-0.3293 0.7656,-1.0581 0.4363,-1.6283 -0.3292,-0.5702 -1.058,-0.7654 -1.6282,-0.4362 l -37.4581,21.6264 c -0.5702,0.3292 -0.7655,1.058 -0.4363,1.6282 0.3292,0.5702 1.058,0.7655 1.6282,0.4363 z" clip-path="url(#39809610621-clipPath1)" id="path82" ns1:connector-curvature="0" style="fill:#f0abfc;stroke:none" />
    </g>
    <g id="g84" style="text-rendering:geometricPrecision;fill:#f0abfc;stroke:none">
      <path d="m 459.7169,478.8674 47.696,-27.5373 c 0.5702,-0.3292 0.7655,-1.058 0.4363,-1.6282 -0.3292,-0.5702 -1.058,-0.7655 -1.6283,-0.4363 l -47.696,27.5373 c -0.5702,0.3292 -0.7654,1.058 -0.4362,1.6282 0.3292,0.5702 1.058,0.7655 1.6282,0.4363 z" clip-path="url(#398096106787-clipPath1)" id="path86" ns1:connector-curvature="0" style="stroke:none" />
    </g>
    <g id="g88" style="text-rendering:geometricPrecision;fill:#f0abfc;stroke:none">
      <path d="m 458.5288,366.6603 -47.696,27.5373 c -0.5702,0.3293 -0.7655,1.058 -0.4363,1.6282 0.3292,0.5703 1.058,0.7655 1.6282,0.4363 l 47.696,-27.5373 c 0.5702,-0.3292 0.7655,-1.058 0.4363,-1.6282 -0.3292,-0.5702 -1.058,-0.7655 -1.6282,-0.4363 z" clip-path="url(#398096106787-clipPath1)" id="path90" ns1:connector-curvature="0" style="stroke:none" />
    </g>
    <g id="g92" style="text-rendering:geometricPrecision;fill:#f0abfc;stroke:none">
      <path d="m 421.0658,457.2394 37.4591,21.628 c 0.5702,0.3292 1.299,0.1339 1.6282,-0.4363 0.3293,-0.5702 0.134,-1.299 -0.4362,-1.6282 L 422.2577,455.175 c -0.5702,-0.3292 -1.299,-0.134 -1.6282,0.4362 -0.3292,0.5702 -0.1339,1.299 0.4363,1.6282 z" clip-path="url(#398096106787-clipPath1)" id="path94" ns1:connector-curvature="0" style="stroke:none" />
      <path d="m 421.0658,457.2394 37.4591,21.628 c 0.5702,0.3292 1.299,0.1339 1.6282,-0.4363 0.3293,-0.5702 0.134,-1.299 -0.4362,-1.6282 L 422.2577,455.175 c -0.5702,-0.3292 -1.299,-0.134 -1.6282,0.4362 -0.3292,0.5702 -0.1339,1.299 0.4363,1.6282 z" clip-path="url(#398096106845-clipPath1)" id="path96" ns1:connector-curvature="0" style="fill:#c4b5fd;stroke:none" />
    </g>
    <g id="g98" style="text-rendering:geometricPrecision;fill:#f0abfc;stroke:none">
      <path d="m 412.6214,436.4985 -7e-4,-41.2686 c 0,-0.6585 -0.5336,-1.192 -1.192,-1.192 -0.6584,1e-4 -1.1919,0.5336 -1.1919,1.192 l 7e-4,41.2687 c 0,0.6584 0.5336,1.1919 1.192,1.1919 0.6584,0 1.1919,-0.5335 1.1919,-1.192 z" clip-path="url(#398096106787-clipPath1)" id="path100" ns1:connector-curvature="0" style="stroke:none" />
      <path d="m 412.6214,436.4985 -7e-4,-41.2686 c 0,-0.6585 -0.5336,-1.192 -1.192,-1.192 -0.6584,1e-4 -1.1919,0.5336 -1.1919,1.192 l 7e-4,41.2687 c 0,0.6584 0.5336,1.1919 1.192,1.1919 0.6584,0 1.1919,-0.5335 1.1919,-1.192 z" clip-path="url(#398096106854-clipPath1)" id="path102" ns1:connector-curvature="0" style="fill:#c4b5fd;stroke:none" />
    </g>
    <g id="g104" style="text-rendering:geometricPrecision;fill:#f0abfc;stroke:none">
      <path d="m 602.6327,382.1384 c -0.5703,0.3292 -0.7656,1.0579 -0.4364,1.6282 0.3292,0.5702 1.058,0.7655 1.6282,0.4363 l 35.6908,-20.603 c 0.5701,-0.3291 0.7655,-1.0579 0.4363,-1.6281 -0.3292,-0.5702 -1.0579,-0.7656 -1.6282,-0.4364 z m -1.0328,12.0652 c -0.5702,0.3292 -0.7655,1.058 -0.4364,1.6282 0.3292,0.5702 1.058,0.7656 1.6282,0.4364 l 47.6885,-27.5289 c 0.5702,-0.3291 0.7655,-1.0579 0.4364,-1.6281 -0.3292,-0.5702 -1.058,-0.7656 -1.6282,-0.4364 z" clip-path="url(#398096106787-clipPath1)" id="path106" ns1:connector-curvature="0" style="stroke:none" />
    </g>
    <g id="g108" style="text-rendering:geometricPrecision;fill:#f0abfc;stroke:none">
      <path d="m 651.0762,367.7071 0.002,-55.0696 c 0,-0.6584 -0.5335,-1.1919 -1.1919,-1.192 -0.6584,0 -1.192,0.5335 -1.192,1.1919 l -0.002,55.0696 c 0,0.6584 0.5335,1.192 1.1919,1.192 0.6585,0 1.192,-0.5335 1.192,-1.1919 z" clip-path="url(#398096106787-clipPath1)" id="path110" ns1:connector-curvature="0" style="stroke:none" />
    </g>
    <g id="g112" style="text-rendering:geometricPrecision;fill:#f0abfc;stroke:none">
      <path d="m 638.3251,318.8082 c 0.5702,0.3292 1.299,0.1339 1.6282,-0.4363 0.3292,-0.5701 0.134,-1.299 -0.4362,-1.6282 l -35.698,-20.6113 c -0.5702,-0.3292 -1.299,-0.1339 -1.6282,0.4363 -0.3293,0.5702 -0.134,1.299 0.4362,1.6282 z m 10.9654,-5.1385 c 0.5702,0.3292 1.2989,0.1339 1.6281,-0.4362 0.3293,-0.5702 0.134,-1.2991 -0.4362,-1.6283 L 602.787,284.0669 c -0.5702,-0.3292 -1.299,-0.1339 -1.6282,0.4362 -0.3293,0.5702 -0.134,1.2991 0.4362,1.6283 z" clip-path="url(#398096106787-clipPath1)" id="path114" ns1:connector-curvature="0" style="stroke:none" />
    </g>
    <g id="g116" style="text-rendering:geometricPrecision;fill:#f0abfc;stroke:none">
      <path d="m 601.595,284.0669 -47.6917,27.5346 c -0.5702,0.3292 -0.7655,1.058 -0.4363,1.6282 0.3292,0.5702 1.058,0.7655 1.6282,0.4363 l 47.6918,-27.5346 c 0.5702,-0.3292 0.7655,-1.058 0.4363,-1.6282 -0.3293,-0.5702 -1.058,-0.7655 -1.6283,-0.4363 z" clip-path="url(#398096106787-clipPath1)" id="path118" ns1:connector-curvature="0" style="stroke:none" />
    </g>
    <g id="g120" style="text-rendering:geometricPrecision;fill:#f0abfc;stroke:none">
      <path d="m 565.6242,319.5604 c -10e-5,-0.6585 -0.5336,-1.192 -1.192,-1.1919 -0.6584,0 -1.1919,0.5335 -1.1919,1.1919 l 9e-4,41.2106 c 0,0.6584 0.5335,1.1919 1.192,1.1919 0.6584,0 1.1919,-0.5335 1.1919,-1.1919 z m -9.933,-6.9267 c 0,-0.6584 -0.5336,-1.1919 -1.192,-1.1919 -0.6584,0 -1.1919,0.5336 -1.1919,1.192 l 10e-4,55.0638 c 0,0.6584 0.5335,1.1919 1.1919,1.1919 0.6584,0 1.1919,-0.5335 1.1919,-1.1919 z" clip-path="url(#398096106787-clipPath1)" id="path122" ns1:connector-curvature="0" style="stroke:none" />
    </g>
    <g id="g124" style="text-rendering:geometricPrecision;fill:#f0abfc;stroke:none">
      <path d="m 553.9044,368.7298 47.6955,27.5384 c 0.5701,0.3292 1.2989,0.1339 1.6281,-0.4363 0.3293,-0.5702 0.134,-1.299 -0.4362,-1.6282 l -47.6954,-27.5384 c -0.5702,-0.3292 -1.299,-0.1339 -1.6283,0.4363 -0.3292,0.5702 -0.1339,1.299 0.4363,1.6282 z" clip-path="url(#398096106787-clipPath1)" id="path126" ns1:connector-curvature="0" style="stroke:none" />
    </g>
    <g id="g128" style="fill:#c4b5fd;stroke:none;text-rendering:geometricPrecision">
      <path d="m 508.0089,450.2977 -0.005,-41.2654 c -10e-5,-0.6584 -0.5337,-1.1918 -1.1921,-1.1917 -0.6584,0 -1.1919,0.5336 -1.1918,1.1921 l 0.005,41.2653 c 10e-5,0.6584 0.5337,1.1918 1.1921,1.1918 0.6584,-10e-5 1.1918,-0.5337 1.1918,-1.1921 z" clip-path="url(#398096106787-clipPath1)" id="path130" ns1:connector-curvature="0" style="stroke:none" />
      <path d="m 508.0089,450.2977 -0.005,-41.2654 c -10e-5,-0.6584 -0.5337,-1.1918 -1.1921,-1.1917 -0.6584,0 -1.1919,0.5336 -1.1918,1.1921 l 0.005,41.2653 c 10e-5,0.6584 0.5337,1.1918 1.1921,1.1918 0.6584,-10e-5 1.1918,-0.5337 1.1918,-1.1921 z" clip-path="url(#398096106207-clipPath1)" id="path132" ns1:connector-curvature="0" style="fill:#f0abfc;stroke:none" />
    </g>
    <g id="g134" style="text-rendering:geometricPrecision;fill:#f0abfc;stroke:none">
      <path d="m 497.1747,388.2905 -37.4538,-21.6301 c -0.5702,-0.3293 -1.2991,-0.1341 -1.6283,0.4361 -0.3293,0.5702 -0.1341,1.299 0.4361,1.6282 l 37.4538,21.6301 c 0.5701,0.3293 1.2989,0.1341 1.6282,-0.436 0.3293,-0.5702 0.1341,-1.299 -0.436,-1.6283 z" clip-path="url(#398096106787-clipPath1)" id="path136" ns1:connector-curvature="0" style="stroke:none" />
      <path d="m 497.1747,388.2905 -37.4538,-21.6301 c -0.5702,-0.3293 -1.2991,-0.1341 -1.6283,0.4361 -0.3293,0.5702 -0.1341,1.299 0.4361,1.6282 l 37.4538,21.6301 c 0.5701,0.3293 1.2989,0.1341 1.6282,-0.436 0.3293,-0.5702 0.1341,-1.299 -0.436,-1.6283 z" clip-path="url(#398096106850-clipPath1)" id="path138" ns1:connector-curvature="0" style="fill:#c4b5fd;stroke:none" />
    </g>
    <g id="g140" style="text-rendering:geometricPrecision;fill:#f0abfc;stroke:none">
      <path d="m 517.6382,390.3563 37.4582,-21.6265 c 0.5702,-0.3292 0.7655,-1.058 0.4363,-1.6282 -0.3293,-0.5702 -1.0581,-0.7655 -1.6283,-0.4363 l -37.4581,21.6265 c -0.5702,0.3292 -0.7655,1.058 -0.4363,1.6282 0.3292,0.5702 1.0581,0.7655 1.6282,0.4363 z" clip-path="url(#398096106787-clipPath1)" id="path142" ns1:connector-curvature="0" style="stroke:none" />
      <path d="m 517.6382,390.3563 37.4582,-21.6265 c 0.5702,-0.3292 0.7655,-1.058 0.4363,-1.6282 -0.3293,-0.5702 -1.0581,-0.7655 -1.6283,-0.4363 l -37.4581,21.6265 c -0.5702,0.3292 -0.7655,1.058 -0.4363,1.6282 0.3292,0.5702 1.0581,0.7655 1.6282,0.4363 z" clip-path="url(#398096106350-clipPath1)" id="path144" ns1:connector-curvature="0" style="fill:#c4b5fd;stroke:none" />
    </g>
    <g id="g146" style="text-rendering:geometricPrecision;fill:#f0abfc;stroke:none">
      <path d="m 661.2189,237.4288 c 0.6548,-0.0688 1.1297,-0.6551 1.0609,-1.3099 -0.0687,-0.6548 -0.6551,-1.1297 -1.3099,-1.0609 l -38.0406,3.9948 c -0.6548,0.0688 -1.1296,0.6551 -1.0609,1.3099 0.0688,0.6548 0.6551,1.1297 1.3099,1.0609 z m 7.3255,-10.7568 c 0.6548,-0.0687 1.1297,-0.6551 1.0609,-1.3099 -0.0688,-0.6548 -0.6551,-1.1297 -1.3099,-1.0609 l -54.7646,5.7511 c -0.6548,0.0688 -1.1297,0.6551 -1.061,1.3099 0.0688,0.6548 0.6551,1.1297 1.3099,1.0609 z" clip-path="url(#398096106787-clipPath1)" id="path148" ns1:connector-curvature="0" style="stroke:none" />
    </g>
    <g id="g150" style="text-rendering:geometricPrecision;fill:#f0abfc;stroke:none">
      <path d="m 603.3568,285.3473 11.4643,-53.8614 c 0.137,-0.644 -0.2737,-1.2769 -0.9177,-1.414 -0.644,-0.1371 -1.2769,0.2737 -1.414,0.9177 l -11.4642,53.8614 c -0.1371,0.644 0.2737,1.2769 0.9177,1.414 0.644,0.137 1.2768,-0.2737 1.4139,-0.9177 z" clip-path="url(#398096106787-clipPath1)" id="path152" ns1:connector-curvature="0" style="stroke:none" />
    </g>
    <g id="g154" style="text-rendering:geometricPrecision;fill:#f0abfc;stroke:none">
      <path d="m 686.1395,262.3677 -16.6306,-37.3658 c -0.2678,-0.6015 -0.9722,-0.872 -1.5737,-0.6042 -0.6015,0.2677 -0.872,0.9721 -0.6043,1.5736 l 16.6307,37.3657 c 0.2678,0.6015 0.9721,0.872 1.5737,0.6043 0.6015,-0.2677 0.872,-0.9721 0.6042,-1.5736 z" clip-path="url(#398096106787-clipPath1)" id="path156" ns1:connector-curvature="0" style="stroke:none" />
      <path d="m 686.1395,262.3677 -16.6306,-37.3658 c -0.2678,-0.6015 -0.9722,-0.872 -1.5737,-0.6042 -0.6015,0.2677 -0.872,0.9721 -0.6043,1.5736 l 16.6307,37.3657 c 0.2678,0.6015 0.9721,0.872 1.5737,0.6043 0.6015,-0.2677 0.872,-0.9721 0.6042,-1.5736 z" clip-path="url(#398096106629-clipPath1)" id="path158" ns1:connector-curvature="0" style="fill:#fda4af;stroke:none" />
    </g>
    <g id="g160" style="fill:#fda4af;stroke:none;text-rendering:geometricPrecision">
      <path d="m 650.6839,313.5233 30.6611,-27.6012 c 0.4894,-0.4405 0.529,-1.194 0.0885,-1.6833 -0.4406,-0.4893 -1.194,-0.5289 -1.6834,-0.0884 l -30.6611,27.6012 c -0.4894,0.4405 -0.5289,1.194 -0.0885,1.6833 0.4406,0.4894 1.194,0.5289 1.6834,0.0884 z" clip-path="url(#398096106787-clipPath1)" id="path162" ns1:connector-curvature="0" style="stroke:none" />
      <path d="m 650.6839,313.5233 30.6611,-27.6012 c 0.4894,-0.4405 0.529,-1.194 0.0885,-1.6833 -0.4406,-0.4893 -1.194,-0.5289 -1.6834,-0.0884 l -30.6611,27.6012 c -0.4894,0.4405 -0.5289,1.194 -0.0885,1.6833 0.4406,0.4894 1.194,0.5289 1.6834,0.0884 z" clip-path="url(#398096106276-clipPath1)" id="path164" ns1:connector-curvature="0" style="fill:#f0abfc;stroke:none" />
    </g>
    <g id="g166" style="text-rendering:geometricPrecision;fill:#f0abfc;stroke:none">
      <path d="m 669.452,226.0827 27.5391,-47.6873 c 0.3293,-0.5702 0.1341,-1.299 -0.4361,-1.6283 -0.5702,-0.3292 -1.299,-0.134 -1.6282,0.4361 l -27.5391,47.6873 c -0.3293,0.5702 -0.1341,1.299 0.4361,1.6283 0.5702,0.3293 1.299,0.134 1.6282,-0.4361 z" clip-path="url(#398096106787-clipPath1)" id="path168" ns1:connector-curvature="0" style="stroke:none" />
    </g>
    <g id="g170" style="fill:#c4b5fd;stroke:none;text-rendering:geometricPrecision">
      <path d="m 695.9588,178.9912 44.7766,0.005 c 0.6585,1e-4 1.192,-0.5334 1.1921,-1.1918 10e-5,-0.6584 -0.5334,-1.192 -1.1918,-1.1921 l -44.7767,-0.005 c -0.6583,-1e-4 -1.192,0.5334 -1.192,1.1918 -1e-4,0.6584 0.5334,1.192 1.1918,1.192 z" clip-path="url(#398096106787-clipPath1)" id="path172" ns1:connector-curvature="0" style="stroke:none" />
      <path d="m 695.9588,178.9912 44.7766,0.005 c 0.6585,1e-4 1.192,-0.5334 1.1921,-1.1918 10e-5,-0.6584 -0.5334,-1.192 -1.1918,-1.1921 l -44.7767,-0.005 c -0.6583,-1e-4 -1.192,0.5334 -1.192,1.1918 -1e-4,0.6584 0.5334,1.192 1.1918,1.192 z" clip-path="url(#398096106723-clipPath1)" id="path174" ns1:connector-curvature="0" style="fill:#f0abfc;stroke:none" />
    </g>
    <g id="g176" style="fill:#fda4af;stroke:none;text-rendering:geometricPrecision">
      <path d="m 692.0587,183.3613 c 0.3292,0.5702 1.0579,0.7656 1.6282,0.4364 0.5702,-0.3291 0.7656,-1.0579 0.4365,-1.6281 l -21.6889,-37.5754 c -0.3292,-0.5703 -1.0579,-0.7656 -1.6282,-0.4365 -0.5702,0.3292 -0.7656,1.058 -0.4364,1.6282 z m 8.6027,-4.9655 c 0.3291,0.5702 1.0579,0.7656 1.6282,0.4364 0.5702,-0.3291 0.7655,-1.0579 0.4364,-1.6281 l -21.6888,-37.5755 c -0.3292,-0.5702 -1.058,-0.7655 -1.6282,-0.4364 -0.5703,0.3291 -0.7656,1.0579 -0.4365,1.6282 z" clip-path="url(#398096106787-clipPath1)" id="path178" ns1:connector-curvature="0" style="stroke:none" />
      <path d="m 692.0587,183.3613 c 0.3292,0.5702 1.0579,0.7656 1.6282,0.4364 0.5702,-0.3291 0.7656,-1.0579 0.4365,-1.6281 l -21.6889,-37.5754 c -0.3292,-0.5703 -1.0579,-0.7656 -1.6282,-0.4365 -0.5702,0.3292 -0.7656,1.058 -0.4364,1.6282 z m 8.6027,-4.9655 c 0.3291,0.5702 1.0579,0.7656 1.6282,0.4364 0.5702,-0.3291 0.7655,-1.0579 0.4364,-1.6281 l -21.6888,-37.5755 c -0.3292,-0.5702 -1.058,-0.7655 -1.6282,-0.4364 -0.5703,0.3291 -0.7656,1.0579 -0.4365,1.6282 z" clip-path="url(#398096106415-clipPath1)" id="path180" ns1:connector-curvature="0" style="fill:#f0abfc;stroke:none" />
    </g>
    <g id="g182" style="text-rendering:geometricPrecision;fill:#f0abfc;stroke:none">
      <path d="m 317.2412,450.2995 0,-55.0679 c 0,-0.6584 -0.5335,-1.192 -1.1919,-1.192 -0.6585,0 -1.192,0.5336 -1.192,1.192 l 0,55.0679 c 0,0.6584 0.5335,1.1919 1.192,1.1919 0.6584,0 1.1919,-0.5335 1.1919,-1.1919 z" clip-path="url(#398096106787-clipPath1)" id="path184" ns1:connector-curvature="0" style="stroke:none" />
    </g>
    <g id="g186" style="text-rendering:geometricPrecision;fill:#f0abfc;stroke:none">
      <path d="m 316.6452,394.1993 -47.6902,-27.534 c -0.5702,-0.3292 -1.299,-0.1339 -1.6282,0.4363 -0.3292,0.5702 -0.134,1.299 0.4362,1.6282 l 47.6903,27.534 c 0.5702,0.3292 1.299,0.1339 1.6282,-0.4363 0.3292,-0.5702 0.1339,-1.299 -0.4363,-1.6282 z" clip-path="url(#398096106787-clipPath1)" id="path188" ns1:connector-curvature="0" style="stroke:none" />
    </g>
    <g id="g190" style="text-rendering:geometricPrecision;fill:#f0abfc;stroke:none">
      <path d="m 269.5509,367.6976 0,-55.068 c 0,-0.6584 -0.5335,-1.1919 -1.1919,-1.1919 -0.6584,0 -1.1919,0.5335 -1.1919,1.1919 l 0,55.068 c 0,0.6584 0.5335,1.1919 1.1919,1.1919 0.6584,0 1.1919,-0.5335 1.1919,-1.1919 z" clip-path="url(#398096106787-clipPath1)" id="path192" ns1:connector-curvature="0" style="stroke:none" />
    </g>
    <g id="g194" style="text-rendering:geometricPrecision;fill:#f0abfc;stroke:none">
      <path d="m 239.6914,227.5168 -17.0143,52.3713 c -0.2034,0.6262 0.1391,1.2985 0.7653,1.5019 0.6262,0.2034 1.2985,-0.1391 1.5019,-0.7653 l 17.0143,-52.3713 c 0.2035,-0.6262 -0.1391,-1.2985 -0.7653,-1.5019 -0.6262,-0.2035 -1.2984,0.1391 -1.5019,0.7653 z" clip-path="url(#398096106787-clipPath1)" id="path196" ns1:connector-curvature="0" style="stroke:none" />
    </g>
    <g id="g198" style="text-rendering:geometricPrecision;fill:#f0abfc;stroke:none">
      <path d="m 268.6225,298.6861 c -0.5326,0.3871 -0.6505,1.1323 -0.2635,1.6649 0.3871,0.5326 1.1323,0.6506 1.6649,0.2635 l 30.9435,-22.4866 c 0.5327,-0.3871 0.6506,-1.1323 0.2636,-1.6649 -0.3871,-0.5327 -1.1323,-0.6507 -1.665,-0.2636 z m -0.9642,12.9793 c -0.5326,0.3871 -0.6506,1.1323 -0.2635,1.665 0.3871,0.5326 1.1323,0.6505 1.6649,0.2635 l 44.5483,-32.3733 c 0.5326,-0.3871 0.6506,-1.1323 0.2635,-1.6649 -0.387,-0.5327 -1.1323,-0.6506 -1.6649,-0.2636 z" clip-path="url(#398096106787-clipPath1)" id="path200" ns1:connector-curvature="0" style="stroke:none" />
    </g>
    <g id="g202" style="text-rendering:geometricPrecision;fill:#f0abfc;stroke:none">
      <path d="m 269.0597,311.6654 -44.5483,-32.3733 c -0.5326,-0.387 -1.2778,-0.2691 -1.6649,0.2636 -0.3871,0.5326 -0.2691,1.2778 0.2635,1.6649 l 44.5483,32.3733 c 0.5326,0.387 1.2779,0.2691 1.6649,-0.2635 0.3871,-0.5327 0.2691,-1.2779 -0.2635,-1.665 z" clip-path="url(#398096106787-clipPath1)" id="path204" ns1:connector-curvature="0" style="stroke:none" />
    </g>
    <g id="g206" style="text-rendering:geometricPrecision;fill:#f0abfc;stroke:none">
      <path d="m 203.7251,185.7915 -53.8611,11.4457 c -0.644,0.1369 -1.055,0.7697 -0.9181,1.4137 0.1368,0.6441 0.7696,1.055 1.4136,0.9181 l 53.8611,-11.4457 c 0.6441,-0.1369 1.0551,-0.7696 0.9182,-1.4137 -0.1369,-0.644 -0.7696,-1.055 -1.4137,-0.9181 z" clip-path="url(#398096106787-clipPath1)" id="path208" ns1:connector-curvature="0" style="stroke:none" />
    </g>
    <g id="g210" style="text-rendering:geometricPrecision;fill:#f0abfc;stroke:none">
      <path d="m 158.5513,208.4289 c 0.2035,-0.6262 -0.139,-1.2984 -0.7652,-1.5019 -0.6262,-0.2035 -1.2985,0.139 -1.5019,0.7652 l -12.7374,39.1984 c -0.2035,0.6262 0.1391,1.2985 0.7652,1.502 0.6262,0.2035 1.2985,-0.1391 1.502,-0.7653 z m -7.3059,-9.6574 c 0.2034,-0.6262 -0.1391,-1.2985 -0.7653,-1.5019 -0.6262,-0.2035 -1.2984,0.139 -1.5019,0.7652 l -17.0187,52.3739 c -0.2035,0.6262 0.139,1.2985 0.7652,1.5019 0.6262,0.2035 1.2985,-0.139 1.502,-0.7652 z" clip-path="url(#398096106787-clipPath1)" id="path212" ns1:connector-curvature="0" style="stroke:none" />
    </g>
    <g id="g214" style="text-rendering:geometricPrecision;fill:#f0abfc;stroke:none">
      <path d="m 132.2073,251.5746 36.8518,40.9287 c 0.4406,0.4893 1.1941,0.5287 1.6834,0.0882 0.4893,-0.4406 0.5288,-1.194 0.0882,-1.6834 l -36.8518,-40.9286 c -0.4406,-0.4893 -1.1941,-0.5288 -1.6834,-0.0882 -0.4893,0.4405 -0.5288,1.194 -0.0882,1.6833 z" clip-path="url(#398096106787-clipPath1)" id="path216" ns1:connector-curvature="0" style="stroke:none" />
    </g>
    <g id="g218" style="text-rendering:geometricPrecision;fill:#f0abfc;stroke:none">
      <path d="m 227.923,230.1818 c 0.4406,0.4893 1.194,0.5288 1.6833,0.0882 0.4893,-0.4406 0.5288,-1.1941 0.0882,-1.6834 l -27.5827,-30.6331 c -0.4406,-0.4893 -1.194,-0.5288 -1.6833,-0.0882 -0.4893,0.4405 -0.5288,1.194 -0.0882,1.6833 z m 12.0163,-1.4991 c 0.4405,0.4893 1.194,0.5288 1.6833,0.0882 0.4893,-0.4406 0.5288,-1.1941 0.0882,-1.6834 l -36.8521,-40.9277 c -0.4406,-0.4893 -1.1941,-0.5288 -1.6834,-0.0882 -0.4893,0.4406 -0.5288,1.1941 -0.0882,1.6833 z" clip-path="url(#398096106787-clipPath1)" id="path220" ns1:connector-curvature="0" style="stroke:none" />
    </g>
    <g id="g222" style="text-rendering:geometricPrecision;fill:#f0abfc;stroke:none">
      <path d="m 174.4073,279.3839 c -0.644,0.1369 -1.0549,0.7696 -0.918,1.4137 0.1368,0.644 0.7696,1.0549 1.4137,0.918 l 40.3148,-8.569 c 0.644,-0.1369 1.055,-0.7697 0.9181,-1.4137 -0.1369,-0.644 -0.7697,-1.055 -1.4137,-0.9181 z m -4.7102,11.1559 c -0.644,0.1369 -1.0549,0.7697 -0.9181,1.4137 0.1369,0.644 0.7697,1.055 1.4137,0.9181 l 53.8658,-11.4493 c 0.6441,-0.1369 1.055,-0.7697 0.9181,-1.4137 -0.1369,-0.6441 -0.7697,-1.055 -1.4137,-0.9181 z" clip-path="url(#398096106787-clipPath1)" id="path224" ns1:connector-curvature="0" style="stroke:none" />
    </g>
    <g id="g226" style="text-rendering:geometricPrecision;fill:#f0abfc;stroke:none">
      <path d="m 132.8453,249.6112 -53.8648,11.4484 c -0.644,0.1369 -1.0549,0.7697 -0.9181,1.4137 0.1369,0.6441 0.7697,1.055 1.4137,0.9181 l 53.8648,-11.4485 c 0.644,-0.1368 1.055,-0.7696 0.9181,-1.4136 -0.1369,-0.6441 -0.7697,-1.055 -1.4137,-0.9181 z" clip-path="url(#398096106787-clipPath1)" id="path228" ns1:connector-curvature="0" style="stroke:none" />
    </g>
    <g id="g230" style="fill:#c4b5fd;stroke:none;text-rendering:geometricPrecision">
      <path d="m 81.5413,273.1072 c 0.644,-0.1369 1.055,-0.7696 0.9181,-1.4137 -0.1369,-0.644 -0.7697,-1.0549 -1.4137,-0.918 l -43.4298,9.2312 c -0.644,0.1369 -1.0549,0.7697 -0.9181,1.4137 0.1369,0.6441 0.7697,1.055 1.4138,0.9181 z m -2.0651,-9.7158 c 0.644,-0.1369 1.0549,-0.7697 0.918,-1.4137 -0.1369,-0.644 -0.7697,-1.0549 -1.4137,-0.9181 l -43.4297,9.2313 c -0.6441,0.1369 -1.055,0.7697 -0.9181,1.4137 0.1369,0.6441 0.7697,1.055 1.4137,0.9181 z m -2.0652,-9.7158 c 0.644,-0.1369 1.055,-0.7697 0.9181,-1.4137 -0.1369,-0.644 -0.7697,-1.055 -1.4137,-0.9181 l -43.4298,9.2313 c -0.644,0.1369 -1.055,0.7697 -0.9181,1.4137 0.1369,0.644 0.7697,1.055 1.4137,0.9181 z" clip-path="url(#398096106787-clipPath1)" id="path232" ns1:connector-curvature="0" style="stroke:none" />
      <path d="m 81.5413,273.1072 c 0.644,-0.1369 1.055,-0.7696 0.9181,-1.4137 -0.1369,-0.644 -0.7697,-1.0549 -1.4137,-0.918 l -43.4298,9.2312 c -0.644,0.1369 -1.0549,0.7697 -0.9181,1.4137 0.1369,0.6441 0.7697,1.055 1.4138,0.9181 z m -2.0651,-9.7158 c 0.644,-0.1369 1.0549,-0.7697 0.918,-1.4137 -0.1369,-0.644 -0.7697,-1.0549 -1.4137,-0.9181 l -43.4297,9.2313 c -0.6441,0.1369 -1.055,0.7697 -0.9181,1.4137 0.1369,0.6441 0.7697,1.055 1.4137,0.9181 z m -2.0652,-9.7158 c 0.644,-0.1369 1.055,-0.7697 0.9181,-1.4137 -0.1369,-0.644 -0.7697,-1.055 -1.4137,-0.9181 l -43.4298,9.2313 c -0.644,0.1369 -1.055,0.7697 -0.9181,1.4137 0.1369,0.644 0.7697,1.055 1.4137,0.9181 z" clip-path="url(#39809610693-clipPath1)" id="path234" ns1:connector-curvature="0" style="fill:#f0abfc;stroke:none" />
    </g>
    <g id="g236" style="fill:#c4b5fd;stroke:none;text-rendering:geometricPrecision">
      <path d="m 314.0409,279.8881 -12.4868,-38.4354 c -0.2035,-0.6261 -0.8757,-0.9687 -1.5019,-0.7653 -0.6262,0.2035 -0.9688,0.8757 -0.7653,1.5019 l 12.4868,38.4354 c 0.2034,0.6262 0.8757,0.9687 1.5019,0.7653 0.6262,-0.2034 0.9688,-0.8757 0.7653,-1.5019 z" clip-path="url(#398096106787-clipPath1)" id="path238" ns1:connector-curvature="0" style="stroke:none" />
      <path d="m 314.0409,279.8881 -12.4868,-38.4354 c -0.2035,-0.6261 -0.8757,-0.9687 -1.5019,-0.7653 -0.6262,0.2035 -0.9688,0.8757 -0.7653,1.5019 l 12.4868,38.4354 c 0.2034,0.6262 0.8757,0.9687 1.5019,0.7653 0.6262,-0.2034 0.9688,-0.8757 0.7653,-1.5019 z" clip-path="url(#398096106988-clipPath1)" id="path240" ns1:connector-curvature="0" style="fill:#f0abfc;stroke:none" />
    </g>
    <g id="g242" style="text-rendering:geometricPrecision;fill:#f0abfc;stroke:none">
      <path d="m 285.6018,226.6932 -44.7768,0 c -0.6584,0 -1.1919,0.5335 -1.1919,1.1919 0,0.6584 0.5335,1.1919 1.1919,1.1919 l 44.7768,0 c 0.6584,0 1.1919,-0.5335 1.1919,-1.1919 0,-0.6584 -0.5335,-1.1919 -1.1919,-1.1919 z" clip-path="url(#398096106787-clipPath1)" id="path244" ns1:connector-curvature="0" style="stroke:none" />
      <path d="m 285.6018,226.6932 -44.7768,0 c -0.6584,0 -1.1919,0.5335 -1.1919,1.1919 0,0.6584 0.5335,1.1919 1.1919,1.1919 l 44.7768,0 c 0.6584,0 1.1919,-0.5335 1.1919,-1.1919 0,-0.6584 -0.5335,-1.1919 -1.1919,-1.1919 z" clip-path="url(#398096106584-clipPath1)" id="path246" ns1:connector-curvature="0" style="fill:#c4b5fd;stroke:none" />
    </g>
    <g id="g248" style="fill:#eef2ff;stroke:none;text-rendering:geometricPrecision">
      </g>
    <g font-size="19px" transform="translate(404.4063,438.2995)" id="g252" style="font-size:19px;font-family:sans-serif;fill:#c4b5fd;stroke:none;text-rendering:geometricPrecision">
      <text x="0" xml:space="preserve" y="19" clip-path="url(#398096106517-clipPath1)" id="text254" style="stroke:none">N</text>
    </g>
    <g font-size="19px" id="g256" style="font-size:19px;font-family:sans-serif;fill:#eef2ff;stroke:none;text-rendering:geometricPrecision">
      <text x="0" y="19" transform="translate(499.7867,383.2316)" clip-path="url(#398096106164-clipPath1)" xml:space="preserve" id="text260" style="fill:#c4b5fd;stroke:none">N</text>
    </g>
    <g font-size="19px" id="g262" style="font-size:19px;font-family:sans-serif;fill:#eef2ff;stroke:none;text-rendering:geometricPrecision">
      <text x="0" y="19" transform="translate(683.5539,263.7965)" clip-path="url(#398096106630-clipPath1)" xml:space="preserve" id="text266" style="fill:#fda4af;stroke:none">O</text>
    </g>
    <g font-size="19px" id="g268" style="font-size:19px;font-family:sans-serif;fill:#eef2ff;stroke:none;text-rendering:geometricPrecision">
      <text x="0" y="19" transform="translate(661.1722,118.1061)" clip-path="url(#398096106286-clipPath1)" xml:space="preserve" id="text272" style="fill:#fda4af;stroke:none">O</text>
    </g>
    <g font-size="19px" id="g274" style="font-size:19px;font-family:sans-serif;fill:#eef2ff;stroke:none;text-rendering:geometricPrecision">
      <text x="0" y="19" transform="translate(744.5034,165.8052)" clip-path="url(#398096106452-clipPath1)" xml:space="preserve" id="text278" style="fill:#c4b5fd;stroke:none">NH</text>
    </g>
    <g font-size="14px" transform="translate(771.4878,176.6575)" id="g280" style="font-size:14px;font-family:sans-serif;fill:#c4b5fd;stroke:none;text-rendering:geometricPrecision">
      <text x="0" xml:space="preserve" y="14" clip-path="url(#398096106730-clipPath1)" id="text282" style="stroke:none">2</text>
    </g>
    <g font-size="14px" id="g284" style="font-size:14px;font-family:sans-serif;fill:#eef2ff;stroke:none;text-rendering:geometricPrecision">
      <text x="0" font-size="19px" y="19" transform="translate(289.3695,215.8851)" clip-path="url(#398096106373-clipPath1)" xml:space="preserve" id="text288" style="font-size:19px;fill:#c4b5fd;stroke:none">NH</text>
    </g>
    <g font-size="19px" id="g290" style="font-size:19px;font-family:sans-serif;fill:#eef2ff;stroke:none;text-rendering:geometricPrecision">
      <text x="0" y="19" transform="translate(18.3403,261.6748)" clip-path="url(#398096106432-clipPath1)" xml:space="preserve" id="text294" style="fill:#c4b5fd;stroke:none">N</text>
    </g>
  </g>
</svg>