<?xml version='1.0' encoding='utf-8'?>
<svg xmlns="http://www.w3.org/2000/svg" xmlns:dc="http://purl.org/dc/elements/1.1/" xmlns:ns1="http://www.inkscape.org/namespaces/inkscape" xmlns:ns2="http://sodipodi.sourceforge.net/DTD/sodipodi-0.dtd" xmlns:ns4="http://creativecommons.org/ns#" xmlns:rdf="http://www.w3.org/1999/02/22-rdf-syntax-ns#" width="729.21497" stroke-miterlimit="10" font-weight="normal" height="293.61606" font-style="normal" font-size="12px" id="svg2" version="1.1" ns1:version="0.91 r13725" ns2:docname="Xylopropamine.svg" style="font-style:normal;font-weight:normal;font-size:12px;font-family:Dialog;color-interpolation:auto;fill:#f0abfc;fill-opacity:1;stroke:none;stroke:none;stroke:none;stroke:none;stroke:none;stroke:none;stroke:none;stroke:none;color-rendering:auto;image-rendering:auto;shape-rendering:auto;text-rendering:auto">
  <metadata id="metadata84">
    <rdf:RDF>
      <ns4:Work rdf:about="">
        <dc:format>image/svg+xml</dc:format>
        <dc:type rdf:resource="http://purl.org/dc/dcmitype/StillImage" />
        <dc:title />
      </ns4:Work>
    </rdf:RDF>
  </metadata>
  <ns2:namedview pagecolor="#eef2ff" bordercolor="#666666" borderopacity="1" objecttolerance="10" gridtolerance="10" guidetolerance="10" ns1:pageopacity="0" ns1:pageshadow="2" ns1:window-width="1060" ns1:window-height="480" id="namedview82" showgrid="false" fit-margin-top="10" fit-margin-left="10" fit-margin-right="10" fit-margin-bottom="10" ns1:zoom="0.36375" ns1:cx="364.41495" ns1:cy="146.61546" ns1:window-x="0" ns1:window-y="0" ns1:window-maximized="0" ns1:current-layer="svg2" />
  
  <defs id="genericDefs" />
  <g id="g5" transform="translate(-35.585047,-152.9994)" style="fill:#f0abfc;stroke:none">
    <defs id="1298582724994-defs1">
      <clipPath clipPathUnits="userSpaceOnUse" id="1298582724553-clipPath1">
        <path d="M 0,0 800,0 800,600 0,600 0,0 Z" id="path9" ns1:connector-curvature="0" style="stroke:none" />
      </clipPath>
      <clipPath clipPathUnits="userSpaceOnUse" id="1298582724792-clipPath1">
        <path d="m 581.4991,196.6675 c -27.2279,0 -49.3006,22.0726 -49.3006,49.3006 0,27.2279 22.0727,49.3005 49.3006,49.3005 27.228,0 49.3006,-22.0726 49.3006,-49.3005 0,-27.228 -22.0726,-49.3006 -49.3006,-49.3006 z" id="path12" ns1:connector-curvature="0" style="stroke:none" />
      </clipPath>
      <clipPath clipPathUnits="userSpaceOnUse" id="1298582724833-clipPath1">
        <path d="m -674.0969,-157.3217 799.9999,0 0,600 -799.9999,0 0,-600 z" id="path15" ns1:connector-curvature="0" style="stroke:none" />
      </clipPath>
      <clipPath clipPathUnits="userSpaceOnUse" id="129858272442-clipPath1">
        <path d="m -733.7844,-179.2187 799.9999,0 0,600 -799.9999,0 0,-600 z" id="path18" ns1:connector-curvature="0" style="stroke:none" />
      </clipPath>
    </defs>
    <g id="g20" style="text-rendering:geometricPrecision;fill:#f0abfc;stroke:none">
      <path d="m 144.7057,371.2507 c 0,1.4982 1.2139,2.7122 2.7121,2.7122 1.4982,0 2.7122,-1.214 2.7122,-2.7122 l 0,-125.3193 c 0,-1.4981 -1.214,-2.7121 -2.7122,-2.7121 -1.4982,0 -2.7121,1.214 -2.7121,2.7121 z m 22.6017,-15.762 c 0,1.4982 1.214,2.7122 2.7122,2.7122 1.4982,0 2.7121,-1.214 2.7121,-2.7122 l 0,-93.7943 c 0,-1.4982 -1.2139,-2.7122 -2.7121,-2.7122 -1.4982,0 -2.7122,1.214 -2.7122,2.7122 z" clip-path="url(#1298582724553-clipPath1)" id="path22" ns1:connector-curvature="0" style="stroke:none" />
    </g>
    <g id="g24" style="text-rendering:geometricPrecision;fill:#f0abfc;stroke:none">
      <path d="m 256.9384,404.1006 c -1.2975,0.749 -1.742,2.4073 -0.993,3.7048 0.7489,1.2976 2.4072,1.7421 3.7048,0.9931 l 81.2144,-46.8799 c 1.2975,-0.749 1.742,-2.4072 0.993,-3.7048 -0.749,-1.2975 -2.4073,-1.742 -3.7048,-0.993 z m -2.3495,27.4531 c -1.2975,0.749 -1.742,2.4073 -0.9931,3.7049 0.749,1.2975 2.4073,1.742 3.7049,0.993 l 108.5138,-62.638 c 1.2975,-0.749 1.742,-2.4073 0.993,-3.7048 -0.749,-1.2976 -2.4073,-1.7421 -3.7048,-0.9931 z" clip-path="url(#1298582724553-clipPath1)" id="path26" ns1:connector-curvature="0" style="stroke:none" />
    </g>
    <g id="g28" style="text-rendering:geometricPrecision;fill:#f0abfc;stroke:none">
      <path d="m 367.1707,371.2648 0.008,-125.3078 c 1e-4,-1.4982 -1.2138,-2.7123 -2.712,-2.7124 -1.4982,-1e-4 -2.7122,1.2139 -2.7123,2.712 l -0.008,125.3079 c -10e-5,1.4982 1.2138,2.7122 2.712,2.7123 1.4982,10e-5 2.7123,-1.2138 2.7123,-2.712 z" clip-path="url(#1298582724553-clipPath1)" id="path30" ns1:connector-curvature="0" style="stroke:none" />
    </g>
    <g id="g32" style="text-rendering:geometricPrecision;fill:#f0abfc;stroke:none">
      <path d="m 338.1587,259.9974 c 1.2974,0.7492 2.9558,0.3048 3.7049,-0.9926 0.7492,-1.2974 0.3049,-2.9558 -0.9925,-3.7049 l -81.2289,-46.9022 c -1.2975,-0.7492 -2.9558,-0.3049 -3.705,0.9925 -0.7491,1.2975 -0.3048,2.9558 0.9926,3.705 z M 363.11,248.3056 c 1.2974,0.7491 2.9558,0.3048 3.7049,-0.9926 0.7492,-1.2974 0.3049,-2.9558 -0.9925,-3.705 l -108.527,-62.6642 c -1.2974,-0.7492 -2.9558,-0.3049 -3.7049,0.9925 -0.7492,1.2975 -0.3049,2.9559 0.9925,3.705 z" clip-path="url(#1298582724553-clipPath1)" id="path34" ns1:connector-curvature="0" style="stroke:none" />
    </g>
    <g id="g36" style="text-rendering:geometricPrecision;fill:#f0abfc;stroke:none">
      <path d="m 146.0619,373.5995 108.5269,62.6521 c 1.2975,0.749 2.9558,0.3046 3.7048,-0.9929 0.7491,-1.2975 0.3047,-2.9558 -0.9928,-3.7049 l -108.527,-62.652 c -1.2975,-0.7491 -2.9558,-0.3046 -3.7048,0.9929 -0.7491,1.2975 -0.3047,2.9558 0.9929,3.7048 z" clip-path="url(#1298582724553-clipPath1)" id="path38" ns1:connector-curvature="0" style="stroke:none" />
    </g>
    <g id="g40" style="text-rendering:geometricPrecision;fill:#f0abfc;stroke:none">
      <path d="M 254.5834,180.9436 146.062,243.5825 c -1.2975,0.7489 -1.7421,2.4072 -0.9931,3.7048 0.7489,1.2975 2.4072,1.7421 3.7048,0.9931 L 257.295,185.6415 c 1.2976,-0.749 1.7421,-2.4072 0.9932,-3.7048 -0.749,-1.2976 -2.4072,-1.7421 -3.7048,-0.9931 z" clip-path="url(#1298582724553-clipPath1)" id="path42" ns1:connector-curvature="0" style="stroke:none" />
    </g>
    <g id="g44" style="text-rendering:geometricPrecision;fill:#f0abfc;stroke:none">
      <path d="m 365.8221,248.3057 108.5198,-62.6464 c 1.2974,-0.749 1.7419,-2.4073 0.9929,-3.7048 -0.749,-1.2976 -2.4074,-1.742 -3.7049,-0.993 l -108.5197,62.6464 c -1.2975,0.749 -1.742,2.4074 -0.9929,3.7049 0.749,1.2975 2.4073,1.7419 3.7048,0.9929 z" clip-path="url(#1298582724553-clipPath1)" id="path46" ns1:connector-curvature="0" style="stroke:none" />
    </g>
    <g id="g48" style="text-rendering:geometricPrecision;fill:#f0abfc;stroke:none">
      <path d="m 471.6297,185.6592 108.5132,62.6576 c 1.2974,0.7492 2.9558,0.3049 3.7049,-0.9925 0.7492,-1.2975 0.305,-2.9558 -0.9925,-3.705 L 474.3421,180.9617 c -1.2975,-0.7492 -2.9558,-0.3049 -3.705,0.9925 -0.7491,1.2974 -0.3049,2.9558 0.9926,3.705 z" clip-path="url(#1298582724553-clipPath1)" id="path50" ns1:connector-curvature="0" style="stroke:none" />
    </g>
    <g id="g52" style="fill:#c4b5fd;stroke:none;text-rendering:geometricPrecision">
      <path d="m 582.8551,248.3169 85.3936,-49.2961 c 1.2975,-0.749 1.742,-2.4073 0.9929,-3.7048 -0.749,-1.2976 -2.4074,-1.742 -3.7049,-0.993 l -85.3936,49.2962 c -1.2975,0.749 -1.7419,2.4073 -0.9929,3.7048 0.749,1.2975 2.4074,1.742 3.7049,0.9929 z" clip-path="url(#1298582724553-clipPath1)" id="path54" ns1:connector-curvature="0" style="stroke:none" />
      <path d="m 582.8551,248.3169 85.3936,-49.2961 c 1.2975,-0.749 1.742,-2.4073 0.9929,-3.7048 -0.749,-1.2976 -2.4074,-1.742 -3.7049,-0.993 l -85.3936,49.2962 c -1.2975,0.749 -1.7419,2.4073 -0.9929,3.7048 0.749,1.2975 2.4074,1.742 3.7049,0.9929 z" clip-path="url(#1298582724792-clipPath1)" id="path56" ns1:connector-curvature="0" style="fill:#f0abfc;stroke:none" />
    </g>
    <g id="g58" style="text-rendering:geometricPrecision;fill:#f0abfc;stroke:none">
      <path d="m 578.7869,245.9679 -0.006,114.4553 c -10e-5,1.4982 1.2138,2.7123 2.712,2.7124 1.4982,0 2.7123,-1.2139 2.7124,-2.7121 l 0.006,-114.4553 c 10e-5,-1.4982 -1.2139,-2.7122 -2.712,-2.7123 -1.4983,-1e-4 -2.7123,1.2138 -2.7124,2.712 z" clip-path="url(#1298582724553-clipPath1)" id="path60" ns1:connector-curvature="0" style="stroke:none" />
    </g>
    <g id="g62" style="text-rendering:geometricPrecision;fill:#f0abfc;stroke:none">
      <path d="m 146.0617,368.9019 -99.12,57.2297 c -1.2975,0.7491 -1.7418,2.4075 -0.9927,3.7049 0.7492,1.2975 2.4075,1.7418 3.705,0.9927 l 99.12,-57.2297 c 1.2974,-0.7492 1.7418,-2.4075 0.9926,-3.705 -0.7491,-1.2974 -2.4074,-1.7418 -3.7049,-0.9926 z" clip-path="url(#1298582724553-clipPath1)" id="path64" ns1:connector-curvature="0" style="stroke:none" />
    </g>
    <g id="g66" style="text-rendering:geometricPrecision;fill:#f0abfc;stroke:none">
      <path d="M 148.7741,243.5827 49.656,186.3496 c -1.2974,-0.7492 -2.9558,-0.3049 -3.705,0.9925 -0.7491,1.2974 -0.3049,2.9558 0.9926,3.705 l 99.118,57.2331 c 1.2975,0.7492 2.9558,0.3049 3.705,-0.9925 0.7492,-1.2975 0.3049,-2.9558 -0.9925,-3.705 z" clip-path="url(#1298582724553-clipPath1)" id="path68" ns1:connector-curvature="0" style="stroke:none" />
    </g>
    <g id="g70" style="fill:#eef2ff;stroke:none;text-rendering:geometricPrecision">
      </g>
    <g font-size="44px" transform="translate(674.097,157.3217)" id="g74" style="font-size:44px;font-family:sans-serif;fill:#c4b5fd;stroke:none;text-rendering:geometricPrecision">
      <text x="0" xml:space="preserve" y="42" clip-path="url(#1298582724833-clipPath1)" id="text76" style="stroke:none">NH</text>
    </g>
    <g font-size="36px" transform="translate(733.7845,179.2187)" id="g78" style="font-size:36px;font-family:sans-serif;fill:#c4b5fd;stroke:none;text-rendering:geometricPrecision">
      <text x="0" xml:space="preserve" y="35" clip-path="url(#129858272442-clipPath1)" id="text80" style="stroke:none">2</text>
    </g>
  </g>
</svg>