<?xml version='1.0' encoding='utf-8'?>
<svg xmlns="http://www.w3.org/2000/svg" xmlns:dc="http://purl.org/dc/elements/1.1/" xmlns:ns1="http://www.inkscape.org/namespaces/inkscape" xmlns:ns2="http://sodipodi.sourceforge.net/DTD/sodipodi-0.dtd" xmlns:ns4="http://creativecommons.org/ns#" xmlns:rdf="http://www.w3.org/1999/02/22-rdf-syntax-ns#" width="699.40302" stroke-miterlimit="10" font-weight="normal" height="418.00211" font-style="normal" font-size="12px" id="svg2" version="1.1" ns1:version="0.91 r13725" ns2:docname="Yangonin.svg" style="font-style:normal;font-weight:normal;font-size:12px;font-family:Dialog;color-interpolation:auto;fill:#f5d0fe;fill-opacity:1;stroke:none;stroke:none;stroke:none;stroke:none;stroke:none;stroke:none;stroke:none;stroke:none;color-rendering:auto;image-rendering:auto;shape-rendering:auto;text-rendering:auto">
  <metadata id="metadata156">
    <rdf:RDF>
      <ns4:Work rdf:about="">
        <dc:format>image/svg+xml</dc:format>
        <dc:type rdf:resource="http://purl.org/dc/dcmitype/StillImage" />
        <dc:title />
      </ns4:Work>
    </rdf:RDF>
  </metadata>
  <ns2:namedview pagecolor="#eef2ff" bordercolor="#666666" borderopacity="1" objecttolerance="10" gridtolerance="10" guidetolerance="10" ns1:pageopacity="0" ns1:pageshadow="2" ns1:window-width="1920" ns1:window-height="1058" id="namedview154" showgrid="false" fit-margin-top="10" fit-margin-right="10" fit-margin-bottom="10" fit-margin-left="10" ns1:zoom="0.36375" ns1:cx="469.2625" ns1:cy="136.32882" ns1:window-x="-8" ns1:window-y="-8" ns1:window-maximized="1" ns1:current-layer="svg2" />
  
  <defs id="genericDefs" />
  <g id="g5" transform="translate(-50.325131,-18.326729)" style="fill:#f5d0fe;stroke:none">
    <defs id="2036425599508-defs1">
      <clipPath clipPathUnits="userSpaceOnUse" id="2036425599423-clipPath1">
        <path d="M 0,0 800,0 800,600 0,600 0,0 Z" id="path9" ns1:connector-curvature="0" style="stroke:none" />
      </clipPath>
      <clipPath clipPathUnits="userSpaceOnUse" id="2036425599597-clipPath1">
        <path d="m 611.3878,260.2177 c -16.4648,0 -29.8121,13.3473 -29.8121,29.812 0,16.4647 13.3473,29.812 29.8121,29.812 16.4647,0 29.8119,-13.3473 29.8119,-29.812 0,-16.4647 -13.3472,-29.812 -29.8119,-29.812 z" id="path12" ns1:connector-curvature="0" style="stroke:none" />
      </clipPath>
      <clipPath clipPathUnits="userSpaceOnUse" id="2036425599245-clipPath1">
        <path d="m 528.1595,230.4117 c -16.4627,0 -29.8084,13.3457 -29.8084,29.8084 0,16.4627 13.3457,29.8084 29.8084,29.8084 16.4628,0 29.8085,-13.3457 29.8085,-29.8084 0,-16.4627 -13.3457,-29.8084 -29.8085,-29.8084 z" id="path15" ns1:connector-curvature="0" style="stroke:none" />
      </clipPath>
      <clipPath clipPathUnits="userSpaceOnUse" id="2036425599204-clipPath1">
        <path d="m 663.0236,230.6506 c -16.3294,0 -29.5671,13.2377 -29.5671,29.5671 0,16.3295 13.2377,29.5672 29.5671,29.5672 16.3295,0 29.5672,-13.2377 29.5672,-29.5672 0,-16.3294 -13.2377,-29.5671 -29.5672,-29.5671 z" id="path18" ns1:connector-curvature="0" style="stroke:none" />
      </clipPath>
      <clipPath clipPathUnits="userSpaceOnUse" id="2036425599395-clipPath1">
        <path d="m 595.5936,114.6276 c -15.9046,0 -28.7979,12.8933 -28.7979,28.7979 0,15.9047 12.8933,28.7979 28.7979,28.7979 15.9046,0 28.7979,-12.8932 28.7979,-28.7979 0,-15.9046 -12.8933,-28.7979 -28.7979,-28.7979 z" id="path21" ns1:connector-curvature="0" style="stroke:none" />
      </clipPath>
      <clipPath clipPathUnits="userSpaceOnUse" id="2036425599279-clipPath1">
        <path d="m 611.3983,30.0095 c -14.6006,0 -26.4369,11.8362 -26.4369,26.4369 0,14.6007 11.8363,26.4369 26.4369,26.4369 14.6007,0 26.437,-11.8362 26.437,-26.4369 0,-14.6007 -11.8363,-26.4369 -26.437,-26.4369 z" id="path24" ns1:connector-curvature="0" style="stroke:none" />
      </clipPath>
      <clipPath clipPathUnits="userSpaceOnUse" id="2036425599210-clipPath1">
        <path d="m 191.0275,347.2115 c -16.4621,0 -29.8073,13.3451 -29.8073,29.8073 0,16.4621 13.3452,29.8072 29.8073,29.8072 16.4621,0 29.8073,-13.3451 29.8073,-29.8072 0,-16.4622 -13.3452,-29.8073 -29.8073,-29.8073 z" id="path27" ns1:connector-curvature="0" style="stroke:none" />
      </clipPath>
      <clipPath clipPathUnits="userSpaceOnUse" id="2036425599132-clipPath1">
        <path d="m 107.8,380.3874 c -14.6007,0 -26.4368,11.8362 -26.4368,26.4368 0,14.6006 11.8361,26.4368 26.4368,26.4368 14.6006,0 26.4367,-11.8362 26.4367,-26.4368 0,-14.6006 -11.8361,-26.4368 -26.4367,-26.4368 z" id="path30" ns1:connector-curvature="0" style="stroke:none" />
      </clipPath>
      <clipPath clipPathUnits="userSpaceOnUse" id="2036425599257-clipPath1">
        <path d="m -585.1273,-283.1516 800.0001,0 0,600 -800.0001,0 0,-600 z" id="path33" ns1:connector-curvature="0" style="stroke:none" />
      </clipPath>
      <clipPath clipPathUnits="userSpaceOnUse" id="2036425599743-clipPath1">
        <path d="m -719.9923,-283.1428 800,0 0,600 -800,0 0,-600 z" id="path36" ns1:connector-curvature="0" style="stroke:none" />
      </clipPath>
      <clipPath clipPathUnits="userSpaceOnUse" id="2036425599612-clipPath1">
        <path d="m -585.1375,-49.5672 800,0 0,599.9999 -800,0 0,-599.9999 z" id="path39" ns1:connector-curvature="0" style="stroke:none" />
      </clipPath>
      <clipPath clipPathUnits="userSpaceOnUse" id="2036425599506-clipPath1">
        <path d="m -113.1385,-399.9465 800.0001,0 0,600 -800.0001,0 0,-600 z" id="path42" ns1:connector-curvature="0" style="stroke:none" />
      </clipPath>
    </defs>
    <g id="g44" style="text-rendering:geometricPrecision;fill:#f5d0fe;stroke:none">
      <path d="m 257.8318,278.7403 c 0.8062,-0.4655 1.0823,-1.4959 0.6167,-2.302 -0.4654,-0.8062 -1.4959,-1.0823 -2.302,-0.6168 l -50.4586,29.1352 c -0.8061,0.4654 -1.0822,1.4959 -0.6167,2.3021 0.4655,0.8061 1.4959,1.0822 2.3021,0.6167 z m 1.4589,-17.059 c 0.8062,-0.4655 1.0823,-1.4959 0.6168,-2.3021 -0.4655,-0.8062 -1.4959,-1.0822 -2.3021,-0.6167 l -67.4206,38.9291 c -0.8061,0.4655 -1.0822,1.4959 -0.6167,2.3021 0.4655,0.8062 1.4959,1.0822 2.3021,0.6167 z" clip-path="url(#2036425599423-clipPath1)" id="path46" ns1:connector-curvature="0" style="stroke:none" />
    </g>
    <g id="g48" style="text-rendering:geometricPrecision;fill:#f5d0fe;stroke:none">
      <path d="m 189.3423,299.151 0,77.8678 c 0,0.9309 0.7543,1.6852 1.6852,1.6852 0.9309,0 1.6852,-0.7543 1.6852,-1.6852 l 0,-77.8678 c 0,-0.9309 -0.7543,-1.6852 -1.6852,-1.6852 -0.9309,0 -1.6852,0.7543 -1.6852,1.6852 z" clip-path="url(#2036425599423-clipPath1)" id="path50" ns1:connector-curvature="0" style="stroke:none" />
    </g>
    <g id="g52" style="text-rendering:geometricPrecision;fill:#f5d0fe;stroke:none">
      <path d="m 207.3733,368.2943 c -0.8062,-0.4655 -1.8366,-0.1894 -2.3021,0.6167 -0.4655,0.8062 -0.1894,1.8367 0.6167,2.3021 l 50.4586,29.1352 c 0.8061,0.4655 1.8366,0.1894 2.302,-0.6168 0.4656,-0.8061 0.1895,-1.8366 -0.6167,-2.3021 z m -15.5031,7.2651 c -0.8062,-0.4655 -1.8366,-0.1895 -2.3021,0.6167 -0.4655,0.8062 -0.1895,1.8366 0.6167,2.3021 l 67.4206,38.9291 c 0.8062,0.4655 1.8366,0.1895 2.3021,-0.6167 0.4655,-0.8062 0.1894,-1.8366 -0.6168,-2.3021 z" clip-path="url(#2036425599423-clipPath1)" id="path54" ns1:connector-curvature="0" style="stroke:none" />
    </g>
    <g id="g56" style="text-rendering:geometricPrecision;fill:#f5d0fe;stroke:none">
      <path d="m 259.2906,417.4074 67.4301,-38.9292 c 0.8062,-0.4654 1.0823,-1.4958 0.6169,-2.302 -0.4655,-0.8062 -1.4959,-1.0824 -2.3021,-0.6169 l -67.43,38.9291 c -0.8062,0.4655 -1.0823,1.4959 -0.6169,2.3021 0.4654,0.8062 1.4959,1.0823 2.302,0.6169 z" clip-path="url(#2036425599423-clipPath1)" id="path58" ns1:connector-curvature="0" style="stroke:none" />
    </g>
    <g id="g60" style="text-rendering:geometricPrecision;fill:#f5d0fe;stroke:none">
      <path d="m 310.1492,367.2253 c 0,0.9309 0.7543,1.6852 1.6852,1.6852 0.9309,0 1.6852,-0.7543 1.6852,-1.6852 l 0,-58.2808 c 0,-0.9309 -0.7543,-1.6852 -1.6852,-1.6852 -0.9309,0 -1.6852,0.7543 -1.6852,1.6852 z m 14.0436,9.7935 c 0,0.9309 0.7544,1.6852 1.6853,1.6852 0.9309,0 1.6852,-0.7543 1.6852,-1.6852 l 0,-77.8678 c 0,-0.9309 -0.7543,-1.6852 -1.6852,-1.6852 -0.9309,0 -1.6853,0.7543 -1.6853,1.6852 z" clip-path="url(#2036425599423-clipPath1)" id="path62" ns1:connector-curvature="0" style="stroke:none" />
    </g>
    <g id="g64" style="text-rendering:geometricPrecision;fill:#f5d0fe;stroke:none">
      <path d="m 326.7207,297.6916 -67.4301,-38.9292 c -0.8061,-0.4654 -1.8366,-0.1893 -2.302,0.6169 -0.4654,0.8062 -0.1893,1.8366 0.6169,2.302 l 67.43,38.9292 c 0.8062,0.4654 1.8366,0.1893 2.3021,-0.6169 0.4654,-0.8062 0.1893,-1.8366 -0.6169,-2.302 z" clip-path="url(#2036425599423-clipPath1)" id="path66" ns1:connector-curvature="0" style="stroke:none" />
    </g>
    <g id="g68" style="text-rendering:geometricPrecision;fill:#f5d0fe;stroke:none">
      <path d="m 326.7207,300.6105 67.4269,-38.9298 c 0.8062,-0.4654 1.0823,-1.4959 0.6169,-2.302 -0.4655,-0.8063 -1.4959,-1.0823 -2.3021,-0.6169 l -67.4269,38.9298 c -0.8062,0.4654 -1.0823,1.4959 -0.6169,2.3021 0.4655,0.8061 1.4959,1.0822 2.3021,0.6168 z" clip-path="url(#2036425599423-clipPath1)" id="path70" ns1:connector-curvature="0" style="stroke:none" />
    </g>
    <g id="g72" style="text-rendering:geometricPrecision;fill:#f5d0fe;stroke:none">
      <path d="M 527.3169,258.7607 459.89,297.6904 c -0.8062,0.4655 -1.0823,1.4959 -0.6168,2.3021 0.4654,0.8061 1.4958,1.0822 2.302,0.6168 l 67.427,-38.9298 c 0.8061,-0.4654 1.0823,-1.4958 0.6168,-2.302 -0.4655,-0.8062 -1.4959,-1.0823 -2.3021,-0.6168 z" clip-path="url(#2036425599423-clipPath1)" id="path74" ns1:connector-curvature="0" style="stroke:none" />
    </g>
    <g id="g76" style="text-rendering:geometricPrecision;fill:#f5d0fe;stroke:none">
      <path d="m 664.7089,260.2175 -0.01,-77.8559 c -10e-5,-0.9309 -0.7545,-1.6851 -1.6854,-1.685 -0.931,1e-4 -1.6852,0.7545 -1.685,1.6854 l 0.01,77.856 c 1e-4,0.9309 0.7545,1.6851 1.6854,1.685 0.9309,-1e-4 1.6852,-0.7546 1.6851,-1.6855 z" clip-path="url(#2036425599423-clipPath1)" id="path78" ns1:connector-curvature="0" style="stroke:none" />
    </g>
    <g id="g80" style="text-rendering:geometricPrecision;fill:#f5d0fe;stroke:none">
      <path d="m 646.6693,191.0859 c 0.8061,0.4656 1.8365,0.1896 2.3021,-0.6166 0.4656,-0.8061 0.1895,-1.8365 -0.6166,-2.3021 l -50.46,-29.1414 c -0.8062,-0.4655 -1.8366,-0.1896 -2.3022,0.6166 -0.4655,0.8061 -0.1896,1.8366 0.6166,2.3021 z m 15.502,-7.2648 c 0.8061,0.4656 1.8366,0.1896 2.3021,-0.6165 0.4656,-0.8062 0.1896,-1.8366 -0.6165,-2.3022 l -67.4205,-38.9362 c -0.8062,-0.4656 -1.8365,-0.1896 -2.3021,0.6165 -0.4656,0.8062 -0.1896,1.8366 0.6165,2.3022 z" clip-path="url(#2036425599423-clipPath1)" id="path82" ns1:connector-curvature="0" style="stroke:none" />
    </g>
    <g id="g84" style="text-rendering:geometricPrecision;fill:#f5d0fe;stroke:none">
      <path d="M 594.751,141.9661 527.3156,180.9 c -0.8062,0.4654 -1.0823,1.4958 -0.6169,2.302 0.4655,0.8062 1.4959,1.0823 2.3021,0.6169 l 67.4354,-38.9339 c 0.8062,-0.4655 1.0823,-1.4959 0.6168,-2.3021 -0.4654,-0.8062 -1.4958,-1.0823 -2.302,-0.6168 z" clip-path="url(#2036425599423-clipPath1)" id="path86" ns1:connector-curvature="0" style="stroke:none" />
    </g>
    <g id="g88" style="text-rendering:geometricPrecision;fill:#f5d0fe;stroke:none">
      <path d="m 526.4743,260.2201 c 0,0.9309 0.7543,1.6852 1.6852,1.6852 0.931,0 1.6853,-0.7543 1.6853,-1.6852 l -10e-4,-77.8607 c 0,-0.9309 -0.7543,-1.6852 -1.6853,-1.6852 -0.9309,0 -1.6852,0.7543 -1.6851,1.6852 z m 14.0435,-9.7933 c 0,0.931 0.7544,1.6853 1.6853,1.6852 0.9309,0 1.6852,-0.7543 1.6852,-1.6852 l -10e-4,-58.2741 c 0,-0.9309 -0.7544,-1.6852 -1.6853,-1.6852 -0.9309,0 -1.6852,0.7543 -1.6852,1.6852 z" clip-path="url(#2036425599423-clipPath1)" id="path90" ns1:connector-curvature="0" style="stroke:none" />
    </g>
    <g id="g92" style="text-rendering:geometricPrecision;fill:#f5d0fe;stroke:none">
      <path d="m 612.2303,291.4892 51.6359,-29.812 c 0.8062,-0.4655 1.0823,-1.4959 0.6169,-2.3021 -0.4655,-0.8062 -1.4959,-1.0823 -2.3021,-0.6168 l -51.6358,29.812 c -0.8062,0.4654 -1.0824,1.4959 -0.6169,2.302 0.4654,0.8062 1.4959,1.0823 2.302,0.6169 z" clip-path="url(#2036425599423-clipPath1)" id="path94" ns1:connector-curvature="0" style="stroke:none" />
      <path d="m 612.2303,291.4892 51.6359,-29.812 c 0.8062,-0.4655 1.0823,-1.4959 0.6169,-2.3021 -0.4655,-0.8062 -1.4959,-1.0823 -2.3021,-0.6168 l -51.6358,29.812 c -0.8062,0.4654 -1.0824,1.4959 -0.6169,2.302 0.4654,0.8062 1.4959,1.0823 2.302,0.6169 z" clip-path="url(#2036425599597-clipPath1)" id="path96" ns1:connector-curvature="0" style="fill:#fda4af;stroke:none" />
    </g>
    <g id="g98" style="fill:#fda4af;stroke:none;text-rendering:geometricPrecision">
      <path d="m 527.3169,261.6795 51.6292,29.8094 c 0.8062,0.4654 1.8366,0.1894 2.3021,-0.6168 0.4654,-0.8062 0.1894,-1.8366 -0.6169,-2.3021 l -51.6291,-29.8093 c -0.8062,-0.4655 -1.8366,-0.1894 -2.3021,0.6167 -0.4655,0.8062 -0.1894,1.8367 0.6168,2.3021 z" clip-path="url(#2036425599423-clipPath1)" id="path100" ns1:connector-curvature="0" style="stroke:none" />
      <path d="m 527.3169,261.6795 51.6292,29.8094 c 0.8062,0.4654 1.8366,0.1894 2.3021,-0.6168 0.4654,-0.8062 0.1894,-1.8366 -0.6169,-2.3021 l -51.6291,-29.8093 c -0.8062,-0.4655 -1.8366,-0.1894 -2.3021,0.6167 -0.4655,0.8062 -0.1894,1.8367 0.6168,2.3021 z" clip-path="url(#2036425599245-clipPath1)" id="path102" ns1:connector-curvature="0" style="fill:#f5d0fe;stroke:none" />
    </g>
    <g id="g104" style="fill:#fda4af;stroke:none;text-rendering:geometricPrecision">
      <path d="m 663.8652,250.6498 c -0.8062,-0.4654 -1.8367,-0.1892 -2.3021,0.617 -0.4654,0.8062 -0.1892,1.8366 0.617,2.302 l 54.7251,31.5911 c 0.8062,0.4654 1.8366,0.1893 2.302,-0.617 0.4655,-0.8062 0.1893,-1.8366 -0.6169,-2.302 z m -7.0211,12.1626 c -0.8063,-0.4654 -1.8367,-0.1892 -2.302,0.617 -0.4655,0.8063 -0.1893,1.8367 0.6169,2.302 l 54.7251,31.5911 c 0.8063,0.4654 1.8367,0.1893 2.3021,-0.6169 0.4654,-0.8062 0.1892,-1.8366 -0.617,-2.3021 z" clip-path="url(#2036425599423-clipPath1)" id="path106" ns1:connector-curvature="0" style="stroke:none" />
      <path d="m 663.8652,250.6498 c -0.8062,-0.4654 -1.8367,-0.1892 -2.3021,0.617 -0.4654,0.8062 -0.1892,1.8366 0.617,2.302 l 54.7251,31.5911 c 0.8062,0.4654 1.8366,0.1893 2.302,-0.617 0.4655,-0.8062 0.1893,-1.8366 -0.6169,-2.302 z m -7.0211,12.1626 c -0.8063,-0.4654 -1.8367,-0.1892 -2.302,0.617 -0.4655,0.8063 -0.1893,1.8367 0.6169,2.302 l 54.7251,31.5911 c 0.8063,0.4654 1.8367,0.1893 2.3021,-0.6169 0.4654,-0.8062 0.1892,-1.8366 -0.617,-2.3021 z" clip-path="url(#2036425599204-clipPath1)" id="path108" ns1:connector-curvature="0" style="fill:#f5d0fe;stroke:none" />
    </g>
    <g id="g110" style="fill:#fda4af;stroke:none;text-rendering:geometricPrecision">
      <path d="m 597.2789,143.4256 0.003,-57.5958 c 1e-4,-0.9309 -0.7542,-1.6852 -1.6851,-1.6853 -0.9309,0 -1.6852,0.7542 -1.6853,1.6851 l -0.003,57.5958 c -10e-5,0.931 0.7542,1.6853 1.6851,1.6854 0.9309,0 1.6853,-0.7542 1.6854,-1.6852 z" clip-path="url(#2036425599423-clipPath1)" id="path112" ns1:connector-curvature="0" style="stroke:none" />
      <path d="m 597.2789,143.4256 0.003,-57.5958 c 1e-4,-0.9309 -0.7542,-1.6852 -1.6851,-1.6853 -0.9309,0 -1.6852,0.7542 -1.6853,1.6851 l -0.003,57.5958 c -10e-5,0.931 0.7542,1.6853 1.6851,1.6854 0.9309,0 1.6853,-0.7542 1.6854,-1.6852 z" clip-path="url(#2036425599395-clipPath1)" id="path114" ns1:connector-curvature="0" style="fill:#f5d0fe;stroke:none" />
    </g>
    <g id="g116" style="text-rendering:geometricPrecision;fill:#f5d0fe;stroke:none">
      <path d="m 612.2408,57.9059 45.7917,-26.4341 c 0.8063,-0.4654 1.0824,-1.4958 0.617,-2.302 -0.4654,-0.8062 -1.4958,-1.0824 -2.302,-0.617 l -45.7917,26.4341 c -0.8062,0.4654 -1.0824,1.4958 -0.617,2.302 0.4654,0.8063 1.4958,1.0824 2.302,0.617 z" clip-path="url(#2036425599423-clipPath1)" id="path118" ns1:connector-curvature="0" style="stroke:none" />
      <path d="m 612.2408,57.9059 45.7917,-26.4341 c 0.8063,-0.4654 1.0824,-1.4958 0.617,-2.302 -0.4654,-0.8062 -1.4958,-1.0824 -2.302,-0.617 l -45.7917,26.4341 c -0.8062,0.4654 -1.0824,1.4958 -0.617,2.302 0.4654,0.8063 1.4958,1.0824 2.302,0.617 z" clip-path="url(#2036425599279-clipPath1)" id="path120" ns1:connector-curvature="0" style="fill:#fda4af;stroke:none" />
    </g>
    <g id="g122" style="text-rendering:geometricPrecision;fill:#f5d0fe;stroke:none">
      <path d="m 409.6507,251.4962 c -0.8062,-0.4655 -1.8366,-0.1894 -2.3021,0.6168 -0.4654,0.8062 -0.1893,1.8366 0.6169,2.3021 l 50.4649,29.1353 c 0.8062,0.4655 1.8366,0.1894 2.3021,-0.6168 0.4654,-0.8062 0.1893,-1.8366 -0.6169,-2.3021 z m -15.5031,7.2656 c -0.8062,-0.4654 -1.8366,-0.1893 -2.302,0.6169 -0.4655,0.8062 -0.1894,1.8366 0.6168,2.302 l 67.4276,38.9286 c 0.8062,0.4654 1.8366,0.1893 2.3021,-0.6169 0.4654,-0.8062 0.1893,-1.8366 -0.6169,-2.302 z" clip-path="url(#2036425599423-clipPath1)" id="path124" ns1:connector-curvature="0" style="stroke:none" />
    </g>
    <g id="g126" style="fill:#fda4af;stroke:none;text-rendering:geometricPrecision">
      <path d="m 190.1849,375.5593 -51.6284,29.8062 c -0.8062,0.4654 -1.0823,1.4958 -0.6169,2.302 0.4655,0.8062 1.4959,1.0823 2.3021,0.6169 l 51.6284,-29.8062 c 0.8062,-0.4654 1.0823,-1.4958 0.6169,-2.302 -0.4655,-0.8062 -1.4959,-1.0824 -2.3021,-0.6169 z" clip-path="url(#2036425599423-clipPath1)" id="path128" ns1:connector-curvature="0" style="stroke:none" />
      <path d="m 190.1849,375.5593 -51.6284,29.8062 c -0.8062,0.4654 -1.0823,1.4958 -0.6169,2.302 0.4655,0.8062 1.4959,1.0823 2.3021,0.6169 l 51.6284,-29.8062 c 0.8062,-0.4654 1.0823,-1.4958 0.6169,-2.302 -0.4655,-0.8062 -1.4959,-1.0824 -2.3021,-0.6169 z" clip-path="url(#2036425599210-clipPath1)" id="path130" ns1:connector-curvature="0" style="fill:#f5d0fe;stroke:none" />
    </g>
    <g id="g132" style="text-rendering:geometricPrecision;fill:#f5d0fe;stroke:none">
      <path d="M 108.6426,405.3648 62.8533,378.927 c -0.8062,-0.4655 -1.8366,-0.1894 -2.302,0.6168 -0.4655,0.8062 -0.1894,1.8366 0.6167,2.3021 l 45.7893,26.4377 c 0.8062,0.4655 1.8366,0.1894 2.3021,-0.6168 0.4655,-0.8061 0.1894,-1.8366 -0.6168,-2.302 z" clip-path="url(#2036425599423-clipPath1)" id="path134" ns1:connector-curvature="0" style="stroke:none" />
      <path d="M 108.6426,405.3648 62.8533,378.927 c -0.8062,-0.4655 -1.8366,-0.1894 -2.302,0.6168 -0.4655,0.8062 -0.1894,1.8366 0.6167,2.3021 l 45.7893,26.4377 c 0.8062,0.4655 1.8366,0.1894 2.3021,-0.6168 0.4655,-0.8061 0.1894,-1.8366 -0.6168,-2.302 z" clip-path="url(#2036425599132-clipPath1)" id="path136" ns1:connector-curvature="0" style="fill:#fda4af;stroke:none" />
    </g>
    <g font-size="27px" transform="translate(585.1272,283.1516)" id="g138" style="font-size:27px;font-family:sans-serif;fill:#fda4af;stroke:none;text-rendering:geometricPrecision">
      <text x="0" xml:space="preserve" y="26" clip-path="url(#2036425599257-clipPath1)" id="text140" style="stroke:none">O</text>
    </g>
    <g font-size="27px" transform="translate(719.9923,283.1428)" id="g142" style="font-size:27px;font-family:sans-serif;fill:#fda4af;stroke:none;text-rendering:geometricPrecision">
      <text x="0" xml:space="preserve" y="26" clip-path="url(#2036425599743-clipPath1)" id="text144" style="stroke:none">O</text>
    </g>
    <g font-size="27px" transform="translate(585.1374,49.5672)" id="g146" style="font-size:27px;font-family:sans-serif;fill:#fda4af;stroke:none;text-rendering:geometricPrecision">
      <text x="0" xml:space="preserve" y="26" clip-path="url(#2036425599612-clipPath1)" id="text148" style="stroke:none">O</text>
    </g>
    <g font-size="27px" transform="translate(113.1385,399.9465)" id="g150" style="font-size:27px;font-family:sans-serif;fill:#fda4af;stroke:none;text-rendering:geometricPrecision">
      <text x="0" xml:space="preserve" y="26" clip-path="url(#2036425599506-clipPath1)" id="text152" style="stroke:none">O</text>
    </g>
  </g>
</svg>