<?xml version='1.0' encoding='utf-8'?>
<svg xmlns="http://www.w3.org/2000/svg" xmlns:dc="http://purl.org/dc/elements/1.1/" xmlns:ns1="http://sodipodi.sourceforge.net/DTD/sodipodi-0.dtd" xmlns:ns2="http://www.inkscape.org/namespaces/inkscape" xmlns:ns4="http://creativecommons.org/ns#" xmlns:rdf="http://www.w3.org/1999/02/22-rdf-syntax-ns#" width="525.5285" stroke-miterlimit="10" font-weight="normal" height="560.37933" font-style="normal" font-size="12px" version="1.1" id="svg257" ns1:docname="structure.svg" style="font-style:normal;font-weight:normal;font-size:12px;font-family:Dialog;color-interpolation:auto;fill:#f0abfc;fill-opacity:1;stroke:none;stroke:none;stroke:none;stroke:none;stroke:none;stroke:none;stroke:none;stroke:none;color-rendering:auto;image-rendering:auto;shape-rendering:auto;text-rendering:auto" ns2:version="0.92.4 (5da689c313, 2019-01-14)">
  <metadata id="metadata261">
    <rdf:RDF>
      <ns4:Work rdf:about="">
        <dc:format>image/svg+xml</dc:format>
        <dc:type rdf:resource="http://purl.org/dc/dcmitype/StillImage" />
        <dc:title />
      </ns4:Work>
    </rdf:RDF>
  </metadata>
  <ns1:namedview pagecolor="#eef2ff" bordercolor="#666666" borderopacity="1" objecttolerance="10" gridtolerance="10" guidetolerance="10" ns2:pageopacity="0" ns2:pageshadow="2" ns2:window-width="1920" ns2:window-height="1051" id="namedview259" showgrid="false" fit-margin-top="10" fit-margin-left="10" fit-margin-right="10" fit-margin-bottom="10" ns2:zoom="0.78666667" ns2:cx="-68.808284" ns2:cy="248.00165" ns2:window-x="-9" ns2:window-y="-9" ns2:window-maximized="1" ns2:current-layer="svg257" />
  
  <defs id="genericDefs" />
  <g id="g255" transform="translate(-137.39653,-18.162756)" style="fill:#f0abfc;stroke:none">
    <defs id="190468077352-defs1">
      <clipPath clipPathUnits="userSpaceOnUse" id="1904680773768-clipPath1">
        <path d="M 0,0 H 800 V 600 H 0 Z" id="path3" ns2:connector-curvature="0" style="stroke:none" />
      </clipPath>
      <clipPath clipPathUnits="userSpaceOnUse" id="190468077319-clipPath1">
        <path d="m 443.8438,218.3913 c -16.8054,0 -30.4289,13.6235 -30.4289,30.429 0,16.8054 13.6235,30.429 30.4289,30.429 16.8055,0 30.4291,-13.6236 30.4291,-30.429 0,-16.8055 -13.6236,-30.429 -30.4291,-30.429 z" id="path6" ns2:connector-curvature="0" style="stroke:none" />
      </clipPath>
      <clipPath clipPathUnits="userSpaceOnUse" id="1904680773270-clipPath1">
        <path d="m 510.918,161.6479 c -16.0156,0 -28.9988,12.9832 -28.9988,28.9988 0,16.0156 12.9832,28.9988 28.9988,28.9988 16.0156,0 28.9987,-12.9832 28.9987,-28.9988 0,-16.0156 -12.9831,-28.9988 -28.9987,-28.9988 z" id="path9" ns2:connector-curvature="0" style="stroke:none" />
      </clipPath>
      <clipPath clipPathUnits="userSpaceOnUse" id="1904680773565-clipPath1">
        <path d="m 525.2828,187.969 c -16.8069,0 -30.4316,13.6247 -30.4316,30.4317 0,16.8069 13.6247,30.4316 30.4316,30.4316 16.8069,0 30.4317,-13.6247 30.4317,-30.4316 0,-16.807 -13.6248,-30.4317 -30.4317,-30.4317 z" id="path12" ns2:connector-curvature="0" style="stroke:none" />
      </clipPath>
      <clipPath clipPathUnits="userSpaceOnUse" id="1904680773465-clipPath1">
        <path d="m 257.5902,144.4841 c -14.8447,0 -26.8787,12.034 -26.8787,26.8787 0,14.8447 12.034,26.8787 26.8787,26.8787 14.8447,0 26.8786,-12.034 26.8786,-26.8787 0,-14.8447 -12.0339,-26.8787 -26.8786,-26.8787 z" id="path15" ns2:connector-curvature="0" style="stroke:none" />
      </clipPath>
      <clipPath clipPathUnits="userSpaceOnUse" id="1904680773515-clipPath1">
        <path d="m 376.7697,181.9272 c -15.5627,0 -28.1788,12.616 -28.1788,28.1788 0,15.5627 12.6161,28.1787 28.1788,28.1787 15.5627,0 28.1788,-12.616 28.1788,-28.1787 0,-15.5628 -12.6161,-28.1788 -28.1788,-28.1788 z" id="path18" ns2:connector-curvature="0" style="stroke:none" />
      </clipPath>
      <clipPath clipPathUnits="userSpaceOnUse" id="1904680773540-clipPath1">
        <path d="m 443.8078,452.3179 c -15.9348,0 -28.8525,12.9177 -28.8525,28.8525 0,15.9348 12.9177,28.8525 28.8525,28.8525 15.9348,0 28.8525,-12.9177 28.8525,-28.8525 0,-15.9348 -12.9177,-28.8525 -28.8525,-28.8525 z" id="path21" ns2:connector-curvature="0" style="stroke:none" />
      </clipPath>
      <clipPath clipPathUnits="userSpaceOnUse" id="1904680773210-clipPath1">
        <path d="m 443.8078,451.6254 c -16.3173,0 -29.545,13.2277 -29.545,29.545 0,16.3173 13.2277,29.5451 29.545,29.5451 16.3173,0 29.545,-13.2278 29.545,-29.5451 0,-16.3173 -13.2277,-29.545 -29.545,-29.545 z" id="path24" ns2:connector-curvature="0" style="stroke:none" />
      </clipPath>
      <clipPath clipPathUnits="userSpaceOnUse" id="1904680773316-clipPath1">
        <path d="m 577.9515,452.3346 c -15.9342,0 -28.8514,12.9172 -28.8514,28.8514 0,15.9341 12.9172,28.8514 28.8514,28.8514 15.9342,0 28.8514,-12.9173 28.8514,-28.8514 0,-15.9342 -12.9172,-28.8514 -28.8514,-28.8514 z" id="path27" ns2:connector-curvature="0" style="stroke:none" />
      </clipPath>
      <clipPath clipPathUnits="userSpaceOnUse" id="1904680773949-clipPath1">
        <path d="m 360.8441,425.4185 c -14.4659,0 -26.1929,11.727 -26.1929,26.1929 0,14.466 11.727,26.1929 26.1929,26.1929 14.466,0 26.1929,-11.7269 26.1929,-26.1929 0,-14.4659 -11.7269,-26.1929 -26.1929,-26.1929 z" id="path30" ns2:connector-curvature="0" style="stroke:none" />
      </clipPath>
      <clipPath clipPathUnits="userSpaceOnUse" id="1904680773865-clipPath1">
        <path d="m 443.8438,218.6503 c -16.6624,0 -30.1699,13.5075 -30.1699,30.17 0,16.6624 13.5075,30.17 30.1699,30.17 16.6625,0 30.1701,-13.5076 30.1701,-30.17 0,-16.6625 -13.5076,-30.17 -30.1701,-30.17 z" id="path33" ns2:connector-curvature="0" style="stroke:none" />
      </clipPath>
      <clipPath clipPathUnits="userSpaceOnUse" id="1904680773149-clipPath1">
        <path d="m 510.9038,334.8296 c -16.6625,0 -30.17,13.5076 -30.17,30.17 0,16.6624 13.5075,30.17 30.17,30.17 16.6624,0 30.17,-13.5076 30.17,-30.17 0,-16.6624 -13.5076,-30.17 -30.17,-30.17 z" id="path36" ns2:connector-curvature="0" style="stroke:none" />
      </clipPath>
      <clipPath clipPathUnits="userSpaceOnUse" id="1904680773973-clipPath1">
        <path d="m 577.982,296.1223 c -16.6624,0 -30.17,13.5076 -30.17,30.17 0,16.6625 13.5076,30.17 30.17,30.17 16.6624,0 30.17,-13.5075 30.17,-30.17 0,-16.6624 -13.5076,-30.17 -30.17,-30.17 z" id="path39" ns2:connector-curvature="0" style="stroke:none" />
      </clipPath>
      <clipPath clipPathUnits="userSpaceOnUse" id="1904680773367-clipPath1">
        <path d="m -500.6914,-193.606 h 800 v 600 h -800 z" id="path42" ns2:connector-curvature="0" style="stroke:none" />
      </clipPath>
      <clipPath clipPathUnits="userSpaceOnUse" id="1904680773488-clipPath1">
        <path d="m -277.8176,-217.5196 h 800 v 600 h -800 z" id="path45" ns2:connector-curvature="0" style="stroke:none" />
      </clipPath>
      <clipPath clipPathUnits="userSpaceOnUse" id="1904680773900-clipPath1">
        <path d="m -366.9912,-271.044 h 800 v 600 h -800 z" id="path48" ns2:connector-curvature="0" style="stroke:none" />
      </clipPath>
      <clipPath clipPathUnits="userSpaceOnUse" id="1904680773369-clipPath1">
        <path d="m -434.0511,-387.2233 h 800 v 600 h -800 z" id="path51" ns2:connector-curvature="0" style="stroke:none" />
      </clipPath>
      <clipPath clipPathUnits="userSpaceOnUse" id="1904680773651-clipPath1">
        <path d="m -635.2722,-271.0686 h 800 v 600 h -800 z" id="path54" ns2:connector-curvature="0" style="stroke:none" />
      </clipPath>
      <clipPath clipPathUnits="userSpaceOnUse" id="1904680773707-clipPath1">
        <path d="m -567.4899,-542.1334 h 800 v 600 h -800 z" id="path57" ns2:connector-curvature="0" style="stroke:none" />
      </clipPath>
      <clipPath clipPathUnits="userSpaceOnUse" id="1904680773251-clipPath1">
        <path d="m -366.2973,-425.9359 h 800 v 600 h -800 z" id="path60" ns2:connector-curvature="0" style="stroke:none" />
      </clipPath>
      <clipPath clipPathUnits="userSpaceOnUse" id="1904680773841-clipPath1">
        <path d="m -433.3499,-542.1178 h 800 v 600 h -800 z" id="path63" ns2:connector-curvature="0" style="stroke:none" />
      </clipPath>
    </defs>
    <g id="g69" style="text-rendering:geometricPrecision;fill:#f0abfc;stroke:none">
      <path d="m 444.682,95.3772 v 0 l -67.0742,38.7237 c -0.8017,0.4629 -1.827,0.1882 -2.2899,-0.6136 -0.4629,-0.8018 -0.1881,-1.827 0.6136,-2.2899 v 0 l 67.0742,-38.7237 c 0.8018,-0.4629 1.827,-0.1882 2.2899,0.6136 0.4629,0.8018 0.1882,1.827 -0.6136,2.2899 z" clip-path="url(#1904680773768-clipPath1)" id="path67" ns2:connector-curvature="0" style="stroke:none" />
    </g>
    <g id="g73" style="text-rendering:geometricPrecision;fill:#f0abfc;stroke:none">
      <path d="m 444.682,92.4737 v 0 l 67.0741,38.7237 c 0.8018,0.4629 1.0765,1.4881 0.6137,2.2899 -0.4629,0.8018 -1.4881,1.0765 -2.2899,0.6136 v 0 L 443.0057,95.3772 c -0.8018,-0.4629 -1.0765,-1.4881 -0.6136,-2.2899 0.4629,-0.8018 1.4881,-1.0765 2.2899,-0.6136 z" clip-path="url(#1904680773768-clipPath1)" id="path71" ns2:connector-curvature="0" style="stroke:none" />
    </g>
    <g id="g77" style="text-rendering:geometricPrecision;fill:#f0abfc;stroke:none">
      <path d="m 392.4156,142.391 c 0,-0.9258 -0.7505,-1.6763 -1.6763,-1.6763 -0.9258,0 -1.6763,0.7505 -1.6763,1.6763 v 57.9721 c 0,0.9259 0.7505,1.6764 1.6763,1.6764 0.9258,0 1.6763,-0.7505 1.6763,-1.6764 z m -13.9696,-9.7418 c 0,-0.9258 -0.7505,-1.6764 -1.6763,-1.6764 -0.9258,0 -1.6763,0.7506 -1.6763,1.6764 v 77.4568 c 0,0.9258 0.7505,1.6763 1.6763,1.6763 0.9258,0 1.6763,-0.7505 1.6763,-1.6763 z" clip-path="url(#1904680773768-clipPath1)" id="path75" ns2:connector-curvature="0" style="stroke:none" />
    </g>
    <g id="g81" style="text-rendering:geometricPrecision;fill:#f0abfc;stroke:none">
      <path d="m 377.6077,208.6541 v 0 l 67.0742,38.7143 c 0.8018,0.4628 1.0766,1.488 0.6138,2.2899 -0.4628,0.8018 -1.488,1.0766 -2.2898,0.6138 v 0 l -67.0742,-38.7143 c -0.8018,-0.4628 -1.0767,-1.488 -0.6139,-2.2898 0.4629,-0.8019 1.488,-1.0767 2.2899,-0.6139 z" clip-path="url(#1904680773768-clipPath1)" id="path79" ns2:connector-curvature="0" style="stroke:none" />
    </g>
    <g id="g87" style="fill:#c4b5fd;stroke:none;text-rendering:geometricPrecision">
      <path d="m 443.0059,247.3684 v 0 l 52.7082,-30.4225 c 0.8019,-0.4628 1.8271,-0.188 2.2899,0.6139 0.4628,0.8018 0.188,1.827 -0.6139,2.2898 v 0 l -52.7082,30.4225 c -0.8019,0.4628 -1.8271,0.188 -2.2899,-0.6138 -0.4628,-0.8019 -0.188,-1.8271 0.6139,-2.2899 z" clip-path="url(#1904680773768-clipPath1)" id="path83" ns2:connector-curvature="0" style="stroke:none" />
      <path d="m 443.0059,247.3684 v 0 l 52.7082,-30.4225 c 0.8019,-0.4628 1.8271,-0.188 2.2899,0.6139 0.4628,0.8018 0.188,1.827 -0.6139,2.2898 v 0 l -52.7082,30.4225 c -0.8019,0.4628 -1.8271,0.188 -2.2899,-0.6138 -0.4628,-0.8019 -0.188,-1.8271 0.6139,-2.2899 z" clip-path="url(#190468077319-clipPath1)" id="path85" ns2:connector-curvature="0" style="fill:#f0abfc;stroke:none" />
    </g>
    <g id="g93" style="text-rendering:geometricPrecision;fill:#f0abfc;stroke:none">
      <path d="m 509.2417,190.6467 v 0 -57.9975 c 0,-0.9258 0.7505,-1.6764 1.6763,-1.6764 0.9258,0 1.6764,0.7506 1.6764,1.6764 v 0 57.9975 c 0,0.9258 -0.7506,1.6763 -1.6764,1.6763 -0.9258,0 -1.6763,-0.7505 -1.6763,-1.6763 z" clip-path="url(#1904680773768-clipPath1)" id="path89" ns2:connector-curvature="0" style="stroke:none" />
      <path d="m 509.2417,190.6467 v 0 -57.9975 c 0,-0.9258 0.7505,-1.6764 1.6763,-1.6764 0.9258,0 1.6764,0.7506 1.6764,1.6764 v 0 57.9975 c 0,0.9258 -0.7506,1.6763 -1.6764,1.6763 -0.9258,0 -1.6763,-0.7505 -1.6763,-1.6763 z" clip-path="url(#1904680773270-clipPath1)" id="path91" ns2:connector-curvature="0" style="fill:#c4b5fd;stroke:none" />
    </g>
    <g id="g97" style="text-rendering:geometricPrecision;fill:#f0abfc;stroke:none">
      <path d="m 444.6718,324.8265 v 0 l 67.0701,38.7213 c 0.8018,0.4629 1.0765,1.4881 0.6136,2.2899 -0.4629,0.8018 -1.4881,1.0765 -2.2899,0.6137 v 0 L 442.9955,327.73 c -0.8017,-0.4629 -1.0765,-1.4881 -0.6136,-2.2899 0.4629,-0.8018 1.4882,-1.0765 2.2899,-0.6136 z" clip-path="url(#1904680773768-clipPath1)" id="path95" ns2:connector-curvature="0" style="stroke:none" />
    </g>
    <g id="g101" style="text-rendering:geometricPrecision;fill:#f0abfc;stroke:none">
      <path d="m 510.0659,363.5477 v 0 l 67.0783,-38.7073 c 0.8018,-0.4627 1.827,-0.1878 2.2897,0.6141 0.4628,0.8019 0.1878,1.827 -0.6141,2.2898 v 0 l -67.0782,38.7072 c -0.8019,0.4628 -1.827,0.1878 -2.2898,-0.6141 -0.4627,-0.8018 -0.1878,-1.827 0.6141,-2.2897 z" clip-path="url(#1904680773768-clipPath1)" id="path99" ns2:connector-curvature="0" style="stroke:none" />
    </g>
    <g id="g105" style="text-rendering:geometricPrecision;fill:#f0abfc;stroke:none">
      <path d="m 576.3057,326.2921 v 0 l 0.008,-77.4567 c 10e-5,-0.9259 0.7507,-1.6763 1.6765,-1.6762 0.9258,1e-4 1.6763,0.7507 1.6761,1.6765 v 0 l -0.008,77.4568 c -1e-4,0.9258 -0.7507,1.6763 -1.6765,1.6762 -0.9258,-1e-4 -1.6763,-0.7507 -1.6761,-1.6766 z" clip-path="url(#1904680773768-clipPath1)" id="path103" ns2:connector-curvature="0" style="stroke:none" />
    </g>
    <g id="g109" style="text-rendering:geometricPrecision;fill:#f0abfc;stroke:none">
      <path d="m 445.5202,248.8205 v 0 l -0.0102,77.458 c -10e-5,0.9258 -0.7507,1.6762 -1.6765,1.6761 -0.9258,-1e-4 -1.6763,-0.7508 -1.6762,-1.6766 v 0 l 0.0102,-77.4579 c 10e-5,-0.9259 0.7508,-1.6763 1.6766,-1.6762 0.9258,2e-4 1.6762,0.7508 1.6761,1.6766 z" clip-path="url(#1904680773768-clipPath1)" id="path107" ns2:connector-curvature="0" style="stroke:none" />
    </g>
    <g id="g115" style="text-rendering:geometricPrecision;fill:#f0abfc;stroke:none">
      <path d="m 526.121,216.949 v 0 l 52.7074,30.4348 c 0.8017,0.463 1.0764,1.4882 0.6134,2.29 -0.4629,0.8017 -1.4882,1.0764 -2.2899,0.6134 v 0 l -52.7073,-30.4348 c -0.8018,-0.463 -1.0764,-1.4882 -0.6135,-2.29 0.463,-0.8017 1.4882,-1.0764 2.2899,-0.6134 z" clip-path="url(#1904680773768-clipPath1)" id="path111" ns2:connector-curvature="0" style="stroke:none" />
      <path d="m 526.121,216.949 v 0 l 52.7074,30.4348 c 0.8017,0.463 1.0764,1.4882 0.6134,2.29 -0.4629,0.8017 -1.4882,1.0764 -2.2899,0.6134 v 0 l -52.7073,-30.4348 c -0.8018,-0.463 -1.0764,-1.4882 -0.6135,-2.29 0.463,-0.8017 1.4882,-1.0764 2.2899,-0.6134 z" clip-path="url(#1904680773565-clipPath1)" id="path113" ns2:connector-curvature="0" style="fill:#c4b5fd;stroke:none" />
    </g>
    <g id="g119" style="text-rendering:geometricPrecision;fill:#f0abfc;stroke:none">
      <path d="m 511.7238,441.0059 v 0 l 67.066,38.7284 c 0.8018,0.463 1.0763,1.4882 0.6134,2.29 -0.463,0.8017 -1.4883,1.0763 -2.29,0.6133 v 0 l -67.066,-38.7284 c -0.8017,-0.4629 -1.0764,-1.4882 -0.6134,-2.2899 0.463,-0.8018 1.4882,-1.0764 2.29,-0.6134 z" clip-path="url(#1904680773768-clipPath1)" id="path117" ns2:connector-curvature="0" style="stroke:none" />
    </g>
    <g id="g123" style="text-rendering:geometricPrecision;fill:#f0abfc;stroke:none">
      <path d="m 577.1138,479.7339 v 0 l 67.0823,-38.7002 c 0.8019,-0.4626 1.827,-0.1876 2.2897,0.6143 0.4626,0.802 0.1876,1.8271 -0.6143,2.2897 v 0 l -67.0823,38.7003 c -0.802,0.4626 -1.8271,0.1876 -2.2897,-0.6143 -0.4627,-0.802 -0.1876,-1.8271 0.6143,-2.2898 z" clip-path="url(#1904680773768-clipPath1)" id="path121" ns2:connector-curvature="0" style="stroke:none" />
    </g>
    <g id="g127" style="text-rendering:geometricPrecision;fill:#f0abfc;stroke:none">
      <path d="m 643.3574,442.4854 v 0 l 0.0163,-77.4568 c 2e-4,-0.9258 0.7509,-1.6762 1.6767,-1.676 0.9258,2e-4 1.6762,0.7509 1.676,1.6767 v 0 l -0.0163,77.4568 c -2e-4,0.9258 -0.7509,1.6762 -1.6767,1.6759 -0.9258,-10e-5 -1.6762,-0.7508 -1.676,-1.6766 z" clip-path="url(#1904680773768-clipPath1)" id="path125" ns2:connector-curvature="0" style="stroke:none" />
    </g>
    <g id="g131" style="text-rendering:geometricPrecision;fill:#f0abfc;stroke:none">
      <path d="m 512.5801,365 v 0 l -0.0183,77.4579 c -2e-4,0.9259 -0.7509,1.6762 -1.6767,1.676 -0.9258,-2e-4 -1.6762,-0.7509 -1.676,-1.6767 v 0 l 0.0183,-77.458 c 3e-4,-0.9258 0.751,-1.6761 1.6768,-1.6759 0.9258,2e-4 1.6761,0.7509 1.6759,1.6767 z" clip-path="url(#1904680773768-clipPath1)" id="path129" ns2:connector-curvature="0" style="stroke:none" />
    </g>
    <g id="g135" style="text-rendering:geometricPrecision;fill:#f0abfc;stroke:none">
      <path d="m 578.8204,324.8407 v 0 l 67.068,38.7366 c 0.8017,0.4631 1.0763,1.4883 0.6132,2.29 -0.463,0.8017 -1.4883,1.0763 -2.29,0.6132 v 0 l -67.068,-38.7366 c -0.8017,-0.463 -1.0763,-1.4883 -0.6132,-2.29 0.463,-0.8017 1.4883,-1.0762 2.29,-0.6132 z" clip-path="url(#1904680773768-clipPath1)" id="path133" ns2:connector-curvature="0" style="stroke:none" />
    </g>
    <g id="g139" style="text-rendering:geometricPrecision;fill:#f0abfc;stroke:none">
      <path d="m 304.4752,109.6967 c 0.5442,-0.7489 0.3783,-1.7973 -0.3706,-2.3415 -0.7489,-0.5443 -1.7973,-0.3784 -2.3416,0.3706 l -45.5289,62.6515 c -0.5443,0.749 -0.3783,1.7973 0.3706,2.3416 0.749,0.5443 1.7973,0.3783 2.3416,-0.3706 z m -17.0275,-0.3318 c 0.5442,-0.7489 0.3783,-1.7972 -0.3707,-2.3415 -0.7489,-0.5443 -1.7972,-0.3783 -2.3415,0.3706 l -34.075,46.89 c -0.5443,0.749 -0.3783,1.7973 0.3706,2.3416 0.7489,0.5442 1.7973,0.3783 2.3415,-0.3706 z" clip-path="url(#1904680773768-clipPath1)" id="path137" ns2:connector-curvature="0" style="stroke:none" />
    </g>
    <g id="g143" style="text-rendering:geometricPrecision;fill:#f0abfc;stroke:none">
      <path d="m 376.2516,134.2434 v 0 L 302.601,110.3055 c -0.8805,-0.2862 -1.3623,-1.2319 -1.0761,-2.1124 0.2861,-0.8805 1.2319,-1.3623 2.1124,-1.0761 v 0 l 73.6506,23.9379 c 0.8804,0.2862 1.3622,1.2319 1.0761,2.1124 -0.2862,0.8805 -1.232,1.3623 -2.1124,1.0761 z" clip-path="url(#1904680773768-clipPath1)" id="path141" ns2:connector-curvature="0" style="stroke:none" />
    </g>
    <g id="g147" style="text-rendering:geometricPrecision;fill:#f0abfc;stroke:none">
      <path d="m 260.2975,52.4885 c 0.9207,0.097 1.7457,-0.5708 1.8426,-1.4916 0.097,-0.9207 -0.5708,-1.7457 -1.4916,-1.8426 L 203.0084,43.085 c -0.9207,-0.0969 -1.7457,0.5709 -1.8426,1.4916 -0.097,0.9207 0.5708,1.7457 1.4916,1.8427 z m 11.1502,-12.8727 c 0.9207,0.0969 1.7458,-0.5709 1.8427,-1.4916 0.0969,-0.9207 -0.5709,-1.7457 -1.4916,-1.8426 l -77.0159,-8.1095 c -0.9207,-0.0969 -1.7457,0.5709 -1.8426,1.4916 -0.097,0.9207 0.5708,1.7457 1.4916,1.8426 z" clip-path="url(#1904680773768-clipPath1)" id="path145" ns2:connector-curvature="0" style="stroke:none" />
    </g>
    <g id="g151" style="text-rendering:geometricPrecision;fill:#f0abfc;stroke:none">
      <path d="m 195.9634,30.8248 v 0 l -45.5341,62.6507 c -0.5443,0.7489 -1.5926,0.9148 -2.3416,0.3705 -0.7489,-0.5443 -0.9147,-1.5927 -0.3704,-2.3416 v 0 l 45.5341,-62.6507 c 0.5443,-0.7489 1.5926,-0.9148 2.3415,-0.3705 0.749,0.5443 0.9148,1.5927 0.3705,2.3416 z" clip-path="url(#1904680773768-clipPath1)" id="path149" ns2:connector-curvature="0" style="stroke:none" />
    </g>
    <g id="g155" style="text-rendering:geometricPrecision;fill:#f0abfc;stroke:none">
      <path d="m 167.3285,95.0285 c -0.3764,-0.8459 -1.3673,-1.2264 -2.2131,-0.85 -0.8458,0.3765 -1.2263,1.3673 -0.8499,2.2132 l 23.5722,52.9648 c 0.3764,0.8458 1.3673,1.2263 2.2131,0.8499 0.8458,-0.3765 1.2263,-1.3673 0.8499,-2.2131 z m -16.7237,-3.2202 c -0.3764,-0.8458 -1.3673,-1.2263 -2.2131,-0.8499 -0.8458,0.3765 -1.2264,1.3673 -0.8499,2.2131 l 31.4941,70.7649 c 0.3765,0.8459 1.3673,1.2264 2.2131,0.85 0.8459,-0.3765 1.2264,-1.3673 0.85,-2.2132 z" clip-path="url(#1904680773768-clipPath1)" id="path153" ns2:connector-curvature="0" style="stroke:none" />
    </g>
    <g id="g159" style="text-rendering:geometricPrecision;fill:#f0abfc;stroke:none">
      <path d="m 301.5876,109.3929 v 0 L 270.0918,38.6303 c -0.3765,-0.8458 0.004,-1.8366 0.8498,-2.2131 0.8458,-0.3765 1.8367,0.004 2.2132,0.8498 v 0 l 31.4958,70.7626 c 0.3765,0.8458 -0.004,1.8367 -0.8498,2.2131 -0.8458,0.3765 -1.8367,-0.004 -2.2132,-0.8498 z" clip-path="url(#1904680773768-clipPath1)" id="path157" ns2:connector-curvature="0" style="stroke:none" />
    </g>
    <g id="g163" style="text-rendering:geometricPrecision;fill:#f0abfc;stroke:none">
      <path d="m 180.7429,161.5877 v 0 l 77.0228,8.108 c 0.9207,0.0969 1.5885,0.9219 1.4916,1.8426 -0.0969,0.9207 -0.9219,1.5886 -1.8426,1.4916 v 0 L 180.392,164.922 c -0.9208,-0.097 -1.5886,-0.9219 -1.4917,-1.8426 0.0969,-0.9208 0.9219,-1.5886 1.8426,-1.4917 z" clip-path="url(#1904680773768-clipPath1)" id="path161" ns2:connector-curvature="0" style="stroke:none" />
    </g>
    <g id="g169" style="fill:#c4b5fd;stroke:none;text-rendering:geometricPrecision">
      <path d="m 258.9464,170.3776 v 0 l 31.5949,43.4927 c 0.5441,0.749 0.378,1.7973 -0.371,2.3414 -0.749,0.5442 -1.7974,0.3781 -2.3415,-0.371 v 0 l -31.5949,-43.4926 c -0.5441,-0.7491 -0.378,-1.7974 0.371,-2.3415 0.7491,-0.5442 1.7974,-0.3781 2.3415,0.371 z" clip-path="url(#1904680773768-clipPath1)" id="path165" ns2:connector-curvature="0" style="stroke:none" />
      <path d="m 258.9464,170.3776 v 0 l 31.5949,43.4927 c 0.5441,0.749 0.378,1.7973 -0.371,2.3414 -0.749,0.5442 -1.7974,0.3781 -2.3415,-0.371 v 0 l -31.5949,-43.4926 c -0.5441,-0.7491 -0.378,-1.7974 0.371,-2.3415 0.7491,-0.5442 1.7974,-0.3781 2.3415,0.371 z" clip-path="url(#1904680773465-clipPath1)" id="path167" ns2:connector-curvature="0" style="fill:#f0abfc;stroke:none" />
    </g>
    <g id="g175" style="fill:#c4b5fd;stroke:none;text-rendering:geometricPrecision">
      <path d="m 377.2873,211.7004 v 0 l -53.6037,17.4017 c -0.8806,0.2858 -1.8261,-0.1963 -2.112,-1.0768 -0.2859,-0.8806 0.1962,-1.8262 1.0768,-2.1121 v 0 l 53.6037,-17.4017 c 0.8806,-0.2858 1.8261,0.1963 2.112,1.0768 0.2859,0.8806 -0.1962,1.8262 -1.0768,2.1121 z" clip-path="url(#1904680773768-clipPath1)" id="path171" ns2:connector-curvature="0" style="stroke:none" />
      <path d="m 377.2873,211.7004 v 0 l -53.6037,17.4017 c -0.8806,0.2858 -1.8261,-0.1963 -2.112,-1.0768 -0.2859,-0.8806 0.1962,-1.8262 1.0768,-2.1121 v 0 l 53.6037,-17.4017 c 0.8806,-0.2858 1.8261,0.1963 2.112,1.0768 0.2859,0.8806 -0.1962,1.8262 -1.0768,2.1121 z" clip-path="url(#1904680773515-clipPath1)" id="path173" ns2:connector-curvature="0" style="fill:#f0abfc;stroke:none" />
    </g>
    <g id="g179" style="text-rendering:geometricPrecision;fill:#f0abfc;stroke:none">
      <path d="m 510.7773,444.6181 0.9461,-0.7086 -0.8379,-1.4519 -0.838,-1.4519 -1.0769,0.4819 v 0 z m -8.7837,6.5792 2.7027,-2.0244 v 0 l -2.6477,-4.5876 v 0 l -3.0764,1.3767 v 0 z m -8.7836,6.5792 2.7026,-2.0244 v 0 l -3.8624,-6.6924 v 0 l -3.0764,1.3767 z m -8.7837,6.5791 2.7027,-2.0243 v 0 l -5.0772,-8.7972 v 0 l -3.0764,1.3768 v 0 z m -8.7837,6.5792 2.7027,-2.0243 v 0 l -6.2919,-10.902 -3.0764,1.3768 z m -8.7836,6.5792 2.7026,-2.0244 v 0 l -7.5066,-13.0067 v 0 l -3.0764,1.3767 z m -8.7837,6.5791 2.7027,-2.0243 -8.7214,-15.1115 v 0 l -3.0764,1.3768 v 0 z m -6.7852,3.3347 -9.2319,-15.9961 v 0 l -10.4031,4.6556 10.4762,6.0507 z" clip-path="url(#1904680773768-clipPath1)" id="path177" ns2:connector-curvature="0" style="stroke:none" />
    </g>
    <g id="g185" style="fill:#fda4af;stroke:none;text-rendering:geometricPrecision">
      <path d="m 452.4696,477.1392 c 10e-5,-0.9259 -0.7503,-1.6765 -1.6761,-1.6766 -0.9258,-2e-4 -1.6765,0.7502 -1.6766,1.676 l -0.01,61.7376 c -10e-5,0.9259 0.7502,1.6765 1.6761,1.6767 0.9258,10e-5 1.6764,-0.7503 1.6766,-1.6761 z M 438.5,477.1369 c 2e-4,-0.9258 -0.7502,-1.6765 -1.6761,-1.6766 -0.9258,-2e-4 -1.6764,0.7502 -1.6766,1.6761 l -0.01,61.7376 c -10e-5,0.9258 0.7503,1.6764 1.6761,1.6766 0.9258,10e-5 1.6764,-0.7502 1.6766,-1.6761 z" clip-path="url(#1904680773768-clipPath1)" id="path181" ns2:connector-curvature="0" style="stroke:none" />
      <path d="m 452.4696,477.1392 c 10e-5,-0.9259 -0.7503,-1.6765 -1.6761,-1.6766 -0.9258,-2e-4 -1.6765,0.7502 -1.6766,1.676 l -0.01,61.7376 c -10e-5,0.9259 0.7502,1.6765 1.6761,1.6767 0.9258,10e-5 1.6764,-0.7503 1.6766,-1.6761 z M 438.5,477.1369 c 2e-4,-0.9258 -0.7502,-1.6765 -1.6761,-1.6766 -0.9258,-2e-4 -1.6764,0.7502 -1.6766,1.6761 l -0.01,61.7376 c -10e-5,0.9258 0.7503,1.6764 1.6761,1.6766 0.9258,10e-5 1.6764,-0.7502 1.6766,-1.6761 z" clip-path="url(#1904680773540-clipPath1)" id="path183" ns2:connector-curvature="0" style="fill:#f0abfc;stroke:none" />
    </g>
    <g id="g191" style="fill:#fda4af;stroke:none;text-rendering:geometricPrecision">
      <path d="m 442.9694,482.622 v 0 l -51.1687,-29.5533 c -0.8017,-0.463 -1.0763,-1.4883 -0.6133,-2.29 0.4631,-0.8017 1.4884,-1.0762 2.2901,-0.6132 v 0 l 51.1687,29.5533 c 0.8017,0.4631 1.0762,1.4883 0.6132,2.29 -0.463,0.8017 -1.4883,1.0763 -2.29,0.6132 z" clip-path="url(#1904680773768-clipPath1)" id="path187" ns2:connector-curvature="0" style="stroke:none" />
      <path d="m 442.9694,482.622 v 0 l -51.1687,-29.5533 c -0.8017,-0.463 -1.0763,-1.4883 -0.6133,-2.29 0.4631,-0.8017 1.4884,-1.0762 2.2901,-0.6132 v 0 l 51.1687,29.5533 c 0.8017,0.4631 1.0762,1.4883 0.6132,2.29 -0.463,0.8017 -1.4883,1.0763 -2.29,0.6132 z" clip-path="url(#1904680773210-clipPath1)" id="path189" ns2:connector-curvature="0" style="fill:#f0abfc;stroke:none" />
    </g>
    <g id="g197" style="fill:#fda4af;stroke:none;text-rendering:geometricPrecision">
      <path d="m 580.1185,484.408 -0.4907,-3.2217 -1.6763,-3e-4 -1.6764,-4e-4 -0.492,3.2214 v 0 z m 1.6596,10.8965 -0.5106,-3.3527 v 0 l -6.6365,-10e-4 -0.512,3.3525 v 0 z m 1.6596,10.8966 -0.5106,-3.3527 v 0 l -9.9603,-0.002 -0.512,3.3525 v 0 z m 1.6597,10.8966 -0.5107,-3.3528 v 0 l -13.2841,-0.003 -0.512,3.3525 z m 1.6596,10.8966 -0.5107,-3.3528 v 0 l -16.6079,-0.003 v 0 l -0.512,3.3525 v 0 z m 1.6596,10.8966 -0.5107,-3.3528 v 0 l -19.9317,-0.004 v 0 l -0.512,3.3526 10.4772,0.002 z" clip-path="url(#1904680773768-clipPath1)" id="path193" ns2:connector-curvature="0" style="stroke:none" />
      <path d="m 580.1185,484.408 -0.4907,-3.2217 -1.6763,-3e-4 -1.6764,-4e-4 -0.492,3.2214 v 0 z m 1.6596,10.8965 -0.5106,-3.3527 v 0 l -6.6365,-10e-4 -0.512,3.3525 v 0 z m 1.6596,10.8966 -0.5106,-3.3527 v 0 l -9.9603,-0.002 -0.512,3.3525 v 0 z m 1.6597,10.8966 -0.5107,-3.3528 v 0 l -13.2841,-0.003 -0.512,3.3525 z m 1.6596,10.8966 -0.5107,-3.3528 v 0 l -16.6079,-0.003 v 0 l -0.512,3.3525 v 0 z m 1.6596,10.8966 -0.5107,-3.3528 v 0 l -19.9317,-0.004 v 0 l -0.512,3.3526 10.4772,0.002 z" clip-path="url(#1904680773316-clipPath1)" id="path195" ns2:connector-curvature="0" style="fill:#f0abfc;stroke:none" />
    </g>
    <g id="g203" style="text-rendering:geometricPrecision;fill:#f0abfc;stroke:none">
      <path d="m 361.6821,453.0633 v 0 l -45.3717,26.1856 c -0.8018,0.4627 -1.827,0.1879 -2.2898,-0.614 -0.4628,-0.8018 -0.1879,-1.827 0.614,-2.2898 v 0 l 45.3716,-26.1856 c 0.8018,-0.4627 1.8271,-0.1879 2.2898,0.614 0.4628,0.8018 0.1879,1.8271 -0.6139,2.2898 z" clip-path="url(#1904680773768-clipPath1)" id="path199" ns2:connector-curvature="0" style="stroke:none" />
      <path d="m 361.6821,453.0633 v 0 l -45.3717,26.1856 c -0.8018,0.4627 -1.827,0.1879 -2.2898,-0.614 -0.4628,-0.8018 -0.1879,-1.827 0.614,-2.2898 v 0 l 45.3716,-26.1856 c 0.8018,-0.4627 1.8271,-0.1879 2.2898,0.614 0.4628,0.8018 0.1879,1.8271 -0.6139,2.2898 z" clip-path="url(#1904680773949-clipPath1)" id="path201" ns2:connector-curvature="0" style="fill:#fda4af;stroke:none" />
    </g>
    <g id="g209" style="fill:#ffffff99;stroke:none;text-rendering:geometricPrecision">
      <path d="m 440.0354,253.9415 2.659,-2.0999 v 0 l -2.0418,-3.5366 v 0 l -3.148,1.2529 v 0 z m -8.6418,6.8244 2.659,-2.0998 v 0 l -3.6311,-6.2893 v 0 l -3.148,1.2529 v 0 z m -8.6418,6.8245 2.659,-2.0998 -5.2203,-9.042 v 0 l -3.1481,1.2528 z m -8.6418,6.8245 2.659,-2.0999 -6.8096,-11.7946 -3.148,1.2528 z m -8.6417,6.8244 2.659,-2.0998 -8.399,-14.5474 -3.148,1.2529 z m -8.6418,6.8245 2.659,-2.0998 -9.9882,-17.3001 -3.148,1.2529 5.2386,9.0735 z" clip-path="url(#1904680773768-clipPath1)" id="path205" ns2:connector-curvature="0" style="stroke:none" />
      <path d="m 440.0354,253.9415 2.659,-2.0999 v 0 l -2.0418,-3.5366 v 0 l -3.148,1.2529 v 0 z m -8.6418,6.8244 2.659,-2.0998 v 0 l -3.6311,-6.2893 v 0 l -3.148,1.2529 v 0 z m -8.6418,6.8245 2.659,-2.0998 -5.2203,-9.042 v 0 l -3.1481,1.2528 z m -8.6418,6.8245 2.659,-2.0999 -6.8096,-11.7946 -3.148,1.2528 z m -8.6417,6.8244 2.659,-2.0998 -8.399,-14.5474 -3.148,1.2529 z m -8.6418,6.8245 2.659,-2.0998 -9.9882,-17.3001 -3.148,1.2529 5.2386,9.0735 z" clip-path="url(#1904680773865-clipPath1)" id="path207" ns2:connector-curvature="0" style="fill:#f0abfc;stroke:none" />
    </g>
    <g id="g215" style="fill:#ffffff99;stroke:none;text-rendering:geometricPrecision">
      <path d="m 507.0953,370.1208 2.659,-2.0998 v 0 l -2.0418,-3.5367 v 0 l -3.148,1.2529 v 0 z m -8.6417,6.8245 2.6589,-2.0999 v 0 l -3.6311,-6.2893 v 0 l -3.148,1.2529 v 0 z m -8.6418,6.8244 2.659,-2.0998 -5.2204,-9.042 v 0 l -3.148,1.2529 v 0 z m -8.6418,6.8245 2.659,-2.0998 v 0 l -6.8097,-11.7947 v 0 l -3.148,1.2528 z m -8.6418,6.8244 2.659,-2.0998 -8.399,-14.5473 v 0 l -3.1479,1.2528 z m -8.6418,6.8245 2.659,-2.0998 v 0 l -9.9882,-17.3001 v 0 l -3.148,1.2529 5.2386,9.0735 z" clip-path="url(#1904680773768-clipPath1)" id="path211" ns2:connector-curvature="0" style="stroke:none" />
      <path d="m 507.0953,370.1208 2.659,-2.0998 v 0 l -2.0418,-3.5367 v 0 l -3.148,1.2529 v 0 z m -8.6417,6.8245 2.6589,-2.0999 v 0 l -3.6311,-6.2893 v 0 l -3.148,1.2529 v 0 z m -8.6418,6.8244 2.659,-2.0998 -5.2204,-9.042 v 0 l -3.148,1.2529 v 0 z m -8.6418,6.8245 2.659,-2.0998 v 0 l -6.8097,-11.7947 v 0 l -3.148,1.2528 z m -8.6418,6.8244 2.659,-2.0998 -8.399,-14.5473 v 0 l -3.1479,1.2528 z m -8.6418,6.8245 2.659,-2.0998 v 0 l -9.9882,-17.3001 v 0 l -3.148,1.2529 5.2386,9.0735 z" clip-path="url(#1904680773149-clipPath1)" id="path213" ns2:connector-curvature="0" style="fill:#f0abfc;stroke:none" />
    </g>
    <g id="g221" style="fill:#ffffff99;stroke:none;text-rendering:geometricPrecision">
      <path d="m 577.982,326.2923 0.8381,1.4518 56.6565,-22.5483 -5.2386,-9.0735 -5.2386,-9.0735 -47.8556,37.7918 z" clip-path="url(#1904680773768-clipPath1)" id="path217" ns2:connector-curvature="0" style="stroke:none" />
      <path d="m 577.982,326.2923 0.8381,1.4518 56.6565,-22.5483 -5.2386,-9.0735 -5.2386,-9.0735 -47.8556,37.7918 z" clip-path="url(#1904680773973-clipPath1)" id="path219" ns2:connector-curvature="0" style="fill:#f0abfc;stroke:none" />
    </g>
    <g font-size="27px" transform="translate(500.6914,193.606)" id="g225" style="font-size:27px;font-family:sans-serif;fill:#c4b5fd;stroke:none;text-rendering:geometricPrecision">
      <text x="0" xml:space="preserve" y="26" clip-path="url(#1904680773367-clipPath1)" id="text223" style="stroke:none">N</text>
    </g>
    <g font-size="27px" transform="translate(277.8176,217.5196)" id="g229" style="font-size:27px;font-family:sans-serif;fill:#c4b5fd;stroke:none;text-rendering:geometricPrecision">
      <text x="0" xml:space="preserve" y="26" clip-path="url(#1904680773488-clipPath1)" id="text227" style="stroke:none">HN</text>
    </g>
    <g font-size="27px" transform="translate(366.9912,271.044)" id="g233" style="font-size:27px;font-family:sans-serif;fill:#ffffff99;stroke:none;text-rendering:geometricPrecision">
      <text x="0" xml:space="preserve" y="26" clip-path="url(#1904680773900-clipPath1)" id="text231" style="stroke:none">H</text>
    </g>
    <g font-size="27px" transform="translate(434.0511,387.2233)" id="g237" style="font-size:27px;font-family:sans-serif;fill:#ffffff99;stroke:none;text-rendering:geometricPrecision">
      <text x="0" xml:space="preserve" y="26" clip-path="url(#1904680773369-clipPath1)" id="text235" style="stroke:none">H</text>
    </g>
    <g font-size="27px" transform="translate(635.2722,271.0686)" id="g241" style="font-size:27px;font-family:sans-serif;fill:#ffffff99;stroke:none;text-rendering:geometricPrecision">
      <text x="0" xml:space="preserve" y="26" clip-path="url(#1904680773651-clipPath1)" id="text239" style="stroke:none">H</text>
    </g>
    <g font-size="27px" transform="translate(567.4899,542.1334)" id="g245" style="font-size:27px;font-family:sans-serif;fill:#fda4af;stroke:none;text-rendering:geometricPrecision">
      <text x="0" xml:space="preserve" y="26" clip-path="url(#1904680773707-clipPath1)" id="text243" style="stroke:none">OH</text>
    </g>
    <g font-size="27px" transform="translate(366.2973,425.9359)" id="g249" style="font-size:27px;font-family:sans-serif;fill:#fda4af;stroke:none;text-rendering:geometricPrecision">
      <text x="0" xml:space="preserve" y="26" clip-path="url(#1904680773251-clipPath1)" id="text247" style="stroke:none">O</text>
    </g>
    <g font-size="27px" transform="translate(433.3499,542.1178)" id="g253" style="font-size:27px;font-family:sans-serif;fill:#fda4af;stroke:none;text-rendering:geometricPrecision">
      <text x="0" xml:space="preserve" y="26" clip-path="url(#1904680773841-clipPath1)" id="text251" style="stroke:none">O</text>
    </g>
  </g>
</svg>