<?xml version='1.0' encoding='utf-8'?>
<svg xmlns="http://www.w3.org/2000/svg" xmlns:dc="http://purl.org/dc/elements/1.1/" xmlns:ns1="http://www.inkscape.org/namespaces/inkscape" xmlns:ns2="http://sodipodi.sourceforge.net/DTD/sodipodi-0.dtd" xmlns:ns4="http://creativecommons.org/ns#" xmlns:rdf="http://www.w3.org/1999/02/22-rdf-syntax-ns#" width="714.24347" stroke-miterlimit="10" font-weight="normal" height="516.17877" font-style="normal" font-size="12px" id="svg2" version="1.1" ns1:version="0.91 r13725" ns2:docname="Zenazocine.svg" style="font-style:normal;font-weight:normal;font-size:12px;font-family:Dialog;color-interpolation:auto;fill:#f0abfc;fill-opacity:1;stroke:none;stroke:none;stroke:none;stroke:none;stroke:none;stroke:none;stroke:none;stroke:none;color-rendering:auto;image-rendering:auto;shape-rendering:auto;text-rendering:auto">
  <metadata id="metadata182">
    <rdf:RDF>
      <ns4:Work rdf:about="">
        <dc:format>image/svg+xml</dc:format>
        <dc:type rdf:resource="http://purl.org/dc/dcmitype/StillImage" />
        <dc:title />
      </ns4:Work>
    </rdf:RDF>
  </metadata>
  <ns2:namedview pagecolor="#eef2ff" bordercolor="#666666" borderopacity="1" objecttolerance="10" gridtolerance="10" guidetolerance="10" ns1:pageopacity="0" ns1:pageshadow="2" ns1:window-width="1920" ns1:window-height="1058" id="namedview180" showgrid="false" fit-margin-top="10" fit-margin-left="10" fit-margin-right="10" fit-margin-bottom="10" ns1:zoom="0.36375" ns1:cx="476.80913" ns1:cy="235.6887" ns1:window-x="-8" ns1:window-y="-8" ns1:window-maximized="1" ns1:current-layer="svg2" />
  
  <defs id="genericDefs" />
  <g id="g5" transform="translate(-42.7785,-19.5099)" style="fill:#f0abfc;stroke:none">
    <defs id="1440536415219-defs1">
      <clipPath clipPathUnits="userSpaceOnUse" id="1440536415313-clipPath1">
        <path d="M 0,0 800,0 800,600 0,600 0,0 Z" id="path9" ns1:connector-curvature="0" style="stroke:none" />
      </clipPath>
      <clipPath clipPathUnits="userSpaceOnUse" id="1440536415947-clipPath1">
        <path d="m 373,241 q 6,6 0,13 l -82,0 q -6,-7 0,-13 z M 0,0 0,600 800,600 800,0 Z" id="path12" ns1:connector-curvature="0" style="stroke:none" />
      </clipPath>
      <clipPath clipPathUnits="userSpaceOnUse" id="144053641557-clipPath1">
        <path d="m 361.8726,256.1533 c -17.8095,0 -32.2469,14.4374 -32.2469,32.2468 0,17.8095 14.4374,32.2469 32.2469,32.2469 17.8094,0 32.2468,-14.4374 32.2468,-32.2469 0,-17.8094 -14.4374,-32.2468 -32.2468,-32.2468 z" id="path15" ns1:connector-curvature="0" style="stroke:none" />
      </clipPath>
      <clipPath clipPathUnits="userSpaceOnUse" id="1440536415949-clipPath1">
        <path d="m 421.086,272.5707 c -22.5623,0 -40.8527,18.2904 -40.8527,40.8527 0,22.5623 18.2904,40.8526 40.8527,40.8526 22.5623,0 40.8526,-18.2903 40.8526,-40.8526 0,-22.5623 -18.2903,-40.8527 -40.8526,-40.8527 z" id="path18" ns1:connector-curvature="0" style="stroke:none" />
      </clipPath>
      <clipPath clipPathUnits="userSpaceOnUse" id="144053641546-clipPath1">
        <path d="m 149.344,54.4007 c -16.2943,0 -29.5034,13.2091 -29.5034,29.5034 0,16.2943 13.2091,29.5034 29.5034,29.5034 16.2943,0 29.5034,-13.2091 29.5034,-29.5034 0,-16.2943 -13.2091,-29.5034 -29.5034,-29.5034 z" id="path21" ns1:connector-curvature="0" style="stroke:none" />
      </clipPath>
      <clipPath clipPathUnits="userSpaceOnUse" id="1440536415863-clipPath1">
        <path d="m 448,294.988 c -16.1904,0 -29.3153,13.1249 -29.3153,29.3153 0,16.1904 13.1249,29.3153 29.3153,29.3153 16.1904,0 29.3153,-13.1249 29.3153,-29.3153 0,-16.1904 -13.1249,-29.3153 -29.3153,-29.3153 z" id="path24" ns1:connector-curvature="0" style="stroke:none" />
      </clipPath>
      <clipPath clipPathUnits="userSpaceOnUse" id="1440536415517-clipPath1">
        <path d="m 480.5047,403.3256 c -16.869,0 -30.544,13.675 -30.544,30.5441 0,16.869 13.675,30.544 30.544,30.544 16.869,0 30.5441,-13.675 30.5441,-30.544 0,-16.8691 -13.6751,-30.5441 -30.5441,-30.5441 z" id="path27" ns1:connector-curvature="0" style="stroke:none" />
      </clipPath>
      <clipPath clipPathUnits="userSpaceOnUse" id="1440536415403-clipPath1">
        <path d="m -422.2028,-311.8018 800,0 0,600 -800,0 0,-600 z" id="path30" ns1:connector-curvature="0" style="stroke:none" />
      </clipPath>
      <clipPath clipPathUnits="userSpaceOnUse" id="1440536415800-clipPath1">
        <path d="m -50.2785,-25.504 800,0 0,600 -800,0 0,-600 z" id="path33" ns1:connector-curvature="0" style="stroke:none" />
      </clipPath>
      <clipPath clipPathUnits="userSpaceOnUse" id="1440536415154-clipPath1">
        <path d="m -443.9192,-494.1633 800,0 0,600 -800,0 0,-600 z" id="path36" ns1:connector-curvature="0" style="stroke:none" />
      </clipPath>
    </defs>
    <g id="g38" style="text-rendering:geometricPrecision;fill:#f0abfc;stroke:none">
      <path d="m 220.8305,187.1419 c -0.847,0.489 -1.137,1.5716 -0.648,2.4186 0.489,0.847 1.5716,1.137 2.4185,0.648 l 53.0265,-30.6155 c 0.847,-0.489 1.1371,-1.5715 0.648,-2.4185 -0.489,-0.847 -1.5715,-1.1371 -2.4185,-0.6481 z m -1.5333,17.9223 c -0.847,0.489 -1.137,1.5715 -0.648,2.4185 0.489,0.847 1.5715,1.1371 2.4185,0.6481 l 70.8477,-40.9048 c 0.847,-0.489 1.1371,-1.5716 0.6481,-2.4186 -0.489,-0.847 -1.5716,-1.137 -2.4186,-0.648 z" clip-path="url(#1440536415313-clipPath1)" id="path40" ns1:connector-curvature="0" style="stroke:none" />
    </g>
    <g id="g42" style="text-rendering:geometricPrecision;fill:#f0abfc;stroke:none">
      <path d="m 219.3028,289.9373 70.8434,40.8874 c 0.8471,0.4889 1.9296,0.1987 2.4185,-0.6484 0.4889,-0.847 0.1987,-1.9296 -0.6484,-2.4184 l -70.8434,-40.8874 c -0.8471,-0.4889 -1.9296,-0.1987 -2.4185,0.6484 -0.4889,0.847 -0.1987,1.9296 0.6484,2.4184 z" clip-path="url(#1440536415313-clipPath1)" id="path44" ns1:connector-curvature="0" style="stroke:none" />
    </g>
    <g id="g46" style="text-rendering:geometricPrecision;fill:#f0abfc;stroke:none">
      <path d="m 291.9164,330.8247 70.8413,-40.8912 c 0.847,-0.4889 1.1372,-1.5714 0.6482,-2.4185 -0.4889,-0.847 -1.5714,-1.1372 -2.4185,-0.6482 l -70.8412,40.8911 c -0.8471,0.4889 -1.1373,1.5715 -0.6483,2.4185 0.4889,0.847 1.5714,1.1372 2.4185,0.6483 z" clip-path="url(#1440536415313-clipPath1)" id="path48" ns1:connector-curvature="0" style="stroke:none" />
    </g>
    <g id="g50" style="text-rendering:geometricPrecision;fill:#f0abfc;stroke:none">
      <path d="m 363.6431,288.4001 -0.002,-81.8083 c 0,-0.978 -0.7925,-1.7705 -1.7706,-1.7704 -0.978,0 -1.7704,0.7925 -1.7704,1.7705 l 0.002,81.8083 c 0,0.978 0.7925,1.7705 1.7705,1.7705 0.978,0 1.7705,-0.7926 1.7705,-1.7706 z" clip-path="url(#1440536415947-clipPath1)" id="path52" ns1:connector-curvature="0" style="stroke:none" />
    </g>
    <g id="g54" style="text-rendering:geometricPrecision;fill:#f0abfc;stroke:none">
      <path d="m 218.412,206.5976 0.005,81.8064 c 1e-4,0.978 0.7926,1.7705 1.7707,1.7704 0.978,-10e-5 1.7704,-0.7926 1.7704,-1.7706 l -0.005,-81.8064 c -1e-4,-0.9781 -0.7926,-1.7705 -1.7706,-1.7704 -0.9781,0 -1.7705,0.7926 -1.7704,1.7706 z" clip-path="url(#1440536415313-clipPath1)" id="path56" ns1:connector-curvature="0" style="stroke:none" />
    </g>
    <g id="g58" style="text-rendering:geometricPrecision;fill:#f0abfc;stroke:none">
      <path d="m 290.1449,167.226 70.8402,40.8992 c 0.847,0.489 1.9296,0.1989 2.4186,-0.6481 0.489,-0.847 0.1989,-1.9295 -0.6481,-2.4186 l -70.8402,-40.8991 c -0.847,-0.489 -1.9295,-0.199 -2.4185,0.648 -0.4891,0.847 -0.199,1.9296 0.648,2.4186 z" clip-path="url(#1440536415313-clipPath1)" id="path60" ns1:connector-curvature="0" style="stroke:none" />
    </g>
    <g id="g62" style="text-rendering:geometricPrecision;fill:#f0abfc;stroke:none">
      <path d="m 220.1879,288.4039 0.8854,1.5332 95.1429,-44.2105 -22.1274,0 -22.1275,0 -52.6589,41.1441 z" clip-path="url(#1440536415313-clipPath1)" id="path64" ns1:connector-curvature="0" style="stroke:none" />
    </g>
    <g id="g66" style="text-rendering:geometricPrecision;fill:#f0abfc;stroke:none">
      <path d="m 291.0229,249.2676 81.7984,0 c 0.978,0 1.7705,-0.7925 1.7705,-1.7705 0,-0.978 -0.7925,-1.7705 -1.7705,-1.7705 l -81.7984,0 c -0.978,0 -1.7705,0.7925 -1.7705,1.7705 0,0.978 0.7925,1.7705 1.7705,1.7705 z" clip-path="url(#1440536415313-clipPath1)" id="path68" ns1:connector-curvature="0" style="stroke:none" />
    </g>
    <g id="g70" style="fill:#c4b5fd;stroke:none;text-rendering:geometricPrecision">
      <path d="m 360.9872,289.9334 55.8521,32.2488 c 0.8469,0.4891 1.9295,0.199 2.4185,-0.648 0.4891,-0.8469 0.199,-1.9295 -0.6479,-2.4185 l -55.8521,-32.2488 c -0.8469,-0.4891 -1.9295,-0.199 -2.4185,0.648 -0.4891,0.8469 -0.199,1.9295 0.6479,2.4185 z" clip-path="url(#1440536415313-clipPath1)" id="path72" ns1:connector-curvature="0" style="stroke:none" />
      <path d="m 360.9872,289.9334 55.8521,32.2488 c 0.8469,0.4891 1.9295,0.199 2.4185,-0.648 0.4891,-0.8469 0.199,-1.9295 -0.6479,-2.4185 l -55.8521,-32.2488 c -0.8469,-0.4891 -1.9295,-0.199 -2.4185,0.648 -0.4891,0.8469 -0.199,1.9295 0.6479,2.4185 z" clip-path="url(#144053641557-clipPath1)" id="path74" ns1:connector-curvature="0" style="fill:#f0abfc;stroke:none" />
    </g>
    <g id="g76" style="text-rendering:geometricPrecision;fill:#f0abfc;stroke:none">
      <path d="m 421.086,313.4234 1.4286,-1.0459 -37.2752,-66.6509 -13.7143,0 -13.7143,0 61.8466,68.7426 z" clip-path="url(#1440536415313-clipPath1)" id="path78" ns1:connector-curvature="0" style="stroke:none" />
      <path d="m 421.086,313.4234 1.4286,-1.0459 -37.2752,-66.6509 -13.7143,0 -13.7143,0 61.8466,68.7426 z" clip-path="url(#1440536415949-clipPath1)" id="path80" ns1:connector-curvature="0" style="fill:#c4b5fd;stroke:none" />
    </g>
    <g id="g82" style="text-rendering:geometricPrecision;fill:#f0abfc;stroke:none">
      <path d="m 292.8007,165.6926 -0.002,-81.8008 c 0,-0.978 -0.7925,-1.7705 -1.7705,-1.7705 -0.978,0 -1.7705,0.7925 -1.7705,1.7706 l 0.002,81.8008 c 0,0.9781 0.7925,1.7705 1.7705,1.7705 0.978,0 1.7705,-0.7925 1.7705,-1.7706 z" clip-path="url(#1440536415313-clipPath1)" id="path84" ns1:connector-curvature="0" style="stroke:none" />
    </g>
    <g id="g86" style="text-rendering:geometricPrecision;fill:#f0abfc;stroke:none">
      <path d="m 273.8553,93.0591 c 0.847,0.4889 1.9296,0.1988 2.4186,-0.6482 0.4889,-0.847 0.1988,-1.9296 -0.6482,-2.4185 l -53.015,-30.6045 c -0.847,-0.489 -1.9295,-0.1989 -2.4185,0.6481 -0.489,0.8471 -0.1988,1.9296 0.6482,2.4186 z m 16.2875,-7.6339 c 0.847,0.4889 1.9296,0.1988 2.4186,-0.6482 0.4889,-0.847 0.1988,-1.9296 -0.6482,-2.4185 L 221.0769,41.466 c -0.847,-0.489 -1.9296,-0.1988 -2.4186,0.6482 -0.4889,0.847 -0.1988,1.9295 0.6482,2.4185 z" clip-path="url(#1440536415313-clipPath1)" id="path88" ns1:connector-curvature="0" style="stroke:none" />
    </g>
    <g id="g90" style="text-rendering:geometricPrecision;fill:#f0abfc;stroke:none">
      <path d="m 219.3064,41.4661 -70.8477,40.9047 c -0.847,0.489 -1.137,1.5716 -0.648,2.4186 0.489,0.847 1.5716,1.137 2.4186,0.648 L 221.077,44.5326 c 0.847,-0.489 1.137,-1.5715 0.648,-2.4185 -0.489,-0.847 -1.5716,-1.1371 -2.4186,-0.648 z" clip-path="url(#1440536415313-clipPath1)" id="path92" ns1:connector-curvature="0" style="stroke:none" />
    </g>
    <g id="g94" style="text-rendering:geometricPrecision;fill:#f0abfc;stroke:none">
      <path d="m 165.8685,94.1932 c 10e-5,-0.978 -0.7924,-1.7705 -1.7704,-1.7705 -0.978,-1e-4 -1.7705,0.7924 -1.7706,1.7704 l -0.002,61.2145 c 0,0.9781 0.7925,1.7706 1.7705,1.7706 0.978,0 1.7705,-0.7924 1.7705,-1.7704 z m -14.754,-10.289 c 0,-0.978 -0.7924,-1.7706 -1.7704,-1.7706 -0.9781,0 -1.7706,0.7924 -1.7706,1.7705 l -0.003,81.7923 c 0,0.978 0.7924,1.7705 1.7704,1.7705 0.9781,0 1.7706,-0.7924 1.7706,-1.7704 z" clip-path="url(#1440536415313-clipPath1)" id="path96" ns1:connector-curvature="0" style="stroke:none" />
    </g>
    <g id="g98" style="text-rendering:geometricPrecision;fill:#f0abfc;stroke:none">
      <path d="m 148.4559,167.2297 70.8413,40.9011 c 0.847,0.489 1.9296,0.1989 2.4186,-0.6481 0.489,-0.847 0.1989,-1.9295 -0.6481,-2.4185 l -70.8412,-40.9011 c -0.847,-0.489 -1.9296,-0.1989 -2.4186,0.648 -0.489,0.847 -0.199,1.9296 0.648,2.4186 z" clip-path="url(#1440536415313-clipPath1)" id="path100" ns1:connector-curvature="0" style="stroke:none" />
    </g>
    <g id="g102" style="fill:#fda4af;stroke:none;text-rendering:geometricPrecision">
      <path d="m 150.2293,82.3708 -51.101,-29.504 c -0.847,-0.489 -1.9296,-0.199 -2.4186,0.648 -0.489,0.847 -0.199,1.9295 0.648,2.4186 l 51.101,29.504 c 0.847,0.489 1.9296,0.199 2.4186,-0.648 0.489,-0.847 0.199,-1.9296 -0.648,-2.4186 z" clip-path="url(#1440536415313-clipPath1)" id="path104" ns1:connector-curvature="0" style="stroke:none" />
      <path d="m 150.2293,82.3708 -51.101,-29.504 c -0.847,-0.489 -1.9296,-0.199 -2.4186,0.648 -0.489,0.847 -0.199,1.9295 0.648,2.4186 l 51.101,29.504 c 0.847,0.489 1.9296,0.199 2.4186,-0.648 0.489,-0.847 0.199,-1.9296 -0.648,-2.4186 z" clip-path="url(#144053641546-clipPath1)" id="path106" ns1:connector-curvature="0" style="fill:#f0abfc;stroke:none" />
    </g>
    <g id="g108" style="text-rendering:geometricPrecision;fill:#f0abfc;stroke:none">
      <path d="m 289.6553,328.1772 -47.0176,58.0678 c -0.6155,0.7601 -0.4982,1.8747 0.2618,2.4902 0.7601,0.6154 1.8747,0.4982 2.4902,-0.2619 l 47.0176,-58.0678 c 0.6154,-0.7601 0.4982,-1.8747 -0.2619,-2.4902 -0.7601,-0.6155 -1.8747,-0.4982 -2.4901,0.2619 z" clip-path="url(#1440536415313-clipPath1)" id="path110" ns1:connector-curvature="0" style="stroke:none" />
    </g>
    <g id="g112" style="text-rendering:geometricPrecision;fill:#f0abfc;stroke:none">
      <path d="m 219.3024,286.8707 -64.7022,37.3651 c -0.8469,0.4891 -1.1369,1.5717 -0.6478,2.4186 0.4891,0.847 1.5717,1.1369 2.4186,0.6478 l 64.7023,-37.3651 c 0.8469,-0.4891 1.1369,-1.5717 0.6478,-2.4186 -0.4892,-0.847 -1.5717,-1.1369 -2.4187,-0.6478 z" clip-path="url(#1440536415313-clipPath1)" id="path114" ns1:connector-curvature="0" style="stroke:none" />
    </g>
    <g id="g116" style="text-rendering:geometricPrecision;fill:#f0abfc;stroke:none">
      <path d="m 448.5502,325.9861 55.728,-18.2189 c 0.9296,-0.3039 1.4366,-1.3035 1.1327,-2.2331 -0.3039,-0.9295 -1.3034,-1.4365 -2.233,-1.1326 l -55.7281,18.2189 c -0.9296,0.3039 -1.4366,1.3035 -1.1326,2.2331 0.3039,0.9296 1.3034,1.4366 2.233,1.1326 z" clip-path="url(#1440536415313-clipPath1)" id="path118" ns1:connector-curvature="0" style="stroke:none" />
      <path d="m 448.5502,325.9861 55.728,-18.2189 c 0.9296,-0.3039 1.4366,-1.3035 1.1327,-2.2331 -0.3039,-0.9295 -1.3034,-1.4365 -2.233,-1.1326 l -55.7281,18.2189 c -0.9296,0.3039 -1.4366,1.3035 -1.1326,2.2331 0.3039,0.9296 1.3034,1.4366 2.233,1.1326 z" clip-path="url(#1440536415863-clipPath1)" id="path120" ns1:connector-curvature="0" style="fill:#c4b5fd;stroke:none" />
    </g>
    <g id="g122" style="text-rendering:geometricPrecision;fill:#f0abfc;stroke:none">
      <path d="m 289.7155,330.476 54.7309,60.7906 c 0.6543,0.7268 1.7735,0.7856 2.5004,0.1312 0.7268,-0.6544 0.7855,-1.7736 0.1311,-2.5005 l -54.7308,-60.7906 c -0.6544,-0.7269 -1.7736,-0.7856 -2.5005,-0.1312 -0.7268,0.6544 -0.7855,1.7736 -0.1311,2.5005 z" clip-path="url(#1440536415313-clipPath1)" id="path124" ns1:connector-curvature="0" style="stroke:none" />
    </g>
    <g id="g126" style="text-rendering:geometricPrecision;fill:#f0abfc;stroke:none">
      <path d="m 346.1302,391.8138 80.0117,-17.003 c 0.9566,-0.2033 1.5671,-1.1432 1.3638,-2.0998 -0.2033,-0.9567 -1.1432,-1.5671 -2.0999,-1.3639 l -80.0117,17.003 c -0.9566,0.2033 -1.5671,1.1432 -1.3638,2.0999 0.2033,0.9566 1.1432,1.5671 2.0999,1.3638 z" clip-path="url(#1440536415313-clipPath1)" id="path128" ns1:connector-curvature="0" style="stroke:none" />
    </g>
    <g id="g130" style="text-rendering:geometricPrecision;fill:#f0abfc;stroke:none">
      <path d="m 424.458,374.2636 54.7309,60.7907 c 0.6544,0.7268 1.7736,0.7855 2.5005,0.1312 0.7268,-0.6544 0.7855,-1.7736 0.1311,-2.5005 l -54.7308,-60.7907 c -0.6544,-0.7268 -1.7737,-0.7855 -2.5005,-0.1311 -0.7268,0.6544 -0.7856,1.7736 -0.1312,2.5004 z" clip-path="url(#1440536415313-clipPath1)" id="path132" ns1:connector-curvature="0" style="stroke:none" />
    </g>
    <g id="g134" style="text-rendering:geometricPrecision;fill:#f0abfc;stroke:none">
      <path d="m 480.8727,435.6015 80.0118,-17.003 c 0.9566,-0.2033 1.567,-1.1432 1.3638,-2.0999 -0.2033,-0.9566 -1.1433,-1.5671 -2.0999,-1.3638 l -80.0117,17.003 c -0.9566,0.2033 -1.5671,1.1432 -1.3638,2.0999 0.2033,0.9566 1.1432,1.5671 2.0998,1.3638 z" clip-path="url(#1440536415313-clipPath1)" id="path136" ns1:connector-curvature="0" style="stroke:none" />
    </g>
    <g id="g138" style="fill:#fda4af;stroke:none;text-rendering:geometricPrecision">
      <path d="m 490.5209,432.6462 c 0.3023,-0.9302 -0.2064,-1.9288 -1.1366,-2.2311 -0.9301,-0.3022 -1.9288,0.2065 -2.231,1.1367 l -20.1965,62.148 c -0.3022,0.9302 0.2065,1.9288 1.1367,2.2311 0.9301,0.3022 1.9287,-0.2065 2.231,-1.1367 z m -14.032,-4.56 c 0.3023,-0.9302 -0.2065,-1.9288 -1.1366,-2.2311 -0.9302,-0.3023 -1.9288,0.2065 -2.2311,1.1366 l -20.1964,62.1481 c -0.3022,0.9301 0.2065,1.9288 1.1366,2.231 0.9302,0.3023 1.9288,-0.2065 2.2311,-1.1366 z" clip-path="url(#1440536415313-clipPath1)" id="path140" ns1:connector-curvature="0" style="stroke:none" />
      <path d="m 490.5209,432.6462 c 0.3023,-0.9302 -0.2064,-1.9288 -1.1366,-2.2311 -0.9301,-0.3022 -1.9288,0.2065 -2.231,1.1367 l -20.1965,62.148 c -0.3022,0.9302 0.2065,1.9288 1.1367,2.2311 0.9301,0.3022 1.9287,-0.2065 2.231,-1.1367 z m -14.032,-4.56 c 0.3023,-0.9302 -0.2065,-1.9288 -1.1366,-2.2311 -0.9302,-0.3023 -1.9288,0.2065 -2.2311,1.1366 l -20.1964,62.1481 c -0.3022,0.9301 0.2065,1.9288 1.1366,2.231 0.9302,0.3023 1.9288,-0.2065 2.2311,-1.1366 z" clip-path="url(#1440536415517-clipPath1)" id="path142" ns1:connector-curvature="0" style="fill:#f0abfc;stroke:none" />
    </g>
    <g id="g144" style="text-rendering:geometricPrecision;fill:#f0abfc;stroke:none">
      <path d="m 559.2006,418.0513 54.7309,60.7907 c 0.6544,0.7268 1.7736,0.7855 2.5004,0.1311 0.7269,-0.6543 0.7856,-1.7736 0.1312,-2.5004 L 561.8322,415.682 c -0.6543,-0.7268 -1.7735,-0.7855 -2.5004,-0.1311 -0.7269,0.6544 -0.7855,1.7736 -0.1312,2.5004 z" clip-path="url(#1440536415313-clipPath1)" id="path146" ns1:connector-curvature="0" style="stroke:none" />
    </g>
    <g id="g148" style="text-rendering:geometricPrecision;fill:#f0abfc;stroke:none">
      <path d="m 615.6154,479.3892 80.0116,-17.003 c 0.9567,-0.2033 1.5672,-1.1432 1.3638,-2.0999 -0.2033,-0.9566 -1.1431,-1.5671 -2.0998,-1.3638 l -80.0117,17.003 c -0.9567,0.2033 -1.5671,1.1432 -1.3639,2.0999 0.2034,0.9566 1.1433,1.5671 2.1,1.3638 z" clip-path="url(#1440536415313-clipPath1)" id="path150" ns1:connector-curvature="0" style="stroke:none" />
    </g>
    <g id="g152" style="text-rendering:geometricPrecision;fill:#f0abfc;stroke:none">
      <path d="m 693.9432,461.839 49.9923,55.5275 c 0.6544,0.7268 1.7736,0.7855 2.5005,0.1311 0.7268,-0.6544 0.7855,-1.7736 0.1311,-2.5004 l -49.9923,-55.5275 c -0.6544,-0.7268 -1.7736,-0.7856 -2.5005,-0.1312 -0.7268,0.6544 -0.7855,1.7737 -0.1311,2.5005 z" clip-path="url(#1440536415313-clipPath1)" id="path154" ns1:connector-curvature="0" style="stroke:none" />
    </g>
    <g id="g156" style="text-rendering:geometricPrecision;fill:#f0abfc;stroke:none">
      <path d="m 696.9428,461.2015 23.0921,-71.0583 c 0.3023,-0.9302 -0.2065,-1.9288 -1.1366,-2.231 -0.9302,-0.3023 -1.9288,0.2065 -2.2311,1.1366 l -23.092,71.0583 c -0.3023,0.9302 0.2065,1.9288 1.1366,2.2311 0.9302,0.3022 1.9288,-0.2065 2.231,-1.1367 z" clip-path="url(#1440536415313-clipPath1)" id="path158" ns1:connector-curvature="0" style="stroke:none" />
    </g>
    <g id="g160" style="fill:#eef2ff;stroke:none;text-rendering:geometricPrecision">
      </g>
    <g font-size="29px" transform="translate(422.2028,311.8018)" id="g164" style="font-size:29px;font-family:sans-serif;fill:#c4b5fd;stroke:none;text-rendering:geometricPrecision">
      <text x="0" xml:space="preserve" y="28" clip-path="url(#1440536415403-clipPath1)" id="text166" style="stroke:none">N</text>
    </g>
    <g font-size="29px" id="g168" style="font-size:29px;font-family:sans-serif;fill:#eef2ff;stroke:none;text-rendering:geometricPrecision">
      <text x="0" y="28" transform="translate(50.2785,25.504)" clip-path="url(#1440536415800-clipPath1)" xml:space="preserve" id="text172" style="fill:#fda4af;stroke:none">HO</text>
    </g>
    <g font-size="29px" id="g174" style="font-size:29px;font-family:sans-serif;fill:#eef2ff;stroke:none;text-rendering:geometricPrecision">
      <text x="0" y="28" transform="translate(443.9192,494.1633)" clip-path="url(#1440536415154-clipPath1)" xml:space="preserve" id="text178" style="fill:#fda4af;stroke:none">O</text>
    </g>
  </g>
</svg>