<?xml version='1.0' encoding='utf-8'?>
<svg xmlns="http://www.w3.org/2000/svg" xmlns:dc="http://purl.org/dc/elements/1.1/" xmlns:ns1="http://www.inkscape.org/namespaces/inkscape" xmlns:ns2="http://sodipodi.sourceforge.net/DTD/sodipodi-0.dtd" xmlns:ns4="http://creativecommons.org/ns#" xmlns:rdf="http://www.w3.org/1999/02/22-rdf-syntax-ns#" width="518.41364" stroke-miterlimit="10" font-weight="normal" height="264.90543" font-style="normal" font-size="12px" id="svg2" version="1.1" ns1:version="0.91 r13725" ns2:docname="αMT.svg" style="font-style:normal;font-weight:normal;font-size:12px;font-family:Dialog;color-interpolation:auto;fill:#f5d0fe;fill-opacity:1;stroke:none;stroke:none;stroke:none;stroke:none;stroke:none;stroke:none;stroke:none;stroke:none;color-rendering:auto;image-rendering:auto;shape-rendering:auto;text-rendering:auto">
  <metadata id="metadata111">
    <rdf:RDF>
      <ns4:Work rdf:about="">
        <dc:format>image/svg+xml</dc:format>
        <dc:type rdf:resource="http://purl.org/dc/dcmitype/StillImage" />
        <dc:title />
      </ns4:Work>
    </rdf:RDF>
  </metadata>
  <ns2:namedview pagecolor="#eef2ff" bordercolor="#666666" borderopacity="1" objecttolerance="10" gridtolerance="10" guidetolerance="10" ns1:pageopacity="0" ns1:pageshadow="2" ns1:window-width="1060" ns1:window-height="480" id="namedview109" showgrid="false" fit-margin-top="10" fit-margin-left="10" fit-margin-right="10" fit-margin-bottom="10" ns1:zoom="0.36375" ns1:cx="259.09782" ns1:cy="-14.9783" ns1:window-x="0" ns1:window-y="0" ns1:window-maximized="0" ns1:current-layer="svg2" />
  
  <defs id="genericDefs" />
  <g id="g5" transform="translate(-140.90218,-20.116259)" style="fill:#f5d0fe;stroke:none">
    <defs id="204339493447-defs1">
      <clipPath clipPathUnits="userSpaceOnUse" id="204339493935-clipPath1">
        <path d="M 0,0 800,0 800,600 0,600 0,0 Z" id="path9" ns1:connector-curvature="0" style="stroke:none" />
      </clipPath>
      <clipPath clipPathUnits="userSpaceOnUse" id="204339493259-clipPath1">
        <path d="m 534.2997,129.1685 c -17.9973,0 -32.587,14.5897 -32.587,32.587 0,17.9973 14.5897,32.587 32.587,32.587 17.9973,0 32.587,-14.5897 32.587,-32.587 0,-17.9973 -14.5897,-32.587 -32.587,-32.587 z" id="path12" ns1:connector-curvature="0" style="stroke:none" />
      </clipPath>
      <clipPath clipPathUnits="userSpaceOnUse" id="204339493966-clipPath1">
        <path d="m 259.4296,160.1265 c -16.3076,0 -29.5276,13.2199 -29.5276,29.5276 0,16.3076 13.22,29.5276 29.5276,29.5276 16.3077,0 29.5276,-13.22 29.5276,-29.5276 0,-16.3077 -13.2199,-29.5276 -29.5276,-29.5276 z" id="path15" ns1:connector-curvature="0" style="stroke:none" />
      </clipPath>
      <clipPath clipPathUnits="userSpaceOnUse" id="204339493143-clipPath1">
        <path d="m 322.099,226.3398 c -16.9101,0 -30.6185,13.7083 -30.6185,30.6185 0,16.9101 13.7084,30.6185 30.6185,30.6185 16.9102,0 30.6185,-13.7084 30.6185,-30.6185 0,-16.9102 -13.7083,-30.6185 -30.6185,-30.6185 z" id="path18" ns1:connector-curvature="0" style="stroke:none" />
      </clipPath>
      <clipPath clipPathUnits="userSpaceOnUse" id="204339493887-clipPath1">
        <path d="m -595.8314,-102.7943 800,0 0,600 -800,0 0,-600 z" id="path21" ns1:connector-curvature="0" style="stroke:none" />
      </clipPath>
      <clipPath clipPathUnits="userSpaceOnUse" id="204339493498-clipPath1">
        <path d="m -635.3002,-118.1628 800.0001,0 0,600 -800.0001,0 0,-600 z" id="path24" ns1:connector-curvature="0" style="stroke:none" />
      </clipPath>
      <clipPath clipPathUnits="userSpaceOnUse" id="204339493268-clipPath1">
        <path d="m -274.6408,-243.967 799.9999,0 0,600 -799.9999,0 0,-600 z" id="path27" ns1:connector-curvature="0" style="stroke:none" />
      </clipPath>
    </defs>
    <g id="g29" style="text-rendering:geometricPrecision;fill:#f5d0fe;stroke:none">
      <path d="m 391.5713,163.3099 71.8129,-41.4612 c 0.8586,-0.4958 1.1527,-1.5932 0.6569,-2.4518 -0.4957,-0.8587 -1.5931,-1.1527 -2.4517,-0.657 l -71.813,41.4612 c -0.8586,0.4958 -1.1527,1.5932 -0.657,2.4518 0.4958,0.8587 1.5932,1.1527 2.4519,0.657 z" clip-path="url(#204339493935-clipPath1)" id="path31" ns1:connector-curvature="0" style="stroke:none" />
    </g>
    <g id="g33" style="text-rendering:geometricPrecision;fill:#f5d0fe;stroke:none">
      <path d="m 461.5894,121.8487 71.8129,41.4612 c 0.8586,0.4957 1.956,0.2017 2.4518,-0.657 0.4957,-0.8586 0.2017,-1.956 -0.657,-2.4518 l -71.8129,-41.4612 c -0.8587,-0.4957 -1.9561,-0.2017 -2.4518,0.657 -0.4958,0.8586 -0.2017,1.956 0.657,2.4518 z" clip-path="url(#204339493935-clipPath1)" id="path35" ns1:connector-curvature="0" style="stroke:none" />
    </g>
    <g id="g37" style="fill:#c4b5fd;stroke:none;text-rendering:geometricPrecision">
      <path d="m 535.1971,163.3099 56.4423,-32.587 c 0.8586,-0.4957 1.1527,-1.5932 0.657,-2.4518 -0.4957,-0.8586 -1.5932,-1.1527 -2.4519,-0.6569 l -56.4422,32.5869 c -0.8587,0.4958 -1.1527,1.5932 -0.657,2.4518 0.4958,0.8587 1.5932,1.1527 2.4518,0.657 z" clip-path="url(#204339493935-clipPath1)" id="path39" ns1:connector-curvature="0" style="stroke:none" />
      <path d="m 535.1971,163.3099 56.4423,-32.587 c 0.8586,-0.4957 1.1527,-1.5932 0.657,-2.4518 -0.4957,-0.8586 -1.5932,-1.1527 -2.4519,-0.6569 l -56.4422,32.5869 c -0.8587,0.4958 -1.1527,1.5932 -0.657,2.4518 0.4958,0.8587 1.5932,1.1527 2.4518,0.657 z" clip-path="url(#204339493259-clipPath1)" id="path41" ns1:connector-curvature="0" style="fill:#f5d0fe;stroke:none" />
    </g>
    <g id="g43" style="text-rendering:geometricPrecision;fill:#f5d0fe;stroke:none">
      <path d="m 316.2494,129.2362 c 0.6635,-0.7368 0.6041,-1.8714 -0.1327,-2.5348 -0.7368,-0.6634 -1.8714,-0.604 -2.5348,0.1328 l -55.486,61.6188 c -0.6635,0.7368 -0.6041,1.8714 0.1327,2.5349 0.7368,0.6634 1.8714,0.604 2.5348,-0.1328 z m -18.0943,-2.2579 c 0.6635,-0.7368 0.6041,-1.8714 -0.1327,-2.5348 -0.7368,-0.6634 -1.8714,-0.604 -2.5349,0.1328 l -41.5268,46.1168 c -0.6634,0.7367 -0.604,1.8713 0.1328,2.5348 0.7367,0.6634 1.8713,0.604 2.5348,-0.1328 z" clip-path="url(#204339493935-clipPath1)" id="path45" ns1:connector-curvature="0" style="stroke:none" />
    </g>
    <g id="g47" style="text-rendering:geometricPrecision;fill:#f5d0fe;stroke:none">
      <path d="m 391.4037,160.1158 -75.7582,-33.7204 c -0.9058,-0.4031 -1.9664,0.004 -2.3696,0.9099 -0.4032,0.9058 0.004,1.9665 0.9099,2.3696 l 75.7582,33.7203 c 0.9058,0.4032 1.9664,-0.004 2.3696,-0.9098 0.4031,-0.9058 -0.004,-1.9665 -0.9099,-2.3696 z" clip-path="url(#204339493935-clipPath1)" id="path49" ns1:connector-curvature="0" style="stroke:none" />
    </g>
    <g id="g51" style="text-rendering:geometricPrecision;fill:#f5d0fe;stroke:none">
      <path d="m 392.4588,161.9433 c 0.1038,-0.986 -0.6111,-1.8691 -1.5972,-1.9728 -0.986,-0.1037 -1.869,0.6112 -1.9728,1.5972 l -8.6764,82.4687 c -0.1037,0.986 0.6112,1.869 1.5972,1.9728 0.986,0.1037 1.869,-0.6112 1.9728,-1.5972 z m -16.2001,11.0297 c 0.1038,-0.986 -0.6112,-1.869 -1.5972,-1.9728 -0.986,-0.1037 -1.869,0.6112 -1.9728,1.5972 l -6.0267,57.2832 c -0.1037,0.9861 0.6112,1.8691 1.5972,1.9728 0.986,0.1038 1.8691,-0.6111 1.9728,-1.5972 z" clip-path="url(#204339493935-clipPath1)" id="path53" ns1:connector-curvature="0" style="stroke:none" />
    </g>
    <g id="g55" style="text-rendering:geometricPrecision;fill:#f5d0fe;stroke:none">
      <path d="m 275.6069,63.3765 c 0.9698,0.2062 1.9227,-0.4124 2.129,-1.3822 0.2062,-0.9698 -0.4124,-1.9227 -1.3822,-2.129 L 215.6554,46.9557 c -0.9697,-0.2062 -1.9227,0.4124 -2.1289,1.3822 -0.2063,0.9698 0.4124,1.9227 1.3822,2.129 z M 288.92,50.9163 c 0.9698,0.2063 1.9227,-0.4124 2.129,-1.3822 0.2062,-0.9698 -0.4124,-1.9227 -1.3822,-2.1289 L 208.5646,30.1559 c -0.9698,-0.2062 -1.9227,0.4124 -2.129,1.3822 -0.2062,0.9698 0.4125,1.9227 1.3822,2.129 z" clip-path="url(#204339493935-clipPath1)" id="path57" ns1:connector-curvature="0" style="stroke:none" />
    </g>
    <g id="g59" style="text-rendering:geometricPrecision;fill:#f5d0fe;stroke:none">
      <path d="m 206.8575,30.7104 -55.4936,61.6198 c -0.6635,0.7368 -0.6042,1.8714 0.1326,2.5349 0.7367,0.6634 1.8713,0.6041 2.5348,-0.1326 l 55.4936,-61.6199 c 0.6635,-0.7367 0.6042,-1.8713 -0.1326,-2.5348 -0.7367,-0.6635 -1.8713,-0.6041 -2.5348,0.1326 z" clip-path="url(#204339493935-clipPath1)" id="path61" ns1:connector-curvature="0" style="stroke:none" />
    </g>
    <g id="g63" style="text-rendering:geometricPrecision;fill:#f5d0fe;stroke:none">
      <path d="m 171.8525,98.2762 c -0.3063,-0.9429 -1.3186,-1.4588 -2.2616,-1.1525 -0.9429,0.3063 -1.4588,1.3186 -1.1525,2.2615 l 19.1765,59.0352 c 0.3063,0.9429 1.3185,1.4588 2.2615,1.1525 0.943,-0.3063 1.4588,-1.3186 1.1525,-2.2615 z m -17.4479,-5.2994 c -0.3063,-0.9429 -1.3186,-1.4588 -2.2615,-1.1525 -0.943,0.3063 -1.4589,1.3186 -1.1526,2.2615 l 25.6213,78.8756 c 0.3063,0.9429 1.3186,1.4588 2.2615,1.1525 0.943,-0.3063 1.4589,-1.3186 1.1525,-2.2615 z" clip-path="url(#204339493935-clipPath1)" id="path65" ns1:connector-curvature="0" style="stroke:none" />
    </g>
    <g id="g67" style="text-rendering:geometricPrecision;fill:#f5d0fe;stroke:none">
      <path d="M 316.6227,127.4807 291.0005,48.6062 c -0.3063,-0.943 -1.3186,-1.4588 -2.2616,-1.1525 -0.9429,0.3063 -1.4588,1.3186 -1.1525,2.2616 l 25.6222,78.8744 c 0.3064,0.943 1.3186,1.4588 2.2616,1.1525 0.9429,-0.3063 1.4588,-1.3186 1.1525,-2.2615 z" clip-path="url(#204339493935-clipPath1)" id="path69" ns1:connector-curvature="0" style="stroke:none" />
    </g>
    <g id="g71" style="text-rendering:geometricPrecision;fill:#f5d0fe;stroke:none">
      <path d="m 177.9455,174.1625 81.1108,17.2472 c 0.9698,0.2062 1.9227,-0.4125 2.1289,-1.3823 0.2062,-0.9698 -0.4125,-1.9227 -1.3823,-2.1289 l -81.1108,-17.2472 c -0.9697,-0.2062 -1.9227,0.4125 -2.1289,1.3823 -0.2062,0.9698 0.4125,1.9227 1.3823,2.1289 z" clip-path="url(#204339493935-clipPath1)" id="path73" ns1:connector-curvature="0" style="stroke:none" />
    </g>
    <g id="g75" style="fill:#c4b5fd;stroke:none;text-rendering:geometricPrecision">
      <path d="m 257.8752,190.5515 29.5277,51.1433 c 0.4957,0.8587 1.5931,1.1527 2.4518,0.657 0.8586,-0.4958 1.1527,-1.5932 0.6569,-2.4518 L 260.984,188.7567 c -0.4957,-0.8587 -1.5932,-1.1527 -2.4518,-0.657 -0.8586,0.4957 -1.1527,1.5932 -0.657,2.4518 z" clip-path="url(#204339493935-clipPath1)" id="path77" ns1:connector-curvature="0" style="stroke:none" />
      <path d="m 257.8752,190.5515 29.5277,51.1433 c 0.4957,0.8587 1.5931,1.1527 2.4518,0.657 0.8586,-0.4958 1.1527,-1.5932 0.6569,-2.4518 L 260.984,188.7567 c -0.4957,-0.8587 -1.5932,-1.1527 -2.4518,-0.657 -0.8586,0.4957 -1.1527,1.5932 -0.657,2.4518 z" clip-path="url(#204339493966-clipPath1)" id="path79" ns1:connector-curvature="0" style="fill:#f5d0fe;stroke:none" />
    </g>
    <g id="g81" style="text-rendering:geometricPrecision;fill:#f5d0fe;stroke:none">
      <path d="m 322.4722,258.7139 59.8984,-12.7341 c 0.9698,-0.2062 1.5886,-1.1591 1.3824,-2.1289 -0.2062,-0.9698 -1.1591,-1.5885 -2.1289,-1.3823 l -59.8983,12.7341 c -0.9698,0.2061 -1.5886,1.159 -1.3824,2.1288 0.2062,0.9698 1.159,1.5885 2.1288,1.3824 z" clip-path="url(#204339493935-clipPath1)" id="path83" ns1:connector-curvature="0" style="stroke:none" />
      <path d="m 322.4722,258.7139 59.8984,-12.7341 c 0.9698,-0.2062 1.5886,-1.1591 1.3824,-2.1289 -0.2062,-0.9698 -1.1591,-1.5885 -2.1289,-1.3823 l -59.8983,12.7341 c -0.9698,0.2061 -1.5886,1.159 -1.3824,2.1288 0.2062,0.9698 1.159,1.5885 2.1288,1.3824 z" clip-path="url(#204339493143-clipPath1)" id="path85" ns1:connector-curvature="0" style="fill:#c4b5fd;stroke:none" />
    </g>
    <g id="g87" style="text-rendering:geometricPrecision;fill:#f5d0fe;stroke:none">
      <path d="m 532.5049,161.7555 0,75.7431 c 0,0.9915 0.8033,1.7948 1.7948,1.7948 0.9914,0 1.7948,-0.8033 1.7948,-1.7948 l 0,-75.7431 c 0,-0.9915 -0.8034,-1.7948 -1.7948,-1.7948 -0.9915,0 -1.7948,0.8033 -1.7948,1.7948 z" clip-path="url(#204339493935-clipPath1)" id="path89" ns1:connector-curvature="0" style="stroke:none" />
    </g>
    <g id="g91" style="fill:#eef2ff;stroke:none;text-rendering:geometricPrecision">
      </g>
    <g font-size="29px" transform="translate(595.8314,102.7943)" id="g95" style="font-size:29px;font-family:sans-serif;fill:#c4b5fd;stroke:none;text-rendering:geometricPrecision">
      <text x="0" xml:space="preserve" y="28" clip-path="url(#204339493887-clipPath1)" id="text97" style="stroke:none">NH</text>
    </g>
    <g font-size="23px" transform="translate(635.3001,118.1628)" id="g99" style="font-size:23px;font-family:sans-serif;fill:#c4b5fd;stroke:none;text-rendering:geometricPrecision">
      <text x="0" xml:space="preserve" y="22" clip-path="url(#204339493498-clipPath1)" id="text101" style="stroke:none">2</text>
    </g>
    <g font-size="23px" id="g103" style="font-size:23px;font-family:sans-serif;fill:#eef2ff;stroke:none;text-rendering:geometricPrecision">
      <text x="0" font-size="29px" y="28" transform="translate(274.6409,243.967)" clip-path="url(#204339493268-clipPath1)" xml:space="preserve" id="text107" style="font-size:29px;fill:#c4b5fd;stroke:none">HN</text>
    </g>
  </g>
</svg>