<?xml version='1.0' encoding='utf-8'?>
<svg xmlns="http://www.w3.org/2000/svg" xmlns:dc="http://purl.org/dc/elements/1.1/" xmlns:ns1="http://www.inkscape.org/namespaces/inkscape" xmlns:ns2="http://sodipodi.sourceforge.net/DTD/sodipodi-0.dtd" xmlns:ns4="http://creativecommons.org/ns#" xmlns:rdf="http://www.w3.org/1999/02/22-rdf-syntax-ns#" width="469.90128" stroke-miterlimit="10" font-weight="normal" height="300.45569" font-style="normal" font-size="12px" id="svg2" version="1.1" ns1:version="0.91 r13725" ns2:docname="3-MeO-PCMo.svg" style="font-style:normal;font-weight:normal;font-size:12px;font-family:Dialog;color-interpolation:auto;fill:#000000;fill-opacity:1;stroke:none;stroke:none;stroke:none;stroke:none;stroke:none;stroke:none;stroke:none;stroke:none;color-rendering:auto;image-rendering:auto;shape-rendering:auto;text-rendering:auto">
  <metadata id="metadata165">
    <rdf:RDF>
      <ns4:Work rdf:about="">
        <dc:format>image/svg+xml</dc:format>
        <dc:type rdf:resource="http://purl.org/dc/dcmitype/StillImage" />
        <dc:title />
      </ns4:Work>
    </rdf:RDF>
  </metadata>
  <ns2:namedview pagecolor="#ffffff" bordercolor="#666666" borderopacity="1" objecttolerance="10" gridtolerance="10" guidetolerance="10" ns1:pageopacity="0" ns1:pageshadow="2" ns1:window-width="1060" ns1:window-height="480" id="namedview163" showgrid="false" fit-margin-top="10" fit-margin-left="10" fit-margin-right="10" fit-margin-bottom="10" ns1:zoom="0.36375" ns1:cx="385.79553" ns1:cy="92.032166" ns1:window-x="0" ns1:window-y="0" ns1:window-maximized="0" ns1:current-layer="svg2" />
  
  <defs id="genericDefs" />
  <g id="g5" transform="translate(-14.204466,-91.576469)" style="fill:#000000;stroke:none">
    <defs id="32500020388-defs1">
      <clipPath clipPathUnits="userSpaceOnUse" id="32500020895-clipPath1">
        <path d="M 0,0 800,0 800,600 0,600 0,0 Z" id="path9" ns1:connector-curvature="0" style="stroke:none" />
      </clipPath>
      <clipPath clipPathUnits="userSpaceOnUse" id="32500020914-clipPath1">
        <path d="m 304.1517,221.8272 c -14.1613,0 -25.6413,11.48 -25.6413,25.6413 0,14.1613 11.48,25.6412 25.6413,25.6412 14.1613,0 25.6412,-11.4799 25.6412,-25.6412 0,-14.1613 -11.4799,-25.6413 -25.6412,-25.6413 z" id="path12" ns1:connector-curvature="0" style="stroke:none" />
      </clipPath>
      <clipPath clipPathUnits="userSpaceOnUse" id="32500020917-clipPath1">
        <path d="m 370.4843,187.4537 c -14.6075,0 -26.4492,11.8417 -26.4492,26.4492 0,14.6076 11.8417,26.4493 26.4492,26.4493 14.6075,0 26.4493,-11.8417 26.4493,-26.4493 0,-14.6075 -11.8418,-26.4492 -26.4493,-26.4492 z" id="path15" ns1:connector-curvature="0" style="stroke:none" />
      </clipPath>
      <clipPath clipPathUnits="userSpaceOnUse" id="3250002056-clipPath1">
        <path d="m 356.2589,166.8231 c -13.7797,0 -24.9504,11.1708 -24.9504,24.9505 0,13.7798 11.1707,24.9505 24.9504,24.9505 13.7798,0 24.9505,-11.1707 24.9505,-24.9505 0,-13.7797 -11.1707,-24.9505 -24.9505,-24.9505 z" id="path18" ns1:connector-curvature="0" style="stroke:none" />
      </clipPath>
      <clipPath clipPathUnits="userSpaceOnUse" id="32500020250-clipPath1">
        <path d="m 135.6388,170.6473 c -14.1607,0 -25.6402,11.4795 -25.6402,25.6403 0,14.1607 11.4795,25.6402 25.6402,25.6402 14.1608,0 25.6403,-11.4795 25.6403,-25.6402 0,-14.1608 -11.4795,-25.6403 -25.6403,-25.6403 z" id="path21" ns1:connector-curvature="0" style="stroke:none" />
      </clipPath>
      <clipPath clipPathUnits="userSpaceOnUse" id="32500020487-clipPath1">
        <path d="m 61.9126,191.5566 c -12.3795,0 -22.415,10.0355 -22.415,22.415 0,12.3795 10.0355,22.4151 22.415,22.4151 12.3795,0 22.4151,-10.0356 22.4151,-22.4151 0,-12.3795 -10.0356,-22.415 -22.4151,-22.415 z" id="path24" ns1:connector-curvature="0" style="stroke:none" />
      </clipPath>
      <clipPath clipPathUnits="userSpaceOnUse" id="32500020747-clipPath1">
        <path d="m 472.6649,171.7527 c -13.5522,0 -24.5383,10.9862 -24.5383,24.5383 0,13.5522 10.9861,24.5384 24.5383,24.5384 13.5521,0 24.5383,-10.9862 24.5383,-24.5384 0,-13.5521 -10.9862,-24.5383 -24.5383,-24.5383 z" id="path27" ns1:connector-curvature="0" style="stroke:none" />
      </clipPath>
      <clipPath clipPathUnits="userSpaceOnUse" id="3250002058-clipPath1">
        <path d="m 451.7396,98.241 c -14.1599,0 -25.6388,11.4789 -25.6388,25.6388 0,14.1599 11.4789,25.6388 25.6388,25.6388 14.1599,0 25.6388,-11.4789 25.6388,-25.6388 0,-14.1599 -11.4789,-25.6388 -25.6388,-25.6388 z" id="path30" ns1:connector-curvature="0" style="stroke:none" />
      </clipPath>
      <clipPath clipPathUnits="userSpaceOnUse" id="32500020678-clipPath1">
        <path d="m -349.3681,-194.8447 800,0 0,600 -800,0 0,-600 z" id="path33" ns1:connector-curvature="0" style="stroke:none" />
      </clipPath>
      <clipPath clipPathUnits="userSpaceOnUse" id="32500020994-clipPath1">
        <path d="m -456.5901,-116.5972 800,0 0,600 -800,0 0,-600 z" id="path36" ns1:connector-curvature="0" style="stroke:none" />
      </clipPath>
      <clipPath clipPathUnits="userSpaceOnUse" id="32500020884-clipPath1">
        <path d="m -65.7216,-209.8581 800,0 0,600 -800,0 0,-600 z" id="path39" ns1:connector-curvature="0" style="stroke:none" />
      </clipPath>
    </defs>
    <g id="g41" style="text-rendering:geometricPrecision;fill:#000000;stroke:none">
      <path d="m 303.4314,246.2208 -57.6462,33.2807 c -0.6892,0.3979 -0.9253,1.2788 -0.5274,1.968 0.3979,0.6892 1.2789,0.9252 1.9681,0.5274 l 57.6461,-33.2807 c 0.6892,-0.3979 0.9253,-1.2788 0.5274,-1.968 -0.3979,-0.6893 -1.2788,-0.9253 -1.968,-0.5274 z" clip-path="url(#32500020895-clipPath1)" id="path43" ns1:connector-curvature="0" style="stroke:none" />
    </g>
    <g id="g45" style="text-rendering:geometricPrecision;fill:#000000;stroke:none">
      <path d="m 303.4314,248.7162 57.6461,33.2807 c 0.6892,0.3978 1.5701,0.1618 1.968,-0.5274 0.398,-0.6892 0.1619,-1.5701 -0.5273,-1.968 L 304.872,246.2208 c -0.6892,-0.3979 -1.5701,-0.1619 -1.968,0.5274 -0.3979,0.6892 -0.1619,1.5701 0.5274,1.968 z" clip-path="url(#32500020895-clipPath1)" id="path47" ns1:connector-curvature="0" style="stroke:none" />
    </g>
    <g id="g49" style="text-rendering:geometricPrecision;fill:#000000;stroke:none">
      <path d="m 245.0648,280.7491 0,66.5694 c 0,0.7959 0.6449,1.4407 1.4407,1.4407 0.7959,0 1.4407,-0.6448 1.4407,-1.4407 l 0,-66.5694 c 0,-0.7958 -0.6448,-1.4407 -1.4407,-1.4407 -0.7958,0 -1.4407,0.6449 -1.4407,1.4407 z" clip-path="url(#32500020895-clipPath1)" id="path51" ns1:connector-curvature="0" style="stroke:none" />
    </g>
    <g id="g53" style="text-rendering:geometricPrecision;fill:#000000;stroke:none">
      <path d="m 245.7853,348.5663 57.6462,33.2726 c 0.6893,0.3979 1.5701,0.1617 1.9679,-0.5276 0.3979,-0.6892 0.1618,-1.5701 -0.5275,-1.9679 l -57.6462,-33.2726 c -0.6892,-0.3979 -1.5701,-0.1617 -1.9679,0.5276 -0.3979,0.6892 -0.1617,1.5701 0.5275,1.9679 z" clip-path="url(#32500020895-clipPath1)" id="path55" ns1:connector-curvature="0" style="stroke:none" />
    </g>
    <g id="g57" style="text-rendering:geometricPrecision;fill:#000000;stroke:none">
      <path d="m 304.8719,381.8389 57.6461,-33.2726 c 0.6893,-0.3978 0.9255,-1.2787 0.5276,-1.9679 -0.3978,-0.6893 -1.2787,-0.9255 -1.968,-0.5276 l -57.6461,33.2726 c -0.6893,0.3978 -0.9254,1.2787 -0.5276,1.9679 0.3979,0.6893 1.2787,0.9255 1.968,0.5276 z" clip-path="url(#32500020895-clipPath1)" id="path59" ns1:connector-curvature="0" style="stroke:none" />
    </g>
    <g id="g61" style="text-rendering:geometricPrecision;fill:#000000;stroke:none">
      <path d="m 363.2386,347.3185 0,-66.5694 c 0,-0.7958 -0.6449,-1.4407 -1.4408,-1.4407 -0.7958,0 -1.4407,0.6449 -1.4407,1.4407 l 0,66.5694 c 0,0.7959 0.6449,1.4407 1.4407,1.4407 0.7959,0 1.4408,-0.6448 1.4408,-1.4407 z" clip-path="url(#32500020895-clipPath1)" id="path63" ns1:connector-curvature="0" style="stroke:none" />
    </g>
    <g id="g65" style="text-rendering:geometricPrecision;fill:#000000;stroke:none">
      <path d="m 302.4277,248.1252 0.8772,0.5088 0.8468,-1.1655 0.8468,-1.1656 -0.755,-0.6769 -1.8158,2.4992 z m -8.1432,-4.7239 2.5056,1.4535 2.601,-3.5799 0,0 -2.1567,-1.9338 -2.9499,4.0602 z m -8.1432,-4.724 2.5056,1.4535 0,0 3.735,-5.1408 0,0 -2.1566,-1.9338 0,0 -4.084,5.6211 z m -8.1432,-4.7239 2.5056,1.4535 0,0 4.8691,-6.7018 0,0 -2.1567,-1.9338 0,0 -5.218,7.1821 z m -8.1432,-4.724 2.5056,1.4535 0,0 6.0031,-8.2626 -2.1566,-1.9338 0,0 -6.3521,8.7429 z m -8.1432,-4.7239 2.5056,1.4535 0,0 7.1372,-9.8236 0,0 -2.1566,-1.9338 -7.4862,10.3039 z m -8.1432,-4.724 2.5055,1.4535 0,0 8.2714,-11.3845 0,0 -2.1566,-1.9338 -8.6203,11.8648 z m -14.1107,-8.1857 8.473,4.9153 0,0 9.4055,-12.9455 -7.293,-6.5394 -1.0867,10.3407 -9.4988,4.2289 z" clip-path="url(#32500020895-clipPath1)" id="path67" ns1:connector-curvature="0" style="stroke:none" />
    </g>
    <g id="g69" style="text-rendering:geometricPrecision;fill:#000000;stroke:none">
      <path d="m 258.1055,140.9873 -53.8546,-39.1301 c -0.6438,-0.4678 -1.5446,-0.3252 -2.0124,0.3186 -0.4678,0.6439 -0.3252,1.5446 0.3187,2.0124 l 53.8546,39.1302 c 0.6438,0.4678 1.5446,0.3252 2.0124,-0.3187 0.4678,-0.6438 0.3251,-1.5446 -0.3187,-2.0124 z" clip-path="url(#32500020895-clipPath1)" id="path71" ns1:connector-curvature="0" style="stroke:none" />
    </g>
    <g id="g73" style="text-rendering:geometricPrecision;fill:#000000;stroke:none">
      <path d="m 201.2239,118.7119 c 0.7271,-0.3236 1.054,-1.175 0.7303,-1.902 -0.3236,-0.7271 -1.175,-1.054 -1.9021,-0.7303 l -45.5068,20.2569 c -0.727,0.3236 -1.0539,1.175 -0.7303,1.9021 0.3237,0.727 1.1751,1.0539 1.9021,0.7303 z m 2.766,-14.373 c 0.7271,-0.3236 1.054,-1.175 0.7303,-1.9021 -0.3236,-0.727 -1.175,-1.0539 -1.9021,-0.7303 l -60.8042,27.0665 c -0.7271,0.3236 -1.054,1.175 -0.7303,1.9021 0.3236,0.727 1.175,1.0539 1.9021,0.7303 z" clip-path="url(#32500020895-clipPath1)" id="path75" ns1:connector-curvature="0" style="stroke:none" />
    </g>
    <g id="g77" style="text-rendering:geometricPrecision;fill:#000000;stroke:none">
      <path d="m 141.167,129.9385 -6.961,66.1984 c -0.0832,0.7915 0.4907,1.5002 1.2822,1.5835 0.7915,0.0832 1.5002,-0.4907 1.5835,-1.2822 l 6.9609,-66.1984 c 0.0832,-0.7914 -0.4907,-1.5002 -1.2822,-1.5834 -0.7914,-0.0833 -1.5002,0.4906 -1.5834,1.2821 z" clip-path="url(#32500020895-clipPath1)" id="path79" ns1:connector-curvature="0" style="stroke:none" />
    </g>
    <g id="g81" style="text-rendering:geometricPrecision;fill:#000000;stroke:none">
      <path d="m 150.3163,190.3306 c -0.6438,-0.4678 -1.5446,-0.3251 -2.0124,0.3187 -0.4678,0.6438 -0.3251,1.5446 0.3187,2.0124 l 40.3079,29.2872 c 0.6438,0.4678 1.5446,0.3252 2.0124,-0.3186 0.4678,-0.6439 0.3251,-1.5446 -0.3187,-2.0124 z m -13.8306,4.7914 c -0.6438,-0.4678 -1.5446,-0.3251 -2.0124,0.3187 -0.4678,0.6438 -0.3252,1.5446 0.3187,2.0124 l 53.8546,39.1301 c 0.6438,0.4678 1.5446,0.3252 2.0124,-0.3186 0.4678,-0.6439 0.3251,-1.5446 -0.3187,-2.0124 z" clip-path="url(#32500020895-clipPath1)" id="path83" ns1:connector-curvature="0" style="stroke:none" />
    </g>
    <g id="g85" style="text-rendering:geometricPrecision;fill:#000000;stroke:none">
      <path d="m 237.8044,198.6126 c -0.0831,0.7915 0.4908,1.5002 1.2823,1.5834 0.7915,0.0832 1.5002,-0.4908 1.5834,-1.2822 l 5.2061,-49.539 c 0.0832,-0.7915 -0.4908,-1.5002 -1.2823,-1.5834 -0.7914,-0.0832 -1.5002,0.4908 -1.5833,1.2822 z m 11.0652,9.5815 c -0.0832,0.7915 0.4908,1.5003 1.2823,1.5834 0.7914,0.0832 1.5002,-0.4907 1.5834,-1.2822 l 6.9561,-66.1919 c 0.0832,-0.7915 -0.4907,-1.5002 -1.2822,-1.5834 -0.7915,-0.0831 -1.5002,0.4908 -1.5834,1.2823 z" clip-path="url(#32500020895-clipPath1)" id="path87" ns1:connector-curvature="0" style="stroke:none" />
    </g>
    <g id="g89" style="text-rendering:geometricPrecision;fill:#000000;stroke:none">
      <path d="m 190.0794,236.7339 60.809,-27.073 c 0.727,-0.3237 1.0539,-1.1751 0.7302,-1.9022 -0.3237,-0.727 -1.1751,-1.0538 -1.9021,-0.7302 l -60.809,27.073 c -0.7271,0.3237 -1.0539,1.1751 -0.7302,1.9022 0.3237,0.727 1.1751,1.0538 1.9021,0.7302 z" clip-path="url(#32500020895-clipPath1)" id="path91" ns1:connector-curvature="0" style="stroke:none" />
    </g>
    <g id="g93" style="fill:#333399;stroke:none;text-rendering:geometricPrecision">
      <path d="m 304.1517,247.4685 0.8468,1.1655 45.9343,-24.0238 -5.2927,-7.2848 -5.2927,-7.2848 -37.0425,36.2623 z" clip-path="url(#32500020895-clipPath1)" id="path95" ns1:connector-curvature="0" style="stroke:none" />
      <path d="m 304.1517,247.4685 0.8468,1.1655 45.9343,-24.0238 -5.2927,-7.2848 -5.2927,-7.2848 -37.0425,36.2623 z" clip-path="url(#32500020914-clipPath1)" id="path97" ns1:connector-curvature="0" style="fill:#000000;stroke:none" />
    </g>
    <g id="g99" style="text-rendering:geometricPrecision;fill:#000000;stroke:none">
      <path d="m 419.6559,236.5851 53.8558,-39.1285 c 0.6438,-0.4678 0.7865,-1.3685 0.3187,-2.0124 -0.4677,-0.6438 -1.3685,-0.7865 -2.0123,-0.3187 l -53.8558,39.1285 c -0.6438,0.4678 -0.7865,1.3685 -0.3187,2.0124 0.4677,0.6438 1.3685,0.7865 2.0123,0.3187 z" clip-path="url(#32500020895-clipPath1)" id="path101" ns1:connector-curvature="0" style="stroke:none" />
    </g>
    <g id="g103" style="text-rendering:geometricPrecision;fill:#000000;stroke:none">
      <path d="m 404.051,101.8521 -53.8558,39.1285 c -0.6439,0.4677 -0.7865,1.3685 -0.3187,2.0123 0.4677,0.6439 1.3685,0.7865 2.0123,0.3188 l 53.8558,-39.1285 c 0.6439,-0.4678 0.7865,-1.3686 0.3187,-2.0124 -0.4677,-0.6439 -1.3685,-0.7865 -2.0123,-0.3187 z" clip-path="url(#32500020895-clipPath1)" id="path105" ns1:connector-curvature="0" style="stroke:none" />
    </g>
    <g id="g107" style="text-rendering:geometricPrecision;fill:#000000;stroke:none">
      <path d="m 369.8983,215.2191 48.3248,21.5166 c 0.727,0.3237 1.5784,-0.003 1.9021,-0.7301 0.3238,-0.7271 -0.003,-1.5785 -0.7301,-1.9022 l -48.3248,-21.5166 c -0.727,-0.3237 -1.5784,0.003 -1.9021,0.7301 -0.3237,0.7271 0.003,1.5785 0.7301,1.9022 z" clip-path="url(#32500020895-clipPath1)" id="path109" ns1:connector-curvature="0" style="stroke:none" />
      <path d="m 369.8983,215.2191 48.3248,21.5166 c 0.727,0.3237 1.5784,-0.003 1.9021,-0.7301 0.3238,-0.7271 -0.003,-1.5785 -0.7301,-1.9022 l -48.3248,-21.5166 c -0.727,-0.3237 -1.5784,0.003 -1.9021,0.7301 -0.3237,0.7271 0.003,1.5785 0.7301,1.9022 z" clip-path="url(#32500020917-clipPath1)" id="path111" ns1:connector-curvature="0" style="fill:#333399;stroke:none" />
    </g>
    <g id="g113" style="text-rendering:geometricPrecision;fill:#000000;stroke:none">
      <path d="m 357.6918,191.623 -5.217,-49.6275 c -0.0832,-0.7915 -0.7919,-1.3654 -1.5834,-1.2822 -0.7915,0.0832 -1.3654,0.792 -1.2822,1.5834 l 5.2169,49.6275 c 0.0832,0.7915 0.792,1.3654 1.5835,1.2822 0.7914,-0.0832 1.3654,-0.7919 1.2822,-1.5834 z" clip-path="url(#32500020895-clipPath1)" id="path115" ns1:connector-curvature="0" style="stroke:none" />
      <path d="m 357.6918,191.623 -5.217,-49.6275 c -0.0832,-0.7915 -0.7919,-1.3654 -1.5834,-1.2822 -0.7915,0.0832 -1.3654,0.792 -1.2822,1.5834 l 5.2169,49.6275 c 0.0832,0.7915 0.792,1.3654 1.5835,1.2822 0.7914,-0.0832 1.3654,-0.7919 1.2822,-1.5834 z" clip-path="url(#3250002056-clipPath1)" id="path117" ns1:connector-curvature="0" style="fill:#333399;stroke:none" />
    </g>
    <g id="g119" style="fill:#ff0000;stroke:none;text-rendering:geometricPrecision">
      <path d="m 135.0529,194.9714 -46.8478,20.8558 c -0.7271,0.3237 -1.054,1.1751 -0.7303,1.9021 0.3237,0.7271 1.1751,1.0539 1.9021,0.7302 l 46.8479,-20.8558 c 0.727,-0.3236 1.0539,-1.175 0.7302,-1.9021 -0.3237,-0.727 -1.175,-1.0539 -1.9021,-0.7302 z" clip-path="url(#32500020895-clipPath1)" id="path121" ns1:connector-curvature="0" style="stroke:none" />
      <path d="m 135.0529,194.9714 -46.8478,20.8558 c -0.7271,0.3237 -1.054,1.1751 -0.7303,1.9021 0.3237,0.7271 1.1751,1.0539 1.9021,0.7302 l 46.8479,-20.8558 c 0.727,-0.3236 1.0539,-1.175 0.7302,-1.9021 -0.3237,-0.727 -1.175,-1.0539 -1.9021,-0.7302 z" clip-path="url(#32500020250-clipPath1)" id="path123" ns1:connector-curvature="0" style="fill:#000000;stroke:none" />
    </g>
    <g id="g125" style="text-rendering:geometricPrecision;fill:#000000;stroke:none">
      <path d="M 62.7595,212.8061 26.4922,186.4542 c -0.6438,-0.4678 -1.5446,-0.3252 -2.0124,0.3187 -0.4678,0.6438 -0.3251,1.5445 0.3187,2.0123 l 36.2673,26.3519 c 0.6438,0.4678 1.5445,0.3252 2.0124,-0.3186 0.4678,-0.6438 0.3251,-1.5446 -0.3187,-2.0124 z" clip-path="url(#32500020895-clipPath1)" id="path127" ns1:connector-curvature="0" style="stroke:none" />
      <path d="M 62.7595,212.8061 26.4922,186.4542 c -0.6438,-0.4678 -1.5446,-0.3252 -2.0124,0.3187 -0.4678,0.6438 -0.3251,1.5445 0.3187,2.0123 l 36.2673,26.3519 c 0.6438,0.4678 1.5445,0.3252 2.0124,-0.3186 0.4678,-0.6438 0.3251,-1.5446 -0.3187,-2.0124 z" clip-path="url(#32500020487-clipPath1)" id="path129" ns1:connector-curvature="0" style="fill:#ff0000;stroke:none" />
    </g>
    <g id="g131" style="fill:#ff0000;stroke:none;text-rendering:geometricPrecision">
      <path d="m 474.0977,196.1403 -5.1359,-48.8072 c -0.0833,-0.7915 -0.7921,-1.3653 -1.5836,-1.2821 -0.7914,0.0833 -1.3653,0.7921 -1.282,1.5836 l 5.1359,48.8072 c 0.0833,0.7915 0.7921,1.3653 1.5836,1.282 0.7914,-0.0833 1.3653,-0.7921 1.282,-1.5835 z" clip-path="url(#32500020895-clipPath1)" id="path133" ns1:connector-curvature="0" style="stroke:none" />
      <path d="m 474.0977,196.1403 -5.1359,-48.8072 c -0.0833,-0.7915 -0.7921,-1.3653 -1.5836,-1.2821 -0.7914,0.0833 -1.3653,0.7921 -1.282,1.5836 l 5.1359,48.8072 c 0.0833,0.7915 0.7921,1.3653 1.5836,1.282 0.7914,-0.0833 1.3653,-0.7921 1.282,-1.5835 z" clip-path="url(#32500020747-clipPath1)" id="path135" ns1:connector-curvature="0" style="fill:#000000;stroke:none" />
    </g>
    <g id="g137" style="text-rendering:geometricPrecision;fill:#000000;stroke:none">
      <path d="m 452.3257,122.5637 -46.8418,-20.8622 c -0.727,-0.3238 -1.5784,0.003 -1.9022,0.73 -0.3238,0.7269 0.003,1.5784 0.7299,1.9022 l 46.8418,20.8622 c 0.727,0.3238 1.5785,-0.003 1.9023,-0.7299 0.3238,-0.727 -0.003,-1.5785 -0.73,-1.9023 z" clip-path="url(#32500020895-clipPath1)" id="path139" ns1:connector-curvature="0" style="stroke:none" />
      <path d="m 452.3257,122.5637 -46.8418,-20.8622 c -0.727,-0.3238 -1.5784,0.003 -1.9022,0.73 -0.3238,0.7269 0.003,1.5784 0.7299,1.9022 l 46.8418,20.8622 c 0.727,0.3238 1.5785,-0.003 1.9023,-0.7299 0.3238,-0.727 -0.003,-1.5785 -0.73,-1.9023 z" clip-path="url(#3250002058-clipPath1)" id="path141" ns1:connector-curvature="0" style="fill:#ff0000;stroke:none" />
    </g>
    <g id="g143" style="fill:#ffffff;stroke:none;text-rendering:geometricPrecision">
      </g>
    <g font-size="23px" transform="translate(349.3681,194.8447)" id="g147" style="font-size:23px;font-family:sans-serif;fill:#333399;stroke:none;text-rendering:geometricPrecision">
      <text x="0" xml:space="preserve" y="22" clip-path="url(#32500020678-clipPath1)" id="text149" style="stroke:none">N</text>
    </g>
    <g font-size="23px" id="g151" style="font-size:23px;font-family:sans-serif;fill:#ffffff;stroke:none;text-rendering:geometricPrecision">
      <text x="0" y="22" transform="translate(456.5901,116.5972)" clip-path="url(#32500020994-clipPath1)" xml:space="preserve" id="text155" style="fill:#ff0000;stroke:none">O</text>
    </g>
    <g font-size="23px" id="g157" style="font-size:23px;font-family:sans-serif;fill:#ffffff;stroke:none;text-rendering:geometricPrecision">
      <text x="0" y="22" transform="translate(65.7216,209.8581)" clip-path="url(#32500020884-clipPath1)" xml:space="preserve" id="text161" style="fill:#ff0000;stroke:none">O</text>
    </g>
  </g>
</svg>