<?xml version='1.0' encoding='utf-8'?>
<svg xmlns="http://www.w3.org/2000/svg" xmlns:dc="http://purl.org/dc/elements/1.1/" xmlns:ns1="http://www.inkscape.org/namespaces/inkscape" xmlns:ns2="http://sodipodi.sourceforge.net/DTD/sodipodi-0.dtd" xmlns:ns4="http://creativecommons.org/ns#" xmlns:rdf="http://www.w3.org/1999/02/22-rdf-syntax-ns#" width="485.74622" stroke-miterlimit="10" font-weight="normal" height="333.92139" font-style="normal" font-size="12px" id="svg2" version="1.1" ns1:version="0.91 r13725" ns2:docname="4-HO-MPT.svg" style="font-style:normal;font-weight:normal;font-size:12px;font-family:Dialog;color-interpolation:auto;fill:#f0abfc;fill-opacity:1;stroke:none;stroke:none;stroke:none;stroke:none;stroke:none;stroke:none;stroke:none;stroke:none;color-rendering:auto;image-rendering:auto;shape-rendering:auto;text-rendering:auto">
  <metadata id="metadata144">
    <rdf:RDF>
      <ns4:Work rdf:about="">
        <dc:format>image/svg+xml</dc:format>
        <dc:type rdf:resource="http://purl.org/dc/dcmitype/StillImage" />
        <dc:title />
      </ns4:Work>
    </rdf:RDF>
  </metadata>
  <ns2:namedview pagecolor="#eef2ff" bordercolor="#666666" borderopacity="1" objecttolerance="10" gridtolerance="10" guidetolerance="10" ns1:pageopacity="0" ns1:pageshadow="2" ns1:window-width="1060" ns1:window-height="480" id="namedview142" showgrid="false" fit-margin-top="10" fit-margin-left="10" fit-margin-right="10" fit-margin-bottom="10" ns1:zoom="0.36375" ns1:cx="255.7856" ns1:cy="50.2678" ns1:window-x="0" ns1:window-y="0" ns1:window-maximized="0" ns1:current-layer="svg2" />
  
  <defs id="genericDefs" />
  <g id="g5" transform="translate(-144.2144,-16.3464)" style="fill:#f0abfc;stroke:none">
    <defs id="498024738304-defs1">
      <clipPath clipPathUnits="userSpaceOnUse" id="498024738369-clipPath1">
        <path d="M 0,0 800,0 800,600 0,600 0,0 Z" id="path9" ns1:connector-curvature="0" style="stroke:none" />
      </clipPath>
      <clipPath clipPathUnits="userSpaceOnUse" id="498024738347-clipPath1">
        <path d="m 491.8839,211.9292 c -15.8902,0 -28.7717,12.8815 -28.7717,28.7716 0,15.8902 12.8815,28.7717 28.7717,28.7717 15.8901,0 28.7717,-12.8815 28.7717,-28.7717 0,-15.8901 -12.8816,-28.7716 -28.7717,-28.7716 z" id="path12" ns1:connector-curvature="0" style="stroke:none" />
      </clipPath>
      <clipPath clipPathUnits="userSpaceOnUse" id="498024738663-clipPath1">
        <path d="m 249.7977,239.1564 c -14.4232,0 -26.1155,11.6923 -26.1155,26.1155 0,14.4233 11.6923,26.1156 26.1155,26.1156 14.4232,0 26.1155,-11.6923 26.1155,-26.1156 0,-14.4232 -11.6923,-26.1155 -26.1155,-26.1155 z" id="path15" ns1:connector-curvature="0" style="stroke:none" />
      </clipPath>
      <clipPath clipPathUnits="userSpaceOnUse" id="498024738285-clipPath1">
        <path d="m 304.7415,297.5071 c -14.9642,0 -27.095,12.1309 -27.095,27.095 0,14.9641 12.1308,27.095 27.095,27.095 14.9641,0 27.0949,-12.1309 27.0949,-27.095 0,-14.9641 -12.1308,-27.095 -27.0949,-27.095 z" id="path18" ns1:connector-curvature="0" style="stroke:none" />
      </clipPath>
      <clipPath clipPathUnits="userSpaceOnUse" id="498024738779-clipPath1">
        <path d="m 276.0996,114.4086 c -14.9816,0 -27.1267,12.145 -27.1267,27.1267 0,14.9817 12.1451,27.1267 27.1267,27.1267 14.9817,0 27.1267,-12.145 27.1267,-27.1267 0,-14.9817 -12.145,-27.1267 -27.1267,-27.1267 z" id="path21" ns1:connector-curvature="0" style="stroke:none" />
      </clipPath>
      <clipPath clipPathUnits="userSpaceOnUse" id="498024738568-clipPath1">
        <path d="m 555.1317,158.633 c -15.1771,0 -27.4806,12.3035 -27.4806,27.4806 0,15.1771 12.3035,27.4806 27.4806,27.4806 15.1771,0 27.4805,-12.3035 27.4805,-27.4806 0,-15.1771 -12.3034,-27.4806 -27.4805,-27.4806 z" id="path24" ns1:connector-curvature="0" style="stroke:none" />
      </clipPath>
      <clipPath clipPathUnits="userSpaceOnUse" id="498024738125-clipPath1">
        <path d="m 568.5455,186.319 c -14.1441,0 -25.6102,11.4661 -25.6102,25.6102 0,14.1441 11.4661,25.6101 25.6102,25.6101 14.144,0 25.6101,-11.466 25.6101,-25.6101 0,-14.1441 -11.4661,-25.6102 -25.6101,-25.6102 z" id="path27" ns1:connector-curvature="0" style="stroke:none" />
      </clipPath>
      <clipPath clipPathUnits="userSpaceOnUse" id="498024738351-clipPath1">
        <path d="m -545.452,-188.6847 800,0 0,600 -800,0 0,-600 z" id="path30" ns1:connector-curvature="0" style="stroke:none" />
      </clipPath>
      <clipPath clipPathUnits="userSpaceOnUse" id="498024738474-clipPath1">
        <path d="m -262.3685,-313.0197 800,0 0,600 -800,0 0,-600 z" id="path33" ns1:connector-curvature="0" style="stroke:none" />
      </clipPath>
      <clipPath clipPathUnits="userSpaceOnUse" id="49802473857-clipPath1">
        <path d="m -314.1916,-71.7663 800,0 0,599.9999 -800,0 0,-599.9999 z" id="path36" ns1:connector-curvature="0" style="stroke:none" />
      </clipPath>
    </defs>
    <g id="g38" style="text-rendering:geometricPrecision;fill:#f0abfc;stroke:none">
      <path d="m 366.1787,242.0698 63.2478,-36.5161 c 0.7562,-0.4366 1.0152,-1.4031 0.5786,-2.1594 -0.4366,-0.7562 -1.4031,-1.0152 -2.1594,-0.5786 l -63.2477,36.5162 c -0.7563,0.4366 -1.0152,1.4031 -0.5787,2.1593 0.4367,0.7563 1.4032,1.0152 2.1594,0.5786 z" clip-path="url(#498024738369-clipPath1)" id="path40" ns1:connector-curvature="0" style="stroke:none" />
    </g>
    <g id="g42" style="text-rendering:geometricPrecision;fill:#f0abfc;stroke:none">
      <path d="m 427.8457,205.5537 63.2478,36.5161 c 0.7562,0.4366 1.7228,0.1777 2.1594,-0.5786 0.4366,-0.7562 0.1776,-1.7227 -0.5786,-2.1593 l -63.2478,-36.5162 c -0.7562,-0.4366 -1.7228,-0.1776 -2.1594,0.5786 -0.4366,0.7563 -0.1776,1.7228 0.5786,2.1594 z" clip-path="url(#498024738369-clipPath1)" id="path44" ns1:connector-curvature="0" style="stroke:none" />
    </g>
    <g id="g46" style="fill:#c4b5fd;stroke:none;text-rendering:geometricPrecision">
      <path d="m 492.6743,242.0698 49.834,-28.7717 c 0.7562,-0.4366 1.0152,-1.4031 0.5786,-2.1593 -0.4366,-0.7562 -1.4031,-1.0152 -2.1593,-0.5786 l -49.8341,28.7717 c -0.7562,0.4366 -1.0152,1.4031 -0.5786,2.1593 0.4366,0.7563 1.4032,1.0152 2.1594,0.5786 z" clip-path="url(#498024738369-clipPath1)" id="path48" ns1:connector-curvature="0" style="stroke:none" />
      <path d="m 492.6743,242.0698 49.834,-28.7717 c 0.7562,-0.4366 1.0152,-1.4031 0.5786,-2.1593 -0.4366,-0.7562 -1.4031,-1.0152 -2.1593,-0.5786 l -49.8341,28.7717 c -0.7562,0.4366 -1.0152,1.4031 -0.5786,2.1593 0.4366,0.7563 1.4032,1.0152 2.1594,0.5786 z" clip-path="url(#498024738347-clipPath1)" id="path50" ns1:connector-curvature="0" style="fill:#f0abfc;stroke:none" />
    </g>
    <g id="g52" style="text-rendering:geometricPrecision;fill:#f0abfc;stroke:none">
      <path d="m 299.8406,212.0602 c 0.5843,-0.649 0.532,-1.6482 -0.1169,-2.2325 -0.6489,-0.5844 -1.6482,-0.532 -2.2325,0.1169 l -48.8682,54.2696 c -0.5843,0.6489 -0.532,1.6481 0.1169,2.2325 0.6489,0.5843 1.6482,0.5319 2.2325,-0.117 z m -15.9362,-1.9887 c 0.5843,-0.6488 0.532,-1.6481 -0.1169,-2.2324 -0.6489,-0.5844 -1.6482,-0.532 -2.2325,0.1169 l -36.5739,40.6164 c -0.5844,0.6489 -0.532,1.6482 0.1169,2.2325 0.6489,0.5843 1.6482,0.532 2.2325,-0.1169 z" clip-path="url(#498024738369-clipPath1)" id="path54" ns1:connector-curvature="0" style="stroke:none" />
    </g>
    <g id="g56" style="text-rendering:geometricPrecision;fill:#f0abfc;stroke:none">
      <path d="m 366.0312,239.2567 -66.7225,-29.6985 c -0.7978,-0.3551 -1.7319,0.004 -2.087,0.8014 -0.3551,0.7977 0.004,1.7318 0.8014,2.0869 l 66.7224,29.6985 c 0.7978,0.3551 1.7319,-0.004 2.087,-0.8013 0.3551,-0.7978 -0.004,-1.7319 -0.8013,-2.087 z" clip-path="url(#498024738369-clipPath1)" id="path58" ns1:connector-curvature="0" style="stroke:none" />
    </g>
    <g id="g60" style="text-rendering:geometricPrecision;fill:#f0abfc;stroke:none">
      <path d="m 366.9604,240.8662 c 0.0914,-0.8684 -0.5383,-1.6461 -1.4067,-1.7374 -0.8684,-0.0914 -1.6461,0.5382 -1.7374,1.4066 l -7.6416,72.6326 c -0.0914,0.8684 0.5383,1.6461 1.4067,1.7375 0.8684,0.0914 1.6461,-0.5383 1.7374,-1.4067 z m -14.2679,9.7142 c 0.0914,-0.8684 -0.5383,-1.6461 -1.4067,-1.7375 -0.8684,-0.0913 -1.6461,0.5383 -1.7375,1.4067 l -5.3079,50.4511 c -0.0913,0.8684 0.5383,1.6461 1.4067,1.7375 0.8684,0.0913 1.6461,-0.5383 1.7375,-1.4067 z" clip-path="url(#498024738369-clipPath1)" id="path62" ns1:connector-curvature="0" style="stroke:none" />
    </g>
    <g id="g64" style="text-rendering:geometricPrecision;fill:#f0abfc;stroke:none">
      <path d="m 264.0455,154.0555 c 0.8541,0.1817 1.6934,-0.3632 1.875,-1.2173 0.1817,-0.8541 -0.3632,-1.6934 -1.2173,-1.875 l -53.4587,-11.3699 c -0.8541,-0.1817 -1.6934,0.3632 -1.8751,1.2173 -0.1816,0.8541 0.3633,1.6934 1.2174,1.8751 z m 11.7253,-10.974 c 0.8541,0.1816 1.6934,-0.3633 1.875,-1.2173 0.1817,-0.8542 -0.3632,-1.6934 -1.2173,-1.8751 l -71.4291,-15.1919 c -0.8542,-0.1817 -1.6934,0.3632 -1.8751,1.2173 -0.1816,0.8541 0.3632,1.6934 1.2174,1.8751 z" clip-path="url(#498024738369-clipPath1)" id="path66" ns1:connector-curvature="0" style="stroke:none" />
    </g>
    <g id="g68" style="text-rendering:geometricPrecision;fill:#f0abfc;stroke:none">
      <path d="M 203.4959,125.2855 154.621,179.556 c -0.5844,0.6488 -0.5321,1.6481 0.1168,2.2325 0.6488,0.5843 1.6481,0.532 2.2324,-0.1168 l 48.8749,-54.2705 c 0.5844,-0.6488 0.5321,-1.6481 -0.1167,-2.2324 -0.6489,-0.5844 -1.6482,-0.5321 -2.2325,0.1167 z" clip-path="url(#498024738369-clipPath1)" id="path70" ns1:connector-curvature="0" style="stroke:none" />
    </g>
    <g id="g72" style="text-rendering:geometricPrecision;fill:#f0abfc;stroke:none">
      <path d="m 172.6659,184.7928 c -0.2698,-0.8305 -1.1613,-1.2849 -1.9918,-1.0151 -0.8305,0.2698 -1.2848,1.1613 -1.0151,1.9918 l 16.8893,51.994 c 0.2698,0.8305 1.1613,1.2849 1.9918,1.0151 0.8305,-0.2698 1.2849,-1.1613 1.0151,-1.9918 z m -15.3668,-4.6674 c -0.2698,-0.8304 -1.1614,-1.2848 -1.9918,-1.015 -0.8305,0.2697 -1.2849,1.1613 -1.0151,1.9918 l 22.5654,69.468 c 0.2697,0.8305 1.1613,1.2848 1.9918,1.0151 0.8305,-0.2698 1.2848,-1.1613 1.015,-1.9918 z" clip-path="url(#498024738369-clipPath1)" id="path74" ns1:connector-curvature="0" style="stroke:none" />
    </g>
    <g id="g76" style="text-rendering:geometricPrecision;fill:#f0abfc;stroke:none">
      <path d="m 300.1693,210.514 -22.5662,-69.4671 c -0.2698,-0.8305 -1.1614,-1.2848 -1.9919,-1.015 -0.8304,0.2697 -1.2848,1.1613 -1.015,1.9918 l 22.5662,69.4671 c 0.2698,0.8304 1.1614,1.2848 1.9919,1.015 0.8304,-0.2698 1.2848,-1.1613 1.015,-1.9918 z" clip-path="url(#498024738369-clipPath1)" id="path78" ns1:connector-curvature="0" style="stroke:none" />
    </g>
    <g id="g80" style="text-rendering:geometricPrecision;fill:#f0abfc;stroke:none">
      <path d="m 178.0322,251.628 71.4367,15.1901 c 0.8541,0.1817 1.6934,-0.3633 1.875,-1.2174 0.1816,-0.8541 -0.3633,-1.6933 -1.2174,-1.875 l -71.4367,-15.1901 c -0.8541,-0.1816 -1.6934,0.3633 -1.875,1.2175 -0.1816,0.8541 0.3633,1.6933 1.2174,1.8749 z" clip-path="url(#498024738369-clipPath1)" id="path82" ns1:connector-curvature="0" style="stroke:none" />
    </g>
    <g id="g84" style="fill:#c4b5fd;stroke:none;text-rendering:geometricPrecision">
      <path d="m 248.4287,266.0623 26.1155,45.2334 c 0.4366,0.7562 1.4032,1.0152 2.1594,0.5786 0.7562,-0.4366 1.0152,-1.4031 0.5786,-2.1593 l -26.1155,-45.2334 c -0.4366,-0.7563 -1.4032,-1.0152 -2.1594,-0.5786 -0.7562,0.4366 -1.0152,1.4031 -0.5786,2.1593 z" clip-path="url(#498024738369-clipPath1)" id="path86" ns1:connector-curvature="0" style="stroke:none" />
      <path d="m 248.4287,266.0623 26.1155,45.2334 c 0.4366,0.7562 1.4032,1.0152 2.1594,0.5786 0.7562,-0.4366 1.0152,-1.4031 0.5786,-2.1593 l -26.1155,-45.2334 c -0.4366,-0.7563 -1.4032,-1.0152 -2.1594,-0.5786 -0.7562,0.4366 -1.0152,1.4031 -0.5786,2.1593 z" clip-path="url(#498024738663-clipPath1)" id="path88" ns1:connector-curvature="0" style="fill:#f0abfc;stroke:none" />
    </g>
    <g id="g90" style="text-rendering:geometricPrecision;fill:#f0abfc;stroke:none">
      <path d="m 305.0702,326.1483 53.0053,-11.2687 c 0.8541,-0.1815 1.399,-1.0208 1.2175,-1.8749 -0.1816,-0.8541 -1.0208,-1.399 -1.875,-1.2175 l -53.0053,11.2687 c -0.8541,0.1816 -1.3991,1.0208 -1.2174,1.8749 0.1815,0.8541 1.0207,1.3991 1.8749,1.2175 z" clip-path="url(#498024738369-clipPath1)" id="path92" ns1:connector-curvature="0" style="stroke:none" />
      <path d="m 305.0702,326.1483 53.0053,-11.2687 c 0.8541,-0.1815 1.399,-1.0208 1.2175,-1.8749 -0.1816,-0.8541 -1.0208,-1.399 -1.875,-1.2175 l -53.0053,11.2687 c -0.8541,0.1816 -1.3991,1.0208 -1.2174,1.8749 0.1815,0.8541 1.0207,1.3991 1.8749,1.2175 z" clip-path="url(#498024738285-clipPath1)" id="path94" ns1:connector-curvature="0" style="fill:#c4b5fd;stroke:none" />
    </g>
    <g id="g96" style="fill:#fda4af;stroke:none;text-rendering:geometricPrecision">
      <path d="m 277.2743,142.5931 36.3064,-40.3147 c 0.5843,-0.6488 0.532,-1.6481 -0.1168,-2.2325 -0.6489,-0.5843 -1.6482,-0.532 -2.2325,0.1168 l -36.3064,40.3147 c -0.5844,0.6489 -0.5321,1.6482 0.1168,2.2325 0.6488,0.5844 1.6481,0.5321 2.2325,-0.1168 z" clip-path="url(#498024738369-clipPath1)" id="path98" ns1:connector-curvature="0" style="stroke:none" />
      <path d="m 277.2743,142.5931 36.3064,-40.3147 c 0.5843,-0.6488 0.532,-1.6481 -0.1168,-2.2325 -0.6489,-0.5843 -1.6482,-0.532 -2.2325,0.1168 l -36.3064,40.3147 c -0.5844,0.6489 -0.5321,1.6482 0.1168,2.2325 0.6488,0.5844 1.6481,0.5321 2.2325,-0.1168 z" clip-path="url(#498024738779-clipPath1)" id="path100" ns1:connector-curvature="0" style="fill:#f0abfc;stroke:none" />
    </g>
    <g id="g102" style="text-rendering:geometricPrecision;fill:#f0abfc;stroke:none">
      <path d="m 556.7125,186.1136 0,-54.9611 c 0,-0.8732 -0.7076,-1.5808 -1.5808,-1.5808 -0.8732,0 -1.5808,0.7076 -1.5808,1.5808 l 0,54.9611 c 0,0.8732 0.7076,1.5808 1.5808,1.5808 0.8732,0 1.5808,-0.7076 1.5808,-1.5808 z" clip-path="url(#498024738369-clipPath1)" id="path104" ns1:connector-curvature="0" style="stroke:none" />
      <path d="m 556.7125,186.1136 0,-54.9611 c 0,-0.8732 -0.7076,-1.5808 -1.5808,-1.5808 -0.8732,0 -1.5808,0.7076 -1.5808,1.5808 l 0,54.9611 c 0,0.8732 0.7076,1.5808 1.5808,1.5808 0.8732,0 1.5808,-0.7076 1.5808,-1.5808 z" clip-path="url(#498024738568-clipPath1)" id="path106" ns1:connector-curvature="0" style="fill:#c4b5fd;stroke:none" />
    </g>
    <g id="g108" style="text-rendering:geometricPrecision;fill:#f0abfc;stroke:none">
      <path d="m 555.9221,132.5215 63.2478,-36.5162 c 0.7562,-0.4366 1.0152,-1.4031 0.5786,-2.1593 -0.4367,-0.7563 -1.4032,-1.0152 -2.1594,-0.5786 l -63.2478,36.5161 c -0.7562,0.4366 -1.0152,1.4031 -0.5786,2.1594 0.4366,0.7562 1.4031,1.0152 2.1594,0.5786 z" clip-path="url(#498024738369-clipPath1)" id="path110" ns1:connector-curvature="0" style="stroke:none" />
    </g>
    <g id="g112" style="text-rendering:geometricPrecision;fill:#f0abfc;stroke:none">
      <path d="m 619.9602,94.6364 0,-66.7092 c 0,-0.8732 -0.7075,-1.5808 -1.5807,-1.5808 -0.8733,0 -1.5808,0.7076 -1.5808,1.5808 l 0,66.7092 c 0,0.8732 0.7075,1.5807 1.5808,1.5807 0.8732,0 1.5807,-0.7075 1.5807,-1.5807 z" clip-path="url(#498024738369-clipPath1)" id="path114" ns1:connector-curvature="0" style="stroke:none" />
    </g>
    <g id="g116" style="text-rendering:geometricPrecision;fill:#f0abfc;stroke:none">
      <path d="m 567.7551,213.2981 44.3581,25.6102 c 0.7561,0.4366 1.7227,0.1776 2.1593,-0.5786 0.4366,-0.7562 0.1776,-1.7228 -0.5786,-2.1594 l -44.3581,-25.6101 c -0.7562,-0.4366 -1.7228,-0.1776 -2.1593,0.5786 -0.4366,0.7562 -0.1777,1.7227 0.5786,2.1593 z" clip-path="url(#498024738369-clipPath1)" id="path118" ns1:connector-curvature="0" style="stroke:none" />
      <path d="m 567.7551,213.2981 44.3581,25.6102 c 0.7561,0.4366 1.7227,0.1776 2.1593,-0.5786 0.4366,-0.7562 0.1776,-1.7228 -0.5786,-2.1594 l -44.3581,-25.6101 c -0.7562,-0.4366 -1.7228,-0.1776 -2.1593,0.5786 -0.4366,0.7562 -0.1777,1.7227 0.5786,2.1593 z" clip-path="url(#498024738125-clipPath1)" id="path120" ns1:connector-curvature="0" style="fill:#c4b5fd;stroke:none" />
    </g>
    <g id="g122" style="fill:#eef2ff;stroke:none;text-rendering:geometricPrecision">
      </g>
    <g font-size="26px" transform="translate(545.452,188.6847)" id="g126" style="font-size:26px;font-family:sans-serif;fill:#c4b5fd;stroke:none;text-rendering:geometricPrecision">
      <text x="0" xml:space="preserve" y="25" clip-path="url(#498024738351-clipPath1)" id="text128" style="stroke:none">N</text>
    </g>
    <g font-size="26px" id="g130" style="font-size:26px;font-family:sans-serif;fill:#eef2ff;stroke:none;text-rendering:geometricPrecision">
      <text x="0" y="25" transform="translate(262.3685,313.0197)" clip-path="url(#498024738474-clipPath1)" xml:space="preserve" id="text134" style="fill:#c4b5fd;stroke:none">HN</text>
    </g>
    <g font-size="26px" id="g136" style="font-size:26px;font-family:sans-serif;fill:#eef2ff;stroke:none;text-rendering:geometricPrecision">
      <text x="0" y="25" transform="translate(314.1916,71.7663)" clip-path="url(#49802473857-clipPath1)" xml:space="preserve" id="text140" style="fill:#fda4af;stroke:none">OH</text>
    </g>
  </g>
</svg>