<?xml version='1.0' encoding='utf-8'?>
<svg xmlns="http://www.w3.org/2000/svg" xmlns:dc="http://purl.org/dc/elements/1.1/" xmlns:ns1="http://www.inkscape.org/namespaces/inkscape" xmlns:ns2="http://sodipodi.sourceforge.net/DTD/sodipodi-0.dtd" xmlns:ns4="http://creativecommons.org/ns#" xmlns:rdf="http://www.w3.org/1999/02/22-rdf-syntax-ns#" width="742.15161" stroke-miterlimit="10" font-weight="normal" height="530.73553" font-style="normal" font-size="12px" id="svg2" version="1.1" ns1:version="0.91 r13725" ns2:docname="Atropine.svg" style="font-style:normal;font-weight:normal;font-size:12px;font-family:Dialog;color-interpolation:auto;fill:#f5d0fe;fill-opacity:1;stroke:none;stroke:none;stroke:none;stroke:none;stroke:none;stroke:none;stroke:none;stroke:none;color-rendering:auto;image-rendering:auto;shape-rendering:auto;text-rendering:auto">
  <metadata id="metadata181">
    <rdf:RDF>
      <ns4:Work rdf:about="">
        <dc:format>image/svg+xml</dc:format>
        <dc:type rdf:resource="http://purl.org/dc/dcmitype/StillImage" />
        <dc:title />
      </ns4:Work>
    </rdf:RDF>
  </metadata>
  <ns2:namedview pagecolor="#eef2ff" bordercolor="#666666" borderopacity="1" objecttolerance="10" gridtolerance="10" guidetolerance="10" ns1:pageopacity="0" ns1:pageshadow="2" ns1:window-width="1920" ns1:window-height="1058" id="namedview179" showgrid="false" fit-margin-top="10" fit-margin-left="10" fit-margin-right="10" fit-margin-bottom="10" ns1:zoom="23.28" ns1:cx="351.42175" ns1:cy="185.48168" ns1:window-x="-8" ns1:window-y="-8" ns1:window-maximized="1" ns1:current-layer="g5" />
  
  <defs id="genericDefs">
    <clipPath clipPathUnits="userSpaceOnUse" id="713676920434-clipPath1">
      <path d="M 0,0 800,0 800,600 0,600 0,0 Z" id="path9-3" ns1:connector-curvature="0" style="stroke:none" />
    </clipPath>
    <clipPath clipPathUnits="userSpaceOnUse" id="713676920211-clipPath1">
      <path d="m 298.2086,109.2277 c -19.2348,0 -34.8277,15.5929 -34.8277,34.8278 0,19.2348 15.5929,34.8277 34.8277,34.8277 19.2349,0 34.8278,-15.5929 34.8278,-34.8277 0,-19.2349 -15.5929,-34.8278 -34.8278,-34.8278 z" id="path12-1" ns1:connector-curvature="0" style="stroke:none" />
    </clipPath>
    <clipPath clipPathUnits="userSpaceOnUse" id="clipPath4933">
      <path d="M 0,0 800,0 800,600 0,600 0,0 Z" id="path4935" ns1:connector-curvature="0" style="stroke:none" />
    </clipPath>
    <clipPath clipPathUnits="userSpaceOnUse" id="clipPath4937">
      <path d="M 0,0 800,0 800,600 0,600 0,0 Z" id="path4939" ns1:connector-curvature="0" style="stroke:none" />
    </clipPath>
    <clipPath clipPathUnits="userSpaceOnUse" id="clipPath4941">
      <path d="M 0,0 800,0 800,600 0,600 0,0 Z" id="path4943" ns1:connector-curvature="0" style="stroke:none" />
    </clipPath>
    <clipPath clipPathUnits="userSpaceOnUse" id="713676920837-clipPath1">
      <path d="m -285.2243,-30.3128 800.0001,0 0,600 -800.0001,0 0,-600 z" id="path15-2" ns1:connector-curvature="0" style="stroke:none" />
    </clipPath>
    <clipPath clipPathUnits="userSpaceOnUse" id="2098792516200-clipPath1">
      <path d="m -372.2994,-476.5572 800,0 0,600 -800,0 0,-600 z" id="path48" ns1:connector-curvature="0" style="stroke:none" />
    </clipPath>
    <clipPath clipPathUnits="userSpaceOnUse" id="713676920434-clipPath1-7">
      <path d="M 0,0 800,0 800,600 0,600 0,0 Z" id="path9-9" ns1:connector-curvature="0" style="stroke:none" />
    </clipPath>
    <clipPath clipPathUnits="userSpaceOnUse" id="713676920211-clipPath1-6">
      <path d="m 298.2086,109.2277 c -19.2348,0 -34.8277,15.5929 -34.8277,34.8278 0,19.2348 15.5929,34.8277 34.8277,34.8277 19.2349,0 34.8278,-15.5929 34.8278,-34.8277 0,-19.2349 -15.5929,-34.8278 -34.8278,-34.8278 z" id="path12-5" ns1:connector-curvature="0" style="stroke:none" />
    </clipPath>
  </defs>
  <g id="g5" transform="translate(-28.92422,-34.63229)" style="fill:#f5d0fe;stroke:none">
    <defs id="1255254311416-defs1">
      <clipPath clipPathUnits="userSpaceOnUse" id="1255254311945-clipPath1">
        <path d="M 0,0 800,0 800,600 0,600 0,0 Z" id="path9" ns1:connector-curvature="0" style="stroke:none" />
      </clipPath>
      <clipPath clipPathUnits="userSpaceOnUse" id="1255254311767-clipPath1">
        <path d="m 117,157 101,10 q 7,9 -2,17 L 116,174 q -8,-9 1,-17 z M 0,0 0,600 800,600 800,0 Z" id="path12" ns1:connector-curvature="0" style="stroke:none" />
      </clipPath>
      <clipPath clipPathUnits="userSpaceOnUse" id="1255254311798-clipPath1">
        <path d="m 116.6119,142.4896 c -12.8258,0 -23.2232,10.3974 -23.2232,23.2232 0,12.8259 10.3974,23.2233 23.2232,23.2233 12.8259,0 23.2232,-10.3974 23.2232,-23.2233 0,-12.8258 -10.3973,-23.2232 -23.2232,-23.2232 z" id="path15" ns1:connector-curvature="0" style="stroke:none" />
      </clipPath>
      <clipPath clipPathUnits="userSpaceOnUse" id="1255254311934-clipPath1">
        <path d="m 137.1331,91.9264 c -11.3331,0 -20.5203,9.1872 -20.5203,20.5203 0,11.333 9.1872,20.5203 20.5203,20.5203 11.333,0 20.5203,-9.1873 20.5203,-20.5203 0,-11.3331 -9.1873,-20.5203 -20.5203,-20.5203 z" id="path18" ns1:connector-curvature="0" style="stroke:none" />
      </clipPath>
      <clipPath clipPathUnits="userSpaceOnUse" id="1255254311296-clipPath1">
        <path d="m 101.5089,46.8715 c -19.2032,0 -34.7704,15.5672 -34.7704,34.7704 0,19.2031 15.5672,34.7704 34.7704,34.7704 19.2031,0 34.7704,-15.5673 34.7704,-34.7704 0,-19.2032 -15.5673,-34.7704 -34.7704,-34.7704 z" id="path21" ns1:connector-curvature="0" style="stroke:none" />
      </clipPath>
      <clipPath clipPathUnits="userSpaceOnUse" id="1255254311527-clipPath1">
        <path d="m 295.4826,192.0668 c -22.1051,0 -40.0248,17.9197 -40.0248,40.0248 0,22.1051 17.9197,40.0248 40.0248,40.0248 22.1051,0 40.0248,-17.9197 40.0248,-40.0248 0,-22.1051 -17.9197,-40.0248 -40.0248,-40.0248 z" id="path24" ns1:connector-curvature="0" style="stroke:none" />
      </clipPath>
      <clipPath clipPathUnits="userSpaceOnUse" id="1255254311947-clipPath1">
        <path d="m 317.2534,310.7235 c -22.6015,0 -40.9237,18.3222 -40.9237,40.9237 0,22.6016 18.3222,40.9238 40.9237,40.9238 22.6015,0 40.9237,-18.3222 40.9237,-40.9238 0,-22.6015 -18.3222,-40.9237 -40.9237,-40.9237 z" id="path27" ns1:connector-curvature="0" style="stroke:none" />
      </clipPath>
      <clipPath clipPathUnits="userSpaceOnUse" id="1255254311686-clipPath1">
        <path d="m 480.7881,191.1679 c -22.6015,0 -40.9237,18.3222 -40.9237,40.9237 0,22.6015 18.3222,40.9237 40.9237,40.9237 22.6016,0 40.9238,-18.3222 40.9238,-40.9237 0,-22.6015 -18.3222,-40.9237 -40.9238,-40.9237 z" id="path30" ns1:connector-curvature="0" style="stroke:none" />
      </clipPath>
      <clipPath clipPathUnits="userSpaceOnUse" id="1255254311318-clipPath1">
        <path d="m 388.1354,352.5461 c -22.1051,0 -40.0248,17.9198 -40.0248,40.0249 0,22.105 17.9197,40.0248 40.0248,40.0248 22.105,0 40.0248,-17.9198 40.0248,-40.0248 0,-22.1051 -17.9198,-40.0249 -40.0248,-40.0249 z" id="path33" ns1:connector-curvature="0" style="stroke:none" />
      </clipPath>
      <clipPath clipPathUnits="userSpaceOnUse" id="1255254311382-clipPath1">
        <path d="m -107.1491,-69.9432 799.9999,0 0,600 -799.9999,0 0,-600 z" id="path36" ns1:connector-curvature="0" style="stroke:none" />
      </clipPath>
      <clipPath clipPathUnits="userSpaceOnUse" id="1255254311448-clipPath1">
        <path d="m -280.6466,-316.0778 800,0 0,600 -800,0 0,-600 z" id="path39" ns1:connector-curvature="0" style="stroke:none" />
      </clipPath>
      <clipPath clipPathUnits="userSpaceOnUse" id="1255254311118-clipPath1">
        <path d="m -372.2994,-476.5572 800,0 0,600 -800,0 0,-600 z" id="path42" ns1:connector-curvature="0" style="stroke:none" />
      </clipPath>
      <clipPath clipPathUnits="userSpaceOnUse" id="1255254311442-clipPath1">
        <path d="m -557.605,-155.5985 800,0 0,600 -800,0 0,-600 z" id="path45" ns1:connector-curvature="0" style="stroke:none" />
      </clipPath>
    </defs>
    <g id="g47" style="text-rendering:geometricPrecision;fill:#f5d0fe;stroke:none">
      <path d="m 163.0167,146.4944 106.1198,6.3507 c 1.2769,0.0765 2.3735,-0.8963 2.4499,-2.1732 0.0764,-1.2769 -0.8963,-2.3735 -2.1732,-2.4499 l -106.1198,-6.3507 c -1.2769,-0.0764 -2.3735,0.8964 -2.4499,2.1732 -0.0764,1.2769 0.8963,2.3735 2.1732,2.4499 z" clip-path="url(#1255254311945-clipPath1)" id="path49" ns1:connector-curvature="0" style="stroke:none" />
    </g>
    <g id="g51" style="text-rendering:geometricPrecision;fill:#f5d0fe;stroke:none">
      <path d="m 161.1024,143.1109 -49.9315,95.6105 c -0.5921,1.1339 -0.1532,2.5325 0.9807,3.1247 1.1339,0.5921 2.5325,0.1531 3.1246,-0.9807 l 49.9315,-95.6105 c 0.5922,-1.1339 0.1532,-2.5325 -0.9807,-3.1247 -1.1338,-0.5921 -2.5324,-0.1531 -3.1246,0.9807 z" clip-path="url(#1255254311767-clipPath1)" id="path53" ns1:connector-curvature="0" style="stroke:none" />
    </g>
    <g id="g55" style="text-rendering:geometricPrecision;fill:#f5d0fe;stroke:none">
      <path d="m 217.1372,173.1331 -100.3018,-9.7252 c -1.2732,-0.1234 -2.4049,0.8083 -2.5284,2.0814 -0.1234,1.2733 0.8082,2.405 2.0814,2.5284 l 100.3018,9.7252 c 1.2732,0.1234 2.405,-0.8082 2.5284,-2.0814 0.1234,-1.2732 -0.8082,-2.4049 -2.0814,-2.5284 z" clip-path="url(#1255254311945-clipPath1)" id="path57" ns1:connector-curvature="0" style="stroke:none" />
    </g>
    <g id="g59" style="text-rendering:geometricPrecision;fill:#f5d0fe;stroke:none">
      <path d="m 81.8881,254.0105 2.1551,0.8475 48.431,-89.9337 -13.4121,-1.3004 3.2307,-51.9036 -42.5597,141.4427 z" clip-path="url(#1255254311945-clipPath1)" id="path61" ns1:connector-curvature="0" style="stroke:none" />
    </g>
    <g id="g63" style="text-rendering:geometricPrecision;fill:#f5d0fe;stroke:none">
      <path d="m 82.8449,256.1193 31.3354,-14.2171 c 1.1649,-0.5285 1.6806,-1.9007 1.1521,-3.0656 -0.5285,-1.1649 -1.9007,-1.6805 -3.0656,-1.152 l -31.3354,14.2171 c -1.1649,0.5285 -1.6806,1.9007 -1.1521,3.0656 0.5286,1.1648 1.9007,1.6805 3.0656,1.152 z" clip-path="url(#1255254311945-clipPath1)" id="path65" ns1:connector-curvature="0" style="stroke:none" />
    </g>
    <g id="g67" style="fill:#c4b5fd;stroke:none;text-rendering:geometricPrecision">
      <path d="M 118.9231,165.8567 121.8085,119.5 c 0.0795,-1.2767 -0.8906,-2.3756 -2.1673,-2.4551 -1.2767,-0.0795 -2.3756,0.8906 -2.4551,2.1673 l -2.8854,46.3568 c -0.0795,1.2767 0.8907,2.3756 2.1674,2.4551 1.2767,0.0794 2.3756,-0.8907 2.455,-2.1674 z" clip-path="url(#1255254311945-clipPath1)" id="path69" ns1:connector-curvature="0" style="stroke:none" />
      <path d="M 118.9231,165.8567 121.8085,119.5 c 0.0795,-1.2767 -0.8906,-2.3756 -2.1673,-2.4551 -1.2767,-0.0795 -2.3756,0.8906 -2.4551,2.1673 l -2.8854,46.3568 c -0.0795,1.2767 0.8907,2.3756 2.1674,2.4551 1.2767,0.0794 2.3756,-0.8907 2.455,-2.1674 z" clip-path="url(#1255254311798-clipPath1)" id="path71" ns1:connector-curvature="0" style="fill:#f5d0fe;stroke:none" />
    </g>
    <g id="g73" style="text-rendering:geometricPrecision;fill:#f5d0fe;stroke:none">
      <path d="m 135.3424,113.915 26.022,31.7362 c 0.811,0.9891 2.2698,1.1335 3.2589,0.3224 0.9892,-0.8111 1.1335,-2.2698 0.3225,-3.259 l -26.022,-31.7362 c -0.8111,-0.9892 -2.2698,-1.1335 -3.259,-0.3224 -0.9892,0.811 -1.1335,2.2698 -0.3224,3.259 z" clip-path="url(#1255254311945-clipPath1)" id="path75" ns1:connector-curvature="0" style="stroke:none" />
      <path d="m 135.3424,113.915 26.022,31.7362 c 0.811,0.9891 2.2698,1.1335 3.2589,0.3224 0.9892,-0.8111 1.1335,-2.2698 0.3225,-3.259 l -26.022,-31.7362 c -0.8111,-0.9892 -2.2698,-1.1335 -3.259,-0.3224 -0.9892,0.811 -1.1335,2.2698 -0.3224,3.259 z" clip-path="url(#1255254311934-clipPath1)" id="path77" ns1:connector-curvature="0" style="fill:#c4b5fd;stroke:none" />
    </g>
    <g id="g79" style="text-rendering:geometricPrecision;fill:#f5d0fe;stroke:none">
      <path d="m 267.0702,151.242 26.2077,81.558 c 0.3914,1.2179 1.6953,1.8876 2.9131,1.4963 1.2179,-0.3914 1.8876,-1.6953 1.4962,-2.9132 l -26.2077,-81.558 c -0.3913,-1.2178 -1.6953,-1.8875 -2.9131,-1.4962 -1.2179,0.3913 -1.8876,1.6953 -1.4962,2.9131 z" clip-path="url(#1255254311945-clipPath1)" id="path81" ns1:connector-curvature="0" style="stroke:none" />
    </g>
    <g id="g83" style="text-rendering:geometricPrecision;fill:#f5d0fe;stroke:none">
      <path d="m 295.4826,232.0916 1.3544,-1.8783 -55.0608,-54.6912 -28.5903,-2.7721 -28.5902,-2.7721 109.5325,63.992 z" clip-path="url(#1255254311945-clipPath1)" id="path85" ns1:connector-curvature="0" style="stroke:none" />
    </g>
    <g id="g87" style="text-rendering:geometricPrecision;fill:#f5d0fe;stroke:none">
      <path d="M 102.6642,79.6349 42.3957,44.9415 c -1.1086,-0.6381 -2.524,-0.2569 -3.1622,0.8517 -0.6382,1.1086 -0.257,2.524 0.8516,3.1622 l 60.2685,34.6934 c 1.1086,0.6382 2.524,0.257 3.1622,-0.8517 0.6382,-1.1086 0.257,-2.524 -0.8516,-3.1622 z" clip-path="url(#1255254311945-clipPath1)" id="path89" ns1:connector-curvature="0" style="stroke:none" />
      <path d="M 102.6642,79.6349 42.3957,44.9415 c -1.1086,-0.6381 -2.524,-0.2569 -3.1622,0.8517 -0.6382,1.1086 -0.257,2.524 0.8516,3.1622 l 60.2685,34.6934 c 1.1086,0.6382 2.524,0.257 3.1622,-0.8517 0.6382,-1.1086 0.257,-2.524 -0.8516,-3.1622 z" clip-path="url(#1255254311296-clipPath1)" id="path91" ns1:connector-curvature="0" style="fill:#c4b5fd;stroke:none" />
    </g>
    <g id="g93" style="fill:#fda4af;stroke:none;text-rendering:geometricPrecision">
      <path d="m 293.1669,232.0916 0,80.0496 c 0,1.2792 1.0365,2.3157 2.3157,2.3157 1.2791,0 2.3157,-1.0365 2.3157,-2.3157 l 0,-80.0496 c 0,-1.2792 -1.0366,-2.3157 -2.3157,-2.3157 -1.2792,0 -2.3157,1.0365 -2.3157,2.3157 z" clip-path="url(#1255254311945-clipPath1)" id="path95" ns1:connector-curvature="0" style="stroke:none" />
      <path d="m 293.1669,232.0916 0,80.0496 c 0,1.2792 1.0365,2.3157 2.3157,2.3157 1.2791,0 2.3157,-1.0365 2.3157,-2.3157 l 0,-80.0496 c 0,-1.2792 -1.0366,-2.3157 -2.3157,-2.3157 -1.2792,0 -2.3157,1.0365 -2.3157,2.3157 z" clip-path="url(#1255254311527-clipPath1)" id="path97" ns1:connector-curvature="0" style="fill:#f5d0fe;stroke:none" />
    </g>
    <g id="g99" style="text-rendering:geometricPrecision;fill:#f5d0fe;stroke:none">
      <path d="m 316.0956,353.6527 70.8819,40.9237 c 1.1078,0.6396 2.5237,0.2602 3.1633,-0.8476 0.6396,-1.1078 0.2602,-2.5237 -0.8476,-3.1633 l -70.8819,-40.9237 c -1.1079,-0.6396 -2.5238,-0.2602 -3.1633,0.8476 -0.6396,1.1078 -0.2602,2.5237 0.8476,3.1633 z" clip-path="url(#1255254311945-clipPath1)" id="path101" ns1:connector-curvature="0" style="stroke:none" />
      <path d="m 316.0956,353.6527 70.8819,40.9237 c 1.1078,0.6396 2.5237,0.2602 3.1633,-0.8476 0.6396,-1.1078 0.2602,-2.5237 -0.8476,-3.1633 l -70.8819,-40.9237 c -1.1079,-0.6396 -2.5238,-0.2602 -3.1633,0.8476 -0.6396,1.1078 -0.2602,2.5237 0.8476,3.1633 z" clip-path="url(#1255254311947-clipPath1)" id="path103" ns1:connector-curvature="0" style="fill:#fda4af;stroke:none" />
    </g>
    <g id="g105" style="text-rendering:geometricPrecision;fill:#f5d0fe;stroke:none">
      <path d="m 389.2932,394.5764 92.6528,-53.4931 c 1.1078,-0.6396 1.4872,-2.0555 0.8476,-3.1633 -0.6396,-1.1078 -2.0555,-1.4872 -3.1633,-0.8476 l -92.6528,53.4931 c -1.1078,0.6396 -1.4872,2.0555 -0.8476,3.1633 0.6396,1.1078 2.0555,1.4872 3.1633,0.8476 z" clip-path="url(#1255254311945-clipPath1)" id="path107" ns1:connector-curvature="0" style="stroke:none" />
    </g>
    <g id="g109" style="text-rendering:geometricPrecision;fill:#f5d0fe;stroke:none">
      <path d="m 483.1039,339.0778 0,-106.9862 c 0,-1.2792 -1.0366,-2.3157 -2.3158,-2.3157 -1.2791,0 -2.3156,1.0365 -2.3156,2.3157 l 0,106.9862 c 0,1.2792 1.0365,2.3157 2.3156,2.3157 1.2792,0 2.3158,-1.0365 2.3158,-2.3157 z" clip-path="url(#1255254311945-clipPath1)" id="path111" ns1:connector-curvature="0" style="stroke:none" />
    </g>
    <g id="g113" style="text-rendering:geometricPrecision;fill:#f5d0fe;stroke:none">
      <path d="m 479.6303,341.0833 92.6528,53.4931 c 1.1078,0.6396 2.5237,0.2602 3.1633,-0.8476 0.6396,-1.1078 0.2602,-2.5237 -0.8476,-3.1633 L 481.946,337.0724 c -1.1078,-0.6396 -2.5237,-0.2602 -3.1633,0.8476 -0.6396,1.1078 -0.2602,2.5237 0.8476,3.1633 z" clip-path="url(#1255254311945-clipPath1)" id="path115" ns1:connector-curvature="0" style="stroke:none" />
    </g>
    <g id="g117" style="text-rendering:geometricPrecision;fill:#f5d0fe;stroke:none">
      <path d="m 572.2844,501.5546 92.6624,53.5024 c 1.1078,0.6397 2.5237,0.2603 3.1633,-0.8475 0.6397,-1.1078 0.2603,-2.5237 -0.8475,-3.1633 l -92.6624,-53.5024 c -1.1078,-0.6396 -2.5237,-0.2603 -3.1633,0.8475 -0.6397,1.1078 -0.2603,2.5237 0.8475,3.1633 z" clip-path="url(#1255254311945-clipPath1)" id="path119" ns1:connector-curvature="0" style="stroke:none" />
    </g>
    <g id="g121" style="text-rendering:geometricPrecision;fill:#f5d0fe;stroke:none">
      <path d="m 666.9537,527.6057 c -1.1079,0.6395 -1.4873,2.0553 -0.8479,3.1632 0.6396,1.1078 2.0555,1.4873 3.1633,0.8478 l 69.3405,-40.0269 c 1.1078,-0.6395 1.4873,-2.0554 0.8478,-3.1633 -0.6395,-1.1078 -2.0554,-1.4873 -3.1632,-0.8478 z m -2.0067,23.4404 c -1.1078,0.6394 -1.4873,2.0553 -0.8478,3.1632 0.6394,1.1078 2.0553,1.4874 3.1632,0.8478 l 92.6498,-53.4823 c 1.1079,-0.6395 1.4873,-2.0554 0.8479,-3.1632 -0.6396,-1.1079 -2.0554,-1.4874 -3.1633,-0.8479 z" clip-path="url(#1255254311945-clipPath1)" id="path123" ns1:connector-curvature="0" style="stroke:none" />
    </g>
    <g id="g125" style="text-rendering:geometricPrecision;fill:#f5d0fe;stroke:none">
      <path d="m 761.0702,499.5694 0.005,-106.9895 c 10e-5,-1.2792 -1.0364,-2.3157 -2.3155,-2.3158 -1.2792,-10e-5 -2.3158,1.0364 -2.3158,2.3156 l -0.005,106.9895 c 0,1.2791 1.0364,2.3157 2.3156,2.3158 1.2792,0 2.3157,-1.0364 2.3158,-2.3156 z" clip-path="url(#1255254311945-clipPath1)" id="path127" ns1:connector-curvature="0" style="stroke:none" />
    </g>
    <g id="g129" style="text-rendering:geometricPrecision;fill:#f5d0fe;stroke:none">
      <path d="m 736.2982,404.5681 c 1.1077,0.6396 2.5236,0.2603 3.1633,-0.8475 0.6396,-1.1078 0.2602,-2.5237 -0.8475,-3.1633 L 669.2601,360.513 c -1.1078,-0.6396 -2.5237,-0.2603 -3.1634,0.8475 -0.6395,1.1078 -0.2602,2.5237 0.8476,3.1633 z m 21.3035,-9.9829 c 1.1078,0.6396 2.5237,0.2603 3.1634,-0.8475 0.6396,-1.1078 0.2602,-2.5237 -0.8476,-3.1633 L 667.2551,337.072 c -1.1077,-0.6397 -2.5237,-0.2603 -3.1633,0.8475 -0.6396,1.1078 -0.2603,2.5237 0.8475,3.1633 z" clip-path="url(#1255254311945-clipPath1)" id="path131" ns1:connector-curvature="0" style="stroke:none" />
    </g>
    <g id="g133" style="text-rendering:geometricPrecision;fill:#f5d0fe;stroke:none">
      <path d="m 595.0544,406.0282 c 0,-1.2792 -1.0365,-2.3157 -2.3157,-2.3157 -1.2792,0 -2.3157,1.0366 -2.3157,2.3158 l 10e-4,80.064 c 0,1.2792 1.0365,2.3157 2.3157,2.3157 1.2792,0 2.3157,-1.0365 2.3157,-2.3157 z m -19.2977,-13.4573 c 0,-1.2792 -1.0366,-2.3157 -2.3158,-2.3157 -1.2792,0 -2.3157,1.0366 -2.3157,2.3158 l 0.001,106.9782 c 0,1.2792 1.0365,2.3157 2.3157,2.3157 1.2792,0 2.3157,-1.0366 2.3157,-2.3157 z" clip-path="url(#1255254311945-clipPath1)" id="path135" ns1:connector-curvature="0" style="stroke:none" />
    </g>
    <g id="g137" style="text-rendering:geometricPrecision;fill:#f5d0fe;stroke:none">
      <path d="m 664.9394,337.0719 -92.6563,53.4936 c -1.1078,0.6395 -1.4872,2.0554 -0.8476,3.1633 0.6396,1.1078 2.0555,1.4872 3.1633,0.8476 l 92.6563,-53.4935 c 1.1078,-0.6396 1.4872,-2.0555 0.8476,-3.1633 -0.6396,-1.1079 -2.0555,-1.4873 -3.1633,-0.8477 z" clip-path="url(#1255254311945-clipPath1)" id="path139" ns1:connector-curvature="0" style="stroke:none" />
    </g>
    <g id="g141" style="fill:#fda4af;stroke:none;text-rendering:geometricPrecision">
      <path d="m 481.946,234.097 70.8819,-40.9237 c 1.1079,-0.6396 1.4873,-2.0555 0.8477,-3.1633 -0.6396,-1.1078 -2.0555,-1.4872 -3.1633,-0.8476 l -70.882,40.9238 c -1.1078,0.6395 -1.4872,2.0554 -0.8476,3.1633 0.6396,1.1078 2.0555,1.4871 3.1633,0.8475 z" clip-path="url(#1255254311945-clipPath1)" id="path143" ns1:connector-curvature="0" style="stroke:none" />
      <path d="m 481.946,234.097 70.8819,-40.9237 c 1.1079,-0.6396 1.4873,-2.0555 0.8477,-3.1633 -0.6396,-1.1078 -2.0555,-1.4872 -3.1633,-0.8476 l -70.882,40.9238 c -1.1078,0.6395 -1.4872,2.0554 -0.8476,3.1633 0.6396,1.1078 2.0555,1.4871 3.1633,0.8475 z" clip-path="url(#1255254311686-clipPath1)" id="path145" ns1:connector-curvature="0" style="fill:#f5d0fe;stroke:none" />
    </g>
    <g id="g153" style="fill:#eef2ff;stroke:none;text-rendering:geometricPrecision">
      </g>
    <g font-size="38px" transform="translate(107.1491,69.9432)" id="g157" style="font-size:38px;font-family:sans-serif;fill:#c4b5fd;stroke:none;text-rendering:geometricPrecision">
      <text x="0" xml:space="preserve" y="37" clip-path="url(#1255254311382-clipPath1)" id="text159" style="stroke:none">N</text>
    </g>
    <g font-size="38px" id="g161" style="font-size:38px;font-family:sans-serif;fill:#eef2ff;stroke:none;text-rendering:geometricPrecision">
      <text x="0" y="37" transform="translate(280.6466,316.0778)" clip-path="url(#1255254311448-clipPath1)" xml:space="preserve" id="text165" style="fill:#fda4af;stroke:none">O</text>
    </g>
    <g font-size="38px" id="g173" style="font-size:38px;font-family:sans-serif;fill:#eef2ff;stroke:none;text-rendering:geometricPrecision">
      <text x="0" y="37" transform="translate(557.605,155.5985)" clip-path="url(#1255254311442-clipPath1)" xml:space="preserve" id="text177" style="fill:#fda4af;stroke:none">OH</text>
    </g>
    <text x="0" y="37" transform="translate(373.37636,476.64795)" clip-path="url(#2098792516200-clipPath1)" xml:space="preserve" id="text192" style="font-style:normal;font-weight:normal;font-size:38px;font-family:sans-serif;color-interpolation:auto;fill:#fda4af;fill-opacity:1;stroke:none;stroke:none;stroke:none;stroke:none;stroke:none;stroke:none;stroke:none;stroke:none;color-rendering:auto;image-rendering:auto;shape-rendering:auto;text-rendering:geometricPrecision">O</text>
    <path transform="matrix(1,0,0,-1,89.444867,537.15475)" d="m 287.6693,148.9627 c 0,1.1268 0.913,2.0398 2.0398,2.0398 1.1268,0 2.0399,-0.913 2.0399,-2.0398 l 0,-74.5627 c 0,-1.1268 -0.9131,-2.0399 -2.0399,-2.0399 -1.1268,0 -2.0398,0.9131 -2.0398,2.0399 z m 16.999,0 c 0,1.1268 0.913,2.0398 2.0399,2.0398 1.1268,0 2.0398,-0.913 2.0398,-2.0398 l 0,-74.5627 c 0,-1.1268 -0.913,-2.0399 -2.0398,-2.0399 -1.1269,0 -2.0399,0.9131 -2.0399,2.0399 z" clip-path="url(#713676920434-clipPath1-7)" id="path19" ns1:connector-curvature="0" style="font-style:normal;font-weight:normal;font-size:12px;font-family:Dialog;color-interpolation:auto;fill:#fda4af;fill-opacity:1;stroke:none;stroke:none;stroke:none;stroke:none;stroke:none;stroke:none;stroke:none;stroke:none;color-rendering:auto;image-rendering:auto;shape-rendering:auto;text-rendering:geometricPrecision" />
    <path transform="matrix(1,0,0,-1,89.446417,537.13973)" d="m 287.6693,148.9627 c 0,1.1268 0.913,2.0398 2.0398,2.0398 1.1268,0 2.0399,-0.913 2.0399,-2.0398 l 0,-74.5627 c 0,-1.1268 -0.9131,-2.0399 -2.0399,-2.0399 -1.1268,0 -2.0398,0.9131 -2.0398,2.0399 z m 16.999,0 c 0,1.1268 0.913,2.0398 2.0399,2.0398 1.1268,0 2.0398,-0.913 2.0398,-2.0398 l 0,-74.5627 c 0,-1.1268 -0.913,-2.0399 -2.0398,-2.0399 -1.1269,0 -2.0399,0.9131 -2.0399,2.0399 z" clip-path="url(#713676920211-clipPath1-6)" id="path21-8" ns1:connector-curvature="0" style="font-style:normal;font-weight:normal;font-size:12px;font-family:Dialog;color-interpolation:auto;fill:#f5d0fe;fill-opacity:1;stroke:none;stroke:none;stroke:none;stroke:none;stroke:none;stroke:none;stroke:none;stroke:none;color-rendering:auto;image-rendering:auto;shape-rendering:auto;text-rendering:geometricPrecision" />
  </g>
</svg>