<?xml version='1.0' encoding='utf-8'?>
<svg xmlns="http://www.w3.org/2000/svg" xmlns:dc="http://purl.org/dc/elements/1.1/" xmlns:ns1="http://www.inkscape.org/namespaces/inkscape" xmlns:ns2="http://sodipodi.sourceforge.net/DTD/sodipodi-0.dtd" xmlns:ns4="http://creativecommons.org/ns#" xmlns:rdf="http://www.w3.org/1999/02/22-rdf-syntax-ns#" width="419.50372" stroke-miterlimit="10" font-weight="normal" height="557.79584" font-style="normal" font-size="12px" id="svg2" version="1.1" ns1:version="0.91 r13725" ns2:docname="Diazepam.svg" style="font-style:normal;font-weight:normal;font-size:12px;font-family:Dialog;color-interpolation:auto;fill:#000000;fill-opacity:1;stroke:none;stroke:none;stroke:none;stroke:none;stroke:none;stroke:none;stroke:none;stroke:none;color-rendering:auto;image-rendering:auto;shape-rendering:auto;text-rendering:auto">
  <metadata id="metadata174">
    <rdf:RDF>
      <ns4:Work rdf:about="">
        <dc:format>image/svg+xml</dc:format>
        <dc:type rdf:resource="http://purl.org/dc/dcmitype/StillImage" />
        <dc:title />
      </ns4:Work>
    </rdf:RDF>
  </metadata>
  <ns2:namedview pagecolor="#ffffff" bordercolor="#666666" borderopacity="1" objecttolerance="10" gridtolerance="10" guidetolerance="10" ns1:pageopacity="0" ns1:pageshadow="2" ns1:window-width="1060" ns1:window-height="480" id="namedview172" showgrid="false" fit-margin-top="10" fit-margin-left="10" fit-margin-right="10" fit-margin-bottom="10" ns1:zoom="0.36375" ns1:cx="374.66103" ns1:cy="278.76587" ns1:window-x="0" ns1:window-y="0" ns1:window-maximized="0" ns1:current-layer="svg2" />
  
  <defs id="genericDefs" />
  <g id="g5" transform="translate(-25.33897,-20.97)" style="fill:#000000;stroke:none">
    <defs id="1987830295358-defs1">
      <clipPath clipPathUnits="userSpaceOnUse" id="1987830295993-clipPath1">
        <path d="M 0,0 800,0 800,600 0,600 0,0 Z" id="path9" ns1:connector-curvature="0" style="stroke:none" />
      </clipPath>
      <clipPath clipPathUnits="userSpaceOnUse" id="1987830295515-clipPath1">
        <path d="m 334.7713,275.4377 c -18.8027,0 -34.0453,15.2425 -34.0453,34.0452 0,18.8027 15.2426,34.0454 34.0453,34.0454 18.8027,0 34.0453,-15.2427 34.0453,-34.0454 0,-18.8027 -15.2426,-34.0452 -34.0453,-34.0452 z" id="path12" ns1:connector-curvature="0" style="stroke:none" />
      </clipPath>
      <clipPath clipPathUnits="userSpaceOnUse" id="1987830295820-clipPath1">
        <path d="m 432.9847,157.8243 c -17.7908,0 -32.2131,14.4224 -32.2131,32.2132 0,17.7908 14.4223,32.2132 32.2131,32.2132 17.7908,0 32.2132,-14.4224 32.2132,-32.2132 0,-17.7908 -14.4224,-32.2132 -32.2132,-32.2132 z" id="path15" ns1:connector-curvature="0" style="stroke:none" />
      </clipPath>
      <clipPath clipPathUnits="userSpaceOnUse" id="1987830295455-clipPath1">
        <path d="m 240.1752,154.4553 c -18.0584,0 -32.6976,14.6392 -32.6976,32.6975 0,18.0584 14.6392,32.6976 32.6976,32.6976 18.0583,0 32.6975,-14.6392 32.6975,-32.6976 0,-18.0583 -14.6392,-32.6975 -32.6975,-32.6975 z" id="path18" ns1:connector-curvature="0" style="stroke:none" />
      </clipPath>
      <clipPath clipPathUnits="userSpaceOnUse" id="1987830295913-clipPath1">
        <path d="m 310.699,86.207 c -19.2738,0 -34.8983,15.6245 -34.8983,34.8983 0,19.2738 15.6245,34.8983 34.8983,34.8983 19.2738,0 34.8983,-15.6245 34.8983,-34.8983 0,-19.2738 -15.6245,-34.8983 -34.8983,-34.8983 z" id="path21" ns1:connector-curvature="0" style="stroke:none" />
      </clipPath>
      <clipPath clipPathUnits="userSpaceOnUse" id="1987830295104-clipPath1">
        <path d="m 380.4878,90.4958 c -17.4818,0 -31.6537,14.1718 -31.6537,31.6536 0,17.4818 14.1719,31.6537 31.6537,31.6537 17.4818,0 31.6537,-14.1719 31.6537,-31.6537 0,-17.4818 -14.1719,-31.6536 -31.6537,-31.6536 z" id="path24" ns1:connector-curvature="0" style="stroke:none" />
      </clipPath>
      <clipPath clipPathUnits="userSpaceOnUse" id="1987830295154-clipPath1">
        <path d="m 112.6249,270.851 c -17.203,0 -31.1487,13.9457 -31.1487,31.1487 0,17.2029 13.9457,31.1487 31.1487,31.1487 17.2029,0 31.1487,-13.9458 31.1487,-31.1487 0,-17.203 -13.9458,-31.1487 -31.1487,-31.1487 z" id="path27" ns1:connector-curvature="0" style="stroke:none" />
      </clipPath>
      <clipPath clipPathUnits="userSpaceOnUse" id="1987830295206-clipPath1">
        <path d="m 285.8618,73.1267 c -15.8537,0 -28.7056,12.8519 -28.7056,28.7056 0,15.8537 12.8519,28.7056 28.7056,28.7056 15.8537,0 28.7056,-12.8519 28.7056,-28.7056 0,-15.8537 -12.8519,-28.7056 -28.7056,-28.7056 z" id="path30" ns1:connector-curvature="0" style="stroke:none" />
      </clipPath>
      <clipPath clipPathUnits="userSpaceOnUse" id="1987830295683-clipPath1">
        <path d="m -401.5765,-255.4088 800,0 0,600 -800,0 0,-600 z" id="path33" ns1:connector-curvature="0" style="stroke:none" />
      </clipPath>
      <clipPath clipPathUnits="userSpaceOnUse" id="1987830295405-clipPath1">
        <path d="m -283.617,-102.8656 800,0 0,600 -800,0 0,-600 z" id="path36" ns1:connector-curvature="0" style="stroke:none" />
      </clipPath>
      <clipPath clipPathUnits="userSpaceOnUse" id="1987830295603-clipPath1">
        <path d="m -407.3987,-27.3958 800,0 0,600 -800,0 0,-600 z" id="path39" ns1:connector-curvature="0" style="stroke:none" />
      </clipPath>
      <clipPath clipPathUnits="userSpaceOnUse" id="1987830295965-clipPath1">
        <path d="m -33.6544,-341.4231 800,0 0,600 -800,0 0,-600 z" id="path42" ns1:connector-curvature="0" style="stroke:none" />
      </clipPath>
    </defs>
    <g id="g44" style="text-rendering:geometricPrecision;fill:#000000;stroke:none">
      <path d="m 334.4402,393.6967 c -0.8808,-0.5263 -2.0209,-0.239 -2.5472,0.6419 -0.5263,0.8808 -0.239,2.021 0.6418,2.5473 l 73.6703,44.0159 c 0.8809,0.5263 2.021,0.239 2.5473,-0.6419 0.5263,-0.8808 0.239,-2.021 -0.6418,-2.5473 z m 1.3273,18.8248 c -0.8809,-0.5263 -2.0211,-0.239 -2.5473,0.6419 -0.5263,0.8808 -0.239,2.021 0.6418,2.5473 l 55.1372,32.9429 c 0.8808,0.5262 2.021,0.2389 2.5473,-0.6419 0.5263,-0.8808 0.2389,-2.021 -0.6419,-2.5473 z" clip-path="url(#1987830295993-clipPath1)" id="path46" ns1:connector-curvature="0" style="stroke:none" />
    </g>
    <g id="g48" style="text-rendering:geometricPrecision;fill:#000000;stroke:none">
      <path d="m 405.3005,439.2794 -1.2837,85.8084 c -0.0154,1.0259 0.8035,1.8697 1.8295,1.885 1.0259,0.0154 1.8697,-0.8035 1.8851,-1.8294 l 1.2837,-85.8084 c 0.0154,-1.0259 -0.8035,-1.8697 -1.8295,-1.8851 -1.0259,-0.0153 -1.8697,0.8036 -1.8851,1.8295 z" clip-path="url(#1987830295993-clipPath1)" id="path50" ns1:connector-curvature="0" style="stroke:none" />
    </g>
    <g id="g52" style="text-rendering:geometricPrecision;fill:#000000;stroke:none">
      <path d="m 406.7787,526.7379 c 0.8961,-0.4997 1.2174,-1.6307 0.7177,-2.5269 -0.4997,-0.8962 -1.6307,-1.2175 -2.5269,-0.7178 l -74.9541,41.7924 c -0.8962,0.4997 -1.2175,1.6307 -0.7178,2.5269 0.4997,0.8962 1.6308,1.2175 2.527,0.7178 z m -16.9664,-8.263 c 0.8962,-0.4997 1.2175,-1.6308 0.7178,-2.527 -0.4997,-0.8961 -1.6308,-1.2174 -2.527,-0.7177 l -56.0979,31.2787 c -0.8963,0.4997 -1.2175,1.6307 -0.7179,2.5269 0.4997,0.8962 1.6308,1.2175 2.527,0.7178 z" clip-path="url(#1987830295993-clipPath1)" id="path54" ns1:connector-curvature="0" style="stroke:none" />
    </g>
    <g id="g56" style="text-rendering:geometricPrecision;fill:#000000;stroke:none">
      <path d="m 331.8727,565.3134 -73.6703,-44.016 c -0.8808,-0.5263 -2.021,-0.239 -2.5473,0.6419 -0.5263,0.8808 -0.239,2.021 0.6419,2.5473 l 73.6703,44.0159 c 0.8808,0.5263 2.021,0.239 2.5473,-0.6418 0.5262,-0.8809 0.2389,-2.0211 -0.6419,-2.5473 z" clip-path="url(#1987830295993-clipPath1)" id="path58" ns1:connector-curvature="0" style="stroke:none" />
    </g>
    <g id="g60" style="text-rendering:geometricPrecision;fill:#000000;stroke:none">
      <path d="m 255.3924,522.8642 c -0.0154,1.0259 0.8035,1.8697 1.8295,1.8851 1.026,0.0153 1.8697,-0.8036 1.8851,-1.8296 l 1.2838,-85.8083 c 0.0153,-1.0259 -0.8036,-1.8697 -1.8296,-1.8851 -1.0259,-0.0153 -1.8697,0.8036 -1.8851,1.8295 z m 15.6391,-10.5618 c -0.0153,1.026 0.8036,1.8697 1.8296,1.8851 1.0259,0.0153 1.8697,-0.8035 1.885,-1.8295 l 0.9609,-64.2216 c 0.0153,-1.026 -0.8036,-1.8698 -1.8296,-1.8851 -1.0259,-0.0154 -1.8697,0.8035 -1.8851,1.8295 z" clip-path="url(#1987830295993-clipPath1)" id="path62" ns1:connector-curvature="0" style="stroke:none" />
    </g>
    <g id="g64" style="text-rendering:geometricPrecision;fill:#000000;stroke:none">
      <path d="m 259.438,438.706 74.9541,-41.7924 c 0.8962,-0.4997 1.2175,-1.6307 0.7178,-2.5269 -0.4997,-0.8962 -1.6307,-1.2175 -2.527,-0.7178 l -74.954,41.7924 c -0.8962,0.4997 -1.2175,1.6307 -0.7178,2.5269 0.4997,0.8962 1.6308,1.2175 2.5269,0.7178 z" clip-path="url(#1987830295993-clipPath1)" id="path66" ns1:connector-curvature="0" style="stroke:none" />
    </g>
    <g id="g68" style="text-rendering:geometricPrecision;fill:#000000;stroke:none">
      <path d="m 335.3448,395.3191 1.2838,-85.8084 c 0.0154,-1.0259 -0.8035,-1.8697 -1.8295,-1.8851 -1.0259,-0.0153 -1.8697,0.8036 -1.8851,1.8296 l -1.2838,85.8083 c -0.0153,1.026 0.8036,1.8697 1.8295,1.8851 1.026,0.0153 1.8698,-0.8036 1.8851,-1.8295 z" clip-path="url(#1987830295993-clipPath1)" id="path70" ns1:connector-curvature="0" style="stroke:none" />
    </g>
    <g id="g72" style="text-rendering:geometricPrecision;fill:#000000;stroke:none">
      <path d="m 335.6022,307.8216 -76.7536,-38.3875 c -0.9177,-0.4589 -2.0332,-0.0872 -2.4922,0.8305 -0.459,0.9177 -0.0873,2.0332 0.8304,2.4922 l 76.7536,38.3875 c 0.9178,0.4589 2.0333,0.0872 2.4922,-0.8305 0.459,-0.9177 0.0873,-2.0332 -0.8304,-2.4922 z" clip-path="url(#1987830295993-clipPath1)" id="path74" ns1:connector-curvature="0" style="stroke:none" />
    </g>
    <g id="g76" style="fill:#333399;stroke:none;text-rendering:geometricPrecision">
      <path d="m 335.933,289.8378 c -0.9311,0.4313 -1.336,1.5352 -0.9046,2.4662 0.4313,0.931 1.5352,1.336 2.4662,0.9046 l 53.3333,-24.708 c 0.931,-0.4313 1.3359,-1.5352 0.9046,-2.4662 -0.4314,-0.931 -1.5352,-1.3359 -2.4663,-0.9046 z m -1.9425,17.9597 c -0.931,0.4313 -1.3359,1.5352 -0.9046,2.4663 0.4313,0.931 1.5352,1.3359 2.4663,0.9046 l 61.7825,-28.6224 c 0.9311,-0.4313 1.336,-1.5352 0.9046,-2.4663 -0.4313,-0.931 -1.5352,-1.3359 -2.4662,-0.9046 z" clip-path="url(#1987830295993-clipPath1)" id="path78" ns1:connector-curvature="0" style="stroke:none" />
      <path d="m 335.933,289.8378 c -0.9311,0.4313 -1.336,1.5352 -0.9046,2.4662 0.4313,0.931 1.5352,1.336 2.4662,0.9046 l 53.3333,-24.708 c 0.931,-0.4313 1.3359,-1.5352 0.9046,-2.4662 -0.4314,-0.931 -1.5352,-1.3359 -2.4663,-0.9046 z m -1.9425,17.9597 c -0.931,0.4313 -1.3359,1.5352 -0.9046,2.4663 0.4313,0.931 1.5352,1.3359 2.4663,0.9046 l 61.7825,-28.6224 c 0.9311,-0.4313 1.336,-1.5352 0.9046,-2.4663 -0.4313,-0.931 -1.5352,-1.3359 -2.4662,-0.9046 z" clip-path="url(#1987830295515-clipPath1)" id="path80" ns1:connector-curvature="0" style="fill:#000000;stroke:none" />
    </g>
    <g id="g82" style="text-rendering:geometricPrecision;fill:#000000;stroke:none">
      <path d="m 238.8153,264.1413 c 0.2134,1.0037 1.1995,1.6441 2.2031,1.4308 1.0037,-0.2134 1.6441,-1.1995 1.4308,-2.2032 l -13.354,-62.8252 c -0.2133,-1.0037 -1.1994,-1.6441 -2.2031,-1.4308 -1.0036,0.2134 -1.644,1.1995 -1.4307,2.2032 z m 17.3855,7.3404 c 0.2133,1.0036 1.1994,1.644 2.2031,1.4307 1.0037,-0.2134 1.6441,-1.1995 1.4307,-2.2031 l -17.8425,-83.9427 c -0.2134,-1.0036 -1.1995,-1.644 -2.2031,-1.4307 -1.0037,0.2134 -1.6441,1.1995 -1.4308,2.2031 z" clip-path="url(#1987830295993-clipPath1)" id="path84" ns1:connector-curvature="0" style="stroke:none" />
    </g>
    <g id="g86" style="text-rendering:geometricPrecision;fill:#000000;stroke:none">
      <path d="m 379.0184,123.2857 52.4969,67.8881 c 0.6277,0.8117 1.794,0.9608 2.6057,0.3331 0.8117,-0.6277 0.9608,-1.794 0.3331,-2.6057 l -52.4969,-67.8881 c -0.6276,-0.8117 -1.794,-0.9608 -2.6057,-0.3331 -0.8117,0.6277 -0.9608,1.794 -0.3331,2.6057 z" clip-path="url(#1987830295993-clipPath1)" id="path88" ns1:connector-curvature="0" style="stroke:none" />
    </g>
    <g id="g90" style="fill:#333399;stroke:none;text-rendering:geometricPrecision">
      <path d="m 431.1802,189.5971 -15.2743,62.5895 c -0.2432,0.9969 0.3674,2.0017 1.3642,2.245 0.9969,0.2432 2.0017,-0.3674 2.245,-1.3642 l 15.2742,-62.5895 c 0.2432,-0.9969 -0.3674,-2.0017 -1.3642,-2.245 -0.9968,-0.2432 -2.0017,0.3674 -2.2449,1.3642 z" clip-path="url(#1987830295993-clipPath1)" id="path92" ns1:connector-curvature="0" style="stroke:none" />
      <path d="m 431.1802,189.5971 -15.2743,62.5895 c -0.2432,0.9969 0.3674,2.0017 1.3642,2.245 0.9969,0.2432 2.0017,-0.3674 2.245,-1.3642 l 15.2742,-62.5895 c 0.2432,-0.9969 -0.3674,-2.0017 -1.3642,-2.245 -0.9968,-0.2432 -2.0017,0.3674 -2.2449,1.3642 z" clip-path="url(#1987830295820-clipPath1)" id="path94" ns1:connector-curvature="0" style="fill:#000000;stroke:none" />
    </g>
    <g id="g96" style="fill:#333399;stroke:none;text-rendering:geometricPrecision">
      <path d="m 241.6099,188.3326 41.5335,-50.5123 c 0.6517,-0.7925 0.5375,-1.9628 -0.2551,-2.6145 -0.7925,-0.6517 -1.9628,-0.5375 -2.6145,0.255 l -41.5334,50.5123 c -0.6517,0.7926 -0.5375,1.9628 0.255,2.6145 0.7926,0.6517 1.9629,0.5376 2.6145,-0.255 z" clip-path="url(#1987830295993-clipPath1)" id="path98" ns1:connector-curvature="0" style="stroke:none" />
      <path d="m 241.6099,188.3326 41.5335,-50.5123 c 0.6517,-0.7925 0.5375,-1.9628 -0.2551,-2.6145 -0.7925,-0.6517 -1.9628,-0.5375 -2.6145,0.255 l -41.5334,50.5123 c -0.6517,0.7926 -0.5375,1.9628 0.255,2.6145 0.7926,0.6517 1.9629,0.5376 2.6145,-0.255 z" clip-path="url(#1987830295455-clipPath1)" id="path100" ns1:connector-curvature="0" style="fill:#000000;stroke:none" />
    </g>
    <g id="g102" style="text-rendering:geometricPrecision;fill:#000000;stroke:none">
      <path d="m 310.6712,122.9626 69.7888,1.0441 c 1.026,0.0154 1.8698,-0.8035 1.8851,-1.8295 0.0154,-1.026 -0.8035,-1.8697 -1.8295,-1.8851 l -69.7888,-1.0441 c -1.026,-0.0154 -1.8698,0.8035 -1.8851,1.8295 -0.0154,1.026 0.8035,1.8698 1.8295,1.8851 z" clip-path="url(#1987830295993-clipPath1)" id="path104" ns1:connector-curvature="0" style="stroke:none" />
      <path d="m 310.6712,122.9626 69.7888,1.0441 c 1.026,0.0154 1.8698,-0.8035 1.8851,-1.8295 0.0154,-1.026 -0.8035,-1.8697 -1.8295,-1.8851 l -69.7888,-1.0441 c -1.026,-0.0154 -1.8698,0.8035 -1.8851,1.8295 -0.0154,1.026 0.8035,1.8698 1.8295,1.8851 z" clip-path="url(#1987830295913-clipPath1)" id="path106" ns1:connector-curvature="0" style="fill:#333399;stroke:none" />
    </g>
    <g id="g108" style="text-rendering:geometricPrecision;fill:#000000;stroke:none">
      <path d="m 162.1362,180.7405 c 0.7625,-0.6866 0.8241,-1.8608 0.1375,-2.6234 -0.6866,-0.7625 -1.8608,-0.824 -2.6233,-0.1374 l -47.7313,42.9774 c -0.7626,0.6866 -0.8241,1.8608 -0.1375,2.6234 0.6865,0.7625 1.8608,0.824 2.6233,0.1374 z m -2.3358,-18.7264 c 0.7625,-0.6866 0.824,-1.8608 0.1375,-2.6234 -0.6866,-0.7625 -1.8608,-0.824 -2.6234,-0.1374 l -63.7751,57.4234 c -0.7625,0.6865 -0.8241,1.8608 -0.1375,2.6233 0.6866,0.7625 1.8608,0.824 2.6233,0.1375 z" clip-path="url(#1987830295993-clipPath1)" id="path110" ns1:connector-curvature="0" style="stroke:none" />
    </g>
    <g id="g112" style="text-rendering:geometricPrecision;fill:#000000;stroke:none">
      <path d="m 92.9654,218.4433 17.8425,83.9426 c 0.2134,1.0036 1.1995,1.644 2.2032,1.4307 1.0036,-0.2134 1.644,-1.1995 1.4307,-2.2031 L 96.5992,217.6709 c -0.2133,-1.0037 -1.1994,-1.6441 -2.2031,-1.4308 -1.0037,0.2134 -1.644,1.1995 -1.4307,2.2032 z" clip-path="url(#1987830295993-clipPath1)" id="path114" ns1:connector-curvature="0" style="stroke:none" />
    </g>
    <g id="g116" style="text-rendering:geometricPrecision;fill:#000000;stroke:none">
      <path d="m 128.2485,288.847 c -0.9759,-0.3171 -2.0235,0.2167 -2.3406,1.1926 -0.3171,0.9758 0.2167,2.0235 1.1926,2.3406 l 61.0852,19.8478 c 0.9759,0.317 2.0236,-0.2168 2.3406,-1.1926 0.3171,-0.9759 -0.2167,-2.0236 -1.1926,-2.3406 z m -15.0496,11.3861 c -0.9759,-0.3171 -2.0236,0.2167 -2.3406,1.1926 -0.3171,0.9758 0.2167,2.0235 1.1926,2.3406 l 81.6177,26.5192 c 0.9758,0.317 2.0235,-0.2168 2.3406,-1.1926 0.317,-0.9759 -0.2168,-2.0236 -1.1926,-2.3406 z" clip-path="url(#1987830295993-clipPath1)" id="path118" ns1:connector-curvature="0" style="stroke:none" />
    </g>
    <g id="g120" style="text-rendering:geometricPrecision;fill:#000000;stroke:none">
      <path d="m 195.4855,329.8993 63.7751,-57.4234 c 0.7626,-0.6866 0.8241,-1.8608 0.1375,-2.6234 -0.6866,-0.7625 -1.8608,-0.824 -2.6233,-0.1374 l -63.7752,57.4234 c -0.7625,0.6865 -0.824,1.8608 -0.1374,2.6233 0.6865,0.7625 1.8607,0.824 2.6233,0.1375 z" clip-path="url(#1987830295993-clipPath1)" id="path122" ns1:connector-curvature="0" style="stroke:none" />
    </g>
    <g id="g124" style="text-rendering:geometricPrecision;fill:#000000;stroke:none">
      <path d="m 240.7492,185.3863 -81.6177,-26.5192 c -0.9759,-0.3171 -2.0236,0.2167 -2.3406,1.1925 -0.3171,0.9759 0.2167,2.0236 1.1926,2.3407 l 81.6177,26.5191 c 0.9758,0.3171 2.0235,-0.2167 2.3406,-1.1925 0.317,-0.9759 -0.2168,-2.0236 -1.1926,-2.3406 z" clip-path="url(#1987830295993-clipPath1)" id="path126" ns1:connector-curvature="0" style="stroke:none" />
    </g>
    <g id="g128" style="fill:#ff0000;stroke:none;text-rendering:geometricPrecision">
      <path d="m 370.237,121.19 c -0.459,0.9177 -0.0873,2.0332 0.8304,2.4922 0.9178,0.459 2.0333,0.0873 2.4923,-0.8304 l 29.9854,-59.9542 c 0.459,-0.9177 0.0873,-2.0332 -0.8304,-2.4922 -0.9177,-0.459 -2.0332,-0.0873 -2.4922,0.8304 z m 13.8445,6.9242 c -0.459,0.9177 -0.0873,2.0332 0.8304,2.4922 0.9177,0.459 2.0332,0.0872 2.4922,-0.8305 l 29.9854,-59.9542 c 0.459,-0.9177 0.0873,-2.0332 -0.8304,-2.4922 -0.9177,-0.4589 -2.0332,-0.0872 -2.4922,0.8305 z" clip-path="url(#1987830295993-clipPath1)" id="path130" ns1:connector-curvature="0" style="stroke:none" />
      <path d="m 370.237,121.19 c -0.459,0.9177 -0.0873,2.0332 0.8304,2.4922 0.9178,0.459 2.0333,0.0873 2.4923,-0.8304 l 29.9854,-59.9542 c 0.459,-0.9177 0.0873,-2.0332 -0.8304,-2.4922 -0.9177,-0.459 -2.0332,-0.0873 -2.4922,0.8304 z m 13.8445,6.9242 c -0.459,0.9177 -0.0873,2.0332 0.8304,2.4922 0.9177,0.459 2.0332,0.0872 2.4922,-0.8305 l 29.9854,-59.9542 c 0.459,-0.9177 0.0873,-2.0332 -0.8304,-2.4922 -0.9177,-0.4589 -2.0332,-0.0872 -2.4922,0.8305 z" clip-path="url(#1987830295104-clipPath1)" id="path132" ns1:connector-curvature="0" style="fill:#000000;stroke:none" />
    </g>
    <g id="g134" style="fill:#009900;stroke:none;text-rendering:geometricPrecision">
      <path d="m 111.3819,300.6193 -46.296,41.6851 c -0.7625,0.6865 -0.824,1.8608 -0.1374,2.6233 0.6865,0.7625 1.8607,0.824 2.6233,0.1375 l 46.296,-41.6851 c 0.7625,-0.6866 0.824,-1.8608 0.1375,-2.6234 -0.6866,-0.7625 -1.8608,-0.824 -2.6234,-0.1374 z" clip-path="url(#1987830295993-clipPath1)" id="path136" ns1:connector-curvature="0" style="stroke:none" />
      <path d="m 111.3819,300.6193 -46.296,41.6851 c -0.7625,0.6865 -0.824,1.8608 -0.1374,2.6233 0.6865,0.7625 1.8607,0.824 2.6233,0.1375 l 46.296,-41.6851 c 0.7625,-0.6866 0.824,-1.8608 0.1375,-2.6234 -0.6866,-0.7625 -1.8608,-0.824 -2.6234,-0.1374 z" clip-path="url(#1987830295154-clipPath1)" id="path138" ns1:connector-curvature="0" style="fill:#000000;stroke:none" />
    </g>
    <g id="g140" style="text-rendering:geometricPrecision;fill:#000000;stroke:none">
      <path d="M 287.5472,101.0515 263.414,48.9589 c -0.4313,-0.931 -1.5352,-1.3359 -2.4662,-0.9046 -0.9311,0.4313 -1.336,1.5352 -0.9046,2.4662 l 24.1332,52.0926 c 0.4313,0.931 1.5352,1.336 2.4662,0.9046 0.931,-0.4313 1.3359,-1.5352 0.9046,-2.4662 z" clip-path="url(#1987830295993-clipPath1)" id="path142" ns1:connector-curvature="0" style="stroke:none" />
      <path d="M 287.5472,101.0515 263.414,48.9589 c -0.4313,-0.931 -1.5352,-1.3359 -2.4662,-0.9046 -0.9311,0.4313 -1.336,1.5352 -0.9046,2.4662 l 24.1332,52.0926 c 0.4313,0.931 1.5352,1.336 2.4662,0.9046 0.931,-0.4313 1.3359,-1.5352 0.9046,-2.4662 z" clip-path="url(#1987830295206-clipPath1)" id="path144" ns1:connector-curvature="0" style="fill:#333399;stroke:none" />
    </g>
    <g id="g146" style="fill:#ffffff;stroke:none;text-rendering:geometricPrecision">
      </g>
    <g font-size="30px" transform="translate(401.5765,255.4088)" id="g150" style="font-size:30px;font-family:sans-serif;fill:#333399;stroke:none;text-rendering:geometricPrecision">
      <text x="0" xml:space="preserve" y="29" clip-path="url(#1987830295683-clipPath1)" id="text152" style="stroke:none">N</text>
    </g>
    <g font-size="30px" id="g154" style="font-size:30px;font-family:sans-serif;fill:#ffffff;stroke:none;text-rendering:geometricPrecision">
      <text x="0" y="29" transform="translate(283.617,102.8656)" clip-path="url(#1987830295405-clipPath1)" xml:space="preserve" id="text158" style="fill:#333399;stroke:none">N</text>
    </g>
    <g font-size="30px" id="g160" style="font-size:30px;font-family:sans-serif;fill:#ffffff;stroke:none;text-rendering:geometricPrecision">
      <text x="0" y="29" transform="translate(407.3987,27.3958)" clip-path="url(#1987830295603-clipPath1)" xml:space="preserve" id="text164" style="fill:#ff0000;stroke:none">O</text>
    </g>
    <g font-size="30px" id="g166" style="font-size:30px;font-family:sans-serif;fill:#ffffff;stroke:none;text-rendering:geometricPrecision">
      <text x="0" y="29" transform="translate(33.6544,341.4231)" clip-path="url(#1987830295965-clipPath1)" xml:space="preserve" id="text170" style="fill:#009900;stroke:none">Cl</text>
    </g>
  </g>
</svg>