<?xml version='1.0' encoding='utf-8'?>
<svg xmlns="http://www.w3.org/2000/svg" xmlns:dc="http://purl.org/dc/elements/1.1/" xmlns:ns1="http://www.inkscape.org/namespaces/inkscape" xmlns:ns2="http://sodipodi.sourceforge.net/DTD/sodipodi-0.dtd" xmlns:ns4="http://creativecommons.org/ns#" xmlns:rdf="http://www.w3.org/1999/02/22-rdf-syntax-ns#" width="632.86566" stroke-miterlimit="10" font-weight="normal" height="468.20288" font-style="normal" font-size="12px" id="svg2" version="1.1" ns1:version="0.91 r13725" ns2:docname="Diphenhydramine.svg" style="font-style:normal;font-weight:normal;font-size:12px;font-family:Dialog;color-interpolation:auto;fill:#000000;fill-opacity:1;stroke:none;stroke:none;stroke:none;stroke:none;stroke:none;stroke:none;stroke:none;stroke:none;color-rendering:auto;image-rendering:auto;shape-rendering:auto;text-rendering:auto">
  <metadata id="metadata138">
    <rdf:RDF>
      <ns4:Work rdf:about="">
        <dc:format>image/svg+xml</dc:format>
        <dc:type rdf:resource="http://purl.org/dc/dcmitype/StillImage" />
        <dc:title />
      </ns4:Work>
    </rdf:RDF>
  </metadata>
  <ns2:namedview pagecolor="#ffffff" bordercolor="#666666" borderopacity="1" objecttolerance="10" gridtolerance="10" guidetolerance="10" ns1:pageopacity="0" ns1:pageshadow="2" ns1:window-width="1060" ns1:window-height="480" id="namedview136" showgrid="false" fit-margin-top="10" fit-margin-left="10" fit-margin-right="10" fit-margin-bottom="10" ns1:zoom="0.36375" ns1:cx="316.43284" ns1:cy="190.53467" ns1:window-x="0" ns1:window-y="0" ns1:window-maximized="0" ns1:current-layer="svg2" />
  
  <defs id="genericDefs" />
  <g id="g5" transform="translate(-83.567156,-22.331785)" style="fill:#000000;stroke:none">
    <defs id="1397765146309-defs1">
      <clipPath clipPathUnits="userSpaceOnUse" id="1397765146599-clipPath1">
        <path d="M 0,0 800,0 800,600 0,600 0,0 Z" id="path9" ns1:connector-curvature="0" style="stroke:none" />
      </clipPath>
      <clipPath clipPathUnits="userSpaceOnUse" id="1397765146575-clipPath1">
        <path d="m 326.3683,178.0986 c -18.7234,0 -33.9017,15.1783 -33.9017,33.9017 0,18.7234 15.1783,33.9016 33.9017,33.9016 18.7233,0 33.9016,-15.1782 33.9016,-33.9016 0,-18.7234 -15.1783,-33.9017 -33.9016,-33.9017 z" id="path12" ns1:connector-curvature="0" style="stroke:none" />
      </clipPath>
      <clipPath clipPathUnits="userSpaceOnUse" id="1397765146428-clipPath1">
        <path d="m 421.5706,144.1979 c -18.7233,0 -33.9016,15.1782 -33.9016,33.9016 0,18.7233 15.1783,33.9016 33.9016,33.9016 18.7234,0 33.9017,-15.1783 33.9017,-33.9016 0,-18.7234 -15.1783,-33.9016 -33.9017,-33.9016 z" id="path15" ns1:connector-curvature="0" style="stroke:none" />
      </clipPath>
      <clipPath clipPathUnits="userSpaceOnUse" id="1397765146608-clipPath1">
        <path d="m 557.2507,132.621 c -19.3012,0 -34.948,15.6467 -34.948,34.948 0,19.3013 15.6468,34.9481 34.948,34.9481 19.3014,0 34.9482,-15.6468 34.9482,-34.9481 0,-19.3013 -15.6468,-34.948 -34.9482,-34.948 z" id="path18" ns1:connector-curvature="0" style="stroke:none" />
      </clipPath>
      <clipPath clipPathUnits="userSpaceOnUse" id="1397765146843-clipPath1">
        <path d="m 634.2109,204.6374 c -16.2995,0 -29.5127,13.2133 -29.5127,29.5127 0,16.2994 13.2132,29.5127 29.5127,29.5127 16.2994,0 29.5127,-13.2133 29.5127,-29.5127 0,-16.2994 -13.2133,-29.5127 -29.5127,-29.5127 z" id="path21" ns1:connector-curvature="0" style="stroke:none" />
      </clipPath>
      <clipPath clipPathUnits="userSpaceOnUse" id="1397765146214-clipPath1">
        <path d="m 650.64,171.4169 c -17.1767,0 -31.1012,13.9244 -31.1012,31.1011 0,17.1766 13.9245,31.1011 31.1012,31.1011 17.1766,0 31.1011,-13.9245 31.1011,-31.1011 0,-17.1767 -13.9245,-31.1011 -31.1011,-31.1011 z" id="path24" ns1:connector-curvature="0" style="stroke:none" />
      </clipPath>
      <clipPath clipPathUnits="userSpaceOnUse" id="1397765146442-clipPath1">
        <path d="m -391.5168,-149.0677 800,0 0,600 -800,0 0,-600 z" id="path27" ns1:connector-curvature="0" style="stroke:none" />
      </clipPath>
      <clipPath clipPathUnits="userSpaceOnUse" id="1397765146870-clipPath1">
        <path d="m -622.8751,-193.503 800,0 0,600 -800,0 0,-600 z" id="path30" ns1:connector-curvature="0" style="stroke:none" />
      </clipPath>
    </defs>
    <g id="g32" style="text-rendering:geometricPrecision;fill:#000000;stroke:none">
      <path d="m 171.7408,55.3925 c 0.9201,-0.5313 1.2352,-1.7074 0.7039,-2.6276 -0.5313,-0.9202 -1.7074,-1.2352 -2.6276,-0.7039 l -57.5928,33.2545 c -0.9201,0.5313 -1.2352,1.7074 -0.7039,2.6276 0.5313,0.9201 1.7074,1.2352 2.6276,0.7039 z m 1.6651,-19.471 c 0.9202,-0.5313 1.2353,-1.7075 0.704,-2.6276 -0.5313,-0.9202 -1.7074,-1.2353 -2.6276,-0.7039 L 94.5292,77.0232 c -0.9201,0.5313 -1.2352,1.7075 -0.7039,2.6276 0.5313,0.9202 1.7074,1.2353 2.6276,0.704 z" clip-path="url(#1397765146599-clipPath1)" id="path34" ns1:connector-curvature="0" style="stroke:none" />
    </g>
    <g id="g36" style="text-rendering:geometricPrecision;fill:#000000;stroke:none">
      <path d="m 93.5676,78.689 0,88.8773 c 0,1.0626 0.8609,1.9235 1.9235,1.9235 1.0625,0 1.9235,-0.8609 1.9235,-1.9235 l 0,-88.8773 c 0,-1.0625 -0.861,-1.9235 -1.9235,-1.9235 -1.0626,0 -1.9235,0.861 -1.9235,1.9235 z" clip-path="url(#1397765146599-clipPath1)" id="path38" ns1:connector-curvature="0" style="stroke:none" />
    </g>
    <g id="g40" style="text-rendering:geometricPrecision;fill:#000000;stroke:none">
      <path d="m 114.148,157.6083 c -0.9202,-0.5313 -2.0963,-0.2162 -2.6276,0.704 -0.5313,0.9201 -0.2162,2.0962 0.7039,2.6275 l 57.5928,33.2546 c 0.9202,0.5313 2.0963,0.2162 2.6276,-0.704 0.5313,-0.9201 0.2162,-2.0963 -0.7039,-2.6276 z m -17.6951,8.2923 c -0.9202,-0.5313 -2.0963,-0.2163 -2.6276,0.7039 -0.5313,0.9202 -0.2162,2.0963 0.7039,2.6276 l 76.9531,44.4333 c 0.9202,0.5313 2.0963,0.2162 2.6276,-0.704 0.5313,-0.9201 0.2162,-2.0962 -0.704,-2.6276 z" clip-path="url(#1397765146599-clipPath1)" id="path42" ns1:connector-curvature="0" style="stroke:none" />
    </g>
    <g id="g44" style="text-rendering:geometricPrecision;fill:#000000;stroke:none">
      <path d="m 173.4059,213.6654 76.9638,-44.4333 c 0.9202,-0.5312 1.2353,-1.7073 0.7041,-2.6275 -0.5313,-0.9202 -1.7074,-1.2353 -2.6276,-0.7041 l -76.9638,44.4333 c -0.9202,0.5312 -1.2353,1.7073 -0.7041,2.6275 0.5313,0.9202 1.7074,1.2354 2.6276,0.7041 z" clip-path="url(#1397765146599-clipPath1)" id="path46" ns1:connector-curvature="0" style="stroke:none" />
    </g>
    <g id="g48" style="text-rendering:geometricPrecision;fill:#000000;stroke:none">
      <path d="m 231.4552,156.3881 c 0,1.0625 0.8609,1.9235 1.9234,1.9235 1.0626,0 1.9236,-0.861 1.9236,-1.9235 l 0,-66.5209 c 0,-1.0625 -0.861,-1.9235 -1.9236,-1.9235 -1.0625,0 -1.9234,0.861 -1.9234,1.9235 z m 16.0293,11.1782 c 0,1.0626 0.8609,1.9235 1.9235,1.9235 1.0625,0 1.9235,-0.8609 1.9235,-1.9235 l 0,-88.8773 c 0,-1.0625 -0.861,-1.9235 -1.9235,-1.9235 -1.0626,0 -1.9235,0.861 -1.9235,1.9235 z" clip-path="url(#1397765146599-clipPath1)" id="path50" ns1:connector-curvature="0" style="stroke:none" />
    </g>
    <g id="g52" style="text-rendering:geometricPrecision;fill:#000000;stroke:none">
      <path d="M 250.3697,77.0232 173.4059,32.5899 c -0.9202,-0.5313 -2.0963,-0.2161 -2.6276,0.7041 -0.5312,0.9202 -0.2161,2.0963 0.7041,2.6275 l 76.9638,44.4333 c 0.9202,0.5313 2.0963,0.2161 2.6276,-0.7041 0.5312,-0.9202 0.2161,-2.0963 -0.7041,-2.6275 z" clip-path="url(#1397765146599-clipPath1)" id="path54" ns1:connector-curvature="0" style="stroke:none" />
    </g>
    <g id="g56" style="text-rendering:geometricPrecision;fill:#000000;stroke:none">
      <path d="m 326.3683,212.0003 0.9617,-1.6658 -79.8455,-57.7606 0,13.8819 -12.0222,6.9407 89.9442,40.2696 z" clip-path="url(#1397765146599-clipPath1)" id="path58" ns1:connector-curvature="0" style="stroke:none" />
    </g>
    <g id="g60" style="text-rendering:geometricPrecision;fill:#000000;stroke:none">
      <path d="m 328.4305,213.347 -0.1387,-1.3467 -1.9235,0 -1.9235,0 -0.1388,1.3467 0,0 4.1245,0 z m 1.2879,12.5029 -0.3963,-3.847 -5.9079,-1e-4 0,0 -0.3963,3.847 0,0 6.7005,1e-4 z m 1.2879,12.5028 -0.3963,-3.847 0,0 -8.4838,-1e-4 0,0 -0.3964,3.847 9.2765,1e-4 z m 1.2878,12.5029 -0.3962,-3.847 0,0 -11.0598,-1e-4 0,0 -0.3964,3.847 0,0 11.8524,1e-4 z m 1.2879,12.5028 -0.3963,-3.847 -13.6357,-10e-5 0,0 -0.3964,3.847 14.4284,1e-4 z m 1.2879,12.5029 -0.3963,-3.847 0,0 -16.2117,-2e-4 -0.3964,3.847 0,0 17.0044,2e-4 z m 1.2879,12.5028 -0.3963,-3.847 0,0 -18.7877,-2e-4 -0.3963,3.847 0,0 19.5803,2e-4 z m 2.2316,21.6649 -1.34,-13.0091 -21.3637,-2e-4 -1.3403,13.0094 12.0221,-6.9412 12.0219,6.9411 z" clip-path="url(#1397765146599-clipPath1)" id="path62" ns1:connector-curvature="0" style="stroke:none" />
    </g>
    <g id="g64" style="text-rendering:geometricPrecision;fill:#000000;stroke:none">
      <path d="m 327.0756,457.474 c -0.9201,0.5313 -1.2352,1.7074 -0.7039,2.6276 0.5314,0.9201 1.7075,1.2352 2.6277,0.7038 l 57.5917,-33.2562 c 0.9202,-0.5314 1.2352,-1.7075 0.7039,-2.6277 -0.5313,-0.9201 -1.7075,-1.2351 -2.6276,-0.7038 z m -1.6646,19.471 c -0.9202,0.5313 -1.2352,1.7075 -0.7038,2.6276 0.5313,0.9202 1.7074,1.2352 2.6275,0.7039 l 76.9518,-44.4356 c 0.9201,-0.5314 1.2351,-1.7075 0.7038,-2.6276 -0.5313,-0.9202 -1.7075,-1.2352 -2.6276,-0.7039 z" clip-path="url(#1397765146599-clipPath1)" id="path66" ns1:connector-curvature="0" style="stroke:none" />
    </g>
    <g id="g68" style="text-rendering:geometricPrecision;fill:#000000;stroke:none">
      <path d="m 405.2481,434.1751 -0.003,-88.8774 c 0,-1.0625 -0.861,-1.9234 -1.9236,-1.9234 -1.0625,0 -1.9235,0.861 -1.9234,1.9236 l 0.003,88.8773 c 0,1.0625 0.861,1.9235 1.9235,1.9234 1.0626,0 1.9235,-0.861 1.9235,-1.9235 z" clip-path="url(#1397765146599-clipPath1)" id="path70" ns1:connector-curvature="0" style="stroke:none" />
    </g>
    <g id="g72" style="text-rendering:geometricPrecision;fill:#000000;stroke:none">
      <path d="m 267.3582,356.4801 c -1e-4,-1.0625 -0.8611,-1.9234 -1.9236,-1.9234 -1.0625,0 -1.9235,0.861 -1.9235,1.9236 l 0.002,66.5209 c 0,1.0625 0.861,1.9234 1.9235,1.9234 1.0625,0 1.9235,-0.861 1.9235,-1.9236 z m -16.0297,-11.1777 c 0,-1.0625 -0.861,-1.9235 -1.9236,-1.9234 -1.0625,0 -1.9234,0.861 -1.9234,1.9235 l 0.003,88.8773 c 0,1.0626 0.861,1.9235 1.9235,1.9235 1.0626,0 1.9235,-0.861 1.9235,-1.9236 z" clip-path="url(#1397765146599-clipPath1)" id="path74" ns1:connector-curvature="0" style="stroke:none" />
    </g>
    <g id="g76" style="text-rendering:geometricPrecision;fill:#000000;stroke:none">
      <path d="m 248.446,435.8456 76.9652,44.431 c 0.9202,0.5312 2.0963,0.216 2.6275,-0.7042 0.5312,-0.9202 0.216,-2.0963 -0.7042,-2.6275 l -76.9651,-44.431 c -0.9202,-0.5312 -2.0963,-0.216 -2.6275,0.7042 -0.5313,0.9202 -0.2161,2.0963 0.7041,2.6275 z" clip-path="url(#1397765146599-clipPath1)" id="path78" ns1:connector-curvature="0" style="stroke:none" />
    </g>
    <g id="g80" style="text-rendering:geometricPrecision;fill:#000000;stroke:none">
      <path d="m 384.6653,355.2564 c 0.9202,0.5312 2.0963,0.2161 2.6275,-0.7041 0.5313,-0.9201 0.2162,-2.0962 -0.704,-2.6275 L 328.9951,318.672 c -0.9202,-0.5313 -2.0963,-0.2161 -2.6276,0.704 -0.5313,0.9202 -0.2162,2.0963 0.704,2.6276 z m 17.6948,-8.2928 c 0.9202,0.5313 2.0963,0.2161 2.6276,-0.704 0.5313,-0.9202 0.2161,-2.0963 -0.704,-2.6276 l -76.9544,-44.431 c -0.9202,-0.5312 -2.0963,-0.2161 -2.6276,0.7041 -0.5313,0.9202 -0.2162,2.0962 0.704,2.6275 z" clip-path="url(#1397765146599-clipPath1)" id="path82" ns1:connector-curvature="0" style="stroke:none" />
    </g>
    <g id="g84" style="text-rendering:geometricPrecision;fill:#000000;stroke:none">
      <path d="m 325.4057,299.201 -76.9625,44.4357 c -0.9201,0.5312 -1.2353,1.7074 -0.704,2.6275 0.5313,0.9202 1.7074,1.2353 2.6276,0.7041 l 76.9625,-44.4357 c 0.9201,-0.5313 1.2352,-1.7073 0.704,-2.6275 -0.5313,-0.9202 -1.7074,-1.2353 -2.6276,-0.7041 z" clip-path="url(#1397765146599-clipPath1)" id="path86" ns1:connector-curvature="0" style="stroke:none" />
    </g>
    <g id="g88" style="text-rendering:geometricPrecision;fill:#000000;stroke:none">
      <path d="m 481.2514,213.6674 76.9611,-44.4326 c 0.9202,-0.5312 1.2353,-1.7073 0.7041,-2.6275 -0.5313,-0.9202 -1.7074,-1.2353 -2.6276,-0.7041 l -76.9611,44.4326 c -0.9202,0.5313 -1.2353,1.7074 -0.704,2.6276 0.5312,0.9202 1.7073,1.2353 2.6275,0.704 z" clip-path="url(#1397765146599-clipPath1)" id="path90" ns1:connector-curvature="0" style="stroke:none" />
    </g>
    <g id="g92" style="fill:#ff0000;stroke:none;text-rendering:geometricPrecision">
      <path d="m 327.33,213.6661 58.7197,-33.9012 c 0.9202,-0.5312 1.2353,-1.7073 0.7041,-2.6275 -0.5313,-0.9202 -1.7074,-1.2353 -2.6276,-0.7041 l -58.7197,33.9012 c -0.9201,0.5312 -1.2353,1.7073 -0.704,2.6275 0.5312,0.9202 1.7073,1.2353 2.6275,0.7041 z" clip-path="url(#1397765146599-clipPath1)" id="path94" ns1:connector-curvature="0" style="stroke:none" />
      <path d="m 327.33,213.6661 58.7197,-33.9012 c 0.9202,-0.5312 1.2353,-1.7073 0.7041,-2.6275 -0.5313,-0.9202 -1.7074,-1.2353 -2.6276,-0.7041 l -58.7197,33.9012 c -0.9201,0.5312 -1.2353,1.7073 -0.704,2.6275 0.5312,0.9202 1.7073,1.2353 2.6275,0.7041 z" clip-path="url(#1397765146575-clipPath1)" id="path96" ns1:connector-curvature="0" style="fill:#000000;stroke:none" />
    </g>
    <g id="g98" style="text-rendering:geometricPrecision;fill:#000000;stroke:none">
      <path d="m 420.6089,179.7653 58.719,33.9021 c 0.9202,0.5313 2.0963,0.2162 2.6275,-0.704 0.5313,-0.9202 0.2162,-2.0963 -0.704,-2.6276 l -58.719,-33.9021 c -0.9202,-0.5313 -2.0963,-0.2161 -2.6276,0.704 -0.5312,0.9202 -0.2161,2.0963 0.7041,2.6276 z" clip-path="url(#1397765146599-clipPath1)" id="path100" ns1:connector-curvature="0" style="stroke:none" />
      <path d="m 420.6089,179.7653 58.719,33.9021 c 0.9202,0.5313 2.0963,0.2162 2.6275,-0.704 0.5313,-0.9202 0.2162,-2.0963 -0.704,-2.6276 l -58.719,-33.9021 c -0.9202,-0.5313 -2.0963,-0.2161 -2.6276,0.704 -0.5312,0.9202 -0.2161,2.0963 0.7041,2.6276 z" clip-path="url(#1397765146428-clipPath1)" id="path102" ns1:connector-curvature="0" style="fill:#ff0000;stroke:none" />
    </g>
    <g id="g104" style="fill:#333399;stroke:none;text-rendering:geometricPrecision">
      <path d="m 556.289,169.2348 60.5316,34.9486 c 0.9201,0.5313 2.0962,0.2162 2.6275,-0.704 0.5313,-0.9202 0.2161,-2.0963 -0.704,-2.6275 l -60.5316,-34.9487 c -0.9201,-0.5312 -2.0962,-0.2161 -2.6275,0.7041 -0.5313,0.9202 -0.2162,2.0963 0.704,2.6275 z" clip-path="url(#1397765146599-clipPath1)" id="path106" ns1:connector-curvature="0" style="stroke:none" />
      <path d="m 556.289,169.2348 60.5316,34.9486 c 0.9201,0.5313 2.0962,0.2162 2.6275,-0.704 0.5313,-0.9202 0.2161,-2.0963 -0.704,-2.6275 l -60.5316,-34.9487 c -0.9201,-0.5312 -2.0962,-0.2161 -2.6275,0.7041 -0.5313,0.9202 -0.2162,2.0963 0.704,2.6275 z" clip-path="url(#1397765146608-clipPath1)" id="path108" ns1:connector-curvature="0" style="fill:#000000;stroke:none" />
    </g>
    <g id="g110" style="text-rendering:geometricPrecision;fill:#000000;stroke:none">
      <path d="m 632.2874,234.1501 -5e-4,59.0254 c 0,1.0626 0.8609,1.9236 1.9234,1.9236 1.0626,0 1.9236,-0.861 1.9236,-1.9235 l 5e-4,-59.0255 c 0,-1.0625 -0.861,-1.9235 -1.9235,-1.9235 -1.0625,0 -1.9235,0.861 -1.9235,1.9235 z" clip-path="url(#1397765146599-clipPath1)" id="path112" ns1:connector-curvature="0" style="stroke:none" />
      <path d="m 632.2874,234.1501 -5e-4,59.0254 c 0,1.0626 0.8609,1.9236 1.9234,1.9236 1.0626,0 1.9236,-0.861 1.9236,-1.9235 l 5e-4,-59.0255 c 0,-1.0625 -0.861,-1.9235 -1.9235,-1.9235 -1.0625,0 -1.9235,0.861 -1.9235,1.9235 z" clip-path="url(#1397765146843-clipPath1)" id="path114" ns1:connector-curvature="0" style="fill:#333399;stroke:none" />
    </g>
    <g id="g116" style="text-rendering:geometricPrecision;fill:#000000;stroke:none">
      <path d="m 651.6017,204.1838 53.8689,-31.1007 c 0.9203,-0.5312 1.2354,-1.7073 0.7041,-2.6275 -0.5312,-0.9202 -1.7073,-1.2353 -2.6275,-0.7041 l -53.869,31.1007 c -0.9201,0.5312 -1.2353,1.7073 -0.7041,2.6275 0.5313,0.9202 1.7074,1.2353 2.6276,0.7041 z" clip-path="url(#1397765146599-clipPath1)" id="path118" ns1:connector-curvature="0" style="stroke:none" />
      <path d="m 651.6017,204.1838 53.8689,-31.1007 c 0.9203,-0.5312 1.2354,-1.7073 0.7041,-2.6275 -0.5312,-0.9202 -1.7073,-1.2353 -2.6275,-0.7041 l -53.869,31.1007 c -0.9201,0.5312 -1.2353,1.7073 -0.7041,2.6275 0.5313,0.9202 1.7074,1.2353 2.6276,0.7041 z" clip-path="url(#1397765146214-clipPath1)" id="path120" ns1:connector-curvature="0" style="fill:#333399;stroke:none" />
    </g>
    <g id="g122" style="fill:#ffffff;stroke:none;text-rendering:geometricPrecision">
      </g>
    <g font-size="31px" transform="translate(391.5169,149.0677)" id="g126" style="font-size:31px;font-family:sans-serif;fill:#ff0000;stroke:none;text-rendering:geometricPrecision">
      <text x="0" xml:space="preserve" y="30" clip-path="url(#1397765146442-clipPath1)" id="text128" style="stroke:none">O</text>
    </g>
    <g font-size="31px" id="g130" style="font-size:31px;font-family:sans-serif;fill:#ffffff;stroke:none;text-rendering:geometricPrecision">
      <text x="0" y="30" transform="translate(622.8751,193.503)" clip-path="url(#1397765146870-clipPath1)" xml:space="preserve" id="text134" style="fill:#333399;stroke:none">N</text>
    </g>
  </g>
</svg>