<?xml version='1.0' encoding='utf-8'?>
<svg xmlns="http://www.w3.org/2000/svg" xmlns:dc="http://purl.org/dc/elements/1.1/" xmlns:ns1="http://sodipodi.sourceforge.net/DTD/sodipodi-0.dtd" xmlns:ns2="http://www.inkscape.org/namespaces/inkscape" xmlns:ns4="http://creativecommons.org/ns#" xmlns:rdf="http://www.w3.org/1999/02/22-rdf-syntax-ns#" width="429.42444" stroke-miterlimit="10" font-weight="normal" height="561.05127" font-style="normal" font-size="12px" version="1.1" id="svg177" ns1:docname="Ephedrine (Racemate).svg" style="font-style:normal;font-weight:normal;font-size:12px;font-family:Dialog;color-interpolation:auto;fill:#f0abfc;fill-opacity:1;stroke:none;stroke:none;stroke:none;stroke:none;stroke:none;stroke:none;stroke:none;stroke:none;color-rendering:auto;image-rendering:auto;shape-rendering:auto;text-rendering:auto" ns2:version="0.92.2 (5c3e80d, 2017-08-06)">
  <metadata id="metadata181">
    <rdf:RDF>
      <ns4:Work rdf:about="">
        <dc:format>image/svg+xml</dc:format>
        <dc:type rdf:resource="http://purl.org/dc/dcmitype/StillImage" />
        <dc:title />
      </ns4:Work>
    </rdf:RDF>
  </metadata>
  <ns1:namedview pagecolor="#eef2ff" bordercolor="#666666" borderopacity="1" objecttolerance="10" gridtolerance="10" guidetolerance="10" ns2:pageopacity="0" ns2:pageshadow="2" ns2:window-width="1366" ns2:window-height="745" id="namedview179" showgrid="false" fit-margin-top="10" fit-margin-left="10" fit-margin-right="10" fit-margin-bottom="10" ns2:zoom="0.375" ns2:cx="293.06136" ns2:cy="281.28231" ns2:window-x="-8" ns2:window-y="-8" ns2:window-maximized="1" ns2:current-layer="svg177" />
  
  <defs id="genericDefs" />
  <g id="g175" transform="translate(-106.93864,-20.23105)" style="fill:#f0abfc;stroke:none">
    <defs id="1052307907993-defs1">
      <clipPath clipPathUnits="userSpaceOnUse" id="1052307907890-clipPath1">
        <path d="M 0,0 H 800 V 600 H 0 Z" id="path3" ns2:connector-curvature="0" style="stroke:none" />
      </clipPath>
      <clipPath clipPathUnits="userSpaceOnUse" id="1052307907304-clipPath1">
        <path d="m 391.9616,128.7708 c -17.1713,0 -31.0915,13.9201 -31.0915,31.0914 0,17.1714 13.9202,31.0915 31.0915,31.0915 17.1713,0 31.0915,-13.9201 31.0915,-31.0915 0,-17.1713 -13.9202,-31.0914 -31.0915,-31.0914 z" id="path6" ns2:connector-curvature="0" style="stroke:none" />
      </clipPath>
      <clipPath clipPathUnits="userSpaceOnUse" id="1052307907566-clipPath1">
        <path d="m 323.6315,91.0919 c -16.1934,0 -29.3207,13.1274 -29.3207,29.3207 0,16.1934 13.1273,29.3207 29.3207,29.3207 16.1934,0 29.3207,-13.1273 29.3207,-29.3207 0,-16.1933 -13.1273,-29.3207 -29.3207,-29.3207 z" id="path9" ns2:connector-curvature="0" style="stroke:none" />
      </clipPath>
      <clipPath clipPathUnits="userSpaceOnUse" id="1052307907206-clipPath1">
        <path d="m 474.7687,101.0941 c -15.285,0 -27.6759,12.3909 -27.6759,27.6759 0,15.285 12.3909,27.6759 27.6759,27.6759 15.285,0 27.6759,-12.3909 27.6759,-27.6759 0,-15.285 -12.3909,-27.6759 -27.6759,-27.6759 z" id="path12" ns2:connector-curvature="0" style="stroke:none" />
      </clipPath>
      <clipPath clipPathUnits="userSpaceOnUse" id="1052307907794-clipPath1">
        <path d="m 393.9093,420.1214 c -17.172,0 -31.0927,13.9207 -31.0927,31.0927 0,17.1721 13.9207,31.0928 31.0927,31.0928 17.1721,0 31.0927,-13.9207 31.0927,-31.0928 0,-17.172 -13.9206,-31.0927 -31.0927,-31.0927 z" id="path15" ns2:connector-curvature="0" style="stroke:none" />
      </clipPath>
      <clipPath clipPathUnits="userSpaceOnUse" id="1052307907737-clipPath1">
        <path d="m 325.5768,382.4432 c -16.1934,0 -29.3207,13.1274 -29.3207,29.3207 0,16.1935 13.1273,29.3208 29.3207,29.3208 16.1934,0 29.3208,-13.1273 29.3208,-29.3208 0,-16.1933 -13.1274,-29.3207 -29.3208,-29.3207 z" id="path18" ns2:connector-curvature="0" style="stroke:none" />
      </clipPath>
      <clipPath clipPathUnits="userSpaceOnUse" id="1052307907183-clipPath1">
        <path d="m 476.7194,392.4471 c -15.285,0 -27.6759,12.3909 -27.6759,27.6758 0,15.285 12.3909,27.6759 27.6759,27.6759 15.285,0 27.6759,-12.3909 27.6759,-27.6759 0,-15.2849 -12.3909,-27.6758 -27.6759,-27.6758 z" id="path21" ns2:connector-curvature="0" style="stroke:none" />
      </clipPath>
      <clipPath clipPathUnits="userSpaceOnUse" id="1052307907301-clipPath1">
        <path d="m -312.1855,-25.0123 h 800 v 600 h -800 z" id="path24" ns2:connector-curvature="0" style="stroke:none" />
      </clipPath>
      <clipPath clipPathUnits="userSpaceOnUse" id="1052307907812-clipPath1">
        <path d="m -450.0644,-75.7327 h 800 v 600 h -800 z" id="path27" ns2:connector-curvature="0" style="stroke:none" />
      </clipPath>
      <clipPath clipPathUnits="userSpaceOnUse" id="1052307907873-clipPath1">
        <path d="m -449.5644,-103.9114 h 800 v 600 h -800 z" id="path30" ns2:connector-curvature="0" style="stroke:none" />
      </clipPath>
      <clipPath clipPathUnits="userSpaceOnUse" id="1052307907179-clipPath1">
        <path d="m -314.1315,-316.3636 h 800 v 600 h -800 z" id="path33" ns2:connector-curvature="0" style="stroke:none" />
      </clipPath>
      <clipPath clipPathUnits="userSpaceOnUse" id="1052307907572-clipPath1">
        <path d="m -452.0153,-367.0853 h 800 v 600 h -800 z" id="path36" ns2:connector-curvature="0" style="stroke:none" />
      </clipPath>
      <clipPath clipPathUnits="userSpaceOnUse" id="105230790782-clipPath1">
        <path d="m -451.5153,-395.2639 h 800 V 204.736 h -800 z" id="path39" ns2:connector-curvature="0" style="stroke:none" />
      </clipPath>
    </defs>
    <g id="g45" style="text-rendering:geometricPrecision;fill:#f0abfc;stroke:none">
      <path d="m 186.3452,139.1796 c 0.8168,-0.4717 1.0966,-1.5161 0.6249,-2.3329 -0.4716,-0.8168 -1.5161,-1.0967 -2.3329,-0.625 l -51.1338,29.5251 c -0.8168,0.4716 -1.0967,1.5161 -0.625,2.3329 0.4716,0.8168 1.5161,1.0966 2.3329,0.625 z m 1.4784,-17.2874 c 0.8168,-0.4716 1.0966,-1.5161 0.625,-2.3329 -0.4716,-0.8168 -1.5161,-1.0966 -2.3329,-0.625 l -68.323,39.4502 c -0.8167,0.4716 -1.0966,1.5161 -0.6249,2.3329 0.4716,0.8168 1.5161,1.0966 2.3329,0.625 z" clip-path="url(#1052307907890-clipPath1)" id="path43" ns2:connector-curvature="0" style="stroke:none" />
    </g>
    <g id="g49" style="text-rendering:geometricPrecision;fill:#f0abfc;stroke:none">
      <path d="m 120.3545,159.8634 v 0 78.91 c 0,0.9431 -0.7646,1.7077 -1.7078,1.7077 -0.9432,0 -1.7078,-0.7646 -1.7078,-1.7077 v 0 -78.91 c 0,-0.9432 0.7646,-1.7078 1.7078,-1.7078 0.9432,0 1.7078,0.7646 1.7078,1.7078 z" clip-path="url(#1052307907890-clipPath1)" id="path47" ns2:connector-curvature="0" style="stroke:none" />
    </g>
    <g id="g53" style="text-rendering:geometricPrecision;fill:#f0abfc;stroke:none">
      <path d="m 135.2113,229.9321 c -0.8168,-0.4716 -1.8613,-0.1918 -2.3329,0.625 -0.4717,0.8168 -0.1918,1.8613 0.625,2.3329 l 51.1338,29.5251 c 0.8168,0.4716 1.8613,0.1918 2.3329,-0.625 0.4717,-0.8168 0.1919,-1.8612 -0.6249,-2.3329 z m -15.7106,7.3623 c -0.8168,-0.4716 -1.8613,-0.1918 -2.3329,0.625 -0.4717,0.8168 -0.1918,1.8613 0.6249,2.3329 l 68.323,39.4502 c 0.8168,0.4716 1.8613,0.1918 2.3329,-0.625 0.4716,-0.8168 0.1918,-1.8613 -0.625,-2.3329 z" clip-path="url(#1052307907890-clipPath1)" id="path51" ns2:connector-curvature="0" style="stroke:none" />
    </g>
    <g id="g57" style="text-rendering:geometricPrecision;fill:#f0abfc;stroke:none">
      <path d="m 186.1158,276.7445 v 0 l 68.3325,-39.4501 c 0.8168,-0.4716 1.8613,-0.1917 2.3329,0.6251 0.4715,0.8168 0.1916,1.8613 -0.6252,2.3329 v 0 l -68.3325,39.4501 c -0.8168,0.4716 -1.8613,0.1917 -2.3329,-0.6251 -0.4715,-0.8168 -0.1916,-1.8613 0.6252,-2.3329 z" clip-path="url(#1052307907890-clipPath1)" id="path55" ns2:connector-curvature="0" style="stroke:none" />
    </g>
    <g id="g61" style="text-rendering:geometricPrecision;fill:#f0abfc;stroke:none">
      <path d="m 239.3627,228.8488 c 0,0.9431 0.7646,1.7077 1.7078,1.7077 0.9432,0 1.7078,-0.7646 1.7078,-1.7077 V 169.788 c 0,-0.9432 -0.7646,-1.7078 -1.7078,-1.7078 -0.9432,0 -1.7078,0.7646 -1.7078,1.7078 z m 14.2317,9.9246 c 0,0.9431 0.7646,1.7077 1.7077,1.7077 0.9432,0 1.7078,-0.7646 1.7078,-1.7077 v -78.91 c 0,-0.9432 -0.7646,-1.7078 -1.7078,-1.7078 -0.9431,0 -1.7077,0.7646 -1.7077,1.7078 z" clip-path="url(#1052307907890-clipPath1)" id="path59" ns2:connector-curvature="0" style="stroke:none" />
    </g>
    <g id="g65" style="text-rendering:geometricPrecision;fill:#f0abfc;stroke:none">
      <path d="m 254.4483,161.3424 v 0 l -68.3325,-39.4502 c -0.8168,-0.4715 -1.0967,-1.516 -0.6252,-2.3328 0.4716,-0.8169 1.5161,-1.0967 2.3329,-0.6252 v 0 l 68.3325,39.4502 c 0.8168,0.4716 1.0967,1.5161 0.6252,2.3329 -0.4716,0.8168 -1.5161,1.0967 -2.3329,0.6251 z" clip-path="url(#1052307907890-clipPath1)" id="path63" ns2:connector-curvature="0" style="stroke:none" />
    </g>
    <g id="g69" style="text-rendering:geometricPrecision;fill:#f0abfc;stroke:none">
      <path d="m 254.4482,158.3844 v 0 l 68.3294,-39.4507 c 0.8168,-0.4716 1.8613,-0.1918 2.3329,0.625 0.4716,0.8168 0.1917,1.8613 -0.6251,2.3329 v 0 l -68.3294,39.4508 c -0.8168,0.4716 -1.8612,0.1917 -2.3328,-0.6251 -0.4716,-0.8168 -0.1918,-1.8613 0.625,-2.3329 z" clip-path="url(#1052307907890-clipPath1)" id="path67" ns2:connector-curvature="0" style="stroke:none" />
    </g>
    <g id="g73" style="text-rendering:geometricPrecision;fill:#f0abfc;stroke:none">
      <path d="m 324.4854,118.9336 v 0 l 68.3301,39.4496 c 0.8168,0.4716 1.0967,1.5161 0.6251,2.3329 -0.4716,0.8168 -1.5161,1.0967 -2.3329,0.6251 v 0 l -68.3301,-39.4496 c -0.8168,-0.4716 -1.0967,-1.516 -0.6251,-2.3328 0.4716,-0.8169 1.5161,-1.0967 2.3329,-0.6252 z" clip-path="url(#1052307907890-clipPath1)" id="path71" ns2:connector-curvature="0" style="stroke:none" />
    </g>
    <g id="g79" style="fill:#c4b5fd;stroke:none;text-rendering:geometricPrecision">
      <path d="m 391.1077,158.3833 v 0 l 53.8517,-31.092 c 0.8168,-0.4716 1.8613,-0.1918 2.3329,0.6251 0.4716,0.8168 0.1918,1.8612 -0.6251,2.3329 v 0 l -53.8517,31.0919 c -0.8168,0.4716 -1.8613,0.1917 -2.3329,-0.6251 -0.4716,-0.8168 -0.1917,-1.8613 0.6251,-2.3328 z" clip-path="url(#1052307907890-clipPath1)" id="path75" ns2:connector-curvature="0" style="stroke:none" />
      <path d="m 391.1077,158.3833 v 0 l 53.8517,-31.092 c 0.8168,-0.4716 1.8613,-0.1918 2.3329,0.6251 0.4716,0.8168 0.1918,1.8612 -0.6251,2.3329 v 0 l -53.8517,31.0919 c -0.8168,0.4716 -1.8613,0.1917 -2.3329,-0.6251 -0.4716,-0.8168 -0.1917,-1.8613 0.6251,-2.3328 z" clip-path="url(#1052307907304-clipPath1)" id="path77" ns2:connector-curvature="0" style="fill:#f0abfc;stroke:none" />
    </g>
    <g id="g85" style="fill:#fda4af;stroke:none;text-rendering:geometricPrecision">
      <path d="m 323.6315,120.4126 h 1.7078 l 8.9654,-58.6415 -10.6737,1e-4 -10.6738,10e-5 8.9665,58.6414 z" clip-path="url(#1052307907890-clipPath1)" id="path81" ns2:connector-curvature="0" style="stroke:none" />
      <path d="m 323.6315,120.4126 h 1.7078 l 8.9654,-58.6415 -10.6737,1e-4 -10.6738,10e-5 8.9665,58.6414 z" clip-path="url(#1052307907566-clipPath1)" id="path83" ns2:connector-curvature="0" style="fill:#f0abfc;stroke:none" />
    </g>
    <g id="g89" style="text-rendering:geometricPrecision;fill:#f0abfc;stroke:none">
      <path d="m 391.9616,159.8622 h -1.7078 l -8.9653,72.0693 h 10.6737 l 10.6738,-1e-4 -8.9666,-72.0692 z" clip-path="url(#1052307907890-clipPath1)" id="path87" ns2:connector-curvature="0" style="stroke:none" />
    </g>
    <g id="g95" style="text-rendering:geometricPrecision;fill:#f0abfc;stroke:none">
      <path d="m 475.6226,127.291 v 0 l 47.9364,27.6755 c 0.8168,0.4716 1.0966,1.5161 0.6251,2.3329 -0.4716,0.8168 -1.5161,1.0967 -2.3329,0.6251 v 0 L 473.9148,130.249 c -0.8168,-0.4716 -1.0967,-1.5161 -0.6251,-2.3329 0.4716,-0.8168 1.5161,-1.0967 2.3329,-0.6251 z" clip-path="url(#1052307907890-clipPath1)" id="path91" ns2:connector-curvature="0" style="stroke:none" />
      <path d="m 475.6226,127.291 v 0 l 47.9364,27.6755 c 0.8168,0.4716 1.0966,1.5161 0.6251,2.3329 -0.4716,0.8168 -1.5161,1.0967 -2.3329,0.6251 v 0 L 473.9148,130.249 c -0.8168,-0.4716 -1.0967,-1.5161 -0.6251,-2.3329 0.4716,-0.8168 1.5161,-1.0967 2.3329,-0.6251 z" clip-path="url(#1052307907206-clipPath1)" id="path93" ns2:connector-curvature="0" style="fill:#c4b5fd;stroke:none" />
    </g>
    <g id="g99" style="text-rendering:geometricPrecision;fill:#f0abfc;stroke:none">
      <path d="m 188.2969,430.5303 c 0.8168,-0.4716 1.0966,-1.5161 0.625,-2.3329 -0.4716,-0.8168 -1.5161,-1.0966 -2.3329,-0.625 l -51.1339,29.5251 c -0.8168,0.4716 -1.0966,1.5161 -0.625,2.3329 0.4716,0.8168 1.5161,1.0966 2.3329,0.625 z m 1.4784,-17.2874 c 0.8168,-0.4716 1.0967,-1.5161 0.625,-2.3329 -0.4716,-0.8168 -1.5161,-1.0966 -2.3329,-0.625 l -68.3229,39.4502 c -0.8168,0.4716 -1.0966,1.5161 -0.625,2.3329 0.4716,0.8168 1.5161,1.0966 2.3329,0.625 z" clip-path="url(#1052307907890-clipPath1)" id="path97" ns2:connector-curvature="0" style="stroke:none" />
    </g>
    <g id="g103" style="text-rendering:geometricPrecision;fill:#f0abfc;stroke:none">
      <path d="m 122.3062,451.2141 v 0 78.91 c 0,0.9432 -0.7646,1.7077 -1.7077,1.7077 -0.9432,0 -1.7078,-0.7645 -1.7078,-1.7077 v 0 -78.91 c 0,-0.9431 0.7646,-1.7078 1.7078,-1.7078 0.9431,0 1.7077,0.7647 1.7077,1.7078 z" clip-path="url(#1052307907890-clipPath1)" id="path101" ns2:connector-curvature="0" style="stroke:none" />
    </g>
    <g id="g107" style="text-rendering:geometricPrecision;fill:#f0abfc;stroke:none">
      <path d="m 137.163,521.2828 c -0.8168,-0.4716 -1.8613,-0.1917 -2.3329,0.625 -0.4716,0.8168 -0.1918,1.8613 0.625,2.3329 l 51.1339,29.5251 c 0.8168,0.4717 1.8613,0.1918 2.3329,-0.6249 0.4716,-0.8169 0.1918,-1.8614 -0.625,-2.333 z m -15.7106,7.3623 c -0.8168,-0.4716 -1.8613,-0.1918 -2.3329,0.625 -0.4716,0.8168 -0.1918,1.8613 0.625,2.3329 l 68.3229,39.4502 c 0.8168,0.4716 1.8613,0.1918 2.3329,-0.625 0.4717,-0.8167 0.1918,-1.8612 -0.625,-2.3329 z" clip-path="url(#1052307907890-clipPath1)" id="path105" ns2:connector-curvature="0" style="stroke:none" />
    </g>
    <g id="g111" style="text-rendering:geometricPrecision;fill:#f0abfc;stroke:none">
      <path d="m 188.0675,568.0953 v 0 L 256.4,528.6451 c 0.8169,-0.4716 1.8613,-0.1917 2.3329,0.6251 0.4716,0.8168 0.1917,1.8613 -0.6251,2.3329 v 0 l -68.3325,39.4502 c -0.8169,0.4715 -1.8613,0.1916 -2.3329,-0.6252 -0.4716,-0.8168 -0.1917,-1.8613 0.6251,-2.3328 z" clip-path="url(#1052307907890-clipPath1)" id="path109" ns2:connector-curvature="0" style="stroke:none" />
    </g>
    <g id="g115" style="text-rendering:geometricPrecision;fill:#f0abfc;stroke:none">
      <path d="m 241.3145,520.1995 c 0,0.9431 0.7646,1.7078 1.7077,1.7078 0.9432,0 1.7078,-0.7647 1.7078,-1.7078 v -59.0608 c 0,-0.9431 -0.7646,-1.7077 -1.7078,-1.7077 -0.9431,0 -1.7077,0.7646 -1.7077,1.7077 z m 14.2316,9.9246 c 0,0.9432 0.7646,1.7077 1.7078,1.7077 0.9432,0 1.7078,-0.7645 1.7078,-1.7077 v -78.91 c 0,-0.9431 -0.7646,-1.7078 -1.7078,-1.7078 -0.9432,0 -1.7078,0.7647 -1.7078,1.7078 z" clip-path="url(#1052307907890-clipPath1)" id="path113" ns2:connector-curvature="0" style="stroke:none" />
    </g>
    <g id="g119" style="text-rendering:geometricPrecision;fill:#f0abfc;stroke:none">
      <path d="m 256.4,452.6931 v 0 L 188.0675,413.243 c -0.8168,-0.4716 -1.0967,-1.5161 -0.6251,-2.3329 0.4716,-0.8168 1.516,-1.0967 2.3329,-0.6251 v 0 l 68.3325,39.4501 c 0.8168,0.4716 1.0967,1.5161 0.6251,2.3329 -0.4716,0.8168 -1.516,1.0967 -2.3329,0.6251 z" clip-path="url(#1052307907890-clipPath1)" id="path117" ns2:connector-curvature="0" style="stroke:none" />
    </g>
    <g id="g123" style="text-rendering:geometricPrecision;fill:#f0abfc;stroke:none">
      <path d="m 256.3999,449.7352 v 0 l 68.323,-39.4502 c 0.8168,-0.4716 1.8613,-0.1918 2.3329,0.625 0.4716,0.8168 0.1918,1.8613 -0.625,2.3329 v 0 l -68.323,39.4502 c -0.8168,0.4716 -1.8612,0.1918 -2.3329,-0.625 -0.4716,-0.8168 -0.1918,-1.8613 0.625,-2.3329 z" clip-path="url(#1052307907890-clipPath1)" id="path121" ns2:connector-curvature="0" style="stroke:none" />
    </g>
    <g id="g127" style="text-rendering:geometricPrecision;fill:#f0abfc;stroke:none">
      <path d="m 326.4307,410.285 v 0 l 68.3325,39.4501 c 0.8168,0.4716 1.0967,1.5161 0.6251,2.3329 -0.4716,0.8168 -1.516,1.0967 -2.3328,0.6251 v 0 L 324.723,413.243 c -0.8169,-0.4716 -1.0967,-1.5161 -0.6252,-2.3329 0.4716,-0.8168 1.5161,-1.0967 2.3329,-0.6251 z" clip-path="url(#1052307907890-clipPath1)" id="path125" ns2:connector-curvature="0" style="stroke:none" />
    </g>
    <g id="g133" style="fill:#c4b5fd;stroke:none;text-rendering:geometricPrecision">
      <path d="m 393.0555,449.7351 v 0 l 53.8547,-31.0917 c 0.8168,-0.4716 1.8613,-0.1917 2.3328,0.6251 0.4716,0.8168 0.1918,1.8613 -0.6251,2.3329 v 0 l -53.8547,31.0917 c -0.8168,0.4716 -1.8613,0.1917 -2.3329,-0.6251 -0.4715,-0.8168 -0.1917,-1.8613 0.6252,-2.3329 z" clip-path="url(#1052307907890-clipPath1)" id="path129" ns2:connector-curvature="0" style="stroke:none" />
      <path d="m 393.0555,449.7351 v 0 l 53.8547,-31.0917 c 0.8168,-0.4716 1.8613,-0.1917 2.3328,0.6251 0.4716,0.8168 0.1918,1.8613 -0.6251,2.3329 v 0 l -53.8547,31.0917 c -0.8168,0.4716 -1.8613,0.1917 -2.3329,-0.6251 -0.4715,-0.8168 -0.1917,-1.8613 0.6252,-2.3329 z" clip-path="url(#1052307907794-clipPath1)" id="path131" ns2:connector-curvature="0" style="fill:#f0abfc;stroke:none" />
    </g>
    <g id="g139" style="fill:#fda4af;stroke:none;text-rendering:geometricPrecision">
      <path d="m 323.3893,408.6258 0.4797,3.1381 v 0 h 1.7078 1.7078 l 0.4798,-3.1381 v 0 z m -1.6973,-11.1007 0.5222,3.4156 h 6.7252 l 0.5223,-3.4156 v 0 z m -1.6972,-11.1006 0.5222,3.4155 h 10.1197 v 0 l 0.5222,-3.4155 v 0 z m -1.6973,-11.1007 0.5223,3.4155 v 0 h 13.5141 l 0.5222,-3.4155 v 0 z m -1.6972,-11.1007 0.5222,3.4156 h 16.9086 v 0 l 0.5222,-3.4156 v 0 z m -1.6972,-11.1006 0.5222,3.4155 h 20.3031 l 0.5222,-3.4155 v 0 h -10.6738 z" clip-path="url(#1052307907890-clipPath1)" id="path135" ns2:connector-curvature="0" style="stroke:none" />
      <path d="m 323.3893,408.6258 0.4797,3.1381 v 0 h 1.7078 1.7078 l 0.4798,-3.1381 v 0 z m -1.6973,-11.1007 0.5222,3.4156 h 6.7252 l 0.5223,-3.4156 v 0 z m -1.6972,-11.1006 0.5222,3.4155 h 10.1197 v 0 l 0.5222,-3.4155 v 0 z m -1.6973,-11.1007 0.5223,3.4155 v 0 h 13.5141 l 0.5222,-3.4155 v 0 z m -1.6972,-11.1007 0.5222,3.4156 h 16.9086 v 0 l 0.5222,-3.4156 v 0 z m -1.6972,-11.1006 0.5222,3.4155 h 20.3031 l 0.5222,-3.4155 v 0 h -10.6738 z" clip-path="url(#1052307907737-clipPath1)" id="path137" ns2:connector-curvature="0" style="fill:#f0abfc;stroke:none" />
    </g>
    <g id="g143" style="text-rendering:geometricPrecision;fill:#f0abfc;stroke:none">
      <path d="m 396.297,456.6794 -0.4249,-3.4156 v 0 h -3.9255 l -0.425,3.4156 v 0 z m 1.381,11.1007 -0.4249,-3.4156 h -6.6875 v 0 l -0.425,3.4156 v 0 z m 1.3811,11.1006 -0.425,-3.4156 v 0 h -9.4496 v 0 l -0.4249,3.4156 v 0 z m 1.381,11.1007 -0.425,-3.4156 h -12.2116 l -0.4249,3.4156 v 0 z m 1.381,11.1007 -0.425,-3.4156 h -14.9736 l -0.4249,3.4156 z m 1.381,11.1006 -0.4249,-3.4155 v 0 h -17.7357 l -0.4249,3.4155 v 0 z m 1.381,11.1007 -0.4249,-3.4156 v 0 h -20.4977 v 0 l -0.4249,3.4156 h 10.6737 z" clip-path="url(#1052307907890-clipPath1)" id="path141" ns2:connector-curvature="0" style="stroke:none" />
    </g>
    <g id="g149" style="text-rendering:geometricPrecision;fill:#f0abfc;stroke:none">
      <path d="m 477.5733,418.644 v 0 l 47.9356,27.6767 c 0.8168,0.4716 1.0967,1.5161 0.6251,2.3329 -0.4716,0.8168 -1.5161,1.0966 -2.3329,0.6251 v 0 l -47.9356,-27.6768 c -0.8168,-0.4716 -1.0966,-1.5161 -0.6251,-2.3329 0.4717,-0.8168 1.5161,-1.0966 2.3329,-0.625 z" clip-path="url(#1052307907890-clipPath1)" id="path145" ns2:connector-curvature="0" style="stroke:none" />
      <path d="m 477.5733,418.644 v 0 l 47.9356,27.6767 c 0.8168,0.4716 1.0967,1.5161 0.6251,2.3329 -0.4716,0.8168 -1.5161,1.0966 -2.3329,0.6251 v 0 l -47.9356,-27.6768 c -0.8168,-0.4716 -1.0966,-1.5161 -0.6251,-2.3329 0.4717,-0.8168 1.5161,-1.0966 2.3329,-0.625 z" clip-path="url(#1052307907183-clipPath1)" id="path147" ns2:connector-curvature="0" style="fill:#c4b5fd;stroke:none" />
    </g>
    <g font-size="28px" transform="translate(312.1855,25.0123)" id="g153" style="font-size:28px;font-family:sans-serif;fill:#fda4af;stroke:none;text-rendering:geometricPrecision">
      <text x="0" xml:space="preserve" y="26" clip-path="url(#1052307907301-clipPath1)" id="text151" style="stroke:none">OH</text>
    </g>
    <g font-size="28px" transform="translate(450.0644,75.7327)" id="g157" style="font-size:28px;font-family:sans-serif;fill:#c4b5fd;stroke:none;text-rendering:geometricPrecision">
      <text x="0" xml:space="preserve" y="26" clip-path="url(#1052307907812-clipPath1)" id="text155" style="stroke:none">H</text>
    </g>
    <g font-size="28px" transform="translate(449.5644,103.9114)" id="g161" style="font-size:28px;font-family:sans-serif;fill:#c4b5fd;stroke:none;text-rendering:geometricPrecision">
      <text x="0" xml:space="preserve" y="26" clip-path="url(#1052307907873-clipPath1)" id="text159" style="stroke:none">N</text>
    </g>
    <g font-size="28px" transform="translate(314.1315,316.3636)" id="g165" style="font-size:28px;font-family:sans-serif;fill:#fda4af;stroke:none;text-rendering:geometricPrecision">
      <text x="0" xml:space="preserve" y="26" clip-path="url(#1052307907179-clipPath1)" id="text163" style="stroke:none">OH</text>
    </g>
    <g font-size="28px" transform="translate(452.0153,367.0853)" id="g169" style="font-size:28px;font-family:sans-serif;fill:#c4b5fd;stroke:none;text-rendering:geometricPrecision">
      <text x="0" xml:space="preserve" y="26" clip-path="url(#1052307907572-clipPath1)" id="text167" style="stroke:none">H</text>
    </g>
    <g font-size="28px" transform="translate(451.5153,395.264)" id="g173" style="font-size:28px;font-family:sans-serif;fill:#c4b5fd;stroke:none;text-rendering:geometricPrecision">
      <text x="0" xml:space="preserve" y="26" clip-path="url(#105230790782-clipPath1)" id="text171" style="stroke:none">N</text>
    </g>
  </g>
</svg>