<?xml version='1.0' encoding='utf-8'?>
<svg xmlns="http://www.w3.org/2000/svg" xmlns:dc="http://purl.org/dc/elements/1.1/" xmlns:ns1="http://www.inkscape.org/namespaces/inkscape" xmlns:ns2="http://sodipodi.sourceforge.net/DTD/sodipodi-0.dtd" xmlns:ns4="http://creativecommons.org/ns#" xmlns:rdf="http://www.w3.org/1999/02/22-rdf-syntax-ns#" width="744.39423" stroke-miterlimit="10" font-weight="normal" height="483.08572" font-style="normal" font-size="12px" id="svg2" version="1.1" ns1:version="0.91 r13725" ns2:docname="Methylnaphthidate.svg" style="font-style:normal;font-weight:normal;font-size:12px;font-family:Dialog;color-interpolation:auto;fill:#f0abfc;fill-opacity:1;stroke:none;stroke:none;stroke:none;stroke:none;stroke:none;stroke:none;stroke:none;stroke:none;color-rendering:auto;image-rendering:auto;shape-rendering:auto;text-rendering:auto">
  <metadata id="metadata166">
    <rdf:RDF>
      <ns4:Work rdf:about="">
        <dc:format>image/svg+xml</dc:format>
        <dc:type rdf:resource="http://purl.org/dc/dcmitype/StillImage" />
        <dc:title />
      </ns4:Work>
    </rdf:RDF>
  </metadata>
  <ns2:namedview pagecolor="#eef2ff" bordercolor="#666666" borderopacity="1" objecttolerance="10" gridtolerance="10" guidetolerance="10" ns1:pageopacity="0" ns1:pageshadow="2" ns1:window-width="1060" ns1:window-height="480" id="namedview164" showgrid="false" fit-margin-top="10" fit-margin-left="10" fit-margin-right="10" fit-margin-bottom="10" ns1:zoom="0.36375" ns1:cx="372.19712" ns1:cy="241.38322" ns1:window-x="0" ns1:window-y="0" ns1:window-maximized="0" ns1:current-layer="svg2" />
  
  <defs id="genericDefs" />
  <g id="g5" transform="translate(-27.802875,-58.2975)" style="fill:#f0abfc;stroke:none">
    <defs id="1222631997317-defs1">
      <clipPath clipPathUnits="userSpaceOnUse" id="1222631997750-clipPath1">
        <path d="M 0,0 800,0 800,600 0,600 0,0 Z" id="path9" ns1:connector-curvature="0" style="stroke:none" />
      </clipPath>
      <clipPath clipPathUnits="userSpaceOnUse" id="1222631997956-clipPath1">
        <path d="m 579.9802,332.34 c -22.6065,0 -40.9327,18.3262 -40.9327,40.9326 0,22.6066 18.3262,40.9327 40.9327,40.9327 22.6065,0 40.9327,-18.3261 40.9327,-40.9327 0,-22.6064 -18.3262,-40.9326 -40.9327,-40.9326 z" id="path12" ns1:connector-curvature="0" style="stroke:none" />
      </clipPath>
      <clipPath clipPathUnits="userSpaceOnUse" id="1222631997910-clipPath1">
        <path d="m 759.9476,332.3495 c -22.6064,0 -40.9324,18.3261 -40.9324,40.9325 0,22.6064 18.326,40.9324 40.9324,40.9324 19.698,0 36.1461,-13.9138 40.0524,-32.4494 l 0,0 0,-16.966 0,0 c -3.9062,-18.5356 -20.3544,-32.4495 -40.0524,-32.4495 z" id="path15" ns1:connector-curvature="0" style="stroke:none" />
      </clipPath>
      <clipPath clipPathUnits="userSpaceOnUse" id="1222631997649-clipPath1">
        <path d="m 490.0045,177.6915 c -21.9368,0 -39.72,17.7833 -39.72,39.7201 0,21.9368 17.7832,39.7201 39.72,39.7201 21.9368,0 39.7201,-17.7833 39.7201,-39.7201 0,-21.9368 -17.7833,-39.7201 -39.7201,-39.7201 z" id="path18" ns1:connector-curvature="0" style="stroke:none" />
      </clipPath>
      <clipPath clipPathUnits="userSpaceOnUse" id="1222631997785-clipPath1">
        <path d="m 490.0045,178.0119 c -21.7598,0 -39.3996,17.6399 -39.3996,39.3997 0,21.7598 17.6398,39.3996 39.3996,39.3996 21.7599,0 39.3997,-17.6398 39.3997,-39.3996 0,-21.7598 -17.6398,-39.3997 -39.3997,-39.3997 z" id="path21" ns1:connector-curvature="0" style="stroke:none" />
      </clipPath>
      <clipPath clipPathUnits="userSpaceOnUse" id="1222631997254-clipPath1">
        <path d="m 400.0249,104.8962 c -18.9709,0 -34.3497,15.3788 -34.3497,34.3496 0,18.9709 15.3788,34.3497 34.3497,34.3497 18.9708,0 34.3496,-15.3788 34.3496,-34.3497 0,-18.9708 -15.3788,-34.3496 -34.3496,-34.3496 z" id="path24" ns1:connector-curvature="0" style="stroke:none" />
      </clipPath>
      <clipPath clipPathUnits="userSpaceOnUse" id="1222631997832-clipPath1">
        <path d="m -656.2488,-262.2165 799.9999,0 0,600 -799.9999,0 0,-600 z" id="path27" ns1:connector-curvature="0" style="stroke:none" />
      </clipPath>
      <clipPath clipPathUnits="userSpaceOnUse" id="1222631997334-clipPath1">
        <path d="m -656.2479,-299.3252 800,0 0,600 -800,0 0,-600 z" id="path30" ns1:connector-curvature="0" style="stroke:none" />
      </clipPath>
      <clipPath clipPathUnits="userSpaceOnUse" id="1222631997157-clipPath1">
        <path d="m -385.5157,-143.4548 800,0 0,600 -800,0 0,-600 z" id="path33" ns1:connector-curvature="0" style="stroke:none" />
      </clipPath>
      <clipPath clipPathUnits="userSpaceOnUse" id="122263199722-clipPath1">
        <path d="m -565.4832,-143.4641 800,0 0,600 -800,0 0,-600 z" id="path36" ns1:connector-curvature="0" style="stroke:none" />
      </clipPath>
    </defs>
    <g id="g38" style="text-rendering:geometricPrecision;fill:#f0abfc;stroke:none">
      <path d="m 199.0418,464.0893 c 0,1.2423 1.0067,2.249 2.249,2.249 1.2423,0 2.249,-1.0067 2.249,-2.249 l 0,-77.7759 c 0,-1.2423 -1.0067,-2.249 -2.249,-2.249 -1.2423,0 -2.249,1.0067 -2.249,2.249 z m 18.7418,13.0698 c 0,1.2424 1.0066,2.249 2.2489,2.249 1.2424,0 2.249,-1.0066 2.249,-2.249 l 0,-103.9168 c 0,-1.2423 -1.0066,-2.249 -2.249,-2.249 -1.2423,0 -2.2489,1.0067 -2.2489,2.249 z" clip-path="url(#1222631997750-clipPath1)" id="path40" ns1:connector-curvature="0" style="stroke:none" />
    </g>
    <g id="g42" style="text-rendering:geometricPrecision;fill:#f0abfc;stroke:none">
      <path d="m 310.8489,504.3989 c -1.076,0.6211 -1.4445,1.9962 -0.8235,3.0721 0.6211,1.0759 1.9962,1.4445 3.0721,0.8234 l 67.3444,-38.8735 c 1.076,-0.6211 1.4445,-1.9962 0.8235,-3.0721 -0.6211,-1.076 -1.9962,-1.4446 -3.0721,-0.8235 z m -1.9483,22.7646 c -1.0759,0.621 -1.4445,1.9962 -0.8234,3.0721 0.621,1.0759 1.9961,1.4445 3.0721,0.8235 l 89.9815,-51.9406 c 1.0759,-0.621 1.4445,-1.9961 0.8234,-3.0721 -0.6211,-1.0759 -1.9962,-1.4445 -3.0721,-0.8234 z" clip-path="url(#1222631997750-clipPath1)" id="path44" ns1:connector-curvature="0" style="stroke:none" />
    </g>
    <g id="g46" style="text-rendering:geometricPrecision;fill:#f0abfc;stroke:none">
      <path d="m 402.2554,477.1709 0.006,-103.9074 c 1e-4,-1.2424 -1.0065,-2.2491 -2.2488,-2.2492 -1.2424,0 -2.2491,1.0066 -2.2492,2.2489 l -0.006,103.9074 c 0,1.2424 1.0066,2.2491 2.2489,2.2491 1.2423,1e-4 2.249,-1.0065 2.2491,-2.2488 z" clip-path="url(#1222631997750-clipPath1)" id="path48" ns1:connector-curvature="0" style="stroke:none" />
    </g>
    <g id="g50" style="text-rendering:geometricPrecision;fill:#f0abfc;stroke:none">
      <path d="m 378.1982,384.906 c 1.0758,0.6212 2.4509,0.2528 3.0722,-0.8231 0.6212,-1.0758 0.2528,-2.4509 -0.8231,-3.0722 l -67.3564,-38.892 c -1.0759,-0.6213 -2.451,-0.2529 -3.0722,0.823 -0.6212,1.0758 -0.2528,2.451 0.823,3.0722 z m 20.69,-9.695 c 1.0758,0.6212 2.4509,0.2528 3.0722,-0.8231 0.6212,-1.0759 0.2528,-2.451 -0.8231,-3.0722 l -89.9924,-51.9623 c -1.0758,-0.6212 -2.451,-0.2528 -3.0722,0.8231 -0.6212,1.0758 -0.2528,2.4509 0.8231,3.0722 z" clip-path="url(#1222631997750-clipPath1)" id="path52" ns1:connector-curvature="0" style="stroke:none" />
    </g>
    <g id="g54" style="text-rendering:geometricPrecision;fill:#f0abfc;stroke:none">
      <path d="m 218.9081,479.1069 89.9924,51.9521 c 1.0759,0.6211 2.4511,0.2526 3.0722,-0.8233 0.6211,-1.0759 0.2526,-2.451 -0.8233,-3.0721 L 221.157,475.2114 c -1.076,-0.6211 -2.4511,-0.2526 -3.0722,0.8233 -0.6211,1.076 -0.2526,2.451 0.8233,3.0722 z" clip-path="url(#1222631997750-clipPath1)" id="path56" ns1:connector-curvature="0" style="stroke:none" />
    </g>
    <g id="g58" style="text-rendering:geometricPrecision;fill:#f0abfc;stroke:none">
      <path d="m 308.8961,319.3532 -89.9878,51.9413 c -1.076,0.621 -1.4446,1.9961 -0.8236,3.0721 0.6211,1.0759 1.9962,1.4445 3.0721,0.8235 l 89.9878,-51.9413 c 1.076,-0.621 1.4446,-1.9961 0.8235,-3.072 -0.621,-1.076 -1.9961,-1.4446 -3.072,-0.8236 z" clip-path="url(#1222631997750-clipPath1)" id="path60" ns1:connector-curvature="0" style="stroke:none" />
    </g>
    <g id="g62" style="text-rendering:geometricPrecision;fill:#f0abfc;stroke:none">
      <path d="m 401.1371,375.2111 89.9865,-51.9475 c 1.0759,-0.6211 1.4444,-1.9962 0.8233,-3.0721 -0.6211,-1.076 -1.9962,-1.4445 -3.0721,-0.8234 l -89.9865,51.9475 c -1.0759,0.6211 -1.4444,1.9962 -0.8233,3.0721 0.6211,1.076 1.9962,1.4445 3.0721,0.8234 z" clip-path="url(#1222631997750-clipPath1)" id="path64" ns1:connector-curvature="0" style="stroke:none" />
    </g>
    <g id="g66" style="text-rendering:geometricPrecision;fill:#f0abfc;stroke:none">
      <path d="m 488.8746,323.2635 89.981,51.9568 c 1.0759,0.6212 2.451,0.2528 3.0722,-0.8231 0.6212,-1.0758 0.2529,-2.4509 -0.823,-3.0722 l -89.9811,-51.9568 c -1.0758,-0.6212 -2.4509,-0.2528 -3.0722,0.8231 -0.6212,1.0758 -0.2528,2.451 0.8231,3.0722 z" clip-path="url(#1222631997750-clipPath1)" id="path68" ns1:connector-curvature="0" style="stroke:none" />
    </g>
    <g id="g70" style="fill:#c4b5fd;stroke:none;text-rendering:geometricPrecision">
      <path d="m 581.1046,375.2204 70.8996,-40.929 c 1.0759,-0.6211 1.4445,-1.9962 0.8233,-3.0721 -0.6211,-1.076 -1.9962,-1.4445 -3.0721,-0.8234 l -70.8996,40.929 c -1.0759,0.6211 -1.4444,1.9962 -0.8233,3.0721 0.6211,1.076 1.9962,1.4445 3.0721,0.8234 z" clip-path="url(#1222631997750-clipPath1)" id="path72" ns1:connector-curvature="0" style="stroke:none" />
      <path d="m 581.1046,375.2204 70.8996,-40.929 c 1.0759,-0.6211 1.4445,-1.9962 0.8233,-3.0721 -0.6211,-1.076 -1.9962,-1.4445 -3.0721,-0.8234 l -70.8996,40.929 c -1.0759,0.6211 -1.4444,1.9962 -0.8233,3.0721 0.6211,1.076 1.9962,1.4445 3.0721,0.8234 z" clip-path="url(#1222631997956-clipPath1)" id="path74" ns1:connector-curvature="0" style="fill:#f0abfc;stroke:none" />
    </g>
    <g id="g76" style="text-rendering:geometricPrecision;fill:#f0abfc;stroke:none">
      <path d="m 492.2481,321.316 0.005,-103.9043 c 10e-5,-1.2423 -1.0065,-2.249 -2.2488,-2.2491 -1.2424,0 -2.2491,1.0066 -2.2491,2.2489 l -0.005,103.9042 c -1e-4,1.2424 1.0065,2.2491 2.2489,2.2491 1.2423,1e-4 2.249,-1.0065 2.249,-2.2488 z" clip-path="url(#1222631997750-clipPath1)" id="path78" ns1:connector-curvature="0" style="stroke:none" />
    </g>
    <g id="g80" style="text-rendering:geometricPrecision;fill:#f0abfc;stroke:none">
      <path d="m 671.0803,531.0814 89.9864,-51.9474 c 1.0759,-0.6211 1.4444,-1.9962 0.8233,-3.0721 -0.6211,-1.076 -1.9962,-1.4445 -3.0721,-0.8234 l -89.9864,51.9475 c -1.0759,0.6211 -1.4445,1.9962 -0.8234,3.0721 0.6211,1.0759 1.9962,1.4445 3.0722,0.8233 z" clip-path="url(#1222631997750-clipPath1)" id="path82" ns1:connector-curvature="0" style="stroke:none" />
    </g>
    <g id="g84" style="text-rendering:geometricPrecision;fill:#f0abfc;stroke:none">
      <path d="m 762.1913,477.1864 0.005,-103.9043 c 0,-1.2423 -1.0066,-2.249 -2.2489,-2.2491 -1.2424,-1e-4 -2.2491,1.0065 -2.2491,2.2489 l -0.005,103.9042 c -10e-5,1.2424 1.0065,2.2491 2.2488,2.2491 1.2424,10e-5 2.2491,-1.0065 2.2492,-2.2488 z" clip-path="url(#1222631997750-clipPath1)" id="path86" ns1:connector-curvature="0" style="stroke:none" />
    </g>
    <g id="g88" style="fill:#c4b5fd;stroke:none;text-rendering:geometricPrecision">
      <path d="m 761.0723,371.3344 -70.8951,-40.9362 c -1.0758,-0.6212 -2.4509,-0.2528 -3.0722,0.823 -0.6212,1.0759 -0.2528,2.451 0.823,3.0723 l 70.8951,40.9361 c 1.0758,0.6212 2.4509,0.2528 3.0722,-0.823 0.6212,-1.0759 0.2528,-2.451 -0.823,-3.0722 z" clip-path="url(#1222631997750-clipPath1)" id="path90" ns1:connector-curvature="0" style="stroke:none" />
      <path d="m 761.0723,371.3344 -70.8951,-40.9362 c -1.0758,-0.6212 -2.4509,-0.2528 -3.0722,0.823 -0.6212,1.0759 -0.2528,2.451 0.823,3.0723 l 70.8951,40.9361 c 1.0758,0.6212 2.4509,0.2528 3.0722,-0.823 0.6212,-1.0759 0.2528,-2.451 -0.823,-3.0722 z" clip-path="url(#1222631997910-clipPath1)" id="path92" ns1:connector-curvature="0" style="fill:#f0abfc;stroke:none" />
    </g>
    <g id="g94" style="text-rendering:geometricPrecision;fill:#f0abfc;stroke:none">
      <path d="m 577.7312,373.2726 -0.005,103.9042 c 0,1.2423 1.0066,2.249 2.2489,2.2491 1.2423,10e-5 2.2491,-1.0065 2.2491,-2.2489 l 0.005,-103.9042 c 0,-1.2423 -1.0065,-2.2491 -2.2489,-2.2491 -1.2423,-1e-4 -2.249,1.0065 -2.2491,2.2489 z" clip-path="url(#1222631997750-clipPath1)" id="path96" ns1:connector-curvature="0" style="stroke:none" />
    </g>
    <g id="g98" style="text-rendering:geometricPrecision;fill:#f0abfc;stroke:none">
      <path d="m 578.8502,479.1245 89.981,51.9569 c 1.0759,0.6212 2.451,0.2528 3.0723,-0.8231 0.6212,-1.0759 0.2528,-2.451 -0.8231,-3.0722 l -89.981,-51.9568 c -1.0758,-0.6212 -2.451,-0.2528 -3.0722,0.823 -0.6213,1.0759 -0.2528,2.451 0.823,3.0722 z" clip-path="url(#1222631997750-clipPath1)" id="path100" ns1:connector-curvature="0" style="stroke:none" />
    </g>
    <g id="g102" style="fill:#fda4af;stroke:none;text-rendering:geometricPrecision">
      <path d="M 491.1291,215.464 422.334,175.7404 c -1.0758,-0.6213 -2.451,-0.2529 -3.0722,0.823 -0.6212,1.0758 -0.2528,2.451 0.823,3.0722 l 68.7951,39.7236 c 1.0759,0.6212 2.451,0.2528 3.0722,-0.823 0.6213,-1.0759 0.2529,-2.451 -0.823,-3.0722 z" clip-path="url(#1222631997750-clipPath1)" id="path104" ns1:connector-curvature="0" style="stroke:none" />
      <path d="M 491.1291,215.464 422.334,175.7404 c -1.0758,-0.6213 -2.451,-0.2529 -3.0722,0.823 -0.6212,1.0758 -0.2528,2.451 0.823,3.0722 l 68.7951,39.7236 c 1.0759,0.6212 2.451,0.2528 3.0722,-0.823 0.6213,-1.0759 0.2529,-2.451 -0.823,-3.0722 z" clip-path="url(#1222631997649-clipPath1)" id="path106" ns1:connector-curvature="0" style="fill:#f0abfc;stroke:none" />
    </g>
    <g id="g108" style="fill:#fda4af;stroke:none;text-rendering:geometricPrecision">
      <path d="m 479.5096,210.0531 c -1.0759,0.6211 -1.4445,1.9962 -0.8234,3.0721 0.6211,1.076 1.9962,1.4445 3.0722,0.8234 l 72.9298,-42.101 c 1.0758,-0.6211 1.4444,-1.9962 0.8233,-3.0721 -0.6211,-1.076 -1.9962,-1.4445 -3.0722,-0.8234 z m 9.37,16.2313 c -1.0759,0.6211 -1.4445,1.9962 -0.8234,3.0721 0.6211,1.0759 1.9963,1.4445 3.0722,0.8234 l 72.9298,-42.101 c 1.0759,-0.6211 1.4444,-1.9962 0.8233,-3.0722 -0.6211,-1.0759 -1.9962,-1.4444 -3.0721,-0.8233 z" clip-path="url(#1222631997750-clipPath1)" id="path110" ns1:connector-curvature="0" style="stroke:none" />
      <path d="m 479.5096,210.0531 c -1.0759,0.6211 -1.4445,1.9962 -0.8234,3.0721 0.6211,1.076 1.9962,1.4445 3.0722,0.8234 l 72.9298,-42.101 c 1.0758,-0.6211 1.4444,-1.9962 0.8233,-3.0721 -0.6211,-1.076 -1.9962,-1.4445 -3.0722,-0.8234 z m 9.37,16.2313 c -1.0759,0.6211 -1.4445,1.9962 -0.8234,3.0721 0.6211,1.0759 1.9963,1.4445 3.0722,0.8234 l 72.9298,-42.101 c 1.0759,-0.6211 1.4444,-1.9962 0.8233,-3.0722 -0.6211,-1.0759 -1.9962,-1.4444 -3.0721,-0.8233 z" clip-path="url(#1222631997785-clipPath1)" id="path112" ns1:connector-curvature="0" style="fill:#f0abfc;stroke:none" />
    </g>
    <g id="g114" style="text-rendering:geometricPrecision;fill:#f0abfc;stroke:none">
      <path d="m 402.2738,139.246 0.004,-68.6994 c 10e-5,-1.2423 -1.0065,-2.249 -2.2489,-2.2491 -1.2423,-1e-4 -2.249,1.0066 -2.2491,2.2489 l -0.004,68.6993 c -1e-4,1.2424 1.0065,2.2491 2.2488,2.2491 1.2424,1e-4 2.2491,-1.0065 2.2491,-2.2488 z" clip-path="url(#1222631997750-clipPath1)" id="path116" ns1:connector-curvature="0" style="stroke:none" />
      <path d="m 402.2738,139.246 0.004,-68.6994 c 10e-5,-1.2423 -1.0065,-2.249 -2.2489,-2.2491 -1.2423,-1e-4 -2.249,1.0066 -2.2491,2.2489 l -0.004,68.6993 c -1e-4,1.2424 1.0065,2.2491 2.2488,2.2491 1.2424,1e-4 2.2491,-1.0065 2.2491,-2.2488 z" clip-path="url(#1222631997254-clipPath1)" id="path118" ns1:connector-curvature="0" style="fill:#fda4af;stroke:none" />
    </g>
    <g id="g120" style="text-rendering:geometricPrecision;fill:#f0abfc;stroke:none">
      <path d="m 129.2171,346.0122 c 1.076,-0.6211 1.4446,-1.9962 0.8235,-3.0721 -0.6211,-1.076 -1.9962,-1.4445 -3.0721,-0.8235 l -67.3453,38.8742 c -1.076,0.621 -1.4446,1.9961 -0.8235,3.072 0.6211,1.076 1.9962,1.4446 3.0721,0.8235 z m 1.9474,-22.7641 c 1.0759,-0.6211 1.4445,-1.9961 0.8234,-3.0721 -0.6211,-1.0759 -1.9962,-1.4445 -3.0721,-0.8235 l -89.9815,51.9406 c -1.0759,0.6211 -1.4445,1.9961 -0.8234,3.0721 0.621,1.0759 1.9961,1.4445 3.0721,0.8234 z" clip-path="url(#1222631997750-clipPath1)" id="path122" ns1:connector-curvature="0" style="stroke:none" />
    </g>
    <g id="g124" style="text-rendering:geometricPrecision;fill:#f0abfc;stroke:none">
      <path d="m 37.8097,373.2407 -0.0063,103.9074 c -1e-4,1.2424 1.0065,2.2491 2.2488,2.2492 1.2423,0 2.2491,-1.0066 2.2491,-2.2489 L 42.3076,373.241 c 10e-5,-1.2423 -1.0065,-2.2491 -2.2488,-2.2491 -1.2424,-10e-5 -2.2491,1.0065 -2.2491,2.2488 z" clip-path="url(#1222631997750-clipPath1)" id="path126" ns1:connector-curvature="0" style="stroke:none" />
    </g>
    <g id="g128" style="text-rendering:geometricPrecision;fill:#f0abfc;stroke:none">
      <path d="m 61.8669,465.5056 c -1.0758,-0.6212 -2.451,-0.2528 -3.0722,0.823 -0.6212,1.0759 -0.2528,2.4511 0.8231,3.0722 l 67.3555,38.8916 c 1.0758,0.6212 2.451,0.2528 3.0722,-0.823 0.6212,-1.0759 0.2528,-2.451 -0.8231,-3.0722 z m -20.69,9.6951 c -1.0758,-0.6213 -2.451,-0.2529 -3.0722,0.823 -0.6212,1.0758 -0.2528,2.451 0.8231,3.0722 l 89.9924,51.9623 c 1.0758,0.6212 2.451,0.2528 3.0722,-0.823 0.6212,-1.0759 0.2528,-2.451 -0.8231,-3.0722 z" clip-path="url(#1222631997750-clipPath1)" id="path130" ns1:connector-curvature="0" style="stroke:none" />
    </g>
    <g id="g132" style="text-rendering:geometricPrecision;fill:#f0abfc;stroke:none">
      <path d="m 131.1692,531.0583 89.9878,-51.9515 c 1.0759,-0.6211 1.4444,-1.9962 0.8233,-3.0721 -0.6212,-1.0759 -1.9963,-1.4444 -3.0722,-0.8233 l -89.9878,51.9514 c -1.0759,0.6212 -1.4444,1.9963 -0.8233,3.0722 0.6212,1.0759 1.9963,1.4444 3.0722,0.8233 z" clip-path="url(#1222631997750-clipPath1)" id="path134" ns1:connector-curvature="0" style="stroke:none" />
    </g>
    <g id="g136" style="text-rendering:geometricPrecision;fill:#f0abfc;stroke:none">
      <path d="m 221.1568,371.2945 -89.9924,-51.942 c -1.076,-0.621 -2.4511,-0.2524 -3.0721,0.8236 -0.621,1.0759 -0.2524,2.451 0.8236,3.072 l 89.9924,51.942 c 1.076,0.6211 2.451,0.2524 3.0721,-0.8236 0.621,-1.0759 0.2524,-2.451 -0.8236,-3.072 z" clip-path="url(#1222631997750-clipPath1)" id="path138" ns1:connector-curvature="0" style="stroke:none" />
    </g>
    <g id="g140" style="fill:#eef2ff;stroke:none;text-rendering:geometricPrecision">
      </g>
    <g font-size="37px" transform="translate(656.2489,262.2165)" id="g144" style="font-size:37px;font-family:sans-serif;fill:#c4b5fd;stroke:none;text-rendering:geometricPrecision">
      <text x="0" xml:space="preserve" y="36" clip-path="url(#1222631997832-clipPath1)" id="text146" style="stroke:none">H</text>
    </g>
    <g font-size="37px" transform="translate(656.2479,299.3252)" id="g148" style="font-size:37px;font-family:sans-serif;fill:#c4b5fd;stroke:none;text-rendering:geometricPrecision">
      <text x="0" xml:space="preserve" y="36" clip-path="url(#1222631997334-clipPath1)" id="text150" style="stroke:none">N</text>
    </g>
    <g font-size="37px" id="g152" style="font-size:37px;font-family:sans-serif;fill:#eef2ff;stroke:none;text-rendering:geometricPrecision">
      <text x="0" y="36" transform="translate(385.5157,143.4548)" clip-path="url(#1222631997157-clipPath1)" xml:space="preserve" id="text156" style="fill:#fda4af;stroke:none">O</text>
    </g>
    <g font-size="37px" id="g158" style="font-size:37px;font-family:sans-serif;fill:#eef2ff;stroke:none;text-rendering:geometricPrecision">
      <text x="0" y="36" transform="translate(565.4832,143.4641)" clip-path="url(#122263199722-clipPath1)" xml:space="preserve" id="text162" style="fill:#fda4af;stroke:none">O</text>
    </g>
  </g>
</svg>