<?xml version='1.0' encoding='utf-8'?>
<svg xmlns="http://www.w3.org/2000/svg" xmlns:dc="http://purl.org/dc/elements/1.1/" xmlns:ns1="http://www.inkscape.org/namespaces/inkscape" xmlns:ns2="http://sodipodi.sourceforge.net/DTD/sodipodi-0.dtd" xmlns:ns4="http://creativecommons.org/ns#" xmlns:rdf="http://www.w3.org/1999/02/22-rdf-syntax-ns#" width="472.78641" stroke-miterlimit="10" font-weight="normal" height="331.7301" font-style="normal" font-size="12px" id="svg2" version="1.1" ns1:version="0.91 r13725" ns2:docname="Mexedrone.svg" style="font-style:normal;font-weight:normal;font-size:12px;font-family:Dialog;color-interpolation:auto;fill:#000000;fill-opacity:1;stroke:none;stroke:none;stroke:none;stroke:none;stroke:none;stroke:none;stroke:none;stroke:none;color-rendering:auto;image-rendering:auto;shape-rendering:auto;text-rendering:auto">
  <metadata id="metadata134">
    <rdf:RDF>
      <ns4:Work rdf:about="">
        <dc:format>image/svg+xml</dc:format>
        <dc:type rdf:resource="http://purl.org/dc/dcmitype/StillImage" />
        <dc:title />
      </ns4:Work>
    </rdf:RDF>
  </metadata>
  <ns2:namedview pagecolor="#ffffff" bordercolor="#666666" borderopacity="1" objecttolerance="10" gridtolerance="10" guidetolerance="10" ns1:pageopacity="0" ns1:pageshadow="2" ns1:window-width="1060" ns1:window-height="480" id="namedview132" showgrid="false" fit-margin-top="10" fit-margin-left="10" fit-margin-right="10" fit-margin-bottom="10" ns1:zoom="0.36375" ns1:cx="231.39788" ns1:cy="49.1582" ns1:window-x="0" ns1:window-y="0" ns1:window-maximized="0" ns1:current-layer="svg2" />
  
  <defs id="genericDefs" />
  <g id="g5" transform="translate(-168.60212,-17.4281)" style="fill:#000000;stroke:none">
    <defs id="310677557482-defs1">
      <clipPath clipPathUnits="userSpaceOnUse" id="310677557120-clipPath1">
        <path d="M 0,0 800,0 800,600 0,600 0,0 Z" id="path9" ns1:connector-curvature="0" style="stroke:none" />
      </clipPath>
      <clipPath clipPathUnits="userSpaceOnUse" id="310677557703-clipPath1">
        <path d="m 437.922,87.8155 c -15.5743,0 -28.1997,12.6255 -28.1997,28.1997 0,15.5743 12.6254,28.1997 28.1997,28.1997 15.5742,0 28.1996,-12.6254 28.1996,-28.1997 0,-15.5742 -12.6254,-28.1997 -28.1996,-28.1997 z" id="path12" ns1:connector-curvature="0" style="stroke:none" />
      </clipPath>
      <clipPath clipPathUnits="userSpaceOnUse" id="310677557366-clipPath1">
        <path d="m 503.761,124.0676 c -16.5489,0 -29.9643,13.4155 -29.9643,29.9643 0,16.5488 13.4154,29.9643 29.9643,29.9643 16.5488,0 29.9642,-13.4155 29.9642,-29.9643 0,-16.5488 -13.4154,-29.9643 -29.9642,-29.9643 z" id="path15" ns1:connector-curvature="0" style="stroke:none" />
      </clipPath>
      <clipPath clipPathUnits="userSpaceOnUse" id="310677557966-clipPath1">
        <path d="m 583.545,97.3989 c -14.7311,0 -26.673,11.9419 -26.673,26.673 0,14.7311 11.9419,26.673 26.673,26.673 14.7311,0 26.673,-11.9419 26.673,-26.673 0,-14.7311 -11.9419,-26.673 -26.673,-26.673 z" id="path18" ns1:connector-curvature="0" style="stroke:none" />
      </clipPath>
      <clipPath clipPathUnits="userSpaceOnUse" id="310677557765-clipPath1">
        <path d="m 503.757,200.8849 c -16.1121,0 -29.1736,13.0614 -29.1736,29.1736 0,16.1122 13.0615,29.1736 29.1736,29.1736 16.1122,0 29.1737,-13.0614 29.1737,-29.1736 0,-16.1122 -13.0615,-29.1736 -29.1737,-29.1736 z" id="path21" ns1:connector-curvature="0" style="stroke:none" />
      </clipPath>
      <clipPath clipPathUnits="userSpaceOnUse" id="31067755762-clipPath1">
        <path d="m 437.9131,262.7872 c -13.7566,0 -24.9085,11.1519 -24.9085,24.9085 0,13.7566 11.1519,24.9085 24.9085,24.9085 13.7565,0 24.9084,-11.1519 24.9084,-24.9085 0,-13.7566 -11.1519,-24.9085 -24.9084,-24.9085 z" id="path24" ns1:connector-curvature="0" style="stroke:none" />
      </clipPath>
      <clipPath clipPathUnits="userSpaceOnUse" id="310677557841-clipPath1">
        <path d="m -427.3009,-23.9886 800,0 0,600 -800,0 0,-600 z" id="path27" ns1:connector-curvature="0" style="stroke:none" />
      </clipPath>
      <clipPath clipPathUnits="userSpaceOnUse" id="310677557198-clipPath1">
        <path d="m -559.6517,-72.8697 800,0 0,600 -800,0 0,-600 z" id="path30" ns1:connector-curvature="0" style="stroke:none" />
      </clipPath>
      <clipPath clipPathUnits="userSpaceOnUse" id="310677557215-clipPath1">
        <path d="m -559.6508,-100.022 800,0 0,600 -800,0 0,-600 z" id="path33" ns1:connector-curvature="0" style="stroke:none" />
      </clipPath>
      <clipPath clipPathUnits="userSpaceOnUse" id="310677557969-clipPath1">
        <path d="m -427.2891,-252.0684 800,0 0,600 -800,0 0,-600 z" id="path36" ns1:connector-curvature="0" style="stroke:none" />
      </clipPath>
    </defs>
    <g id="g38" style="text-rendering:geometricPrecision;fill:#000000;stroke:none">
      <path d="m 238.7422,230.0455 c 0,0.909 0.7366,1.6456 1.6456,1.6456 0.909,0 1.6456,-0.7366 1.6456,-1.6456 l 0,-76.0358 c 0,-0.909 -0.7366,-1.6456 -1.6456,-1.6456 -0.909,0 -1.6456,0.7366 -1.6456,1.6456 z m 13.7133,-9.5633 c 0,0.909 0.7366,1.6455 1.6456,1.6455 0.909,0 1.6456,-0.7365 1.6456,-1.6455 l 0,-56.9085 c 0,-0.9091 -0.7366,-1.6456 -1.6456,-1.6456 -0.909,0 -1.6456,0.7365 -1.6456,1.6456 z" clip-path="url(#310677557120-clipPath1)" id="path40" ns1:connector-curvature="0" style="stroke:none" />
    </g>
    <g id="g42" style="text-rendering:geometricPrecision;fill:#000000;stroke:none">
      <path d="m 306.838,249.9768 c -0.7873,0.4544 -1.057,1.4606 -0.6025,2.2478 0.4544,0.7873 1.4605,1.057 2.2478,0.6025 l 49.2758,-28.4437 c 0.7873,-0.4544 1.057,-1.4606 0.6025,-2.2478 -0.4544,-0.7873 -1.4606,-1.057 -2.2478,-0.6026 z m -1.4256,16.6568 c -0.7872,0.4544 -1.0569,1.4606 -0.6025,2.2479 0.4545,0.7872 1.4606,1.0569 2.2479,0.6025 l 65.8393,-38.0048 c 0.7873,-0.4545 1.057,-1.4606 0.6025,-2.2479 -0.4544,-0.7872 -1.4606,-1.0569 -2.2478,-0.6025 z" clip-path="url(#310677557120-clipPath1)" id="path44" ns1:connector-curvature="0" style="stroke:none" />
    </g>
    <g id="g46" style="text-rendering:geometricPrecision;fill:#000000;stroke:none">
      <path d="m 373.72,230.0541 0.005,-76.0289 c 10e-5,-0.909 -0.7364,-1.6456 -1.6455,-1.6457 -0.909,0 -1.6456,0.7365 -1.6456,1.6455 l -0.005,76.0289 c -10e-5,0.909 0.7364,1.6456 1.6454,1.6457 0.909,0 1.6457,-0.7365 1.6457,-1.6455 z" clip-path="url(#310677557120-clipPath1)" id="path48" ns1:connector-curvature="0" style="stroke:none" />
    </g>
    <g id="g50" style="text-rendering:geometricPrecision;fill:#000000;stroke:none">
      <path d="m 356.1173,162.544 c 0.7872,0.4546 1.7934,0.185 2.248,-0.6022 0.4545,-0.7872 0.185,-1.7934 -0.6023,-2.2479 l -49.2845,-28.4573 c -0.7872,-0.4546 -1.7934,-0.185 -2.248,0.6022 -0.4545,0.7872 -0.1849,1.7934 0.6023,2.2479 z m 15.1389,-7.0938 c 0.7872,0.4545 1.7934,0.1849 2.2479,-0.6023 0.4545,-0.7872 0.185,-1.7933 -0.6022,-2.2479 l -65.8473,-38.0207 c -0.7872,-0.4546 -1.7934,-0.185 -2.2479,0.6022 -0.4546,0.7872 -0.185,1.7934 0.6022,2.2479 z" clip-path="url(#310677557120-clipPath1)" id="path52" ns1:connector-curvature="0" style="stroke:none" />
    </g>
    <g id="g54" style="text-rendering:geometricPrecision;fill:#000000;stroke:none">
      <path d="m 239.5651,231.4706 65.8473,38.0133 c 0.7872,0.4545 1.7934,0.1849 2.2479,-0.6024 0.4544,-0.7872 0.1848,-1.7934 -0.6024,-2.2479 l -65.8473,-38.0133 c -0.7873,-0.4544 -1.7935,-0.1848 -2.2479,0.6025 -0.4545,0.7872 -0.1849,1.7934 0.6024,2.2478 z" clip-path="url(#310677557120-clipPath1)" id="path56" ns1:connector-curvature="0" style="stroke:none" />
    </g>
    <g id="g58" style="text-rendering:geometricPrecision;fill:#000000;stroke:none">
      <path d="m 305.4091,114.5792 -65.8439,38.0053 c -0.7873,0.4544 -1.057,1.4606 -0.6026,2.2478 0.4544,0.7873 1.4606,1.057 2.2478,0.6026 l 65.844,-38.0053 c 0.7872,-0.4545 1.057,-1.4606 0.6026,-2.2479 -0.4545,-0.7873 -1.4606,-1.057 -2.2479,-0.6025 z" clip-path="url(#310677557120-clipPath1)" id="path60" ns1:connector-curvature="0" style="stroke:none" />
    </g>
    <g id="g62" style="text-rendering:geometricPrecision;fill:#000000;stroke:none">
      <path d="m 372.9018,155.4502 65.8429,-38.0098 c 0.7873,-0.4545 1.0569,-1.4607 0.6024,-2.2479 -0.4544,-0.7873 -1.4606,-1.0569 -2.2479,-0.6025 l -65.8429,38.0099 c -0.7872,0.4545 -1.0569,1.4607 -0.6024,2.2479 0.4544,0.7873 1.4606,1.0569 2.2479,0.6024 z" clip-path="url(#310677557120-clipPath1)" id="path64" ns1:connector-curvature="0" style="stroke:none" />
    </g>
    <g id="g66" style="text-rendering:geometricPrecision;fill:#000000;stroke:none">
      <path d="m 437.0991,117.4403 65.839,38.0167 c 0.7872,0.4545 1.7934,0.185 2.2479,-0.6022 0.4546,-0.7872 0.185,-1.7934 -0.6022,-2.248 l -65.839,-38.0167 c -0.7872,-0.4545 -1.7934,-0.185 -2.2479,0.6022 -0.4545,0.7872 -0.185,1.7934 0.6022,2.248 z" clip-path="url(#310677557120-clipPath1)" id="path68" ns1:connector-curvature="0" style="stroke:none" />
    </g>
    <g id="g70" style="fill:#ff0000;stroke:none;text-rendering:geometricPrecision">
      <path d="m 429.4195,119.9735 c 0,0.909 0.7365,1.6456 1.6455,1.6456 0.909,1e-4 1.6457,-0.7365 1.6457,-1.6455 l 0.003,-60.358 c 10e-5,-0.909 -0.7365,-1.6456 -1.6455,-1.6457 -0.909,0 -1.6456,0.7365 -1.6456,1.6455 z m 13.7133,7e-4 c 0,0.909 0.7365,1.6456 1.6455,1.6456 0.909,1e-4 1.6457,-0.7365 1.6457,-1.6455 l 0.003,-60.358 c 10e-5,-0.909 -0.7365,-1.6456 -1.6455,-1.6457 -0.909,0 -1.6456,0.7365 -1.6456,1.6455 z" clip-path="url(#310677557120-clipPath1)" id="path72" ns1:connector-curvature="0" style="stroke:none" />
      <path d="m 429.4195,119.9735 c 0,0.909 0.7365,1.6456 1.6455,1.6456 0.909,1e-4 1.6457,-0.7365 1.6457,-1.6455 l 0.003,-60.358 c 10e-5,-0.909 -0.7365,-1.6456 -1.6455,-1.6457 -0.909,0 -1.6456,0.7365 -1.6456,1.6455 z m 13.7133,7e-4 c 0,0.909 0.7365,1.6456 1.6455,1.6456 0.909,1e-4 1.6457,-0.7365 1.6457,-1.6455 l 0.003,-60.358 c 10e-5,-0.909 -0.7365,-1.6456 -1.6455,-1.6457 -0.909,0 -1.6456,0.7365 -1.6456,1.6455 z" clip-path="url(#310677557703-clipPath1)" id="path74" ns1:connector-curvature="0" style="fill:#000000;stroke:none" />
    </g>
    <g id="g76" style="fill:#333399;stroke:none;text-rendering:geometricPrecision">
      <path d="m 504.5837,155.4571 51.9012,-29.9616 c 0.7873,-0.4545 1.0569,-1.4607 0.6024,-2.2479 -0.4544,-0.7872 -1.4606,-1.0569 -2.2478,-0.6024 l -51.9013,29.9616 c -0.7872,0.4544 -1.0569,1.4606 -0.6024,2.2478 0.4545,0.7873 1.4606,1.0569 2.2479,0.6025 z" clip-path="url(#310677557120-clipPath1)" id="path78" ns1:connector-curvature="0" style="stroke:none" />
      <path d="m 504.5837,155.4571 51.9012,-29.9616 c 0.7873,-0.4545 1.0569,-1.4607 0.6024,-2.2479 -0.4544,-0.7872 -1.4606,-1.0569 -2.2478,-0.6024 l -51.9013,29.9616 c -0.7872,0.4544 -1.0569,1.4606 -0.6024,2.2478 0.4545,0.7873 1.4606,1.0569 2.2479,0.6025 z" clip-path="url(#310677557366-clipPath1)" id="path80" ns1:connector-curvature="0" style="fill:#000000;stroke:none" />
    </g>
    <g id="g82" style="text-rendering:geometricPrecision;fill:#000000;stroke:none">
      <path d="m 582.7222,125.497 46.1975,26.6753 c 0.7872,0.4546 1.7934,0.185 2.248,-0.6022 0.4545,-0.7872 0.185,-1.7934 -0.6023,-2.2479 l -46.1975,-26.6754 c -0.7872,-0.4545 -1.7934,-0.185 -2.248,0.6022 -0.4545,0.7872 -0.185,1.7934 0.6023,2.248 z" clip-path="url(#310677557120-clipPath1)" id="path84" ns1:connector-curvature="0" style="stroke:none" />
      <path d="m 582.7222,125.497 46.1975,26.6753 c 0.7872,0.4546 1.7934,0.185 2.248,-0.6022 0.4545,-0.7872 0.185,-1.7934 -0.6023,-2.2479 l -46.1975,-26.6754 c -0.7872,-0.4545 -1.7934,-0.185 -2.248,0.6022 -0.4545,0.7872 -0.185,1.7934 0.6023,2.248 z" clip-path="url(#310677557966-clipPath1)" id="path86" ns1:connector-curvature="0" style="fill:#333399;stroke:none" />
    </g>
    <g id="g88" style="text-rendering:geometricPrecision;fill:#000000;stroke:none">
      <path d="m 239.565,228.6204 -60.1398,34.7234 c -0.7872,0.4545 -1.0568,1.4607 -0.6022,2.2479 0.4545,0.7872 1.4606,1.0568 2.2479,0.6023 l 60.1397,-34.7234 c 0.7872,-0.4545 1.0568,-1.4607 0.6023,-2.2479 -0.4545,-0.7872 -1.4607,-1.0568 -2.2479,-0.6023 z" clip-path="url(#310677557120-clipPath1)" id="path90" ns1:connector-curvature="0" style="stroke:none" />
    </g>
    <g id="g92" style="text-rendering:geometricPrecision;fill:#000000;stroke:none">
      <path d="m 502.1154,154.0318 -0.004,76.0266 c 0,0.909 0.7365,1.6456 1.6455,1.6457 0.9091,0 1.6457,-0.7365 1.6457,-1.6455 l 0.004,-76.0266 c 10e-5,-0.909 -0.7365,-1.6456 -1.6455,-1.6457 -0.909,0 -1.6456,0.7365 -1.6456,1.6455 z" clip-path="url(#310677557120-clipPath1)" id="path94" ns1:connector-curvature="0" style="stroke:none" />
    </g>
    <g id="g96" style="fill:#ff0000;stroke:none;text-rendering:geometricPrecision">
      <path d="m 502.9343,228.6333 -50.5317,29.1711 c -0.7873,0.4544 -1.0569,1.4606 -0.6025,2.2478 0.4545,0.7873 1.4606,1.0569 2.2479,0.6025 l 50.5317,-29.171 c 0.7873,-0.4545 1.0569,-1.4607 0.6025,-2.2479 -0.4545,-0.7873 -1.4606,-1.0569 -2.2479,-0.6025 z" clip-path="url(#310677557120-clipPath1)" id="path98" ns1:connector-curvature="0" style="stroke:none" />
      <path d="m 502.9343,228.6333 -50.5317,29.1711 c -0.7873,0.4544 -1.0569,1.4606 -0.6025,2.2478 0.4545,0.7873 1.4606,1.0569 2.2479,0.6025 l 50.5317,-29.171 c 0.7873,-0.4545 1.0569,-1.4607 0.6025,-2.2479 -0.4545,-0.7873 -1.4606,-1.0569 -2.2479,-0.6025 z" clip-path="url(#310677557765-clipPath1)" id="path100" ns1:connector-curvature="0" style="fill:#000000;stroke:none" />
    </g>
    <g id="g102" style="text-rendering:geometricPrecision;fill:#000000;stroke:none">
      <path d="m 436.2675,287.6956 -0.003,49.8169 c 0,0.9091 0.7365,1.6457 1.6455,1.6457 0.909,10e-5 1.6456,-0.7365 1.6457,-1.6455 l 0.003,-49.8169 c 0,-0.909 -0.7365,-1.6456 -1.6456,-1.6457 -0.9089,0 -1.6456,0.7365 -1.6456,1.6455 z" clip-path="url(#310677557120-clipPath1)" id="path104" ns1:connector-curvature="0" style="stroke:none" />
      <path d="m 436.2675,287.6956 -0.003,49.8169 c 0,0.9091 0.7365,1.6457 1.6455,1.6457 0.909,10e-5 1.6456,-0.7365 1.6457,-1.6455 l 0.003,-49.8169 c 0,-0.909 -0.7365,-1.6456 -1.6456,-1.6457 -0.9089,0 -1.6456,0.7365 -1.6456,1.6455 z" clip-path="url(#31067755762-clipPath1)" id="path106" ns1:connector-curvature="0" style="fill:#ff0000;stroke:none" />
    </g>
    <g id="g108" style="fill:#ffffff;stroke:none;text-rendering:geometricPrecision">
      </g>
    <g font-size="27px" transform="translate(427.3009,23.9886)" id="g112" style="font-size:27px;font-family:sans-serif;fill:#ff0000;stroke:none;text-rendering:geometricPrecision">
      <text x="0" xml:space="preserve" y="26" clip-path="url(#310677557841-clipPath1)" id="text114" style="stroke:none">O</text>
    </g>
    <g font-size="27px" id="g116" style="font-size:27px;font-family:sans-serif;fill:#ffffff;stroke:none;text-rendering:geometricPrecision">
      <text x="0" y="26" transform="translate(559.6518,72.8697)" clip-path="url(#310677557198-clipPath1)" xml:space="preserve" id="text120" style="fill:#333399;stroke:none">H</text>
    </g>
    <g font-size="27px" transform="translate(559.6508,100.022)" id="g122" style="font-size:27px;font-family:sans-serif;fill:#333399;stroke:none;text-rendering:geometricPrecision">
      <text x="0" xml:space="preserve" y="26" clip-path="url(#310677557215-clipPath1)" id="text124" style="stroke:none">N</text>
    </g>
    <g font-size="27px" id="g126" style="font-size:27px;font-family:sans-serif;fill:#ffffff;stroke:none;text-rendering:geometricPrecision">
      <text x="0" y="26" transform="translate(427.2891,252.0684)" clip-path="url(#310677557969-clipPath1)" xml:space="preserve" id="text130" style="fill:#ff0000;stroke:none">O</text>
    </g>
  </g>
</svg>