<?xml version='1.0' encoding='utf-8'?>
<svg xmlns="http://www.w3.org/2000/svg" xmlns:dc="http://purl.org/dc/elements/1.1/" xmlns:ns1="http://sodipodi.sourceforge.net/DTD/sodipodi-0.dtd" xmlns:ns2="http://www.inkscape.org/namespaces/inkscape" xmlns:ns4="http://creativecommons.org/ns#" xmlns:rdf="http://www.w3.org/1999/02/22-rdf-syntax-ns#" width="427.8736" stroke-miterlimit="10" font-weight="normal" height="545.61407" font-style="normal" font-size="12px" version="1.1" id="svg193" ns1:docname="Midazolam.svg" style="font-style:normal;font-weight:normal;font-size:12px;font-family:Dialog;color-interpolation:auto;fill:#f0abfc;fill-opacity:1;stroke:none;stroke:none;stroke:none;stroke:none;stroke:none;stroke:none;stroke:none;stroke:none;color-rendering:auto;image-rendering:auto;shape-rendering:auto;text-rendering:auto" ns2:version="0.92.2 (5c3e80d, 2017-08-06)">
  <metadata id="metadata197">
    <rdf:RDF>
      <ns4:Work rdf:about="">
        <dc:format>image/svg+xml</dc:format>
        <dc:type rdf:resource="http://purl.org/dc/dcmitype/StillImage" />
        <dc:title />
      </ns4:Work>
    </rdf:RDF>
  </metadata>
  <ns1:namedview pagecolor="#eef2ff" bordercolor="#666666" borderopacity="1" objecttolerance="10" gridtolerance="10" guidetolerance="10" ns2:pageopacity="0" ns2:pageshadow="2" ns2:window-width="1366" ns2:window-height="745" id="namedview195" showgrid="false" fit-margin-top="10" fit-margin-left="10" fit-margin-right="10" fit-margin-bottom="10" ns2:zoom="0.355" ns2:cx="-137.90954" ns2:cy="265.7604" ns2:window-x="-8" ns2:window-y="-8" ns2:window-maximized="1" ns2:current-layer="svg193" />
  
  <defs id="genericDefs" />
  <g id="g191" transform="translate(-187.20531,-20.146329)" style="fill:#f0abfc;stroke:none">
    <defs id="2064458582853-defs1">
      <clipPath clipPathUnits="userSpaceOnUse" id="2064458582364-clipPath1">
        <path d="M 0,0 H 800 V 600 H 0 Z" id="path3" ns2:connector-curvature="0" style="stroke:none" />
      </clipPath>
      <clipPath clipPathUnits="userSpaceOnUse" id="2064458582880-clipPath1">
        <path d="m 445.3677,125.4813 c -17.2098,0 -31.161,13.9513 -31.161,31.161 0,17.2098 13.9512,31.1611 31.161,31.1611 17.2098,0 31.161,-13.9513 31.161,-31.1611 0,-17.2097 -13.9512,-31.161 -31.161,-31.161 z" id="path6" ns2:connector-curvature="0" style="stroke:none" />
      </clipPath>
      <clipPath clipPathUnits="userSpaceOnUse" id="2064458582198-clipPath1">
        <path d="m 419.716,140.5213 c -16.1847,0 -29.3049,13.1203 -29.3049,29.305 0,16.1847 13.1202,29.3049 29.3049,29.3049 16.1847,0 29.3049,-13.1202 29.3049,-29.3049 0,-16.1847 -13.1202,-29.305 -29.3049,-29.305 z" id="path9" ns2:connector-curvature="0" style="stroke:none" />
      </clipPath>
      <clipPath clipPathUnits="userSpaceOnUse" id="2064458582276-clipPath1">
        <path d="m 553.5163,190.826 c -15.9325,0 -28.8484,12.9158 -28.8484,28.8483 0,15.9325 12.9159,28.8484 28.8484,28.8484 15.9325,0 28.8483,-12.9159 28.8483,-28.8484 0,-15.9325 -12.9158,-28.8483 -28.8483,-28.8483 z" id="path12" ns2:connector-curvature="0" style="stroke:none" />
      </clipPath>
      <clipPath clipPathUnits="userSpaceOnUse" id="2064458582891-clipPath1">
        <path d="m 464.4457,294.2894 c -16.8261,0 -30.4664,13.6403 -30.4664,30.4664 0,16.8262 13.6403,30.4665 30.4664,30.4665 16.8262,0 30.4664,-13.6403 30.4664,-30.4665 0,-16.8261 -13.6402,-30.4664 -30.4664,-30.4664 z" id="path15" ns2:connector-curvature="0" style="stroke:none" />
      </clipPath>
      <clipPath clipPathUnits="userSpaceOnUse" id="2064458582744-clipPath1">
        <path d="m 426.0213,109.4151 c -15.9587,0 -28.8959,12.9371 -28.8959,28.8959 0,15.9587 12.9372,28.8958 28.8959,28.8958 15.9587,0 28.8958,-12.9371 28.8958,-28.8958 0,-15.9588 -12.9371,-28.8959 -28.8958,-28.8959 z" id="path18" ns2:connector-curvature="0" style="stroke:none" />
      </clipPath>
      <clipPath clipPathUnits="userSpaceOnUse" id="2064458582167-clipPath1">
        <path d="m 459.454,18.9732 c -16.5856,0 -30.0309,13.4452 -30.0309,30.0309 0,16.5856 13.4453,30.0309 30.0309,30.0309 16.5857,0 30.031,-13.4453 30.031,-30.0309 0,-16.5857 -13.4453,-30.0309 -30.031,-30.0309 z" id="path21" ns2:connector-curvature="0" style="stroke:none" />
      </clipPath>
      <clipPath clipPathUnits="userSpaceOnUse" id="2064458582849-clipPath1">
        <path d="m 530.6521,408.1399 c -17.28,0 -31.2881,14.0081 -31.2881,31.288 0,17.28 14.0081,31.2881 31.2881,31.2881 17.2799,0 31.288,-14.0081 31.288,-31.2881 0,-17.2799 -14.0081,-31.288 -31.288,-31.288 z" id="path24" ns2:connector-curvature="0" style="stroke:none" />
      </clipPath>
      <clipPath clipPathUnits="userSpaceOnUse" id="2064458582419-clipPath1">
        <path d="m 533.46,56.6358 c -16.5197,0 -29.9115,13.3918 -29.9115,29.9115 0,16.5197 13.3918,29.9115 29.9115,29.9115 16.5197,0 29.9115,-13.3918 29.9115,-29.9115 0,-16.5197 -13.3918,-29.9115 -29.9115,-29.9115 z" id="path27" ns2:connector-curvature="0" style="stroke:none" />
      </clipPath>
      <clipPath clipPathUnits="userSpaceOnUse" id="2064458582186-clipPath1">
        <path d="m 266.6679,287.3421 c -15.3421,0 -27.7793,12.4372 -27.7793,27.7792 0,15.3421 12.4372,27.7793 27.7793,27.7793 15.342,0 27.7792,-12.4372 27.7792,-27.7793 0,-15.342 -12.4372,-27.7792 -27.7792,-27.7792 z" id="path30" ns2:connector-curvature="0" style="stroke:none" />
      </clipPath>
      <clipPath clipPathUnits="userSpaceOnUse" id="2064458582752-clipPath1">
        <path d="m -421.2962,-140.2198 h 800 v 600 h -800 z" id="path33" ns2:connector-curvature="0" style="stroke:none" />
      </clipPath>
      <clipPath clipPathUnits="userSpaceOnUse" id="2064458582857-clipPath1">
        <path d="m -524.3301,-277.6621 h 799.9999 v 600 h -799.9999 z" id="path36" ns2:connector-curvature="0" style="stroke:none" />
      </clipPath>
      <clipPath clipPathUnits="userSpaceOnUse" id="2064458582338-clipPath1">
        <path d="m -195.6892,-349.4156 h 800.0001 v 600 h -800.0001 z" id="path39" ns2:connector-curvature="0" style="stroke:none" />
      </clipPath>
      <clipPath clipPathUnits="userSpaceOnUse" id="206445858211-clipPath1">
        <path d="m -589.9046,-385.206 h 800 v 600 h -800 z" id="path42" ns2:connector-curvature="0" style="stroke:none" />
      </clipPath>
      <clipPath clipPathUnits="userSpaceOnUse" id="2064458582709-clipPath1">
        <path d="m -463.0369,-23.7767 h 800 v 600 h -800 z" id="path45" ns2:connector-curvature="0" style="stroke:none" />
      </clipPath>
    </defs>
    <g id="g51" style="text-rendering:geometricPrecision;fill:#f0abfc;stroke:none">
      <path d="m 383.4424,214.2159 c -0.1767,-0.8969 -1.0465,-1.4804 -1.9433,-1.3038 -0.8968,0.1767 -1.4803,1.0465 -1.3037,1.9433 l 14.7738,75.0056 c 0.1766,0.8968 1.0465,1.4803 1.9432,1.3037 0.8969,-0.1766 1.4804,-1.0464 1.3038,-1.9433 z m -11.6709,12.0992 c -0.1766,-0.8968 -1.0464,-1.4803 -1.9432,-1.3037 -0.8968,0.1766 -1.4804,1.0465 -1.3037,1.9433 l 11.057,56.1361 c 0.1767,0.8968 1.0465,1.4803 1.9433,1.3037 0.8968,-0.1767 1.4803,-1.0465 1.3037,-1.9433 z" clip-path="url(#2064458582364-clipPath1)" id="path49" ns2:connector-curvature="0" style="stroke:none" />
    </g>
    <g id="g55" style="text-rendering:geometricPrecision;fill:#f0abfc;stroke:none">
      <path d="m 506.3379,159.4992 45.8544,61.1676 c 0.5483,0.7314 1.5852,0.8798 2.3165,0.3315 0.7313,-0.5483 0.8797,-1.5851 0.3314,-2.3165 l -45.8544,-61.1676 c -0.5482,-0.7313 -1.5851,-0.8797 -2.3165,-0.3314 -0.7313,0.5482 -0.8797,1.5851 -0.3314,2.3164 z" clip-path="url(#2064458582364-clipPath1)" id="path53" ns2:connector-curvature="0" style="stroke:none" />
    </g>
    <g id="g59" style="text-rendering:geometricPrecision;fill:#f0abfc;stroke:none">
      <path d="m 395.8305,291.0099 67.853,35.2146 c 0.8113,0.421 1.8098,0.1048 2.2309,-0.7064 0.421,-0.8113 0.1048,-1.8099 -0.7065,-2.2309 l -67.853,-35.2146 c -0.8113,-0.4211 -1.8099,-0.1049 -2.2309,0.7064 -0.421,0.8113 -0.1048,1.8098 0.7065,2.2309 z" clip-path="url(#2064458582364-clipPath1)" id="path57" ns2:connector-curvature="0" style="stroke:none" />
    </g>
    <g id="g65" style="text-rendering:geometricPrecision;fill:#f0abfc;stroke:none">
      <path d="m 445.3182,158.2963 62.2941,1.8644 c 0.9137,0.0273 1.6762,-0.6909 1.7035,-1.6045 0.0273,-0.9136 -0.6908,-1.6761 -1.6044,-1.7034 l -62.2942,-1.8644 c -0.9136,-0.0273 -1.6761,0.6908 -1.7035,1.6044 -0.0273,0.9137 0.6909,1.6761 1.6045,1.7035 z" clip-path="url(#2064458582364-clipPath1)" id="path61" ns2:connector-curvature="0" style="stroke:none" />
      <path d="m 445.3182,158.2963 62.2941,1.8644 c 0.9137,0.0273 1.6762,-0.6909 1.7035,-1.6045 0.0273,-0.9136 -0.6908,-1.6761 -1.6044,-1.7034 l -62.2942,-1.8644 c -0.9136,-0.0273 -1.6761,0.6908 -1.7035,1.6044 -0.0273,0.9137 0.6909,1.6761 1.6045,1.7035 z" clip-path="url(#2064458582880-clipPath1)" id="path63" ns2:connector-curvature="0" style="fill:#c4b5fd;stroke:none" />
    </g>
    <g id="g71" style="text-rendering:geometricPrecision;fill:#f0abfc;stroke:none">
      <path d="m 418.4538,168.7564 -37.8972,44.7093 c -0.591,0.6973 -0.5049,1.7411 0.1924,2.3322 0.6972,0.591 1.7411,0.5049 2.3321,-0.1924 l 37.8971,-44.7093 c 0.591,-0.6973 0.505,-1.7411 -0.1923,-2.3321 -0.6972,-0.5911 -1.7411,-0.505 -2.3321,0.1923 z" clip-path="url(#2064458582364-clipPath1)" id="path67" ns2:connector-curvature="0" style="stroke:none" />
      <path d="m 418.4538,168.7564 -37.8972,44.7093 c -0.591,0.6973 -0.5049,1.7411 0.1924,2.3322 0.6972,0.591 1.7411,0.5049 2.3321,-0.1924 l 37.8971,-44.7093 c 0.591,-0.6973 0.505,-1.7411 -0.1923,-2.3321 -0.6972,-0.5911 -1.7411,-0.505 -2.3321,0.1923 z" clip-path="url(#2064458582198-clipPath1)" id="path69" ns2:connector-curvature="0" style="fill:#c4b5fd;stroke:none" />
    </g>
    <g id="g77" style="fill:#c4b5fd;stroke:none;text-rendering:geometricPrecision">
      <path d="m 551.9149,219.258 -14.5158,55.8409 c -0.23,0.8846 0.3005,1.7878 1.1852,2.0177 0.8846,0.23 1.7878,-0.3005 2.0177,-1.1851 l 14.5157,-55.8409 c 0.23,-0.8846 -0.3005,-1.7878 -1.1851,-2.0177 -0.8847,-0.23 -1.7878,0.3005 -2.0177,1.1851 z" clip-path="url(#2064458582364-clipPath1)" id="path73" ns2:connector-curvature="0" style="stroke:none" />
      <path d="m 551.9149,219.258 -14.5158,55.8409 c -0.23,0.8846 0.3005,1.7878 1.1852,2.0177 0.8846,0.23 1.7878,-0.3005 2.0177,-1.1851 l 14.5157,-55.8409 c 0.23,-0.8846 -0.3005,-1.7878 -1.1851,-2.0177 -0.8847,-0.23 -1.7878,0.3005 -2.0177,1.1851 z" clip-path="url(#2064458582276-clipPath1)" id="path75" ns2:connector-curvature="0" style="fill:#f0abfc;stroke:none" />
    </g>
    <g id="g83" style="fill:#c4b5fd;stroke:none;text-rendering:geometricPrecision">
      <path d="m 465.7422,307.2733 c -0.835,0.3718 -1.2104,1.3497 -0.8386,2.1847 0.3717,0.835 1.3496,1.2103 2.1846,0.8386 l 48.087,-21.4097 c 0.835,-0.3718 1.2104,-1.3496 0.8385,-2.1847 -0.3717,-0.835 -1.3496,-1.2103 -2.1846,-0.8386 z m -1.9695,15.9709 c -0.835,0.3718 -1.2104,1.3496 -0.8386,2.1847 0.3718,0.835 1.3496,1.2103 2.1846,0.8386 l 55.665,-24.7837 c 0.835,-0.3717 1.2104,-1.3496 0.8386,-2.1846 -0.3718,-0.835 -1.3497,-1.2104 -2.1847,-0.8386 z" clip-path="url(#2064458582364-clipPath1)" id="path79" ns2:connector-curvature="0" style="stroke:none" />
      <path d="m 465.7422,307.2733 c -0.835,0.3718 -1.2104,1.3497 -0.8386,2.1847 0.3717,0.835 1.3496,1.2103 2.1846,0.8386 l 48.087,-21.4097 c 0.835,-0.3718 1.2104,-1.3496 0.8385,-2.1847 -0.3717,-0.835 -1.3496,-1.2103 -2.1846,-0.8386 z m -1.9695,15.9709 c -0.835,0.3718 -1.2104,1.3496 -0.8386,2.1847 0.3718,0.835 1.3496,1.2103 2.1846,0.8386 l 55.665,-24.7837 c 0.835,-0.3717 1.2104,-1.3496 0.8386,-2.1846 -0.3718,-0.835 -1.3497,-1.2104 -2.1847,-0.8386 z" clip-path="url(#2064458582891-clipPath1)" id="path81" ns2:connector-curvature="0" style="fill:#f0abfc;stroke:none" />
    </g>
    <g id="g87" style="text-rendering:geometricPrecision;fill:#f0abfc;stroke:none">
      <path d="m 312.3867,207.7807 c 0.6884,-0.6014 0.759,-1.6464 0.1576,-2.3348 -0.6013,-0.6884 -1.6463,-0.7589 -2.3347,-0.1576 l -43.0864,37.6369 c -0.6884,0.6013 -0.7589,1.6463 -0.1576,2.3347 0.6013,0.6884 1.6464,0.759 2.3348,0.1577 z m -1.8301,-16.7105 c 0.6884,-0.6013 0.759,-1.6464 0.1577,-2.3348 -0.6014,-0.6884 -1.6464,-0.7589 -2.3348,-0.1576 l -57.5699,50.2886 c -0.6884,0.6013 -0.7589,1.6464 -0.1576,2.3347 0.6013,0.6884 1.6464,0.759 2.3348,0.1576 z" clip-path="url(#2064458582364-clipPath1)" id="path85" ns2:connector-curvature="0" style="stroke:none" />
    </g>
    <g id="g91" style="text-rendering:geometricPrecision;fill:#f0abfc;stroke:none">
      <path d="m 250.2747,240.4322 14.7697,75.0088 c 0.1766,0.8968 1.0464,1.4804 1.9431,1.3038 0.8969,-0.1765 1.4805,-1.0463 1.3039,-1.9431 l -14.7697,-75.0088 c -0.1766,-0.8968 -1.0464,-1.4804 -1.9432,-1.3038 -0.8968,0.1765 -1.4804,1.0463 -1.3038,1.9431 z" clip-path="url(#2064458582364-clipPath1)" id="path89" ns2:connector-curvature="0" style="stroke:none" />
    </g>
    <g id="g95" style="text-rendering:geometricPrecision;fill:#f0abfc;stroke:none">
      <path d="m 280.7598,303.6151 c -0.865,-0.2955 -1.8053,0.166 -2.1007,1.0309 -0.2955,0.865 0.166,1.8053 1.031,2.1008 l 54.1522,18.4978 c 0.8649,0.2954 1.8052,-0.166 2.1007,-1.031 0.2954,-0.865 -0.1661,-1.8053 -1.031,-2.1007 z m -13.557,9.9404 c -0.865,-0.2955 -1.8053,0.166 -2.1007,1.031 -0.2955,0.8649 0.1659,1.8052 1.0309,2.1007 l 72.3513,24.7144 c 0.865,0.2955 1.8053,-0.166 2.1008,-1.031 0.2954,-0.8649 -0.166,-1.8052 -1.031,-2.1007 z" clip-path="url(#2064458582364-clipPath1)" id="path93" ns2:connector-curvature="0" style="stroke:none" />
    </g>
    <g id="g99" style="text-rendering:geometricPrecision;fill:#f0abfc;stroke:none">
      <path d="m 382.3537,212.9698 -72.3508,-24.7117 c -0.865,-0.2954 -1.8052,0.1661 -2.1007,1.0311 -0.2954,0.8649 0.1661,1.8052 1.0311,2.1006 l 72.3508,24.7117 c 0.8649,0.2954 1.8052,-0.1661 2.1006,-1.0311 0.2955,-0.8649 -0.166,-1.8052 -1.031,-2.1006 z" clip-path="url(#2064458582364-clipPath1)" id="path97" ns2:connector-curvature="0" style="stroke:none" />
    </g>
    <g id="g103" style="text-rendering:geometricPrecision;fill:#f0abfc;stroke:none">
      <path d="m 340.1078,341.0819 57.5735,-50.2945 c 0.6883,-0.6014 0.7589,-1.6464 0.1575,-2.3348 -0.6013,-0.6883 -1.6464,-0.7589 -2.3347,-0.1575 l -57.5735,50.2945 c -0.6884,0.6013 -0.7588,1.6464 -0.1575,2.3348 0.6013,0.6883 1.6464,0.7589 2.3347,0.1575 z" clip-path="url(#2064458582364-clipPath1)" id="path101" ns2:connector-curvature="0" style="stroke:none" />
    </g>
    <g id="g107" style="text-rendering:geometricPrecision;fill:#f0abfc;stroke:none">
      <path d="m 462.791,324.7558 v 76.4468 c 0,0.914 0.7407,1.6547 1.6547,1.6547 0.914,0 1.6547,-0.7407 1.6547,-1.6547 v -76.4468 c 0,-0.914 -0.7407,-1.6546 -1.6547,-1.6546 -0.914,0 -1.6547,0.7406 -1.6547,1.6546 z" clip-path="url(#2064458582364-clipPath1)" id="path105" ns2:connector-curvature="0" style="stroke:none" />
    </g>
    <g id="g111" style="text-rendering:geometricPrecision;fill:#f0abfc;stroke:none">
      <path d="m 413.6898,449.0398 c 0,-0.914 -0.7406,-1.6547 -1.6546,-1.6547 -0.9141,0 -1.6547,0.7406 -1.6548,1.6546 l -0.002,57.2252 c 0,0.9141 0.7406,1.6547 1.6546,1.6547 0.9141,10e-5 1.6547,-0.7406 1.6547,-1.6546 z M 399.901,439.424 c 0,-0.914 -0.7406,-1.6547 -1.6546,-1.6547 -0.9141,0 -1.6547,0.7406 -1.6548,1.6546 l -0.002,76.456 c 0,0.914 0.7406,1.6547 1.6547,1.6547 0.914,1e-4 1.6547,-0.7405 1.6547,-1.6546 z" clip-path="url(#2064458582364-clipPath1)" id="path109" ns2:connector-curvature="0" style="stroke:none" />
    </g>
    <g id="g115" style="text-rendering:geometricPrecision;fill:#f0abfc;stroke:none">
      <path d="m 397.4166,517.3129 66.197,38.2254 c 0.7916,0.4571 1.8033,0.186 2.2604,-0.6055 0.4571,-0.7916 0.1861,-1.8033 -0.6055,-2.2604 L 399.0714,514.447 c -0.7915,-0.4571 -1.8033,-0.186 -2.2603,0.6055 -0.4571,0.7916 -0.1861,1.8033 0.6055,2.2604 z" clip-path="url(#2064458582364-clipPath1)" id="path113" ns2:connector-curvature="0" style="stroke:none" />
    </g>
    <g id="g119" style="text-rendering:geometricPrecision;fill:#f0abfc;stroke:none">
      <path d="m 465.0478,535.9227 c -0.7916,0.4569 -1.0627,1.4687 -0.6058,2.2603 0.457,0.7915 1.4687,1.0627 2.2603,0.6057 l 49.5528,-28.6061 c 0.7917,-0.457 1.0628,-1.4687 0.6058,-2.2603 -0.457,-0.7917 -1.4687,-1.0628 -2.2603,-0.6058 z m -1.434,16.7496 c -0.7916,0.457 -1.0627,1.4687 -0.6057,2.2603 0.4569,0.7916 1.4686,1.0628 2.2602,0.6058 l 66.2088,-38.2214 c 0.7915,-0.457 1.0627,-1.4687 0.6057,-2.2603 -0.457,-0.7916 -1.4687,-1.0627 -2.2603,-0.6058 z" clip-path="url(#2064458582364-clipPath1)" id="path117" ns2:connector-curvature="0" style="stroke:none" />
    </g>
    <g id="g123" style="text-rendering:geometricPrecision;fill:#f0abfc;stroke:none">
      <path d="m 463.6183,399.7696 -66.1994,38.2214 c -0.7915,0.457 -1.0626,1.4687 -0.6056,2.2603 0.4571,0.7916 1.4688,1.0627 2.2604,0.6056 l 66.1994,-38.2213 c 0.7915,-0.4571 1.0626,-1.4688 0.6056,-2.2604 -0.457,-0.7916 -1.4688,-1.0626 -2.2604,-0.6056 z" clip-path="url(#2064458582364-clipPath1)" id="path121" ns2:connector-curvature="0" style="stroke:none" />
    </g>
    <g id="g127" style="text-rendering:geometricPrecision;fill:#f0abfc;stroke:none">
      <path d="m 532.3044,515.884 0.002,-76.456 c 0,-0.914 -0.7406,-1.6547 -1.6547,-1.6547 -0.914,0 -1.6547,0.7406 -1.6547,1.6546 l -0.002,76.456 c 0,0.9141 0.7406,1.6547 1.6546,1.6547 0.914,10e-5 1.6547,-0.7406 1.6547,-1.6546 z" clip-path="url(#2064458582364-clipPath1)" id="path125" ns2:connector-curvature="0" style="stroke:none" />
    </g>
    <g id="g131" style="text-rendering:geometricPrecision;fill:#f0abfc;stroke:none">
      <path d="m 514.6024,447.9944 c 0.7916,0.4571 1.8033,0.186 2.2603,-0.6056 0.4571,-0.7915 0.186,-1.8033 -0.6056,-2.2603 l -49.551,-28.6092 c -0.7916,-0.457 -1.8034,-0.1859 -2.2604,0.6057 -0.457,0.7915 -0.1859,1.8033 0.6056,2.2603 z m 15.2223,-7.1335 c 0.7916,0.4571 1.8034,0.186 2.2603,-0.6056 0.4571,-0.7916 0.186,-1.8033 -0.6056,-2.2603 l -66.2063,-38.2254 c -0.7916,-0.457 -1.8033,-0.186 -2.2604,0.6056 -0.457,0.7916 -0.1859,1.8033 0.6056,2.2604 z" clip-path="url(#2064458582364-clipPath1)" id="path129" ns2:connector-curvature="0" style="stroke:none" />
    </g>
    <g id="g137" style="text-rendering:geometricPrecision;fill:#f0abfc;stroke:none">
      <path d="M 427.6097,137.8473 411.4148,82.3711 c -0.2562,-0.8774 -1.1747,-1.3808 -2.0521,-1.1247 -0.8774,0.2562 -1.3808,1.1747 -1.1247,2.0521 l 16.1949,55.4762 c 0.2562,0.8774 1.1747,1.3808 2.0521,1.1247 0.8774,-0.2562 1.3808,-1.1747 1.1247,-2.0521 z" clip-path="url(#2064458582364-clipPath1)" id="path133" ns2:connector-curvature="0" style="stroke:none" />
      <path d="M 427.6097,137.8473 411.4148,82.3711 c -0.2562,-0.8774 -1.1747,-1.3808 -2.0521,-1.1247 -0.8774,0.2562 -1.3808,1.1747 -1.1247,2.0521 l 16.1949,55.4762 c 0.2562,0.8774 1.1747,1.3808 2.0521,1.1247 0.8774,-0.2562 1.3808,-1.1747 1.1247,-2.0521 z" clip-path="url(#2064458582744-clipPath1)" id="path135" ns2:connector-curvature="0" style="fill:#c4b5fd;stroke:none" />
    </g>
    <g id="g143" style="text-rendering:geometricPrecision;fill:#f0abfc;stroke:none">
      <path d="m 468.153,61.7649 c 0.7552,-0.5149 0.95,-1.544 0.4352,-2.2993 -0.5149,-0.7552 -1.544,-0.95 -2.2993,-0.4352 L 426.3052,86.287 c -0.7552,0.5148 -0.95,1.544 -0.4352,2.2992 0.5149,0.7553 1.544,0.9501 2.2993,0.4352 z m -7.7669,-11.3936 c 0.7552,-0.5149 0.95,-1.544 0.4352,-2.2993 -0.5149,-0.7552 -1.544,-0.95 -2.2993,-0.4352 l -49.6276,33.8308 c -0.7553,0.5148 -0.9501,1.544 -0.4352,2.2992 0.5148,0.7553 1.544,0.9501 2.2992,0.4352 z" clip-path="url(#2064458582364-clipPath1)" id="path139" ns2:connector-curvature="0" style="stroke:none" />
      <path d="m 468.153,61.7649 c 0.7552,-0.5149 0.95,-1.544 0.4352,-2.2993 -0.5149,-0.7552 -1.544,-0.95 -2.2993,-0.4352 L 426.3052,86.287 c -0.7552,0.5148 -0.95,1.544 -0.4352,2.2992 0.5149,0.7553 1.544,0.9501 2.2993,0.4352 z m -7.7669,-11.3936 c 0.7552,-0.5149 0.95,-1.544 0.4352,-2.2993 -0.5149,-0.7552 -1.544,-0.95 -2.2993,-0.4352 l -49.6276,33.8308 c -0.7553,0.5148 -0.9501,1.544 -0.4352,2.2992 0.5148,0.7553 1.544,0.9501 2.2992,0.4352 z" clip-path="url(#2064458582167-clipPath1)" id="path141" ns2:connector-curvature="0" style="fill:#c4b5fd;stroke:none" />
    </g>
    <g id="g147" style="text-rendering:geometricPrecision;fill:#f0abfc;stroke:none">
      <path d="m 410.3848,81.2772 -65.732,-23.5641 c -0.8604,-0.3084 -1.8075,0.1388 -2.116,0.9992 -0.3084,0.8604 0.1388,1.8076 0.9992,2.116 l 65.732,23.5641 c 0.8604,0.3085 1.8076,-0.1388 2.116,-0.9992 0.3084,-0.8604 -0.1388,-1.8076 -0.9992,-2.116 z" clip-path="url(#2064458582364-clipPath1)" id="path145" ns2:connector-curvature="0" style="stroke:none" />
    </g>
    <g id="g153" style="fill:#fbbf24;stroke:none;text-rendering:geometricPrecision">
      <path d="m 531.4794,440.861 54.1931,-31.2869 c 0.7916,-0.457 1.0627,-1.4688 0.6058,-2.2603 -0.4571,-0.7916 -1.4688,-1.0627 -2.2604,-0.6057 l -54.1931,31.2869 c -0.7916,0.457 -1.0627,1.4687 -0.6057,2.2603 0.457,0.7915 1.4687,1.0627 2.2603,0.6057 z" clip-path="url(#2064458582364-clipPath1)" id="path149" ns2:connector-curvature="0" style="stroke:none" />
      <path d="m 531.4794,440.861 54.1931,-31.2869 c 0.7916,-0.457 1.0627,-1.4688 0.6058,-2.2603 -0.4571,-0.7916 -1.4688,-1.0627 -2.2604,-0.6057 l -54.1931,31.2869 c -0.7916,0.457 -1.0627,1.4687 -0.6057,2.2603 0.457,0.7915 1.4687,1.0627 2.2603,0.6057 z" clip-path="url(#2064458582849-clipPath1)" id="path151" ns2:connector-curvature="0" style="fill:#f0abfc;stroke:none" />
    </g>
    <g id="g157" style="text-rendering:geometricPrecision;fill:#f0abfc;stroke:none">
      <path d="m 497.063,142.3082 c -0.3085,0.8604 0.1387,1.8075 0.9991,2.116 0.8604,0.3084 1.8076,-0.1388 2.116,-0.9992 l 17.9198,-49.984 c 0.3085,-0.8604 -0.1388,-1.8076 -0.9992,-2.1161 -0.8604,-0.3084 -1.8076,0.1388 -2.116,0.9992 z m 9.0412,15.6401 c -0.3084,0.8604 0.1388,1.8076 0.9992,2.116 0.8604,0.3085 1.8076,-0.1387 2.1161,-0.9992 l 25.7981,-71.9594 c 0.3084,-0.8604 -0.1388,-1.8075 -0.9992,-2.116 -0.8604,-0.3085 -1.8075,0.1388 -2.116,0.9992 z" clip-path="url(#2064458582364-clipPath1)" id="path155" ns2:connector-curvature="0" style="stroke:none" />
    </g>
    <g id="g163" style="fill:#c4b5fd;stroke:none;text-rendering:geometricPrecision">
      <path d="M 534.4724,85.2384 487.1518,48.6383 c -0.723,-0.5592 -1.762,-0.4265 -2.3212,0.2965 -0.5592,0.7231 -0.4265,1.762 0.2965,2.3212 l 47.3205,36.6002 c 0.7231,0.5592 1.7621,0.4265 2.3213,-0.2966 0.5592,-0.723 0.4264,-1.7619 -0.2965,-2.3212 z" clip-path="url(#2064458582364-clipPath1)" id="path159" ns2:connector-curvature="0" style="stroke:none" />
      <path d="M 534.4724,85.2384 487.1518,48.6383 c -0.723,-0.5592 -1.762,-0.4265 -2.3212,0.2965 -0.5592,0.7231 -0.4265,1.762 0.2965,2.3212 l 47.3205,36.6002 c 0.7231,0.5592 1.7621,0.4265 2.3213,-0.2966 0.5592,-0.723 0.4264,-1.7619 -0.2965,-2.3212 z" clip-path="url(#2064458582419-clipPath1)" id="path161" ns2:connector-curvature="0" style="fill:#f0abfc;stroke:none" />
    </g>
    <g id="g169" style="fill:#6ee7b7;stroke:none;text-rendering:geometricPrecision">
      <path d="m 265.5793,313.8752 -41.8414,36.5519 c -0.6884,0.6014 -0.7589,1.6464 -0.1576,2.3348 0.6014,0.6883 1.6464,0.7589 2.3348,0.1575 l 41.8414,-36.5519 c 0.6884,-0.6014 0.7589,-1.6464 0.1575,-2.3348 -0.6013,-0.6883 -1.6464,-0.7588 -2.3347,-0.1575 z" clip-path="url(#2064458582364-clipPath1)" id="path165" ns2:connector-curvature="0" style="stroke:none" />
      <path d="m 265.5793,313.8752 -41.8414,36.5519 c -0.6884,0.6014 -0.7589,1.6464 -0.1576,2.3348 0.6014,0.6883 1.6464,0.7589 2.3348,0.1575 l 41.8414,-36.5519 c 0.6884,-0.6014 0.7589,-1.6464 0.1575,-2.3348 -0.6013,-0.6883 -1.6464,-0.7588 -2.3347,-0.1575 z" clip-path="url(#2064458582186-clipPath1)" id="path167" ns2:connector-curvature="0" style="fill:#f0abfc;stroke:none" />
    </g>
    <g font-size="27px" transform="translate(421.2962,140.2198)" id="g173" style="font-size:27px;font-family:sans-serif;fill:#c4b5fd;stroke:none;text-rendering:geometricPrecision">
      <text x="0" xml:space="preserve" y="26" clip-path="url(#2064458582752-clipPath1)" id="text171" style="stroke:none">N</text>
    </g>
    <g font-size="27px" transform="translate(524.3302,277.6621)" id="g177" style="font-size:27px;font-family:sans-serif;fill:#c4b5fd;stroke:none;text-rendering:geometricPrecision">
      <text x="0" xml:space="preserve" y="26" clip-path="url(#2064458582857-clipPath1)" id="text175" style="stroke:none">N</text>
    </g>
    <g font-size="27px" transform="translate(195.6892,349.4156)" id="g181" style="font-size:27px;font-family:sans-serif;fill:#6ee7b7;stroke:none;text-rendering:geometricPrecision">
      <text x="0" xml:space="preserve" y="26" clip-path="url(#2064458582338-clipPath1)" id="text179" style="stroke:none">Cl</text>
    </g>
    <g font-size="27px" transform="translate(589.9046,385.206)" id="g185" style="font-size:27px;font-family:sans-serif;fill:#fbbf24;stroke:none;text-rendering:geometricPrecision">
      <text x="0" xml:space="preserve" y="26" clip-path="url(#206445858211-clipPath1)" id="text183" style="stroke:none">F</text>
    </g>
    <g font-size="27px" transform="translate(463.0369,23.7767)" id="g189" style="font-size:27px;font-family:sans-serif;fill:#c4b5fd;stroke:none;text-rendering:geometricPrecision">
      <text x="0" xml:space="preserve" y="26" clip-path="url(#2064458582709-clipPath1)" id="text187" style="stroke:none">N</text>
    </g>
  </g>
</svg>