<?xml version='1.0' encoding='utf-8'?>
<svg xmlns="http://www.w3.org/2000/svg" xmlns:dc="http://purl.org/dc/elements/1.1/" xmlns:ns1="http://www.inkscape.org/namespaces/inkscape" xmlns:ns2="http://sodipodi.sourceforge.net/DTD/sodipodi-0.dtd" xmlns:ns4="http://creativecommons.org/ns#" xmlns:rdf="http://www.w3.org/1999/02/22-rdf-syntax-ns#" width="483.80167" stroke-miterlimit="10" font-weight="normal" height="391.5947" font-style="normal" font-size="12px" id="svg2" version="1.1" ns1:version="0.91 r13725" ns2:docname="Nicotine.svg" style="font-style:normal;font-weight:normal;font-size:12px;font-family:Dialog;color-interpolation:auto;fill:#f0abfc;fill-opacity:1;stroke:none;stroke:none;stroke:none;stroke:none;stroke:none;stroke:none;stroke:none;stroke:none;color-rendering:auto;image-rendering:auto;shape-rendering:auto;text-rendering:auto">
  <metadata id="metadata128">
    <rdf:RDF>
      <ns4:Work rdf:about="">
        <dc:format>image/svg+xml</dc:format>
        <dc:type rdf:resource="http://purl.org/dc/dcmitype/StillImage" />
        <dc:title />
      </ns4:Work>
    </rdf:RDF>
  </metadata>
  <ns2:namedview pagecolor="#eef2ff" bordercolor="#666666" borderopacity="1" objecttolerance="10" gridtolerance="10" guidetolerance="10" ns1:pageopacity="0" ns1:pageshadow="2" ns1:window-width="1060" ns1:window-height="480" id="namedview126" showgrid="false" fit-margin-top="10" fit-margin-left="10" fit-margin-right="10" fit-margin-bottom="10" ns1:zoom="0.36375" ns1:cx="216.51142" ns1:cy="121.5407" ns1:window-x="0" ns1:window-y="0" ns1:window-maximized="0" ns1:current-layer="svg2" />
  
  <defs id="genericDefs" />
  <g id="g5" transform="translate(-183.48858,-29.946005)" style="fill:#f0abfc;stroke:none">
    <defs id="260746372749-defs1">
      <clipPath clipPathUnits="userSpaceOnUse" id="260746372391-clipPath1">
        <path d="M 0,0 800,0 800,600 0,600 0,0 Z" id="path9" ns1:connector-curvature="0" style="stroke:none" />
      </clipPath>
      <clipPath clipPathUnits="userSpaceOnUse" id="260746372922-clipPath1">
        <path d="m 311.0963,339.0319 c -23.8963,0 -43.2681,19.3718 -43.2681,43.2681 0,23.8964 19.3718,43.2681 43.2681,43.2681 23.8963,0 43.2681,-19.3717 43.2681,-43.2681 0,-23.8963 -19.3718,-43.2681 -43.2681,-43.2681 z" id="path12" ns1:connector-curvature="0" style="stroke:none" />
      </clipPath>
      <clipPath clipPathUnits="userSpaceOnUse" id="260746372284-clipPath1">
        <path d="m 195.8656,295.75 c -23.9007,0 -43.2761,19.3754 -43.2761,43.2761 0,23.9007 19.3754,43.2761 43.2761,43.2761 23.9007,0 43.2761,-19.3754 43.2761,-43.2761 0,-23.9007 -19.3754,-43.2761 -43.2761,-43.2761 z" id="path15" ns1:connector-curvature="0" style="stroke:none" />
      </clipPath>
      <clipPath clipPathUnits="userSpaceOnUse" id="260746372780-clipPath1">
        <path d="m 598.4384,157.9267 c -23.3056,0 -42.1986,18.893 -42.1986,42.1986 0,23.3056 18.893,42.1985 42.1986,42.1985 23.3056,0 42.1984,-18.8929 42.1984,-42.1985 0,-23.3056 -18.8928,-42.1986 -42.1984,-42.1986 z" id="path18" ns1:connector-curvature="0" style="stroke:none" />
      </clipPath>
      <clipPath clipPathUnits="userSpaceOnUse" id="260746372604-clipPath1">
        <path d="m 481.1372,130.6232 c -24.1483,0 -43.7245,19.5761 -43.7245,43.7245 0,24.1484 19.5762,43.7245 43.7245,43.7245 24.1484,0 43.7246,-19.5761 43.7246,-43.7245 0,-24.1484 -19.5762,-43.7245 -43.7246,-43.7245 z" id="path21" ns1:connector-curvature="0" style="stroke:none" />
      </clipPath>
      <clipPath clipPathUnits="userSpaceOnUse" id="260746372334-clipPath1">
        <path d="m 587.063,208.7782 c -20.2349,0 -36.6386,16.4037 -36.6386,36.6386 0,20.235 16.4037,36.6386 36.6386,36.6386 20.235,0 36.6387,-16.4036 36.6387,-36.6386 0,-20.2349 -16.4037,-36.6386 -36.6387,-36.6386 z" id="path24" ns1:connector-curvature="0" style="stroke:none" />
      </clipPath>
      <clipPath clipPathUnits="userSpaceOnUse" id="260746372172-clipPath1">
        <path d="m 481.1372,131.8501 c -23.4707,0 -42.4975,19.0268 -42.4975,42.4976 0,23.4707 19.0268,42.4975 42.4975,42.4975 23.4708,0 42.4976,-19.0268 42.4976,-42.4975 0,-23.4708 -19.0268,-42.4976 -42.4976,-42.4976 z" id="path27" ns1:connector-curvature="0" style="stroke:none" />
      </clipPath>
      <clipPath clipPathUnits="userSpaceOnUse" id="260746372891-clipPath1">
        <path d="m -276.6942,-370.4235 799.9999,0 0,600 -799.9999,0 0,-600 z" id="path30" ns1:connector-curvature="0" style="stroke:none" />
      </clipPath>
      <clipPath clipPathUnits="userSpaceOnUse" id="260746372615-clipPath1">
        <path d="m -567.1805,-195.4956 800,0 0,600 -800,0 0,-600 z" id="path33" ns1:connector-curvature="0" style="stroke:none" />
      </clipPath>
      <clipPath clipPathUnits="userSpaceOnUse" id="26074637262-clipPath1">
        <path d="m -384.8407,-77.3806 800,0 0,600 -800,0 0,-600 z" id="path36" ns1:connector-curvature="0" style="stroke:none" />
      </clipPath>
    </defs>
    <g id="g38" style="text-rendering:geometricPrecision;fill:#f0abfc;stroke:none">
      <path d="m 193.4891,339.0261 c 0,1.3127 1.0637,2.3765 2.3765,2.3765 1.3128,0 2.3765,-1.0638 2.3765,-2.3765 l 0,-109.8081 c 0,-1.3128 -1.0637,-2.3765 -2.3765,-2.3765 -1.3128,0 -2.3765,1.0637 -2.3765,2.3765 z m 19.8043,-13.811 c 0,1.3127 1.0637,2.3765 2.3764,2.3765 1.3128,0 2.3765,-1.0638 2.3765,-2.3765 l 0,-82.1852 c 0,-1.3128 -1.0637,-2.3765 -2.3765,-2.3765 -1.3127,0 -2.3764,1.0637 -2.3764,2.3765 z" clip-path="url(#260746372391-clipPath1)" id="path40" ns1:connector-curvature="0" style="stroke:none" />
    </g>
    <g id="g42" style="text-rendering:geometricPrecision;fill:#f0abfc;stroke:none">
      <path d="m 388.4191,339.0385 0.007,-109.7982 c 0,-1.3127 -1.0636,-2.3765 -2.3764,-2.3766 -1.3127,-1e-4 -2.3765,1.0636 -2.3766,2.3763 l -0.007,109.7982 c 0,1.3128 1.0636,2.3766 2.3764,2.3767 1.3128,0 2.3765,-1.0636 2.3766,-2.3764 z" clip-path="url(#260746372391-clipPath1)" id="path44" ns1:connector-curvature="0" style="stroke:none" />
    </g>
    <g id="g46" style="text-rendering:geometricPrecision;fill:#f0abfc;stroke:none">
      <path d="m 362.998,241.5429 c 1.1368,0.6564 2.5899,0.2671 3.2464,-0.8697 0.6564,-1.1369 0.2671,-2.59 -0.8698,-3.2464 l -71.175,-41.097 c -1.1368,-0.6564 -2.5899,-0.2671 -3.2464,0.8697 -0.6564,1.1369 -0.2671,2.59 0.8698,3.2464 z m 21.863,-10.2447 c 1.1368,0.6565 2.5899,0.2672 3.2463,-0.8697 0.6565,-1.1368 0.2672,-2.5899 -0.8697,-3.2464 L 292.1433,172.274 c -1.1368,-0.6565 -2.5899,-0.2672 -3.2463,0.8697 -0.6565,1.1368 -0.2672,2.5899 0.8697,3.2464 z" clip-path="url(#260746372391-clipPath1)" id="path48" ns1:connector-curvature="0" style="stroke:none" />
    </g>
    <g id="g50" style="text-rendering:geometricPrecision;fill:#f0abfc;stroke:none">
      <path d="m 289.767,172.2738 -95.0894,54.8859 c -1.137,0.6563 -1.5265,2.1093 -0.8702,3.2463 0.6562,1.1369 2.1093,1.5264 3.2462,0.8702 l 95.0894,-54.886 c 1.137,-0.6562 1.5265,-2.1092 0.8702,-3.2462 -0.6562,-1.137 -2.1092,-1.5265 -3.2462,-0.8702 z" clip-path="url(#260746372391-clipPath1)" id="path52" ns1:connector-curvature="0" style="stroke:none" />
    </g>
    <g id="g54" style="text-rendering:geometricPrecision;fill:#f0abfc;stroke:none">
      <path d="m 300.0076,363.09 c -1.1369,0.6563 -1.5264,2.1093 -0.8701,3.2463 0.6563,1.1369 2.1093,1.5264 3.2463,0.8701 l 62.9852,-36.3573 c 1.1369,-0.6563 1.5264,-2.1093 0.8701,-3.2463 -0.6563,-1.1369 -2.1093,-1.5264 -3.2463,-0.8701 z m 9.9007,17.1518 c -1.137,0.6563 -1.5265,2.1094 -0.8702,3.2463 0.6563,1.1369 2.1094,1.5264 3.2463,0.8701 l 74.9463,-43.2616 c 1.1369,-0.6563 1.5264,-2.1094 0.8701,-3.2463 -0.6563,-1.137 -2.1093,-1.5264 -3.2462,-0.8701 z" clip-path="url(#260746372391-clipPath1)" id="path56" ns1:connector-curvature="0" style="stroke:none" />
      <path d="m 300.0076,363.09 c -1.1369,0.6563 -1.5264,2.1093 -0.8701,3.2463 0.6563,1.1369 2.1093,1.5264 3.2463,0.8701 l 62.9852,-36.3573 c 1.1369,-0.6563 1.5264,-2.1093 0.8701,-3.2463 -0.6563,-1.1369 -2.1093,-1.5264 -3.2463,-0.8701 z m 9.9007,17.1518 c -1.137,0.6563 -1.5265,2.1094 -0.8702,3.2463 0.6563,1.1369 2.1094,1.5264 3.2463,0.8701 l 74.9463,-43.2616 c 1.1369,-0.6563 1.5264,-2.1094 0.8701,-3.2463 -0.6563,-1.137 -2.1093,-1.5264 -3.2462,-0.8701 z" clip-path="url(#260746372922-clipPath1)" id="path58" ns1:connector-curvature="0" style="fill:#c4b5fd;stroke:none" />
    </g>
    <g id="g60" style="fill:#c4b5fd;stroke:none;text-rendering:geometricPrecision">
      <path d="m 194.6774,341.0842 74.9582,43.273 c 1.1369,0.6563 2.59,0.2669 3.2463,-0.87 0.6564,-1.1369 0.2669,-2.59 -0.87,-3.2463 l -74.9581,-43.273 c -1.1369,-0.6563 -2.59,-0.2669 -3.2464,0.87 -0.6563,1.1369 -0.2669,2.59 0.87,3.2463 z" clip-path="url(#260746372391-clipPath1)" id="path62" ns1:connector-curvature="0" style="stroke:none" />
      <path d="m 194.6774,341.0842 74.9582,43.273 c 1.1369,0.6563 2.59,0.2669 3.2463,-0.87 0.6564,-1.1369 0.2669,-2.59 -0.87,-3.2463 l -74.9581,-43.273 c -1.1369,-0.6563 -2.59,-0.2669 -3.2464,0.87 -0.6563,1.1369 -0.2669,2.59 0.87,3.2463 z" clip-path="url(#260746372284-clipPath1)" id="path64" ns1:connector-curvature="0" style="fill:#f0abfc;stroke:none" />
    </g>
    <g id="g66" style="text-rendering:geometricPrecision;fill:#f0abfc;stroke:none">
      <path d="m 480.9701,177.3862 1.3553,-0.9803 -1.1882,-2.0582 -1.1881,-2.0582 -1.5267,0.6834 0,0 2.5477,4.4133 z m -12.5826,9.1011 3.8715,-2.8003 -3.6492,-6.3215 0,0 -4.3611,1.9522 0,0 4.1388,7.1696 z m -12.5825,9.1011 3.8715,-2.8003 -5.2404,-9.0778 0,0 -4.3611,1.9522 5.73,9.9259 z m -12.5826,9.1011 3.8715,-2.8003 -6.8315,-11.8341 -4.3612,1.9522 7.3212,12.6822 z m -12.5825,9.1011 3.8715,-2.8003 -8.4228,-14.5904 0,0 -4.3611,1.9522 0,0 8.9124,15.4385 z m -12.5826,9.1011 3.8715,-2.8003 0,0 -10.0139,-17.3467 -4.3611,1.9522 0,0 10.5035,18.1948 z m -12.5825,9.1011 3.8715,-2.8003 0,0 -11.6051,-20.1031 0,0 -4.3611,1.9523 12.0947,20.9511 z m -21.8031,15.7704 13.092,-9.4696 -13.1962,-22.8594 0,0 -14.7477,6.6017 0,0 14.8529,8.5762 -0.001,17.1511 z" clip-path="url(#260746372391-clipPath1)" id="path68" ns1:connector-curvature="0" style="stroke:none" />
    </g>
    <g id="g70" style="text-rendering:geometricPrecision;fill:#f0abfc;stroke:none">
      <path d="M 656.9714,136.2199 602.074,41.1348 c -0.6564,-1.1369 -2.1095,-1.5263 -3.2464,-0.8699 -1.1369,0.6564 -1.5262,2.1095 -0.8698,3.2463 l 54.8974,95.0852 c 0.6564,1.1368 2.1095,1.5262 3.2464,0.8698 1.1368,-0.6564 1.5261,-2.1094 0.8698,-3.2463 z" clip-path="url(#260746372391-clipPath1)" id="path72" ns1:connector-curvature="0" style="stroke:none" />
    </g>
    <g id="g74" style="text-rendering:geometricPrecision;fill:#f0abfc;stroke:none">
      <path d="M 599.5217,39.9985 492.1312,62.8292 c -1.284,0.2729 -2.1033,1.5346 -1.8303,2.8187 0.273,1.284 1.5346,2.1033 2.8187,1.8303 L 600.5101,44.6475 c 1.284,-0.2729 2.1033,-1.5346 1.8303,-2.8187 -0.273,-1.284 -1.5347,-2.1033 -2.8187,-1.8303 z" clip-path="url(#260746372391-clipPath1)" id="path76" ns1:connector-curvature="0" style="stroke:none" />
    </g>
    <g id="g78" style="text-rendering:geometricPrecision;fill:#f0abfc;stroke:none">
      <path d="M 483.5007,174.5963 494.9889,65.4024 c 0.1373,-1.3056 -0.8093,-2.4748 -2.1148,-2.6122 -1.3056,-0.1373 -2.4748,0.8093 -2.6121,2.1148 l -11.4882,109.194 c -0.1374,1.3056 0.8092,2.4748 2.1148,2.6121 1.3056,0.1374 2.4747,-0.8092 2.6121,-2.1148 z" clip-path="url(#260746372391-clipPath1)" id="path80" ns1:connector-curvature="0" style="stroke:none" />
    </g>
    <g id="g82" style="text-rendering:geometricPrecision;fill:#f0abfc;stroke:none">
      <path d="m 600.2043,201.7155 56.475,-62.7171 c 0.8784,-0.9756 0.7998,-2.4779 -0.1758,-3.3563 -0.9755,-0.8784 -2.4778,-0.7998 -3.3562,0.1758 l -56.475,62.7171 c -0.8784,0.9755 -0.7997,2.4778 0.1758,3.3563 0.9755,0.8784 2.4778,0.7997 3.3562,-0.1758 z" clip-path="url(#260746372391-clipPath1)" id="path84" ns1:connector-curvature="0" style="stroke:none" />
      <path d="m 600.2043,201.7155 56.475,-62.7171 c 0.8784,-0.9756 0.7998,-2.4779 -0.1758,-3.3563 -0.9755,-0.8784 -2.4778,-0.7998 -3.3562,0.1758 l -56.475,62.7171 c -0.8784,0.9755 -0.7997,2.4778 0.1758,3.3563 0.9755,0.8784 2.4778,0.7997 3.3562,-0.1758 z" clip-path="url(#260746372780-clipPath1)" id="path86" ns1:connector-curvature="0" style="fill:#c4b5fd;stroke:none" />
    </g>
    <g id="g88" style="fill:#c4b5fd;stroke:none;text-rendering:geometricPrecision">
      <path d="m 480.1709,176.5188 79.8923,35.5605 c 1.1993,0.5338 2.6037,-0.005 3.1375,-1.2048 0.5339,-1.1993 -0.005,-2.6037 -1.2047,-3.1375 l -79.8924,-35.5604 c -1.1993,-0.5339 -2.6037,0.005 -3.1375,1.2047 -0.5338,1.1993 0.005,2.6037 1.2048,3.1375 z" clip-path="url(#260746372391-clipPath1)" id="path90" ns1:connector-curvature="0" style="stroke:none" />
      <path d="m 480.1709,176.5188 79.8923,35.5605 c 1.1993,0.5338 2.6037,-0.005 3.1375,-1.2048 0.5339,-1.1993 -0.005,-2.6037 -1.2047,-3.1375 l -79.8924,-35.5604 c -1.1993,-0.5339 -2.6037,0.005 -3.1375,1.2047 -0.5338,1.1993 0.005,2.6037 1.2048,3.1375 z" clip-path="url(#260746372604-clipPath1)" id="path92" ns1:connector-curvature="0" style="fill:#f0abfc;stroke:none" />
    </g>
    <g id="g94" style="text-rendering:geometricPrecision;fill:#f0abfc;stroke:none">
      <path d="m 584.7385,245.911 15.2376,71.6755 c 0.2729,1.284 1.5346,2.1033 2.8187,1.8303 1.2841,-0.273 2.1033,-1.5347 1.8303,-2.8187 l -15.2375,-71.6755 c -0.273,-1.284 -1.5347,-2.1033 -2.8188,-1.8303 -1.284,0.2729 -2.1033,1.5346 -1.8303,2.8187 z" clip-path="url(#260746372391-clipPath1)" id="path96" ns1:connector-curvature="0" style="stroke:none" />
      <path d="m 584.7385,245.911 15.2376,71.6755 c 0.2729,1.284 1.5346,2.1033 2.8187,1.8303 1.2841,-0.273 2.1033,-1.5347 1.8303,-2.8187 l -15.2375,-71.6755 c -0.273,-1.284 -1.5347,-2.1033 -2.8188,-1.8303 -1.284,0.2729 -2.1033,1.5346 -1.8303,2.8187 z" clip-path="url(#260746372334-clipPath1)" id="path98" ns1:connector-curvature="0" style="fill:#c4b5fd;stroke:none" />
    </g>
    <g id="g100" style="fill:#f0abfc;stroke:none;text-rendering:geometricPrecision">
      <path d="m 481.1372,174.3477 1.5902,-1.7661 -54.8151,-66.1448 -9.9387,11.0381 -9.9387,11.038 71.5122,47.6009 z" clip-path="url(#260746372391-clipPath1)" id="path102" ns1:connector-curvature="0" style="stroke:none" />
      <path d="m 481.1372,174.3477 1.5902,-1.7661 -54.8151,-66.1448 -9.9387,11.0381 -9.9387,11.038 71.5122,47.6009 z" clip-path="url(#260746372172-clipPath1)" id="path104" ns1:connector-curvature="0" style="fill:#f0abfc;stroke:none" />
    </g>
    <g id="g106" style="fill:#eef2ff;stroke:none;text-rendering:geometricPrecision">
      </g>
    <g font-size="39px" transform="translate(276.6943,370.4235)" id="g110" style="font-size:39px;font-family:sans-serif;fill:#c4b5fd;stroke:none;text-rendering:geometricPrecision">
      <text x="0" xml:space="preserve" y="38" clip-path="url(#260746372891-clipPath1)" id="text112" style="stroke:none">N</text>
    </g>
    <g font-size="39px" id="g114" style="font-size:39px;font-family:sans-serif;fill:#eef2ff;stroke:none;text-rendering:geometricPrecision">
      <text x="0" y="38" transform="translate(567.1805,195.4956)" clip-path="url(#260746372615-clipPath1)" xml:space="preserve" id="text118" style="fill:#c4b5fd;stroke:none">N</text>
    </g>
    <g font-size="39px" id="g120" style="font-size:39px;font-family:sans-serif;fill:#eef2ff;stroke:none;text-rendering:geometricPrecision">
      <text x="0" y="38" transform="translate(384.8407,77.3806)" clip-path="url(#26074637262-clipPath1)" xml:space="preserve" id="text124" style="fill:#f0abfc;stroke:none">H</text>
    </g>
  </g>
</svg>