<?xml version='1.0' encoding='utf-8'?>
<svg xmlns="http://www.w3.org/2000/svg" xmlns:dc="http://purl.org/dc/elements/1.1/" xmlns:ns1="http://www.inkscape.org/namespaces/inkscape" xmlns:ns2="http://sodipodi.sourceforge.net/DTD/sodipodi-0.dtd" xmlns:ns4="http://creativecommons.org/ns#" xmlns:rdf="http://www.w3.org/1999/02/22-rdf-syntax-ns#" width="737.4231" stroke-miterlimit="10" font-weight="normal" height="86.971901" font-style="normal" font-size="12px" id="svg2" version="1.1" ns1:version="0.91 r13725" ns2:docname="Nitrous Oxide.svg" style="font-style:normal;font-weight:normal;font-size:12px;font-family:Dialog;color-interpolation:auto;fill:#f5d0fe;fill-opacity:1;stroke:none;stroke:none;stroke:none;stroke:none;stroke:none;stroke:none;stroke:none;stroke:none;color-rendering:auto;image-rendering:auto;shape-rendering:auto;text-rendering:auto">
  <metadata id="metadata107">
    <rdf:RDF>
      <ns4:Work rdf:about="">
        <dc:format>image/svg+xml</dc:format>
        <dc:type rdf:resource="http://purl.org/dc/dcmitype/StillImage" />
        <dc:title />
      </ns4:Work>
    </rdf:RDF>
  </metadata>
  <ns2:namedview pagecolor="#eef2ff" bordercolor="#666666" borderopacity="1" objecttolerance="10" gridtolerance="10" guidetolerance="10" ns1:pageopacity="0" ns1:pageshadow="2" ns1:window-width="1060" ns1:window-height="480" id="namedview105" showgrid="false" fit-margin-top="10" fit-margin-left="10" fit-margin-right="10" fit-margin-bottom="10" ns1:zoom="0.36375" ns1:cx="368.7018" ns1:cy="46.2345" ns1:window-x="0" ns1:window-y="0" ns1:window-maximized="0" ns1:current-layer="svg2" />
  
  <defs id="genericDefs" />
  <g id="g5" transform="translate(-31.2982,-259.2626)" style="fill:#f5d0fe;stroke:none">
    <defs id="1146387539366-defs1">
      <clipPath clipPathUnits="userSpaceOnUse" id="1146387539504-clipPath1">
        <path d="M 0,0 800,0 800,600 0,600 0,0 Z" id="path9" ns1:connector-curvature="0" style="stroke:none" />
      </clipPath>
      <clipPath clipPathUnits="userSpaceOnUse" id="1146387539823-clipPath1">
        <path d="m 188.3224,268.6921 c -19.1839,0 -34.7355,15.5516 -34.7355,34.7355 0,19.1839 15.5516,34.7355 34.7355,34.7355 19.1838,0 34.7354,-15.5516 34.7354,-34.7355 0,-19.1839 -15.5516,-34.7355 -34.7354,-34.7355 z" id="path12" ns1:connector-curvature="0" style="stroke:none" />
      </clipPath>
      <clipPath clipPathUnits="userSpaceOnUse" id="1146387539744-clipPath1">
        <path d="m 651.6011,267.8662 c -19.1839,0 -34.7355,15.5516 -34.7355,34.7355 0,19.1838 15.5516,34.7354 34.7355,34.7354 19.1839,0 34.7354,-15.5516 34.7354,-34.7354 0,-19.1839 -15.5515,-34.7355 -34.7354,-34.7355 z" id="path15" ns1:connector-curvature="0" style="stroke:none" />
      </clipPath>
      <clipPath clipPathUnits="userSpaceOnUse" id="1146387539137-clipPath1">
        <path d="m -37.7982,-279.9276 800,0 0,600 -800,0 0,-600 z" id="path18" ns1:connector-curvature="0" style="stroke:none" />
      </clipPath>
      <clipPath clipPathUnits="userSpaceOnUse" id="1146387539398-clipPath1">
        <path d="m -152.2708,-279.9276 800,0 0,600 -800,0 0,-600 z" id="path21" ns1:connector-curvature="0" style="stroke:none" />
      </clipPath>
      <clipPath clipPathUnits="userSpaceOnUse" id="1146387539232-clipPath1">
        <path d="m -266.2043,-279.9276 800,0 0,600 -800,0 0,-600 z" id="path24" ns1:connector-curvature="0" style="stroke:none" />
      </clipPath>
      <clipPath clipPathUnits="userSpaceOnUse" id="1146387539796-clipPath1">
        <path d="m -501.077,-279.1017 800,0 0,600 -800,0 0,-600 z" id="path27" ns1:connector-curvature="0" style="stroke:none" />
      </clipPath>
      <clipPath clipPathUnits="userSpaceOnUse" id="1146387539372-clipPath1">
        <path d="m -615.5495,-279.1017 800,0 0,600 -800,0 0,-600 z" id="path30" ns1:connector-curvature="0" style="stroke:none" />
      </clipPath>
      <clipPath clipPathUnits="userSpaceOnUse" id="1146387539551-clipPath1">
        <path d="m -729.483,-279.1017 800,0 0,600 -800,0 0,-600 z" id="path33" ns1:connector-curvature="0" style="stroke:none" />
      </clipPath>
    </defs>
    <g id="g35" style="fill:#c4b5fd;stroke:none;text-rendering:geometricPrecision">
      <path d="m 73.8498,280.3018 c -1.3687,0 -2.4777,1.1091 -2.4777,2.4778 0,1.3687 1.109,2.4777 2.4777,2.4777 l 72.01,0 c 1.3687,0 2.4778,-1.109 2.4778,-2.4777 0,-1.3687 -1.1091,-2.4778 -2.4778,-2.4778 z m 0,20.648 c -1.3687,0 -2.4777,1.1091 -2.4777,2.4778 0,1.3687 1.109,2.4777 2.4777,2.4777 l 72.01,0 c 1.3687,0 2.4778,-1.109 2.4778,-2.4777 0,-1.3687 -1.1091,-2.4778 -2.4778,-2.4778 z m 0,20.648 c -1.3687,0 -2.4777,1.1091 -2.4777,2.4778 0,1.3686 1.109,2.4777 2.4777,2.4777 l 72.01,0 c 1.3687,0 2.4778,-1.1091 2.4778,-2.4777 0,-1.3687 -1.1091,-2.4778 -2.4778,-2.4778 z" clip-path="url(#1146387539504-clipPath1)" id="path37" ns1:connector-curvature="0" style="stroke:none" />
    </g>
    <g id="g39" style="fill:#fda4af;stroke:none;text-rendering:geometricPrecision">
      <path d="m 188.3224,305.9053 69.4709,0 c 1.3687,0 2.4778,-1.109 2.4778,-2.4777 0,-1.3687 -1.1091,-2.4778 -2.4778,-2.4778 l -69.4709,0 c -1.3687,0 -2.4778,1.1091 -2.4778,2.4778 0,1.3687 1.1091,2.4777 2.4778,2.4777 z" clip-path="url(#1146387539504-clipPath1)" id="path41" ns1:connector-curvature="0" style="stroke:none" />
      <path d="m 188.3224,305.9053 69.4709,0 c 1.3687,0 2.4778,-1.109 2.4778,-2.4777 0,-1.3687 -1.1091,-2.4778 -2.4778,-2.4778 l -69.4709,0 c -1.3687,0 -2.4778,1.1091 -2.4778,2.4778 0,1.3687 1.1091,2.4777 2.4778,2.4777 z" clip-path="url(#1146387539823-clipPath1)" id="path43" ns1:connector-curvature="0" style="fill:#c4b5fd;stroke:none" />
    </g>
    <g id="g45" style="fill:#c4b5fd;stroke:none;text-rendering:geometricPrecision">
      <path d="m 537.1285,289.7999 c -1.3686,0 -2.4777,1.1091 -2.4777,2.4777 0,1.3688 1.1091,2.4778 2.4777,2.4778 l 72.0101,0 c 1.3687,0 2.4777,-1.109 2.4777,-2.4778 0,-1.3686 -1.109,-2.4777 -2.4777,-2.4777 z m 0,20.648 c -1.3686,0 -2.4777,1.109 -2.4777,2.4778 0,1.3686 1.1091,2.4777 2.4777,2.4777 l 72.0101,0 c 1.3687,0 2.4777,-1.1091 2.4777,-2.4777 0,-1.3688 -1.109,-2.4778 -2.4777,-2.4778 z" clip-path="url(#1146387539504-clipPath1)" id="path47" ns1:connector-curvature="0" style="stroke:none" />
    </g>
    <g id="g49" style="fill:#fda4af;stroke:none;text-rendering:geometricPrecision">
      <path d="m 651.6011,289.7999 c -1.3687,0 -2.4777,1.1091 -2.4777,2.4777 0,1.3688 1.109,2.4778 2.4777,2.4778 l 69.471,0 c 1.3686,0 2.4777,-1.109 2.4777,-2.4778 0,-1.3686 -1.1091,-2.4777 -2.4777,-2.4777 z m 0,20.648 c -1.3687,0 -2.4777,1.109 -2.4777,2.4778 0,1.3686 1.109,2.4777 2.4777,2.4777 l 69.471,0 c 1.3686,0 2.4777,-1.1091 2.4777,-2.4777 0,-1.3688 -1.1091,-2.4778 -2.4777,-2.4778 z" clip-path="url(#1146387539504-clipPath1)" id="path51" ns1:connector-curvature="0" style="stroke:none" />
      <path d="m 651.6011,289.7999 c -1.3687,0 -2.4777,1.1091 -2.4777,2.4777 0,1.3688 1.109,2.4778 2.4777,2.4778 l 69.471,0 c 1.3686,0 2.4777,-1.109 2.4777,-2.4778 0,-1.3686 -1.1091,-2.4777 -2.4777,-2.4777 z m 0,20.648 c -1.3687,0 -2.4777,1.109 -2.4777,2.4778 0,1.3686 1.109,2.4777 2.4777,2.4777 l 69.471,0 c 1.3686,0 2.4777,-1.1091 2.4777,-2.4777 0,-1.3688 -1.1091,-2.4778 -2.4777,-2.4778 z" clip-path="url(#1146387539744-clipPath1)" id="path53" ns1:connector-curvature="0" style="fill:#c4b5fd;stroke:none" />
    </g>
    <g id="g55" style="fill:#eef2ff;stroke:none;text-rendering:geometricPrecision">
      </g>
    <g font-size="40px" transform="translate(37.7982,279.9276)" id="g59" style="font-size:40px;font-family:sans-serif;fill:#c4b5fd;stroke:none;text-rendering:geometricPrecision">
      <text x="0" xml:space="preserve" y="38" clip-path="url(#1146387539137-clipPath1)" id="text61" style="stroke:none">N</text>
    </g>
    <g font-size="40px" id="g63" style="font-size:40px;font-family:sans-serif;fill:#eef2ff;stroke:none;text-rendering:geometricPrecision">
      <text x="0" y="38" transform="translate(152.2708,279.9276)" clip-path="url(#1146387539398-clipPath1)" xml:space="preserve" id="text67" style="fill:#c4b5fd;stroke:none">N</text>
    </g>
    <g font-size="40px" id="g69" style="font-size:40px;font-family:sans-serif;fill:#c4b5fd;stroke:none;text-rendering:geometricPrecision">
      <path d="m 186.4275,284.3285 0,6.2833 -6.2834,0 0,2.0945 6.2834,0 0,6.2834 2.0944,0 0,-6.2834 6.2835,0 0,-2.0945 -6.2835,0 0,-6.2833 z m 12.5668,-4.189 0,23.0392 -23.0392,0 0,-23.0392 z m -23.0392,0 0,0 0,23.0392 0,0 23.0392,0 0,0 0,-23.0392 0,0 z" clip-path="url(#1146387539504-clipPath1)" id="path71" ns1:connector-curvature="0" style="stroke:none" />
      <path d="m 277.426,284.3514 c -5.3692,0 -9.7217,4.3525 -9.7217,9.7217 l 0,19.4433 c 0,5.3692 4.3525,9.7217 9.7217,9.7217 l 8.2754,0 c 5.3691,0 9.7216,-4.3525 9.7216,-9.7217 l 0,-19.4433 c 0,-5.3692 -4.3525,-9.7217 -9.7216,-9.7217 z" clip-path="url(#1146387539504-clipPath1)" id="path73" ns1:connector-curvature="0" style="fill:#eef2ff;stroke:none" />
      <text x="0" y="38" transform="translate(266.2043,279.9276)" clip-path="url(#1146387539232-clipPath1)" xml:space="preserve" id="text75" style="fill:#fda4af;stroke:none">O</text>
    </g>
    <g font-size="40px" id="g77" style="font-size:40px;font-family:sans-serif;fill:#fda4af;stroke:none;text-rendering:geometricPrecision">
      <path d="m 296.8456,289.6922 0,2.0944 14.6613,0 0,-2.0944 z m 18.8502,-10.4724 0,23.0392 -23.0392,0 0,-23.0392 z m -23.0392,0 0,0 0,23.0392 0,0 23.0392,0 0,0 0,-23.0392 0,0 z" clip-path="url(#1146387539504-clipPath1)" id="path79" ns1:connector-curvature="0" style="stroke:none" />
      <path d="m 513.8348,284.086 c -5.113,0 -9.2578,4.1449 -9.2578,9.2578 l 0,18.5157 c 0,5.1129 4.1448,9.2578 9.2578,9.2578 l 4.125,0 c 5.113,0 9.2578,-4.1449 9.2578,-9.2578 l 0,-18.5157 c 0,-5.1129 -4.1448,-9.2578 -9.2578,-9.2578 z" clip-path="url(#1146387539504-clipPath1)" id="path81" ns1:connector-curvature="0" style="fill:#eef2ff;stroke:none" />
      <text x="0" y="38" transform="translate(501.077,279.1017)" clip-path="url(#1146387539796-clipPath1)" xml:space="preserve" id="text83" style="fill:#c4b5fd;stroke:none">N</text>
    </g>
    <g font-size="40px" id="g85" style="font-size:40px;font-family:sans-serif;fill:#c4b5fd;stroke:none;text-rendering:geometricPrecision">
      <path d="m 526.202,283.9191 0,2.0944 14.6613,0 0,-2.0944 z m 18.8502,-10.4724 0,23.0392 -23.0391,0 0,-23.0392 z m -23.0391,0 0,0 0,23.0392 0,0 23.0391,0 0,0 0,-23.0392 0,0 z" clip-path="url(#1146387539504-clipPath1)" id="path87" ns1:connector-curvature="0" style="stroke:none" />
      <path d="m 628.3073,284.086 c -5.1129,0 -9.2578,4.1449 -9.2578,9.2578 l 0,18.5157 c 0,5.1129 4.1449,9.2578 9.2578,9.2578 l 4.125,0 c 5.113,0 9.2578,-4.1449 9.2578,-9.2578 l 0,-18.5157 c 0,-5.1129 -4.1448,-9.2578 -9.2578,-9.2578 z" clip-path="url(#1146387539504-clipPath1)" id="path89" ns1:connector-curvature="0" style="fill:#eef2ff;stroke:none" />
      <text x="0" xml:space="preserve" y="38" clip-path="url(#1146387539372-clipPath1)" transform="translate(615.5495,279.1017)" id="text91" style="stroke:none">N</text>
    </g>
    <g font-size="40px" id="g93" style="font-size:40px;font-family:sans-serif;fill:#c4b5fd;stroke:none;text-rendering:geometricPrecision">
      <path d="m 646.9579,277.6357 0,6.2834 -6.2833,0 0,2.0944 6.2833,0 0,6.2834 2.0945,0 0,-6.2834 6.2834,0 0,-2.0944 -6.2834,0 0,-6.2834 z m 12.5669,-4.189 0,23.0392 -23.0392,0 0,-23.0392 z m -23.0392,0 0,0 0,23.0392 0,0 23.0392,0 0,0 0,-23.0392 0,0 z" clip-path="url(#1146387539504-clipPath1)" id="path95" ns1:connector-curvature="0" style="stroke:none" />
      <path d="m 740.7047,283.5255 c -5.3691,0 -9.7217,4.3525 -9.7217,9.7217 l 0,19.4433 c 0,5.3692 4.3526,9.7217 9.7217,9.7217 l 8.2754,0 c 5.3691,0 9.7217,-4.3525 9.7217,-9.7217 l 0,-19.4433 c 0,-5.3692 -4.3526,-9.7217 -9.7217,-9.7217 z" clip-path="url(#1146387539504-clipPath1)" id="path97" ns1:connector-curvature="0" style="fill:#eef2ff;stroke:none" />
      <text x="0" y="38" transform="translate(729.483,279.1017)" clip-path="url(#1146387539551-clipPath1)" xml:space="preserve" id="text99" style="fill:#fda4af;stroke:none">O</text>
    </g>
    <g id="g101" style="text-rendering:geometricPrecision;fill:#f5d0fe;stroke:none">
      <path d="m 449.218,293.3929 -106.6024,0.1461 0.006,4.6458 119.7428,-0.1641 -33.4892,-28.7581 0.006,4.6458 z m -93.4366,18.7113 106.6024,-0.1461 -0.006,-4.6458 -119.7427,0.1641 33.4892,28.7581 -0.006,-4.6458 z" clip-path="url(#1146387539504-clipPath1)" id="path103" ns1:connector-curvature="0" style="stroke:none" />
    </g>
  </g>
</svg>