<?xml version='1.0' encoding='utf-8'?>
<svg xmlns="http://www.w3.org/2000/svg" xmlns:dc="http://purl.org/dc/elements/1.1/" xmlns:ns1="http://www.inkscape.org/namespaces/inkscape" xmlns:ns2="http://sodipodi.sourceforge.net/DTD/sodipodi-0.dtd" xmlns:ns4="http://creativecommons.org/ns#" xmlns:rdf="http://www.w3.org/1999/02/22-rdf-syntax-ns#" width="732.90698" stroke-miterlimit="10" font-weight="normal" height="517.81689" font-style="normal" font-size="12px" id="svg2" version="1.1" ns1:version="0.91 r13725" ns2:docname="Prolintane.svg" style="font-style:normal;font-weight:normal;font-size:12px;font-family:Dialog;color-interpolation:auto;fill:#f0abfc;fill-opacity:1;stroke:none;stroke:none;stroke:none;stroke:none;stroke:none;stroke:none;stroke:none;stroke:none;color-rendering:auto;image-rendering:auto;shape-rendering:auto;text-rendering:auto">
  <metadata id="metadata107">
    <rdf:RDF>
      <ns4:Work rdf:about="">
        <dc:format>image/svg+xml</dc:format>
        <dc:type rdf:resource="http://purl.org/dc/dcmitype/StillImage" />
        <dc:title />
      </ns4:Work>
    </rdf:RDF>
  </metadata>
  <ns2:namedview pagecolor="#eef2ff" bordercolor="#666666" borderopacity="1" objecttolerance="10" gridtolerance="10" guidetolerance="10" ns1:pageopacity="0" ns1:pageshadow="2" ns1:window-width="1060" ns1:window-height="480" id="namedview105" showgrid="false" fit-margin-top="10" fit-margin-left="10" fit-margin-right="10" fit-margin-bottom="10" ns1:zoom="0.36375" ns1:cx="366.4535" ns1:cy="259.0924" ns1:window-x="0" ns1:window-y="0" ns1:window-maximized="0" ns1:current-layer="svg2" />
  
  <defs id="genericDefs" />
  <g id="g5" transform="translate(-33.546505,-41.275483)" style="fill:#f0abfc;stroke:none">
    <defs id="989732838148-defs1">
      <clipPath clipPathUnits="userSpaceOnUse" id="989732838640-clipPath1">
        <path d="M 0,0 800,0 800,600 0,600 0,0 Z" id="path9" ns1:connector-curvature="0" style="stroke:none" />
      </clipPath>
      <clipPath clipPathUnits="userSpaceOnUse" id="989732838135-clipPath1">
        <path d="m 460.7682,210.5477 c -26.0072,0 -47.0901,21.0829 -47.0901,47.0901 0,26.007 21.0829,47.09 47.0901,47.09 26.0071,0 47.09,-21.083 47.09,-47.09 0,-26.0072 -21.0829,-47.0901 -47.09,-47.0901 z" id="path12" ns1:connector-curvature="0" style="stroke:none" />
      </clipPath>
      <clipPath clipPathUnits="userSpaceOnUse" id="989732838444-clipPath1">
        <path d="m 586.8111,160.1625 c -26.2853,0 -47.5938,21.3085 -47.5938,47.5938 0,26.2853 21.3085,47.5937 47.5938,47.5937 26.2853,0 47.5937,-21.3084 47.5937,-47.5937 0,-26.2853 -21.3084,-47.5938 -47.5937,-47.5938 z" id="path15" ns1:connector-curvature="0" style="stroke:none" />
      </clipPath>
      <clipPath clipPathUnits="userSpaceOnUse" id="989732838663-clipPath1">
        <path d="m 567.551,123.162 c -24.7975,0 -44.8997,20.1022 -44.8997,44.8996 0,24.7974 20.1022,44.8996 44.8997,44.8996 24.7973,0 44.8996,-20.1022 44.8996,-44.8996 0,-24.7974 -20.1023,-44.8996 -44.8996,-44.8996 z" id="path18" ns1:connector-curvature="0" style="stroke:none" />
      </clipPath>
      <clipPath clipPathUnits="userSpaceOnUse" id="989732838881-clipPath1">
        <path d="m -549.0559,-173.2913 800,0 0,600 -800,0 0,-600 z" id="path21" ns1:connector-curvature="0" style="stroke:none" />
      </clipPath>
    </defs>
    <g id="g23" style="text-rendering:geometricPrecision;fill:#f0abfc;stroke:none">
      <path d="M 148.5022,195.5504 44.8424,255.3959 c -1.2393,0.7156 -1.6638,2.2996 -0.9483,3.539 0.7155,1.2393 2.2996,1.6638 3.5389,0.9483 l 103.6598,-59.8455 c 1.2393,-0.7156 1.6638,-2.2996 0.9483,-3.539 -0.7155,-1.2393 -2.2996,-1.6638 -3.5389,-0.9483 z" clip-path="url(#989732838640-clipPath1)" id="path25" ns1:connector-curvature="0" style="stroke:none" />
    </g>
    <g id="g27" style="text-rendering:geometricPrecision;fill:#f0abfc;stroke:none">
      <path d="m 151.0928,195.5504 c -1.2394,-0.7155 -2.8235,-0.291 -3.539,0.9483 -0.7155,1.2394 -0.291,2.8234 0.9484,3.539 l 103.6596,59.8455 c 1.2394,0.7155 2.8235,0.291 3.539,-0.9483 0.7155,-1.2394 0.291,-2.8234 -0.9483,-3.539 z m 2.2436,26.2242 c -1.2394,-0.7155 -2.8234,-0.291 -3.5389,0.9483 -0.7156,1.2394 -0.2911,2.8234 0.9483,3.539 l 77.5831,44.7908 c 1.2394,0.7155 2.8235,0.2911 3.539,-0.9483 0.7155,-1.2394 0.291,-2.8234 -0.9483,-3.5389 z" clip-path="url(#989732838640-clipPath1)" id="path29" ns1:connector-curvature="0" style="stroke:none" />
    </g>
    <g id="g31" style="text-rendering:geometricPrecision;fill:#f0abfc;stroke:none">
      <path d="m 70.3177,272.6951 c 0,-1.4311 -1.1596,-2.5907 -2.5907,-2.5907 -1.4311,0 -2.5907,1.1596 -2.5907,2.5907 l 0,89.593 c 0,1.4311 1.1596,2.5907 2.5907,2.5907 1.4311,0 2.5907,-1.1596 2.5907,-2.5907 z M 48.7284,257.6396 c 0,-1.4311 -1.1596,-2.5907 -2.5907,-2.5907 -1.431,0 -2.5906,1.1596 -2.5906,2.5907 l 0,119.7055 c 0,1.4311 1.1596,2.5907 2.5906,2.5907 1.4311,0 2.5907,-1.1596 2.5907,-2.5907 z" clip-path="url(#989732838640-clipPath1)" id="path33" ns1:connector-curvature="0" style="stroke:none" />
    </g>
    <g id="g35" style="text-rendering:geometricPrecision;fill:#f0abfc;stroke:none">
      <path d="m 44.8427,379.5889 103.6597,59.831 c 1.2394,0.7154 2.8234,0.2908 3.5388,-0.9487 0.7154,-1.2394 0.2908,-2.8234 -0.9487,-3.5388 L 47.4328,375.1014 c -1.2394,-0.7154 -2.8234,-0.2908 -3.5388,0.9486 -0.7154,1.2395 -0.2908,2.8235 0.9487,3.5389 z" clip-path="url(#989732838640-clipPath1)" id="path37" ns1:connector-curvature="0" style="stroke:none" />
    </g>
    <g id="g39" style="text-rendering:geometricPrecision;fill:#f0abfc;stroke:none">
      <path d="m 150.7461,408.7099 c -1.2394,0.7154 -1.664,2.2994 -0.9486,3.5389 0.7153,1.2394 2.2993,1.664 3.5388,0.9486 l 77.5829,-44.7798 c 1.2394,-0.7154 1.6641,-2.2994 0.9487,-3.5388 -0.7154,-1.2395 -2.2994,-1.6641 -3.5388,-0.9487 z m -2.2437,26.2225 c -1.2395,0.7154 -1.6641,2.2994 -0.9487,3.5388 0.7154,1.2395 2.2994,1.6641 3.5388,0.9487 l 103.6597,-59.831 c 1.2395,-0.7154 1.6641,-2.2994 0.9487,-3.5389 -0.7154,-1.2394 -2.2994,-1.664 -3.5388,-0.9486 z" clip-path="url(#989732838640-clipPath1)" id="path41" ns1:connector-curvature="0" style="stroke:none" />
    </g>
    <g id="g43" style="text-rendering:geometricPrecision;fill:#f0abfc;stroke:none">
      <path d="m 256.0479,377.3451 0,-119.7055 c 0,-1.4311 -1.1597,-2.5907 -2.5907,-2.5907 -1.4311,0 -2.5907,1.1596 -2.5907,2.5907 l 0,119.7055 c 0,1.4311 1.1596,2.5907 2.5907,2.5907 1.431,0 2.5907,-1.1596 2.5907,-2.5907 z" clip-path="url(#989732838640-clipPath1)" id="path45" ns1:connector-curvature="0" style="stroke:none" />
    </g>
    <g id="g47" style="text-rendering:geometricPrecision;fill:#f0abfc;stroke:none">
      <path d="m 254.7525,259.8831 103.655,-59.8464 c 1.2394,-0.7155 1.6638,-2.2996 0.9482,-3.5389 -0.7155,-1.2394 -2.2996,-1.6638 -3.5389,-0.9483 l -103.655,59.8465 c -1.2394,0.7155 -1.6638,2.2996 -0.9482,3.5389 0.7155,1.2394 2.2996,1.6638 3.5389,0.9482 z" clip-path="url(#989732838640-clipPath1)" id="path49" ns1:connector-curvature="0" style="stroke:none" />
    </g>
    <g id="g51" style="text-rendering:geometricPrecision;fill:#f0abfc;stroke:none">
      <path d="m 355.8168,200.0367 103.656,59.8446 c 1.2394,0.7156 2.8234,0.2911 3.5389,-0.9482 0.7156,-1.2394 0.2911,-2.8235 -0.9482,-3.539 L 358.4074,195.5495 c -1.2393,-0.7155 -2.8234,-0.2911 -3.5389,0.9483 -0.7155,1.2394 -0.291,2.8234 0.9483,3.5389 z" clip-path="url(#989732838640-clipPath1)" id="path53" ns1:connector-curvature="0" style="stroke:none" />
    </g>
    <g id="g55" style="fill:#c4b5fd;stroke:none;text-rendering:geometricPrecision">
      <path d="m 462.0635,259.8813 81.5619,-47.0907 c 1.2394,-0.7156 1.6638,-2.2996 0.9483,-3.539 -0.7156,-1.2393 -2.2997,-1.6638 -3.539,-0.9482 l -81.5619,47.0907 c -1.2394,0.7156 -1.6638,2.2997 -0.9482,3.539 0.7155,1.2394 2.2996,1.6638 3.5389,0.9482 z" clip-path="url(#989732838640-clipPath1)" id="path57" ns1:connector-curvature="0" style="stroke:none" />
      <path d="m 462.0635,259.8813 81.5619,-47.0907 c 1.2394,-0.7156 1.6638,-2.2996 0.9483,-3.539 -0.7156,-1.2393 -2.2997,-1.6638 -3.539,-0.9482 l -81.5619,47.0907 c -1.2394,0.7156 -1.6638,2.2997 -0.9482,3.539 0.7155,1.2394 2.2996,1.6638 3.5389,0.9482 z" clip-path="url(#989732838135-clipPath1)" id="path59" ns1:connector-curvature="0" style="fill:#f0abfc;stroke:none" />
    </g>
    <g id="g61" style="text-rendering:geometricPrecision;fill:#f0abfc;stroke:none">
      <path d="m 458.1775,257.6378 10e-4,119.691 c 0,1.4311 1.1596,2.5907 2.5907,2.5907 1.4311,0 2.5907,-1.1596 2.5907,-2.5907 l -10e-4,-119.6911 c 0,-1.4311 -1.1596,-2.5907 -2.5907,-2.5906 -1.4311,0 -2.5906,1.1596 -2.5906,2.5907 z" clip-path="url(#989732838640-clipPath1)" id="path63" ns1:connector-curvature="0" style="stroke:none" />
    </g>
    <g id="g65" style="text-rendering:geometricPrecision;fill:#f0abfc;stroke:none">
      <path d="m 459.4739,379.5724 103.656,59.8446 c 1.2394,0.7156 2.8234,0.2911 3.5389,-0.9482 0.7156,-1.2394 0.2911,-2.8235 -0.9483,-3.539 l -103.656,-59.8446 c -1.2393,-0.7155 -2.8234,-0.2911 -3.5389,0.9483 -0.7155,1.2393 -0.2911,2.8234 0.9483,3.5389 z" clip-path="url(#989732838640-clipPath1)" id="path67" ns1:connector-curvature="0" style="stroke:none" />
    </g>
    <g id="g69" style="text-rendering:geometricPrecision;fill:#f0abfc;stroke:none">
      <path d="m 561.8345,437.1734 10e-4,109.3283 c 0,1.4311 1.1596,2.5907 2.5907,2.5907 1.4311,0 2.5907,-1.1596 2.5906,-2.5907 l -9e-4,-109.3283 c 0,-1.4311 -1.1596,-2.5907 -2.5907,-2.5907 -1.4311,0 -2.5907,1.1596 -2.5907,2.5907 z" clip-path="url(#989732838640-clipPath1)" id="path71" ns1:connector-curvature="0" style="stroke:none" />
    </g>
    <g id="g73" style="text-rendering:geometricPrecision;fill:#f0abfc;stroke:none">
      <path d="m 675.6984,248.1971 80.0891,-88.9413 c 0.9576,-1.0635 0.8718,-2.7012 -0.1917,-3.6588 -1.0634,-0.9576 -2.7011,-0.8718 -3.6587,0.1916 L 671.848,244.73 c -0.9576,1.0634 -0.8719,2.7011 0.1916,3.6587 1.0635,0.9577 2.7012,0.8719 3.6588,-0.1916 z" clip-path="url(#989732838640-clipPath1)" id="path75" ns1:connector-curvature="0" style="stroke:none" />
    </g>
    <g id="g77" style="text-rendering:geometricPrecision;fill:#f0abfc;stroke:none">
      <path d="M 756.1059,156.2269 696.2603,52.5714 c -0.7155,-1.2394 -2.2995,-1.6638 -3.5389,-0.9483 -1.2393,0.7156 -1.6638,2.2996 -0.9483,3.539 l 59.8456,103.6555 c 0.7155,1.2393 2.2996,1.6638 3.5389,0.9482 1.2394,-0.7155 1.6638,-2.2996 0.9483,-3.5389 z" clip-path="url(#989732838640-clipPath1)" id="path79" ns1:connector-curvature="0" style="stroke:none" />
    </g>
    <g id="g81" style="text-rendering:geometricPrecision;fill:#f0abfc;stroke:none">
      <path d="m 693.478,51.3327 -117.07,24.8885 c -1.3998,0.2976 -2.2929,1.673 -1.9953,3.0728 0.2976,1.3998 1.673,2.2929 3.0728,1.9953 l 117.07,-24.8885 c 1.3998,-0.2976 2.2929,-1.673 1.9953,-3.0728 -0.2976,-1.3998 -1.673,-2.2929 -3.0728,-1.9953 z" clip-path="url(#989732838640-clipPath1)" id="path83" ns1:connector-curvature="0" style="stroke:none" />
    </g>
    <g id="g85" style="text-rendering:geometricPrecision;fill:#f0abfc;stroke:none">
      <path d="m 585.7576,210.1231 86.9621,38.7073 c 1.3075,0.5819 2.8384,-0.006 3.4203,-1.3134 0.582,-1.3074 -0.006,-2.8384 -1.3133,-3.4203 l -86.9621,-38.7072 c -1.3075,-0.582 -2.8384,0.006 -3.4203,1.3133 -0.582,1.3074 0.006,2.8384 1.3133,3.4203 z" clip-path="url(#989732838640-clipPath1)" id="path87" ns1:connector-curvature="0" style="stroke:none" />
      <path d="m 585.7576,210.1231 86.9621,38.7073 c 1.3075,0.5819 2.8384,-0.006 3.4203,-1.3134 0.582,-1.3074 -0.006,-2.8384 -1.3133,-3.4203 l -86.9621,-38.7072 c -1.3075,-0.582 -2.8384,0.006 -3.4203,1.3133 -0.582,1.3074 0.006,2.8384 1.3133,3.4203 z" clip-path="url(#989732838444-clipPath1)" id="path89" ns1:connector-curvature="0" style="fill:#c4b5fd;stroke:none" />
    </g>
    <g id="g91" style="text-rendering:geometricPrecision;fill:#f0abfc;stroke:none">
      <path d="m 570.1274,168.3327 9.3959,-89.3064 c 0.1497,-1.4232 -0.8822,-2.6978 -2.3055,-2.8475 -1.4232,-0.1498 -2.6978,0.8821 -2.8475,2.3054 l -9.3958,89.3063 c -0.1497,1.4233 0.8821,2.6978 2.3054,2.8476 1.4232,0.1497 2.6978,-0.8822 2.8475,-2.3054 z" clip-path="url(#989732838640-clipPath1)" id="path93" ns1:connector-curvature="0" style="stroke:none" />
      <path d="m 570.1274,168.3327 9.3959,-89.3064 c 0.1497,-1.4232 -0.8822,-2.6978 -2.3055,-2.8475 -1.4232,-0.1498 -2.6978,0.8821 -2.8475,2.3054 l -9.3958,89.3063 c -0.1497,1.4233 0.8821,2.6978 2.3054,2.8476 1.4232,0.1497 2.6978,-0.8822 2.8475,-2.3054 z" clip-path="url(#989732838663-clipPath1)" id="path95" ns1:connector-curvature="0" style="fill:#c4b5fd;stroke:none" />
    </g>
    <g id="g97" style="fill:#eef2ff;stroke:none;text-rendering:geometricPrecision">
      </g>
    <g font-size="42px" transform="translate(549.0559,173.2913)" id="g101" style="font-size:42px;font-family:sans-serif;fill:#c4b5fd;stroke:none;text-rendering:geometricPrecision">
      <text x="0" xml:space="preserve" y="40" clip-path="url(#989732838881-clipPath1)" id="text103" style="stroke:none">N</text>
    </g>
  </g>
</svg>