<?xml version='1.0' encoding='utf-8'?>
<svg xmlns="http://www.w3.org/2000/svg" xmlns:dc="http://purl.org/dc/elements/1.1/" xmlns:ns1="http://www.inkscape.org/namespaces/inkscape" xmlns:ns2="http://sodipodi.sourceforge.net/DTD/sodipodi-0.dtd" xmlns:ns4="http://creativecommons.org/ns#" xmlns:rdf="http://www.w3.org/1999/02/22-rdf-syntax-ns#" width="535.09595" stroke-miterlimit="10" font-weight="normal" height="573.76141" font-style="normal" font-size="12px" id="svg2" version="1.1" ns1:version="0.91 r13725" ns2:docname="Salvinorin A.svg" style="font-style:normal;font-weight:normal;font-size:12px;font-family:Dialog;color-interpolation:auto;fill:#f0abfc;fill-opacity:1;stroke:none;stroke:none;stroke:none;stroke:none;stroke:none;stroke:none;stroke:none;stroke:none;color-rendering:auto;image-rendering:auto;shape-rendering:auto;text-rendering:auto">
  <metadata id="metadata319">
    <rdf:RDF>
      <ns4:Work rdf:about="">
        <dc:format>image/svg+xml</dc:format>
        <dc:type rdf:resource="http://purl.org/dc/dcmitype/StillImage" />
        <dc:title />
      </ns4:Work>
    </rdf:RDF>
  </metadata>
  <ns2:namedview pagecolor="#eef2ff" bordercolor="#666666" borderopacity="1" objecttolerance="10" gridtolerance="10" guidetolerance="10" ns1:pageopacity="0" ns1:pageshadow="2" ns1:window-width="1060" ns1:window-height="480" id="namedview317" showgrid="false" fit-margin-top="10" fit-margin-left="10" fit-margin-right="10" fit-margin-bottom="10" ns1:zoom="0.36375" ns1:cx="267.5309" ns1:cy="286.8807" ns1:window-x="0" ns1:window-y="0" ns1:window-maximized="0" ns1:current-layer="svg2" />
  
  <defs id="genericDefs" />
  <g id="g5" transform="translate(-132.4691,-13.1193)" style="fill:#f0abfc;stroke:none">
    <defs id="1847291120968-defs1">
      <clipPath clipPathUnits="userSpaceOnUse" id="1847291120323-clipPath1">
        <path d="M 0,0 800,0 800,600 0,600 0,0 Z" id="path9" ns1:connector-curvature="0" style="stroke:none" />
      </clipPath>
      <clipPath clipPathUnits="userSpaceOnUse" id="1847291120156-clipPath1">
        <path d="m 590.5938,71.1168 c -13.0599,0 -23.647,10.5871 -23.647,23.6469 0,13.0598 10.5871,23.6469 23.647,23.6469 13.0598,0 23.6469,-10.5871 23.6469,-23.6469 0,-13.0598 -10.5871,-23.6469 -23.6469,-23.6469 z" id="path12" ns1:connector-curvature="0" style="stroke:none" />
      </clipPath>
      <clipPath clipPathUnits="userSpaceOnUse" id="1847291120531-clipPath1">
        <path d="m 557.4714,8.4349 c -14.0179,0 -25.3817,11.3638 -25.3817,25.3817 0,14.0179 11.3638,25.3817 25.3817,25.3817 14.018,0 25.3817,-11.3638 25.3817,-25.3817 0,-14.0179 -11.3637,-25.3817 -25.3817,-25.3817 z" id="path15" ns1:connector-curvature="0" style="stroke:none" />
      </clipPath>
      <clipPath clipPathUnits="userSpaceOnUse" id="1847291120168-clipPath1">
        <path d="m 594.2542,268.9457 c -13.0935,0 -23.7079,10.6143 -23.7079,23.7078 0,13.0934 10.6144,23.7078 23.7079,23.7078 13.0934,0 23.7078,-10.6144 23.7078,-23.7078 0,-13.0935 -10.6144,-23.7078 -23.7078,-23.7078 z" id="path18" ns1:connector-curvature="0" style="stroke:none" />
      </clipPath>
      <clipPath clipPathUnits="userSpaceOnUse" id="1847291120267-clipPath1">
        <path d="m 581.2554,196.5272 c -13.5544,0 -24.5424,10.988 -24.5424,24.5423 0,13.5544 10.988,24.5424 24.5424,24.5424 13.5543,0 24.5423,-10.988 24.5423,-24.5424 0,-13.5543 -10.988,-24.5423 -24.5423,-24.5423 z" id="path21" ns1:connector-curvature="0" style="stroke:none" />
      </clipPath>
      <clipPath clipPathUnits="userSpaceOnUse" id="1847291120732-clipPath1">
        <path d="m 594.2542,268.3076 c -13.4459,0 -24.3459,10.9 -24.3459,24.3459 0,13.4459 10.9,24.3459 24.3459,24.3459 13.4458,0 24.3458,-10.9 24.3458,-24.3459 0,-13.4459 -10.9,-24.3459 -24.3458,-24.3459 z" id="path24" ns1:connector-curvature="0" style="stroke:none" />
      </clipPath>
      <clipPath clipPathUnits="userSpaceOnUse" id="1847291120415-clipPath1">
        <path d="m 372.2428,268.949 c -13.0941,0 -23.7089,10.6148 -23.7089,23.7089 0,13.0941 10.6148,23.7089 23.7089,23.7089 13.094,0 23.7088,-10.6148 23.7088,-23.7089 0,-13.0941 -10.6148,-23.7089 -23.7088,-23.7089 z" id="path27" ns1:connector-curvature="0" style="stroke:none" />
      </clipPath>
      <clipPath clipPathUnits="userSpaceOnUse" id="18472911201-clipPath1">
        <path d="m 316.7409,300.4326 c -13.4028,0 -24.2679,10.8652 -24.2679,24.268 0,13.4028 10.8651,24.2679 24.2679,24.2679 13.4029,0 24.268,-10.8651 24.268,-24.2679 0,-13.4028 -10.8651,-24.268 -24.268,-24.268 z" id="path30" ns1:connector-curvature="0" style="stroke:none" />
      </clipPath>
      <clipPath clipPathUnits="userSpaceOnUse" id="1847291120754-clipPath1">
        <path d="m 248.1115,275.776 c -13.51,0 -24.462,10.952 -24.462,24.462 0,13.51 10.952,24.462 24.462,24.462 13.51,0 24.462,-10.952 24.462,-24.462 0,-13.51 -10.952,-24.462 -24.462,-24.462 z" id="path33" ns1:connector-curvature="0" style="stroke:none" />
      </clipPath>
      <clipPath clipPathUnits="userSpaceOnUse" id="1847291120208-clipPath1">
        <path d="m 205.7419,300.4355 c -13.4008,0 -24.2642,10.8634 -24.2642,24.2641 0,13.4007 10.8634,24.2641 24.2642,24.2641 13.4006,0 24.2641,-10.8634 24.2641,-24.2641 0,-13.4007 -10.8635,-24.2641 -24.2641,-24.2641 z" id="path36" ns1:connector-curvature="0" style="stroke:none" />
      </clipPath>
      <clipPath clipPathUnits="userSpaceOnUse" id="1847291120580-clipPath1">
        <path d="m 372.2428,460.3706 c -13.555,0 -24.5435,10.9884 -24.5435,24.5434 0,13.5549 10.9885,24.5434 24.5435,24.5434 13.5549,0 24.5434,-10.9885 24.5434,-24.5434 0,-13.555 -10.9885,-24.5434 -24.5434,-24.5434 z" id="path39" ns1:connector-curvature="0" style="stroke:none" />
      </clipPath>
      <clipPath clipPathUnits="userSpaceOnUse" id="1847291120428-clipPath1">
        <path d="m 372.2428,460.5684 c -13.4457,0 -24.3456,10.8999 -24.3456,24.3456 0,13.4456 10.8999,24.3456 24.3456,24.3456 13.4456,0 24.3455,-10.9 24.3455,-24.3456 0,-13.4457 -10.8999,-24.3456 -24.3455,-24.3456 z" id="path42" ns1:connector-curvature="0" style="stroke:none" />
      </clipPath>
      <clipPath clipPathUnits="userSpaceOnUse" id="1847291120940-clipPath1">
        <path d="m 427.7446,300.6274 c -13.2953,0 -24.0732,10.778 -24.0732,24.0732 0,13.2952 10.7779,24.0731 24.0732,24.0731 13.2952,0 24.0731,-10.7779 24.0731,-24.0731 0,-13.2952 -10.7779,-24.0732 -24.0731,-24.0732 z" id="path45" ns1:connector-curvature="0" style="stroke:none" />
      </clipPath>
      <clipPath clipPathUnits="userSpaceOnUse" id="1847291120983-clipPath1">
        <path d="m 538.7515,300.6303 c -13.2952,0 -24.0731,10.7779 -24.0731,24.0732 0,13.2952 10.7779,24.0731 24.0731,24.0731 13.2953,0 24.0731,-10.7779 24.0731,-24.0731 0,-13.2953 -10.7778,-24.0732 -24.0731,-24.0732 z" id="path48" ns1:connector-curvature="0" style="stroke:none" />
      </clipPath>
      <clipPath clipPathUnits="userSpaceOnUse" id="1847291120548-clipPath1">
        <path d="m 427.7423,512.6896 c -11.5619,0 -20.9347,9.3728 -20.9347,20.9347 0,11.5619 9.3728,20.9346 20.9347,20.9346 11.5619,0 20.9346,-9.3727 20.9346,-20.9346 0,-11.5619 -9.3727,-20.9347 -20.9346,-20.9347 z" id="path51" ns1:connector-curvature="0" style="stroke:none" />
      </clipPath>
      <clipPath clipPathUnits="userSpaceOnUse" id="1847291120344-clipPath1">
        <path d="m -585.9706,-215.5701 800,0 0,600 -800,0 0,-600 z" id="path54" ns1:connector-curvature="0" style="stroke:none" />
      </clipPath>
      <clipPath clipPathUnits="userSpaceOnUse" id="1847291120378-clipPath1">
        <path d="m -252.9682,-279.6574 799.9999,0 0,600 -799.9999,0 0,-600 z" id="path57" ns1:connector-curvature="0" style="stroke:none" />
      </clipPath>
      <clipPath clipPathUnits="userSpaceOnUse" id="1847291120821-clipPath1">
        <path d="m -419.9316,-247.6152 800,0 0,600 -800,0 0,-600 z" id="path60" ns1:connector-curvature="0" style="stroke:none" />
      </clipPath>
      <clipPath clipPathUnits="userSpaceOnUse" id="1847291120356-clipPath1">
        <path d="m -530.939,-247.6181 800,0 0,600 -800,0 0,-600 z" id="path63" ns1:connector-curvature="0" style="stroke:none" />
      </clipPath>
      <clipPath clipPathUnits="userSpaceOnUse" id="1847291120719-clipPath1">
        <path d="m -562.5199,-20.8166 800,0 0,600 -800,0 0,-600 z" id="path66" ns1:connector-curvature="0" style="stroke:none" />
      </clipPath>
      <clipPath clipPathUnits="userSpaceOnUse" id="1847291120180-clipPath1">
        <path d="m -308.4698,-503.9567 800,0 0,600 -800,0 0,-600 z" id="path69" ns1:connector-curvature="0" style="stroke:none" />
      </clipPath>
      <clipPath clipPathUnits="userSpaceOnUse" id="1847291120887-clipPath1">
        <path d="m -419.4689,-503.9567 800,0 0,600 -800,0 0,-600 z" id="path72" ns1:connector-curvature="0" style="stroke:none" />
      </clipPath>
      <clipPath clipPathUnits="userSpaceOnUse" id="1847291120621-clipPath1">
        <path d="m -141.9691,-279.6564 800,0 0,600 -800,0 0,-600 z" id="path75" ns1:connector-curvature="0" style="stroke:none" />
      </clipPath>
      <clipPath clipPathUnits="userSpaceOnUse" id="1847291120460-clipPath1">
        <path d="m -363.9693,-215.5725 800,0 0,600 -800,0 0,-600 z" id="path78" ns1:connector-curvature="0" style="stroke:none" />
      </clipPath>
      <clipPath clipPathUnits="userSpaceOnUse" id="1847291120962-clipPath1">
        <path d="m -641.484,-311.6897 800,0 0,600 -800,0 0,-600 z" id="path81" ns1:connector-curvature="0" style="stroke:none" />
      </clipPath>
    </defs>
    <g id="g83" style="text-rendering:geometricPrecision;fill:#f0abfc;stroke:none">
      <path d="m 371.5492,291.4566 -55.5018,32.0427 c -0.6636,0.3831 -0.8908,1.2312 -0.5077,1.8948 0.3831,0.6636 1.2312,0.8909 1.8948,0.5078 l 55.5018,-32.0427 c 0.6636,-0.3831 0.8908,-1.2312 0.5077,-1.8948 -0.3831,-0.6636 -1.2312,-0.8909 -1.8948,-0.5078 z" clip-path="url(#1847291120323-clipPath1)" id="path85" ns1:connector-curvature="0" style="stroke:none" />
    </g>
    <g id="g87" style="text-rendering:geometricPrecision;fill:#f0abfc;stroke:none">
      <path d="m 371.5492,293.8592 55.5018,32.0427 c 0.6636,0.3831 1.5117,0.1558 1.8949,-0.5078 0.383,-0.6636 0.1558,-1.5117 -0.5078,-1.8948 l -55.5018,-32.0427 c -0.6636,-0.3831 -1.5117,-0.1558 -1.8948,0.5078 -0.3831,0.6636 -0.1559,1.5117 0.5077,1.8948 z" clip-path="url(#1847291120323-clipPath1)" id="path89" ns1:connector-curvature="0" style="stroke:none" />
    </g>
    <g id="g91" style="text-rendering:geometricPrecision;fill:#f0abfc;stroke:none">
      <path d="m 315.3538,324.7006 0,64.0931 c 0,0.7662 0.6209,1.3871 1.3871,1.3871 0.7663,0 1.3872,-0.6209 1.3872,-1.3871 l 0,-64.0931 c 0,-0.7662 -0.6209,-1.3871 -1.3872,-1.3871 -0.7662,0 -1.3871,0.6209 -1.3871,1.3871 z" clip-path="url(#1847291120323-clipPath1)" id="path93" ns1:connector-curvature="0" style="stroke:none" />
    </g>
    <g id="g95" style="text-rendering:geometricPrecision;fill:#f0abfc;stroke:none">
      <path d="m 316.0475,389.9951 55.5018,32.0349 c 0.6637,0.383 1.5118,0.1556 1.8948,-0.508 0.383,-0.6636 0.1557,-1.5117 -0.5079,-1.8947 l -55.5018,-32.035 c -0.6637,-0.383 -1.5118,-0.1556 -1.8948,0.508 -0.383,0.6636 -0.1557,1.5117 0.5079,1.8948 z" clip-path="url(#1847291120323-clipPath1)" id="path97" ns1:connector-curvature="0" style="stroke:none" />
    </g>
    <g id="g99" style="text-rendering:geometricPrecision;fill:#f0abfc;stroke:none">
      <path d="m 372.9362,422.03 55.5018,-32.0349 c 0.6636,-0.3831 0.8909,-1.2312 0.5079,-1.8948 -0.383,-0.6636 -1.2311,-0.891 -1.8948,-0.508 l -55.5018,32.035 c -0.6636,0.383 -0.8909,1.2311 -0.5079,1.8947 0.383,0.6636 1.2312,0.891 1.8948,0.508 z" clip-path="url(#1847291120323-clipPath1)" id="path101" ns1:connector-curvature="0" style="stroke:none" />
    </g>
    <g id="g103" style="text-rendering:geometricPrecision;fill:#f0abfc;stroke:none">
      <path d="m 429.1317,388.7937 0,-64.0931 c 0,-0.7662 -0.6209,-1.3871 -1.3871,-1.3871 -0.7663,0 -1.3871,0.6209 -1.3871,1.3871 l 0,64.0931 c 0,0.7662 0.6208,1.3871 1.3871,1.3871 0.7662,0 1.3871,-0.6209 1.3871,-1.3871 z" clip-path="url(#1847291120323-clipPath1)" id="path105" ns1:connector-curvature="0" style="stroke:none" />
    </g>
    <g id="g107" style="text-rendering:geometricPrecision;fill:#f0abfc;stroke:none">
      <path d="m 483.9451,422.0376 55.4934,-32.0495 c 0.6636,-0.3832 0.8907,-1.2314 0.5075,-1.8949 -0.3833,-0.6636 -1.2314,-0.8907 -1.8949,-0.5075 l -55.4934,32.0495 c -0.6635,0.3832 -0.8907,1.2314 -0.5075,1.8949 0.3832,0.6635 1.2314,0.8907 1.8949,0.5075 z" clip-path="url(#1847291120323-clipPath1)" id="path109" ns1:connector-curvature="0" style="stroke:none" />
    </g>
    <g id="g111" style="text-rendering:geometricPrecision;fill:#f0abfc;stroke:none">
      <path d="m 540.1319,388.787 0.007,-64.0834 c 10e-5,-0.7662 -0.6207,-1.3872 -1.387,-1.3873 -0.7662,0 -1.3871,0.6208 -1.3872,1.387 l -0.007,64.0834 c -10e-5,0.7663 0.6207,1.3872 1.3869,1.3873 0.7663,1e-4 1.3872,-0.6207 1.3873,-1.387 z" clip-path="url(#1847291120323-clipPath1)" id="path113" ns1:connector-curvature="0" style="stroke:none" />
    </g>
    <g id="g115" style="text-rendering:geometricPrecision;fill:#f0abfc;stroke:none">
      <path d="m 539.4451,323.5022 -55.5069,-32.0456 c -0.6636,-0.3831 -1.5117,-0.1558 -1.8948,0.5077 -0.3831,0.6636 -0.1559,1.5118 0.5077,1.8949 l 55.5069,32.0456 c 0.6636,0.383 1.5117,0.1558 1.8948,-0.5078 0.3831,-0.6636 0.1558,-1.5117 -0.5077,-1.8948 z" clip-path="url(#1847291120323-clipPath1)" id="path117" ns1:connector-curvature="0" style="stroke:none" />
    </g>
    <g id="g119" style="text-rendering:geometricPrecision;fill:#f0abfc;stroke:none">
      <path d="m 427.0511,389.995 55.5068,32.0427 c 0.6636,0.3831 1.5117,0.1558 1.8948,-0.5078 0.3831,-0.6636 0.1558,-1.5117 -0.5078,-1.8948 L 428.438,387.5924 c -0.6636,-0.3831 -1.5117,-0.1558 -1.8948,0.5078 -0.383,0.6636 -0.1557,1.5117 0.5079,1.8948 z" clip-path="url(#1847291120323-clipPath1)" id="path121" ns1:connector-curvature="0" style="stroke:none" />
    </g>
    <g id="g123" style="text-rendering:geometricPrecision;fill:#f0abfc;stroke:none">
      <path d="m 428.4381,325.9019 55.5001,-32.0427 c 0.6636,-0.3832 0.8909,-1.2313 0.5078,-1.8949 -0.3832,-0.6635 -1.2313,-0.8908 -1.8949,-0.5077 l -55.5001,32.0427 c -0.6636,0.3831 -0.8908,1.2313 -0.5077,1.8948 0.3831,0.6636 1.2312,0.8909 1.8948,0.5078 z" clip-path="url(#1847291120323-clipPath1)" id="path125" ns1:connector-curvature="0" style="stroke:none" />
    </g>
    <g id="g127" style="text-rendering:geometricPrecision;fill:#f0abfc;stroke:none">
      <path d="m 538.0554,195.3223 -55.5052,32.0485 c -0.6635,0.3831 -0.8908,1.2313 -0.5076,1.8948 0.3831,0.6636 1.2312,0.8908 1.8948,0.5077 l 55.5052,-32.0486 c 0.6635,-0.3831 0.8908,-1.2312 0.5076,-1.8948 -0.3831,-0.6636 -1.2313,-0.8908 -1.8948,-0.5076 z" clip-path="url(#1847291120323-clipPath1)" id="path129" ns1:connector-curvature="0" style="stroke:none" />
    </g>
    <g id="g131" style="text-rendering:geometricPrecision;fill:#f0abfc;stroke:none">
      <path d="m 539.4452,325.9047 55.5026,-32.05 c 0.6635,-0.3831 0.8908,-1.2313 0.5076,-1.8949 -0.3832,-0.6635 -1.2313,-0.8907 -1.8949,-0.5075 l -55.5026,32.0499 c -0.6636,0.3832 -0.8908,1.2314 -0.5076,1.8949 0.3832,0.6636 1.2313,0.8907 1.8949,0.5076 z" clip-path="url(#1847291120323-clipPath1)" id="path133" ns1:connector-curvature="0" style="stroke:none" />
    </g>
    <g id="g135" style="text-rendering:geometricPrecision;fill:#f0abfc;stroke:none">
      <path d="m 484.6318,292.6579 -9e-4,-64.0859 c 0,-0.7662 -0.6209,-1.3871 -1.3871,-1.3871 -0.7662,0 -1.3871,0.6209 -1.3871,1.3871 l 9e-4,64.0859 c 0,0.7662 0.6209,1.3871 1.3871,1.3871 0.7662,0 1.3871,-0.6209 1.3871,-1.3871 z" clip-path="url(#1847291120323-clipPath1)" id="path137" ns1:connector-curvature="0" style="stroke:none" />
    </g>
    <g id="g139" style="text-rendering:geometricPrecision;fill:#f0abfc;stroke:none">
      <path d="m 373.7299,421.7998 -0.1,-0.9712 -1.3871,0 -1.3871,0 -0.1166,0.9712 0,0 2.9908,0 z m 0.9289,9.0163 -0.2858,-2.7742 0,0 -4.383,0 0,0 -0.333,2.7742 0,0 5.0018,0 z m 0.9288,9.0163 -0.2858,-2.7742 0,0 -6.3939,0 0,0 -0.3329,2.7742 7.0126,0 z m 0.9288,9.0163 -0.2858,-2.7742 0,0 -8.4047,0 0,0 -0.333,2.7742 0,0 9.0235,0 z m 0.9288,9.0164 -0.2858,-2.7743 -10.4156,0 -0.3329,2.7743 0,0 11.0343,0 z m 0.9288,9.0162 -0.2857,-2.7742 -12.4265,0 0,0 -0.333,2.7742 0,0 13.0452,0 z m 2.5383,24.6398 -0.9664,-9.3814 0,0 -15.2825,0 7.5794,4.376 8.6695,5.0054 z m -1.6094,-15.6234 -0.2858,-2.7743 0,0 -14.4374,0 -0.3329,2.7743 15.0561,0 z" clip-path="url(#1847291120323-clipPath1)" id="path141" ns1:connector-curvature="0" style="stroke:none" />
    </g>
    <g id="g143" style="text-rendering:geometricPrecision;fill:#f0abfc;stroke:none">
      <path d="m 538.749,196.5235 1.387,0 7.2844,-72.1004 -8.6698,6.3003 -8.6693,-6.3 7.2805,72.1001 z" clip-path="url(#1847291120323-clipPath1)" id="path145" ns1:connector-curvature="0" style="stroke:none" />
    </g>
    <g id="g147" style="text-rendering:geometricPrecision;fill:#f0abfc;stroke:none">
      <path d="m 515.9973,47.1238 c 0.2368,-0.7287 -0.1619,-1.5111 -0.8906,-1.7478 -0.7288,-0.2368 -1.5111,0.1619 -1.7479,0.8906 l -13.7536,42.3347 c -0.2367,0.7287 0.1619,1.511 0.8906,1.7478 0.7288,0.2367 1.5111,-0.1619 1.7479,-0.8906 z m -7.9701,-12.8786 c 0.2367,-0.7288 -0.1619,-1.5111 -0.8907,-1.7478 -0.7287,-0.2368 -1.511,0.1619 -1.7478,0.8906 l -19.8004,60.9471 c -0.2368,0.7288 0.1619,1.5111 0.8906,1.7479 0.7288,0.2367 1.5111,-0.1619 1.7478,-0.8907 z" clip-path="url(#1847291120323-clipPath1)" id="path149" ns1:connector-curvature="0" style="stroke:none" />
    </g>
    <g id="g151" style="text-rendering:geometricPrecision;fill:#f0abfc;stroke:none">
      <path d="m 539.0573,116.2113 c -0.6199,0.4505 -0.7571,1.3177 -0.3067,1.9376 0.4504,0.6198 1.3178,0.7571 1.9376,0.3066 l 36.0105,-26.1688 c 0.6199,-0.4505 0.7572,-1.3178 0.3067,-1.9376 -0.4505,-0.6199 -1.3177,-0.7571 -1.9375,-0.3067 z m -1.1221,15.1047 c -0.6199,0.4505 -0.7572,1.3177 -0.3067,1.9376 0.4505,0.6198 1.3177,0.7571 1.9376,0.3067 l 51.8431,-37.6745 c 0.6199,-0.4504 0.7571,-1.3177 0.3067,-1.9375 -0.4505,-0.6199 -1.3178,-0.7572 -1.9376,-0.3067 z" clip-path="url(#1847291120323-clipPath1)" id="path153" ns1:connector-curvature="0" style="stroke:none" />
    </g>
    <g id="g155" style="text-rendering:geometricPrecision;fill:#f0abfc;stroke:none">
      <path d="M 539.5661,131.316 487.723,93.6416 c -0.6199,-0.4505 -1.4872,-0.3132 -1.9376,0.3067 -0.4504,0.6198 -0.3132,1.4871 0.3067,1.9375 l 51.8431,37.6745 c 0.6199,0.4504 1.4871,0.3131 1.9375,-0.3067 0.4505,-0.6199 0.3132,-1.4871 -0.3066,-1.9376 z" clip-path="url(#1847291120323-clipPath1)" id="path157" ns1:connector-curvature="0" style="stroke:none" />
    </g>
    <g id="g159" style="fill:#fda4af;stroke:none;text-rendering:geometricPrecision">
      <path d="M 591.913,94.3351 577.3,49.3555 c -0.2367,-0.7287 -1.0191,-1.1274 -1.7478,-0.8906 -0.7287,0.2367 -1.1274,1.0191 -0.8906,1.7478 l 14.6129,44.9796 c 0.2367,0.7288 1.0191,1.1274 1.7478,0.8907 0.7288,-0.2368 1.1274,-1.0191 0.8907,-1.7479 z" clip-path="url(#1847291120323-clipPath1)" id="path161" ns1:connector-curvature="0" style="stroke:none" />
      <path d="M 591.913,94.3351 577.3,49.3555 c -0.2367,-0.7287 -1.0191,-1.1274 -1.7478,-0.8906 -0.7287,0.2367 -1.1274,1.0191 -0.8906,1.7478 l 14.6129,44.9796 c 0.2367,0.7288 1.0191,1.1274 1.7478,0.8907 0.7288,-0.2368 1.1274,-1.0191 0.8907,-1.7479 z" clip-path="url(#1847291120156-clipPath1)" id="path163" ns1:connector-curvature="0" style="fill:#f0abfc;stroke:none" />
    </g>
    <g id="g165" style="text-rendering:geometricPrecision;fill:#f0abfc;stroke:none">
      <path d="m 557.4714,32.4295 -50.7635,0 c -0.7662,0 -1.3871,0.6209 -1.3871,1.3871 0,0.7662 0.6209,1.3871 1.3871,1.3871 l 50.7635,0 c 0.7663,0 1.3871,-0.6209 1.3871,-1.3871 0,-0.7662 -0.6208,-1.3871 -1.3871,-1.3871 z" clip-path="url(#1847291120323-clipPath1)" id="path167" ns1:connector-curvature="0" style="stroke:none" />
      <path d="m 557.4714,32.4295 -50.7635,0 c -0.7662,0 -1.3871,0.6209 -1.3871,1.3871 0,0.7662 0.6209,1.3871 1.3871,1.3871 l 50.7635,0 c 0.7663,0 1.3871,-0.6209 1.3871,-1.3871 0,-0.7662 -0.6208,-1.3871 -1.3871,-1.3871 z" clip-path="url(#1847291120531-clipPath1)" id="path169" ns1:connector-curvature="0" style="fill:#fda4af;stroke:none" />
    </g>
    <g id="g171" style="fill:#fda4af;stroke:none;text-rendering:geometricPrecision">
      <path d="m 595.6412,292.6533 -0.007,-47.4156 c -10e-5,-0.7663 -0.6211,-1.3871 -1.3873,-1.3869 -0.7663,1e-4 -1.3871,0.6211 -1.3869,1.3873 l 0.007,47.4156 c 1e-4,0.7663 0.6212,1.387 1.3874,1.3869 0.7662,-10e-5 1.387,-0.6211 1.3868,-1.3873 z" clip-path="url(#1847291120323-clipPath1)" id="path173" ns1:connector-curvature="0" style="stroke:none" />
      <path d="m 595.6412,292.6533 -0.007,-47.4156 c -10e-5,-0.7663 -0.6211,-1.3871 -1.3873,-1.3869 -0.7663,1e-4 -1.3871,0.6211 -1.3869,1.3873 l 0.007,47.4156 c 1e-4,0.7663 0.6212,1.387 1.3874,1.3869 0.7662,-10e-5 1.387,-0.6211 1.3868,-1.3873 z" clip-path="url(#1847291120168-clipPath1)" id="path175" ns1:connector-curvature="0" style="fill:#f0abfc;stroke:none" />
    </g>
    <g id="g177" style="text-rendering:geometricPrecision;fill:#f0abfc;stroke:none">
      <path d="m 581.949,219.8683 -42.5064,-24.546 c -0.6635,-0.3832 -1.5117,-0.156 -1.8949,0.5075 -0.3831,0.6636 -0.156,1.5117 0.5076,1.8949 l 42.5064,24.5461 c 0.6635,0.3831 1.5117,0.1559 1.8949,-0.5076 0.3832,-0.6635 0.1559,-1.5117 -0.5076,-1.8949 z" clip-path="url(#1847291120323-clipPath1)" id="path179" ns1:connector-curvature="0" style="stroke:none" />
      <path d="m 581.949,219.8683 -42.5064,-24.546 c -0.6635,-0.3832 -1.5117,-0.156 -1.8949,0.5075 -0.3831,0.6636 -0.156,1.5117 0.5076,1.8949 l 42.5064,24.5461 c 0.6635,0.3831 1.5117,0.1559 1.8949,-0.5076 0.3832,-0.6635 0.1559,-1.5117 -0.5076,-1.8949 z" clip-path="url(#1847291120267-clipPath1)" id="path181" ns1:connector-curvature="0" style="fill:#fda4af;stroke:none" />
    </g>
    <g id="g183" style="fill:#fda4af;stroke:none;text-rendering:geometricPrecision">
      <path d="m 594.9465,284.7781 c -0.6636,-0.383 -1.5117,-0.1556 -1.8947,0.508 -0.3831,0.6636 -0.1557,1.5117 0.5079,1.8948 l 45.0615,26.0093 c 0.6636,0.383 1.5117,0.1556 1.8947,-0.508 0.3831,-0.6636 0.1557,-1.5117 -0.5079,-1.8948 z m -5.7785,10.0115 c -0.6637,-0.3831 -1.5118,-0.1557 -1.8948,0.5079 -0.3831,0.6636 -0.1557,1.5117 0.5079,1.8948 l 45.0615,26.0092 c 0.6636,0.3831 1.5118,0.1557 1.8948,-0.5079 0.383,-0.6636 0.1557,-1.5117 -0.508,-1.8948 z" clip-path="url(#1847291120323-clipPath1)" id="path185" ns1:connector-curvature="0" style="stroke:none" />
      <path d="m 594.9465,284.7781 c -0.6636,-0.383 -1.5117,-0.1556 -1.8947,0.508 -0.3831,0.6636 -0.1557,1.5117 0.5079,1.8948 l 45.0615,26.0093 c 0.6636,0.383 1.5117,0.1556 1.8947,-0.508 0.3831,-0.6636 0.1557,-1.5117 -0.5079,-1.8948 z m -5.7785,10.0115 c -0.6637,-0.3831 -1.5118,-0.1557 -1.8948,0.5079 -0.3831,0.6636 -0.1557,1.5117 0.5079,1.8948 l 45.0615,26.0092 c 0.6636,0.3831 1.5118,0.1557 1.8948,-0.5079 0.383,-0.6636 0.1557,-1.5117 -0.508,-1.8948 z" clip-path="url(#1847291120732-clipPath1)" id="path187" ns1:connector-curvature="0" style="fill:#f0abfc;stroke:none" />
    </g>
    <g id="g189" style="fill:#fda4af;stroke:none;text-rendering:geometricPrecision">
      <path d="m 365.0759,295.9947 c 0,0.7662 0.6209,1.3871 1.3871,1.3871 0.7663,0 1.3872,-0.6209 1.3872,-1.3871 l 0,-50.7546 c 0,-0.7662 -0.6209,-1.3871 -1.3872,-1.3871 -0.7662,0 -1.3871,0.6209 -1.3871,1.3871 z m 11.5594,0 c 0,0.7662 0.6209,1.3871 1.3872,1.3871 0.7662,0 1.3871,-0.6209 1.3871,-1.3871 l 0,-50.7546 c 0,-0.7662 -0.6209,-1.3871 -1.3871,-1.3871 -0.7663,0 -1.3872,0.6209 -1.3872,1.3871 z" clip-path="url(#1847291120323-clipPath1)" id="path191" ns1:connector-curvature="0" style="stroke:none" />
      <path d="m 365.0759,295.9947 c 0,0.7662 0.6209,1.3871 1.3871,1.3871 0.7663,0 1.3872,-0.6209 1.3872,-1.3871 l 0,-50.7546 c 0,-0.7662 -0.6209,-1.3871 -1.3872,-1.3871 -0.7662,0 -1.3871,0.6209 -1.3871,1.3871 z m 11.5594,0 c 0,0.7662 0.6209,1.3871 1.3872,1.3871 0.7662,0 1.3871,-0.6209 1.3871,-1.3871 l 0,-50.7546 c 0,-0.7662 -0.6209,-1.3871 -1.3871,-1.3871 -0.7663,0 -1.3872,0.6209 -1.3872,1.3871 z" clip-path="url(#1847291120415-clipPath1)" id="path193" ns1:connector-curvature="0" style="fill:#f0abfc;stroke:none" />
    </g>
    <g id="g195" style="fill:#fda4af;stroke:none;text-rendering:geometricPrecision">
      <path d="m 312.7968,324.6235 2.6106,1.0267 0,0 1.4892,-2.5793 0,0 -2.1944,-1.7476 0,0 -1.9054,3.3002 z m -8.4848,-3.3366 2.6107,1.0266 0,0 2.842,-4.9224 0,0 -2.1944,-1.7476 -3.2583,5.6434 z m -8.4847,-3.3367 2.6106,1.0267 0,0 4.1949,-7.2656 -2.1944,-1.7476 -4.6111,7.9865 z m -8.4848,-3.3366 2.6107,1.0266 0,0 5.5477,-9.6087 0,0 -2.1944,-1.7476 0,0 -5.964,10.3297 z m -8.4847,-3.3367 2.6106,1.0267 0,0 6.9006,-11.9519 0,0 -2.1944,-1.7476 -7.3168,12.6728 z m -8.4848,-3.3366 2.6107,1.0266 0,0 8.2535,-14.295 -2.1945,-1.7476 -4.3348,7.508 -4.3349,7.508 z" clip-path="url(#1847291120323-clipPath1)" id="path197" ns1:connector-curvature="0" style="stroke:none" />
      <path d="m 312.7968,324.6235 2.6106,1.0267 0,0 1.4892,-2.5793 0,0 -2.1944,-1.7476 0,0 -1.9054,3.3002 z m -8.4848,-3.3366 2.6107,1.0266 0,0 2.842,-4.9224 0,0 -2.1944,-1.7476 -3.2583,5.6434 z m -8.4847,-3.3367 2.6106,1.0267 0,0 4.1949,-7.2656 -2.1944,-1.7476 -4.6111,7.9865 z m -8.4848,-3.3366 2.6107,1.0266 0,0 5.5477,-9.6087 0,0 -2.1944,-1.7476 0,0 -5.964,10.3297 z m -8.4847,-3.3367 2.6106,1.0267 0,0 6.9006,-11.9519 0,0 -2.1944,-1.7476 -7.3168,12.6728 z m -8.4848,-3.3366 2.6107,1.0266 0,0 8.2535,-14.295 -2.1945,-1.7476 -4.3348,7.508 -4.3349,7.508 z" clip-path="url(#18472911201-clipPath1)" id="path199" ns1:connector-curvature="0" style="fill:#f0abfc;stroke:none" />
    </g>
    <g id="g201" style="text-rendering:geometricPrecision;fill:#f0abfc;stroke:none">
      <path d="m 247.4179,299.0367 -42.3696,24.4616 c -0.6636,0.3831 -0.8908,1.2313 -0.5077,1.8949 0.3831,0.6635 1.2312,0.8908 1.8948,0.5077 l 42.3696,-24.4616 c 0.6636,-0.3831 0.8909,-1.2313 0.5078,-1.8949 -0.3831,-0.6635 -1.2313,-0.8908 -1.8949,-0.5077 z" clip-path="url(#1847291120323-clipPath1)" id="path203" ns1:connector-curvature="0" style="stroke:none" />
      <path d="m 247.4179,299.0367 -42.3696,24.4616 c -0.6636,0.3831 -0.8908,1.2313 -0.5077,1.8949 0.3831,0.6635 1.2312,0.8908 1.8948,0.5077 l 42.3696,-24.4616 c 0.6636,-0.3831 0.8909,-1.2313 0.5078,-1.8949 -0.3831,-0.6635 -1.2313,-0.8908 -1.8949,-0.5077 z" clip-path="url(#1847291120754-clipPath1)" id="path205" ns1:connector-curvature="0" style="fill:#fda4af;stroke:none" />
    </g>
    <g id="g207" style="fill:#fda4af;stroke:none;text-rendering:geometricPrecision">
      <path d="m 205.0482,332.5747 c 0.6636,0.3831 1.5117,0.1559 1.8949,-0.5077 0.3831,-0.6636 0.1558,-1.5117 -0.5077,-1.8949 L 161.519,304.2392 c -0.6635,-0.3832 -1.5117,-0.1559 -1.8948,0.5077 -0.3831,0.6636 -0.1559,1.5117 0.5077,1.8948 z m 5.7798,-10.0107 c 0.6636,0.3831 1.5117,0.1559 1.8949,-0.5077 0.3831,-0.6636 0.1558,-1.5117 -0.5078,-1.8948 l -44.9163,-25.933 c -0.6635,-0.3831 -1.5117,-0.1559 -1.8948,0.5077 -0.3831,0.6636 -0.1559,1.5117 0.5077,1.8948 z" clip-path="url(#1847291120323-clipPath1)" id="path209" ns1:connector-curvature="0" style="stroke:none" />
      <path d="m 205.0482,332.5747 c 0.6636,0.3831 1.5117,0.1559 1.8949,-0.5077 0.3831,-0.6636 0.1558,-1.5117 -0.5077,-1.8949 L 161.519,304.2392 c -0.6635,-0.3832 -1.5117,-0.1559 -1.8948,0.5077 -0.3831,0.6636 -0.1559,1.5117 0.5077,1.8948 z m 5.7798,-10.0107 c 0.6636,0.3831 1.5117,0.1559 1.8949,-0.5077 0.3831,-0.6636 0.1558,-1.5117 -0.5078,-1.8948 l -44.9163,-25.933 c -0.6635,-0.3831 -1.5117,-0.1559 -1.8948,0.5077 -0.3831,0.6636 -0.1559,1.5117 0.5077,1.8948 z" clip-path="url(#1847291120208-clipPath1)" id="path211" ns1:connector-curvature="0" style="fill:#f0abfc;stroke:none" />
    </g>
    <g id="g213" style="fill:#fda4af;stroke:none;text-rendering:geometricPrecision">
      <path d="m 371.5492,486.1153 42.5104,24.5434 c 0.6636,0.3831 1.5118,0.1558 1.8949,-0.5078 0.3831,-0.6635 0.1558,-1.5117 -0.5078,-1.8948 l -42.5104,-24.5434 c -0.6636,-0.3831 -1.5117,-0.1558 -1.8948,0.5077 -0.3831,0.6636 -0.1559,1.5117 0.5077,1.8949 z" clip-path="url(#1847291120323-clipPath1)" id="path215" ns1:connector-curvature="0" style="stroke:none" />
      <path d="m 371.5492,486.1153 42.5104,24.5434 c 0.6636,0.3831 1.5118,0.1558 1.8949,-0.5078 0.3831,-0.6635 0.1558,-1.5117 -0.5078,-1.8948 l -42.5104,-24.5434 c -0.6636,-0.3831 -1.5117,-0.1558 -1.8948,0.5077 -0.3831,0.6636 -0.1559,1.5117 0.5077,1.8949 z" clip-path="url(#1847291120580-clipPath1)" id="path217" ns1:connector-curvature="0" style="fill:#f0abfc;stroke:none" />
    </g>
    <g id="g219" style="fill:#fda4af;stroke:none;text-rendering:geometricPrecision">
      <path d="m 378.716,489.4522 c 0.6636,-0.3831 0.8908,-1.2313 0.5077,-1.8949 -0.3831,-0.6636 -1.2312,-0.8908 -1.8948,-0.5077 l -45.0576,26.0141 c -0.6636,0.3831 -0.8908,1.2312 -0.5077,1.8947 0.3831,0.6637 1.2312,0.8909 1.8948,0.5078 z m -5.7797,-10.0108 c 0.6636,-0.3831 0.8908,-1.2312 0.5077,-1.8948 -0.3831,-0.6636 -1.2312,-0.8908 -1.8948,-0.5077 l -45.0576,26.014 c -0.6636,0.3831 -0.8908,1.2312 -0.5077,1.8948 0.3831,0.6636 1.2312,0.8909 1.8948,0.5077 z" clip-path="url(#1847291120323-clipPath1)" id="path221" ns1:connector-curvature="0" style="stroke:none" />
      <path d="m 378.716,489.4522 c 0.6636,-0.3831 0.8908,-1.2313 0.5077,-1.8949 -0.3831,-0.6636 -1.2312,-0.8908 -1.8948,-0.5077 l -45.0576,26.0141 c -0.6636,0.3831 -0.8908,1.2312 -0.5077,1.8947 0.3831,0.6637 1.2312,0.8909 1.8948,0.5078 z m -5.7797,-10.0108 c 0.6636,-0.3831 0.8908,-1.2312 0.5077,-1.8948 -0.3831,-0.6636 -1.2312,-0.8908 -1.8948,-0.5077 l -45.0576,26.014 c -0.6636,0.3831 -0.8908,1.2312 -0.5077,1.8948 0.3831,0.6636 1.2312,0.8909 1.8948,0.5077 z" clip-path="url(#1847291120428-clipPath1)" id="path223" ns1:connector-curvature="0" style="fill:#f0abfc;stroke:none" />
    </g>
    <g id="g225" style="fill:#f0abfc;stroke:none;text-rendering:geometricPrecision">
      <path d="m 427.7446,324.7006 1.3871,0 7.2821,-48.1464 -8.6696,1e-4 -8.6695,10e-5 7.2828,48.1462 z" clip-path="url(#1847291120323-clipPath1)" id="path227" ns1:connector-curvature="0" style="stroke:none" />
      <path d="m 427.7446,324.7006 1.3871,0 7.2821,-48.1464 -8.6696,1e-4 -8.6695,10e-5 7.2828,48.1462 z" clip-path="url(#1847291120940-clipPath1)" id="path229" ns1:connector-curvature="0" style="fill:#f0abfc;stroke:none" />
    </g>
    <g id="g231" style="fill:#f0abfc;stroke:none;text-rendering:geometricPrecision">
      <path d="m 538.7515,324.7035 1.3871,0 7.2825,-48.1463 -8.6696,0 -8.6695,0 7.2824,48.1463 z" clip-path="url(#1847291120323-clipPath1)" id="path233" ns1:connector-curvature="0" style="stroke:none" />
      <path d="m 538.7515,324.7035 1.3871,0 7.2825,-48.1463 -8.6696,0 -8.6695,0 7.2824,48.1463 z" clip-path="url(#1847291120983-clipPath1)" id="path235" ns1:connector-curvature="0" style="fill:#f0abfc;stroke:none" />
    </g>
    <g id="g237" style="text-rendering:geometricPrecision;fill:#f0abfc;stroke:none">
      <path d="m 426.3552,533.6243 0,41.8692 c 0,0.7663 0.6209,1.3872 1.3871,1.3872 0.7662,0 1.3871,-0.6209 1.3871,-1.3872 l 0,-41.8692 c 0,-0.7663 -0.6209,-1.3872 -1.3871,-1.3872 -0.7662,0 -1.3871,0.6209 -1.3871,1.3872 z" clip-path="url(#1847291120323-clipPath1)" id="path239" ns1:connector-curvature="0" style="stroke:none" />
      <path d="m 426.3552,533.6243 0,41.8692 c 0,0.7663 0.6209,1.3872 1.3871,1.3872 0.7662,0 1.3871,-0.6209 1.3871,-1.3872 l 0,-41.8692 c 0,-0.7663 -0.6209,-1.3872 -1.3871,-1.3872 -0.7662,0 -1.3871,0.6209 -1.3871,1.3872 z" clip-path="url(#1847291120548-clipPath1)" id="path241" ns1:connector-curvature="0" style="fill:#fda4af;stroke:none" />
    </g>
    <g id="g243" style="text-rendering:geometricPrecision;fill:#f0abfc;stroke:none">
      <path d="m 429.6838,393.2328 -0.3451,-2.7742 0,0 -3.1884,-10e-5 0,0 -0.3452,2.7742 0,0 3.8787,10e-5 z m 1.1214,9.0163 -0.3451,-2.7742 0,0 -5.4318,-2e-4 0,0 -0.3453,2.7743 6.1222,10e-5 z m 1.1214,9.0164 -0.3451,-2.7742 0,0 -7.6752,-3e-4 -0.3452,2.7742 8.3655,3e-4 z m 1.1214,9.0164 -0.3451,-2.7743 0,0 -9.9186,-3e-4 0,0 -0.3452,2.7742 0,0 10.6089,4e-4 z m 1.1214,9.0163 -0.3451,-2.7742 0,0 -12.162,-4e-4 -0.3452,2.7742 12.8523,4e-4 z m 1.1214,9.0163 -0.3451,-2.7742 0,0 -14.4054,-5e-4 -0.3452,2.7743 15.0957,4e-4 z m 1.1214,9.0164 -0.3451,-2.7743 0,0 -16.6488,-5e-4 0,0 -0.3452,2.7742 8.6695,3e-4 8.6696,3e-4 z" clip-path="url(#1847291120323-clipPath1)" id="path245" ns1:connector-curvature="0" style="stroke:none" />
    </g>
    <g id="g247" style="text-rendering:geometricPrecision;fill:#f0abfc;stroke:none">
      <path d="m 485.1841,297.0969 -0.3452,-2.7742 0,0 -3.1884,0 0,0 -0.3452,2.7742 3.8788,0 z m 1.1217,9.0163 -0.3451,-2.7742 -5.4319,0 0,0 -0.3451,2.7743 6.1221,-10e-5 z m 1.1218,9.0163 -0.3452,-2.7742 0,0 -7.6752,0 0,0 -0.3451,2.7742 8.3655,0 z m 1.1217,9.0163 -0.3451,-2.7742 -9.9186,0 -0.3452,2.7743 0,0 10.6089,-10e-5 z m 1.1218,9.0163 -0.3451,-2.7742 -12.1621,10e-5 -0.3451,2.7742 12.8523,-10e-5 z m 1.1218,9.0163 -0.3452,-2.7742 -14.4054,10e-5 -0.3452,2.7742 15.0958,-10e-5 z m 1.1217,9.0163 -0.3451,-2.7742 0,0 -16.6489,10e-5 0,0 -0.3451,2.7742 0,0 8.6696,0 8.6695,-10e-5 z" clip-path="url(#1847291120323-clipPath1)" id="path249" ns1:connector-curvature="0" style="stroke:none" />
    </g>
    <g id="g251" style="text-rendering:geometricPrecision;fill:#f0abfc;stroke:none">
      <path d="m 204.3547,324.6996 -5e-4,58.5369 c 0,0.7662 0.6209,1.3871 1.3871,1.3871 0.7663,0 1.3871,-0.6209 1.3871,-1.3871 l 6e-4,-58.5369 c 0,-0.7662 -0.6209,-1.3871 -1.3871,-1.3871 -0.7663,0 -1.3872,0.6208 -1.3872,1.3871 z" clip-path="url(#1847291120323-clipPath1)" id="path253" ns1:connector-curvature="0" style="stroke:none" />
    </g>
    <g id="g255" style="fill:#eef2ff;stroke:none;text-rendering:geometricPrecision">
      </g>
    <g font-size="22px" transform="translate(585.9706,215.5701)" id="g259" style="font-size:22px;font-family:sans-serif;fill:#fda4af;stroke:none;text-rendering:geometricPrecision">
      <text x="0" xml:space="preserve" y="21" clip-path="url(#1847291120344-clipPath1)" id="text261" style="stroke:none">O</text>
    </g>
    <g font-size="22px" id="g263" style="font-size:22px;font-family:sans-serif;fill:#eef2ff;stroke:none;text-rendering:geometricPrecision">
      <text x="0" y="21" transform="translate(252.9682,279.6574)" clip-path="url(#1847291120378-clipPath1)" xml:space="preserve" id="text267" style="fill:#fda4af;stroke:none">O</text>
    </g>
    <g font-size="22px" id="g269" style="font-size:22px;font-family:sans-serif;fill:#eef2ff;stroke:none;text-rendering:geometricPrecision">
      <text x="0" y="21" transform="translate(419.9316,247.6152)" clip-path="url(#1847291120821-clipPath1)" xml:space="preserve" id="text273" style="fill:#f0abfc;stroke:none">H</text>
    </g>
    <g font-size="22px" id="g275" style="font-size:22px;font-family:sans-serif;fill:#eef2ff;stroke:none;text-rendering:geometricPrecision">
      <text x="0" y="21" transform="translate(530.939,247.6181)" clip-path="url(#1847291120356-clipPath1)" xml:space="preserve" id="text279" style="fill:#f0abfc;stroke:none">H</text>
    </g>
    <g font-size="22px" id="g281" style="font-size:22px;font-family:sans-serif;fill:#eef2ff;stroke:none;text-rendering:geometricPrecision">
      <text x="0" y="21" transform="translate(562.5199,20.8166)" clip-path="url(#1847291120719-clipPath1)" xml:space="preserve" id="text285" style="fill:#fda4af;stroke:none">O</text>
    </g>
    <g font-size="22px" id="g287" style="font-size:22px;font-family:sans-serif;fill:#eef2ff;stroke:none;text-rendering:geometricPrecision">
      <text x="0" y="21" transform="translate(308.4698,503.9567)" clip-path="url(#1847291120180-clipPath1)" xml:space="preserve" id="text291" style="fill:#fda4af;stroke:none">O</text>
    </g>
    <g font-size="22px" id="g293" style="font-size:22px;font-family:sans-serif;fill:#eef2ff;stroke:none;text-rendering:geometricPrecision">
      <text x="0" y="21" transform="translate(419.4689,503.9567)" clip-path="url(#1847291120887-clipPath1)" xml:space="preserve" id="text297" style="fill:#fda4af;stroke:none">O</text>
    </g>
    <g font-size="22px" id="g299" style="font-size:22px;font-family:sans-serif;fill:#eef2ff;stroke:none;text-rendering:geometricPrecision">
      <text x="0" y="21" transform="translate(141.9691,279.6564)" clip-path="url(#1847291120621-clipPath1)" xml:space="preserve" id="text303" style="fill:#fda4af;stroke:none">O</text>
    </g>
    <g font-size="22px" id="g305" style="font-size:22px;font-family:sans-serif;fill:#eef2ff;stroke:none;text-rendering:geometricPrecision">
      <text x="0" y="21" transform="translate(363.9693,215.5725)" clip-path="url(#1847291120460-clipPath1)" xml:space="preserve" id="text309" style="fill:#fda4af;stroke:none">O</text>
    </g>
    <g font-size="22px" id="g311" style="font-size:22px;font-family:sans-serif;fill:#eef2ff;stroke:none;text-rendering:geometricPrecision">
      <text x="0" y="21" transform="translate(641.484,311.6897)" clip-path="url(#1847291120962-clipPath1)" xml:space="preserve" id="text315" style="fill:#fda4af;stroke:none">O</text>
    </g>
  </g>
</svg>