<?xml version="1.0" encoding="UTF-8" standalone="no"?>
<!-- Created with Inkscape (http://www.inkscape.org/) -->

<svg
   viewBox="0 0 203.2 194.8989"
   version="1.1"
   id="svg1"
   inkscape:version="1.3.2 (091e20e, 2023-11-25, custom)"
   sodipodi:docname="dose.wiki_Pilot.svg"
   inkscape:export-filename="dose.wiki_Pilot2.png"
   inkscape:export-xdpi="96"
   inkscape:export-ydpi="96"
   xmlns:inkscape="http://www.inkscape.org/namespaces/inkscape"
   xmlns:sodipodi="http://sodipodi.sourceforge.net/DTD/sodipodi-0.dtd"
   xmlns:xlink="http://www.w3.org/1999/xlink"
   xmlns="http://www.w3.org/2000/svg"
   xmlns:svg="http://www.w3.org/2000/svg">
  <sodipodi:namedview
     id="namedview1"
     pagecolor="#505050"
     bordercolor="#ffffff"
     borderopacity="1"
     inkscape:showpageshadow="0"
     inkscape:pageopacity="0"
     inkscape:pagecheckerboard="1"
     inkscape:deskcolor="#505050"
     inkscape:document-units="in"
     inkscape:zoom="0.97890839"
     inkscape:cx="319.74391"
     inkscape:cy="378.48281"
     inkscape:window-width="1920"
     inkscape:window-height="991"
     inkscape:window-x="-9"
     inkscape:window-y="-9"
     inkscape:window-maximized="1"
     inkscape:current-layer="layer1" />
  <defs
     id="defs1">
    <linearGradient
       inkscape:collect="always"
       xlink:href="#linearGradient36"
       id="linearGradient93"
       gradientUnits="userSpaceOnUse"
       gradientTransform="translate(-169.79333,-92.427929)"
       x1="182.98779"
       y1="194.02751"
       x2="359.79733"
       y2="194.02751" />
    <linearGradient
       id="linearGradient36"
       inkscape:collect="always">
      <stop
         style="stop-color:#ff00ff;stop-opacity:1;"
         offset="0"
         id="stop36" />
      <stop
         style="stop-color:#8000ff;stop-opacity:1;"
         offset="1"
         id="stop37" />
    </linearGradient>
    <radialGradient
       inkscape:collect="always"
       xlink:href="#linearGradient124"
       id="radialGradient43-6-72"
       cx="298.84396"
       cy="279.56296"
       fx="298.84396"
       fy="279.56296"
       r="89.425133"
       gradientTransform="matrix(1,0,0,0.95955531,-197.24284,-166.65553)"
       gradientUnits="userSpaceOnUse" />
    <linearGradient
       id="linearGradient124"
       inkscape:collect="always">
      <stop
         style="stop-color:#ffffff;stop-opacity:0;"
         offset="0.4698582"
         id="stop123" />
      <stop
         style="stop-color:#0000ff;stop-opacity:0.06879607;"
         offset="1"
         id="stop124" />
    </linearGradient>
    <clipPath
       clipPathUnits="userSpaceOnUse"
       id="clipPath1">
      <rect
         style="fill:#ff00ff;fill-opacity:0.136646;stroke:none;stroke-width:1.99899;stroke-linejoin:round;stroke-opacity:0.0351967"
         id="rect2"
         width="177.04236"
         height="169.80984"
         x="12.961609"
         y="16.658733" />
    </clipPath>
  </defs>
  <g
     inkscape:label="Layer 1"
     inkscape:groupmode="layer"
     id="layer1">
    <path
       id="path2-9-12-8-7-6-1-10"
       style="fill:url(#linearGradient93);stroke:url(#radialGradient43-6-72);stroke-width:0.832;stroke-linecap:butt;stroke-linejoin:round;stroke-dasharray:none;stroke-dashoffset:0;stroke-opacity:1;paint-order:fill markers stroke"
       inkscape:transform-center-x="-1.3628081e-06"
       d="m 52.485488,16.819431 c -5.02288,0.10881 -9.84453,3.38078 -11.80776,8.04995 -1.7305,3.98141 -1.31593,8.83688 1.19841,12.39655 0.88363,1.02647 0.14921,2.40108 -0.51974,3.31843 -9.36873,16.01186 -18.77761,32.00563 -28.16193,48.01046 2.27039,4.02663 4.60926,8.02046 6.81259,12.081289 0.36507,1.47231 -0.93647,2.57753 -1.48784,3.80636 -1.77492,3.02508 -3.54983,6.05016 -5.32475,9.07524 9.60387,16.928 19.24617,33.83805 28.826,50.77728 0.47556,1.40241 -0.89435,2.4005 -1.29102,3.61207 -1.76702,3.93994 -1.40091,8.64943 0.9605,12.26456 2.72609,4.38072 8.15712,6.85802 13.25233,6.01216 4.26897,-0.64145 8.15583,-3.55147 9.83671,-7.54632 0.8024,-1.12811 2.32352,-0.82966 3.48057,-0.82872 18.38101,0.10748 36.762662,0.25573 55.143912,0.37889 2.35277,-3.9794 4.64544,-7.9998 7.05825,-11.94031 1.09167,-1.05713 2.7029,-0.48153 4.04447,-0.61612 3.50548,0.0253 7.01095,0.0506 10.51642,0.076 9.85841,-16.78088 19.68399,-33.58449 29.56292,-50.35116 0.9791,-1.1214 2.53816,-0.43463 3.79218,-0.6956 5.13947,-0.49258 9.73867,-4.37557 11.08292,-9.36218 1.26619,-4.22735 0.29259,-9.061949 -2.64023,-12.384289 -2.69162,-3.20281 -7.00198,-4.93756 -11.16138,-4.46658 -1.49801,-0.084 -1.94765,-1.72284 -2.60459,-2.79534 -9.078,-15.88862 -18.08488,-31.82019 -27.13534,-47.7261 -4.62113,-0.0513 -9.24827,-0.0202 -13.86544,-0.1436 -1.46179,-0.41696 -1.76255,-2.10281 -2.55429,-3.19338 -1.73249,-3.04783 -3.46497,-6.09566 -5.19745,-9.14349 -19.46088,-0.1477 -38.925132,-0.25502 -58.383902,-0.42795 -1.4447,-0.28418 -1.63414,-1.95984 -2.47877,-2.90306 -2.44945,-3.46968 -6.72636,-5.49302 -10.95375,-5.335 z m 15.04102,14.97461 c 17.235,0.0601 34.473062,-0.0122 51.706352,0.0361 1.52856,0.32712 1.82733,2.07617 2.67647,3.13769 0.77382,1.15138 -0.14848,2.85932 -1.53125,2.84179 -4.47402,-0.0958 -8.96091,-0.0684 -13.44033,-0.12022 -11.595422,-0.0817 -23.190832,-0.16334 -34.786242,-0.24501 -2.35452,3.97825 -4.64193,8.00212 -7.05887,11.93976 -1.09218,1.05659 -2.70243,0.48069 -4.04386,0.61477 -3.50547,-0.0247 -7.01094,-0.0494 -10.51641,-0.0741 -8.33594,14.20703 -16.67187,28.41406 -25.00781,42.62109 -0.9739,1.15264 -2.97844,0.39819 -3.29688,-0.97266 -0.63895,-1.02553 -1.54776,-2.30699 -0.81836,-3.52734 8.68155,-15.00047 17.32716,-30.0233 26.01773,-45.01698 0.80655,-1.01127 2.16328,-0.55257 3.22168,-0.35025 4.99257,0.78793 10.33323,-1.56501 13.02443,-5.86429 0.88681,-1.27008 1.38029,-2.75644 1.91351,-4.18378 0.42312,-0.62439 1.2221,-0.84333 1.93984,-0.83665 z m 70.869152,12.46093 c 1.21417,0.1869 2.78211,-0.36694 3.64516,0.80109 0.75815,0.96552 1.20406,2.13289 1.88686,3.15217 8.11021,14.06613 16.25408,28.11585 24.34324,42.19223 0.45222,1.19766 -0.59685,2.15276 -1.31559,2.95639 -1.2603,1.53318 -2.23056,3.66013 -2.59092,5.55242 -0.86758,4.071469 0.30647,8.513959 3.15057,11.568229 0.57344,0.54043 1.03783,1.28575 0.7713,2.09974 -0.35966,1.15185 -1.19016,2.08037 -1.70388,3.1642 -8.17708,14.14241 -16.31827,28.30965 -24.51777,42.43653 -1.07302,1.17743 -2.75504,0.53354 -4.12601,0.75279 -1.40588,0.0383 -2.3694,-1.71011 -1.55664,-2.87305 1.63596,-2.62787 3.13822,-5.34568 4.73072,-8.00448 6.54354,-11.15215 13.08707,-22.30431 19.63061,-33.45646 -2.2699,-4.02756 -4.60884,-8.022 -6.81258,-12.08325 -0.3662,-1.47398 0.93784,-2.578799 1.48982,-3.808289 1.77425,-3.02313 3.54851,-6.04627 5.32276,-9.0694 -8.13541,-14.32226 -16.27083,-28.64453 -24.40625,-42.96679 -0.45579,-1.24304 0.81453,-2.55119 2.0586,-2.41407 z m -61.404312,0.0195 c 10.84801,0.0596 21.70509,-0.0154 32.551082,0.0416 1.48574,0.37835 1.67659,2.55974 0.51143,3.41736 -0.56702,0.97291 -0.94384,2.40844 -2.26953,2.55859 -6.17572,0.0386 -12.353272,-0.0737 -18.529732,-0.0951 -4.81958,-0.0473 -9.64464,-0.0426 -14.4608,-0.12231 -1.47686,-0.37382 -1.67709,-2.46117 -0.65146,-3.41442 0.53778,-1.0742 1.25916,-2.43888 2.66177,-2.37731 0.0625,-8e-5 0.12472,-0.01 0.18724,-0.008 z m -21.3789,12.48242 c 1.1621,0.17596 2.72335,-0.4154 3.51172,0.75781 0.61968,0.9122 0.24709,2.09111 -0.42526,2.8525 -5.36835,9.12952 -10.70387,18.28178 -16.09274,27.3971 -0.9699,1.12092 -2.53079,0.43523 -3.76911,0.76993 -1.47154,0.20919 -2.56856,-1.72448 -1.63672,-2.88672 4.77729,-8.20991 9.50352,-16.45471 14.26305,-24.67702 0.75587,-1.20748 1.34757,-2.53692 2.2057,-3.66868 0.52723,-0.46692 1.26508,-0.5655 1.94336,-0.54492 z m 14.36133,-0.002 c 12.41231,0.0783 24.82938,-0.0506 37.239002,0.0629 1.28923,0.27716 1.47358,1.73916 1.87655,2.76779 1.75637,4.37799 6.04476,7.5983 10.65594,8.12634 1.80792,0.25422 3.67009,-0.0359 5.38867,-0.3711 1.40322,0.0888 1.88484,1.57075 2.50378,2.58454 5.9599,10.32209 11.93922,20.6368 17.87082,30.973319 0.46197,1.46258 -0.8339,2.60407 -1.38593,3.825 -5.88594,10.16808 -11.72709,20.36635 -17.64102,30.51558 -0.85303,0.97977 -2.20404,0.48871 -3.27859,0.29602 -5.103,-0.77948 -10.50939,1.75547 -13.16821,6.18085 -0.76638,1.14642 -1.17913,2.47004 -1.63948,3.75083 -0.7527,1.27374 -2.40381,0.91333 -3.6352,0.93201 -11.881232,0.0231 -23.765632,0.0355 -35.644922,0.003 -1.49936,-0.33674 -1.84865,-2.02467 -2.62736,-3.12146 -5.85848,-10.16518 -11.75126,-20.3137 -17.5883,-30.4893 -0.4647,-1.23875 0.65304,-2.19299 1.37072,-3.03343 1.61637,-2.03055 2.56616,-4.56175 2.77384,-7.14325 0.17925,-2.03852 -0.15559,-4.306669 -1.01673,-6.246399 -0.66478,-1.63933 -1.74273,-3.06381 -2.93835,-4.34735 -0.73063,-1.2238 0.28453,-2.47867 0.8968,-3.50253 5.965,-10.35788 11.92084,-20.72406 17.93328,-31.05216 0.50443,-0.58775 1.3197,-0.72594 2.05469,-0.71094 z m 64.824222,2.4161 c 1.23286,-0.074 1.7892,1.19362 2.24265,2.11695 5.1678,8.8645 10.2957,17.75299 15.3966,26.65527 0.84772,1.0925 0.0703,2.46269 -0.61386,3.40747 -0.40905,0.7305 -0.71796,1.69971 -1.67084,1.86561 -1.04961,0.31759 -2.02384,-0.46531 -2.37018,-1.4203 -5.25158,-9.28944 -10.54401,-18.56645 -15.81054,-27.85156 -0.51954,-1.24246 0.54752,-2.29145 1.04101,-3.32617 0.20583,-0.79087 0.92979,-1.49386 1.78516,-1.44727 z M 24.655418,110.38974 c -0.7605,-0.50421 -0.17204,-0.59193 0.38393,-0.312 1.00133,0.51776 1.21094,1.75233 1.83665,2.60653 7.58663,13.3543 15.17326,26.7086 22.75989,40.06289 4.62116,0.046 9.24823,0.0193 13.86544,0.13969 1.37849,0.37307 1.70192,1.92783 2.40799,2.93062 1.78125,3.13672 3.5625,6.27344 5.34375,9.41016 16.47006,0.11589 32.940112,0.23177 49.410162,0.34766 1.48425,0.26639 1.83313,2.37905 0.80469,3.33984 -0.56567,1.05488 -1.20863,2.47549 -2.61523,2.46484 -17.34251,-0.01 -34.687722,0.0118 -52.028772,-0.0175 -1.30628,-0.21056 -1.57053,-1.66223 -1.94039,-2.69967 -1.96283,-5.03639 -7.2667,-8.55408 -12.68392,-8.27997 -1.17655,-0.0125 -2.32367,0.32931 -3.47535,0.44685 -1.46159,-0.17893 -1.8524,-1.792 -2.56064,-2.82868 -8.30856,-14.4117 -16.6558,-28.80504 -24.94019,-43.22821 -0.47325,-1.49355 0.88248,-2.62008 1.39683,-3.88503 0.30289,-0.54102 0.9895,-1.13255 1.613,-0.90519 0.14072,0.13571 0.28144,0.27143 0.42216,0.40714 z m 125.232422,-0.26953 c 1.28709,-0.10002 1.66836,1.3747 2.2539,2.22364 0.63307,0.88106 0.97192,2.14898 0.22874,3.07513 -5.43581,9.36717 -10.81898,18.77019 -16.27179,28.12358 -1.06926,1.09509 -3.05631,0.18051 -3.21671,-1.26024 -0.5501,-0.98146 -1.61291,-2.00765 -1.08789,-3.23438 2.20796,-3.93506 4.55452,-7.79447 6.8188,-11.69897 3.29417,-5.58825 6.54627,-11.20706 9.86672,-16.77621 0.34685,-0.39534 0.9098,-0.47686 1.40823,-0.45255 z m -110.992192,4.5293 c 1.11363,0.35157 2.34252,-0.24564 3.40625,0.27148 1.14393,0.72955 1.41962,2.12422 2.16826,3.15445 4.92118,8.69046 9.88976,17.35981 14.78133,26.06347 0.40809,1.4609 -1.29005,2.68271 -2.62771,2.27036 -1.17556,0.0583 -2.69807,0.15059 -3.35704,-1.05664 -5.42139,-9.40943 -10.87242,-18.80705 -16.27591,-28.22351 -0.6352,-1.23275 0.66077,-2.5797 1.90482,-2.47961 z m 36.49219,38.25 c 10.86445,0.15249 21.731,0.13195 32.595712,0.28125 1.46902,0.26842 1.64878,1.98925 2.5625,2.89843 0.92816,1.21893 -0.35058,3.17219 -1.84024,2.83184 -10.794672,-0.0389 -21.592922,0.008 -32.385392,-0.0297 -1.39428,-0.29383 -1.79524,-1.83297 -2.45385,-2.83447 -1.05831,-1.04623 -0.29034,-3.11297 1.21658,-3.14342 0.10132,-0.009 0.20316,-0.002 0.30469,-0.004 z"
       clip-path="url(#clipPath1)"
       transform="matrix(1.1477479,0,0,1.1477479,-14.876659,-19.120026)"
       inkscape:transform-center-y="3.5032865e-06" />
  </g>
</svg>
